<svg id="efk7od7u02wt1" xmlns="http://www.w3.org/2000/svg" xmlns:xlink="http://www.w3.org/1999/xlink" viewBox="0 0 300 300" shape-rendering="geometricPrecision" text-rendering="geometricPrecision"><style><![CDATA[#efk7od7u02wt81 {animation: efk7od7u02wt81_c_o 4000ms linear infinite normal forwards}@keyframes efk7od7u02wt81_c_o { 0% {opacity: 0} 25% {opacity: 0} 27.500000% {opacity: 1} 100% {opacity: 1} }#efk7od7u02wt82 {animation: efk7od7u02wt82_c_o 4000ms linear infinite normal forwards}@keyframes efk7od7u02wt82_c_o { 0% {opacity: 0} 50% {opacity: 0} 52.500000% {opacity: 1} 100% {opacity: 1} }#efk7od7u02wt83 {animation: efk7od7u02wt83_c_o 4000ms linear infinite normal forwards}@keyframes efk7od7u02wt83_c_o { 0% {opacity: 0} 75% {opacity: 0} 77.500000% {opacity: 1} 100% {opacity: 1} }]]></style><defs><linearGradient id="efk7od7u02wt66-fill" x1="-8.512880" y1="-0.000030" x2="8.513770" y2="-0.000030" spreadMethod="pad" gradientUnits="userSpaceOnUse"><stop id="efk7od7u02wt66-fill-0" offset="32.492000%" stop-color="rgb(119,187,247)"/><stop id="efk7od7u02wt66-fill-1" offset="99.998000%" stop-color="rgb(59,141,235)"/></linearGradient></defs><polygon id="efk7od7u02wt2" points="207.819000,123.924000 199.994000,133.784000 214.330000,130.217000 207.819000,123.924000" fill="rgb(162,162,184)" stroke="none" stroke-width="1"/><path id="efk7od7u02wt3" d="M173.129510,224.100050L165.128640,218.423000C163.789961,218.003361,162.346652,218.065292,161.048840,218.598060C160.360260,218.861060,160.190100,218.262900,160.298910,219.016060L159.849000,222.245000C159.346320,224.414260,160.914570,225.647370,163.104470,226.305500L170.537370,228.405420C172.146529,228.894115,173.892958,228.565434,175.214370,227.525200L175.505830,227.246320C176.534090,226.262310,174.805580,225.035810,173.129510,224.100050Z" fill="rgb(255,74,70)" stroke="none" stroke-width="1"/><path id="efk7od7u02wt4" d="M160.359600,219.831460C160.465600,222.213800,166.260520,221.956070,166.154600,219.573690L165.810220,211.831020L160.015220,212.088760Z" fill="rgb(255,162,173)" stroke="none" stroke-width="1"/><path id="efk7od7u02wt5" d="M137.816450,107.536630L130.905790,119.159700C128.626946,123.322869,127.498572,128.018070,127.636790,132.762120C127.801090,138.634970,128.576160,145.609710,131.357030,145.130060C136.111390,144.310000,135.394430,139.445060,135.394430,139.445060L140.398730,120.182240Z" fill="rgb(62,75,246)" stroke="none" stroke-width="1"/><path id="efk7od7u02wt6" d="M169.410860,107.536630L176.321490,119.159700C178.600367,123.322859,179.728762,128.018064,179.590550,132.762120C179.426220,138.634970,178.651180,145.609710,175.870280,145.130060C171.115950,144.310000,171.832910,139.445060,171.832910,139.445060L166.828610,120.182240Z" fill="rgb(62,75,246)" stroke="none" stroke-width="1"/><path id="efk7od7u02wt7" d="M158.957480,217.308380C161.642390,219.024160,164.080900,219.075260,166.238660,217.229530C166.238660,217.229530,169.176970,194.337860,168.094110,183.757720C168.094110,183.757720,171.558470,156.726400,171.317470,146.195220L153.402220,138.434000C154.523790,147.680410,154.882220,152.921460,155.482500,161.710880C155.622760,163.764550,157.995360,184.731230,157.592300,187.656990C156.363780,196.574450,158.957480,217.308380,158.957480,217.308380Z" fill="rgb(26,0,109)" stroke="none" stroke-width="1"/><path id="efk7od7u02wt8" d="M138.837560,224.336800L146.665010,218.422940C147.990537,217.963441,149.435052,217.982155,150.748230,218.475840C151.444390,218.718080,151.596570,218.115150,151.510360,218.871260L152.056600,222.085260C152.623950,224.238490,151.093330,225.517990,148.924080,226.241260L141.557360,228.562630C139.963542,229.099203,138.208085,228.822922,136.856130,227.822730L136.556480,227.552670C135.499210,226.599930,137.190270,225.322300,138.837560,224.336800Z" fill="rgb(255,74,70)" stroke="none" stroke-width="1"/><path id="efk7od7u02wt9" d="M151.474070,219.688060C151.439420,222.072520,145.639370,221.988260,145.674070,219.603800L145.786670,211.854270L151.586670,211.938560Z" fill="rgb(255,162,173)" stroke="none" stroke-width="1"/><path id="efk7od7u02wt10" d="M152.800070,217.124190C150.167720,218.919500,147.731820,219.043560,145.519820,217.263190C145.519820,217.263190,141.897990,194.469660,142.663820,183.861860C142.663820,183.861860,138.392340,156.946270,138.318200,146.412610L155.993200,138.118950C155.148740,147.394780,154.947320,152.644210,154.610200,161.447640C154.531440,163.504640,152.787200,184.532870,153.277590,187.445250C154.772370,196.321930,152.800070,217.124190,152.800070,217.124190Z" fill="rgb(26,0,109)" stroke="none" stroke-width="1"/><path id="efk7od7u02wt11" d="M157.345670,99.960210L153.598770,98.710830L149.851860,99.960210C138.787790,106.763050,135.705470,104.731920,135.683490,118.558480L137.329490,146.515080C137.688490,152.916410,145.948650,156.751230,153.598780,157.173730C161.248900,156.751230,170.177560,153.304350,170.536570,146.903020L171.514060,118.558480C171.492070,104.731920,168.409750,106.763050,157.345670,99.960210Z" fill="rgb(62,75,246)" stroke="none" stroke-width="1"/><circle id="efk7od7u02wt12" r="6.412570" transform="matrix(1 0 0 1 245.79300000000001 115.64900000000000)" fill="rgb(39,66,122)" stroke="none" stroke-width="1"/><path id="efk7od7u02wt13" d="M232.931800,106.846740C232.931800,106.846740,231.370690,112.935740,234.829280,114.507860C238.287870,116.079980,240.040900,103.547700,240.040900,103.547700Z" fill="rgb(39,66,122)" stroke="none" stroke-width="1"/><path id="efk7od7u02wt14" d="M248.489290,224.163660L248.588140,228.993420C248.749406,230.223346,248.999476,231.439987,249.336390,232.633810C249.775181,233.729853,250.798961,234.481079,251.976160,234.570810C253.290370,234.661960,255.934330,232.340280,254.995340,229.455190C254.176860,226.940400,252.765550,223.474700,252.765550,223.474700C251.426345,224.079163,249.950575,224.316929,248.489290,224.163660Z" fill="rgb(39,66,122)" stroke="none" stroke-width="1"/><path id="efk7od7u02wt15" d="M226.433230,228.466650L232.869930,220.830800C234.253975,220.247214,235.776628,220.073875,237.256430,220.331440C237.887172,220.402825,238.361082,220.940730,238.352430,221.575440L238.527430,222.840970C238.755760,224.963280,239.023120,225.660400,237.706780,226.367270L229.890130,230.564730C228.286660,231.832630,223.728480,231.245000,226.433230,228.466650Z" fill="rgb(39,66,122)" stroke="none" stroke-width="1"/><path id="efk7od7u02wt16" d="M233.133410,221.599670C233.133410,221.599670,229.458060,226.147820,229.937830,226.463980C231.928760,227.775980,236.572620,223.457910,236.572620,223.457910C236.572620,223.457910,233.988920,221.363790,233.133410,221.599670Z" fill="rgb(211,211,240)" stroke="none" stroke-width="1"/><path id="efk7od7u02wt17" d="M236.648590,223.331580C235.644840,225.229580,232.794740,224.018460,232.632590,222.022750C232.668130,210.847070,230.282590,202.069510,230.309590,191.622490C230.339890,179.892660,231.199590,179.691490,231.271900,161.711080L242.174720,163.448150C240.157060,176.377350,239.302450,192.709150,239.302450,192.709150C242.185280,205.244410,238.752180,207.925000,236.648590,223.331580Z" fill="rgb(211,211,240)" stroke="none" stroke-width="1"/><path id="efk7od7u02wt18" d="M252.652760,225.586520C251.826650,227.568260,248.877820,226.622720,248.533990,224.650170C247.548060,213.518010,244.370400,204.995170,243.442520,194.589450C242.400740,182.905940,243.238430,182.627030,241.667260,164.715260L252.683150,165.448670C251.855520,178.508140,252.497040,194.849730,252.497040,194.849730C256.513320,207.069000,253.339570,210.052160,252.652760,225.586520Z" fill="rgb(211,211,240)" stroke="none" stroke-width="1"/><path id="efk7od7u02wt19" d="M230.000300,147.156070C230.000300,147.156070,227.681840,146.257430,228.781520,187.528160C228.781520,187.528160,231.394940,189.920880,238.586150,191.791540C245.364810,193.554840,249.768320,185.569090,255.252980,187.468240C255.252980,187.468240,251.862410,179.576740,252.317160,175.882650C252.771910,172.188560,255.037160,150.597920,248.965430,149.894530C242.893700,149.191140,230.000300,147.156070,230.000300,147.156070Z" fill="rgb(175,175,199)" stroke="none" stroke-width="1"/><path id="efk7od7u02wt20" d="M256.317000,187.299200C256.317000,187.299200,254.171280,179.933700,254.626060,176.239570C255.080840,172.545440,256.101240,150.428850,250.029450,149.725490C248.644120,149.564990,246.902330,149.334850,245.040960,149.075710C245.464320,152.669010,246.313960,158.559150,247.985960,168.191320C250.215200,181.032980,246.004570,188.119390,241.869220,191.869680C247.440490,191.695890,251.797090,191.869680,256.317000,187.299200Z" fill="rgb(100,107,148)" stroke="none" stroke-width="1"/><path id="efk7od7u02wt21" d="M231.207550,127.354610C231.207550,127.354610,230.942300,117.676270,236.245000,117.651610C236.983540,117.648190,238.199080,116.922950,239.052480,116.937070C243.481110,117.010250,242.855480,117.055360,246.104770,118.187950C247.328910,118.614630,248.206190,122.085200,248.053450,123.399950L250.138070,127.261750Z" fill="rgb(211,211,240)" stroke="none" stroke-width="1"/><path id="efk7od7u02wt22" d="M234.417000,117.437900C235.279590,117.289900,236.411280,117.034040,236.310670,117.541130C235.869140,119.766230,242.850920,119.989910,243.341350,118.058000C243.819350,116.175080,244.677500,117.430790,245.009000,117.621380L246.774320,118.263330C256.297810,120.791330,254.104400,123.445580,251.959990,128.571170C251.959990,128.571170,249.443340,137.551000,249.469990,141.202690C249.492990,144.359690,252.498990,149.129360,253.073370,150.119580C253.818020,151.403450,249.891370,159.753330,237.682810,158.809340C228.068610,158.065970,229.008940,154.079860,229.018250,148.855600C229.024090,145.568260,230.703320,136.737270,230.559250,134.138070C230.415180,131.538870,228.351690,129.662690,229.585770,125.432910C230.819850,121.203130,231.725400,118.314460,231.725400,118.314460Z" fill="rgb(191,191,217)" stroke="none" stroke-width="1"/><path id="efk7od7u02wt23" d="M240.272000,118.909290L239.809050,118.929130C238.760410,119.089010,237.866050,118.864590,237.765850,117.832800L237.201000,112.015000C237.124027,110.953956,237.874183,110.011422,238.925440,109.848330L239.235950,109.801010C240.284560,109.641130,241.861690,110.040160,241.961870,111.071940L242.819710,117.236240C242.919910,118.268000,241.320610,118.749440,240.272000,118.909290Z" fill="rgb(211,211,240)" stroke="none" stroke-width="1"/><path id="efk7od7u02wt24" d="M237.568650,115.617000C239.279585,115.540645,240.861221,114.684584,241.860770,113.293890C242.860319,111.903196,239.992220,116.882890,237.682770,117.188320Z" fill="rgb(191,191,217)" stroke="none" stroke-width="1"/><path id="efk7od7u02wt25" d="M243.644000,104.175400C242.851940,102.546770,241.481110,102.136010,240.121000,102.888700C238.897350,102.221380,237.306600,102.858150,236.022130,104.753180C234.233590,107.391840,233.469940,111.782000,234.625130,114.157270C235.068126,115.020794,235.945160,115.575588,236.915210,115.605930C237.744855,115.699197,238.584703,115.631448,239.388670,115.406400C242.301180,114.620210,242.317540,115.043510,243.508860,113.285860C245.297440,110.647200,244.799230,106.550730,243.644000,104.175400Z" fill="rgb(211,211,240)" stroke="none" stroke-width="1"/><path id="efk7od7u02wt26" d="M241.760710,104.997380C242.613460,107.799460,242.365100,114.077510,242.462710,114.919610C242.462710,114.919610,248.184710,115.094520,247.816830,108.599710C247.358940,100.514430,242.545950,104.296010,242.545950,104.296010Z" fill="rgb(39,66,122)" stroke="none" stroke-width="1"/><path id="efk7od7u02wt27" d="M243.639720,106.216840C240.603630,104.742220,237.874320,106.044720,232.931800,106.846740C232.610800,106.139630,233.779180,104.382220,234.832730,103.701620C237.034420,102.279310,238.152170,101.506620,240.470070,101.143990L241.028230,101.116640C244.398810,100.951570,246.094150,102.345010,246.613010,105.610490C246.658650,105.897630,247.151550,107.225900,247.155960,107.465260L246.105760,107.040750C246.141190,108.955580,245.577000,106.069590,243.639720,106.216840Z" fill="rgb(39,66,122)" stroke="none" stroke-width="1"/><path id="efk7od7u02wt28" d="M244.684520,111.889140C244.684526,112.791412,243.953095,113.522853,243.050823,113.522860C242.148552,113.522867,241.417109,112.791438,241.417100,111.889167C241.417091,110.986895,242.148518,110.255451,243.050790,110.255440C243.953062,110.255440,244.684503,110.986868,244.684520,111.889140Z" fill="rgb(211,211,240)" stroke="none" stroke-width="1"/><path id="efk7od7u02wt29" d="M248.655780,225.072820C248.655780,225.072820,249.533000,230.269820,251.710780,229.831080C253.888560,229.392340,252.472870,224.299570,252.472870,224.299570Z" fill="rgb(211,211,240)" stroke="none" stroke-width="1"/><path id="efk7od7u02wt30" d="M248.940560,118.909290C244.550249,122.625402,242.334595,128.308036,243.050790,134.015170C244.152740,143.900110,244.797270,174.237840,244.797270,174.237840C244.797270,174.237840,254.794690,172.179510,257.146580,166.926200C259.498470,161.672890,253.468040,121.739060,253.468040,121.739060C253.468040,121.739060,253.326870,119.802210,248.940560,118.909290Z" fill="rgb(126,135,186)" stroke="none" stroke-width="1"/><path id="efk7od7u02wt31" d="M255.186670,141.290050C254.612300,140.299830,254.164470,142.748520,254.141410,139.591470C254.126350,137.524270,250.341320,135.461560,251.038320,132.575070C247.155960,131.882580,248.079830,143.415840,249.093120,145.404470C252.075230,164.005870,254.411620,170.976880,248.940560,173.004660C251.945860,172.424710,256.204050,169.661530,257.345610,166.322190C260.447460,157.248480,255.667840,142.119640,255.186670,141.290050Z" fill="rgb(100,107,148)" stroke="none" stroke-width="1"/><path id="efk7od7u02wt32" d="M234.933780,116.729580C235.237615,116.722929,235.523870,116.871656,235.693095,117.124090C235.862319,117.376524,235.891154,117.697819,235.769580,117.976350C234.939680,119.850120,233.315640,124.314850,232.580400,131.836230C231.570030,142.171980,231.205400,173.004660,231.205400,173.004660C231.205400,173.004660,226.885920,172.452250,226.827120,166.474590C226.768320,160.496930,227.454300,131.836230,227.454300,131.836230L231.330140,118.354330C232.292600,117.390796,233.574445,116.812859,234.933780,116.729580Z" fill="rgb(126,135,186)" stroke="none" stroke-width="1"/><path id="efk7od7u02wt33" d="M61.493740,109.497820C61.493740,109.497820,56.832960,110.434080,56.687740,112.487620C56.607126,113.823457,56.652103,115.163912,56.822080,116.491340L71.340080,115.614840L70.262470,109.863370Z" fill="rgb(39,66,122)" stroke="none" stroke-width="1"/><path id="efk7od7u02wt34" d="M81.698330,227.836000L73.998000,222.116570C72.663540,221.627077,71.211927,221.554198,69.835150,221.907570C69.114590,222.078170,68.987550,221.535500,69.040240,222.209460L68.334240,225.017120C67.656030,226.885480,69.156090,228.112700,71.332710,228.888180L78.730710,231.402180C80.316258,231.978130,82.072587,231.847175,83.555190,231.042460L83.873070,230.822460C84.994510,230.046190,83.330930,228.810560,81.698330,227.836000Z" fill="rgb(39,66,122)" stroke="none" stroke-width="1"/><path id="efk7od7u02wt35" d="M69.071470,222.731110C69.170070,224.942860,74.562520,224.928830,74.463920,222.717110L74.143440,215.528900L68.751020,215.542900Z" fill="rgb(211,211,240)" stroke="none" stroke-width="1"/><path id="efk7od7u02wt36" d="M68.235390,219.957440C70.112291,221.741563,73.032719,221.822488,75.005540,220.145040C76.978361,218.467592,79.342770,176.032380,78.365840,153.203390L61.447110,147.007610C63.403670,161.079060,67.742700,184.245190,67.742700,184.245190C62.675130,195.466350,66.938230,209.920870,68.235390,219.957440Z" fill="rgb(39,66,122)" stroke="none" stroke-width="1"/><path id="efk7od7u02wt37" d="M61.447050,147.007610L66.191680,148.745110C67.393680,157.084040,69.290890,168.003500,70.647040,175.568840C71.489206,180.460627,71.426607,185.465427,70.462350,190.334620C68.546590,200.406620,71.687240,211.838470,72.768270,220.202290C73.082504,220.454867,73.416236,220.682177,73.766340,220.882090C71.907214,221.735096,69.715925,221.368765,68.235340,219.957440C67.082340,211.036010,63.585890,198.623900,66.382220,188.094830C67.188067,184.916698,67.284719,181.600177,66.665320,178.380510C65.250330,170.580250,62.788670,156.656000,61.447050,147.007610Z" fill="rgb(34,58,107)" stroke="none" stroke-width="1"/><path id="efk7od7u02wt38" d="M49.815720,227.217510C49.560350,229.401910,54.922130,230.244510,55.177500,228.060110L56.007500,220.960880L50.645740,220.118280Z" fill="rgb(211,211,240)" stroke="none" stroke-width="1"/><path id="efk7od7u02wt39" d="M49.444240,224.514000C51.732170,226.516110,53.973240,226.964120,56.161020,225.641280C56.161020,225.641280,58.270660,211.027100,61.493590,195.514190C63.988040,183.507500,67.611290,171.507700,68.529170,161.893060L52.863680,151.886480C52.896150,160.478050,52.019090,179.338910,51.620780,187.429130C51.526777,189.302368,51.032821,191.133772,50.172120,192.800220C46.454710,200.030560,49.444240,224.514000,49.444240,224.514000Z" fill="rgb(39,66,122)" stroke="none" stroke-width="1"/><path id="efk7od7u02wt40" d="M79.701650,154.337220C79.250721,144.692793,79.324253,135.030987,79.921920,125.394540C80.266520,115.794540,78.509170,109.884980,65.387500,110.168950L61.912500,111.156030C51.920990,116.849160,49.131790,114.836720,49.131790,127.507810L51.252550,153.346070C51.949280,165.631370,81.177000,168.770410,79.701650,154.337220Z" fill="rgb(126,135,186)" stroke="none" stroke-width="1"/><path id="efk7od7u02wt41" d="M49.131830,127.507810L51.252590,153.346070C51.658870,160.510340,61.767750,164.564220,69.832200,163.836680C60.361460,158.568590,53.945510,145.170600,49.131830,127.507810Z" fill="rgb(100,107,148)" stroke="none" stroke-width="1"/><path id="efk7od7u02wt42" d="M57.476590,113.180000C57.476590,113.180000,56.936960,116.728340,62.495440,120.079240C64.921601,121.614726,66.709972,123.976500,67.530070,126.728120C67.953310,128.021400,68.731460,127.441010,68.866070,126.113210C68.997527,123.747171,69.403541,121.404430,70.075940,119.132140C71.276420,115.045820,69.309460,108.765720,69.069540,108.705550C68.829620,108.645380,57.476590,113.180000,57.476590,113.180000Z" fill="rgb(255,255,255)" stroke="none" stroke-width="1"/><path id="efk7od7u02wt43" d="M65.047450,110.961380C65.047450,110.961380,70.362760,112.850140,69.229360,117.485680L69.207360,123.050680C69.207360,123.050680,73.195090,116.967280,71.183580,110.948680C69.172070,104.930080,65.047450,110.961380,65.047450,110.961380Z" fill="rgb(39,66,122)" stroke="none" stroke-width="1"/><path id="efk7od7u02wt44" d="M67.150920,110.678220C66.743680,111.342011,66.222380,111.928641,65.611050,112.411070C65.012590,112.689140,56.693530,108.693900,57.486610,101.903360C57.988890,97.602700,66.219660,99.002490,66.219660,99.002490Z" fill="rgb(39,66,122)" stroke="none" stroke-width="1"/><path id="efk7od7u02wt45" d="M63.644800,116.801880L64.056180,116.882660C64.710636,117.020890,65.393148,116.884884,65.944627,116.506345C66.496106,116.127807,66.868367,115.539809,66.974640,114.879410L68.191310,107.128790C68.384904,105.722979,67.449429,104.409828,66.057510,104.133520L65.646100,104.052740C64.991648,103.914516,64.309142,104.050520,63.757664,104.429051C63.206185,104.807582,62.833918,105.395569,62.727630,106.055960L60.451860,113.286290C60.236100,114.660880,62.255400,116.529090,63.644800,116.801880Z" fill="rgb(211,211,240)" stroke="none" stroke-width="1"/><path id="efk7od7u02wt46" d="M67.534170,111.313500C65.261593,111.145541,63.195973,109.931443,61.943680,108.027610C60.691387,106.123777,64.125820,112.977610,67.193980,113.480670Z" fill="rgb(191,191,217)" stroke="none" stroke-width="1"/><path id="efk7od7u02wt47" d="M60.097710,110.050640C60.097710,110.050640,56.450850,114.161860,63.257260,117.956140C63.257260,117.956140,65.910110,120.678710,65.997930,123.495140C65.997930,123.495140,63.708470,121.664900,62.383280,120.663880C61.058090,119.662860,51.176430,113.316930,60.097710,110.050640Z" fill="rgb(39,66,122)" stroke="none" stroke-width="1"/><ellipse id="efk7od7u02wt48" rx="4.340080" ry="7.671350" transform="matrix(0.99661800000000 -0.08217100000000 0.08217100000000 0.99661800000000 68.58050000000000 103.72499999999999)" fill="rgb(211,211,240)" stroke="none" stroke-width="1"/><path id="efk7od7u02wt49" d="M61.548500,107.882410C63.213800,111.213560,69.350040,112.986150,71.097760,110.383970C72.845480,107.781790,70.735960,101.898140,69.070660,98.566970C67.405360,95.235800,64.638530,94.644880,62.890810,97.247030C61.143090,99.849180,59.883180,104.551260,61.548500,107.882410Z" fill="rgb(211,211,240)" stroke="none" stroke-width="1"/><path id="efk7od7u02wt50" d="M64.679720,99.386000C64.679720,99.386000,66.106120,106.081450,60.914340,107.889610C60.914340,107.889610,54.552250,104.746790,58.339670,98.013550C61.678020,92.078670,68.351250,96.081110,68.351250,96.081110Z" fill="rgb(39,66,122)" stroke="none" stroke-width="1"/><path id="efk7od7u02wt51" d="M72.907350,103.494140C72.049004,101.554594,70.338828,100.123466,68.278350,99.620450L70.887230,97.812450C70.887230,97.812450,73.782300,98.301620,72.907350,103.494140Z" fill="rgb(39,66,122)" stroke="none" stroke-width="1"/><path id="efk7od7u02wt52" d="M62.273440,103.499480C63.290700,101.858090,65.795490,101.736430,69.480800,102.820900C70.032110,103.001884,70.622449,103.028479,71.187800,102.897800C73.781120,102.205180,73.860010,98.900670,73.860010,98.900670C74.217010,96.674480,72.667690,95.763830,70.417290,95.314480L64.556290,94.144170C61.568689,93.684595,58.725498,95.585170,58.007950,98.521510L57.893370,98.891040C57.536320,101.117200,60.023000,103.050170,62.273440,103.499480Z" fill="rgb(39,66,122)" stroke="none" stroke-width="1"/><path id="efk7od7u02wt53" d="M60.295050,107.714490C60.689024,108.520504,61.648857,108.871993,62.470180,108.511020C62.853641,108.328214,63.146003,107.996979,63.279770,107.593784C63.413537,107.190588,63.377146,106.750284,63.179000,106.374520C62.785052,105.568484,61.825208,105.216975,61.003880,105.577960C60.620417,105.760772,60.328055,106.092012,60.194287,106.495212C60.060518,106.898412,60.096906,107.338720,60.295050,107.714490Z" fill="rgb(211,211,240)" stroke="none" stroke-width="1"/><path id="efk7od7u02wt54" d="M55.206280,227.758570L54.767460,232.281480C54.579138,233.570582,54.295762,234.843997,53.919650,236.091310C53.432469,237.228241,52.321133,237.971358,51.084320,237.987210C49.685210,238.006770,46.906230,235.394210,47.946120,232.395130C48.852540,229.780970,49.832640,227.027330,49.832640,227.027330C51.793490,228.035490,53.621890,228.446780,55.206280,227.758570Z" fill="rgb(39,66,122)" stroke="none" stroke-width="1"/><path id="efk7od7u02wt55" d="M135.683520,118.558480L137.985060,146.627620C138.422140,154.421170,149.599160,158.247240,158.522600,156.976680C148.053690,151.788000,140.978560,137.547460,135.683520,118.558480Z" fill="rgb(172,172,209)" stroke="none" stroke-width="1"/><path id="efk7od7u02wt56" d="M154.639000,106.846000L155.085340,106.814710C156.596812,106.704441,157.735485,105.394203,157.633930,103.882120L157.037860,95.383220C156.927324,93.871724,155.616986,92.733164,154.104860,92.834720L153.658520,92.866010C152.147048,92.976279,151.008375,94.286517,151.109930,95.798600L150.481930,104.049390C150.587670,105.556690,153.131540,106.951650,154.639000,106.846000Z" fill="rgb(255,162,173)" stroke="none" stroke-width="1"/><path id="efk7od7u02wt57" d="M147.334100,94.451080C147.335000,98.103360,152.337310,102.649190,156.119890,100.865390C159.648700,99.201280,160.174020,93.908040,160.173080,90.255730C160.172140,86.603420,157.566250,84.734280,154.352520,86.080900C151.138790,87.427520,147.333200,90.798770,147.334100,94.451080Z" fill="rgb(255,162,173)" stroke="none" stroke-width="1"/><path id="efk7od7u02wt58" d="M158.678910,89.083120C158.678910,89.083120,156.955530,95.173120,160.649220,96.479270C160.649220,96.479270,164.502680,94.118900,162.341530,88.311460C160.436600,83.192640,156.266390,86.342700,156.266390,86.342700Z" fill="rgb(26,0,109)" stroke="none" stroke-width="1"/><path id="efk7od7u02wt59" d="M150.217000,89.083120C150.217000,89.083120,151.940380,95.173120,148.246650,96.479270C148.246650,96.479270,144.313350,94.356550,145.714200,89.164150C147.136850,83.890910,152.629490,86.342700,152.629490,86.342700Z" fill="rgb(26,0,109)" stroke="none" stroke-width="1"/><path id="efk7od7u02wt60" d="M146.644550,96.283000C147.079704,97.138800,148.126225,97.479805,148.982030,97.044660C149.837834,96.609515,150.178850,95.562997,149.743714,94.707188C149.308578,93.851380,148.262063,93.510352,147.406250,93.945480C146.995259,94.154437,146.684113,94.518107,146.541265,94.956481C146.398418,95.394854,146.435570,95.872020,146.644550,96.283000Z" fill="rgb(255,162,173)" stroke="none" stroke-width="1"/><path id="efk7od7u02wt61" d="M161.051790,96.283000C160.616643,97.138802,159.570127,97.479816,158.714320,97.044680C157.858513,96.609545,157.517485,95.563033,157.952610,94.707220C158.387734,93.851408,159.434242,93.510366,160.290060,93.945480C160.701049,94.154440,161.012194,94.518108,161.155047,94.956479C161.297899,95.394850,161.260756,95.872015,161.051790,96.283000Z" fill="rgb(255,162,173)" stroke="none" stroke-width="1"/><path id="efk7od7u02wt62" d="M154.126510,98.948100L154.126510,98.948100C155.025950,98.937390,155.725510,97.944290,155.689170,96.729920L152.432060,96.768700C152.468440,97.983000,153.227100,98.958780,154.126510,98.948100Z" fill="rgb(255,255,255)" stroke="none" stroke-width="1"/><circle id="efk7od7u02wt63" r="23.780600" transform="matrix(1 0 0 1 153.81100000000001 132.74900000000000)" fill="rgb(255,160,0)" stroke="none" stroke-width="1"/><circle id="efk7od7u02wt64" r="23.780600" transform="matrix(1 0 0 1 153.81100000000001 140.58099999999999)" fill="rgb(255,195,27)" stroke="none" stroke-width="1"/><ellipse id="efk7od7u02wt65" rx="8.513330" ry="8.746030" transform="matrix(1 0 0 1 123.98699999999999 107.53700000000001)" fill="rgb(23,93,184)" stroke="none" stroke-width="1"/><ellipse id="efk7od7u02wt66" rx="8.513330" ry="8.746020" transform="matrix(1 0 0 1 123.98699999999999 108.96800000000000)" fill="url(#efk7od7u02wt66-fill)" stroke="none" stroke-width="1"/><ellipse id="efk7od7u02wt67" rx="21.491900" ry="25.876900" transform="matrix(0.67290100000000 -0.73973300000000 0.73973300000000 0.67290100000000 226.47700000000000 141.84600000000000)" fill="rgb(162,162,184)" stroke="none" stroke-width="1"/><ellipse id="efk7od7u02wt68" rx="21.491900" ry="25.876900" transform="matrix(0.67290000000000 -0.73973400000000 0.73973400000000 0.67290000000000 220.52099999999999 149.47399999999999)" fill="rgb(191,191,217)" stroke="none" stroke-width="1"/><path id="efk7od7u02wt69" d="M149.673070,89.998210C149.673070,89.998210,155.215510,87.017720,159.174390,89.552680L159.634950,86.003750C159.730838,85.267452,159.318991,84.558872,158.631750,84.277750C155.907329,83.200359,152.871882,83.217880,150.160080,84.326650C149.443829,84.599734,149.011264,85.331475,149.117300,86.090650Z" fill="rgb(26,0,109)" stroke="none" stroke-width="1"/><path id="efk7od7u02wt70" d="M137.704910,142.939850L137.704910,142.939940C137.419844,144.168841,136.245925,144.978559,134.995910,144.808490L130.816510,144.104600C130.238806,144.002430,129.730309,143.662949,129.414453,143.168565C129.098597,142.674180,129.004263,142.070096,129.154350,141.502950L129.154350,141.502860C129.439431,140.273937,130.613384,139.464217,131.863420,139.634310L136.042750,140.338200C136.620453,140.440373,137.128948,140.779854,137.444803,141.274238C137.760658,141.768622,137.854993,142.372704,137.704910,142.939850Z" fill="rgb(255,162,173)" stroke="none" stroke-width="1"/><path id="efk7od7u02wt71" d="M180.726770,139.455460L180.726770,139.455520C180.978907,140.691619,180.248363,141.916403,179.040920,142.281910L174.947650,143.380910C174.379832,143.528404,173.776192,143.431315,173.283261,143.113209C172.790330,142.795103,172.453179,142.285068,172.353650,141.706910L172.353650,141.706820C172.101520,140.470713,172.832078,139.245928,174.039530,138.880430L178.132780,137.781430C178.700601,137.633939,179.304242,137.731034,179.797172,138.049146C180.290101,138.367258,180.627248,138.877299,180.726770,139.455460Z" fill="rgb(255,162,173)" stroke="none" stroke-width="1"/><ellipse id="efk7od7u02wt72" rx="2.079160" ry="3.211350" transform="matrix(1 0 0 1 145.02400000000000 135.96000000000001)" fill="rgb(39,66,122)" stroke="none" stroke-width="1"/><ellipse id="efk7od7u02wt73" rx="2.079140" ry="3.211350" transform="matrix(1 0 0 1 162.39400000000001 135.96000000000001)" fill="rgb(39,66,122)" stroke="none" stroke-width="1"/><path id="efk7od7u02wt74" d="M210.963360,143.470070C211.200360,145.666490,210.467070,147.546930,209.325410,147.670140C208.183750,147.793350,207.066100,146.112700,206.829070,143.916250C206.592040,141.719800,207.325360,139.839370,208.467010,139.716150C209.608660,139.592930,210.726330,141.273620,210.963360,143.470070Z" fill="rgb(39,66,122)" stroke="none" stroke-width="1"/><ellipse id="efk7od7u02wt75" rx="2.079150" ry="4.000090" transform="matrix(0.99422700000000 -0.10729700000000 0.10729700000000 0.99422700000000 227.70099999999999 146.04100000000000)" fill="rgb(39,66,122)" stroke="none" stroke-width="1"/><path id="efk7od7u02wt76" d="M142.379070,142.221400L165.243230,142.221400C165.243230,142.221400,164.042530,154.993640,154.132090,154.993640C144.221650,154.993640,142.379070,142.221400,142.379070,142.221400Z" fill="rgb(39,66,122)" stroke="none" stroke-width="1"/><path id="efk7od7u02wt77" d="M234.593180,147.790880L234.593180,147.790940C234.887343,148.721974,235.842030,149.275911,236.796310,149.069260L239.978690,148.273880C240.418287,148.160191,240.790162,147.867559,241.004037,147.467024C241.217911,147.066489,241.254228,146.594678,241.104170,146.166130L241.104170,146.166070C240.809999,145.235029,239.855299,144.681092,238.901010,144.887750L235.718670,145.683130C235.279078,145.796827,234.907209,146.089460,234.693334,146.489992C234.479459,146.890524,234.443135,147.362330,234.593180,147.790880Z" fill="rgb(211,211,240)" stroke="none" stroke-width="1"/><path id="efk7od7u02wt78" d="M253.468000,121.739060C253.468000,121.739060,261.729930,139.904250,258.759090,146.343710C255.788250,152.783170,238.477360,148.545710,238.477360,148.545710L240.046510,144.531710L251.668030,142.311490L249.200570,126.620000Z" fill="rgb(126,135,186)" stroke="none" stroke-width="1"/><path id="efk7od7u02wt79" d="M210.845850,156.400920C211.779414,153.792541,214.412365,152.194577,217.157150,152.570530C222.108980,153.043480,223.719390,158.883530,223.719390,158.883530" fill="none" stroke="rgb(39,66,122)" stroke-width="1.840710" stroke-linecap="round" stroke-linejoin="round"/><g id="efk7od7u02wt80"><line id="efk7od7u02wt81" x1="126.450340" y1="75.874610" x2="134.012420" y2="85.383810" opacity="0" fill="none" stroke="rgb(39,66,122)" stroke-width="0.920356" stroke-linecap="round" stroke-linejoin="round"/><line id="efk7od7u02wt82" x1="153.604170" y1="62.012680" x2="154.018160" y2="74.155070" opacity="0" fill="none" stroke="rgb(39,66,122)" stroke-width="0.920356" stroke-linecap="round" stroke-linejoin="round"/><line id="efk7od7u02wt83" x1="184.555760" y1="75.874610" x2="176.993650" y2="85.383810" opacity="0" fill="none" stroke="rgb(39,66,122)" stroke-width="0.920356" stroke-linecap="round" stroke-linejoin="round"/></g><polyline id="efk7od7u02wt84" points="120.568000,107.851000 123.994000,112.162000 128.111000,105.774000" fill="none" stroke="rgb(255,255,255)" stroke-width="0.995421" stroke-linecap="round" stroke-linejoin="round"/><path id="efk7od7u02wt85" d="M157.345670,99.960210C156.740049,100.793805,155.766796,101.280714,154.736540,101.265530C155.272989,102.289439,156.408602,102.850492,157.547780,102.654430Z" fill="rgb(201,71,71)" stroke="none" stroke-width="1"/><path id="efk7od7u02wt86" d="M146.110580,151.017060C148.494553,149.269792,151.417199,148.416827,154.366760,148.607520C159.379630,148.898690,161.357920,151.749920,161.357920,151.749920C159.599763,153.782682,157.054202,154.963758,154.366760,154.993640C151.124331,155.125102,148.029105,153.634290,146.110580,151.017060Z" fill="rgb(255,74,70)" stroke="none" stroke-width="1"/><path id="efk7od7u02wt87" d="M223.719390,143.913370C223.959590,143.857860,231.683540,139.778120,231.683540,139.778120" fill="none" stroke="rgb(39,66,122)" stroke-width="1.840710" stroke-linecap="round" stroke-linejoin="round"/><path id="efk7od7u02wt88" d="M205.661120,136.707340C205.790700,136.917080,212.131310,142.925510,212.131310,142.925510" fill="none" stroke="rgb(39,66,122)" stroke-width="1.840710" stroke-linecap="round" stroke-linejoin="round"/><polygon id="efk7od7u02wt89" points="104.778000,127.508000 100.338000,121.684000 96.071000,120.883000 104.778000,127.508000" fill="rgb(162,162,184)" stroke="none" stroke-width="1"/><ellipse id="efk7od7u02wt90" rx="25.876900" ry="21.491900" transform="matrix(0.73973300000000 -0.67290000000000 0.67290000000000 0.73973300000000 79.99920000000000 137.63300000000001)" fill="rgb(162,162,184)" stroke="none" stroke-width="1"/><ellipse id="efk7od7u02wt91" rx="25.876900" ry="21.491900" transform="matrix(0.73973300000000 -0.67290100000000 0.67290100000000 0.73973300000000 85.95520000000000 145.26100000000000)" fill="rgb(191,191,217)" stroke="none" stroke-width="1"/><path id="efk7od7u02wt92" d="M94.449480,140.600470C94.079080,142.471880,94.691980,144.169670,95.818420,144.392610C96.944860,144.615550,98.158260,143.279270,98.528630,141.407860C98.899000,139.536450,98.286140,137.838660,97.159730,137.615720C96.033320,137.392780,94.819890,138.729100,94.449480,140.600470Z" fill="rgb(39,66,122)" stroke="none" stroke-width="1"/><path id="efk7od7u02wt93" d="M78.018690,143.679910C77.648290,145.551310,78.261180,147.249110,79.387600,147.472040C80.514020,147.694970,81.727440,146.358670,82.097840,144.487300C82.468240,142.615930,81.855350,140.918090,80.728900,140.695160C79.602450,140.472230,78.389060,141.808530,78.018690,143.679910Z" fill="rgb(39,66,122)" stroke="none" stroke-width="1"/><line id="efk7od7u02wt94" x1="95.471640" y1="150.819960" x2="82.170080" y2="154.236850" fill="none" stroke="rgb(39,66,122)" stroke-width="1.840710" stroke-linecap="round" stroke-linejoin="round"/><path id="efk7od7u02wt95" d="M73.275000,150.477590L73.275000,150.477680C73.162998,151.632776,72.157269,152.492292,70.998830,152.422940L67.057830,152.110160C66.509376,152.060569,66.004172,151.791655,65.656752,151.364385C65.309331,150.937114,65.149124,150.387678,65.212450,149.840640L65.212450,149.840570C65.324472,148.685476,66.330189,147.825961,67.488630,147.895280L71.429630,148.208060C71.978083,148.257656,72.483285,148.526573,72.830703,148.953845C73.178120,149.381117,73.338326,149.930552,73.275000,150.477590Z" fill="rgb(211,211,240)" stroke="none" stroke-width="1"/><path id="efk7od7u02wt96" d="M50.303570,118.729260C50.303570,118.729260,37.727900,140.071460,41.203660,147.969820C44.679420,155.868180,65.174770,152.181600,65.174770,152.181600L65.241860,146.787750L50.787860,142.712230L53.711690,125.702850Z" fill="rgb(126,135,186)" stroke="none" stroke-width="1"/><path id="efk7od7u02wt97" d="M111.964150,141.376350L111.964060,141.376350C111.466934,141.630174,110.888259,141.672055,110.359765,141.492462C109.831270,141.312868,109.397927,140.927081,109.158380,140.422920L107.505220,136.797720C107.044662,135.717171,107.518688,134.465704,108.579540,133.961430L108.579640,133.961370C109.076770,133.707557,109.655443,133.665685,110.183934,133.845284C110.712425,134.024883,111.145764,134.410671,111.385310,134.914830L113.038470,138.540000C113.499056,139.620565,113.025027,140.872067,111.964150,141.376350Z" fill="rgb(211,211,240)" stroke="none" stroke-width="1"/></svg>