<svg id="e0jp2nz2p7r971" xmlns="http://www.w3.org/2000/svg" xmlns:xlink="http://www.w3.org/1999/xlink" viewBox="0 0 300 300" shape-rendering="geometricPrecision" text-rendering="geometricPrecision"><style><![CDATA[#e0jp2nz2p7r97130_to {animation: e0jp2nz2p7r97130_to__to 10000ms linear infinite normal forwards}@keyframes e0jp2nz2p7r97130_to__to { 0% {transform: translate(0px,0px)} 26% {transform: translate(0px,0px)} 88% {transform: translate(0px,29.476104px)} 100% {transform: translate(0px,29.476104px)} }#e0jp2nz2p7r97132_to {animation: e0jp2nz2p7r97132_to__to 10000ms linear infinite normal forwards}@keyframes e0jp2nz2p7r97132_to__to { 0% {transform: translate(0px,0px)} 88% {transform: translate(0.050000px,22.976104px)} 100% {transform: translate(0.050000px,22.976104px)} }]]></style><defs><linearGradient id="e0jp2nz2p7r9776-fill" x1="122.360600" y1="107.180700" x2="139.861500" y2="107.180700" spreadMethod="pad" gradientUnits="userSpaceOnUse"><stop id="e0jp2nz2p7r9776-fill-0" offset="0%" stop-color="rgb(245,245,245)"/><stop id="e0jp2nz2p7r9776-fill-1" offset="100%" stop-color="rgb(203,212,236)"/></linearGradient><linearGradient id="e0jp2nz2p7r9778-fill" x1="159.137500" y1="107.158300" x2="176.638300" y2="107.158300" spreadMethod="pad" gradientUnits="userSpaceOnUse"><stop id="e0jp2nz2p7r9778-fill-0" offset="0%" stop-color="rgb(245,245,245)"/><stop id="e0jp2nz2p7r9778-fill-1" offset="100%" stop-color="rgb(203,212,236)"/></linearGradient><linearGradient id="e0jp2nz2p7r9780-fill" x1="195.914300" y1="107.180700" x2="213.415100" y2="107.180700" spreadMethod="pad" gradientUnits="userSpaceOnUse"><stop id="e0jp2nz2p7r9780-fill-0" offset="0%" stop-color="rgb(245,245,245)"/><stop id="e0jp2nz2p7r9780-fill-1" offset="100%" stop-color="rgb(203,212,236)"/></linearGradient><linearGradient id="e0jp2nz2p7r9782-fill" x1="232.691100" y1="107.180700" x2="250.191800" y2="107.180700" spreadMethod="pad" gradientUnits="userSpaceOnUse"><stop id="e0jp2nz2p7r9782-fill-0" offset="0%" stop-color="rgb(245,245,245)"/><stop id="e0jp2nz2p7r9782-fill-1" offset="100%" stop-color="rgb(203,212,236)"/></linearGradient><linearGradient id="e0jp2nz2p7r9787-fill" x1="198.190000" y1="147.076500" x2="258.540000" y2="147.076500" spreadMethod="pad" gradientUnits="userSpaceOnUse"><stop id="e0jp2nz2p7r9787-fill-0" offset="32.490000%" stop-color="rgb(119,187,247)"/><stop id="e0jp2nz2p7r9787-fill-1" offset="100%" stop-color="rgb(59,141,235)"/></linearGradient><linearGradient id="e0jp2nz2p7r9791-fill" x1="185.909500" y1="138.707600" x2="193.053200" y2="138.707600" spreadMethod="pad" gradientUnits="userSpaceOnUse"><stop id="e0jp2nz2p7r9791-fill-0" offset="32.490000%" stop-color="rgb(119,187,247)"/><stop id="e0jp2nz2p7r9791-fill-1" offset="100%" stop-color="rgb(59,141,235)"/></linearGradient><linearGradient id="e0jp2nz2p7r97115-fill" x1="163.104100" y1="149.720200" x2="175.524100" y2="149.720200" spreadMethod="pad" gradientUnits="userSpaceOnUse"><stop id="e0jp2nz2p7r97115-fill-0" offset="32.490000%" stop-color="rgb(119,187,247)"/><stop id="e0jp2nz2p7r97115-fill-1" offset="100%" stop-color="rgb(59,141,235)"/></linearGradient><linearGradient id="e0jp2nz2p7r97116-fill" x1="186.327000" y1="167.086900" x2="198.749600" y2="167.086900" spreadMethod="pad" gradientUnits="userSpaceOnUse"><stop id="e0jp2nz2p7r97116-fill-0" offset="32.490000%" stop-color="rgb(119,187,247)"/><stop id="e0jp2nz2p7r97116-fill-1" offset="100%" stop-color="rgb(59,141,235)"/></linearGradient><linearGradient id="e0jp2nz2p7r97128-fill" x1="27.780100" y1="112.838600" x2="120.182400" y2="112.838600" spreadMethod="pad" gradientUnits="userSpaceOnUse"><stop id="e0jp2nz2p7r97128-fill-0" offset="32.490000%" stop-color="rgb(119,187,247)"/><stop id="e0jp2nz2p7r97128-fill-1" offset="100%" stop-color="rgb(59,141,235)"/></linearGradient><linearGradient id="e0jp2nz2p7r97129-fill" x1="30.920800" y1="202.903900" x2="117.061200" y2="202.903900" spreadMethod="pad" gradientUnits="userSpaceOnUse"><stop id="e0jp2nz2p7r97129-fill-0" offset="32.490000%" stop-color="rgb(119,187,247)"/><stop id="e0jp2nz2p7r97129-fill-1" offset="100%" stop-color="rgb(59,141,235)"/></linearGradient><linearGradient id="e0jp2nz2p7r97130-fill" x1="-1.809500" y1="285.603700" x2="1.772000" y2="285.603700" spreadMethod="pad" gradientUnits="userSpaceOnUse"><stop id="e0jp2nz2p7r97130-fill-0" offset="32.490000%" stop-color="rgb(119,187,247)"/><stop id="e0jp2nz2p7r97130-fill-1" offset="100%" stop-color="rgb(59,141,235)"/></linearGradient><linearGradient id="e0jp2nz2p7r97131-fill" x1="-1.809500" y1="344.371800" x2="1.772000" y2="344.371800" spreadMethod="pad" gradientUnits="userSpaceOnUse"><stop id="e0jp2nz2p7r97131-fill-0" offset="32.490000%" stop-color="rgb(119,187,247)"/><stop id="e0jp2nz2p7r97131-fill-1" offset="100%" stop-color="rgb(59,141,235)"/></linearGradient><linearGradient id="e0jp2nz2p7r97132-fill" x1="-1.809500" y1="298.550400" x2="1.772000" y2="298.550400" spreadMethod="pad" gradientUnits="userSpaceOnUse"><stop id="e0jp2nz2p7r97132-fill-0" offset="32.490000%" stop-color="rgb(119,187,247)"/><stop id="e0jp2nz2p7r97132-fill-1" offset="100%" stop-color="rgb(59,141,235)"/></linearGradient></defs><g id="e0jp2nz2p7r972"><g id="e0jp2nz2p7r973"><rect id="e0jp2nz2p7r974" width="184.900000" height="127.200000" rx="0" ry="0" transform="matrix(1 0 0 1 75.70000000000000 109.70000000000000)" fill="rgb(242,243,255)" stroke="none" stroke-width="1"/><rect id="e0jp2nz2p7r975" width="184.900000" height="104.700000" rx="0" ry="0" transform="matrix(1 0 0 1 75.70000000000000 132.19999999999999)" opacity="0.8" fill="rgb(255,255,255)" stroke="none" stroke-width="1"/><polygon id="e0jp2nz2p7r976" points="84.700000,228.500000 85.100000,158.400000 156.800000,158.400000 156.900000,141 252.800000,140.600000 252.800000,210.700000 204.600000,210.700000 204.500000,228.100000" opacity="0.06" fill="rgb(13,94,157)" stroke="none" stroke-width="1"/><rect id="e0jp2nz2p7r977" width="23.900000" height="69.700000" rx="0" ry="0" transform="matrix(1 0 0 1 227.90000000000001 141)" opacity="0.1" fill="rgb(13,94,157)" stroke="none" stroke-width="1"/><rect id="e0jp2nz2p7r978" width="23.900000" height="69.700000" rx="0" ry="0" transform="matrix(1 0 0 1 84.59999999999999 158.40000000000001)" opacity="0.1" fill="rgb(13,94,157)" stroke="none" stroke-width="1"/><rect id="e0jp2nz2p7r979" width="184.900000" height="22.500000" rx="0" ry="0" transform="matrix(1 0 0 1 75.70000000000000 109.70000000000000)" fill="rgb(245,246,255)" stroke="none" stroke-width="1"/><g id="e0jp2nz2p7r9710" opacity="0.1"><path id="e0jp2nz2p7r9711" d="M180.600000,158.900000L155.900000,158.900000L155.900000,140.700000L180.600000,140.700000L180.600000,158.900000ZM156.700000,158L179.700000,158L179.700000,141.400000L156.700000,141.400000L156.700000,158Z" fill="rgb(13,94,157)" stroke="none" stroke-width="1"/></g><g id="e0jp2nz2p7r9712" opacity="0.1"><path id="e0jp2nz2p7r9713" d="M204.500000,158.900000L179.800000,158.900000L179.800000,140.700000L204.500000,140.700000L204.500000,158.900000ZM180.600000,158L203.600000,158L203.600000,141.400000L180.600000,141.400000L180.600000,158Z" fill="rgb(13,94,157)" stroke="none" stroke-width="1"/></g><g id="e0jp2nz2p7r9714" opacity="0.1"><path id="e0jp2nz2p7r9715" d="M228.300000,158.900000L203.600000,158.900000L203.600000,140.700000L228.300000,140.700000L228.300000,158.900000ZM204.500000,158L227.500000,158L227.500000,141.400000L204.500000,141.400000L204.500000,158Z" fill="rgb(13,94,157)" stroke="none" stroke-width="1"/></g><g id="e0jp2nz2p7r9716" opacity="0.1"><path id="e0jp2nz2p7r9717" d="M252.200000,158.900000L227.500000,158.900000L227.500000,140.700000L252.200000,140.700000L252.200000,158.900000ZM228.300000,158L251.300000,158L251.300000,141.400000L228.300000,141.400000L228.300000,158Z" fill="rgb(13,94,157)" stroke="none" stroke-width="1"/></g><g id="e0jp2nz2p7r9718" opacity="0.1"><path id="e0jp2nz2p7r9719" d="M108.900000,176.300000L84.200000,176.300000L84.200000,158L108.900000,158L108.900000,176.300000ZM85,175.400000L108,175.400000L108,158.800000L85,158.800000L85,175.400000Z" fill="rgb(13,94,157)" stroke="none" stroke-width="1"/></g><g id="e0jp2nz2p7r9720" opacity="0.1"><path id="e0jp2nz2p7r9721" d="M132.800000,176.300000L108.100000,176.300000L108.100000,158L132.800000,158L132.800000,176.300000ZM108.900000,175.400000L131.900000,175.400000L131.900000,158.800000L108.900000,158.800000L108.900000,175.400000Z" fill="rgb(13,94,157)" stroke="none" stroke-width="1"/></g><g id="e0jp2nz2p7r9722" opacity="0.1"><path id="e0jp2nz2p7r9723" d="M156.700000,176.300000L132,176.300000L132,158L156.700000,158L156.700000,176.300000ZM132.800000,175.400000L155.800000,175.400000L155.800000,158.800000L132.800000,158.800000L132.800000,175.400000Z" fill="rgb(13,94,157)" stroke="none" stroke-width="1"/></g><g id="e0jp2nz2p7r9724" opacity="0.1"><path id="e0jp2nz2p7r9725" d="M180.600000,176.300000L155.900000,176.300000L155.900000,158L180.600000,158L180.600000,176.300000ZM156.700000,175.400000L179.700000,175.400000L179.700000,158.800000L156.700000,158.800000L156.700000,175.400000Z" fill="rgb(13,94,157)" stroke="none" stroke-width="1"/></g><g id="e0jp2nz2p7r9726" opacity="0.1"><path id="e0jp2nz2p7r9727" d="M204.500000,176.300000L179.800000,176.300000L179.800000,158L204.500000,158L204.500000,176.300000ZM180.600000,175.400000L203.600000,175.400000L203.600000,158.800000L180.600000,158.800000L180.600000,175.400000Z" fill="rgb(13,94,157)" stroke="none" stroke-width="1"/></g><g id="e0jp2nz2p7r9728" opacity="0.1"><path id="e0jp2nz2p7r9729" d="M228.300000,176.300000L203.600000,176.300000L203.600000,158L228.300000,158L228.300000,176.300000ZM204.500000,175.400000L227.500000,175.400000L227.500000,158.800000L204.500000,158.800000L204.500000,175.400000Z" fill="rgb(13,94,157)" stroke="none" stroke-width="1"/></g><g id="e0jp2nz2p7r9730" opacity="0.1"><path id="e0jp2nz2p7r9731" d="M252.200000,176.300000L227.500000,176.300000L227.500000,158L252.200000,158L252.200000,176.300000ZM228.300000,175.400000L251.300000,175.400000L251.300000,158.800000L228.300000,158.800000L228.300000,175.400000Z" fill="rgb(13,94,157)" stroke="none" stroke-width="1"/></g><g id="e0jp2nz2p7r9732" opacity="0.1"><path id="e0jp2nz2p7r9733" d="M108.900000,193.700000L84.200000,193.700000L84.200000,175.500000L108.900000,175.500000L108.900000,193.700000ZM85,192.800000L108,192.800000L108,176.200000L85,176.200000L85,192.800000Z" fill="rgb(13,94,157)" stroke="none" stroke-width="1"/></g><g id="e0jp2nz2p7r9734" opacity="0.1"><path id="e0jp2nz2p7r9735" d="M132.800000,193.700000L108.100000,193.700000L108.100000,175.500000L132.800000,175.500000L132.800000,193.700000ZM108.900000,192.800000L131.900000,192.800000L131.900000,176.200000L108.900000,176.200000L108.900000,192.800000Z" fill="rgb(13,94,157)" stroke="none" stroke-width="1"/></g><g id="e0jp2nz2p7r9736" opacity="0.1"><path id="e0jp2nz2p7r9737" d="M156.700000,193.700000L132,193.700000L132,175.500000L156.700000,175.500000L156.700000,193.700000ZM132.800000,192.800000L155.800000,192.800000L155.800000,176.200000L132.800000,176.200000L132.800000,192.800000Z" fill="rgb(13,94,157)" stroke="none" stroke-width="1"/></g><g id="e0jp2nz2p7r9738" opacity="0.1"><path id="e0jp2nz2p7r9739" d="M180.600000,193.700000L155.900000,193.700000L155.900000,175.500000L180.600000,175.500000L180.600000,193.700000ZM156.700000,192.800000L179.700000,192.800000L179.700000,176.200000L156.700000,176.200000L156.700000,192.800000Z" fill="rgb(13,94,157)" stroke="none" stroke-width="1"/></g><g id="e0jp2nz2p7r9740" opacity="0.1"><path id="e0jp2nz2p7r9741" d="M204.500000,193.700000L179.800000,193.700000L179.800000,175.500000L204.500000,175.500000L204.500000,193.700000ZM180.600000,192.800000L203.600000,192.800000L203.600000,176.200000L180.600000,176.200000L180.600000,192.800000Z" fill="rgb(13,94,157)" stroke="none" stroke-width="1"/></g><g id="e0jp2nz2p7r9742" opacity="0.1"><path id="e0jp2nz2p7r9743" d="M228.300000,193.700000L203.600000,193.700000L203.600000,175.500000L228.300000,175.500000L228.300000,193.700000ZM204.500000,192.800000L227.500000,192.800000L227.500000,176.200000L204.500000,176.200000L204.500000,192.800000Z" fill="rgb(13,94,157)" stroke="none" stroke-width="1"/></g><g id="e0jp2nz2p7r9744" opacity="0.1"><path id="e0jp2nz2p7r9745" d="M252.200000,193.700000L227.500000,193.700000L227.500000,175.500000L252.200000,175.500000L252.200000,193.700000ZM228.300000,192.800000L251.300000,192.800000L251.300000,176.200000L228.300000,176.200000L228.300000,192.800000Z" fill="rgb(13,94,157)" stroke="none" stroke-width="1"/></g><g id="e0jp2nz2p7r9746" opacity="0.1"><path id="e0jp2nz2p7r9747" d="M108.900000,211.100000L84.200000,211.100000L84.200000,192.900000L108.900000,192.900000L108.900000,211.100000ZM85,210.200000L108,210.200000L108,193.600000L85,193.600000L85,210.200000Z" fill="rgb(13,94,157)" stroke="none" stroke-width="1"/></g><g id="e0jp2nz2p7r9748" opacity="0.1"><path id="e0jp2nz2p7r9749" d="M132.800000,211.100000L108.100000,211.100000L108.100000,192.900000L132.800000,192.900000L132.800000,211.100000ZM108.900000,210.200000L131.900000,210.200000L131.900000,193.600000L108.900000,193.600000L108.900000,210.200000Z" fill="rgb(13,94,157)" stroke="none" stroke-width="1"/></g><g id="e0jp2nz2p7r9750" opacity="0.1"><path id="e0jp2nz2p7r9751" d="M156.700000,211.100000L132,211.100000L132,192.900000L156.700000,192.900000L156.700000,211.100000ZM132.800000,210.200000L155.800000,210.200000L155.800000,193.600000L132.800000,193.600000L132.800000,210.200000Z" fill="rgb(13,94,157)" stroke="none" stroke-width="1"/></g><rect id="e0jp2nz2p7r9752" width="23.900000" height="17.400000" rx="0" ry="0" transform="matrix(1 0 0 1 180.59999999999999 193.30000000000001)" opacity="0.1" fill="rgb(13,94,157)" stroke="none" stroke-width="1"/><g id="e0jp2nz2p7r9753" opacity="0.1"><path id="e0jp2nz2p7r9754" d="M180.600000,211.100000L155.900000,211.100000L155.900000,192.900000L180.600000,192.900000L180.600000,211.100000ZM156.700000,210.200000L179.700000,210.200000L179.700000,193.600000L156.700000,193.600000L156.700000,210.200000Z" fill="rgb(13,94,157)" stroke="none" stroke-width="1"/></g><g id="e0jp2nz2p7r9755" opacity="0.1"><path id="e0jp2nz2p7r9756" d="M204.500000,211.100000L179.800000,211.100000L179.800000,192.900000L204.500000,192.900000L204.500000,211.100000ZM180.600000,210.200000L203.600000,210.200000L203.600000,193.600000L180.600000,193.600000L180.600000,210.200000Z" fill="rgb(13,94,157)" stroke="none" stroke-width="1"/></g><g id="e0jp2nz2p7r9757" opacity="0.1"><path id="e0jp2nz2p7r9758" d="M228.300000,211.100000L203.600000,211.100000L203.600000,192.900000L228.300000,192.900000L228.300000,211.100000ZM204.500000,210.200000L227.500000,210.200000L227.500000,193.600000L204.500000,193.600000L204.500000,210.200000Z" fill="rgb(13,94,157)" stroke="none" stroke-width="1"/></g><g id="e0jp2nz2p7r9759" opacity="0.1"><path id="e0jp2nz2p7r9760" d="M252.200000,211.100000L227.500000,211.100000L227.500000,192.900000L252.200000,192.900000L252.200000,211.100000ZM228.300000,210.200000L251.300000,210.200000L251.300000,193.600000L228.300000,193.600000L228.300000,210.200000Z" fill="rgb(13,94,157)" stroke="none" stroke-width="1"/></g><g id="e0jp2nz2p7r9761" opacity="0.1"><path id="e0jp2nz2p7r9762" d="M108.900000,228.500000L84.200000,228.500000L84.200000,210.300000L108.900000,210.300000L108.900000,228.500000ZM85,227.600000L108,227.600000L108,211L85,211L85,227.600000Z" fill="rgb(13,94,157)" stroke="none" stroke-width="1"/></g><rect id="e0jp2nz2p7r9763" width="23.900000" height="17.400000" rx="0" ry="0" transform="matrix(1 0 0 1 108.50000000000000 210.69999999999999)" opacity="0.1" fill="rgb(13,94,157)" stroke="none" stroke-width="1"/><g id="e0jp2nz2p7r9764" opacity="0.1"><path id="e0jp2nz2p7r9765" d="M132.800000,228.500000L108.100000,228.500000L108.100000,210.300000L132.800000,210.300000L132.800000,228.500000ZM108.900000,227.600000L131.900000,227.600000L131.900000,211L108.900000,211L108.900000,227.600000Z" fill="rgb(13,94,157)" stroke="none" stroke-width="1"/></g><g id="e0jp2nz2p7r9766" opacity="0.1"><path id="e0jp2nz2p7r9767" d="M156.700000,228.500000L132,228.500000L132,210.300000L156.700000,210.300000L156.700000,228.500000ZM132.800000,227.600000L155.800000,227.600000L155.800000,211L132.800000,211L132.800000,227.600000Z" fill="rgb(13,94,157)" stroke="none" stroke-width="1"/></g><g id="e0jp2nz2p7r9768" opacity="0.1"><path id="e0jp2nz2p7r9769" d="M180.600000,228.500000L155.900000,228.500000L155.900000,210.300000L180.600000,210.300000L180.600000,228.500000ZM156.700000,227.600000L179.700000,227.600000L179.700000,211L156.700000,211L156.700000,227.600000Z" fill="rgb(13,94,157)" stroke="none" stroke-width="1"/></g><g id="e0jp2nz2p7r9770" opacity="0.1"><path id="e0jp2nz2p7r9771" d="M204.500000,228.500000L179.800000,228.500000L179.800000,210.300000L204.500000,210.300000L204.500000,228.500000ZM180.600000,227.600000L203.600000,227.600000L203.600000,211L180.600000,211L180.600000,227.600000Z" fill="rgb(13,94,157)" stroke="none" stroke-width="1"/></g><polygon id="e0jp2nz2p7r9772" points="260.700000,109.600000 286.400000,236.900000 260.700000,236.900000" opacity="0.1" fill="rgb(0,0,0)" stroke="none" stroke-width="1"/><path id="e0jp2nz2p7r9773" d="M97.900000,120.500000C97.900000,122.500000,96.300000,124.100000,94.300000,124.100000C92.300000,124.100000,90.700000,122.500000,90.700000,120.500000C90.700000,118.500000,92.300000,116.900000,94.300000,116.900000C95.200000,116.900000,96,117.200000,96.600000,117.800000C97.500000,118.500000,97.900000,119.500000,97.900000,120.500000Z" fill="rgb(212,42,80)" stroke="none" stroke-width="1"/><path id="e0jp2nz2p7r9774" d="M100.800000,96.900000C99.200000,93.800000,96.900000,92.100000,94.300000,92.100000C91.700000,92.100000,89.500000,93.800000,87.800000,96.900000C86.200000,100.100000,85.400000,103.600000,85.500000,107.100000C85.500000,108,85.500000,109,85.600000,109.900000C85.800000,112.500000,86.600000,115,87.700000,117.400000C88.400000,118.800000,89.400000,120,90.600000,120.900000C92.700000,122.500000,95.600000,122.500000,97.700000,120.900000C97.800000,119.700000,97.400000,118.500000,96.500000,117.800000C95.600000,119.100000,93.800000,119.400000,92.500000,118.500000C92.200000,118.300000,92,118.100000,91.800000,117.800000C90.400000,116.300000,89.100000,113.500000,88.700000,109.900000C88.600000,109,88.500000,108.100000,88.500000,107.100000C88.500000,100.100000,91.400000,95.200000,94.100000,95.200000C96.800000,95.200000,99.700000,100.100000,99.700000,107.100000C99.700000,108,99.600000,109,99.500000,109.900000L102.700000,109.900000C102.800000,109,102.800000,108.100000,102.800000,107.100000C103.100000,103.600000,102.400000,100.100000,100.800000,96.900000Z" fill="rgb(112,112,207)" stroke="none" stroke-width="1"/><path id="e0jp2nz2p7r9775" d="M134.700000,120.600000C134.700000,122.600000,133.100000,124.200000,131.100000,124.200000C129.100000,124.200000,127.500000,122.600000,127.500000,120.600000C127.500000,118.600000,129.100000,117,131.100000,117C132,117,132.800000,117.300000,133.400000,117.900000C134.200000,118.500000,134.700000,119.500000,134.700000,120.600000Z" opacity="0.1" fill="rgb(0,0,0)" stroke="none" stroke-width="1"/><path id="e0jp2nz2p7r9776" d="M137.600000,96.900000C136,93.800000,133.700000,92.100000,131.100000,92.100000C128.500000,92.100000,126.300000,93.800000,124.600000,96.900000C123,100.100000,122.200000,103.600000,122.300000,107.100000C122.300000,108,122.300000,109,122.400000,109.900000C122.600000,112.500000,123.400000,115,124.500000,117.400000C125.200000,118.800000,126.200000,120,127.400000,120.900000C129.500000,122.500000,132.400000,122.500000,134.500000,120.900000C134.600000,119.700000,134.200000,118.500000,133.300000,117.800000C132.400000,119.100000,130.600000,119.400000,129.300000,118.500000C129,118.300000,128.800000,118.100000,128.600000,117.800000C127.200000,116.300000,125.900000,113.500000,125.500000,109.900000C125.400000,109,125.300000,108.100000,125.300000,107.100000C125.300000,100.100000,128.200000,95.200000,130.900000,95.200000C133.600000,95.200000,136.500000,100.100000,136.500000,107.100000C136.500000,108,136.400000,109,136.300000,109.900000L139.500000,109.900000C139.600000,109,139.600000,108.100000,139.600000,107.100000C139.900000,103.600000,139.100000,100.100000,137.600000,96.900000Z" fill="url(#e0jp2nz2p7r9776-fill)" stroke="none" stroke-width="1"/><path id="e0jp2nz2p7r9777" d="M171.500000,120.500000C171.500000,122.500000,169.900000,124.100000,167.900000,124.100000C165.900000,124.100000,164.300000,122.500000,164.300000,120.500000C164.300000,118.500000,165.900000,116.900000,167.900000,116.900000C168.800000,116.900000,169.600000,117.200000,170.200000,117.800000C171,118.500000,171.500000,119.500000,171.500000,120.500000Z" opacity="0.1" fill="rgb(0,0,0)" stroke="none" stroke-width="1"/><path id="e0jp2nz2p7r9778" d="M174.400000,96.900000C172.800000,93.800000,170.500000,92.100000,167.900000,92.100000C165.300000,92.100000,163.100000,93.800000,161.400000,96.900000C159.800000,100.100000,159,103.600000,159.100000,107.100000C159.100000,108,159.100000,109,159.200000,109.900000C159.400000,112.500000,160.200000,115,161.300000,117.400000C162,118.800000,163,120,164.200000,120.900000C166.300000,122.500000,169.200000,122.500000,171.300000,120.900000C171.400000,119.700000,171,118.500000,170.100000,117.800000C169.200000,119.100000,167.400000,119.400000,166.100000,118.500000C165.800000,118.300000,165.600000,118.100000,165.400000,117.800000C164,116.300000,162.700000,113.500000,162.300000,109.900000C162.200000,109,162.100000,108.100000,162.100000,107.100000C162.100000,100.100000,165,95.200000,167.700000,95.200000C170.400000,95.200000,173.300000,100.100000,173.300000,107.100000C173.300000,108,173.200000,109,173.100000,109.900000L176.300000,109.900000C176.400000,109,176.400000,108.100000,176.400000,107.100000C176.700000,103.600000,175.900000,100.100000,174.400000,96.900000Z" fill="url(#e0jp2nz2p7r9778-fill)" stroke="none" stroke-width="1"/><path id="e0jp2nz2p7r9779" d="M208.200000,120.600000C208.200000,122.600000,206.600000,124.200000,204.600000,124.200000C202.600000,124.200000,201,122.600000,201,120.600000C201,118.600000,202.600000,117,204.600000,117C205.500000,117,206.300000,117.300000,206.900000,117.900000C207.800000,118.500000,208.200000,119.500000,208.200000,120.600000Z" opacity="0.1" fill="rgb(0,0,0)" stroke="none" stroke-width="1"/><path id="e0jp2nz2p7r9780" d="M211.100000,96.900000C209.500000,93.800000,207.200000,92.100000,204.600000,92.100000C202,92.100000,199.800000,93.800000,198.100000,96.900000C196.500000,100.100000,195.700000,103.600000,195.800000,107.100000C195.800000,108,195.800000,109,195.900000,109.900000C196.100000,112.500000,196.900000,115,198,117.400000C198.700000,118.800000,199.700000,120,200.900000,120.900000C203,122.500000,205.900000,122.500000,208,120.900000C208.100000,119.700000,207.700000,118.500000,206.800000,117.800000C205.900000,119.100000,204.100000,119.400000,202.800000,118.500000C202.500000,118.300000,202.300000,118.100000,202.100000,117.800000C200.700000,116.300000,199.400000,113.500000,199,109.900000C198.900000,109,198.800000,108.100000,198.800000,107.100000C198.800000,100.100000,201.700000,95.200000,204.400000,95.200000C207.100000,95.200000,210,100.100000,210,107.100000C210,108,209.900000,109,209.800000,109.900000L213,109.900000C213.100000,109,213.100000,108.100000,213.100000,107.100000C213.500000,103.600000,212.700000,100.100000,211.100000,96.900000Z" fill="url(#e0jp2nz2p7r9780-fill)" stroke="none" stroke-width="1"/><path id="e0jp2nz2p7r9781" d="M245,120.600000C245,122.600000,243.400000,124.200000,241.400000,124.200000C239.400000,124.200000,237.800000,122.600000,237.800000,120.600000C237.800000,118.600000,239.400000,117,241.400000,117C242.300000,117,243.100000,117.300000,243.700000,117.900000C244.600000,118.500000,245,119.500000,245,120.600000Z" opacity="0.1" fill="rgb(0,0,0)" stroke="none" stroke-width="1"/><path id="e0jp2nz2p7r9782" d="M247.900000,96.900000C246.300000,93.800000,244,92.100000,241.400000,92.100000C238.800000,92.100000,236.600000,93.800000,234.900000,96.900000C233.300000,100.100000,232.500000,103.600000,232.600000,107.100000C232.600000,108,232.600000,109,232.700000,109.900000C232.900000,112.500000,233.700000,115,234.800000,117.400000C235.500000,118.800000,236.500000,120,237.700000,120.900000C239.800000,122.500000,242.700000,122.500000,244.800000,120.900000C244.900000,119.700000,244.500000,118.500000,243.600000,117.800000C242.700000,119.100000,240.900000,119.400000,239.600000,118.500000C239.300000,118.300000,239.100000,118.100000,238.900000,117.800000C237.500000,116.300000,236.200000,113.500000,235.800000,109.900000C235.700000,109,235.600000,108.100000,235.600000,107.100000C235.600000,100.100000,238.500000,95.200000,241.200000,95.200000C243.900000,95.200000,246.800000,100.100000,246.800000,107.100000C246.800000,108,246.700000,109,246.600000,109.900000L249.800000,109.900000C249.900000,109,249.900000,108.100000,249.900000,107.100000C250.300000,103.600000,249.500000,100.100000,247.900000,96.900000Z" fill="url(#e0jp2nz2p7r9782-fill)" stroke="none" stroke-width="1"/><g id="e0jp2nz2p7r9783" opacity="0.1"><path id="e0jp2nz2p7r9784" d="M257.900000,207.900000L243.200000,207.900000L248.900000,240.500000C248.900000,240.700000,249.200000,240.900000,249.400000,240.900000C249.600000,240.900000,249.800000,240.600000,249.800000,240.400000L248.600000,233.600000L261.400000,233.600000L262.600000,240.600000C262.600000,240.800000,262.900000,241,263.100000,241C263.300000,241,263.500000,240.700000,263.500000,240.500000L257.900000,207.900000ZM244.300000,208.800000L257.100000,208.800000L258.400000,216.100000L245.600000,216.100000L244.300000,208.800000ZM245.700000,217L258.500000,217L259.800000,224.300000L247,224.300000L245.700000,217ZM248.400000,232.600000L247.100000,225.300000L259.900000,225.300000L261.200000,232.600000L248.400000,232.600000Z" fill="rgb(0,0,0)" stroke="none" stroke-width="1"/><path id="e0jp2nz2p7r9785" d="M214.200000,240.400000C214.200000,240.600000,214.300000,240.900000,214.600000,240.900000C214.900000,240.900000,215.100000,240.800000,215.100000,240.500000C215.100000,240.500000,215.100000,240.500000,215.100000,240.500000L216.300000,233.500000L229.100000,233.500000L227.900000,240.300000C227.900000,240.500000,228,240.800000,228.300000,240.800000C228.500000,240.800000,228.800000,240.700000,228.800000,240.400000C228.800000,240.400000,228.800000,240.400000,228.800000,240.400000L234.500000,207.800000L219.800000,207.800000L214.200000,240.400000ZM232.200000,216.100000L219.400000,216.100000L220.700000,208.800000L233.500000,208.800000L232.200000,216.100000ZM230.800000,224.400000L218,224.400000L219.300000,217.100000L232.100000,217.100000L230.800000,224.400000ZM216.500000,232.600000L217.800000,225.300000L230.600000,225.300000L229.300000,232.600000L216.500000,232.600000Z" fill="rgb(0,0,0)" stroke="none" stroke-width="1"/><path id="e0jp2nz2p7r9786" d="M259.300000,207L218.300000,207C217.800000,207,217.400000,207.400000,217.400000,207.900000L217.400000,207.900000C217.400000,208.400000,217.800000,208.800000,218.300000,208.800000C218.300000,208.800000,218.300000,208.800000,218.300000,208.800000L259.300000,208.800000C259.800000,208.800000,260.200000,208.400000,260.200000,207.900000C260.200000,207.900000,260.200000,207.900000,260.200000,207.900000L260.200000,207.900000C260.200000,207.400000,259.800000,207,259.300000,207Z" fill="rgb(0,0,0)" stroke="none" stroke-width="1"/></g><polygon id="e0jp2nz2p7r9787" points="258.500000,150 200,136.300000 198.200000,144.100000 256.700000,157.800000" fill="url(#e0jp2nz2p7r9787-fill)" stroke="none" stroke-width="1"/><path id="e0jp2nz2p7r9788" d="M200,136.300000L198.200000,144.100000L186.200000,137.800000C185.900000,137.700000,185.800000,137.300000,186,137.100000C186.100000,136.900000,186.300000,136.800000,186.500000,136.800000L200,136.300000Z" fill="rgb(247,198,210)" stroke="none" stroke-width="1"/><rect id="e0jp2nz2p7r9789" width="8" height="3.700000" rx="0" ry="0" transform="matrix(0.22590000000000 -0.97420000000000 0.97420000000000 0.22590000000000 256.73406000000011 157.84407000000007)" opacity="0.1" fill="rgb(0,0,0)" stroke="none" stroke-width="1"/><path id="e0jp2nz2p7r9790" d="M262.100000,150.900000L266.800000,152C268.900000,152.500000,270.300000,154.600000,269.800000,156.800000L269.800000,156.800000C269.300000,158.900000,267.200000,160.300000,265,159.800000L260.300000,158.700000L262.100000,150.900000Z" fill="rgb(247,86,126)" stroke="none" stroke-width="1"/><path id="e0jp2nz2p7r9791" d="M192.100000,140.900000L186.200000,137.800000C185.900000,137.700000,185.800000,137.300000,186,137.100000C186.100000,136.900000,186.300000,136.800000,186.500000,136.800000L193.100000,136.600000L192.100000,140.900000Z" fill="url(#e0jp2nz2p7r9791-fill)" stroke="none" stroke-width="1"/><path id="e0jp2nz2p7r9792" d="M249.100000,188.700000C252.200000,192.700000,253.800000,197.500000,253.900000,202.500000C253.300000,202.400000,252.900000,203.300000,252.400000,203.700000C250.500000,198.100000,247.800000,192.900000,244.300000,188.100000L249.100000,188.700000Z" fill="rgb(255,177,208)" stroke="none" stroke-width="1"/><path id="e0jp2nz2p7r9793" d="M239.400000,188.500000C239.100000,194.400000,239.800000,199.600000,240.400000,205.500000C241,205.500000,241.400000,205,242,205C242.800000,199.600000,243.100000,194.100000,242.900000,188.700000C241.700000,188.600000,240.600000,188.500000,239.400000,188.500000Z" fill="rgb(255,177,208)" stroke="none" stroke-width="1"/><path id="e0jp2nz2p7r9794" d="M242,205C242,205,242.900000,206.900000,242.400000,206.900000L237,206.900000C236.600000,206.900000,235.900000,206.600000,237,205.900000C238.100000,205.200000,242,205,242,205Z" fill="rgb(62,75,246)" stroke="none" stroke-width="1"/><path id="e0jp2nz2p7r9795" d="M253.900000,202.500000C253.900000,202.500000,255.100000,203.600000,254.400000,204.700000C253.700000,205.800000,250.900000,206.900000,250.200000,206.900000C249.500000,206.900000,248.200000,206.900000,249.400000,205.900000C250.200000,205.200000,251,204.500000,251.800000,203.700000C252.300000,203.100000,253,202.600000,253.900000,202.500000Z" fill="rgb(62,75,246)" stroke="none" stroke-width="1"/><path id="e0jp2nz2p7r9796" d="M239.300000,189.300000C242.700000,190.500000,246.400000,190.500000,249.800000,189.300000C248.700000,188.400000,248,186.800000,248.600000,185.600000C250.800000,181,250.600000,175.600000,248.100000,171.200000C245.700000,170.900000,243.300000,171,241,171.500000L241,171.500000C237.600000,176.800000,236.900000,183.500000,239.300000,189.300000L239.300000,189.300000Z" fill="rgb(67,179,255)" stroke="none" stroke-width="1"/><path id="e0jp2nz2p7r9797" d="M239.300000,172.700000C242.400000,174.500000,246.100000,174.500000,249.200000,172.900000C248.700000,171.600000,248.600000,170.200000,248.800000,168.800000C252.900000,164.600000,254.400000,158.500000,252.800000,152.800000C252.100000,152.800000,251.200000,152.900000,250.600000,152.900000C250.700000,155.400000,250.800000,158.200000,249.200000,160.200000C247.700000,161.900000,245.300000,162.600000,243.100000,162.100000C240.900000,161.500000,239,160.100000,237.800000,158.200000C236.600000,156.300000,235.900000,154.100000,235.500000,151.900000C235,151.900000,234,152.100000,233.400000,152.100000C233.600000,158.300000,236.100000,164.200000,240.500000,168.600000C240.600000,170,239.800000,171.500000,239.300000,172.700000Z" fill="rgb(247,86,126)" stroke="none" stroke-width="1"/><path id="e0jp2nz2p7r9798" d="M252.300000,153.100000C253.800000,152.400000,254.700000,150.800000,254.500000,149.100000C253.300000,149.100000,252.500000,150.200000,251.700000,151C251.400000,151.300000,251.300000,149.800000,250.800000,149.700000C250.300000,149.600000,250.400000,150.200000,250.400000,150.900000C250.500000,151.600000,250.700000,152.300000,251,153L252.300000,153.100000Z" fill="rgb(255,177,208)" stroke="none" stroke-width="1"/><path id="e0jp2nz2p7r9799" d="M235.300000,151.900000C235.800000,151.400000,236.200000,150.700000,236.300000,150C236.300000,148.900000,237,147.900000,236.300000,148.100000C235.600000,148.300000,235.800000,149.300000,235.700000,149.400000C235.600000,149.500000,235.500000,147.300000,234.900000,147.300000C234.300000,147.300000,233.200000,148.100000,233.200000,148.700000C233.200000,149.300000,232.900000,151.500000,233.500000,152.100000L235.300000,151.900000Z" fill="rgb(255,177,208)" stroke="none" stroke-width="1"/><path id="e0jp2nz2p7r97100" d="M245.100000,155.100000C246.600000,155.100000,247.100000,157.100000,247,158.600000C247,159.700000,246.100000,160.500000,245.100000,160.500000C245,160.500000,244.900000,160.500000,244.800000,160.500000C243.700000,160.500000,243,159.300000,243,157.800000C243,156.300000,243.900000,155.100000,245.100000,155.100000Z" fill="rgb(255,177,208)" stroke="none" stroke-width="1"/><path id="e0jp2nz2p7r97101" d="M243.100000,162.100000C243.500000,162.100000,244.400000,161.100000,244.500000,160.700000C244.600000,160.300000,244.600000,159.800000,244.600000,159.400000C245,159.400000,245.500000,159.400000,245.900000,159.400000C245.600000,160.600000,245.900000,161.800000,246.600000,162.800000C246.200000,163.300000,246,163.900000,245.400000,164C244.900000,164.200000,244.300000,164,244,163.700000C243.400000,163.300000,243.100000,162.700000,243.100000,162.100000Z" fill="rgb(255,177,208)" stroke="none" stroke-width="1"/><path id="e0jp2nz2p7r97102" d="M243.600000,154.700000C242.600000,155.600000,242.400000,157,243.100000,158.100000C243.700000,158.900000,244.700000,159.200000,245.100000,160.100000C245.500000,161,245.100000,162,245.100000,163C245.100000,164.900000,246.700000,166.400000,248.500000,166.400000C249.800000,166.400000,251,165.600000,251.500000,164.400000C251.700000,164,251.800000,163.500000,251.600000,163C251.400000,162.400000,250.800000,162.100000,250.600000,161.600000C250.300000,160.900000,250.800000,160.100000,250.800000,159.300000C250.800000,158.200000,249.800000,157.400000,249,156.800000C248.500000,156.400000,248,156,247.600000,155.400000C247.300000,155,247.300000,154.500000,246.900000,154.200000C246.100000,153.400000,244.400000,154,243.600000,154.700000Z" fill="rgb(26,0,109)" stroke="none" stroke-width="1"/><path id="e0jp2nz2p7r97103" d="M168.400000,189.800000C169,189.300000,169.700000,189,170.500000,189C171.300000,189,172,189,172.800000,188.900000C174.700000,188.600000,176,187,177.100000,185.500000C178.400000,183.600000,179.500000,181.500000,180.400000,179.400000C181,178,181,176.400000,181.600000,175C182.300000,175,183.100000,175,183.800000,175C184.300000,178.700000,183.600000,182.500000,182,185.900000C179.700000,190.100000,176.500000,193.700000,172.500000,196.400000C171.500000,196.900000,170.300000,196.800000,169.400000,196.200000C168.900000,195.800000,168.600000,195.200000,168.400000,194.600000C168.100000,193.100000,168,191.400000,168.400000,189.800000Z" fill="rgb(145,216,255)" stroke="none" stroke-width="1"/><path id="e0jp2nz2p7r97104" d="M181.600000,175C181.600000,175,181,171.600000,182.100000,169.800000C183.200000,168,183.700000,168,183.600000,169C183.500000,170,183,170.500000,183,170.900000C183,170.900000,185.400000,171.700000,184.900000,172.500000C184.700000,172.900000,184.400000,173.300000,183.900000,173.500000C183.900000,173.500000,184.500000,174.500000,183.900000,175L181.600000,175Z" fill="rgb(255,177,208)" stroke="none" stroke-width="1"/><path id="e0jp2nz2p7r97105" d="M167.900000,202.400000C167.300000,204.400000,165.800000,206.600000,166.500000,208.600000C167.900000,212.900000,169.800000,216.900000,172.200000,220.700000C170,223.400000,168.300000,226.400000,166.900000,229.500000C167.500000,230.400000,168.400000,231,169.500000,231.300000C172.500000,228.700000,175.200000,225.700000,177.400000,222.300000C177.200000,217.400000,176.100000,212.700000,174.100000,208.200000C173,206.100000,172.800000,204.900000,173,203.500000C170.500000,202.800000,170.300000,203,167.900000,202.400000Z" fill="rgb(222,77,113)" stroke="none" stroke-width="1"/><path id="e0jp2nz2p7r97106" d="M164.400000,236.600000C164.400000,236.600000,164.500000,238,167.100000,238.600000C168.500000,238.900000,168.900000,239.900000,167.500000,240C166.400000,240.100000,162.900000,240.200000,162,239.400000C161.100000,238.600000,161.900000,236.400000,161.900000,236.400000L164.400000,236.600000Z" fill="rgb(26,0,109)" stroke="none" stroke-width="1"/><path id="e0jp2nz2p7r97107" d="M167.500000,228.700000C166.900000,228.900000,166.400000,229.300000,166.100000,229.800000C165.700000,230.500000,168.100000,232.700000,169.700000,234.100000C171.300000,235.500000,171.500000,235,171,233.900000C170.600000,233.100000,170.300000,232.200000,170,231.400000L167.500000,228.700000Z" fill="rgb(26,0,109)" stroke="none" stroke-width="1"/><path id="e0jp2nz2p7r97108" d="M163.300000,206.400000C163.500000,209.100000,163.800000,211.800000,164.300000,214.500000C164.600000,217,164.600000,219.500000,164.100000,221.900000C164.100000,221.900000,160.700000,226.100000,161,237.100000L164.600000,237.200000C165.600000,233.100000,167.300000,229.100000,168.300000,224.900000C169.600000,219.500000,170.900000,210.500000,170.700000,205L163.300000,206.400000Z" fill="rgb(247,86,126)" stroke="none" stroke-width="1"/><path id="e0jp2nz2p7r97109" d="M168.200000,182.100000C170,181.600000,171.300000,184,171.600000,185.800000C171.900000,187.100000,171.200000,188.400000,169.900000,188.700000C169.800000,188.700000,169.700000,188.700000,169.600000,188.800000C168.300000,189.100000,167.100000,187.800000,166.600000,186C166.100000,184.200000,166.700000,182.500000,168.200000,182.100000Z" fill="rgb(255,177,208)" stroke="none" stroke-width="1"/><path id="e0jp2nz2p7r97110" d="M163,206.600000C163.800000,202.600000,163.800000,198.800000,165.300000,194.500000C165.700000,193.400000,165.800000,192.100000,166.500000,191.100000C167.200000,190.100000,169.500000,188.300000,170.600000,188.800000C171.500000,189.200000,172.200000,190.800000,172.500000,191.700000C174.100000,196.200000,173.900000,201.500000,174.200000,206.200000C172.600000,207.600000,170.500000,208.400000,168.400000,208.400000C166.400000,208.700000,164.500000,208,163,206.600000Z" fill="rgb(180,228,255)" stroke="none" stroke-width="1"/><path id="e0jp2nz2p7r97111" d="M166.300000,210.600000C166.800000,211.100000,168.600000,213.400000,168.200000,213.500000C167.800000,213.600000,166.900000,212.700000,166.600000,212.700000C166.300000,212.700000,167.600000,215.500000,166.800000,215.500000C166,215.500000,164.300000,215.900000,163.900000,214.900000C163.700000,213.900000,163.600000,212.900000,163.800000,212C163.700000,211.900000,165.600000,209.900000,166.300000,210.600000Z" fill="rgb(255,177,208)" stroke="none" stroke-width="1"/><path id="e0jp2nz2p7r97112" d="M163.500000,211.900000C163.100000,211.200000,162.700000,210.900000,162.300000,210.200000C160.700000,207.300000,159,204.200000,159.300000,200.900000C159.600000,198.200000,160.600000,195.700000,162.200000,193.600000C163.800000,191.900000,165.600000,190.400000,167.500000,189.100000C168.800000,190.400000,168.600000,192.400000,168.100000,194.100000C167.300000,196.600000,164.700000,198.100000,163.500000,200.500000C162.200000,203,164.600000,208.400000,166.300000,210.700000C165.600000,211.400000,164.600000,211.900000,163.500000,211.900000Z" fill="rgb(180,228,255)" stroke="none" stroke-width="1"/><path id="e0jp2nz2p7r97113" d="M166.800000,190.700000C167.500000,189.700000,167.800000,188.500000,167.500000,187.300000C168.300000,187.300000,169.100000,187.200000,169.900000,187.200000L170,190.900000C169,191.300000,167.600000,191.600000,166.800000,190.700000Z" fill="rgb(255,177,208)" stroke="none" stroke-width="1"/><path id="e0jp2nz2p7r97114" d="M167.600000,187.600000C167.300000,187.800000,166.900000,187.900000,166.600000,188C166.200000,188.100000,165.800000,188,165.600000,187.800000C165.300000,187.500000,165.200000,187.100000,165.200000,186.700000C165.100000,185.600000,165.500000,184.600000,165.300000,183.600000C165,183.500000,164.900000,183.200000,164.900000,183C164.900000,182.700000,165,182.500000,165.200000,182.200000C165.400000,181.900000,165.700000,181.600000,166.100000,181.500000C166.400000,181.300000,166.900000,181.200000,167.200000,181.300000C167,181.200000,166.900000,181,167,180.800000C167.100000,180.600000,167.200000,180.400000,167.400000,180.300000C168,180,168.800000,179.800000,169.500000,179.900000C169.700000,179.600000,170,179.400000,170.400000,179.200000C170.700000,179,171.200000,179.100000,171.400000,179.400000C171.600000,179.600000,171.600000,179.900000,171.600000,180.200000C171.600000,180.500000,171.600000,180.800000,171.600000,181.100000C171.800000,180.700000,172.300000,180.600000,172.600000,180.800000C173,181,173.200000,181.400000,173.100000,181.800000C173.100000,182.200000,172.900000,182.600000,172.600000,182.900000C172.100000,183.500000,171.500000,183.900000,170.700000,184.200000C170,184.400000,169.200000,184.600000,168.500000,184.700000C168.600000,185.600000,168.500000,187.100000,167.600000,187.600000Z" fill="rgb(26,0,109)" stroke="none" stroke-width="1"/><path id="e0jp2nz2p7r97115" d="M168.600000,155.200000C168.200000,155.200000,167.900000,155.100000,167.600000,154.800000L163.700000,151.500000C163,150.900000,163,149.900000,163.500000,149.300000C164,148.700000,165.100000,148.600000,165.700000,149.100000L165.700000,149.100000L168.300000,151.300000L172.600000,144.900000C173.100000,144.200000,174.100000,144,174.800000,144.500000C175.500000,145,175.700000,146,175.200000,146.700000C175.200000,146.700000,175.200000,146.700000,175.200000,146.700000L169.900000,154.600000C169.600000,155,169.100000,155.200000,168.600000,155.200000L168.600000,155.200000Z" fill="url(#e0jp2nz2p7r97115-fill)" stroke="none" stroke-width="1"/><path id="e0jp2nz2p7r97116" d="M191.800000,172.600000C191.400000,172.600000,191.100000,172.500000,190.800000,172.200000L186.900000,168.900000C186.200000,168.300000,186.200000,167.300000,186.700000,166.700000C187.300000,166,188.300000,166,188.900000,166.500000C188.900000,166.500000,188.900000,166.500000,188.900000,166.500000L191.500000,168.700000L195.800000,162.300000C196.300000,161.600000,197.300000,161.400000,198,161.900000C198.700000,162.400000,198.900000,163.400000,198.400000,164.100000C198.400000,164.100000,198.400000,164.100000,198.400000,164.100000L193.100000,172C192.900000,172.300000,192.400000,172.600000,191.800000,172.600000L191.800000,172.600000Z" fill="url(#e0jp2nz2p7r97116-fill)" stroke="none" stroke-width="1"/><path id="e0jp2nz2p7r97117" d="M164.700000,165.600000L160.400000,165.600000C160.100000,165.600000,159.800000,165.300000,159.800000,165L159.800000,165C159.800000,164.700000,160.100000,164.400000,160.400000,164.400000L164.700000,164.400000C165,164.400000,165.300000,164.700000,165.300000,165L165.300000,165L165.300000,165C165.300000,165.400000,165,165.600000,164.700000,165.600000C164.700000,165.600000,164.700000,165.600000,164.700000,165.600000Z" opacity="0.1" fill="rgb(0,0,0)" stroke="none" stroke-width="1"/><path id="e0jp2nz2p7r97118" d="M175.300000,168.300000L160.400000,168.300000C160.100000,168.300000,159.800000,168,159.800000,167.700000L159.800000,167.700000C159.800000,167.400000,160.100000,167.100000,160.400000,167.100000L175.300000,167.100000C175.600000,167.100000,175.900000,167.400000,175.900000,167.700000L175.900000,167.700000C175.900000,168,175.700000,168.300000,175.300000,168.300000Z" opacity="0.1" fill="rgb(0,0,0)" stroke="none" stroke-width="1"/><path id="e0jp2nz2p7r97119" d="M168.700000,171L160.400000,171C160.100000,171,159.800000,170.700000,159.800000,170.400000L159.800000,170.400000L159.800000,170.400000C159.800000,170.100000,160.100000,169.800000,160.400000,169.800000C160.400000,169.800000,160.400000,169.800000,160.400000,169.800000L168.700000,169.800000C169,169.800000,169.300000,170.100000,169.300000,170.400000C169.300000,170.400000,169.300000,170.400000,169.300000,170.400000L169.300000,170.400000C169.300000,170.700000,169,171,168.700000,171L168.700000,171Z" opacity="0.1" fill="rgb(0,0,0)" stroke="none" stroke-width="1"/><path id="e0jp2nz2p7r97120" d="M174,165.600000L167.100000,165.600000C166.800000,165.600000,166.500000,165.300000,166.500000,165L166.500000,165C166.500000,164.700000,166.800000,164.400000,167.100000,164.400000L174,164.400000C174.300000,164.400000,174.600000,164.700000,174.600000,165L174.600000,165C174.600000,165.400000,174.300000,165.600000,174,165.600000Z" opacity="0.1" fill="rgb(0,0,0)" stroke="none" stroke-width="1"/><path id="e0jp2nz2p7r97121" d="M117.200000,182.200000L113,182.200000C112.700000,182.200000,112.400000,181.900000,112.400000,181.600000L112.400000,181.600000C112.400000,181.300000,112.700000,181,113,181L117.300000,181C117.600000,181,117.900000,181.300000,117.900000,181.600000L117.900000,181.600000L117.900000,181.600000C117.800000,181.900000,117.600000,182.200000,117.200000,182.200000L117.200000,182.200000Z" fill="rgb(212,216,255)" stroke="none" stroke-width="1"/><path id="e0jp2nz2p7r97122" d="M127.900000,184.800000L113,184.800000C112.700000,184.800000,112.400000,184.500000,112.400000,184.200000L112.400000,184.200000C112.400000,183.900000,112.700000,183.600000,113,183.600000L127.900000,183.600000C128.200000,183.600000,128.500000,183.900000,128.500000,184.200000L128.500000,184.200000L128.500000,184.200000C128.500000,184.600000,128.200000,184.800000,127.900000,184.800000Z" fill="rgb(212,216,255)" stroke="none" stroke-width="1"/><path id="e0jp2nz2p7r97123" d="M121.200000,187.500000L113,187.500000C112.700000,187.500000,112.400000,187.200000,112.400000,186.900000L112.400000,186.900000C112.400000,186.600000,112.700000,186.300000,113,186.300000L121.300000,186.300000C121.600000,186.300000,121.900000,186.600000,121.900000,186.900000C121.900000,186.900000,121.900000,186.900000,121.900000,186.900000L121.900000,186.900000C121.800000,187.200000,121.600000,187.500000,121.200000,187.500000C121.200000,187.500000,121.200000,187.500000,121.200000,187.500000Z" fill="rgb(212,216,255)" stroke="none" stroke-width="1"/><path id="e0jp2nz2p7r97124" d="M126.600000,182.200000L119.700000,182.200000C119.400000,182.200000,119.100000,181.900000,119.100000,181.600000L119.100000,181.600000C119.100000,181.300000,119.400000,181,119.700000,181L126.600000,181C126.900000,181,127.200000,181.300000,127.200000,181.600000L127.200000,181.600000C127.200000,181.900000,126.900000,182.200000,126.600000,182.200000Z" fill="rgb(212,216,255)" stroke="none" stroke-width="1"/><path id="e0jp2nz2p7r97125" d="M19.200000,36.900000L128.800000,36.900000C130.800000,36.900000,132.400000,38.500000,132.400000,40.500000C132.400000,40.500000,132.400000,40.500000,132.400000,40.500000L132.400000,40.500000C132.400000,42.500000,130.800000,44.100000,128.800000,44.100000L128.800000,44.100000L19.200000,44.100000C17.200000,44.100000,15.600000,42.500000,15.600000,40.500000L15.600000,40.500000C15.600000,38.500000,17.200000,36.900000,19.200000,36.900000C19.200000,36.900000,19.200000,36.900000,19.200000,36.900000Z" fill="rgb(13,94,157)" stroke="none" stroke-width="1"/><path id="e0jp2nz2p7r97126" d="M127.300000,93.900000L127.300000,44.100000L20.600000,44.100000L20.600000,93.900000C20.600000,113.100000,36.200000,128.600000,55.300000,128.600000L55.300000,128.600000C60.600000,128.600000,65,132.900000,65,138.300000L65,138.300000C65,143.600000,60.700000,148,55.300000,148L55.300000,148C36.100000,148,20.600000,163.600000,20.600000,182.700000L20.600000,232.500000L127.300000,232.500000L127.300000,182.700000C127.300000,163.500000,111.700000,148,92.600000,148L92.600000,148C87.300000,148,82.900000,143.700000,82.900000,138.300000L82.900000,138.300000C82.900000,133,87.200000,128.600000,92.600000,128.600000L92.600000,128.600000C111.800000,128.600000,127.300000,113,127.300000,93.900000Z" fill="rgb(245,246,255)" stroke="none" stroke-width="1"/><path id="e0jp2nz2p7r97127" d="M19.200000,232L128.800000,232C130.800000,232,132.400000,233.600000,132.400000,235.600000L132.400000,235.600000L132.400000,235.600000C132.400000,237.600000,130.800000,239.200000,128.800000,239.200000L128.800000,239.200000L19.200000,239.200000C17.200000,239.200000,15.600000,237.600000,15.600000,235.600000L15.600000,235.600000L15.600000,235.600000C15.600000,233.600000,17.200000,232,19.200000,232L19.200000,232L19.200000,232Z" fill="rgb(13,94,157)" stroke="none" stroke-width="1"/><path id="e0jp2nz2p7r97128" d="M55.400000,121.400000C64,121.400000,71.100000,127.900000,72.100000,136.400000C72.200000,137.400000,73,138.100000,74,138.100000L74,138.100000C75,138.100000,75.800000,137.400000,75.900000,136.400000C76.800000,127.900000,84,121.400000,92.600000,121.400000C107.800000,121.400000,120.200000,109.100000,120.300000,93.800000L120.300000,92.100000C120.300000,89.600000,118.200000,87.500000,115.700000,87.500000C115.700000,87.500000,115.700000,87.500000,115.700000,87.500000L32.400000,87.500000C29.900000,87.500000,27.800000,89.600000,27.800000,92.100000C27.800000,92.100000,27.800000,92.100000,27.800000,92.100000L27.800000,93.800000C27.900000,109.100000,40.200000,121.400000,55.400000,121.400000Z" fill="url(#e0jp2nz2p7r97128-fill)" stroke="none" stroke-width="1"/><path id="e0jp2nz2p7r97129" d="M67.100000,183.500000L31.500000,221.300000C30.600000,222.300000,30.600000,223.800000,31.600000,224.700000C32,225.100000,32.600000,225.300000,33.200000,225.300000L114.600000,225.300000C115.900000,225.300000,117,224.200000,117,222.900000C117,222.300000,116.800000,221.700000,116.400000,221.300000L81,183.600000C77.400000,179.800000,71.300000,179.600000,67.500000,183.200000C67.400000,183.200000,67.300000,183.400000,67.100000,183.500000Z" fill="url(#e0jp2nz2p7r97129-fill)" stroke="none" stroke-width="1"/><g id="e0jp2nz2p7r97130_to" transform="translate(0,0)"><circle id="e0jp2nz2p7r97130" r="1.800000" transform="translate(74,142.800000)" fill="url(#e0jp2nz2p7r97130-fill)" stroke="none" stroke-width="1"/></g><circle id="e0jp2nz2p7r97131" r="1.800000" transform="matrix(1 0 0 1 74 172.19999999999999)" fill="url(#e0jp2nz2p7r97131-fill)" stroke="none" stroke-width="1"/><g id="e0jp2nz2p7r97132_to" transform="translate(0,0)"><circle id="e0jp2nz2p7r97132" r="1.800000" transform="translate(74,149.300000)" fill="url(#e0jp2nz2p7r97132-fill)" stroke="none" stroke-width="1"/></g><path id="e0jp2nz2p7r97133" d="M20.600000,204.700000C20.600000,204.700000,36.100000,214.100000,74.100000,214.100000C112.100000,214.100000,127.300000,200.800000,127.300000,200.800000L127.300000,232.500000L20.600000,232.500000L20.600000,204.700000Z" opacity="0.1" fill="rgb(0,0,0)" stroke="none" stroke-width="1"/></g></g></svg>