<svg id="ed6z9n1ii5b81" xmlns="http://www.w3.org/2000/svg" xmlns:xlink="http://www.w3.org/1999/xlink" viewBox="0 0 300 300" shape-rendering="geometricPrecision" text-rendering="geometricPrecision"><style><![CDATA[#ed6z9n1ii5b834 {animation: ed6z9n1ii5b834_c_o 5000ms linear infinite normal forwards}@keyframes ed6z9n1ii5b834_c_o { 0% {opacity: 0} 6% {opacity: 0} 10% {opacity: 1} 100% {opacity: 1} }#ed6z9n1ii5b835 {animation: ed6z9n1ii5b835_c_o 5000ms linear infinite normal forwards}@keyframes ed6z9n1ii5b835_c_o { 0% {opacity: 0} 16% {opacity: 0} 18% {opacity: 1} 100% {opacity: 1} }#ed6z9n1ii5b836 {animation: ed6z9n1ii5b836_c_o 5000ms linear infinite normal forwards}@keyframes ed6z9n1ii5b836_c_o { 0% {opacity: 0} 28% {opacity: 0} 30% {opacity: 1} 100% {opacity: 1} }#ed6z9n1ii5b837 {animation: ed6z9n1ii5b837_c_o 5000ms linear infinite normal forwards}@keyframes ed6z9n1ii5b837_c_o { 0% {opacity: 0} 42% {opacity: 0} 44% {opacity: 1} 100% {opacity: 1} }#ed6z9n1ii5b838 {animation: ed6z9n1ii5b838_c_o 5000ms linear infinite normal forwards}@keyframes ed6z9n1ii5b838_c_o { 0% {opacity: 0} 52% {opacity: 0} 54% {opacity: 1} 100% {opacity: 1} }#ed6z9n1ii5b839 {animation: ed6z9n1ii5b839_c_o 5000ms linear infinite normal forwards}@keyframes ed6z9n1ii5b839_c_o { 0% {opacity: 0} 62% {opacity: 0} 64% {opacity: 1} 100% {opacity: 1} }#ed6z9n1ii5b840 {animation: ed6z9n1ii5b840_c_o 5000ms linear infinite normal forwards}@keyframes ed6z9n1ii5b840_c_o { 0% {opacity: 0} 72% {opacity: 0} 74% {opacity: 1} 100% {opacity: 1} }#ed6z9n1ii5b841 {animation: ed6z9n1ii5b841_c_o 5000ms linear infinite normal forwards}@keyframes ed6z9n1ii5b841_c_o { 0% {opacity: 0} 80% {opacity: 0} 82% {opacity: 1} 100% {opacity: 1} }#ed6z9n1ii5b842 {animation: ed6z9n1ii5b842_c_o 5000ms linear infinite normal forwards}@keyframes ed6z9n1ii5b842_c_o { 0% {opacity: 0} 18% {opacity: 0} 80% {opacity: 0} 82% {opacity: 1} 100% {opacity: 1} }]]></style><defs><linearGradient id="ed6z9n1ii5b82-fill" x1="93.728700" y1="239.539200" x2="204.148700" y2="59.931800" spreadMethod="pad" gradientUnits="userSpaceOnUse"><stop id="ed6z9n1ii5b82-fill-0" offset="0%" stop-color="rgb(245,245,245)"/><stop id="ed6z9n1ii5b82-fill-1" offset="100%" stop-color="rgb(203,212,236)"/></linearGradient><linearGradient id="ed6z9n1ii5b84-fill" x1="108.898600" y1="119.259200" x2="189.678200" y2="119.259200" spreadMethod="pad" gradientUnits="userSpaceOnUse"><stop id="ed6z9n1ii5b84-fill-0" offset="32.490000%" stop-color="rgb(119,187,247)"/><stop id="ed6z9n1ii5b84-fill-1" offset="100%" stop-color="rgb(59,141,235)"/></linearGradient><linearGradient id="ed6z9n1ii5b822-fill" x1="149.288300" y1="227.145300" x2="149.288300" y2="210.683800" spreadMethod="pad" gradientUnits="userSpaceOnUse"><stop id="ed6z9n1ii5b822-fill-0" offset="0%" stop-color="rgb(245,245,245)"/><stop id="ed6z9n1ii5b822-fill-1" offset="100%" stop-color="rgb(203,212,236)"/></linearGradient><linearGradient id="ed6z9n1ii5b823-fill" x1="95.943300" y1="216.979200" x2="202.633500" y2="216.979200" spreadMethod="pad" gradientUnits="userSpaceOnUse"><stop id="ed6z9n1ii5b823-fill-0" offset="0%" stop-color="rgb(245,245,245)"/><stop id="ed6z9n1ii5b823-fill-1" offset="100%" stop-color="rgb(203,212,236)"/></linearGradient><linearGradient id="ed6z9n1ii5b826-fill" x1="98.494000" y1="183.946500" x2="200.082800" y2="183.946500" spreadMethod="pad" gradientUnits="userSpaceOnUse"><stop id="ed6z9n1ii5b826-fill-0" offset="0%" stop-color="rgb(199,255,245)"/><stop id="ed6z9n1ii5b826-fill-1" offset="32.490000%" stop-color="rgb(119,187,247)"/><stop id="ed6z9n1ii5b826-fill-2" offset="100%" stop-color="rgb(59,141,235)"/></linearGradient><linearGradient id="ed6z9n1ii5b843-fill" x1="210.684900" y1="86.891200" x2="264.636000" y2="86.891200" spreadMethod="pad" gradientUnits="userSpaceOnUse"><stop id="ed6z9n1ii5b843-fill-0" offset="32.490000%" stop-color="rgb(119,187,247)"/><stop id="ed6z9n1ii5b843-fill-1" offset="100%" stop-color="rgb(59,141,235)"/></linearGradient><linearGradient id="ed6z9n1ii5b844-fill" x1="215.142400" y1="87.718100" x2="237.660500" y2="87.718100" spreadMethod="pad" gradientUnits="userSpaceOnUse"><stop id="ed6z9n1ii5b844-fill-0" offset="32.490000%" stop-color="rgb(119,187,247)"/><stop id="ed6z9n1ii5b844-fill-1" offset="100%" stop-color="rgb(59,141,235)"/></linearGradient><linearGradient id="ed6z9n1ii5b845-fill" x1="237.660500" y1="87.718100" x2="260.178600" y2="87.718100" spreadMethod="pad" gradientUnits="userSpaceOnUse"><stop id="ed6z9n1ii5b845-fill-0" offset="32.490000%" stop-color="rgb(119,187,247)"/><stop id="ed6z9n1ii5b845-fill-1" offset="100%" stop-color="rgb(59,141,235)"/></linearGradient><linearGradient id="ed6z9n1ii5b848-fill" x1="234.996100" y1="94.018300" x2="240.324900" y2="94.018300" spreadMethod="pad" gradientUnits="userSpaceOnUse"><stop id="ed6z9n1ii5b848-fill-0" offset="32.490000%" stop-color="rgb(119,187,247)"/><stop id="ed6z9n1ii5b848-fill-1" offset="100%" stop-color="rgb(59,141,235)"/></linearGradient></defs><path id="ed6z9n1ii5b82" d="M57.100000,78.300000L241.400000,78.300000C246.400000,78.300000,250.400000,82.300000,250.400000,87.300000L250.400000,87.300000L250.400000,213.500000L250.400000,213.500000L48.100000,213.500000L48.100000,213.500000L48.100000,87.300000C48.100000,82.400000,52.200000,78.300000,57.100000,78.300000C57.100000,78.300000,57.100000,78.300000,57.100000,78.300000Z" fill="url(#ed6z9n1ii5b82-fill)" stroke="none" stroke-width="1"/><rect id="ed6z9n1ii5b83" width="188.100000" height="118.100000" rx="0" ry="0" transform="matrix(1 0 0 1 55.20000000000000 86.90000000000001)" opacity="0.2" fill="rgb(255,255,255)" stroke="none" stroke-width="1"/><path id="ed6z9n1ii5b84" d="M112,96.800000L186.600000,96.800000C188.300000,96.800000,189.700000,98.200000,189.700000,99.900000L189.700000,138.600000C189.700000,140.300000,188.300000,141.700000,186.600000,141.700000L112,141.700000C110.300000,141.700000,108.900000,140.300000,108.900000,138.600000L108.900000,99.900000C108.900000,98.200000,110.300000,96.800000,112,96.800000C112,96.800000,112,96.800000,112,96.800000Z" fill="url(#ed6z9n1ii5b84-fill)" stroke="none" stroke-width="1"/><path id="ed6z9n1ii5b85" d="M137.300000,104.900000L114.200000,104.900000C113.200000,104.900000,112.400000,104.100000,112.400000,103.100000L112.400000,103.100000C112.400000,102.100000,113.200000,101.300000,114.200000,101.300000L137.300000,101.300000C138.300000,101.300000,139.100000,102.100000,139.100000,103.100000C139.100000,103.100000,139.100000,103.100000,139.100000,103.100000L139.100000,103.100000C139.100000,104.100000,138.300000,104.900000,137.300000,104.900000Z" fill="rgb(176,223,255)" stroke="none" stroke-width="1"/><path id="ed6z9n1ii5b86" d="M157.600000,104.900000L143.800000,104.900000C142.800000,104.900000,142,104.100000,142,103.100000L142,103.100000C142,102.100000,142.800000,101.300000,143.800000,101.300000L157.600000,101.300000C158.600000,101.300000,159.400000,102.100000,159.400000,103.100000L159.400000,103.100000C159.400000,104.100000,158.600000,104.900000,157.600000,104.900000Z" fill="rgb(176,223,255)" stroke="none" stroke-width="1"/><rect id="ed6z9n1ii5b87" width="6.300000" height="3.600000" rx="0" ry="0" transform="matrix(1 0 0 1 119.70000000000000 116.80000000000000)" fill="rgb(254,171,0)" stroke="none" stroke-width="1"/><path id="ed6z9n1ii5b88" d="M126.700000,112.100000L133.300000,112.100000L133.300000,110.700000C133.300000,109.500000,132.300000,108.500000,131.100000,108.500000L126.700000,108.500000L126.700000,112.100000Z" fill="rgb(254,171,0)" stroke="none" stroke-width="1"/><rect id="ed6z9n1ii5b89" width="6.300000" height="3.300000" rx="0" ry="0" transform="matrix(1 0 0 1 119.70000000000000 112.80000000000000)" fill="rgb(254,171,0)" stroke="none" stroke-width="1"/><rect id="ed6z9n1ii5b810" width="6.300000" height="3.600000" rx="0" ry="0" transform="matrix(1 0 0 1 119.70000000000000 108.40000000000001)" fill="rgb(254,171,0)" stroke="none" stroke-width="1"/><path id="ed6z9n1ii5b811" d="M119,108.400000L114.600000,108.400000C113.400000,108.400000,112.400000,109.400000,112.400000,110.600000L112.400000,112L119,112L119,108.400000Z" fill="rgb(254,171,0)" stroke="none" stroke-width="1"/><path id="ed6z9n1ii5b812" d="M126.700000,116.800000L126.700000,120.400000L131.100000,120.400000C132.300000,120.400000,133.300000,119.400000,133.300000,118.200000L133.300000,116.800000L126.700000,116.800000Z" fill="rgb(254,171,0)" stroke="none" stroke-width="1"/><path id="ed6z9n1ii5b813" d="M119,116.800000L112.400000,116.800000L112.400000,118.200000C112.400000,119.400000,113.400000,120.400000,114.600000,120.400000L119,120.400000L119,116.800000Z" fill="rgb(254,171,0)" stroke="none" stroke-width="1"/><rect id="ed6z9n1ii5b814" width="6.600000" height="3.300000" rx="0" ry="0" transform="matrix(1 0 0 1 126.70000000000000 112.80000000000000)" fill="rgb(254,171,0)" stroke="none" stroke-width="1"/><rect id="ed6z9n1ii5b815" width="6.600000" height="3.300000" rx="0" ry="0" transform="matrix(1 0 0 1 112.40000000000001 112.80000000000000)" fill="rgb(254,171,0)" stroke="none" stroke-width="1"/><path id="ed6z9n1ii5b816" d="M113.800000,124.400000L126.800000,124.400000C127.600000,124.400000,128.200000,125,128.200000,125.800000L128.200000,125.800000L128.200000,130.200000C128.200000,131,127.600000,131.600000,126.800000,131.600000L113.800000,131.600000C113,131.600000,112.400000,131,112.400000,130.200000L112.400000,125.800000C112.500000,125.100000,113.100000,124.400000,113.800000,124.400000C113.800000,124.400000,113.800000,124.400000,113.800000,124.400000Z" fill="rgb(176,223,255)" stroke="none" stroke-width="1"/><path id="ed6z9n1ii5b817" d="M133.100000,124.400000L146.100000,124.400000C146.900000,124.400000,147.500000,125,147.500000,125.800000L147.500000,130.200000C147.500000,131,146.900000,131.600000,146.100000,131.600000L146.100000,131.600000L133.100000,131.600000C132.300000,131.600000,131.700000,131,131.700000,130.200000L131.700000,125.800000C131.800000,125.100000,132.400000,124.400000,133.100000,124.400000Z" fill="rgb(176,223,255)" stroke="none" stroke-width="1"/><path id="ed6z9n1ii5b818" d="M152.400000,124.400000L165.400000,124.400000C166.200000,124.400000,166.800000,125,166.800000,125.800000L166.800000,130.200000C166.800000,131,166.200000,131.600000,165.400000,131.600000L152.400000,131.600000C151.600000,131.600000,151,131,151,130.200000L151,125.800000C151.100000,125.100000,151.700000,124.400000,152.400000,124.400000C152.400000,124.400000,152.400000,124.400000,152.400000,124.400000Z" fill="rgb(176,223,255)" stroke="none" stroke-width="1"/><path id="ed6z9n1ii5b819" d="M171.700000,124.400000L184.700000,124.400000C185.500000,124.400000,186.100000,125,186.100000,125.800000L186.100000,125.800000L186.100000,130.200000C186.100000,131,185.500000,131.600000,184.700000,131.600000L171.700000,131.600000C170.900000,131.600000,170.300000,131,170.300000,130.200000L170.300000,130.200000L170.300000,125.800000C170.400000,125.100000,171,124.400000,171.700000,124.400000C171.700000,124.400000,171.700000,124.400000,171.700000,124.400000Z" fill="rgb(176,223,255)" stroke="none" stroke-width="1"/><path id="ed6z9n1ii5b820" d="M138.100000,137.200000L113.400000,137.200000C112.900000,137.200000,112.400000,136.800000,112.400000,136.200000L112.400000,136.200000C112.400000,135.700000,112.800000,135.200000,113.400000,135.200000L138.100000,135.200000C138.600000,135.200000,139.100000,135.600000,139.100000,136.200000L139.100000,136.200000C139.100000,136.800000,138.700000,137.200000,138.100000,137.200000Z" fill="rgb(176,223,255)" stroke="none" stroke-width="1"/><path id="ed6z9n1ii5b821" d="M158.400000,137.200000L142.400000,137.200000C141.900000,137.200000,141.400000,136.800000,141.400000,136.200000L141.400000,136.200000C141.400000,135.700000,141.800000,135.200000,142.400000,135.200000L158.400000,135.200000C158.900000,135.200000,159.400000,135.600000,159.400000,136.200000L159.400000,136.200000C159.400000,136.800000,159,137.200000,158.400000,137.200000Z" fill="rgb(176,223,255)" stroke="none" stroke-width="1"/><path id="ed6z9n1ii5b822" d="M29.500000,213.500000L269,213.500000C269.500000,213.500000,269.900000,213.900000,269.900000,214.400000L269.900000,220.400000C269.900000,224.200000,266.800000,227.300000,263,227.300000L263,227.300000L35.500000,227.300000C31.700000,227.300000,28.600000,224.200000,28.600000,220.400000L28.600000,214.400000C28.700000,213.900000,29.100000,213.500000,29.500000,213.500000C29.500000,213.500000,29.500000,213.500000,29.500000,213.500000Z" fill="url(#ed6z9n1ii5b822-fill)" stroke="none" stroke-width="1"/><path id="ed6z9n1ii5b823" d="M95.900000,213.500000L202.600000,213.500000L202.600000,213.500000L202.600000,216.900000C202.600000,218.800000,201.100000,220.300000,199.200000,220.300000L99.400000,220.300000C97.500000,220.300000,96,218.800000,96,216.900000L96,213.500000L95.900000,213.500000Z" fill="url(#ed6z9n1ii5b823-fill)" stroke="none" stroke-width="1"/><polygon id="ed6z9n1ii5b824" points="157.700000,78.300000 105,213.500000 139.300000,213.500000 182,78.700000 182,78.300000" opacity="0.2" fill="rgb(255,255,255)" stroke="none" stroke-width="1"/><polygon id="ed6z9n1ii5b825" points="146.300000,213.500000 167.300000,213.500000 210.200000,78.300000 199,78.300000" opacity="0.2" fill="rgb(255,255,255)" stroke="none" stroke-width="1"/><path id="ed6z9n1ii5b826" d="M107.200000,175.200000L191.400000,175.200000C196.200000,175.200000,200.100000,179.100000,200.100000,183.900000L200.100000,183.900000L200.100000,183.900000C200.100000,188.700000,196.200000,192.600000,191.400000,192.600000L107.200000,192.600000C102.400000,192.600000,98.500000,188.700000,98.500000,183.900000L98.500000,183.900000C98.500000,179.100000,102.400000,175.200000,107.200000,175.200000Z" fill="url(#ed6z9n1ii5b826-fill)" stroke="none" stroke-width="1"/><path id="ed6z9n1ii5b827" d="M129.600000,182.900000C129.600000,184.200000,128.600000,185.300000,127.200000,185.400000C127.200000,185.400000,127.100000,185.400000,127.100000,185.400000L126.200000,185.400000L126.200000,187.500000L124.400000,187.500000L124.400000,180.500000L127.100000,180.500000C128.400000,180.400000,129.600000,181.500000,129.600000,182.800000C129.600000,182.800000,129.600000,182.800000,129.600000,182.900000ZM127.800000,182.900000C127.800000,182.500000,127.500000,182.200000,127.100000,182.200000C127.100000,182.200000,127.100000,182.200000,127.100000,182.200000L126.200000,182.200000L126.200000,183.700000L127.100000,183.700000C127.500000,183.600000,127.800000,183.300000,127.800000,182.900000C127.800000,182.900000,127.800000,182.900000,127.800000,182.900000Z" fill="rgb(255,255,255)" stroke="none" stroke-width="1"/><path id="ed6z9n1ii5b828" d="M134.600000,186.500000L132.300000,186.500000L132,187.500000L130,187.500000L132.300000,180.500000L134.500000,180.500000L136.800000,187.500000L134.900000,187.500000L134.600000,186.500000ZM134.200000,184.900000L133.500000,182.500000L132.800000,184.900000L134.200000,184.900000Z" fill="rgb(255,255,255)" stroke="none" stroke-width="1"/><path id="ed6z9n1ii5b829" d="M141.100000,184.800000L141.100000,187.500000L139.300000,187.500000L139.300000,184.800000L136.900000,180.400000L138.900000,180.400000L140.100000,183L141.400000,180.400000L143.400000,180.400000L141.100000,184.800000Z" fill="rgb(255,255,255)" stroke="none" stroke-width="1"/><path id="ed6z9n1ii5b830" d="M154,180.400000L154,187.400000L152.600000,187.400000L150.100000,183.900000L150.100000,187.400000L148.300000,187.400000L148.300000,180.400000L149.700000,180.400000L152.200000,183.900000L152.200000,180.400000L154,180.400000Z" fill="rgb(255,255,255)" stroke="none" stroke-width="1"/><path id="ed6z9n1ii5b831" d="M155.900000,183.900000C155.900000,181.900000,157.500000,180.200000,159.600000,180.200000C161.600000,180.200000,163.300000,181.800000,163.300000,183.900000C163.300000,185.900000,161.700000,187.600000,159.600000,187.600000C159.600000,187.600000,159.600000,187.600000,159.600000,187.600000C157.600000,187.600000,155.900000,186,155.900000,183.900000C155.900000,184,155.900000,184,155.900000,183.900000ZM161.500000,183.900000C161.500000,182.800000,160.600000,182,159.600000,182C158.500000,182,157.700000,182.900000,157.700000,183.900000C157.700000,184.900000,158.600000,185.800000,159.600000,185.800000C160.600000,185.800000,161.500000,185,161.500000,184C161.500000,184,161.500000,184,161.500000,183.900000L161.500000,183.900000Z" fill="rgb(255,255,255)" stroke="none" stroke-width="1"/><path id="ed6z9n1ii5b832" d="M164.300000,180.400000L166.200000,180.400000L167.300000,184.800000L168.600000,180.400000L170,180.400000L171.300000,184.800000L172.400000,180.400000L174.300000,180.400000L172.300000,187.400000L170.400000,187.400000L169.300000,183.400000L168.200000,187.400000L166.300000,187.400000L164.300000,180.400000Z" fill="rgb(255,255,255)" stroke="none" stroke-width="1"/><path id="ed6z9n1ii5b833" d="M106.200000,151.300000L192.500000,151.300000C197.300000,151.300000,201.200000,155.200000,201.200000,160L201.200000,160L201.200000,160C201.200000,164.800000,197.300000,168.700000,192.500000,168.700000L106.200000,168.700000C101.400000,168.700000,97.500000,164.800000,97.500000,160L97.500000,160C97.400000,155.200000,101.300000,151.300000,106.200000,151.300000L106.200000,151.300000Z" fill="rgb(255,255,255)" stroke="none" stroke-width="1"/><circle id="ed6z9n1ii5b834" r="2.900000" transform="matrix(1 0 0 1 107.89999999999999 160.09999999999999)" opacity="0" fill="rgb(13,94,157)" stroke="none" stroke-width="1"/><circle id="ed6z9n1ii5b835" r="2.900000" transform="matrix(1 0 0 1 117 160.09999999999999)" opacity="0" fill="rgb(13,94,157)" stroke="none" stroke-width="1"/><circle id="ed6z9n1ii5b836" r="2.900000" transform="matrix(1 0 0 1 126.20000000000000 160.09999999999999)" opacity="0" fill="rgb(13,94,157)" stroke="none" stroke-width="1"/><circle id="ed6z9n1ii5b837" r="2.900000" transform="matrix(1 0 0 1 135.40000000000001 160.09999999999999)" opacity="0" fill="rgb(13,94,157)" stroke="none" stroke-width="1"/><circle id="ed6z9n1ii5b838" r="2.900000" transform="matrix(1 0 0 1 144.69999999999999 160.09999999999999)" opacity="0" fill="rgb(13,94,157)" stroke="none" stroke-width="1"/><circle id="ed6z9n1ii5b839" r="2.900000" transform="matrix(1 0 0 1 153.90000000000001 160.09999999999999)" opacity="0" fill="rgb(13,94,157)" stroke="none" stroke-width="1"/><circle id="ed6z9n1ii5b840" r="2.900000" transform="matrix(1 0 0 1 163.09999999999999 160.09999999999999)" opacity="0" fill="rgb(13,94,157)" stroke="none" stroke-width="1"/><circle id="ed6z9n1ii5b841" r="5.900000" transform="matrix(1 0 0 1 192.50000000000000 160)" opacity="0" fill="rgb(14,155,34)" stroke="none" stroke-width="1"/><path id="ed6z9n1ii5b842" d="M195.200000,157.100000C194.700000,156.800000,194,156.900000,193.700000,157.400000C193.700000,157.400000,193.700000,157.400000,193.700000,157.400000L191.700000,160.300000L191.300000,159.900000C190.900000,159.500000,190.200000,159.500000,189.700000,159.900000C189.300000,160.300000,189.300000,161,189.700000,161.500000L191.100000,162.900000C191.300000,163.100000,191.600000,163.200000,191.900000,163.200000C191.900000,163.200000,192,163.200000,192,163.200000C192.300000,163.200000,192.600000,163,192.800000,162.700000L195.500000,158.700000C195.800000,158.100000,195.700000,157.400000,195.200000,157.100000Z" opacity="0" fill="rgb(255,255,255)" stroke="none" stroke-width="1"/><path id="ed6z9n1ii5b843" d="M236.100000,116.400000C229.700000,114.300000,224,110.300000,219.800000,105C216.400000,100.600000,213.900000,95.600000,212.600000,90.200000C211,84.300000,210.400000,78.200000,210.800000,72.100000L211.200000,68.300000L215.300000,68.300000C220.200000,68.400000,225.100000,67,229.300000,64.400000C231.100000,63.300000,232.700000,62,234.100000,60.400000L237.700000,56.800000L241.300000,60.400000C242.700000,62,244.300000,63.300000,246.100000,64.400000C250.300000,67,255.100000,68.300000,260.100000,68.300000L264.200000,68.300000L264.600000,72.100000C265,78.200000,264.400000,84.300000,262.800000,90.200000C261.400000,95.600000,259,100.600000,255.600000,105C251.400000,110.300000,245.700000,114.300000,239.300000,116.400000L237.700000,116.900000L236.100000,116.400000Z" fill="url(#ed6z9n1ii5b843-fill)" stroke="none" stroke-width="1"/><path id="ed6z9n1ii5b844" d="M237.700000,62.900000C237.700000,62.900000,230.200000,72.500000,215.300000,72.500000C215.300000,72.500000,212.200000,103.800000,237.700000,112.600000L237.700000,62.900000Z" fill="url(#ed6z9n1ii5b844-fill)" stroke="none" stroke-width="1"/><path id="ed6z9n1ii5b845" d="M237.700000,62.900000C237.700000,62.900000,245.200000,72.500000,260.100000,72.500000C260.100000,72.500000,263.200000,103.800000,237.700000,112.600000L237.700000,62.900000Z" fill="url(#ed6z9n1ii5b845-fill)" stroke="none" stroke-width="1"/><path id="ed6z9n1ii5b846" d="M244.500000,87.500000L242.100000,87.500000L242.100000,79.100000C242.100000,76.700000,240.100000,74.700000,237.700000,74.700000C235.300000,74.700000,233.300000,76.700000,233.300000,79.100000L233.300000,87.500000L230.900000,87.500000L230.900000,79.100000C230.900000,75.300000,234,72.200000,237.700000,72.200000C241.500000,72.200000,244.600000,75.300000,244.600000,79C244.600000,79,244.600000,79,244.600000,79L244.600000,87.500000Z" fill="rgb(255,255,255)" stroke="none" stroke-width="1"/><path id="ed6z9n1ii5b847" d="M228.400000,85.800000L247,85.800000C248.100000,85.800000,249,86.700000,249,87.800000L249,87.800000L249,100.300000C249,101.400000,248.100000,102.300000,247,102.300000L247,102.300000L228.400000,102.300000C227.300000,102.300000,226.400000,101.400000,226.400000,100.300000L226.400000,100.300000L226.400000,87.800000C226.400000,86.700000,227.300000,85.800000,228.400000,85.800000Z" fill="rgb(255,255,255)" stroke="none" stroke-width="1"/><path id="ed6z9n1ii5b848" d="M240.300000,98L238.700000,93.700000C239.600000,93.100000,239.900000,91.800000,239.300000,90.900000C238.700000,90,237.400000,89.700000,236.500000,90.300000C235.600000,90.900000,235.300000,92.200000,235.900000,93.100000C236.100000,93.300000,236.300000,93.500000,236.500000,93.700000L235,98L240.300000,98Z" fill="url(#ed6z9n1ii5b848-fill)" stroke="none" stroke-width="1"/><polygon id="ed6z9n1ii5b849" points="233.200000,219.700000 233.200000,225 230.400000,225 230.100000,219.300000" fill="rgb(255,162,173)" stroke="none" stroke-width="1"/><polygon id="ed6z9n1ii5b850" points="233.200000,221.800000 230.300000,221.800000 230.100000,219.300000 233.200000,219.700000" fill="rgb(254,117,146)" stroke="none" stroke-width="1"/><path id="ed6z9n1ii5b851" d="M231.500000,191.800000L232.600000,208.100000L234,217.700000L229.100000,217.700000L223.600000,200.900000C223.600000,200.900000,220.500000,207.700000,220.100000,210.100000C219.700000,212.200000,219.100000,214.300000,218.400000,216.300000L212.600000,215.900000C212.600000,215.900000,213.100000,207.500000,213.100000,205.400000C213.100000,203.300000,214.100000,191.500000,214.100000,191.500000L223.700000,185.700000L231.500000,191.800000Z" fill="rgb(255,195,27)" stroke="none" stroke-width="1"/><path id="ed6z9n1ii5b852" d="M213.800000,194.500000C213.900000,192.800000,214,191.500000,214,191.500000L223.600000,185.700000L231.400000,191.800000L231.600000,194.200000C229.400000,195,227,195.300000,224.700000,195.100000L224.300000,193.500000L223.700000,195.200000C220.500000,195.400000,217.100000,195.200000,213.800000,194.500000Z" fill="rgb(255,160,0)" stroke="none" stroke-width="1"/><polygon id="ed6z9n1ii5b853" points="216.600000,219.300000 215.400000,225 212.600000,225 213.100000,218.600000" fill="rgb(255,162,173)" stroke="none" stroke-width="1"/><polygon id="ed6z9n1ii5b854" points="212.900000,221.800000 213.100000,218.600000 216.600000,219.300000 216.100000,221.800000" fill="rgb(254,117,146)" stroke="none" stroke-width="1"/><path id="ed6z9n1ii5b855" d="M233.200000,225L233.200000,227.900000C233.200000,228.400000,232.800000,228.800000,232.300000,228.800000L232.300000,228.800000L226.100000,228.800000C225.600000,228.800000,225.200000,228.400000,225.100000,227.900000C225.100000,227.800000,225.100000,227.600000,225.200000,227.500000C225.300000,227.100000,228.600000,226.200000,230.400000,225L233.200000,225Z" fill="rgb(255,74,70)" stroke="none" stroke-width="1"/><path id="ed6z9n1ii5b856" d="M215.400000,225L215.400000,227.900000C215.400000,228.400000,215,228.800000,214.500000,228.800000L214.500000,228.800000L208.300000,228.800000C207.800000,228.800000,207.400000,228.400000,207.300000,227.900000C207.300000,227.800000,207.300000,227.600000,207.400000,227.500000C207.500000,227.100000,210.800000,226.200000,212.600000,225L215.400000,225Z" fill="rgb(255,74,70)" stroke="none" stroke-width="1"/><path id="ed6z9n1ii5b857" d="M213.700000,180.500000C212.900000,182,211.700000,183.300000,210.300000,184.100000C208.200000,185.200000,203.100000,180.900000,200.900000,176.600000L202.300000,175.500000L209,180.200000L211.400000,176.600000L213.700000,180.500000Z" fill="rgb(255,162,173)" stroke="none" stroke-width="1"/><path id="ed6z9n1ii5b858" d="M210.200000,184.100000C208.800000,184.800000,206.100000,183.200000,203.800000,180.700000C203.800000,180.700000,207.900000,183.500000,209.200000,183.700000C210.500000,183.900000,211.900000,181.400000,211.900000,181.400000C210.500000,179.200000,210.100000,178.400000,210.100000,178.400000L211.300000,176.600000L213.700000,180.400000C212.900000,182,211.700000,183.300000,210.200000,184.100000Z" fill="rgb(254,117,146)" stroke="none" stroke-width="1"/><path id="ed6z9n1ii5b859" d="M202.200000,175.600000C202.200000,175,202,174.500000,201.800000,173.900000C201.400000,172.800000,200.200000,170,199.600000,170.100000C199,170.200000,200.300000,172.500000,200.300000,172.800000C199.700000,173,199.200000,173.500000,198.900000,174.100000C198.500000,175,198.700000,175.800000,200.800000,176.600000L202.200000,175.600000Z" fill="rgb(255,162,173)" stroke="none" stroke-width="1"/><path id="ed6z9n1ii5b860" d="M234.500000,176.700000C235.600000,178.900000,236.400000,181.200000,237,183.600000C237.500000,185.500000,237.700000,187.500000,237.600000,189.500000L235.400000,189.500000C235.400000,189.500000,234.200000,182.500000,231.200000,178.200000L234.500000,176.700000Z" fill="rgb(255,162,173)" stroke="none" stroke-width="1"/><path id="ed6z9n1ii5b861" d="M231.400000,178.500000L231.300000,178.100000L234.500000,176.700000C234.500000,176.700000,234.700000,177.100000,235,177.800000C234.600000,178.300000,234.100000,178.800000,233.600000,179.200000C233,179.600000,233.300000,181.600000,233.600000,183C233,181.400000,232.300000,179.900000,231.400000,178.500000Z" fill="rgb(254,117,146)" stroke="none" stroke-width="1"/><path id="ed6z9n1ii5b862" d="M235.400000,189.500000C234.800000,190.100000,234.300000,190.900000,234,191.800000C233.900000,192.400000,234,192.500000,234.700000,191.800000L235.400000,191.100000C235.400000,191.100000,235.200000,194.200000,236.100000,194.200000C237,194.200000,238.800000,193.900000,238.900000,193.100000C239,192.300000,237.700000,189.400000,237.700000,189.400000L235.400000,189.400000Z" fill="rgb(255,162,173)" stroke="none" stroke-width="1"/><polygon id="ed6z9n1ii5b863" points="221.400000,162 221.400000,165.200000 223.700000,165.200000 223.700000,162.500000" fill="rgb(254,117,146)" stroke="none" stroke-width="1"/><path id="ed6z9n1ii5b864" d="M219.400000,156.900000C219.400000,156.900000,218.200000,160.800000,219,161.900000C219.800000,163,222.600000,162.900000,222.600000,162.900000L223.900000,157.600000L219.400000,156.900000Z" fill="rgb(255,162,173)" stroke="none" stroke-width="1"/><path id="ed6z9n1ii5b865" d="M221.500000,158.100000C221.200000,158.900000,221,159.800000,221,160.600000C221.100000,161.400000,222.200000,164,223.500000,164C224.800000,164,225.300000,159.200000,225.300000,159.200000L221.500000,158.100000Z" fill="rgb(26,0,109)" stroke="none" stroke-width="1"/><path id="ed6z9n1ii5b866" d="M220.800000,161.100000C220.800000,161.100000,222.600000,161.500000,222.500000,160.300000C222.400000,159.100000,221.800000,158.500000,221.400000,158.800000C221,159.100000,220.800000,159,220.800000,159L220.800000,161.100000Z" fill="rgb(255,162,173)" stroke="none" stroke-width="1"/><path id="ed6z9n1ii5b867" d="M222.500000,159.300000L222.500000,159.900000C221.200000,159.900000,220,159.400000,219,158.700000C219.200000,157.700000,219.400000,156.900000,219.400000,156.900000L223.600000,158.900000L222.500000,159.300000Z" fill="rgb(254,117,146)" stroke="none" stroke-width="1"/><path id="ed6z9n1ii5b868" d="M221,154.400000C221,154.400000,222.700000,151.600000,225.300000,153.300000C227.900000,155,227,158.700000,225.200000,159.800000C223,159.700000,220.800000,159,218.900000,157.700000C216,155.700000,215.400000,153.100000,216.400000,152.500000C217.400000,151.900000,218.800000,152.600000,221,154.400000Z" fill="rgb(255,74,70)" stroke="none" stroke-width="1"/><path id="ed6z9n1ii5b869" d="M225.100000,166.600000L224.800000,165C222.700000,164.400000,220.500000,164.800000,218.800000,166L218.800000,166.900000C220.800000,166.100000,223,166,225.100000,166.600000Z" fill="rgb(62,75,246)" stroke="none" stroke-width="1"/><path id="ed6z9n1ii5b870" d="M224.900000,165.800000L225,166.400000L225,166.400000C223.900000,166.100000,222.700000,165.900000,221.500000,166.100000C222.600000,165.800000,223.800000,165.700000,224.900000,165.800000Z" fill="rgb(44,52,172)" stroke="none" stroke-width="1"/><path id="ed6z9n1ii5b871" d="M235.500000,176.700000C235.500000,176.700000,231.400000,167.800000,225.200000,166.400000C223.100000,165.800000,220.900000,165.900000,218.900000,166.700000C216.400000,167.600000,212.600000,172.300000,209.900000,176.700000C209.900000,176.700000,210.300000,179.600000,214.600000,181.900000L213.300000,192.500000C213.300000,192.500000,220.500000,193.300000,223.300000,193.300000L223.800000,187.300000L225.200000,193.300000C227.600000,193.400000,230.100000,193.200000,232.500000,192.800000L230.500000,179.100000C230.500000,179.100000,234.200000,177.800000,235.500000,176.700000Z" fill="rgb(62,75,246)" stroke="none" stroke-width="1"/><path id="ed6z9n1ii5b872" d="M232.500000,178.300000L232.500000,178.300000C231.400000,178.700000,230.600000,179,230.600000,179L230.600000,179.100000L229.500000,173.300000C229.500000,173.400000,231.300000,177.300000,232.500000,178.300000Z" fill="rgb(44,52,172)" stroke="none" stroke-width="1"/><rect id="ed6z9n1ii5b873" width="0.100000" height="6.400000" rx="0" ry="0" transform="matrix(0.98360000000000 -0.18050000000000 0.18050000000000 0.98360000000000 229.33069000000006 172.76697000000001)" fill="rgb(255,255,255)" stroke="none" stroke-width="1"/><rect id="ed6z9n1ii5b874" width="9.500000" height="0.100000" rx="0" ry="0" transform="matrix(0.16060000000000 -0.98700000000000 0.98700000000000 0.16060000000000 214.46749999999994 182.07593999999995)" fill="rgb(255,255,255)" stroke="none" stroke-width="1"/><polygon id="ed6z9n1ii5b875" points="234.800000,215.900000 234.700000,220.200000 228.700000,220.200000 227.800000,215.900000" fill="rgb(255,160,0)" stroke="none" stroke-width="1"/><polygon id="ed6z9n1ii5b876" points="219.600000,215.900000 218,220.200000 211.900000,220.200000 211.700000,215.100000" fill="rgb(255,160,0)" stroke="none" stroke-width="1"/><rect id="ed6z9n1ii5b877" width="8" height="0.500000" rx="0" ry="0" transform="matrix(1 0 0 1 225.19999999999999 228.59999999999999)" fill="rgb(26,0,109)" stroke="none" stroke-width="1"/><rect id="ed6z9n1ii5b878" width="8" height="0.500000" rx="0" ry="0" transform="matrix(1 0 0 1 207.19999999999999 228.59999999999999)" fill="rgb(26,0,109)" stroke="none" stroke-width="1"/><path id="ed6z9n1ii5b879" d="M44.900000,162.900000C46.400000,165.300000,47.600000,167.800000,48.500000,170.500000C45.600000,171.200000,42.600000,171.600000,39.600000,171.700000L39.700000,163.100000L44.900000,162.900000Z" fill="rgb(1,0,31)" stroke="none" stroke-width="1"/><path id="ed6z9n1ii5b880" d="M28.700000,222.100000C28.700000,222.100000,23.700000,225,21,226.400000L19.600000,224C21.900000,222.600000,24.200000,221.100000,26.400000,219.500000L28.700000,222.100000Z" fill="rgb(255,177,208)" stroke="none" stroke-width="1"/><path id="ed6z9n1ii5b881" d="M26.300000,219.500000C24.500000,220.800000,22.700000,222.100000,20.800000,223.200000C21.500000,224.100000,22.500000,224.700000,23.500000,225C26,223.600000,28.600000,222.100000,28.600000,222.100000L26.300000,219.500000Z" fill="rgb(254,117,146)" stroke="none" stroke-width="1"/><path id="ed6z9n1ii5b882" d="M21,226.400000C21.600000,228.200000,22.100000,230.100000,22.400000,232C22.500000,233.500000,21.500000,232.400000,20.200000,230.400000C18.900000,228.400000,16.700000,224.800000,17.900000,224.400000C18.400000,224.200000,19,224,19.600000,224L21,226.400000Z" fill="rgb(26,0,109)" stroke="none" stroke-width="1"/><path id="ed6z9n1ii5b883" d="M54,220.400000C54,220.400000,55.300000,226,55.900000,229L53.100000,229.700000C52.500000,227.100000,51.700000,224.500000,50.800000,221.900000L54,220.400000Z" fill="rgb(255,177,208)" stroke="none" stroke-width="1"/><path id="ed6z9n1ii5b884" d="M54.800000,223.600000L54.800000,223.600000C54.400000,221.800000,54,220.300000,54,220.300000L50.800000,221.800000C51.200000,222.800000,51.500000,223.800000,51.800000,224.800000C52.800000,224.500000,53.800000,224.100000,54.800000,223.600000Z" fill="rgb(254,117,146)" stroke="none" stroke-width="1"/><path id="ed6z9n1ii5b885" d="M55.900000,229C57.800000,228.900000,59.800000,229,61.700000,229.300000C63.100000,229.700000,61.800000,230.300000,59.500000,231C57.200000,231.700000,53.200000,232.700000,53.100000,231.500000C53,230.900000,53.100000,230.300000,53.200000,229.800000L55.900000,229Z" fill="rgb(26,0,109)" stroke="none" stroke-width="1"/><path id="ed6z9n1ii5b886" d="M41.500000,172.600000C41.500000,172.600000,45.200000,172.900000,46.900000,174.100000C48.600000,175.300000,49.600000,178.200000,52.200000,178.200000C54.800000,178.200000,55.700000,174.800000,55.700000,174.800000C55.700000,174.800000,57.400000,174.900000,57.900000,175.800000C57.900000,175.800000,57,182.600000,53,183.900000C49,185.200000,43.600000,182.900000,43.600000,182.900000L32.400000,183C28.500000,185.600000,25.600000,189.600000,24.400000,194.100000C23.500000,194.500000,22.500000,194.400000,21.700000,193.800000C21.700000,193.800000,20.700000,185.700000,24.700000,180.600000C28.700000,175.500000,33,172.100000,36.400000,171.900000L41.500000,172.600000Z" fill="rgb(255,195,27)" stroke="none" stroke-width="1"/><path id="ed6z9n1ii5b887" d="M49.600000,183.800000C47,183.500000,46.500000,182.500000,46.500000,182.500000C46.500000,180.800000,46.200000,179.100000,45.800000,177.400000L42.900000,182.800000L43.500000,182.800000C43.500000,182.800000,49,185.100000,52.900000,183.800000L52.900000,183.800000C51.800000,183.900000,50.700000,183.900000,49.600000,183.800000Z" fill="rgb(255,148,0)" stroke="none" stroke-width="1"/><path id="ed6z9n1ii5b888" d="M34.300000,173.100000L35.400000,176.800000C36.600000,177.100000,37.700000,177.200000,38.900000,177.200000C40.100000,177.200000,41.200000,177.100000,42.400000,176.900000L42.900000,173.700000L43.600000,178.100000L39,178.100000L34.600000,177.500000L34.300000,173.100000Z" fill="rgb(255,148,0)" stroke="none" stroke-width="1"/><path id="ed6z9n1ii5b889" d="M31.700000,175.600000L30.800000,182.200000C30.800000,182.200000,26.900000,185.900000,26.400000,189.300000L26.400000,189.300000C27.900000,186.800000,30,184.600000,32.400000,182.900000L34.200000,182.900000L31.700000,175.600000Z" fill="rgb(255,148,0)" stroke="none" stroke-width="1"/><path id="ed6z9n1ii5b890" d="M40.400000,169.100000C40.400000,169.100000,39.300000,172.100000,40.400000,172.300000L41.500000,172.600000C41.500000,172.600000,40.800000,174.900000,38.800000,174.800000C36.800000,174.700000,36.300000,171.900000,36.300000,171.900000C37.600000,171.200000,38.500000,170,38.900000,168.500000L40.400000,169.100000Z" fill="rgb(255,177,208)" stroke="none" stroke-width="1"/><path id="ed6z9n1ii5b891" d="M36.500000,171.800000C37.100000,172,37.600000,172.200000,38.200000,172.300000L38.900000,171L39.900000,170.700000L39.900000,170.700000C40,170.200000,40.100000,169.700000,40.300000,169.100000L38.800000,168.600000C38.500000,169.900000,37.700000,171.100000,36.500000,171.800000Z" fill="rgb(254,117,146)" stroke="none" stroke-width="1"/><path id="ed6z9n1ii5b892" d="M44.900000,172.800000L42.700000,172.200000C43,174,43,175.800000,42.900000,177.600000C40.300000,177.700000,37.600000,177.600000,35,177.300000C34.700000,175.600000,34.400000,173.900000,34.200000,172.200000C34.200000,172.200000,33.400000,172,31.900000,173C31.400000,177.400000,31.900000,181.800000,33.300000,185.900000C30.400000,190.100000,27.900000,194.500000,25.700000,199.100000C22.400000,206.200000,16.100000,217.800000,16.100000,217.800000C16.100000,217.800000,22.900000,226.300000,39.700000,225.100000C56.500000,223.900000,57.200000,219,57.200000,219C57.200000,219,50.200000,197.200000,44.700000,186.900000C44.700000,186.900000,46.100000,180.600000,46,178.400000C45.800000,176.600000,45.400000,174.600000,44.900000,172.800000Z" fill="rgb(247,59,54)" stroke="none" stroke-width="1"/><path id="ed6z9n1ii5b893" d="M21.300000,219.900000L24.100000,210.300000C24.100000,210.300000,30.700000,210.300000,32.400000,209.700000C34.100000,209.100000,32.600000,205,32,202.400000C31.400000,199.800000,30.400000,199.600000,30.400000,199.600000C30.400000,197.400000,28.400000,195.500000,28.400000,195.500000L29,192.800000C27.900000,194.700000,26.800000,196.900000,25.700000,199.100000C22.400000,206.200000,16.100000,217.800000,16.100000,217.800000C16.100000,217.800000,19.400000,222,27.100000,224.100000C24.900000,223,23,221.600000,21.300000,219.900000Z" fill="rgb(220,38,32)" stroke="none" stroke-width="1"/><path id="ed6z9n1ii5b894" d="M57.300000,172.800000C58.300000,172.400000,59,169.100000,59.800000,169.200000C60.600000,169.300000,60.200000,171.800000,60.200000,172.800000C60.200000,173.800000,57,175.600000,57,175.600000L56.100000,175.300000C56.300000,175.400000,56.300000,173.200000,57.300000,172.800000Z" fill="rgb(255,177,208)" stroke="none" stroke-width="1"/><path id="ed6z9n1ii5b895" d="M60.400000,165.300000L61.100000,165.700000C61.300000,165.800000,61.400000,166.100000,61.300000,166.300000L57.800000,173C57.700000,173.200000,57.400000,173.300000,57.200000,173.200000L56.500000,172.800000C56.300000,172.700000,56.200000,172.400000,56.300000,172.200000L59.800000,165.500000C59.900000,165.300000,60.200000,165.200000,60.400000,165.300000Z" fill="rgb(42,0,173)" stroke="none" stroke-width="1"/><path id="ed6z9n1ii5b896" d="M28.700000,201.100000L28.700000,201.100000C28.300000,201.100000,28,200.800000,28,200.400000C28,200.400000,28,200.400000,28,200.400000C28.100000,199.300000,27.700000,198.200000,26.900000,197.400000C25.900000,196.500000,24.600000,196.100000,23.300000,196.200000C22.200000,196.200000,21.100000,196.600000,20.300000,197.300000C19.500000,198.100000,19.100000,199.200000,19.200000,200.300000C19.200000,200.700000,18.900000,201,18.500000,201C18.100000,201,17.800000,200.700000,17.800000,200.300000C17.800000,200.300000,17.800000,200.300000,17.800000,200.300000C17.700000,197.300000,19.900000,194.800000,22.900000,194.700000C23,194.700000,23.200000,194.700000,23.300000,194.700000C25,194.600000,26.700000,195.100000,28,196.300000C29,197.400000,29.600000,198.900000,29.500000,200.300000C29.400000,200.800000,29.100000,201.100000,28.700000,201.100000Z" fill="rgb(114,91,246)" stroke="none" stroke-width="1"/><path id="ed6z9n1ii5b897" d="M24.400000,194.100000C24.400000,194.100000,25.800000,194.900000,25.800000,195.700000C25.800000,196.500000,25,198.100000,23.800000,198C22.600000,197.900000,21.400000,197.500000,21.300000,196C21.200000,195.200000,21.300000,194.500000,21.600000,193.700000L24.400000,194.100000Z" fill="rgb(255,177,208)" stroke="none" stroke-width="1"/><path id="ed6z9n1ii5b898" d="M29.500000,200L18,200.300000C17.400000,200.300000,16.800000,200.800000,16.600000,201.400000L15,207.200000C14.800000,208,15.200000,208.800000,16,209C16.100000,209,16.300000,209.100000,16.400000,209.100000L31,208.800000C31.800000,208.800000,32.400000,208.100000,32.400000,207.300000C32.400000,207.200000,32.400000,207.100000,32.400000,207L30.900000,201.100000C30.800000,200.400000,30.200000,200,29.500000,200Z" fill="rgb(72,42,246)" stroke="none" stroke-width="1"/><polygon id="ed6z9n1ii5b899" points="29.700000,200.800000 23.700000,206 17.900000,201.200000 23.700000,207.300000" fill="rgb(37,46,173)" stroke="none" stroke-width="1"/><circle id="ed6z9n1ii5b8100" r="1.500000" transform="matrix(1 0 0 1 23.70000000000000 205.40000000000001)" fill="rgb(255,195,27)" stroke="none" stroke-width="1"/><path id="ed6z9n1ii5b8101" d="M33.300000,185.900000C37.100000,187.800000,43.600000,186.800000,43.600000,186.800000C43.600000,186.800000,43,189.400000,37.800000,189.300000C32.600000,189.200000,33.300000,185.900000,33.300000,185.900000Z" fill="rgb(220,38,32)" stroke="none" stroke-width="1"/><path id="ed6z9n1ii5b8102" d="M40.900000,161.300000C43.200000,161.500000,43.800000,164.800000,43.300000,167C42.800000,169.200000,41.300000,169.800000,39.700000,169.600000C38.100000,169.400000,37.100000,167.500000,37.300000,165.100000C37.500000,162.700000,39,161.100000,40.900000,161.300000Z" fill="rgb(255,177,208)" stroke="none" stroke-width="1"/><path id="ed6z9n1ii5b8103" d="M43.400000,164.600000C43.300000,164.100000,43.200000,163.600000,43.100000,163.200000L40.100000,163.800000L39.300000,169C40.100000,167.800000,40.600000,166.500000,40.900000,165.100000C41.800000,165,42.600000,164.900000,43.400000,164.600000Z" fill="rgb(254,117,146)" stroke="none" stroke-width="1"/><path id="ed6z9n1ii5b8104" d="M35.100000,163.900000C34.300000,165.900000,33.300000,167.800000,32.200000,169.700000C32.200000,169.700000,36.200000,171.700000,38.300000,171.700000C39.600000,169.300000,40.300000,166.700000,40.400000,163.900000L35.100000,163.900000Z" fill="rgb(26,0,109)" stroke="none" stroke-width="1"/><path id="ed6z9n1ii5b8105" d="M48.500000,161.800000C48.600000,163.100000,44,164.300000,40.100000,164.800000C36.200000,165.300000,31.200000,165.700000,30.800000,164.800000C30.400000,163.900000,35.500000,162.300000,35.500000,162.300000C35.500000,162.300000,35.500000,157.400000,39.300000,157C43.100000,156.600000,44.300000,161.200000,44.300000,161.200000C44.300000,161.200000,48.400000,160.800000,48.500000,161.800000Z" fill="rgb(72,42,246)" stroke="none" stroke-width="1"/><path id="ed6z9n1ii5b8106" d="M39.400000,162.600000C39.500000,162.600000,39.600000,162.600000,39.600000,162.600000C39.700000,162.500000,39.600000,162.500000,39.400000,162.600000Z" fill="rgb(37,46,173)" stroke="none" stroke-width="1"/><path id="ed6z9n1ii5b8107" d="M30.700000,164.700000C30.900000,165.200000,32.300000,165.300000,34.200000,165.200000C33.700000,165,33.400000,164.400000,33.600000,163.900000C33.600000,163.900000,33.600000,163.900000,33.600000,163.900000C33.900000,163,38.300000,162.600000,39.300000,162.500000C35.800000,162.800000,35.300000,162.100000,35.300000,162.100000C35.300000,162.100000,30.400000,163.800000,30.700000,164.700000Z" fill="rgb(37,46,173)" stroke="none" stroke-width="1"/></svg>