<svg id="ecw61snz98qi1" xmlns="http://www.w3.org/2000/svg" xmlns:xlink="http://www.w3.org/1999/xlink" viewBox="0 0 300 300" shape-rendering="geometricPrecision" text-rendering="geometricPrecision"><style><![CDATA[#ecw61snz98qi103_to {animation: ecw61snz98qi103_to__to 3000ms linear infinite alternate forwards}@keyframes ecw61snz98qi103_to__to { 0% {transform: translate(53px,1px)} 100% {transform: translate(30px,0px)} }#ecw61snz98qi103_ts {animation: ecw61snz98qi103_ts__ts 3000ms linear infinite alternate forwards}@keyframes ecw61snz98qi103_ts__ts { 0% {transform: scale(1,1)} 100% {transform: scale(1.15,1.15)} }]]></style><defs><linearGradient id="ecw61snz98qi5-fill" x1="115.305900" y1="283.533400" x2="167.402100" y2="26.115600" spreadMethod="pad" gradientUnits="userSpaceOnUse"><stop id="ecw61snz98qi5-fill-0" offset="0%" stop-color="rgb(245,245,245)"/><stop id="ecw61snz98qi5-fill-1" offset="100%" stop-color="rgb(203,212,236)"/></linearGradient><linearGradient id="ecw61snz98qi40-fill" x1="97.458200" y1="88.621500" x2="185.684200" y2="88.621500" spreadMethod="pad" gradientUnits="userSpaceOnUse"><stop id="ecw61snz98qi40-fill-0" offset="32.490000%" stop-color="rgb(119,187,247)"/><stop id="ecw61snz98qi40-fill-1" offset="100%" stop-color="rgb(59,141,235)"/></linearGradient><linearGradient id="ecw61snz98qi57-fill" x1="111.164600" y1="221.156200" x2="171.977800" y2="221.156200" spreadMethod="pad" gradientUnits="userSpaceOnUse"><stop id="ecw61snz98qi57-fill-0" offset="0%" stop-color="rgb(199,255,245)"/><stop id="ecw61snz98qi57-fill-1" offset="32.490000%" stop-color="rgb(119,187,247)"/><stop id="ecw61snz98qi57-fill-2" offset="100%" stop-color="rgb(59,141,235)"/></linearGradient><linearGradient id="ecw61snz98qi104-fill" x1="177.336400" y1="39.453500" x2="214.375500" y2="39.453500" spreadMethod="pad" gradientUnits="userSpaceOnUse"><stop id="ecw61snz98qi104-fill-0" offset="32.490000%" stop-color="rgb(119,187,247)"/><stop id="ecw61snz98qi104-fill-1" offset="100%" stop-color="rgb(59,141,235)"/></linearGradient><linearGradient id="ecw61snz98qi105-fill" x1="180.396600" y1="40.021200" x2="195.856000" y2="40.021200" spreadMethod="pad" gradientUnits="userSpaceOnUse"><stop id="ecw61snz98qi105-fill-0" offset="32.490000%" stop-color="rgb(119,187,247)"/><stop id="ecw61snz98qi105-fill-1" offset="100%" stop-color="rgb(59,141,235)"/></linearGradient><linearGradient id="ecw61snz98qi106-fill" x1="195.856000" y1="40.021200" x2="211.315400" y2="40.021200" spreadMethod="pad" gradientUnits="userSpaceOnUse"><stop id="ecw61snz98qi106-fill-0" offset="32.490000%" stop-color="rgb(119,187,247)"/><stop id="ecw61snz98qi106-fill-1" offset="100%" stop-color="rgb(59,141,235)"/></linearGradient><linearGradient id="ecw61snz98qi107-fill" x1="225.717000" y1="204.077400" x2="255.504900" y2="204.077400" spreadMethod="pad" gradientUnits="userSpaceOnUse"><stop id="ecw61snz98qi107-fill-0" offset="0%" stop-color="rgb(245,245,245)"/><stop id="ecw61snz98qi107-fill-1" offset="100%" stop-color="rgb(203,212,236)"/></linearGradient><linearGradient id="ecw61snz98qi108-fill" x1="231.448800" y1="204.077300" x2="249.773000" y2="204.077300" spreadMethod="pad" gradientUnits="userSpaceOnUse"><stop id="ecw61snz98qi108-fill-0" offset="32.490000%" stop-color="rgb(119,187,247)"/><stop id="ecw61snz98qi108-fill-1" offset="100%" stop-color="rgb(59,141,235)"/></linearGradient></defs><g id="ecw61snz98qi2"><path id="ecw61snz98qi3" d="M93.100000,36.200000L191.800000,36.200000C196.900000,36.200000,201,40.300000,201,45.400000C201,45.400000,201,45.400000,201,45.400000L201,253.100000C201,258.200000,196.900000,262.300000,191.800000,262.300000C191.800000,262.300000,191.800000,262.300000,191.800000,262.300000L93.100000,262.300000C88,262.300000,83.900000,258.200000,83.900000,253.100000L83.900000,253.100000L83.900000,45.400000C83.900000,40.300000,88,36.200000,93.100000,36.200000Z" fill="none" stroke="rgb(35,31,32)" stroke-width="0.213100" stroke-miterlimit="10"/><path id="ecw61snz98qi4" d="M195.900000,51.800000L195.900000,246.700000C195.900000,248.100000,194.700000,249.300000,193.300000,249.300000L91.700000,249.300000C90.300000,249.300000,89.100000,248.100000,89.100000,246.700000L89.100000,51.800000C89.100000,50.400000,90.300000,49.200000,91.700000,49.200000L193.300000,49.200000C194.700000,49.200000,195.900000,50.400000,195.900000,51.800000Z" fill="none" stroke="rgb(35,31,32)" stroke-width="0.213100" stroke-miterlimit="10"/><path id="ecw61snz98qi5" d="M93.100000,36.200000L191.800000,36.200000C196.900000,36.200000,201,40.300000,201,45.400000C201,45.400000,201,45.400000,201,45.400000L201,253.100000C201,258.200000,196.900000,262.300000,191.800000,262.300000C191.800000,262.300000,191.800000,262.300000,191.800000,262.300000L93.100000,262.300000C88,262.300000,83.900000,258.200000,83.900000,253.100000L83.900000,253.100000L83.900000,45.400000C83.900000,40.300000,88,36.200000,93.100000,36.200000Z" fill="url(#ecw61snz98qi5-fill)" stroke="none" stroke-width="1"/><path id="ecw61snz98qi6" d="M195.900000,51.800000L195.900000,246.700000C195.900000,248.100000,194.700000,249.300000,193.300000,249.300000L91.700000,249.300000C90.300000,249.300000,89.100000,248.100000,89.100000,246.700000L89.100000,51.800000C89.100000,50.400000,90.300000,49.200000,91.700000,49.200000L193.300000,49.200000C194.700000,49.200000,195.900000,50.400000,195.900000,51.800000Z" fill="rgb(255,255,255)" stroke="none" stroke-width="1"/><path id="ecw61snz98qi7" d="M89.100000,124.900000L89.100000,246.700000C89.100000,248.100000,90.300000,249.300000,91.700000,249.300000L193.300000,249.300000C194.700000,249.300000,195.900000,248.100000,195.900000,246.700000L195.900000,124.900000L89.100000,124.900000Z" fill="rgb(255,255,255)" stroke="none" stroke-width="1"/><path id="ecw61snz98qi8" d="M144.700000,42.400000C144.700000,44,143.400000,45.300000,141.800000,45.300000C140.200000,45.300000,138.900000,44,138.900000,42.400000C138.900000,40.800000,140.200000,39.500000,141.800000,39.500000C143.400000,39.500000,144.700000,40.800000,144.700000,42.400000C144.700000,42.400000,144.700000,42.400000,144.700000,42.400000Z" fill="none" stroke="rgb(35,31,32)" stroke-width="0.213100" stroke-miterlimit="10"/><path id="ecw61snz98qi9" d="M144.700000,42.400000C144.700000,44,143.400000,45.300000,141.800000,45.300000C140.200000,45.300000,138.900000,44,138.900000,42.400000C138.900000,40.800000,140.200000,39.500000,141.800000,39.500000C143.400000,39.500000,144.700000,40.800000,144.700000,42.400000C144.700000,42.400000,144.700000,42.400000,144.700000,42.400000Z" fill="rgb(255,255,255)" stroke="none" stroke-width="1"/><path id="ecw61snz98qi10" d="M201.100000,45.400000C201.100000,41.300000,198.300000,37.600000,194.400000,36.500000L107.400000,259.700000L146.300000,261.500000L201.100000,88.600000L201.100000,45.400000Z" opacity="0.2" fill="rgb(255,255,255)" stroke="none" stroke-width="1"/><path id="ecw61snz98qi11" d="M174.400000,36.200000L166,36.200000L165.800000,36.500000L83.900000,246.500000L83.900000,253.100000C83.900000,255.900000,85.200000,258.600000,87.400000,260.300000L102.900000,261.500000L174.400000,36.200000Z" opacity="0.2" fill="rgb(255,255,255)" stroke="none" stroke-width="1"/><path id="ecw61snz98qi12" d="M246.600000,259.900000C247.500000,260.200000,248.500000,260.200000,249.400000,259.900000C250,259.700000,250.500000,253.900000,249.800000,253.700000C249.200000,253.500000,247.900000,256.800000,247.700000,257L246.600000,258.200000L246.600000,259.900000Z" fill="rgb(80,24,87)" stroke="none" stroke-width="1"/><path id="ecw61snz98qi13" d="M209.300000,260.800000C215.600000,260.800000,225.300000,259.500000,228.300000,259.700000C231.300000,259.900000,243.400000,260.800000,246.800000,260.100000C247.100000,259.100000,247.100000,258,246.800000,256.900000C246.800000,256.900000,232.300000,252.400000,228.900000,252C225.500000,251.600000,210.400000,253.300000,210.400000,253.300000L209.300000,260.800000Z" fill="rgb(255,148,0)" stroke="none" stroke-width="1"/><path id="ecw61snz98qi14" d="M206.600000,221.900000C206,223.200000,205.300000,223.600000,202.100000,223.600000C198.900000,223.600000,195.900000,225.100000,197.200000,228.700000C198.500000,232.300000,204,230.800000,206.600000,230C209.200000,229.200000,218.100000,229.100000,218.100000,225.500000C218.100000,221.900000,215.300000,222.300000,214.900000,220L206.600000,221.900000Z" fill="rgb(26,0,109)" stroke="none" stroke-width="1"/><path id="ecw61snz98qi15" d="M234.100000,245.500000L234.100000,245.500000C234.400000,245.500000,234.700000,245.300000,234.800000,245L238.300000,236.200000C238.400000,235.900000,238.300000,235.600000,238,235.500000C237.900000,235.500000,237.900000,235.500000,237.800000,235.500000L237.700000,235.500000C237.500000,235.500000,237.300000,235.600000,237.200000,235.800000L233.600000,244.700000C233.500000,245,233.600000,245.300000,233.900000,245.400000C234,245.500000,234,245.500000,234.100000,245.500000Z" fill="rgb(42,0,173)" stroke="none" stroke-width="1"/><path id="ecw61snz98qi16" d="M234.100000,245.500000L223,245.500000C222.600000,245.500000,222.300000,245.200000,222.300000,244.800000C222.300000,244.800000,222.300000,244.800000,222.300000,244.800000L222.300000,244.800000C222.300000,244.400000,222.600000,244.100000,223,244.100000L234.100000,244.100000C234.500000,244.100000,234.800000,244.400000,234.800000,244.800000L234.800000,244.800000C234.800000,245.200000,234.500000,245.500000,234.100000,245.500000C234.100000,245.500000,234.100000,245.500000,234.100000,245.500000Z" fill="rgb(42,0,173)" stroke="none" stroke-width="1"/><path id="ecw61snz98qi17" d="M213,226.800000C216.600000,227.700000,219.600000,232.800000,220.900000,235.700000C222.200000,238.700000,226.600000,239.100000,229,238.700000C229,238.700000,230.100000,240.400000,229.200000,241.700000C229.200000,241.700000,222.200000,245.100000,215.600000,240.800000L213,226.800000Z" fill="rgb(247,59,54)" stroke="none" stroke-width="1"/><path id="ecw61snz98qi18" d="M208.300000,226.400000C205.100000,227.500000,200.900000,229.600000,200.900000,240C200.900000,244.700000,201.300000,248.700000,201.300000,248.700000L217.700000,248.700000C217.700000,248.700000,218.600000,229.600000,213,226.800000L208.300000,226.400000Z" fill="rgb(247,59,54)" stroke="none" stroke-width="1"/><path id="ecw61snz98qi19" d="M217.700000,246.700000C216,247,212.900000,247,208.900000,244.800000C206.400000,243.400000,204.700000,240.900000,204.300000,238.100000C204.300000,238.100000,204.400000,243.100000,207.500000,245.900000C208.300000,246.600000,209.100000,247.200000,210,247.800000L202.900000,248.700000L217.600000,248.700000C217.600000,248.700000,217.700000,248,217.700000,246.700000Z" fill="rgb(178,52,49)" stroke="none" stroke-width="1"/><path id="ecw61snz98qi20" d="M219.100000,240.900000C218.800000,239.300000,216.200000,231.900000,216.200000,231.900000C217,235,217.500000,238.200000,217.600000,241.500000L217.600000,241.900000C219.500000,242.700000,221.600000,243,223.600000,242.900000L225.800000,242.600000C223.400000,242.900000,221.100000,242.300000,219.100000,240.900000Z" fill="rgb(178,52,49)" stroke="none" stroke-width="1"/><path id="ecw61snz98qi21" d="M209.700000,224.100000C209.800000,225.100000,209.200000,226,208.300000,226.300000C208.300000,226.300000,208.100000,230.700000,211.900000,229.900000C214,229.500000,213.200000,227.100000,213,226.700000C212.800000,226.300000,211.700000,226.700000,211.900000,225L209.700000,224.100000Z" fill="rgb(255,177,208)" stroke="none" stroke-width="1"/><path id="ecw61snz98qi22" d="M212.100000,226.300000C211.900000,226.100000,211.800000,225.800000,211.900000,225.100000L209.700000,224.200000C209.700000,224.600000,209.700000,224.900000,209.600000,225.300000L209.600000,225.300000C209.600000,225.200000,210.200000,226.500000,212.100000,226.300000Z" fill="rgb(254,117,146)" stroke="none" stroke-width="1"/><path id="ecw61snz98qi23" d="M205.500000,231.200000C208.600000,228.500000,211.900000,231.800000,213.400000,237.600000C214.900000,243.300000,219.100000,243.300000,219.100000,243.300000C219.100000,243.300000,219.700000,243.700000,219.100000,246.300000C219.100000,246.300000,215.100000,248.200000,208.900000,244.800000C202.700000,241.500000,203.600000,232.900000,205.500000,231.200000Z" fill="rgb(247,59,54)" stroke="none" stroke-width="1"/><path id="ecw61snz98qi24" d="M242.300000,257.400000C243.500000,258.100000,244.800000,258.700000,246.100000,259.100000C247.800000,259.500000,248.700000,259.500000,248.400000,260.200000C248.200000,260.800000,243.500000,260.800000,242.200000,260.800000C240.900000,260.800000,240.500000,259.100000,240.500000,259.100000L242.300000,257.400000Z" fill="rgb(112,34,122)" stroke="none" stroke-width="1"/><path id="ecw61snz98qi25" d="M201.300000,248.700000C200.900000,253.800000,202.200000,261.200000,210.700000,260.800000C219.200000,260.400000,225,255.100000,227.900000,254.800000C230.800000,254.500000,237.500000,259.700000,240.400000,260.100000C241.500000,259.300000,242.300000,258.100000,242.500000,256.700000C242.500000,256.700000,233.100000,244.800000,228.200000,244.800000C223.300000,244.800000,213.700000,248.600000,213.700000,248.600000L201.300000,248.700000Z" fill="rgb(254,171,0)" stroke="none" stroke-width="1"/><path id="ecw61snz98qi26" d="M219.300000,243.600000C219.300000,243.600000,222.700000,242.300000,223.500000,242.900000C224.300000,243.500000,222.800000,246.100000,219.300000,245.900000L219.300000,243.600000Z" fill="rgb(255,177,208)" stroke="none" stroke-width="1"/><path id="ecw61snz98qi27" d="M228.900000,239.100000C228.900000,239.100000,232.100000,237.400000,232.900000,238.500000C233.800000,239.600000,229.200000,241.400000,229.200000,241.400000L228.900000,239.100000Z" fill="rgb(255,177,208)" stroke="none" stroke-width="1"/><path id="ecw61snz98qi28" d="M219.100000,243.400000C219.100000,243.400000,214.800000,243.400000,213.400000,237.700000C213,236.100000,212.400000,234.500000,211.500000,233C211.500000,233,214.900000,238.500000,215.500000,240.100000C216.200000,241.600000,217.300000,243.200000,219.100000,243.400000Z" fill="rgb(178,52,49)" stroke="none" stroke-width="1"/><path id="ecw61snz98qi29" d="M211.400000,217.500000C209.200000,217.700000,208.600000,220.800000,209,223C209.400000,225.200000,210.900000,225.700000,212.500000,225.500000C214.100000,225.400000,215,223.500000,214.800000,221.200000C214.600000,219,213.200000,217.300000,211.400000,217.500000Z" fill="rgb(255,177,208)" stroke="none" stroke-width="1"/><path id="ecw61snz98qi30" d="M206.400000,217.800000C205.100000,218.500000,205.500000,221.800000,206.600000,221.800000C207.700000,221.800000,209.400000,221.200000,211.300000,220.700000C213.200000,220.200000,215.600000,220.700000,215.600000,219.600000C215.600000,218.500000,216,216.200000,215.200000,215.800000C214.200000,215.500000,209.300000,216.100000,206.400000,217.800000Z" fill="rgb(62,75,246)" stroke="none" stroke-width="1"/><path id="ecw61snz98qi31" d="M206.400000,218.300000C206.400000,218.300000,204.700000,214.300000,209,212.800000C213.300000,211.300000,215,216.600000,215,216.600000L206.400000,218.300000Z" fill="rgb(62,75,246)" stroke="none" stroke-width="1"/><path id="ecw61snz98qi32" d="M207.900000,221.600000C207.900000,221.600000,207.900000,221.600000,207.900000,221.600000C207.100000,221.100000,206.600000,219.600000,206.700000,218.600000C206.700000,218,206.900000,217.600000,207.200000,217.400000C207.200000,217.400000,207.200000,217.400000,207.300000,217.400000C207.300000,217.400000,207.300000,217.400000,207.300000,217.400000C207,217.500000,206.900000,217.900000,206.900000,218.500000C206.700000,219.600000,207.200000,221.100000,207.900000,221.600000C208,221.600000,208,221.600000,207.900000,221.600000C208,221.600000,207.900000,221.600000,207.900000,221.600000L207.900000,221.600000Z" fill="rgb(139,163,236)" stroke="none" stroke-width="1"/><path id="ecw61snz98qi33" d="M210.400000,221C210.100000,221,209.800000,220.500000,209.600000,220C209.100000,218.900000,208.800000,216.800000,209.200000,216.500000C209.200000,216.500000,209.200000,216.500000,209.300000,216.500000C209.400000,216.500000,209.300000,216.500000,209.300000,216.600000C209.300000,216.600000,209.300000,216.600000,209.300000,216.600000C209,216.800000,209.200000,218.700000,209.700000,220C210,220.700000,210.200000,221,210.400000,221C210.500000,221,210.500000,221,210.400000,221C210.500000,221,210.500000,221,210.400000,221C210.400000,221,210.400000,221,210.400000,221Z" fill="rgb(139,163,236)" stroke="none" stroke-width="1"/><path id="ecw61snz98qi34" d="M212.200000,220.700000C212.200000,220.700000,212.200000,220.700000,212.200000,220.700000C212.200000,220.700000,212.200000,220.600000,212.200000,220.700000C212.400000,220.600000,212.500000,220.300000,212.600000,219.800000C212.700000,218.500000,212.200000,216.200000,211.500000,216C211.500000,216,211.500000,216,211.500000,216C211.500000,216,211.500000,216,211.500000,216C212.300000,216.200000,212.800000,218.500000,212.600000,219.900000C212.600000,220.400000,212.400000,220.700000,212.200000,220.700000L212.200000,220.700000Z" fill="rgb(139,163,236)" stroke="none" stroke-width="1"/><path id="ecw61snz98qi35" d="M214.500000,220.500000C214.500000,220.500000,214.400000,220.500000,214.500000,220.500000C214.400000,220.500000,214.400000,220.500000,214.500000,220.500000C214.700000,220.200000,214.800000,218.900000,214.500000,217.200000C214.300000,216.400000,214.100000,215.800000,213.900000,215.800000C213.900000,215.800000,213.900000,215.800000,213.900000,215.800000C213.900000,215.800000,213.900000,215.800000,213.900000,215.800000C213.900000,215.800000,213.900000,215.800000,213.900000,215.800000C214.200000,215.900000,214.400000,216.700000,214.500000,217.300000C214.700000,218.400000,214.900000,220.200000,214.500000,220.500000C214.500000,220.500000,214.500000,220.500000,214.500000,220.500000Z" fill="rgb(139,163,236)" stroke="none" stroke-width="1"/><path id="ecw61snz98qi36" d="M213.600000,215.900000C213.600000,215.900000,213.600000,215.800000,213.600000,215.900000C213,214.300000,211.700000,213,210.100000,212.600000C210.100000,212.600000,210.100000,212.600000,210.100000,212.600000C210.100000,212.600000,210.100000,212.600000,210.100000,212.600000C210.100000,212.600000,210.100000,212.600000,210.100000,212.600000C211.800000,212.900000,213.100000,214.200000,213.600000,215.900000C213.700000,215.800000,213.700000,215.900000,213.600000,215.900000C213.700000,215.900000,213.700000,215.900000,213.600000,215.900000L213.600000,215.900000Z" fill="rgb(139,163,236)" stroke="none" stroke-width="1"/><path id="ecw61snz98qi37" d="M209.500000,216.600000C209.500000,216.600000,209.400000,216.600000,209.500000,216.600000C209.400000,216.400000,208.600000,212.800000,209.500000,212.500000C209.500000,212.500000,209.500000,212.500000,209.500000,212.500000C209.500000,212.500000,209.500000,212.500000,209.500000,212.500000C209.500000,212.500000,209.500000,212.500000,209.500000,212.500000C209.200000,212.600000,209.100000,213.300000,209.200000,214.600000C209.300000,215.600000,209.500000,216.600000,209.500000,216.600000C209.500000,216.600000,209.500000,216.600000,209.500000,216.600000L209.500000,216.600000Z" fill="rgb(139,163,236)" stroke="none" stroke-width="1"/><path id="ecw61snz98qi38" d="M207.600000,217.300000C207.600000,217.300000,207.600000,217.300000,207.600000,217.300000C207.200000,216.100000,207.200000,214.800000,207.700000,213.700000C207.800000,213.400000,208,213.200000,208.200000,213.100000C208.200000,213.100000,208.200000,213.100000,208.200000,213.100000C208.200000,213.100000,208.200000,213.100000,208.200000,213.100000C208,213.200000,207.800000,213.400000,207.700000,213.700000C207.300000,214.800000,207.200000,216.100000,207.600000,217.300000C207.600000,217.300000,207.600000,217.300000,207.600000,217.300000L207.600000,217.300000C207.600000,217.300000,207.600000,217.300000,207.600000,217.300000Z" fill="rgb(139,163,236)" stroke="none" stroke-width="1"/><path id="ecw61snz98qi39" d="M206.700000,250.300000L213.700000,248.700000L201.200000,248.700000C201.200000,249.200000,201.100000,249.700000,201.100000,250.300000L206.700000,250.300000Z" fill="rgb(255,148,0)" stroke="none" stroke-width="1"/><path id="ecw61snz98qi40" d="M100.800000,64.100000L182.200000,64.100000C184.100000,64.100000,185.600000,65.600000,185.600000,67.500000L185.600000,109.700000C185.600000,111.600000,184.100000,113.100000,182.200000,113.100000L182.200000,113.100000L100.800000,113.100000C98.900000,113.100000,97.400000,111.600000,97.400000,109.700000C97.400000,109.700000,97.400000,109.700000,97.400000,109.700000L97.400000,67.500000C97.500000,65.600000,99,64.100000,100.800000,64.100000C100.800000,64.100000,100.800000,64.100000,100.800000,64.100000Z" fill="url(#ecw61snz98qi40-fill)" stroke="none" stroke-width="1"/><path id="ecw61snz98qi41" d="M128.500000,73L103.300000,73C102.200000,73,101.300000,72.100000,101.300000,71L101.300000,71L101.300000,71C101.300000,69.900000,102.200000,69,103.300000,69L128.500000,69C129.600000,69,130.500000,69.900000,130.500000,71L130.500000,71L130.500000,71C130.500000,72.100000,129.600000,73,128.500000,73Z" fill="rgb(176,223,255)" stroke="none" stroke-width="1"/><path id="ecw61snz98qi42" d="M150.700000,73L135.600000,73C134.500000,73,133.600000,72.100000,133.600000,71L133.600000,71C133.600000,69.900000,134.500000,69,135.600000,69L135.600000,69L150.700000,69C151.800000,69,152.700000,69.900000,152.700000,71C152.700000,71,152.700000,71,152.700000,71L152.700000,71C152.700000,72.100000,151.800000,73,150.700000,73L150.700000,73Z" fill="rgb(176,223,255)" stroke="none" stroke-width="1"/><rect id="ecw61snz98qi43" width="6.800000" height="4" rx="0" ry="0" transform="matrix(1 0 0 1 109.30000000000000 85.90000000000001)" fill="rgb(254,171,0)" stroke="none" stroke-width="1"/><path id="ecw61snz98qi44" d="M116.900000,80.800000L124.100000,80.800000L124.100000,79.200000C124.100000,77.900000,123,76.800000,121.700000,76.800000L116.800000,76.800000L116.900000,80.800000Z" fill="rgb(254,171,0)" stroke="none" stroke-width="1"/><rect id="ecw61snz98qi45" width="6.800000" height="3.600000" rx="0" ry="0" transform="matrix(1 0 0 1 109.30000000000000 81.50000000000000)" fill="rgb(254,171,0)" stroke="none" stroke-width="1"/><rect id="ecw61snz98qi46" width="6.800000" height="4" rx="0" ry="0" transform="matrix(1 0 0 1 109.30000000000000 76.80000000000000)" fill="rgb(254,171,0)" stroke="none" stroke-width="1"/><path id="ecw61snz98qi47" d="M108.500000,76.800000L103.600000,76.800000C102.300000,76.800000,101.200000,77.900000,101.200000,79.200000L101.200000,80.800000L108.400000,80.800000L108.400000,76.800000Z" fill="rgb(254,171,0)" stroke="none" stroke-width="1"/><path id="ecw61snz98qi48" d="M116.900000,85.900000L116.900000,89.900000L121.800000,89.900000C123.100000,89.900000,124.200000,88.800000,124.200000,87.500000L124.200000,85.900000L116.900000,85.900000Z" fill="rgb(254,171,0)" stroke="none" stroke-width="1"/><path id="ecw61snz98qi49" d="M108.500000,85.900000L101.300000,85.900000L101.300000,87.500000C101.300000,88.800000,102.400000,89.900000,103.700000,89.900000L108.600000,89.900000L108.600000,85.900000Z" fill="rgb(254,171,0)" stroke="none" stroke-width="1"/><rect id="ecw61snz98qi50" width="7.200000" height="3.600000" rx="0" ry="0" transform="matrix(1 0 0 1 116.90000000000001 81.50000000000000)" fill="rgb(254,171,0)" stroke="none" stroke-width="1"/><rect id="ecw61snz98qi51" width="7.200000" height="3.600000" rx="0" ry="0" transform="matrix(1 0 0 1 101.30000000000000 81.50000000000000)" fill="rgb(254,171,0)" stroke="none" stroke-width="1"/><path id="ecw61snz98qi52" d="M102.800000,94.300000L117,94.300000C117.800000,94.300000,118.500000,95,118.500000,95.800000L118.500000,95.800000L118.500000,100.600000C118.500000,101.400000,117.800000,102.100000,117,102.100000L117,102.100000L102.800000,102.100000C102,102.100000,101.300000,101.400000,101.300000,100.600000L101.300000,100.600000L101.300000,95.800000C101.400000,94.900000,102,94.300000,102.800000,94.300000C102.800000,94.300000,102.800000,94.300000,102.800000,94.300000Z" fill="rgb(176,223,255)" stroke="none" stroke-width="1"/><path id="ecw61snz98qi53" d="M123.900000,94.300000L138.100000,94.300000C138.900000,94.300000,139.600000,95,139.600000,95.800000L139.600000,95.800000L139.600000,100.600000C139.600000,101.400000,138.900000,102.100000,138.100000,102.100000L123.900000,102.100000C123.100000,102.100000,122.400000,101.400000,122.400000,100.600000L122.400000,100.600000L122.400000,95.800000C122.400000,94.900000,123.100000,94.300000,123.900000,94.300000Z" fill="rgb(176,223,255)" stroke="none" stroke-width="1"/><path id="ecw61snz98qi54" d="M145,94.300000L159.200000,94.300000C160,94.300000,160.700000,95,160.700000,95.800000L160.700000,95.800000L160.700000,100.600000C160.700000,101.400000,160,102.100000,159.200000,102.100000L159.200000,102.100000L145,102.100000C144.200000,102.100000,143.500000,101.400000,143.500000,100.600000L143.500000,95.800000C143.500000,94.900000,144.200000,94.300000,145,94.300000C145,94.300000,145,94.300000,145,94.300000Z" fill="rgb(176,223,255)" stroke="none" stroke-width="1"/><path id="ecw61snz98qi55" d="M166.100000,94.300000L180.300000,94.300000C181.100000,94.300000,181.800000,95,181.800000,95.800000L181.800000,95.800000L181.800000,100.600000C181.800000,101.400000,181.100000,102.100000,180.300000,102.100000L180.300000,102.100000L166.100000,102.100000C165.300000,102.100000,164.600000,101.400000,164.600000,100.600000L164.600000,95.800000C164.600000,94.900000,165.300000,94.300000,166.100000,94.300000C166.100000,94.300000,166.100000,94.300000,166.100000,94.300000Z" fill="rgb(176,223,255)" stroke="none" stroke-width="1"/><path id="ecw61snz98qi56" d="M129.400000,108.200000L102.500000,108.200000C101.900000,108.200000,101.400000,107.700000,101.400000,107.100000L101.400000,107.100000C101.400000,106.500000,101.900000,106,102.500000,106L129.400000,106C130,106,130.500000,106.500000,130.500000,107.100000L130.500000,107.100000L130.500000,107.100000C130.500000,107.800000,130,108.200000,129.400000,108.200000C129.400000,108.200000,129.400000,108.200000,129.400000,108.200000Z" fill="rgb(176,223,255)" stroke="none" stroke-width="1"/><path id="ecw61snz98qi57" d="M119,213.400000L164.200000,213.400000C168.500000,213.400000,172,216.900000,172,221.200000L172,221.200000C172,225.500000,168.500000,229,164.200000,229L164.200000,229L119,229C114.700000,229,111.200000,225.500000,111.200000,221.200000L111.200000,221.200000C111.200000,216.900000,114.700000,213.400000,119,213.400000L119,213.400000L119,213.400000Z" fill="url(#ecw61snz98qi57-fill)" stroke="none" stroke-width="1"/><path id="ecw61snz98qi58" d="M123.900000,220.200000C123.900000,221.400000,123,222.400000,121.800000,222.400000C121.800000,222.400000,121.700000,222.400000,121.700000,222.400000L120.900000,222.400000L120.900000,224.300000L119.300000,224.300000L119.300000,218L121.800000,218C123,218,124,218.900000,124.100000,220.100000C123.900000,220.100000,123.900000,220.200000,123.900000,220.200000ZM122.300000,220.200000C122.300000,219.900000,122.100000,219.600000,121.700000,219.500000C121.700000,219.500000,121.700000,219.500000,121.700000,219.500000L120.900000,219.500000L120.900000,220.800000L121.700000,220.800000C122,220.900000,122.300000,220.600000,122.300000,220.200000C122.300000,220.200000,122.300000,220.200000,122.300000,220.200000Z" fill="rgb(255,255,255)" stroke="none" stroke-width="1"/><path id="ecw61snz98qi59" d="M128.500000,223.400000L126.400000,223.400000L126.100000,224.300000L124.400000,224.300000L126.500000,218L128.500000,218L130.600000,224.300000L128.900000,224.300000L128.500000,223.400000ZM128,222L127.400000,219.900000L126.800000,222L128,222Z" fill="rgb(255,255,255)" stroke="none" stroke-width="1"/><path id="ecw61snz98qi60" d="M134.300000,221.900000L134.300000,224.300000L132.700000,224.300000L132.700000,221.900000L130.600000,218L132.400000,218L133.500000,220.300000L134.600000,218L136.400000,218L134.300000,221.900000Z" fill="rgb(255,255,255)" stroke="none" stroke-width="1"/><path id="ecw61snz98qi61" d="M145.800000,218L145.800000,224.300000L144.600000,224.300000L142.400000,221.100000L142.400000,224.300000L140.800000,224.300000L140.800000,218L142.100000,218L144.300000,221.200000L144.300000,218L145.800000,218Z" fill="rgb(255,255,255)" stroke="none" stroke-width="1"/><path id="ecw61snz98qi62" d="M147.500000,221.200000C147.500000,219.400000,149,217.900000,150.800000,217.900000C152.600000,217.900000,154.100000,219.400000,154.100000,221.200000C154.100000,223,152.600000,224.500000,150.800000,224.500000C150.800000,224.500000,150.800000,224.500000,150.800000,224.500000C149,224.500000,147.500000,223,147.500000,221.200000C147.500000,221.200000,147.500000,221.200000,147.500000,221.200000ZM152.500000,221.200000C152.500000,220.300000,151.700000,219.500000,150.800000,219.500000C149.900000,219.500000,149.100000,220.300000,149.100000,221.200000C149.100000,222.100000,149.900000,222.900000,150.800000,222.900000C151.700000,222.900000,152.500000,222.200000,152.500000,221.300000C152.500000,221.200000,152.500000,221.200000,152.500000,221.200000Z" fill="rgb(255,255,255)" stroke="none" stroke-width="1"/><path id="ecw61snz98qi63" d="M155,218L156.700000,218L157.700000,222L158.800000,218L160.100000,218L161.200000,222L162.200000,218L163.900000,218L162.100000,224.300000L160.400000,224.300000L159.400000,220.700000L158.400000,224.300000L156.700000,224.300000L155,218Z" fill="rgb(255,255,255)" stroke="none" stroke-width="1"/><path id="ecw61snz98qi64" d="M56.300000,261.200000C56.300000,261.200000,61.900000,263,62.400000,263.600000C62.900000,264.200000,60.300000,264.300000,58.100000,264.100000C55.900000,263.900000,53.400000,264.100000,53,263.800000C52.600000,263.500000,53.200000,261.300000,53.200000,261.300000L56.300000,261.300000Z" fill="rgb(26,0,109)" stroke="none" stroke-width="1"/><path id="ecw61snz98qi65" d="M29.600000,260.700000C29.600000,260.700000,32.500000,265.800000,32.500000,266.500000C32.500000,267.200000,30.500000,265.600000,29,263.900000C27.500000,262.200000,25.500000,260.700000,25.400000,260.200000C25.300000,259.700000,27.200000,258.500000,27.200000,258.500000L29.600000,260.700000Z" fill="rgb(26,0,109)" stroke="none" stroke-width="1"/><path id="ecw61snz98qi66" d="M56.300000,222.300000C56.300000,222.300000,58.800000,252.800000,58.900000,260.900000C56.500000,261.300000,54,261.500000,51.500000,261.500000C51.500000,261.500000,46.800000,239.500000,46.200000,236.200000C46.200000,236.200000,46.200000,247.700000,31.500000,261.500000C29.400000,261.200000,27.500000,260.300000,26,258.800000C26,258.800000,33.700000,245.800000,34.800000,239.500000C35.900000,233.200000,37.600000,223.300000,39.200000,221.200000L56.300000,222.300000Z" fill="rgb(62,75,246)" stroke="none" stroke-width="1"/><path id="ecw61snz98qi67" d="M38.200000,223.600000C38.200000,223.600000,47.300000,227.300000,56.400000,223C56.400000,222.600000,56.300000,222.300000,56.300000,222.300000L39.200000,221.100000C38.800000,221.900000,38.500000,222.700000,38.200000,223.600000L38.200000,223.600000Z" fill="rgb(44,52,172)" stroke="none" stroke-width="1"/><path id="ecw61snz98qi68" d="M46.300000,236.200000C46.300000,236.300000,46.300000,236.500000,46.400000,236.600000L46.300000,236.200000Z" fill="rgb(44,52,172)" stroke="none" stroke-width="1"/><path id="ecw61snz98qi69" d="M46.300000,236.200000C44.600000,234.800000,43.700000,232.800000,43.600000,230.600000C42.800000,233,42.800000,235.600000,43.700000,238C43.700000,238,42.300000,247.500000,38.700000,253.500000C46.200000,243.500000,46.300000,236.200000,46.300000,236.200000Z" fill="rgb(44,52,172)" stroke="none" stroke-width="1"/><path id="ecw61snz98qi70" d="M37.300000,202.900000C34.600000,207.900000,33.200000,213.600000,33.200000,219.300000L36.200000,219.900000C36.200000,219.900000,38.400000,211.400000,40.800000,206.900000L37.300000,202.900000Z" fill="rgb(255,177,208)" stroke="none" stroke-width="1"/><path id="ecw61snz98qi71" d="M40.800000,207L38.600000,204.500000L37.400000,204.100000C37.600000,205.500000,38.100000,206.800000,39,207.800000L38.300000,213.100000C38.900000,211,39.800000,208.900000,40.800000,207Z" fill="rgb(254,117,146)" stroke="none" stroke-width="1"/><path id="ecw61snz98qi72" d="M43.400000,197.200000C41.900000,199.400000,38.700000,208.600000,38.300000,221.500000C38.300000,221.500000,45.600000,224.300000,56.300000,222.300000C56.300000,222.300000,58,208.400000,56.900000,203.200000C55.800000,198,43.400000,197.200000,43.400000,197.200000Z" fill="rgb(255,195,27)" stroke="none" stroke-width="1"/><polygon id="ecw61snz98qi73" points="47.200000,189.500000 46.300000,193.400000 50.400000,194.200000 51,190.500000" fill="rgb(255,177,208)" stroke="none" stroke-width="1"/><path id="ecw61snz98qi74" d="M48,190.500000C48.700000,191.400000,49.600000,192.100000,50.700000,192.400000L51,190.800000L48,190.500000Z" fill="rgb(254,117,146)" stroke="none" stroke-width="1"/><path id="ecw61snz98qi75" d="M53.900000,206.400000C53.900000,206.400000,54.100000,209.700000,59.200000,209.300000C64.300000,208.900000,68.200000,202.700000,67.600000,196.400000L65.300000,195.500000C65.300000,195.500000,62.900000,204.700000,57.700000,202.400000L53.900000,206.400000Z" fill="rgb(255,177,208)" stroke="none" stroke-width="1"/><path id="ecw61snz98qi76" d="M56.700000,208.300000L58.200000,203.400000L56.800000,203.400000L53.900000,206.400000C53.900000,206.400000,54.100000,209.700000,59.200000,209.300000C60.800000,209.200000,62.300000,208.500000,63.500000,207.500000C59.500000,209.600000,56.700000,208.300000,56.700000,208.300000Z" fill="rgb(254,117,146)" stroke="none" stroke-width="1"/><path id="ecw61snz98qi77" d="M33.200000,219.400000C33.200000,219.400000,30.100000,224.800000,32.400000,224.800000C34.700000,224.800000,34.400000,222.400000,35.300000,222.300000C36.200000,222.200000,36,223.700000,36.700000,223.600000C37.400000,223.500000,36.900000,221.100000,36.100000,220L33.200000,219.400000Z" fill="rgb(255,177,208)" stroke="none" stroke-width="1"/><path id="ecw61snz98qi78" d="M65.300000,195.600000C65.200000,194.900000,65.300000,194.200000,65.500000,193.600000C65.800000,192.700000,67.300000,192.200000,68.300000,191C69.300000,189.800000,69.400000,189,69.900000,189.500000C70.400000,190,69.300000,195.100000,67.600000,196.500000L65.300000,195.600000Z" fill="rgb(255,177,208)" stroke="none" stroke-width="1"/><path id="ecw61snz98qi79" d="M68.900000,185.400000L69.700000,185.700000C69.900000,185.800000,70.100000,186.100000,70,186.300000L70,186.300000L66.900000,194.500000C66.800000,194.700000,66.500000,194.900000,66.300000,194.800000L66.300000,194.800000L65.500000,194.500000C65.300000,194.400000,65.100000,194.100000,65.200000,193.900000L68.300000,185.700000C68.400000,185.400000,68.700000,185.300000,68.900000,185.400000L68.900000,185.400000Z" fill="rgb(42,0,173)" stroke="none" stroke-width="1"/><path id="ecw61snz98qi80" d="M36.800000,202.700000C36.800000,202.700000,42.400000,192.600000,48.700000,192.700000C55,192.800000,58.100000,200.700000,59.300000,202.200000C59.300000,202.200000,54.700000,207.800000,54,210C53.900000,210,40.100000,211.600000,36.800000,202.700000Z" fill="rgb(255,195,27)" stroke="none" stroke-width="1"/><path id="ecw61snz98qi81" d="M54.900000,208.300000L54.700000,208.500000L53.900000,210C45.600000,207,46.800000,199.800000,46.800000,199.800000C46.800000,199.800000,43.900000,206.200000,53.900000,211.900000L55.100000,209.900000C55.800000,210.200000,56.500000,210.300000,57.200000,210.200000C57.200000,209.900000,57.200000,209.600000,57.200000,209.300000C56.400000,209.200000,55.600000,208.900000,54.900000,208.300000Z" fill="rgb(255,148,0)" stroke="none" stroke-width="1"/><path id="ecw61snz98qi82" d="M39.200000,206.300000C39.500000,206.600000,39.700000,206.800000,40,207L40,206.700000C40.200000,205.300000,40.400000,204,40.700000,202.600000C40.100000,203.800000,39.500000,205,39.200000,206.300000Z" fill="rgb(255,148,0)" stroke="none" stroke-width="1"/><path id="ecw61snz98qi83" d="M50.800000,182.200000C48.200000,181.900000,46.800000,185.100000,46.800000,187.600000C46.800000,190.100000,48.300000,191,50.200000,191.200000C52.100000,191.400000,53.500000,189.500000,53.800000,187.100000C54.100000,184.700000,53,182.500000,50.800000,182.200000Z" fill="rgb(255,177,208)" stroke="none" stroke-width="1"/><path id="ecw61snz98qi84" d="M46.300000,183.300000C46.300000,183.300000,44.300000,190.300000,47.200000,189.500000C47.900000,189.300000,49.600000,184.100000,49.600000,184.100000C49.600000,184.100000,52.800000,185.400000,55.200000,184.800000C57.600000,184.200000,58.200000,181.700000,56.100000,181.500000C56.100000,181.500000,57.900000,180.400000,56.600000,179.100000C55.300000,177.800000,53.500000,179.100000,53.500000,179.100000C53.500000,179.100000,54.600000,176.700000,52,176.700000C49.400000,176.700000,49.600000,178.900000,49.600000,178.900000C49.600000,178.900000,47.600000,176.900000,46.200000,178.400000C44.800000,179.900000,45.900000,182.700000,46.300000,183.300000Z" fill="rgb(26,0,109)" stroke="none" stroke-width="1"/><path id="ecw61snz98qi85" d="M48.400000,246.500000L48.400000,246.500000C49.900000,253.500000,51.600000,261.400000,51.600000,261.400000C52.500000,261.500000,53.500000,261.500000,54.400000,261.400000L48.400000,246.500000Z" fill="rgb(44,52,172)" stroke="none" stroke-width="1"/><path id="ecw61snz98qi86" d="M121.300000,138.700000L99.700000,138.700000C98.600000,138.700000,97.700000,137.800000,97.700000,136.700000L97.700000,136.700000L97.700000,136.700000C97.700000,135.600000,98.600000,134.700000,99.700000,134.700000C99.700000,134.700000,99.700000,134.700000,99.700000,134.700000L121.300000,134.700000C122.400000,134.700000,123.300000,135.600000,123.300000,136.700000C123.300000,136.700000,123.300000,136.700000,123.300000,136.700000L123.300000,136.700000C123.400000,137.800000,122.400000,138.700000,121.300000,138.700000C121.300000,138.700000,121.300000,138.700000,121.300000,138.700000Z" fill="rgb(224,224,224)" stroke="none" stroke-width="1"/><path id="ecw61snz98qi87" d="M183.600000,138.700000L178,138.700000C176.900000,138.700000,176,137.800000,176,136.700000L176,136.700000C176,135.600000,176.900000,134.700000,178,134.700000L178,134.700000L183.700000,134.700000C184.800000,134.700000,185.700000,135.600000,185.700000,136.700000C185.700000,136.700000,185.700000,136.700000,185.700000,136.700000L185.700000,136.700000C185.700000,137.800000,184.800000,138.700000,183.600000,138.700000Z" fill="rgb(224,224,224)" stroke="none" stroke-width="1"/><path id="ecw61snz98qi88" d="M111.400000,146.700000L99.700000,146.700000C98.600000,146.700000,97.700000,145.800000,97.700000,144.700000L97.700000,144.700000C97.700000,143.600000,98.600000,142.700000,99.700000,142.700000C99.700000,142.700000,99.700000,142.700000,99.700000,142.700000L111.400000,142.700000C112.500000,142.700000,113.400000,143.600000,113.400000,144.700000L113.400000,144.700000C113.500000,145.800000,112.600000,146.700000,111.400000,146.700000C111.400000,146.700000,111.400000,146.700000,111.400000,146.700000Z" fill="rgb(224,224,224)" stroke="none" stroke-width="1"/><path id="ecw61snz98qi89" d="M133.300000,146.700000L118.200000,146.700000C117.100000,146.700000,116.200000,145.800000,116.200000,144.700000L116.200000,144.700000C116.200000,143.600000,117.100000,142.700000,118.200000,142.700000C118.200000,142.700000,118.200000,142.700000,118.200000,142.700000L133.300000,142.700000C134.400000,142.700000,135.300000,143.600000,135.300000,144.700000L135.300000,144.700000C135.300000,145.800000,134.400000,146.700000,133.300000,146.700000Z" fill="rgb(224,224,224)" stroke="none" stroke-width="1"/><path id="ecw61snz98qi90" d="M183.600000,146.700000L178,146.700000C176.900000,146.700000,176,145.800000,176,144.700000L176,144.700000C176,143.600000,176.900000,142.700000,178,142.700000L183.700000,142.700000C184.800000,142.700000,185.700000,143.600000,185.700000,144.700000L185.700000,144.700000L185.700000,144.700000C185.700000,145.800000,184.800000,146.700000,183.600000,146.700000Z" fill="rgb(224,224,224)" stroke="none" stroke-width="1"/><path id="ecw61snz98qi91" d="M117.200000,154.700000L99.700000,154.700000C98.600000,154.700000,97.700000,153.800000,97.700000,152.700000L97.700000,152.700000L97.700000,152.700000C97.700000,151.600000,98.600000,150.700000,99.700000,150.700000C99.700000,150.700000,99.700000,150.700000,99.700000,150.700000L117.200000,150.700000C118.300000,150.700000,119.200000,151.600000,119.200000,152.700000C119.200000,152.700000,119.200000,152.700000,119.200000,152.700000L119.200000,152.700000C119.300000,153.800000,118.400000,154.700000,117.200000,154.700000C117.200000,154.700000,117.200000,154.700000,117.200000,154.700000Z" fill="rgb(224,224,224)" stroke="none" stroke-width="1"/><path id="ecw61snz98qi92" d="M127.900000,154.700000L123.900000,154.700000C122.800000,154.700000,121.900000,153.800000,121.900000,152.700000C121.900000,152.700000,121.900000,152.700000,121.900000,152.700000L121.900000,152.700000C121.900000,151.600000,122.800000,150.700000,123.900000,150.700000C123.900000,150.700000,123.900000,150.700000,123.900000,150.700000L127.900000,150.700000C129,150.700000,129.900000,151.600000,129.900000,152.700000L129.900000,152.700000L129.900000,152.700000C129.900000,153.800000,129,154.700000,127.900000,154.700000Z" fill="rgb(224,224,224)" stroke="none" stroke-width="1"/><path id="ecw61snz98qi93" d="M183.600000,154.700000L178,154.700000C176.900000,154.700000,176,153.800000,176,152.700000L176,152.700000C176,151.600000,176.900000,150.700000,178,150.700000L183.700000,150.700000C184.800000,150.700000,185.700000,151.600000,185.700000,152.700000C185.700000,152.700000,185.700000,152.700000,185.700000,152.700000L185.700000,152.700000C185.700000,153.800000,184.800000,154.700000,183.600000,154.700000Z" fill="rgb(224,224,224)" stroke="none" stroke-width="1"/><path id="ecw61snz98qi94" d="M121.300000,162.800000L99.700000,162.800000C98.600000,162.800000,97.700000,161.900000,97.700000,160.800000L97.700000,160.800000L97.700000,160.800000C97.700000,159.700000,98.600000,158.800000,99.700000,158.800000L121.300000,158.800000C122.400000,158.800000,123.300000,159.700000,123.300000,160.800000L123.300000,160.800000C123.400000,161.900000,122.400000,162.800000,121.300000,162.800000C121.300000,162.800000,121.300000,162.800000,121.300000,162.800000Z" fill="rgb(224,224,224)" stroke="none" stroke-width="1"/><path id="ecw61snz98qi95" d="M183.600000,162.800000L178,162.800000C176.900000,162.800000,176,161.900000,176,160.800000L176,160.800000C176,159.700000,176.900000,158.800000,178,158.800000L183.700000,158.800000C184.800000,158.800000,185.700000,159.700000,185.700000,160.800000L185.700000,160.800000C185.700000,161.900000,184.800000,162.800000,183.600000,162.800000Z" fill="rgb(224,224,224)" stroke="none" stroke-width="1"/><path id="ecw61snz98qi96" d="M111.400000,170.800000L99.700000,170.800000C98.600000,170.800000,97.700000,169.900000,97.700000,168.800000L97.700000,168.800000L97.700000,168.800000C97.700000,167.700000,98.600000,166.800000,99.700000,166.800000C99.700000,166.800000,99.700000,166.800000,99.700000,166.800000L111.400000,166.800000C112.500000,166.800000,113.400000,167.700000,113.400000,168.800000L113.400000,168.800000C113.500000,169.900000,112.600000,170.800000,111.400000,170.800000C111.400000,170.800000,111.400000,170.800000,111.400000,170.800000Z" fill="rgb(224,224,224)" stroke="none" stroke-width="1"/><path id="ecw61snz98qi97" d="M133.300000,170.800000L118.200000,170.800000C117.100000,170.800000,116.200000,169.900000,116.200000,168.800000L116.200000,168.800000L116.200000,168.800000C116.200000,167.700000,117.100000,166.800000,118.200000,166.800000C118.200000,166.800000,118.200000,166.800000,118.200000,166.800000L133.300000,166.800000C134.400000,166.800000,135.300000,167.700000,135.300000,168.800000L135.300000,168.800000C135.300000,169.900000,134.400000,170.800000,133.300000,170.800000Z" fill="rgb(224,224,224)" stroke="none" stroke-width="1"/><path id="ecw61snz98qi98" d="M183.600000,170.800000L178,170.800000C176.900000,170.800000,176,169.900000,176,168.800000L176,168.800000C176,167.700000,176.900000,166.800000,178,166.800000L183.700000,166.800000C184.800000,166.800000,185.700000,167.700000,185.700000,168.800000L185.700000,168.800000L185.700000,168.800000C185.700000,169.900000,184.800000,170.800000,183.600000,170.800000Z" fill="rgb(224,224,224)" stroke="none" stroke-width="1"/><path id="ecw61snz98qi99" d="M117.200000,198L99.700000,198C98.600000,198,97.700000,197.100000,97.700000,196L97.700000,196C97.700000,194.900000,98.600000,194,99.700000,194C99.700000,194,99.700000,194,99.700000,194L117.200000,194C118.300000,194,119.200000,194.900000,119.200000,196L119.200000,196L119.200000,196C119.300000,197.100000,118.400000,198,117.200000,198Z" fill="rgb(224,224,224)" stroke="none" stroke-width="1"/><path id="ecw61snz98qi100" d="M127.900000,198L123.900000,198C122.800000,198,121.900000,197.100000,121.900000,196L121.900000,196L121.900000,196C121.900000,194.900000,122.800000,194,123.900000,194C123.900000,194,123.900000,194,123.900000,194L127.900000,194C129,194,129.900000,194.900000,129.900000,196L129.900000,196C129.900000,197.100000,129,198,127.900000,198Z" fill="rgb(224,224,224)" stroke="none" stroke-width="1"/><path id="ecw61snz98qi101" d="M186.100000,197.200000C186.100000,194.100000,183.600000,193.300000,181.600000,192.500000L181.600000,188.800000C182,188.900000,182.400000,189.100000,182.700000,189.400000C183.200000,189.900000,183.900000,190,184.500000,189.700000L184.500000,189.700000C185.200000,189.300000,185.500000,188.400000,185,187.600000C184.900000,187.500000,184.900000,187.400000,184.800000,187.300000C183.900000,186.400000,182.800000,185.800000,181.500000,185.700000L181.500000,184.700000C181.500000,184.100000,181.100000,183.700000,180.500000,183.700000L180.500000,183.700000C179.900000,183.700000,179.500000,184.100000,179.500000,184.700000L179.500000,185.700000C177.200000,185.900000,175.500000,187.900000,175.600000,190.100000C175.600000,192.900000,177.600000,193.900000,179.500000,194.700000L179.500000,198.600000C179,198.500000,178.500000,198.200000,178.200000,197.800000C177.700000,197.200000,176.900000,197.100000,176.300000,197.500000L176.200000,197.600000C175.500000,198,175.200000,198.900000,175.600000,199.600000C175.600000,199.700000,175.700000,199.700000,175.700000,199.800000C176.700000,200.900000,178,201.600000,179.500000,201.800000L179.500000,202.900000C179.500000,203.500000,179.900000,203.900000,180.500000,203.900000L180.500000,203.900000C181.100000,203.900000,181.500000,203.500000,181.500000,202.900000L181.500000,201.900000C184.200000,201.600000,186.100000,199.900000,186.100000,197.200000ZM178.700000,190.200000C178.700000,189.600000,179,189.100000,179.600000,188.800000L179.600000,191.500000C179.100000,191.300000,178.700000,190.800000,178.700000,190.200000ZM181.600000,198.800000L181.600000,195.600000C182.500000,196,183,196.500000,183,197.200000C183,198.100000,182.400000,198.700000,181.600000,198.800000L181.600000,198.800000Z" fill="rgb(224,224,224)" stroke="none" stroke-width="1"/><rect id="ecw61snz98qi102" width="88" height="1.100000" rx="0" ry="0" transform="matrix(1 0 0 1 97.70000000000000 177.90000000000001)" fill="rgb(224,224,224)" stroke="none" stroke-width="1"/><g id="ecw61snz98qi103_to" transform="translate(53,1)"><g id="ecw61snz98qi103_ts" transform="scale(1,1)"><g id="ecw61snz98qi103" transform="translate(0,0)"><path id="ecw61snz98qi104" d="M194.800000,59.700000C190.400000,58.200000,186.500000,55.500000,183.600000,51.900000C181.300000,48.900000,179.600000,45.400000,178.600000,41.700000C177.500000,37.600000,177.100000,33.400000,177.400000,29.300000L177.700000,26.700000L180.500000,26.700000C183.900000,26.700000,187.200000,25.800000,190.100000,24C191.300000,23.300000,192.400000,22.300000,193.400000,21.300000L195.900000,18.800000L198.400000,21.300000C199.400000,22.400000,200.500000,23.300000,201.700000,24C204.600000,25.800000,207.900000,26.700000,211.300000,26.700000L214.100000,26.700000L214.400000,29.300000C214.700000,33.500000,214.300000,37.700000,213.200000,41.700000C212.300000,45.400000,210.600000,48.800000,208.200000,51.900000C205.300000,55.500000,201.400000,58.300000,197,59.700000L195.900000,60.100000L194.800000,59.700000Z" transform="matrix(1 0 0 1 -52.50000000000001 0)" fill="url(#ecw61snz98qi104-fill)" stroke="none" stroke-width="1"/><path id="ecw61snz98qi105" d="M195.900000,23C195.900000,23,190.800000,29.600000,180.500000,29.600000C180.500000,29.600000,178.400000,51.100000,195.900000,57.100000L195.900000,23Z" transform="matrix(1 0 0 1 -52.50000000000001 0)" fill="url(#ecw61snz98qi105-fill)" stroke="none" stroke-width="1"/><path id="ecw61snz98qi106" d="M195.900000,23C195.900000,23,201,29.600000,211.300000,29.600000C211.300000,29.600000,213.400000,51.100000,195.900000,57.100000L195.900000,23Z" transform="matrix(1 0 0 1 -52.50000000000001 0)" fill="url(#ecw61snz98qi106-fill)" stroke="none" stroke-width="1"/></g></g></g><path id="ecw61snz98qi107" d="M229.900000,189.200000L251.300000,189.200000C253.600000,189.200000,255.500000,191.100000,255.500000,193.400000C255.500000,193.400000,255.500000,193.400000,255.500000,193.400000L255.500000,214.800000C255.500000,217.100000,253.600000,219,251.300000,219L251.300000,219L229.900000,219C227.600000,219,225.700000,217.100000,225.700000,214.800000L225.700000,193.400000C225.700000,191.100000,227.600000,189.200000,229.900000,189.200000Z" opacity="0.2" fill="url(#ecw61snz98qi107-fill)" stroke="none" stroke-width="1"/><path id="ecw61snz98qi108" d="M249.800000,206.200000C249.800000,205.600000,249.500000,205,249,204.700000C249.500000,203.800000,249.200000,202.700000,248.300000,202.200000C248,202,247.700000,202,247.400000,202L241.300000,202L241.300000,197.100000C241.300000,196.100000,240.500000,195.300000,239.500000,195.300000L238.900000,195.300000C238.300000,195.300000,237.700000,195.800000,237.700000,196.400000C237.600000,197.600000,237.200000,198.800000,236.600000,199.800000C236,200.700000,235.500000,201.700000,235.100000,202.700000C235,202.700000,234.800000,202.600000,234.700000,202.600000L232.900000,202.600000C232.200000,202.600000,231.700000,203.100000,231.700000,203.800000L231.700000,211.700000C231.700000,212.400000,232.200000,212.900000,232.900000,212.900000L234.700000,212.900000C235.300000,212.900000,235.800000,212.500000,235.900000,211.900000C236.600000,212.400000,237.500000,212.800000,238.400000,212.900000L246.300000,212.900000C247.300000,212.900000,248.100000,212.100000,248.100000,211.100000C248.100000,210.900000,248.100000,210.600000,248,210.400000C249,210.100000,249.600000,209.100000,249.300000,208.200000C249.300000,208.100000,249.200000,207.900000,249.100000,207.800000C249.500000,207.400000,249.800000,206.800000,249.800000,206.200000ZM234.500000,211.700000L232.700000,211.700000L232.700000,203.800000L234.500000,203.800000L234.500000,211.700000ZM247.300000,209.300000L244.900000,209.300000C244.600000,209.300000,244.300000,209.600000,244.300000,209.900000C244.300000,210.200000,244.600000,210.500000,244.900000,210.500000L246.100000,210.500000C246.400000,210.500000,246.700000,210.800000,246.700000,211.100000C246.700000,211.400000,246.400000,211.700000,246.100000,211.700000L238.200000,211.700000C237.300000,211.500000,236.500000,211.100000,235.800000,210.500000L235.800000,203.900000C236.200000,202.700000,236.800000,201.500000,237.500000,200.500000C238.200000,199.300000,238.700000,197.900000,238.800000,196.500000L239.400000,196.500000C239.700000,196.500000,240,196.800000,240,197.100000L240,202.600000C240,202.900000,240.300000,203.200000,240.600000,203.200000L247.300000,203.200000C247.600000,203.200000,247.900000,203.500000,247.900000,203.800000C247.900000,204.100000,247.600000,204.400000,247.300000,204.400000C247.300000,204.400000,247.300000,204.400000,247.300000,204.400000L244.900000,204.400000C244.600000,204.400000,244.300000,204.700000,244.300000,205C244.300000,205.300000,244.600000,205.600000,244.900000,205.600000L248,205.600000C248.300000,205.600000,248.600000,205.900000,248.600000,206.200000C248.600000,206.500000,248.300000,206.800000,248,206.800000L244.900000,206.800000C244.600000,206.800000,244.300000,207.100000,244.300000,207.400000C244.300000,207.700000,244.600000,208,244.900000,208C244.900000,208,244.900000,208,244.900000,208L247.300000,208C247.600000,208,247.900000,208.300000,247.900000,208.600000C247.900000,209,247.700000,209.300000,247.300000,209.300000L247.300000,209.300000Z" fill="url(#ecw61snz98qi108-fill)" stroke="none" stroke-width="1"/></g></svg>