<?xml version="1.0" encoding="utf-8"?>
<!-- Generator: Adobe Illustrator 24.1.0, SVG Export Plug-In . SVG Version: 6.00 Build 0)  -->
<svg version="1.1" id="Layer_1" xmlns="http://www.w3.org/2000/svg" xmlns:xlink="http://www.w3.org/1999/xlink" x="0px" y="0px"
	 viewBox="0 0 300 300" style="enable-background:new 0 0 300 300;" xml:space="preserve">
<style type="text/css">
	.st0{fill:#FEAB00;}
	.st1{fill:#FF9400;}
	.st2{fill:#FFC31B;}
	.st3{fill:#E0E0E0;}
	.st4{fill:url(#SVGID_1_);}
	.st5{fill:url(#SVGID_2_);}
	.st6{fill:#B0DFFF;}
	.st7{fill:url(#SVGID_3_);}
	.st8{fill:url(#SVGID_4_);}
	.st9{fill:none;stroke:#0D5E9D;stroke-width:1.0324;stroke-miterlimit:10;}
	.st10{fill:#FFFFFF;}
	.st11{fill:#0D5E9D;}
</style>
<g>
	<g>
		<path class="st0" d="M109.9,89.6l10.3,4.8l12.7-7.3c3.1,2.1,5.2,4.6,6.5,7.3c0.3,0.7,0.8,1.2,1.7,1.7c3.3,1.9,9.8,1.3,14.5-1.4
			c2.7-1.5,4.2-3.4,4.3-5.1l-15.6-7.4c-0.5-0.2-1-0.5-1.5-0.7V70.6l10.2,1.1l12.4-3.5l29.8,17.2l25.2,2.6v12l-22.6,13.1
			c-2-1.7-3.4-3.7-4.4-5.7c-0.3-0.7-0.8-1.2-1.7-1.7c-3.3-1.9-9.8-1.3-14.5,1.4c-0.4,0.2-0.8,0.5-1.2,0.8l11.3,0.5v10.7L165,132
			l-21.6-12.5c-0.7,0.8-1.2,1.7-1.7,2.6c-0.3,0.6-0.9,1.2-1.7,1.7c-3.3,1.9-9.8,1.3-14.5-1.4c-2.7-1.6-4.2-3.5-4.3-5.3l0,0v0
			c0-0.1,0-0.1,0-0.2v-8.3l2-0.7l-13.3-7.7V89.6z"/>
		<path class="st1" d="M109.9,88.3l32.8-17.7l10.2,1.1l12.4-3.5l10.3,9.5c0,0-5.8,26.1-10.5,28.8c-0.4,0.2-0.2,25.4-0.2,25.4
			l-21.6-12.5c-0.7,0.8-1.2,1.7-1.7,2.6c-0.3,0.6-0.9,1.2-1.7,1.7c-3.3,1.9-9.8,1.3-14.5-1.4c-2.7-1.6-4.2-3.5-4.3-5.3l0,0v0
			c0-0.1,0-0.1,0-0.2v-10.6l2,1.6l-13.3-7.7V88.3z"/>
		<path class="st2" d="M123.2,102.1c0.8-0.5,1.8-0.8,3-1c1.5-0.2,3-0.5,4.5-0.9l-20.4-11.8l-0.3-0.2l55.4-32l55,31.8l-55.4,32
			l-21.6-12.5c-0.7,0.8-1.2,1.7-1.7,2.6c-0.3,0.6-0.9,1.2-1.7,1.7c-3.3,1.9-9.8,1.3-14.5-1.4C120.9,107.8,119.9,104,123.2,102.1z"/>
	</g>
	<g>
		<path class="st0" d="M184.5,110.4l8.9-2.9c1-2,12.4-0.3,12.4-0.3l0.1,9.3c0.3,1.8-1.2,4-4.2,5.7c-4.5,2.6-10.8,3.2-14,1.4
			c-0.8-0.5-1.3-1-1.6-1.7c-0.4-0.9-1.7-1.8-2.3-2.6l0.8-7.8"/>
		<path class="st2" d="M196.9,101.5c1.4,0.4,2.8,0.7,4.3,0.9c1.1,0.2,2,0.5,2.8,0.9c3.2,1.9,2.2,5.5-2.4,8.1
			c-4.5,2.6-10.8,3.2-14,1.4c-0.8-0.5-1.3-1-1.6-1.7c-0.4-0.9-0.9-1.7-1.4-2.5L196.9,101.5z"/>
	</g>
</g>
<path class="st3" d="M61,142.1l31.7-18.3l8-1.5l16.2,3.3v12.2c-3.3,1.2-6.9,2.2-10.6,2.7c-1.2,0.2-2.3,0.5-3.2,1
	c-3.6,2.1-2.5,6.1,2.5,9c5,2.9,12,3.5,15.5,1.5c0.9-0.5,1.4-1.1,1.8-1.8c1.1-2.2,2.8-4.2,5.1-6l10.4,6l13.4-4.4V158l-13.6,7.9
	l0.1,10.4c0.3,2-1.4,4.4-4.7,6.3c-5,2.9-12,3.6-15.6,1.5c-0.9-0.5-1.5-1.1-1.8-1.8c-0.4-0.9-1-1.9-1.6-2.8l-22.4,12.9l-59.2-34.2
	V146L61,142.1z"/>
<linearGradient id="SVGID_1_" gradientUnits="userSpaceOnUse" x1="33.1317" y1="146.3409" x2="151.8117" y2="146.3409">
	<stop  offset="0" style="stop-color:#F5F5F5"/>
	<stop  offset="1" style="stop-color:#CBD4EC"/>
</linearGradient>
<path class="st4" d="M33.1,146.4l59.5-34.4l24.2,14c-3.3,1.2-6.9,2.2-10.6,2.7c-1.2,0.2-2.3,0.5-3.2,1c-3.6,2.1-2.5,6.1,2.5,9
	c5,2.9,12,3.5,15.5,1.5c0.9-0.5,1.4-1.1,1.8-1.8c1.1-2.2,2.8-4.2,5.1-6l23.9,13.8l-23.4,13.5c1.5,0.4,3.1,0.8,4.8,1
	c1.2,0.2,2.2,0.5,3.1,1c3.6,2.1,2.4,6.1-2.6,9c-5,2.9-12,3.6-15.6,1.5c-0.9-0.5-1.5-1.1-1.8-1.8c-0.4-0.9-1-1.9-1.6-2.8l-22.4,12.9
	L33.1,146.4z"/>
<path class="st3" d="M193,148.2l11.4-5.2c3.4,2.3,5.7,5.1,7.1,8c0.3,0.7,9.2-4.4,10.1-3.9c3.6,2.1,2.5,7.1,7.6,4.2
	c2.9-1.7,4.5-3.7,4.8-5.6l-17.1-8.1c-0.6-0.3-1.1-0.5-1.7-0.8l0-13.1l11.2,2.6l13.6-3.8l32.6,18.8l27.6,2.8v9.6l-34.6,20.3
	l-25.8,15.3l-22.4-13.3l0.7-9.4l1.9-1.4c-3.6-1.2-7.7-1.2-10,0.1c-0.7,0.4-1.2,0.9-1.5,1.5c-0.8,1.6-1.1,3.5-2.8,5.9l-26.2-15.3
	v-13.1L193,148.2z"/>
<g>
	<linearGradient id="SVGID_2_" gradientUnits="userSpaceOnUse" x1="179.2304" y1="144.3032" x2="300" y2="144.3032">
		<stop  offset="0" style="stop-color:#F5F5F5"/>
		<stop  offset="1" style="stop-color:#CBD4EC"/>
	</linearGradient>
	<path class="st5" d="M179.2,144.4l25.2-14.5c3.4,2.3,5.7,5.1,7.1,8c0.3,0.7,0.9,1.4,1.8,1.9c3.6,2.1,10.7,1.4,15.8-1.5
		c5.1-3,6.3-7,2.7-9.1c-0.9-0.5-1.9-0.8-3.1-1c-5.1-0.8-9.7-2.3-13.6-4.3l24.7-14.3l60.2,34.8l-60.6,35l-21.5-12.4l0,0
		c1.5-1.7,8.8-4,9.6-4.4c2-1.1,2.2-3,1-4.8c-1.8-1.4-3.8-2.8-6.2-4.1c-3.6-1.2-7.7-1.2-10,0.1c-0.7,0.4-1.2,0.9-1.5,1.5
		c-0.8,1.7-2.3,3.7-4.1,5.2l-27.1-15.7L179.2,144.4z"/>
</g>
<g>
	<path class="st6" d="M125.1,213.5l5.7-3.3c1.3,1.1,2.3,2.3,3.2,3.6l22,0.7c2.5-2.6,2.6-5.4-0.2-7c-0.9-0.5-1.9-0.8-3.1-1
		c-3.8-0.6-7.2-1.6-10.4-2.9v-10.8l16-3.7l9.8-0.4l15.4,8.9l32.2-4l0,10.8c0.1,1.3-0.6,2.5-2.1,3.4c-0.9,0.5-2,0.9-3.3,1.1
		c-0.6,0.1-1.2,0.2-1.8,0.3l-1.5,1l21.3,2.5l0,10.8l-60.6,35l-60.2-34.8v-10.8L125.1,213.5z"/>
	<linearGradient id="SVGID_3_" gradientUnits="userSpaceOnUse" x1="107.4548" y1="234.3002" x2="167.6913" y2="234.3002">
		<stop  offset="0.3249" style="stop-color:#77BBF7"/>
		<stop  offset="1" style="stop-color:#3B8DEB"/>
	</linearGradient>
	<path class="st7" d="M125.1,213.5l5.7-3.3c1.3,1.1,2.3,2.3,3.2,3.6l22,0.7c2.5-2.6,11.6,30.8,11.6,30.8v13.2l-60.2-34.8v-9.8
		L125.1,213.5z"/>
	<linearGradient id="SVGID_4_" gradientUnits="userSpaceOnUse" x1="107.4548" y1="212.7947" x2="228.306" y2="212.7947">
		<stop  offset="0.3249" style="stop-color:#77BBF7"/>
		<stop  offset="1" style="stop-color:#3B8DEB"/>
	</linearGradient>
	<path class="st8" d="M130.8,199.4c2.1,1.9,3.7,3.9,4.7,6.1c0.3,0.7,0.9,1.4,1.8,1.9c3.6,2.1,10.7,1.4,15.8-1.5c5.1-3,6.3-7,2.7-9.1
		c-0.9-0.5-1.9-0.8-3.1-1c-3.8-0.6-7.2-1.6-10.4-2.9l25.8-14.9l24.4,14.1c0.8-1,0.9-2.4,1.4-3.5c0.3-0.7,1.5-1.5,2.4-2
		c3.7-2.1,9.6-1.6,14.7,1.3c5.1,2.9,6.2,7,2.6,9.1c-0.9,0.5-2,0.9-3.3,1.1c-1.9,0.3-3.7,0.7-5.4,1.1l23.4,13.5l-60.6,35l-60.2-34.8
		L130.8,199.4z"/>
</g>
<g id="ecw61snz98qi103_to_1_" transform="translate(53,1)">
	<g id="ecw61snz98qi103_ts_1_" transform="scale(1,1)">
		<g id="ecw61snz98qi103_1_" transform="translate(0,0)">
			<path id="ecw61snz98qi104_1_" class="st9" d="M45.2,153.7c-2.6,1-5.6,1.4-8.6,1.3c-2.4-0.1-4.8-0.5-7-1.2c-2.4-0.8-4.6-1.8-6.4-3
				l-1.1-0.8l1.2-0.9c1.5-1.1,2.5-2.3,3-3.7c0.2-0.6,0.2-1.2,0.2-1.8l-0.1-1.5l2.3-0.1c1,0,1.9-0.1,2.7-0.3c2.1-0.4,4-1.2,5.5-2.2
				l1.2-0.9l1.4,0.6c2.1,1.1,3.9,2.3,5.3,3.8c1.3,1.3,2.2,2.8,2.6,4.3c0.4,1.9,0,3.9-1.3,5.6l-0.3,0.5L45.2,153.7z"/>
		</g>
	</g>
</g>
<g>
	<path class="st10" d="M174.2,96.5c-7.2,2.9-17.2,1.6-22.2-3s-3.2-10.7,4.1-13.6c7.2-2.9,17.2-1.6,22.2,3S181.5,93.6,174.2,96.5z
		 M157.2,80.9c-6.3,2.6-7.9,7.9-3.6,11.9c4.4,4,13.1,5.2,19.4,2.7s7.9-7.9,3.6-11.9S163.6,78.3,157.2,80.9z"/>
	<path class="st10" d="M175.8,90.4c-0.2,0.1-0.5,0.1-0.7,0.1l-9.7-1.3c-0.3,0-0.5-0.1-0.6-0.3l-5.3-4.9c-0.3-0.3-0.2-0.6,0.3-0.9
		c0.5-0.2,1.1-0.1,1.4,0.2l5,4.6l9.3,1.3c0.6,0.1,1,0.5,0.8,0.7C176.2,90.1,176,90.3,175.8,90.4z"/>
</g>
<g>
	<path class="st10" d="M186.2,208.2c-0.4-0.3-1-0.4-1.8-0.4c0-0.5-0.3-1-0.9-1.3c-0.7-0.4-2.2-0.5-3.3,0c-0.3,0.1-0.6,0.2-0.8,0.4
		l-5.6,3.5c-0.6-0.9-1.4-1.7-2.4-2.4c-1.7-1.1-4.8-0.9-5.8-0.3c-0.6,0.4-1,0.9-1.2,1.3c0,0.1,0,0.2,0.1,0.3l2.7,1.7l2.3,4.7
		l-0.1,0.1l-0.1-0.1c-0.2-0.1-0.6-0.1-0.8,0l-4.5,2.8c-1.3,0.9-1.4,2-0.3,2.7l6.3,4c1.1,0.7,3,0.6,4.2-0.2l2.7-1.7
		c1-0.7,1.3-1.5,0.8-2.2c1.1-0.3,2.1-0.7,2.9-1.2l8.3-5.2c1-0.7,1.3-1.5,0.7-2.2c-0.2-0.3-0.7-0.5-1.3-0.6c0.4-0.6,0.2-1.2-0.5-1.7
		c-0.2-0.2-0.6-0.3-1-0.4C187,209.3,186.9,208.6,186.2,208.2z M185.3,210c-0.2,0.1-0.2,0.3-0.1,0.4c0.1,0.1,0.3,0.2,0.5,0.2
		c0.5,0,0.9,0.1,1.1,0.2c0.5,0.3,0.5,0.8,0,1.2c-0.2,0.1-0.2,0.3-0.1,0.4c0.1,0.1,0.3,0.2,0.5,0.2c0.6,0,1.1,0.1,1.3,0.4
		c0.3,0.4,0.2,0.8-0.4,1.2l-8.3,5.2c-0.8,0.5-1.9,0.9-3.1,1.1c-0.3,0-0.5,0.1-0.6,0.3c-0.1,0.1-0.1,0.3,0.1,0.4
		c0.6,0.4,0.6,1-0.2,1.6l-2.7,1.7c-0.7,0.5-1.9,0.5-2.5,0.1l-6.3-4c-0.6-0.4-0.6-1,0.2-1.6l4.1-2.6l0.4,0.2c0.1,0.1,0.3,0.1,0.5,0.1
		c0.2-0.1,0.4-0.2,0.5-0.3l0.5-0.8c0.1-0.1,0.1-0.2,0-0.2l-2.4-4.9c0,0-0.1-0.1-0.1-0.1l-2.5-1.6c0.1-0.2,0.4-0.5,0.7-0.7
		c0.5-0.3,2.9-0.5,4.2,0.4c1.1,0.8,1.9,1.7,2.5,2.7c0,0.1,0.2,0.2,0.4,0.2c0.2,0,0.4,0,0.5-0.1l6.2-3.9c0.5-0.3,1.4-0.5,2.1-0.4
		c0.2,0,0.3,0.1,0.4,0.2c0.5,0.3,0.7,0.7,0.5,1.1c-0.1,0.1,0,0.3,0.1,0.4c0.1,0.1,0.3,0.1,0.6,0.1c0.6-0.1,1.2-0.1,1.5,0.2
		C185.8,209.1,185.8,209.6,185.3,210z"/>
	<path class="st10" d="M169.1,216.2c-0.3,0.2-0.3,0.4-0.1,0.5l7,4.5c0.2,0.1,0.6,0.1,0.8,0c0.3-0.2,0.3-0.4,0.1-0.5l-7-4.5
		C169.7,216,169.4,216,169.1,216.2z"/>
</g>
<g>
	<path class="st11" d="M266.8,140.6l-9.5,0.3c-0.3,0-0.7,0.1-0.9,0.3c-0.2,0.1-0.3,0.2-0.4,0.4l-5.4,0.2c-0.3,0-0.5,0.2-0.5,0.3
		c-0.1,0.2,0.1,0.3,0.5,0.3l5.3-0.2l-0.2,1.2l-9.8,0.3l0.2-1.2l1.3,0c0.3,0,0.5-0.2,0.5-0.3c0.1-0.2-0.1-0.3-0.5-0.3l-1.3,0l0.3-2.1
		l0.3,0c0.3,0,0.7-0.1,0.9-0.3c0.3-0.2,0.4-0.4,0.4-0.6l0.1-0.8c0-0.2-0.1-0.4-0.3-0.5c-0.2-0.1-0.5-0.2-0.9-0.2l-9.6,0.3
		c-0.3,0-0.7,0.1-0.9,0.3c-0.3,0.2-0.4,0.4-0.4,0.6l-0.1,0.8c0,0.2,0.1,0.4,0.3,0.5c0.2,0.1,0.5,0.2,0.9,0.2l0.3,0l-0.8,6.8l-0.3,0
		c-0.7,0-1.3,0.4-1.3,0.8l-0.1,0.8c0,0.2,0.1,0.4,0.3,0.5c0.2,0.1,0.5,0.2,0.9,0.2l9.6-0.3c0.3,0,0.7-0.1,0.9-0.3
		c0.3-0.2,0.4-0.4,0.4-0.6l0.1-0.8l0,0c0.1-0.4-0.3-0.7-1.2-0.7l-0.3,0l0.3-2.1l9.8-0.3c0,0.1,0.1,0.2,0.3,0.3
		c0.2,0.1,0.5,0.2,0.8,0.2l9.5-0.3c0.3,0,0.7-0.1,0.9-0.3c0.3-0.2,0.4-0.4,0.4-0.6l0.3-2.1c0-0.2-0.1-0.4-0.3-0.5
		C267.5,140.6,267.2,140.5,266.8,140.6z M237,139.1l0.1-0.8c0,0,0-0.1,0.1-0.1c0,0,0.1,0,0.2-0.1l9.6-0.3c0.1,0,0.1,0,0.2,0
		c0,0,0.1,0.1,0.1,0.1l-0.1,0.8c0,0.1-0.1,0.2-0.3,0.2l-9.6,0.3c-0.1,0-0.1,0-0.2,0C237,139.2,237,139.2,237,139.1z M246.1,147.2
		L246,148c0,0.1-0.1,0.2-0.3,0.2l-9.6,0.3c-0.1,0-0.1,0-0.2,0c0,0-0.1-0.1-0.1-0.1l0.1-0.8c0,0,0-0.1,0.1-0.1c0,0,0.1,0,0.2-0.1
		l9.6-0.3C246,147,246.1,147.1,246.1,147.2z M245,144L245,144l-0.3,2.5l-7.1,0.2l0.8-6.8l7.1-0.2l-0.3,2.5l0,0L245,144z
		 M266.9,141.3l-0.3,2.1c0,0,0,0.1-0.1,0.1c0,0-0.1,0-0.2,0l-9.5,0.3c-0.1,0-0.1,0-0.2,0c0,0-0.1-0.1-0.1-0.1l0-0.1l0.2-2
		c0,0,0-0.1,0.1-0.1c0,0,0.1,0,0.2,0l9.5-0.3C266.8,141.2,266.8,141.2,266.9,141.3C266.9,141.2,266.9,141.3,266.9,141.3z"/>
	<path class="st11" d="M257.3,147.4l-0.6,0.4l-1.7-1.1c-0.4-0.2-1.1-0.2-1.5,0l-6.5,4c-0.2,0.2-0.2,0.3-0.1,0.4
		c0.2,0.1,0.5,0.1,0.7,0l6.5-4c0,0,0.1,0,0.1,0l1.7,1.1l-10.1,6.2l-1.7-1.1c0,0,0,0,0-0.1l1.1-0.6c0.2-0.2,0.2-0.3,0.1-0.4
		c-0.2-0.1-0.5-0.1-0.7,0l-1.1,0.6c-0.5,0.3-0.5,0.7-0.1,0.9l1.7,1.1l-0.6,0.4c-0.9,0.7-1,1.4-0.2,1.9l0.9,0.6
		c0.3,0.2,0.8,0.2,1.2,0l14.8-9.1c0.4-0.3,0.4-0.5,0.1-0.7l-0.9-0.6C259.6,146.8,258.2,146.9,257.3,147.4z M260.4,148.3L260.4,148.3
		l-14.5,8.9l-0.8-0.5c-0.4-0.3-0.4-0.7,0.1-1l12.7-7.8c0.5-0.3,1.2-0.3,1.6-0.1L260.4,148.3z"/>
</g>
</svg>
