<svg xmlns="http://www.w3.org/2000/svg" xmlns:xlink="http://www.w3.org/1999/xlink" viewBox="0 0 1032.78 960.7"><defs><style>.cls-1{fill:none;}.cls-2{isolation:isolate;}.cls-3{fill:url(#linear-gradient);}.cls-4{fill:url(#linear-gradient-2);}.cls-5{fill:url(#linear-gradient-3);}.cls-6{fill:url(#linear-gradient-4);}.cls-7{fill:url(#linear-gradient-5);}.cls-8{fill:url(#linear-gradient-6);}.cls-9{fill:url(#linear-gradient-7);}.cls-10{fill:url(#linear-gradient-8);}.cls-11{fill:url(#linear-gradient-9);}.cls-12{fill:url(#linear-gradient-10);}.cls-13{fill:url(#linear-gradient-11);}.cls-14{fill:url(#linear-gradient-12);}.cls-15{fill:url(#linear-gradient-13);}.cls-16{fill:url(#linear-gradient-14);}.cls-17{fill:url(#linear-gradient-15);}.cls-18{opacity:0.3;fill:url(#linear-gradient-16);}.cls-19{fill:url(#linear-gradient-17);}.cls-20{fill:url(#linear-gradient-18);}.cls-21{fill:url(#linear-gradient-19);}.cls-22{fill:url(#linear-gradient-20);}.cls-23{fill:url(#linear-gradient-21);}.cls-24{fill:url(#linear-gradient-22);}.cls-25,.cls-34,.cls-35,.cls-36,.cls-37,.cls-38,.cls-39,.cls-40,.cls-41,.cls-42,.cls-43,.cls-44,.cls-45,.cls-46,.cls-48,.cls-61,.cls-62,.cls-63,.cls-64,.cls-65,.cls-66,.cls-67,.cls-68,.cls-69,.cls-70,.cls-71,.cls-72,.cls-73,.cls-74,.cls-75,.cls-76,.cls-77,.cls-89,.cls-90,.cls-91{mix-blend-mode:screen;}.cls-25{fill:url(#linear-gradient-23);}.cls-26{clip-path:url(#clip-path);}.cls-27{fill:url(#linear-gradient-24);}.cls-28{fill:url(#linear-gradient-25);}.cls-107,.cls-29{fill:#fff;}.cls-30,.cls-33,.cls-46{opacity:0.7;}.cls-30{fill:url(#linear-gradient-26);}.cls-31{fill:url(#linear-gradient-27);}.cls-32{fill:url(#linear-gradient-28);}.cls-33{fill:url(#linear-gradient-29);}.cls-34{fill:url(#linear-gradient-30);}.cls-35{fill:url(#linear-gradient-31);}.cls-36{fill:url(#linear-gradient-32);}.cls-37{fill:url(#linear-gradient-33);}.cls-38{fill:url(#linear-gradient-34);}.cls-39{fill:url(#linear-gradient-35);}.cls-40{fill:url(#linear-gradient-36);}.cls-41{fill:url(#linear-gradient-37);}.cls-42{fill:url(#linear-gradient-38);}.cls-43{fill:url(#linear-gradient-39);}.cls-44{fill:url(#linear-gradient-40);}.cls-45{fill:url(#linear-gradient-41);}.cls-47{fill:url(#linear-gradient-42);}.cls-49{fill:url(#linear-gradient-43);}.cls-50{fill:url(#linear-gradient-44);}.cls-51{fill:url(#linear-gradient-45);}.cls-52{fill:url(#linear-gradient-46);}.cls-53{fill:url(#linear-gradient-47);}.cls-54{fill:url(#linear-gradient-48);}.cls-55{fill:url(#linear-gradient-49);}.cls-56{fill:url(#linear-gradient-50);}.cls-57{fill:url(#linear-gradient-51);}.cls-58{fill:url(#linear-gradient-52);}.cls-59{fill:url(#linear-gradient-53);}.cls-60{fill:url(#linear-gradient-54);}.cls-61{fill:url(#linear-gradient-55);}.cls-62{fill:url(#linear-gradient-56);}.cls-63{fill:url(#linear-gradient-57);}.cls-64{fill:url(#linear-gradient-58);}.cls-65{fill:url(#linear-gradient-59);}.cls-66{fill:url(#linear-gradient-60);}.cls-67{fill:url(#linear-gradient-61);}.cls-68{fill:url(#linear-gradient-62);}.cls-69{fill:url(#linear-gradient-63);}.cls-70{fill:url(#linear-gradient-64);}.cls-71{fill:url(#linear-gradient-65);}.cls-72{fill:url(#linear-gradient-66);}.cls-73{fill:url(#linear-gradient-67);}.cls-74{fill:url(#linear-gradient-68);}.cls-75{fill:url(#linear-gradient-69);}.cls-76{fill:url(#linear-gradient-70);}.cls-77{fill:url(#linear-gradient-71);}.cls-78{fill:url(#linear-gradient-75);}.cls-79{fill:url(#linear-gradient-76);}.cls-80{fill:url(#linear-gradient-77);}.cls-81{fill:url(#linear-gradient-78);}.cls-82{fill:url(#linear-gradient-79);}.cls-83{fill:url(#linear-gradient-80);}.cls-84{fill:url(#linear-gradient-81);}.cls-85{fill:url(#linear-gradient-85);}.cls-86{fill:url(#linear-gradient-86);}.cls-87{fill:url(#linear-gradient-87);}.cls-88{fill:url(#linear-gradient-88);}.cls-89{fill:url(#linear-gradient-90);}.cls-90{fill:url(#linear-gradient-91);}.cls-91{fill:url(#linear-gradient-92);}.cls-92{fill:#ff7900;}.cls-93{fill:#ffbf00;}.cls-94{fill:#f80;}.cls-95{fill:#ff6a00;}.cls-96{fill:url(#linear-gradient-93);}.cls-97{fill:url(#linear-gradient-94);}.cls-98{fill:url(#linear-gradient-95);}.cls-99{fill:url(#linear-gradient-96);}.cls-100{fill:url(#linear-gradient-97);}.cls-101{fill:url(#linear-gradient-98);}.cls-102{fill:url(#linear-gradient-99);}.cls-103{fill:url(#linear-gradient-100);}.cls-104{fill:url(#linear-gradient-101);}.cls-105{fill:url(#linear-gradient-102);}.cls-106,.cls-187{mix-blend-mode:multiply;}.cls-107{opacity:0;}.cls-108{fill:#fcfefe;opacity:0.01;}.cls-109{fill:#f9fdfd;opacity:0.03;}.cls-110{fill:#f6fcfc;opacity:0.04;}.cls-111{fill:#f3fafc;opacity:0.06;}.cls-112{fill:#f0f9fb;opacity:0.07;}.cls-113{fill:#edf8fa;opacity:0.08;}.cls-114{fill:#eaf7f9;opacity:0.1;}.cls-115{fill:#e7f6f8;opacity:0.11;}.cls-116{fill:#e3f5f7;opacity:0.13;}.cls-117{fill:#e0f4f6;opacity:0.14;}.cls-118{fill:#ddf3f6;opacity:0.15;}.cls-119{fill:#daf1f5;opacity:0.17;}.cls-120{fill:#d7f0f4;opacity:0.18;}.cls-121{fill:#d4eff3;opacity:0.2;}.cls-122{fill:#d1eef2;opacity:0.21;}.cls-123{fill:#ceedf1;opacity:0.23;}.cls-124{fill:#cbecf0;opacity:0.24;}.cls-125{fill:#c8ebf0;opacity:0.25;}.cls-126{fill:#c5eaef;opacity:0.27;}.cls-127{fill:#c2e8ee;opacity:0.28;}.cls-128{fill:#bfe7ed;opacity:0.3;}.cls-129{fill:#bce6ec;opacity:0.31;}.cls-130{fill:#b9e5eb;opacity:0.32;}.cls-131{fill:#b6e4ea;opacity:0.34;}.cls-132{fill:#b3e3ea;opacity:0.35;}.cls-133{fill:#b0e2e9;opacity:0.37;}.cls-134{fill:#ace1e8;opacity:0.38;}.cls-135{fill:#a9dfe7;opacity:0.39;}.cls-136{fill:#a6dee6;opacity:0.41;}.cls-137{fill:#a3dde5;opacity:0.42;}.cls-138{fill:#a0dce4;opacity:0.44;}.cls-139{fill:#9ddbe4;opacity:0.45;}.cls-140{fill:#9adae3;opacity:0.46;}.cls-141{fill:#97d9e2;opacity:0.48;}.cls-142{fill:#94d8e1;opacity:0.49;}.cls-143{fill:#91d6e0;opacity:0.51;}.cls-144{fill:#8ed5df;opacity:0.52;}.cls-145{fill:#8bd4de;opacity:0.54;}.cls-146{fill:#88d3dd;opacity:0.55;}.cls-147{fill:#85d2dd;opacity:0.56;}.cls-148{fill:#82d1dc;opacity:0.58;}.cls-149{fill:#7fd0db;opacity:0.59;}.cls-150{fill:#7ccfda;opacity:0.61;}.cls-151{fill:#79cdd9;opacity:0.62;}.cls-152{fill:#75ccd8;opacity:0.63;}.cls-153{fill:#72cbd7;opacity:0.65;}.cls-154{fill:#6fcad7;opacity:0.66;}.cls-155{fill:#6cc9d6;opacity:0.68;}.cls-156{fill:#69c8d5;opacity:0.69;}.cls-157{fill:#66c7d4;opacity:0.7;}.cls-158{fill:#63c6d3;opacity:0.72;}.cls-159{fill:#60c4d2;opacity:0.73;}.cls-160{fill:#5dc3d1;opacity:0.75;}.cls-161{fill:#5ac2d1;opacity:0.76;}.cls-162{fill:#57c1d0;opacity:0.77;}.cls-163{fill:#54c0cf;opacity:0.79;}.cls-164{fill:#51bfce;opacity:0.8;}.cls-165{fill:#4ebecd;opacity:0.82;}.cls-166{fill:#4bbdcc;opacity:0.83;}.cls-167{fill:#48bbcb;opacity:0.85;}.cls-168{fill:#45bacb;opacity:0.86;}.cls-169{fill:#42b9ca;opacity:0.87;}.cls-170{fill:#3eb8c9;opacity:0.89;}.cls-171{fill:#3bb7c8;opacity:0.9;}.cls-172{fill:#38b6c7;opacity:0.92;}.cls-173{fill:#35b5c6;opacity:0.93;}.cls-174{fill:#32b4c5;opacity:0.94;}.cls-175{fill:#2fb2c5;opacity:0.96;}.cls-176{fill:#2cb1c4;opacity:0.97;}.cls-177{fill:#29b0c3;opacity:0.99;}.cls-178{fill:#26afc2;}.cls-179{fill:#ffd34f;}.cls-180{fill:url(#linear-gradient-103);}.cls-181{fill:url(#linear-gradient-104);}.cls-182{fill:url(#linear-gradient-105);}.cls-183{fill:url(#linear-gradient-106);}.cls-184{fill:url(#linear-gradient-107);}.cls-185{fill:url(#linear-gradient-108);}.cls-186{fill:url(#linear-gradient-109);}.cls-187{fill:#dbfbff;}.cls-188{fill:#290533;}.cls-189{fill:#19031f;}.cls-190{fill:#6d4778;}.cls-191{fill:#e0e0e0;}.cls-192{fill:url(#linear-gradient-110);}.cls-193{fill:url(#linear-gradient-111);}</style><linearGradient id="linear-gradient" x1="1174.34" y1="-757.17" x2="1318.14" y2="-757.17" gradientTransform="translate(773.57 -850.77) rotate(117.26)" gradientUnits="userSpaceOnUse"><stop offset="0" stop-color="#00e5f7"/><stop offset="0.64" stop-color="#00cdeb"/><stop offset="1" stop-color="#00bde3"/></linearGradient><linearGradient id="linear-gradient-2" x1="1394.05" y1="-828.26" x2="1431.27" y2="-828.26" gradientTransform="matrix(-0.41, 0.91, -0.91, -0.41, 669.47, -911.55)" xlink:href="#linear-gradient"/><linearGradient id="linear-gradient-3" x1="2179.92" y1="312.86" x2="2210.49" y2="312.86" gradientTransform="translate(-676.72 2057.95) rotate(-69.92)" xlink:href="#linear-gradient"/><linearGradient id="linear-gradient-4" x1="968.25" y1="-297.89" x2="991.93" y2="-297.89" gradientTransform="translate(168.99 -222.86) rotate(91.01)" xlink:href="#linear-gradient"/><linearGradient id="linear-gradient-5" x1="2829.77" y1="799.61" x2="2848.92" y2="799.61" gradientTransform="translate(-2358.78)" xlink:href="#linear-gradient"/><linearGradient id="linear-gradient-6" x1="1935.86" y1="1359.21" x2="1952.08" y2="1359.21" gradientTransform="translate(-858.84 2733.63) rotate(-89.11)" xlink:href="#linear-gradient"/><linearGradient id="linear-gradient-7" x1="3063.49" y1="146.82" x2="3081.89" y2="146.82" gradientTransform="translate(-2358.78)" xlink:href="#linear-gradient"/><linearGradient id="linear-gradient-8" x1="3060.83" y1="829.61" x2="3084.56" y2="829.61" gradientTransform="translate(-2358.78)" gradientUnits="userSpaceOnUse"><stop offset="0" stop-color="#cffaff"/><stop offset="0.54" stop-color="#b7f7ff"/><stop offset="1" stop-color="#9ef3ff"/></linearGradient><linearGradient id="linear-gradient-9" x1="3228.11" y1="376.17" x2="3241.15" y2="376.17" xlink:href="#linear-gradient-8"/><linearGradient id="linear-gradient-10" x1="2343.9" y1="706.72" x2="2366.19" y2="706.72" gradientTransform="matrix(0.55, -0.83, 0.83, 0.55, -1653.84, 1754.38)" xlink:href="#linear-gradient-8"/><linearGradient id="linear-gradient-11" x1="2392.86" y1="716.06" x2="2406.65" y2="716.06" gradientTransform="matrix(0.55, -0.83, 0.83, 0.55, -1653.84, 1754.38)" xlink:href="#linear-gradient-8"/><linearGradient id="linear-gradient-12" x1="2382.67" y1="832.93" x2="2424.14" y2="832.93" gradientTransform="translate(-1133.17 1981.95) rotate(-65.47)" xlink:href="#linear-gradient"/><linearGradient id="linear-gradient-13" x1="971.37" y1="26.72" x2="1060.95" y2="26.72" gradientTransform="translate(1448.25 207.64) rotate(142.85)" xlink:href="#linear-gradient"/><linearGradient id="linear-gradient-14" x1="-1211.07" y1="710.94" x2="-1239.85" y2="667.34" gradientTransform="matrix(0.57, 0.82, 0.82, -0.57, 973.52, 1642.85)" xlink:href="#linear-gradient-8"/><linearGradient id="linear-gradient-15" x1="-2197.27" y1="801.55" x2="-2217.48" y2="770.95" gradientTransform="matrix(-1, 0, 0, 1, -1364.82, 0)" xlink:href="#linear-gradient-8"/><linearGradient id="linear-gradient-16" x1="-2165.17" y1="712.53" x2="-1718.8" y2="158.11" gradientTransform="matrix(-1, 0, 0, 1, -1364.82, 0)" xlink:href="#linear-gradient-8"/><linearGradient id="linear-gradient-17" x1="-1500.45" y1="420.19" x2="-1417.39" y2="420.19" gradientTransform="translate(2268.56)" gradientUnits="userSpaceOnUse"><stop offset="0" stop-color="#2a4973"/><stop offset="0.49" stop-color="#263067"/><stop offset="1" stop-color="#221257"/></linearGradient><linearGradient id="linear-gradient-18" x1="-1486.68" y1="327.23" x2="-1441.83" y2="513.84" gradientTransform="translate(2268.56)" gradientUnits="userSpaceOnUse"><stop offset="0" stop-color="#376096"/><stop offset="0.6" stop-color="#344883"/><stop offset="1" stop-color="#313575"/></linearGradient><linearGradient id="linear-gradient-19" x1="-1440.2" y1="499.29" x2="-1485.98" y2="332.72" gradientTransform="translate(2268.56)" gradientUnits="userSpaceOnUse"><stop offset="0" stop-color="#77e6f7"/><stop offset="0.27" stop-color="#5edcf2"/><stop offset="0.83" stop-color="#20c3e4"/><stop offset="1" stop-color="#0bbbe0"/></linearGradient><linearGradient id="linear-gradient-20" x1="-430.45" y1="201.04" x2="-268.04" y2="201.04" gradientTransform="translate(975.53)" xlink:href="#linear-gradient-17"/><linearGradient id="linear-gradient-21" x1="-432.94" y1="202.87" x2="-273.5" y2="202.87" gradientTransform="translate(975.53)" xlink:href="#linear-gradient-18"/><linearGradient id="linear-gradient-22" x1="-324.02" y1="290.38" x2="-386.27" y2="101.34" gradientTransform="translate(975.53)" xlink:href="#linear-gradient-19"/><linearGradient id="linear-gradient-23" x1="-1981.37" y1="175.03" x2="-1992.12" y2="142.39" gradientTransform="matrix(-1, 0, 0, 1, -1364.82, 0)" xlink:href="#linear-gradient-19"/><clipPath id="clip-path"><path class="cls-1" d="M246.53,233.73C303.4,93,471.38,91.35,600.93,132.79c150.39,48.1,269,192,270.24,391.06C872.28,710.44,772.88,795,671.95,807.19,557.66,821,419.38,763.66,381.41,615.51,340.25,454.88,192.55,367.32,246.53,233.73Z"/></clipPath><linearGradient id="linear-gradient-24" x1="-2192.63" y1="745.86" x2="-1679.23" y2="108.19" gradientTransform="matrix(-1, 0, 0, 1, -1364.82, 0)" xlink:href="#linear-gradient-8"/><linearGradient id="linear-gradient-25" x1="-1736.7" y1="629.42" x2="-1774.88" y2="582" gradientTransform="matrix(-1, 0, 0, 1, -1364.82, 0)" xlink:href="#linear-gradient-8"/><linearGradient id="linear-gradient-26" x1="-1611.02" y1="269.59" x2="-1642.27" y2="230.78" gradientTransform="matrix(-1, 0, 0, 1, -1364.82, 0)" gradientUnits="userSpaceOnUse"><stop offset="0" stop-color="#cffaff"/><stop offset="0.55" stop-color="#e7fdff"/><stop offset="1" stop-color="#fff"/></linearGradient><linearGradient id="linear-gradient-27" x1="-1875.83" y1="742.32" x2="-1904.85" y2="706.27" gradientTransform="matrix(-1, 0, 0, 1, -1364.82, 0)" xlink:href="#linear-gradient-8"/><linearGradient id="linear-gradient-28" x1="-2088.11" y1="378.57" x2="-2122.08" y2="336.38" gradientTransform="matrix(-1, 0, 0, 1, -1364.82, 0)" xlink:href="#linear-gradient-8"/><linearGradient id="linear-gradient-29" x1="-2099.03" y1="643.1" x2="-2139.81" y2="592.45" xlink:href="#linear-gradient-26"/><linearGradient id="linear-gradient-30" x1="387.44" y1="767.59" x2="384.45" y2="616.86" gradientTransform="translate(309.52)" gradientUnits="userSpaceOnUse"><stop offset="0" stop-color="#4ab8f7"/><stop offset="0.33" stop-color="#389ff0"/><stop offset="1" stop-color="#0b64e0"/></linearGradient><linearGradient id="linear-gradient-31" x1="397.85" y1="764.12" x2="394.85" y2="613.39" xlink:href="#linear-gradient-30"/><linearGradient id="linear-gradient-32" x1="372.73" y1="669.24" x2="371.01" y2="582.84" gradientTransform="translate(309.52)" gradientUnits="userSpaceOnUse"><stop offset="0" stop-color="#94d3f7"/><stop offset="0.21" stop-color="#7bbff3"/><stop offset="0.67" stop-color="#3d8ce8"/><stop offset="1" stop-color="#0b64e0"/></linearGradient><linearGradient id="linear-gradient-33" x1="292.32" y1="636.88" x2="291.12" y2="576.71" gradientTransform="translate(309.52)" gradientUnits="userSpaceOnUse"><stop offset="0" stop-color="#518de0"/><stop offset="0.13" stop-color="#6099e3"/><stop offset="0.72" stop-color="#9eccf1"/><stop offset="1" stop-color="#b7e0f7"/></linearGradient><linearGradient id="linear-gradient-34" x1="352.74" y1="774.09" x2="351.46" y2="709.51" gradientTransform="translate(309.52)" gradientUnits="userSpaceOnUse"><stop offset="0" stop-color="#9cd6f7"/><stop offset="0.2" stop-color="#83c3f3"/><stop offset="0.63" stop-color="#4591e9"/><stop offset="1" stop-color="#0b64e0"/></linearGradient><linearGradient id="linear-gradient-35" x1="-2888.75" y1="543.65" x2="-2892.84" y2="337.88" gradientTransform="translate(3521.31)" xlink:href="#linear-gradient-30"/><linearGradient id="linear-gradient-36" x1="-2908.71" y1="404.82" x2="-2909.91" y2="344.51" gradientTransform="translate(3521.31)" xlink:href="#linear-gradient-32"/><linearGradient id="linear-gradient-37" x1="-2899.31" y1="439.82" x2="-2900.37" y2="386.14" gradientTransform="translate(3521.31)" xlink:href="#linear-gradient-32"/><linearGradient id="linear-gradient-38" x1="-2904.68" y1="469.96" x2="-2905.82" y2="412.42" gradientTransform="translate(3521.31)" xlink:href="#linear-gradient-32"/><linearGradient id="linear-gradient-39" x1="-2899.31" y1="503.79" x2="-2900.37" y2="450.32" gradientTransform="translate(3521.31)" xlink:href="#linear-gradient-32"/><linearGradient id="linear-gradient-40" x1="-2908.71" y1="532.56" x2="-2909.91" y2="472.26" gradientTransform="translate(3521.31)" xlink:href="#linear-gradient-32"/><linearGradient id="linear-gradient-41" x1="-2797.7" y1="526.17" x2="-2799.45" y2="438.02" gradientTransform="translate(3521.31)" xlink:href="#linear-gradient-34"/><linearGradient id="linear-gradient-42" x1="1999.89" y1="654.48" x2="2210.42" y2="654.48" gradientTransform="translate(-1662.19)" xlink:href="#linear-gradient-19"/><linearGradient id="linear-gradient-43" x1="1921.74" y1="384.05" x2="2079.02" y2="384.05" gradientTransform="translate(-1662.19)" xlink:href="#linear-gradient-19"/><linearGradient id="linear-gradient-44" x1="1921.74" y1="425.27" x2="2079.02" y2="425.27" gradientTransform="translate(-1662.19)" xlink:href="#linear-gradient-19"/><linearGradient id="linear-gradient-45" x1="1921.73" y1="449.47" x2="2079.01" y2="449.47" gradientTransform="translate(-1662.19)" xlink:href="#linear-gradient-19"/><linearGradient id="linear-gradient-46" x1="1921.73" y1="491.94" x2="2079.01" y2="491.94" gradientTransform="translate(-1662.19)" xlink:href="#linear-gradient-19"/><linearGradient id="linear-gradient-47" x1="2202" y1="737.3" x2="2301.8" y2="737.3" gradientTransform="translate(-1662.19)" xlink:href="#linear-gradient-19"/><linearGradient id="linear-gradient-48" x1="2202" y1="763.46" x2="2301.8" y2="763.46" gradientTransform="translate(-1662.19)" xlink:href="#linear-gradient-19"/><linearGradient id="linear-gradient-49" x1="2202" y1="778.81" x2="2301.8" y2="778.81" gradientTransform="translate(-1662.19)" xlink:href="#linear-gradient-19"/><linearGradient id="linear-gradient-50" x1="2201.99" y1="805.76" x2="2301.8" y2="805.76" gradientTransform="translate(-1662.19)" xlink:href="#linear-gradient-19"/><linearGradient id="linear-gradient-51" x1="2072.09" y1="563.48" x2="2171.9" y2="563.48" gradientTransform="translate(-1662.19)" xlink:href="#linear-gradient-19"/><linearGradient id="linear-gradient-52" x1="2072.09" y1="589.64" x2="2171.89" y2="589.64" gradientTransform="translate(-1662.19)" xlink:href="#linear-gradient-19"/><linearGradient id="linear-gradient-53" x1="2072.09" y1="604.99" x2="2171.89" y2="604.99" gradientTransform="translate(-1662.19)" xlink:href="#linear-gradient-19"/><linearGradient id="linear-gradient-54" x1="2072.09" y1="631.94" x2="2171.89" y2="631.94" gradientTransform="translate(-1662.19)" xlink:href="#linear-gradient-19"/><linearGradient id="linear-gradient-55" x1="773.37" y1="208.19" x2="772.85" y2="298.72" gradientTransform="matrix(-1, 0, 0, 1, 1099.38, 0)" xlink:href="#linear-gradient-19"/><linearGradient id="linear-gradient-56" x1="751.52" y1="216.81" x2="751.36" y2="244.58" gradientTransform="matrix(-1, 0, 0, 1, 1099.38, 0)" xlink:href="#linear-gradient-19"/><linearGradient id="linear-gradient-57" x1="767.3" y1="233.71" x2="767.06" y2="276.02" gradientTransform="matrix(-1, 0, 0, 1, 1099.38, 0)" xlink:href="#linear-gradient-19"/><linearGradient id="linear-gradient-58" x1="756.15" y1="249.46" x2="755.97" y2="281.38" gradientTransform="matrix(-1, 0, 0, 1, 1099.38, 0)" xlink:href="#linear-gradient-19"/><linearGradient id="linear-gradient-59" x1="773.45" y1="10.09" x2="772.8" y2="123.16" gradientTransform="matrix(-1, 0, 0, 1, 1099.38, 0)" xlink:href="#linear-gradient-19"/><linearGradient id="linear-gradient-60" x1="751.52" y1="18.65" x2="751.36" y2="46.41" gradientTransform="matrix(-1, 0, 0, 1, 1099.38, 0)" xlink:href="#linear-gradient-19"/><linearGradient id="linear-gradient-61" x1="767.3" y1="35.54" x2="767.06" y2="77.85" gradientTransform="matrix(-1, 0, 0, 1, 1099.38, 0)" xlink:href="#linear-gradient-19"/><linearGradient id="linear-gradient-62" x1="756.15" y1="51.29" x2="755.97" y2="83.22" gradientTransform="matrix(-1, 0, 0, 1, 1099.38, 0)" xlink:href="#linear-gradient-19"/><linearGradient id="linear-gradient-63" x1="756.15" y1="67.52" x2="755.97" y2="99.44" gradientTransform="matrix(-1, 0, 0, 1, 1099.38, 0)" xlink:href="#linear-gradient-19"/><linearGradient id="linear-gradient-64" x1="2487.76" y1="291.82" x2="2487.24" y2="382.35" gradientTransform="translate(-2081.8)" xlink:href="#linear-gradient-19"/><linearGradient id="linear-gradient-65" x1="2500.25" y1="122.22" x2="2499.64" y2="227.74" gradientTransform="translate(-2081.8)" xlink:href="#linear-gradient-19"/><linearGradient id="linear-gradient-66" x1="2509.28" y1="144.4" x2="2508.99" y2="194.39" gradientTransform="translate(-2081.8)" xlink:href="#linear-gradient-19"/><linearGradient id="linear-gradient-67" x1="2520.25" y1="171.05" x2="2520.02" y2="210.91" gradientTransform="translate(-2081.8)" xlink:href="#linear-gradient-19"/><linearGradient id="linear-gradient-68" x1="2515.76" y1="180.18" x2="2515.51" y2="224.27" gradientTransform="translate(-2081.8)" xlink:href="#linear-gradient-19"/><linearGradient id="linear-gradient-69" x1="2498.47" y1="318.94" x2="2498.27" y2="353.05" gradientTransform="translate(-2081.8)" xlink:href="#linear-gradient-19"/><linearGradient id="linear-gradient-70" x1="2492.31" y1="326.23" x2="2492.08" y2="366.08" gradientTransform="translate(-2081.8)" xlink:href="#linear-gradient-19"/><linearGradient id="linear-gradient-71" x1="2487.83" y1="335.36" x2="2487.57" y2="379.45" gradientTransform="translate(-2081.8)" xlink:href="#linear-gradient-19"/><linearGradient id="linear-gradient-75" x1="-1463.64" y1="440.64" x2="-1463.86" y2="477.84" xlink:href="#linear-gradient-19"/><linearGradient id="linear-gradient-76" x1="-1462.74" y1="506.54" x2="-1465.48" y2="482.93" xlink:href="#linear-gradient-19"/><linearGradient id="linear-gradient-77" x1="-1487.96" y1="360.81" x2="-1439.56" y2="360.81" xlink:href="#linear-gradient-19"/><linearGradient id="linear-gradient-78" x1="-1487.96" y1="370.28" x2="-1439.56" y2="370.28" xlink:href="#linear-gradient-19"/><linearGradient id="linear-gradient-79" x1="-1489.35" y1="404.43" x2="-1438.18" y2="404.43" xlink:href="#linear-gradient-18"/><linearGradient id="linear-gradient-80" x1="-1463.49" y1="418.21" x2="-1464.26" y2="379.4" gradientTransform="translate(2268.56)" xlink:href="#linear-gradient-30"/><linearGradient id="linear-gradient-81" x1="-1488.16" y1="416.68" x2="-1439.37" y2="416.68" xlink:href="#linear-gradient-19"/><linearGradient id="linear-gradient-85" x1="-529.36" y1="318.31" x2="-278.05" y2="318.31" gradientTransform="translate(975.53)" xlink:href="#linear-gradient-17"/><linearGradient id="linear-gradient-86" x1="-529.36" y1="309.05" x2="-278.09" y2="309.05" gradientTransform="translate(975.53)" xlink:href="#linear-gradient-18"/><linearGradient id="linear-gradient-87" x1="-471.15" y1="299.1" x2="-299.7" y2="299.1" gradientTransform="translate(975.53)" xlink:href="#linear-gradient-19"/><linearGradient id="linear-gradient-88" x1="-454.47" y1="320.27" x2="-389.69" y2="320.27" gradientTransform="translate(975.53)" xlink:href="#linear-gradient-19"/><linearGradient id="linear-gradient-90" x1="-1981.32" y1="191.58" x2="-1992.07" y2="158.93" gradientTransform="matrix(-1, 0, 0, 1, -1364.82, 0)" xlink:href="#linear-gradient-19"/><linearGradient id="linear-gradient-91" x1="-1989.92" y1="244.09" x2="-2000.67" y2="211.45" gradientTransform="matrix(-1, 0, 0, 1, -1364.82, 0)" xlink:href="#linear-gradient-19"/><linearGradient id="linear-gradient-92" x1="-1984.87" y1="258.99" x2="-1995.62" y2="226.34" gradientTransform="matrix(-1, 0, 0, 1, -1364.82, 0)" xlink:href="#linear-gradient-19"/><linearGradient id="linear-gradient-93" x1="554.99" y1="843.26" x2="664.99" y2="843.26" gradientTransform="matrix(1, 0, 0, 1, 0, 0)" xlink:href="#linear-gradient-17"/><linearGradient id="linear-gradient-94" x1="554.99" y1="836.68" x2="664.97" y2="836.68" gradientTransform="matrix(1, 0, 0, 1, 0, 0)" xlink:href="#linear-gradient-18"/><linearGradient id="linear-gradient-95" x1="2983.55" y1="816.85" x2="3036.61" y2="816.85" gradientTransform="translate(-2399.01)" xlink:href="#linear-gradient-17"/><linearGradient id="linear-gradient-96" x1="2982.82" y1="817.38" x2="3029.16" y2="817.38" gradientTransform="translate(-2399.01)" xlink:href="#linear-gradient-18"/><linearGradient id="linear-gradient-97" x1="2921.64" y1="716.51" x2="3103.27" y2="716.51" gradientTransform="translate(-2399.01)" xlink:href="#linear-gradient-17"/><linearGradient id="linear-gradient-98" x1="2918.85" y1="718.56" x2="3097.16" y2="718.56" gradientTransform="translate(-2399.01)" xlink:href="#linear-gradient-18"/><linearGradient id="linear-gradient-99" x1="2926.18" y1="718.56" x2="3089.83" y2="718.56" gradientTransform="translate(-2399.01)" xlink:href="#linear-gradient-19"/><linearGradient id="linear-gradient-100" x1="392.73" y1="-195.01" x2="430.2" y2="-195.01" gradientTransform="translate(100.09 717.12) rotate(15)" xlink:href="#linear-gradient-19"/><linearGradient id="linear-gradient-101" x1="405.81" y1="-123.07" x2="455.65" y2="-123.07" gradientTransform="translate(100.09 717.12) rotate(15)" xlink:href="#linear-gradient-19"/><linearGradient id="linear-gradient-102" x1="445.01" y1="-118.26" x2="582.28" y2="-118.26" gradientTransform="translate(100.09 717.12) rotate(15)" xlink:href="#linear-gradient-18"/><linearGradient id="linear-gradient-103" x1="1813.51" y1="432.84" x2="2047.18" y2="432.84" gradientTransform="translate(-1641.78)" xlink:href="#linear-gradient-17"/><linearGradient id="linear-gradient-104" x1="1852.26" y1="171.33" x2="1978.43" y2="696.3" gradientTransform="translate(-1641.78)" xlink:href="#linear-gradient-18"/><linearGradient id="linear-gradient-105" x1="1983.01" y1="655.37" x2="1854.22" y2="186.78" gradientTransform="translate(-1641.78)" xlink:href="#linear-gradient-19"/><linearGradient id="linear-gradient-106" x1="218.8" y1="257.7" x2="296.03" y2="440.37" gradientTransform="matrix(1, 0, 0, 1, 0, 0)" xlink:href="#linear-gradient-8"/><linearGradient id="linear-gradient-107" x1="1916.46" y1="673.64" x2="1908.76" y2="607.22" gradientTransform="translate(-1641.78)" xlink:href="#linear-gradient-19"/><linearGradient id="linear-gradient-108" x1="-2500.61" y1="337.26" x2="-2337" y2="337.26" gradientTransform="matrix(-1, 0, 0, 1, -2041.13, 0)" gradientUnits="userSpaceOnUse"><stop offset="0" stop-color="#a8edf7"/><stop offset="0.41" stop-color="#8fe1ef"/><stop offset="1" stop-color="#65cbe0"/></linearGradient><linearGradient id="linear-gradient-109" x1="-2494.57" y1="339.01" x2="-2336.06" y2="339.01" gradientTransform="matrix(-1, 0, 0, 1, -2041.13, 0)" xlink:href="#linear-gradient-19"/><linearGradient id="linear-gradient-110" x1="-2456.9" y1="538.48" x2="-2293.29" y2="538.48" gradientTransform="matrix(-1, 0, 0, 1, -2041.13, 0)" gradientUnits="userSpaceOnUse"><stop offset="0" stop-color="#4a81c9"/><stop offset="0.45" stop-color="#4668b5"/><stop offset="1" stop-color="#404599"/></linearGradient><linearGradient id="linear-gradient-111" x1="-2450.86" y1="540.23" x2="-2292.35" y2="540.23" gradientTransform="matrix(-1, 0, 0, 1, -2041.13, 0)" xlink:href="#linear-gradient-18"/></defs><title>Entertainment Feauture Image 01</title><g class="cls-2"><g id="Layer_2" data-name="Layer 2"><g id="Layer_1-2" data-name="Layer 1"><g id="cloud"><path class="cls-3" d="M861.12,677a1,1,0,0,1-.93-1.37c21-53.52,29-111,29.38-144a1,1,0,0,1,1-1h0a1,1,0,0,1,1,1c-.4,33.14-8.37,90.92-29.52,144.69A1,1,0,0,1,861.12,677Z"/><path class="cls-4" d="M834.11,733.59a1,1,0,0,1-.86-1.5c4.59-7.85,12.57-22.75,15.93-31.28a1,1,0,1,1,1.86.73c-3.39,8.63-11.44,23.65-16.06,31.56A1,1,0,0,1,834.11,733.59Z"/><path class="cls-5" d="M346.55,111a1,1,0,0,1-.42-1.91c13.7-6.37,37.08-11.54,48.68-12.82a1,1,0,0,1,.22,2c-11.47,1.27-34.55,6.37-48.06,12.65A1,1,0,0,1,346.55,111Z"/><path class="cls-6" d="M461,774.35a1,1,0,0,1-.66-.24c-8.4-7.28-16.8-15.66-23.19-22.14a1,1,0,1,1,1.43-1.4c6.36,6.46,14.73,14.79,23.07,22a1,1,0,0,1-.66,1.76Z"/><path class="cls-7" d="M479.82,808.14a9.7,9.7,0,0,1-4.16-.9c-4.26-2-5.72-6.68-3.92-12.44h0c.63-2,2.38-3.3,4.93-3.63,4.52-.57,10.39,2,12.53,5.44a5.8,5.8,0,0,1-.18,6.57A11,11,0,0,1,479.82,808.14Zm-6.17-12.74c-1.5,4.79-.45,8.45,2.88,10a8.82,8.82,0,0,0,10.84-3.36,3.8,3.8,0,0,0,.14-4.41c-1.76-2.84-6.8-5-10.58-4.51a3.61,3.61,0,0,0-3.27,2.24Z"/><path class="cls-8" d="M532.88,819.21a9.25,9.25,0,0,1-3.73-.87h0c-5.78-2.54-8.06-8-6.86-11.6,1.08-3.24,4.49-4.53,9.11-3.45a9.63,9.63,0,0,1,7.54,7,7.51,7.51,0,0,1-2.14,7.51A6,6,0,0,1,532.88,819.21Zm-2.92-2.7c2.24,1,4.21.91,5.56-.21a5.51,5.51,0,0,0,1.48-5.52,7.58,7.58,0,0,0-6-5.54c-3.56-.83-6-.06-6.75,2.13-.93,2.78,1.17,7.11,5.77,9.13Z"/><path class="cls-9" d="M713.57,156.25a6.81,6.81,0,0,1-2-.3c-3.38-1-6.23-4.71-6.77-8.75a7.93,7.93,0,0,1,3.54-8.12c4.32-2.74,9.88-2.1,12.94,1.5,2.27,2.67,3.07,7.35-1.49,12.47A8.43,8.43,0,0,1,713.57,156.25ZM714,139.4a8.56,8.56,0,0,0-4.61,1.36h0a6,6,0,0,0-2.63,6.16c.44,3.25,2.75,6.3,5.38,7.1,2.1.64,4.22-.16,6.14-2.32,3.15-3.54,3.69-7.22,1.46-9.84A7.59,7.59,0,0,0,714,139.4Zm-5.15.52h0Z"/><path class="cls-10" d="M720.45,824.19c-14.61-13-27,2.52-10.62,12.36S730.36,833,720.45,824.19Z"/><path class="cls-11" d="M881.51,380.53c3.14-14.11-2.8-18.54-10.15-9.1S878.71,393.12,881.51,380.53Z"/><path class="cls-12" d="M235.19,186.85c16.37-10.35,7.7-20.93-3.56-17S222.8,194.68,235.19,186.85Z"/><path class="cls-13" d="M266.16,152c9.81-7.28,8.13-11.31.1-11.27S260,156.63,266.16,152Z"/><path class="cls-14" d="M678.36,189.62a1,1,0,0,1-1-.76c-.12-.47-12.23-47-47.94-64.77-29.45-14.65-54.29-14.42-75.93.69a1,1,0,1,1-1.14-1.64c22.29-15.57,47.8-15.84,78-.84,36.55,18.17,48.87,65.6,49,66.07a1,1,0,0,1-1,1.24Z"/><path class="cls-15" d="M624.37,820.9c-18.08,0-38.63-5.5-58.93-21.6a1,1,0,1,1,1.24-1.57c48.3,38.3,98,15.46,110.61,2.8a1,1,0,1,1,1.42,1.41C671.08,809.6,650.27,820.9,624.37,820.9Z"/><path class="cls-16" d="M823,210.75c20.12,2.4,52.2,35.9,46.95,49.37s-24.3,25.59-32.56,1.84S807.15,208.86,823,210.75Z"/><path class="cls-17" d="M834.1,774.6c25.57-3.19,42.43,3.67,27.91,24.44S787.94,780.36,834.1,774.6Z"/><path class="cls-18" d="M250.24,342.22c2,44.69,77.16,207.23,110.41,264.17,28.14,48.19,72.57,107,106.49,132.21s79.72,82.42,237.7,70.59c70.69-5.29,141.8-61.57,156.76-133.16,13.9-66.52,6.82-151.93,0-182.35S829.77,342.22,788,250.12c-16.19-35.7-95.33-112.21-225.46-116.18C445.19,130.37,478,119.16,478,119.16s-125.73-29.52-193,34C223.36,211.39,250.24,342.22,250.24,342.22Z"/><path class="cls-19" d="M851.16,356.23a8.72,8.72,0,0,0-3.95-6.84l-67-38.52a5,5,0,0,0-4.92,0l-7.2,4.1,11.63,6.72L841.5,522.21v8l7.2-4.18a5,5,0,0,0,2.47-4.29Z"/><path class="cls-20" d="M838.73,529.88l-67.9-39.19a8.72,8.72,0,0,1-3.95-6.84l0-166.31c0-2.52,1.77-3.54,3.95-2.28l67.9,39.19a8.72,8.72,0,0,1,3.95,6.84l0,166.31C842.68,530.11,840.91,531.14,838.73,529.88Z"/><path class="cls-21" d="M772.09,463.8l0-138.23c0-1.32.93-1.85,2.07-1.19l61.26,35.36a4.57,4.57,0,0,1,2.07,3.58l0,138.23c0,1.32-.93,1.85-2.07,1.19l-61.26-35.36A4.57,4.57,0,0,1,772.09,463.8Z"/><path class="cls-22" d="M699.52,322.44,556.35,236.28c-4.59-2.65-8.3-9.09-8.3-14.38l-3-138.59c3.45-2,3.95-2.28,5.47-3.14s3.56-.71,5.84.6l142.8,82.42c4.59,2.65,8.3,9.09,8.3,14.38l0,136.33c0,2.65-.93,4.51-2.43,5.37C703.24,320.3,700.67,321.76,699.52,322.44Z"/><path class="cls-23" d="M693.69,321.83l-142.8-82.42c-4.59-2.65-8.3-9.09-8.3-14.38l0-136.33c0-5.3,3.72-7.44,8.3-4.79l142.8,82.42c4.59,2.65,8.3,9.09,8.3,14.38L702,317C702,322.33,698.28,324.48,693.69,321.83Z"/><path class="cls-24" d="M553.53,218.44l0-112.85c0-2.77,1.95-3.89,4.35-2.51l128.84,74.37A9.6,9.6,0,0,1,691.1,185l0,112.85c0,2.77-1.95,3.89-4.35,2.51L557.88,226A9.6,9.6,0,0,1,553.53,218.44Z"/><polygon class="cls-25" points="601.01 142.4 642.28 166.22 642.28 176.73 601.01 152.91 601.01 142.4"/><g class="cls-26"><path class="cls-27" d="M172.29,196.13C233.77,21.33,442,20.15,611.17,66.67,794,117,953.53,297.92,935.77,536.4c-16.93,227.35-119.55,316.36-239.3,340.35-140.2,28.08-297.17-54-349-230.24C298.08,478.45,120.63,343,172.29,196.13Z"/><ellipse class="cls-28" cx="391.03" cy="605.63" rx="39.34" ry="30.78"/><circle class="cls-29" cx="409.51" cy="605.63" r="5.06"/><circle class="cls-29" cx="391.03" cy="605.63" r="5.06"/><circle class="cls-29" cx="372.55" cy="605.63" r="5.06"/><ellipse class="cls-30" cx="261.88" cy="250.12" rx="32.21" ry="25.2"/><circle class="cls-29" cx="277.01" cy="250.12" r="4.14"/><circle class="cls-29" cx="261.88" cy="250.12" r="4.14"/><circle class="cls-29" cx="246.75" cy="250.12" r="4.14"/><ellipse class="cls-31" cx="525.57" cy="724.23" rx="29.91" ry="23.4"/><circle class="cls-29" cx="539.62" cy="724.23" r="3.85"/><circle class="cls-29" cx="525.57" cy="724.23" r="3.85"/><circle class="cls-29" cx="511.52" cy="724.23" r="3.85"/><ellipse class="cls-32" cx="740.33" cy="357.41" rx="35" ry="27.39"/><circle class="cls-29" cx="756.78" cy="357.41" r="4.5"/><circle class="cls-29" cx="740.33" cy="357.41" r="4.5"/><circle class="cls-29" cx="723.89" cy="357.41" r="4.5"/><ellipse class="cls-33" cx="754.67" cy="617.69" rx="42.02" ry="32.88"/><circle class="cls-29" cx="774.41" cy="617.69" r="5.41"/><circle class="cls-29" cx="754.67" cy="617.69" r="5.41"/><circle class="cls-29" cx="734.92" cy="617.69" r="5.41"/><path class="cls-34" d="M601.41,726.46V592.63c0-3.86,2.71-5.43,6.06-3.5l176.84,102a13.39,13.39,0,0,1,6.06,10.49V835.47c0,3.86-2.71,5.43-6.06,3.5L607.47,737A13.39,13.39,0,0,1,601.41,726.46Z"/><path class="cls-35" d="M611.82,723V589.16c0-3.86,2.71-5.43,6.06-3.5l176.84,102a13.39,13.39,0,0,1,6.06,10.49V832c0,3.86-2.71,5.43-6.06,3.5l-176.84-102A13.39,13.39,0,0,1,611.82,723Z"/><path class="cls-36" d="M644.59,665.28V568.92c0-2.49,1.75-3.5,3.91-2.26l66.27,38.39a8.63,8.63,0,0,1,3.91,6.77v96.36c0,2.49-1.75,3.5-3.91,2.26L648.5,672A8.63,8.63,0,0,1,644.59,665.28Z"/><path class="cls-37" d="M580.92,639.29V567.87c0-2.62,1.84-3.68,4.11-2.37l32.77,19.11a9.07,9.07,0,0,1,4.1,7.11v71.41c0,2.62-1.84,3.68-4.11,2.37L585,646.4A9.07,9.07,0,0,1,580.92,639.29Z"/><path class="cls-38" d="M642,779.52V699.69c0-2.53,1.78-3.56,4-2.29l31.71,18.5a8.78,8.78,0,0,1,4,6.88v79.83c0,2.53-1.78,3.56-4,2.29l-31.71-18.5A8.78,8.78,0,0,1,642,779.52Z"/><path class="cls-39" d="M502.12,487.5l0-182.7c0-5.28,3.7-7.41,8.27-4.78L751.83,439.29c4.57,2.64,8.27,9.05,8.27,14.33l0,182.7c0,5.28-3.71,7.41-8.27,4.78L510.39,501.82C505.83,499.19,502.12,492.77,502.12,487.5Z"/><path class="cls-40" d="M539,344.33v-6.79c0-3.38,2.38-4.75,5.3-3.06L680,413.27a11.72,11.72,0,0,1,5.3,9.19v6.79c0,3.38-2.38,4.75-5.3,3.06L544.3,353.52A11.72,11.72,0,0,1,539,344.33Z"/><path class="cls-41" d="M557.9,387.11v-6.79c0-3.38,2.38-4.75,5.3-3.06L680,445.21a11.72,11.72,0,0,1,5.3,9.19v6.79c0,3.38-2.38,4.75-5.3,3.06L563.21,396.3A11.72,11.72,0,0,1,557.9,387.11Z"/><path class="cls-42" d="M547.11,412.71v-6.79c0-3.38,2.38-4.75,5.3-3.06L680,477.15a11.72,11.72,0,0,1,5.3,9.19v6.79c0,3.38-2.38,4.75-5.3,3.06L552.41,421.9A11.72,11.72,0,0,1,547.11,412.71Z"/><path class="cls-43" d="M557.9,451.33v-6.79c0-3.38,2.38-4.75,5.3-3.06L680,509.08a11.72,11.72,0,0,1,5.3,9.19v6.79c0,3.38-2.38,4.75-5.3,3.06l-116.82-67.6A11.72,11.72,0,0,1,557.9,451.33Z"/><path class="cls-44" d="M539,472.08V465.3c0-3.38,2.38-4.75,5.3-3.06L680,541a11.72,11.72,0,0,1,5.3,9.19V557c0,3.38-2.38,4.75-5.3,3.06L544.3,481.27A11.72,11.72,0,0,1,539,472.08Z"/><path class="cls-45" d="M695.91,533.59v-109c0-3.46,2.43-4.86,5.42-3.13l43.29,25.26a12,12,0,0,1,5.42,9.39v109c0,3.46-2.43,4.86-5.42,3.13L701.34,543A12,12,0,0,1,695.91,533.59Z"/><g class="cls-46"><path class="cls-47" d="M351.08,687.06,534.84,793.13c7.39,4.27,13.38.81,13.38-7.73l0-140.33c0-8.53-6-18.91-13.38-23.17L351.1,515.84c-7.39-4.27-13.38-.81-13.38,7.73l0,140.33C337.7,672.42,343.69,682.8,351.08,687.06Z"/></g><g class="cls-48"><polygon class="cls-49" points="416.83 439.09 259.55 348.31 259.55 329.01 416.83 419.79 416.83 439.09"/><polygon class="cls-50" points="295.8 380.69 416.83 450.55 416.83 469.85 295.8 400 295.8 380.69"/><polygon class="cls-51" points="273.04 398.32 416.83 481.32 416.82 500.62 273.04 417.62 273.04 398.32"/><polygon class="cls-52" points="313.6 452.5 416.82 512.08 416.82 531.38 313.6 471.8 313.6 452.5"/></g><g class="cls-48"><polygon class="cls-53" points="639.62 772.22 539.81 714.62 539.82 702.37 639.62 759.98 639.62 772.22"/><polygon class="cls-54" points="562.81 735.17 639.61 779.5 639.61 791.74 562.81 747.41 562.81 735.17"/><polygon class="cls-55" points="548.37 746.35 639.61 799.02 639.61 811.26 548.37 758.6 548.37 746.35"/><polygon class="cls-56" points="574.11 780.73 639.61 818.54 639.61 830.78 574.11 792.98 574.11 780.73"/></g><g class="cls-48"><polygon class="cls-57" points="509.71 598.41 409.91 540.8 409.91 528.55 509.71 586.16 509.71 598.41"/><polygon class="cls-58" points="432.91 561.35 509.71 605.68 509.7 617.93 432.91 573.6 432.91 561.35"/><polygon class="cls-59" points="418.46 572.54 509.7 625.2 509.7 637.45 418.46 584.78 418.46 572.54"/><polygon class="cls-60" points="444.2 606.91 509.7 644.72 509.7 656.97 444.2 619.16 444.2 606.91"/></g><path class="cls-61" d="M285.7,316.57l81.24-46.89c7-4,12.65-13.85,12.65-21.92V213.39c0-8.07-5.67-11.34-12.66-7.31L285.69,253c-7,4-12.65,13.85-12.65,21.92v34.38C273,317.34,278.71,320.61,285.7,316.57Z"/><path class="cls-62" d="M326.86,250.36,369,225.73a4.34,4.34,0,0,0,2-3.4V217c0-1.25-.88-1.76-2-1.13l-42.19,24.63a4.34,4.34,0,0,0-2,3.4v5.34C324.89,250.48,325.77,251,326.86,250.36Z"/><path class="cls-63" d="M295.4,285,369,242a4.34,4.34,0,0,0,2-3.4v-5.34c0-1.25-.88-1.76-2-1.13l-73.65,43a4.34,4.34,0,0,0-2,3.4v5.34C293.43,285.12,294.31,285.63,295.4,285Z"/><path class="cls-64" d="M317.63,288.08,369,258.19a4.34,4.34,0,0,0,2-3.4v-5.34c0-1.25-.88-1.76-2-1.13l-51.41,29.89a4.34,4.34,0,0,0-2,3.4v5.34C315.67,288.2,316.55,288.71,317.63,288.08Z"/><path class="cls-65" d="M285.7,145.83l81.24-46.89c7-4,12.65-13.85,12.65-21.92V14.4c0-8.07-5.67-11.34-12.66-7.31L285.69,54C278.7,58,273,67.83,273,75.9v62.62C273,146.59,278.71,149.86,285.7,145.83Z"/><path class="cls-66" d="M326.86,52.2,369,27.56a4.34,4.34,0,0,0,2-3.4V18.83c0-1.25-.88-1.76-2-1.13L326.86,42.32a4.34,4.34,0,0,0-2,3.4v5.34C324.89,52.31,325.77,52.82,326.86,52.2Z"/><path class="cls-67" d="M295.4,86.83l73.65-43a4.34,4.34,0,0,0,2-3.4V35.05c0-1.25-.88-1.76-2-1.13L295.39,77a4.34,4.34,0,0,0-2,3.4V85.7C293.43,87,294.31,87.46,295.4,86.83Z"/><path class="cls-68" d="M317.63,89.91,369,60a4.34,4.34,0,0,0,2-3.4V51.28c0-1.25-.88-1.76-2-1.13L317.63,80a4.34,4.34,0,0,0-2,3.4v5.34C315.67,90,316.55,90.54,317.63,89.91Z"/><path class="cls-69" d="M317.63,106.14,369,76.25a4.34,4.34,0,0,0,2-3.4V67.51c0-1.25-.88-1.76-2-1.13L317.63,96.27a4.34,4.34,0,0,0-2,3.4V105C315.67,106.26,316.55,106.77,317.63,106.14Z"/><path class="cls-70" d="M446.27,400.2,365,353.31c-7-4-12.65-13.85-12.65-21.92V297c0-8.07,5.67-11.34,12.66-7.31l81.24,46.89c7,4,12.65,13.85,12.65,21.92v34.38C458.93,401,453.26,404.24,446.27,400.2Z"/><path class="cls-71" d="M474.86,248.89,361.32,183c-7-4-12.65-13.85-12.65-21.92V126.74c0-8.07,5.67-11.34,12.66-7.31l113.55,65.85c7,4,12.65,13.85,12.65,21.92v34.38C487.52,249.65,481.85,252.92,474.86,248.89Z"/><path class="cls-72" d="M473.67,205.09,381,151a3.8,3.8,0,0,1-1.72-3v-4.67c0-1.1.77-1.54,1.72-1l92.7,54.06a3.8,3.8,0,0,1,1.72,3v4.67C475.38,205.19,474.61,205.64,473.67,205.09Z"/><path class="cls-73" d="M473.67,219.38,403,178.15a3.8,3.8,0,0,1-1.72-3V170.5c0-1.1.77-1.54,1.72-1l70.69,41.24a3.8,3.8,0,0,1,1.72,3v4.67C475.38,219.49,474.61,219.93,473.67,219.38Z"/><path class="cls-74" d="M473.67,233.68,394,187.09a3.8,3.8,0,0,1-1.72-3v-4.67c0-1.1.77-1.54,1.72-1L473.67,225a3.8,3.8,0,0,1,1.72,3v4.67C475.38,233.78,474.61,234.23,473.67,233.68Z"/><path class="cls-75" d="M445.73,360.26l-58.35-34a3.8,3.8,0,0,1-1.72-3v-4.67c0-1.1.77-1.54,1.72-1l58.35,34a3.8,3.8,0,0,1,1.72,3v4.67C447.45,360.37,446.68,360.81,445.73,360.26Z"/><path class="cls-76" d="M445.73,374.56,375,333.32a3.8,3.8,0,0,1-1.72-3v-4.67c0-1.1.77-1.54,1.72-1l70.69,41.24a3.8,3.8,0,0,1,1.72,3v4.67C447.45,374.66,446.68,375.11,445.73,374.56Z"/><path class="cls-77" d="M445.73,388.85,366,342.26a3.8,3.8,0,0,1-1.72-3v-4.67c0-1.1.77-1.54,1.72-1l79.7,46.59a3.8,3.8,0,0,1,1.72,3v4.67C447.45,389,446.68,389.4,445.73,388.85Z"/><path class="cls-19" d="M851.16,356.23a8.72,8.72,0,0,0-3.95-6.84l-67-38.52a5,5,0,0,0-4.92,0l-7.2,4.1,11.63,6.72L841.5,522.21v8l7.2-4.18a5,5,0,0,0,2.47-4.29Z"/><path class="cls-20" d="M838.73,529.88l-67.9-39.19a8.72,8.72,0,0,1-3.95-6.84l0-166.31c0-2.52,1.77-3.54,3.95-2.28l67.9,39.19a8.72,8.72,0,0,1,3.95,6.84l0,166.31C842.68,530.11,840.91,531.14,838.73,529.88Z"/><path class="cls-21" d="M772.09,463.8l0-138.23c0-1.32.93-1.85,2.07-1.19l61.26,35.36a4.57,4.57,0,0,1,2.07,3.58l0,138.23c0,1.32-.93,1.85-2.07,1.19l-61.26-35.36A4.57,4.57,0,0,1,772.09,463.8Z"/><polygon class="cls-29" points="825.73 444.2 826.79 447.81 829.17 449.67 827.45 451 827.86 454.52 825.73 451.74 823.6 452.06 824 449.01 822.28 445.69 824.66 446.58 825.73 444.2"/><polygon class="cls-29" points="815.07 438.03 816.13 441.64 818.51 443.49 816.79 444.82 817.2 448.35 815.07 445.56 812.93 445.89 813.34 442.83 811.62 439.51 814 440.41 815.07 438.03"/><polygon class="cls-29" points="804.41 431.86 805.47 435.46 807.85 437.32 806.13 438.65 806.54 442.17 804.4 439.39 802.27 439.71 802.68 436.66 800.96 433.34 803.34 434.23 804.41 431.86"/><polygon class="cls-29" points="793.75 425.68 794.81 429.29 797.19 431.14 795.47 432.48 795.88 436 793.74 433.22 791.61 433.54 792.02 430.49 790.3 427.16 792.68 428.06 793.75 425.68"/><polygon class="cls-29" points="783.09 419.51 784.15 423.12 786.53 424.97 784.81 426.3 785.22 429.83 783.08 427.04 780.95 427.37 781.36 424.31 779.64 420.99 782.02 421.88 783.09 419.51"/><path class="cls-78" d="M821.48,485.17,788.1,465.91a11.49,11.49,0,0,1-5.2-9V442.78c0-3.32,2.33-4.66,5.2-3L821.48,459a11.49,11.49,0,0,1,5.2,9v14.12C826.68,485.49,824.35,486.83,821.48,485.17Z"/><path class="cls-79" d="M810.76,501.08c0,4.57-2.67,6.73-6,4.83s-6-7.15-6-11.72,2.67-6.73,6-4.83S810.76,496.51,810.76,501.08Z"/><g class="cls-46"><polygon class="cls-80" points="829 377.75 780.6 349.82 780.6 343.88 829 371.81 829 377.75"/><polygon class="cls-81" points="829 387.22 780.6 359.28 780.6 353.34 829 381.28 829 387.22"/></g><g class="cls-46"><path class="cls-82" d="M782.46,412.35l44.67,25.78c1.8,1,3.25.2,3.25-1.88V402.14a7.19,7.19,0,0,0-3.25-5.63l-44.67-25.78c-1.8-1-3.25-.2-3.25,1.88v34.11A7.19,7.19,0,0,0,782.46,412.35Z"/><path class="cls-83" d="M780.4,407.26V373.44c0-1.24.87-1.74,1.94-1.12l44.9,25.91a4.3,4.3,0,0,1,1.94,3.37v33.82c0,1.24-.87,1.74-1.94,1.12l-44.9-25.91A4.3,4.3,0,0,1,780.4,407.26Z"/><path class="cls-84" d="M824.62,414.45c-1.58.31-3.35-1.36-5-2.92-2.47-2.35-5-4.37-7.58-5s-3.95,1.27-5.88,2.26a8.55,8.55,0,0,1-5.83.41,13.7,13.7,0,0,1-6-3.1c-2.29-2-4.28-5.11-6.58-7.08a10.47,10.47,0,0,0-6.13-2.46,11.35,11.35,0,0,0-1.24,0V407a4.36,4.36,0,0,0,1.77,3.48l45.23,26.11c1,.56,1.77-.08,1.77-1.43V410.66C827.78,412.06,826.52,414.08,824.62,414.45Z"/></g><path class="cls-22" d="M699.52,322.44,556.35,236.28c-4.59-2.65-8.3-9.09-8.3-14.38l-3-138.59c3.45-2,3.95-2.28,5.47-3.14s3.56-.71,5.84.6l142.8,82.42c4.59,2.65,8.3,9.09,8.3,14.38l0,136.33c0,2.65-.93,4.51-2.43,5.37C703.24,320.3,700.67,321.76,699.52,322.44Z"/><path class="cls-23" d="M693.69,321.83l-142.8-82.42c-4.59-2.65-8.3-9.09-8.3-14.38l0-136.33c0-5.3,3.72-7.44,8.3-4.79l142.8,82.42c4.59,2.65,8.3,9.09,8.3,14.38L702,317C702,322.33,698.28,324.48,693.69,321.83Z"/><path class="cls-24" d="M553.53,218.44l0-112.85c0-2.77,1.95-3.89,4.35-2.51l128.84,74.37A9.6,9.6,0,0,1,691.1,185l0,112.85c0,2.77-1.95,3.89-4.35,2.51L557.88,226A9.6,9.6,0,0,1,553.53,218.44Z"/><polygon class="cls-29" points="671.64 219.16 674.08 227.41 679.53 231.66 675.58 234.71 676.51 242.76 671.64 236.4 666.76 237.14 667.7 230.15 663.75 222.55 669.2 224.6 671.64 219.16"/><polygon class="cls-29" points="647.26 205.04 649.69 213.29 655.14 217.53 651.2 220.59 652.13 228.64 647.25 222.28 642.38 223.02 643.31 216.03 639.37 208.43 644.82 210.48 647.26 205.04"/><polygon class="cls-29" points="622.87 190.92 625.31 199.17 630.76 203.41 626.81 206.46 627.74 214.52 622.87 208.16 617.99 208.89 618.92 201.91 614.98 194.31 620.43 196.36 622.87 190.92"/><polygon class="cls-29" points="598.49 176.8 600.92 185.05 606.37 189.29 602.43 192.34 603.36 200.4 598.48 194.03 593.61 194.77 594.54 187.79 590.6 180.19 596.05 182.23 598.49 176.8"/><polygon class="cls-29" points="574.1 162.68 576.54 170.93 581.99 175.17 578.04 178.22 578.97 186.28 574.1 179.91 569.22 180.65 570.15 173.67 566.21 166.06 571.66 168.11 574.1 162.68"/><path class="cls-85" d="M591.7,389.37l-142-82c-2.35-1.36-3.52-3.15-3.52-4.93s0-4.28,0-9.19l92-46.74a9.57,9.57,0,0,1,9.58,0l149.73,79.69c0,3.93.09,8.08,0,9.72a4.52,4.52,0,0,1-2.28,3.67l-86.37,49.8C604.09,392.08,596.4,392.08,591.7,389.37Z"/><path class="cls-86" d="M591.7,380.11l-142-82c-4.7-2.71-4.7-7.15,0-9.87l88.43-51a9.57,9.57,0,0,1,9.58,0l147.45,85.15a4.57,4.57,0,0,1,0,7.92l-86.37,49.8C604.09,382.83,596.4,382.83,591.7,380.11Z"/><path class="cls-87" d="M638.58,347.73,505.91,271.11c-2-1.18-2-3.09,0-4.27l28.33-16.36a8.17,8.17,0,0,1,7.39,0L674.3,327.1c2,1.18,2,3.09,0,4.27L646,347.73A8.17,8.17,0,0,1,638.58,347.73Z"/><path class="cls-88" d="M559.78,338.36l-37.65-21.74c-1.43-.82-1.43-2.16,0-3L542,302.18a5.71,5.71,0,0,1,5.17,0l37.65,21.74c1.43.82,1.43,2.16,0,3L565,338.36A5.71,5.71,0,0,1,559.78,338.36Z"/><polygon class="cls-25" points="601.01 142.4 642.28 166.22 642.28 176.73 601.01 152.91 601.01 142.4"/><polygon class="cls-89" points="581.53 147.72 661.66 193.97 661.66 204.48 581.53 158.23 581.53 147.72"/><polygon class="cls-90" points="597.57 206.66 661.66 243.65 661.66 254.16 597.57 217.17 597.57 206.66"/><polygon class="cls-91" points="588.15 217.78 661.66 260.21 661.66 270.72 588.15 228.3 588.15 217.78"/><polygon class="cls-92" points="852.93 601.82 867.66 651.66 900.59 677.3 876.75 695.73 882.38 744.42 871.79 750.53 852.92 705.96 823.47 710.42 829.1 668.22 794.69 628.39 805.27 622.28 838.2 634.66 842.35 607.93 852.93 601.82"/><polygon class="cls-93" points="842.35 607.93 857.07 657.77 890 683.41 866.17 701.84 871.79 750.53 842.34 712.07 812.88 716.53 818.51 674.33 794.69 628.39 827.62 640.77 842.35 607.93"/><polygon class="cls-94" points="857.07 657.77 867.66 651.66 852.93 601.82 842.35 607.93 857.07 657.77"/><polygon class="cls-95" points="900.59 677.3 890 683.41 866.17 701.84 876.75 695.73 900.59 677.3"/><polygon class="cls-92" points="739.94 536.68 754.66 586.52 787.59 612.16 763.76 630.59 769.38 679.28 758.79 685.39 739.93 640.82 710.47 645.28 716.1 603.08 681.69 563.25 692.27 557.14 725.21 569.52 729.36 542.79 739.94 536.68"/><polygon class="cls-93" points="729.36 542.79 744.08 592.63 777.01 618.27 753.17 636.7 758.79 685.39 729.34 646.93 699.89 651.39 705.52 609.19 681.69 563.25 714.62 575.63 729.36 542.79"/><polygon class="cls-94" points="744.08 592.63 754.66 586.52 739.94 536.68 729.36 542.79 744.08 592.63"/><polygon class="cls-95" points="787.59 612.16 777.01 618.27 753.17 636.7 763.76 630.59 787.59 612.16"/><polygon class="cls-92" points="626.94 471.49 641.66 521.34 674.59 546.98 650.76 565.4 656.38 614.1 645.8 620.21 626.93 575.64 597.47 580.09 603.1 537.9 568.69 498.07 579.28 491.96 612.21 504.34 616.36 477.6 626.94 471.49"/><polygon class="cls-93" points="616.36 477.6 631.08 527.45 664.01 553.09 640.18 571.51 645.8 620.21 616.35 581.75 586.89 586.2 592.52 544.01 568.69 498.07 601.63 510.45 616.36 477.6"/><polygon class="cls-94" points="631.08 527.45 641.66 521.34 626.94 471.49 616.36 477.6 631.08 527.45"/><polygon class="cls-95" points="674.59 546.98 664.01 553.09 640.18 571.51 650.76 565.4 674.59 546.98"/><polygon class="cls-92" points="514.34 406.24 529.06 456.08 561.99 481.72 538.16 500.15 543.78 548.84 533.2 554.95 514.33 510.38 484.87 514.84 490.5 472.64 456.09 432.81 466.68 426.7 499.61 439.08 503.75 412.35 514.34 406.24"/><polygon class="cls-93" points="503.75 412.35 518.48 462.19 551.41 487.83 527.58 506.26 533.2 554.95 503.74 516.49 474.29 520.95 479.92 478.75 456.09 432.81 489.02 445.19 503.75 412.35"/><polygon class="cls-94" points="518.48 462.19 529.06 456.08 514.34 406.24 503.75 412.35 518.48 462.19"/><polygon class="cls-95" points="561.99 481.72 551.41 487.83 527.58 506.26 538.16 500.15 561.99 481.72"/><polygon class="cls-92" points="401.74 340.98 416.46 390.83 449.39 416.46 425.56 434.89 431.18 483.58 420.59 489.69 401.72 445.13 372.27 449.58 377.9 407.39 343.49 367.56 354.07 361.45 387 373.83 391.15 347.09 401.74 340.98"/><polygon class="cls-93" points="391.15 347.09 405.87 396.94 438.81 422.57 414.97 441 420.59 489.69 391.14 451.24 361.68 455.69 367.31 413.5 343.49 367.56 376.42 379.94 391.15 347.09"/><polygon class="cls-94" points="405.87 396.94 416.46 390.83 401.74 340.98 391.15 347.09 405.87 396.94"/><polygon class="cls-95" points="449.39 416.46 438.81 422.57 414.97 441 425.56 434.89 449.39 416.46"/><path class="cls-96" d="M618.69,876.91,556.53,841a2.62,2.62,0,0,1-1.54-2.16c0-.78,0-6.95,0-9.1l40.25-20.46a4.19,4.19,0,0,1,4.19,0L665,844.17c0,1.72,0,8.61,0,9.33a2,2,0,0,1-1,1.61l-37.8,21.8A8.29,8.29,0,0,1,618.69,876.91Z"/><path class="cls-97" d="M618.69,867.78l-62.16-35.9c-2.06-1.19-2.06-3.13,0-4.32l38.71-22.32a4.19,4.19,0,0,1,4.19,0L664,842.52a2,2,0,0,1,0,3.47l-37.8,21.8A8.29,8.29,0,0,1,618.69,867.78Z"/><path class="cls-98" d="M629.42,852.13l-41.61-25a5.33,5.33,0,0,1-2.41-4.18l-.86-40.27,1.59-.91a1.7,1.7,0,0,1,1.7.17l41.5,24c1.33.77,8.28-.87,8.28.67v39.62a1.69,1.69,0,0,1-.71,1.56C636.37,848,629.76,851.93,629.42,852.13Z"/><path class="cls-99" d="M627.73,852l-41.5-24a5.33,5.33,0,0,1-2.41-4.18V784.2c0-1.54,1.08-2.16,2.41-1.39l41.5,24a5.33,5.33,0,0,1,2.41,4.18v39.62C630.14,852.1,629.06,852.72,627.73,852Z"/><path class="cls-100" d="M695.34,852.28,535.23,755.92c-5.13-3-9.29-10.16-9.29-16.08l-3.31-155c3.86-2.21,4.41-2.55,6.12-3.51s4-.8,6.53.67L695,674.19c5.13,3,9.29,10.16,9.28,16.08l0,152.47c0,3-1,5-2.72,6C699.51,849.89,696.63,851.52,695.34,852.28Z"/><path class="cls-101" d="M688.83,851.61l-159.7-92.18c-5.13-3-9.29-10.16-9.29-16.08l0-152.47c0-5.92,4.16-8.32,9.29-5.36l159.7,92.18c5.13,3,9.29,10.16,9.28,16.08l0,152.47C698.11,852.16,694,854.57,688.83,851.61Z"/><path class="cls-102" d="M532.79,753.07c-2.84-1.64-5.62-6.46-5.62-9.73l0-143.31a4.15,4.15,0,0,1,6.22-3.59L685.21,684c2.84,1.64,5.62,6.46,5.62,9.73l0,143.31a4.15,4.15,0,0,1-6.22,3.59Z"/><polygon class="cls-103" points="560.71 660.19 535.28 645.52 535.29 610.3 560.71 624.97 560.71 660.19"/><polygon class="cls-104" points="560.69 758.58 535.27 743.91 535.28 660.86 560.7 675.53 560.69 758.58"/><polygon class="cls-29" points="648.28 683.64 570.43 638.71 570.43 630.58 648.28 675.52 648.28 683.64"/><polygon class="cls-29" points="615.99 678.55 570.43 652.26 570.43 644.13 615.99 670.43 615.99 678.55"/><polygon class="cls-29" points="681.03 796.84 570.43 733 570.43 764.05 681.03 827.9 681.03 796.84"/><polygon class="cls-29" points="623.99 696.72 570.43 665.8 570.43 657.68 623.99 688.6 623.99 696.72"/><polygon class="cls-105" points="681.03 744.98 570.42 681.14 570.42 726.07 681.03 789.92 681.03 744.98"/><polygon class="cls-29" points="669.77 752.16 672 759.7 676.98 763.58 673.37 766.38 674.22 773.75 669.76 767.92 665.3 768.6 666.16 762.21 662.55 755.25 667.54 757.13 669.77 752.16"/><polygon class="cls-29" points="647.46 739.24 649.69 746.78 654.67 750.66 651.07 753.46 651.92 760.83 647.46 755 643 755.68 643.85 749.29 640.24 742.34 645.23 744.21 647.46 739.24"/><polygon class="cls-29" points="625.15 726.32 627.38 733.87 632.37 737.75 628.76 740.54 629.61 747.91 625.15 742.09 620.69 742.76 621.54 736.37 617.93 729.42 622.92 731.29 625.15 726.32"/><polygon class="cls-29" points="602.84 713.4 605.07 720.95 610.06 724.83 606.45 727.62 607.3 734.99 602.84 729.17 598.38 729.84 599.23 723.45 595.63 716.5 600.61 718.37 602.84 713.4"/><polygon class="cls-29" points="580.53 700.48 582.76 708.03 587.75 711.91 584.14 714.7 584.99 722.07 580.53 716.25 576.07 716.92 576.93 710.53 573.32 703.58 578.3 705.45 580.53 700.48"/><g class="cls-106"><path class="cls-107" d="M288.42,107.54c-17.08,37.32-32.19,123.69,40.49,235.19s117.26,130.84,134.2,194.16S566.76,677.6,681.59,676.81s161-42.35,218.8-117.23,98.06-9,121.32,13.28,46.52,264.58-341.12,264.58-557.47-255.87-554-504.91S193.78,6.55,243.46.43,312.27,55.42,288.42,107.54Z"/><path class="cls-108" d="M287.66,108.89C270.57,146.23,255.29,232.64,328,344.2S444.86,475.29,461.8,538.64,565.77,679.8,680.66,679,842,636.58,899.86,561.66s98.21-9.52,121.48,12.8,46.54,264.72-341.29,264.72S122.29,583.17,125.81,334,193,7.85,242.68,1.72,311.53,56.74,287.66,108.89Z"/><path class="cls-109" d="M286.91,110.25C269.8,147.61,254.34,234,327.1,345.67S443.55,477,460.5,540.38,564.78,682,679.74,681.21s161.7-42.52,219.6-117.48,98.36-10,121.64,12.33,46.56,264.86-341.47,264.86S121.45,584.78,125,335.48,192.17,9.15,241.9,3,310.79,58.07,286.91,110.25Z"/><path class="cls-110" d="M286.15,111.6C269,149,253.4,235.46,326.2,347.14s116,131.58,133,195S563.79,684.2,678.81,683.41s162.07-42.61,220-117.6,98.51-10.5,121.8,11.85,46.59,265-341.65,265S120.61,586.38,124.13,337s67.24-326.5,117-332.63S310,59.4,286.15,111.6Z"/><path class="cls-111" d="M285.4,113c-17.12,37.4-32.94,123.91,39.9,235.65S440.93,480.43,457.9,543.87s104.9,142.53,220,141.73,162.44-42.69,220.39-117.73,98.66-11,122,11.37,46.61,265.14-341.83,265.14S119.77,588,123.29,338.42,190.57,11.75,240.35,5.62,309.3,60.72,285.4,113Z"/><path class="cls-112" d="M284.64,114.31c-17.13,37.42-33.13,124,39.75,235.77S439.62,482.14,456.6,545.62s105.21,143,220.35,142.19S839.76,645,897.74,570s98.8-11.48,122.12,10.9,46.64,265.28-342,265.28S118.92,589.58,122.45,339.9s67.31-326.84,117.12-333S308.56,62,284.64,114.31Z"/><path class="cls-113" d="M283.89,115.66c-17.14,37.44-33.31,124,39.6,235.88S438.31,483.85,455.3,547.37,560.82,690.8,676,690,839.2,647.14,897.21,572s99-12,122.28,10.42,46.66,265.42-342.19,265.42S118.08,591.18,121.61,341.37,189,14.35,238.79,8.21,307.82,63.37,283.89,115.66Z"/><path class="cls-114" d="M283.13,117C266,154.47,249.63,241.1,322.58,353S437,485.57,454,549.11,559.83,693,675.09,692.21s163.54-43,221.59-118.11,99.1-12.45,122.44,9.94S1065.81,849.6,676.75,849.6s-559.51-256.81-556-506.76S188.15,15.66,238,9.51,307.08,64.7,283.13,117Z"/><path class="cls-115" d="M282.38,118.37c-17.15,37.48-33.69,124.14,39.3,236.11s114,132.79,131,196.37S558.84,695.2,674.16,694.41s163.91-43,222-118.23,99.25-12.94,122.6,9.47,46.71,265.69-342.55,265.69-559.81-256.95-556.27-507S187.35,17,237.23,10.81,306.33,66,282.38,118.37Z"/><path class="cls-116" d="M281.62,119.72c-17.16,37.5-33.88,124.2,39.15,236.23S434.38,489,451.4,552.6s106.46,144.8,221.84,144,164.28-43.13,222.38-118.36,99.39-13.43,122.76,9,46.74,265.83-342.72,265.83S115.56,596,119.09,345.78,186.54,18.26,236.45,12.1,305.59,67.35,281.62,119.72Z"/><path class="cls-117" d="M280.87,121.08c-17.17,37.52-34.07,124.26,39,236.34S433.07,490.7,450.1,554.35,556.87,699.6,672.31,698.81,837,655.59,895.09,580.32s99.54-13.92,122.92,8.51,46.76,266-342.9,266S114.72,597.59,118.25,347.25,185.74,19.56,235.68,13.4,304.85,68.68,280.87,121.08Z"/><path class="cls-118" d="M280.11,122.43C262.93,160,245.86,246.74,319,358.89s112.81,133.53,129.84,197.2S555.88,701.8,671.38,701s165-43.3,223.18-118.61,99.69-14.41,123.08,8,46.78,266.11-343.08,266.11S113.87,599.19,117.41,348.72,184.93,20.86,234.9,14.7,304.11,70,280.11,122.43Z"/><path class="cls-119" d="M279.36,123.78c-17.19,37.56-34.44,124.37,38.7,236.58s112.4,133.77,129.44,197.48,107.4,146.16,223,145.37S835.83,659.82,894,584.47s99.84-14.89,123.24,7.56S1064.07,858.28,674,858.28,113,600.8,116.57,350.2,184.13,22.16,234.12,16,303.36,71.33,279.36,123.78Z"/><path class="cls-120" d="M278.6,125.14C261.4,162.71,244,249.56,317.15,361.83s112,134,129,197.76S553.9,706.2,669.52,705.41s165.75-43.47,224-118.86,100-15.38,123.4,7.08S1063.73,860,673.46,860,112.19,602.4,115.73,351.67,183.32,23.46,233.34,17.29,302.62,72.66,278.6,125.14Z"/><path class="cls-121" d="M277.85,126.49C260.64,164.08,243,251,316.24,363.3s111.59,134.26,128.65,198,108,147.07,223.7,146.28S834.71,664,893,588.62s100.13-15.87,123.56,6.61,46.86,266.52-343.62,266.52S111.35,604,114.89,353.14,182.52,24.76,232.56,18.59,301.88,74,277.85,126.49Z"/><path class="cls-122" d="M277.09,127.84c-17.22,37.61-35,124.54,38.25,236.92s111.19,134.5,128.25,198.31S551.92,710.6,667.66,709.81s166.48-43.65,224.77-119.12,100.28-16.36,123.72,6.13S1063,863.49,672.36,863.49,110.51,605.6,114.05,354.61,181.72,26.06,231.78,19.89,301.14,75.31,277.09,127.84Z"/><path class="cls-123" d="M276.34,129.2c-17.23,37.63-35.19,124.6,38.1,237S425.21,501,442.29,564.82,550.93,712.8,666.73,712,833.58,668.27,891.9,592.77s100.43-16.85,123.88,5.66,46.91,266.8-344,266.8-562.14-258-558.6-509.14S180.91,27.36,231,21.19,300.39,76.64,276.34,129.2Z"/><path class="cls-124" d="M275.58,130.55C258.35,168.2,240.2,255.2,313.53,367.7S423.9,502.69,441,566.57,549.94,715,665.8,714.21,833,670.39,891.37,594.84s100.58-17.33,124,5.18S1062.34,867,671.26,867,108.82,608.81,112.37,357.55,180.11,28.66,230.23,22.48,299.65,78,275.58,130.55Z"/><path class="cls-125" d="M274.83,131.9c-17.24,37.67-35.57,124.71,37.8,237.27s110,135.23,127.06,199.14S549,717.2,664.88,716.41s167.59-43.91,226-119.49,100.72-17.82,124.2,4.7,47,267.08-344.33,267.08S108,610.41,111.53,359,179.3,30,229.45,23.78,298.91,79.29,274.83,131.9Z"/><path class="cls-126" d="M274.07,133.26C256.82,171,238.31,258,311.72,370.64S421.28,506.12,438.39,570.06,548,719.4,663.95,718.61s168-44,226.36-119.62,100.87-18.31,124.36,4.23,47,267.22-344.51,267.22S107.14,612,110.69,360.5s67.8-329.23,118-335.42S298.17,80.62,274.07,133.26Z"/><path class="cls-127" d="M273.32,134.61c-17.26,37.71-35.95,124.82,37.5,237.5S420,507.83,437.08,571.81,547,721.6,663,720.81s168.32-44.08,226.76-119.74,101-18.8,124.52,3.75,47,267.36-344.69,267.36S106.3,613.61,109.85,362s67.84-329.4,118-335.59S297.42,81.94,273.32,134.61Z"/><path class="cls-128" d="M272.56,136c-17.27,37.73-36.13,124.88,37.35,237.61s108.76,136,125.88,200S546,723.8,662.09,723s168.69-44.17,227.16-119.87,101.17-19.29,124.68,3.27,47,267.5-344.87,267.5S105.46,615.21,109,363.44,176.89,33.87,227.11,27.67,296.68,83.27,272.56,136Z"/><path class="cls-129" d="M271.81,137.32C254.53,175.07,235.48,262.26,309,375S417.35,511.25,434.48,575.3,545,726,661.16,725.21s169.06-44.25,227.56-120S990,585.43,1013.56,608s47.05,267.63-345,267.63S104.62,616.82,108.17,364.91,176.08,35.17,226.33,29,295.94,84.6,271.81,137.32Z"/><path class="cls-130" d="M271.05,138.67c-17.29,37.77-36.51,125,37,237.84S416,513,433.18,577,544,728.21,660.23,727.41s169.43-44.34,228-120.12,101.46-20.26,125,2.32S1060.26,877.37,668,877.37s-564.19-259-560.63-511S175.28,36.47,225.55,30.27,295.2,85.92,271.05,138.67Z"/><path class="cls-131" d="M270.3,140c-17.3,37.79-36.7,125.05,36.9,238s107.54,136.69,124.69,200.8S543,730.41,659.3,729.61,829.1,685.18,887.66,609.36s101.61-20.75,125.16,1.84,47.1,267.91-345.4,267.91S102.93,620,106.49,367.85s68-330.09,118.28-336.29S294.45,87.25,270.3,140Z"/><path class="cls-132" d="M269.54,141.38c-17.31,37.81-36.89,125.11,36.75,238.07S413.42,516.39,430.58,580.54,542,732.61,658.37,731.8s170.16-44.51,228.75-120.37,101.76-21.24,125.32,1.37,47.12,268-345.58,268S102.09,621.62,105.65,369.33,173.67,39.07,224,32.86,293.71,88.57,269.54,141.38Z"/><path class="cls-133" d="M268.79,142.73c-17.32,37.83-37.07,125.16,36.6,238.19S412.11,518.1,429.28,582.28,541,734.81,657.45,734,828,689.4,886.6,613.5s101.91-21.73,125.48.89,47.15,268.19-345.76,268.19S101.25,623.22,104.81,370.8,172.87,40.37,223.22,34.16,293,89.9,268.79,142.73Z"/><path class="cls-134" d="M268,144.09c-17.32,37.85-37.26,125.22,36.45,238.3S410.8,519.82,428,584,540.06,737,656.52,736.2s170.9-44.69,229.55-120.63,102.05-22.22,125.64.41,47.17,268.33-345.94,268.33S100.41,624.83,104,372.27,172.06,41.67,222.44,35.46,292.23,91.23,268,144.09Z"/><path class="cls-135" d="M267.28,145.44c-17.33,37.87-37.45,125.28,36.3,238.42s105.92,137.67,123.1,201.91S539.07,739.21,655.59,738.4s171.26-44.77,229.95-120.75,102.2-22.7,125.8-.06,47.2,268.47-346.12,268.47S99.57,626.43,103.14,373.74,171.26,43,221.66,36.76,291.48,92.55,267.28,145.44Z"/><path class="cls-136" d="M266.52,146.79c-17.34,37.89-37.64,125.34,36.15,238.53S408.19,523.24,425.38,587.52,538.08,741.41,654.66,740.6,826.29,695.74,885,619.73s102.35-23.19,126-.54,47.22,268.6-346.3,268.6S98.73,628,102.3,375.21,170.45,44.27,220.88,38.05,290.74,93.88,266.52,146.79Z"/><path class="cls-137" d="M265.77,148.15c-17.35,37.91-37.83,125.39,36,238.65S406.88,525,424.07,589.26s113,154.34,229.66,153.54,172-44.95,230.74-121,102.5-23.68,126.12-1,47.25,268.74-346.48,268.74S97.88,629.63,101.46,376.68,169.65,45.57,220.1,39.35,290,95.21,265.77,148.15Z"/><path class="cls-138" d="M265,149.5C247.65,187.43,227,275,300.86,388.27S405.57,526.67,422.77,591s113.33,154.8,230,154,172.37-45,231.14-121.13,102.64-24.17,126.28-1.49,47.27,268.88-346.66,268.88S97,631.23,100.62,378.15,168.84,46.87,219.33,40.65,289.26,96.53,265,149.5Z"/><path class="cls-139" d="M264.26,150.86c-17.37,37.95-38.2,125.51,35.7,238.88s104.3,138.64,121.52,203S535.11,748,651.87,747.2s172.73-45.12,231.54-121.26,102.79-24.66,126.44-2S1057.15,893,663,893,96.2,632.84,99.78,379.63,168,48.17,218.55,41.95,288.51,97.86,264.26,150.86Z"/><path class="cls-140" d="M263.5,152.21c-17.38,38-38.39,125.56,35.55,239s103.9,138.89,121.12,203.3,114,155.71,230.77,154.9S824,704.2,882.88,628s102.94-25.15,126.6-2.44,47.32,269.16-347,269.16S95.36,634.44,98.94,381.1,167.23,49.47,217.77,43.24,287.77,99.18,263.5,152.21Z"/><path class="cls-141" d="M262.75,153.56c-17.39,38-38.58,125.62,35.4,239.11S401.64,531.81,418.87,596.25,533.13,752.41,650,751.6,823.49,706.31,882.35,630.1s103.09-25.63,126.76-2.92,47.34,269.3-347.19,269.3S94.52,636,98.1,382.57,166.43,50.77,217,44.54,287,100.51,262.75,153.56Z"/><path class="cls-142" d="M262,154.92c-17.4,38-38.77,125.68,35.25,239.23S400.33,533.52,417.57,598,532.14,754.61,649.09,753.8s173.84-45.38,232.73-121.63,103.24-26.12,126.92-3.4,47.37,269.44-347.37,269.44S93.68,637.64,97.26,384s68.37-332,119-338.2S286.29,101.84,262,154.92Z"/><path class="cls-143" d="M261.24,156.27c-17.41,38-39,125.73,35.1,239.34S399,535.23,416.27,599.74,531.16,756.81,648.16,756s174.21-45.47,233.13-121.76,103.38-26.61,127.08-3.87,47.39,269.57-347.55,269.57-568-260.7-564.4-514.43,68.4-332.14,119-338.38S285.54,103.16,261.24,156.27Z"/><path class="cls-144" d="M260.48,157.62c-17.41,38-39.14,125.79,34.95,239.46S397.71,536.94,415,601.48,530.17,759,647.23,758.2,821.8,712.65,880.76,636.32,984.29,609.22,1008,632s47.42,269.71-347.73,269.71S92,640.85,95.58,387,164,54.68,214.65,48.43,284.8,104.49,260.48,157.62Z"/><path class="cls-145" d="M259.73,159C242.3,197,220.4,284.82,294.52,398.55S396.4,538.66,413.67,603.23s115.51,158,232.64,157.17,174.94-45.64,233.93-122,103.68-27.59,127.4-4.83,47.44,269.85-347.91,269.85-568.57-261-565-515S163.21,56,213.88,49.73,284.06,105.82,259.73,159Z"/><path class="cls-146" d="M259,160.33c-17.43,38.08-39.52,125.9,34.65,239.69S395.09,540.37,412.36,605s115.82,158.43,233,157.63S820.68,716.87,879.7,640.46s103.83-28.07,127.56-5.3,47.47,270-348.09,270S90.31,644,93.9,389.93,162.41,57.28,213.1,51,283.32,107.14,259,160.33Z"/><path class="cls-147" d="M258.22,161.68c-17.44,38.1-39.71,126,34.5,239.8S393.78,542.08,411.06,606.72,527.2,765.61,644.44,764.8,820.12,719,879.17,642.54s104-28.56,127.72-5.78,47.49,270.13-348.26,270.13S89.47,645.65,93.06,391.4,161.6,58.58,212.32,52.33,282.57,108.47,258.22,161.68Z"/><path class="cls-148" d="M257.46,163C240,201.16,217.57,289.06,291.81,403s100.66,140.84,118,205.51S526.21,767.81,643.52,767s176-45.9,235.12-122.39,104.12-29.05,127.88-6.26S1054,908.62,658.07,908.62,88.63,647.25,92.22,392.87s68.58-333,119.32-339.25S281.83,109.8,257.46,163Z"/><path class="cls-149" d="M256.71,164.39c-17.46,38.14-40.08,126.07,34.2,240S391.16,545.51,408.46,610.21,525.22,770,642.59,769.2,819,723.21,878.1,646.69s104.27-29.54,128-6.73,47.54,270.41-348.62,270.41-569.74-261.5-566.14-516S160,61.18,210.76,54.92,281.09,111.12,256.71,164.39Z"/><path class="cls-150" d="M256,165.75c-17.47,38.16-40.27,126.13,34,240.15S389.85,547.22,407.16,612,524.23,772.21,641.66,771.4s176.78-46.07,235.92-122.64,104.42-30,128.2-7.21S1053.34,912.1,657,912.1,86.94,650.46,90.54,395.81,159.19,62.48,210,56.22,280.35,112.45,256,165.75Z"/><path class="cls-151" d="M255.2,167.1c-17.48,38.18-40.46,126.19,33.9,240.26S388.54,548.93,405.86,613.7s117.39,160.7,234.87,159.9S817.88,727.44,877,650.83s104.56-30.52,128.36-7.69,47.59,270.68-349,270.68S86.1,652.06,89.7,397.28,158.38,63.78,209.2,57.52,279.6,113.77,255.2,167.1Z"/><path class="cls-152" d="M254.44,168.45C237,206.65,213.8,294.7,288.19,408.83s99,141.81,116.37,206.62S522.26,776.61,639.8,775.8s177.51-46.25,236.71-122.89,104.71-31,128.52-8.16,47.61,270.82-349.16,270.82S85.26,653.66,88.86,398.76,157.58,65.08,208.43,58.81,278.86,115.1,254.44,168.45Z"/><path class="cls-153" d="M253.69,169.81c-17.49,38.22-40.83,126.3,33.6,240.49s98.63,142.06,116,206.9,118,161.61,235.61,160.8S816.75,731.67,876,655s104.86-31.49,128.68-8.64,47.64,271-349.34,271S84.42,655.26,88,400.23,156.77,66.38,207.65,60.11,278.12,116.43,253.69,169.81Z"/><path class="cls-154" d="M252.93,171.16c-17.5,38.24-41,126.36,33.45,240.61S384.61,554.07,402,618.94,520.28,781,637.94,780.2s178.25-46.42,237.51-123.14,105-32,128.84-9.12S1051.95,919,654.77,919,83.58,656.87,87.18,401.7,156,67.68,206.87,61.41,277.38,117.75,252.93,171.16Z"/><path class="cls-155" d="M252.18,172.51c-17.51,38.26-41.21,126.41,33.3,240.72S383.3,555.78,400.65,620.69,519.29,783.21,637,782.4s178.62-46.51,237.9-123.27,105.16-32.47,129-9.59,47.69,271.24-349.69,271.24S82.74,658.47,86.34,403.17,155.16,69,206.09,62.71,276.63,119.08,252.18,172.51Z"/><path class="cls-156" d="M251.42,173.87C233.9,212.15,210,300.34,284.57,414.71S382,557.49,399.35,622.43s118.95,163,236.73,162.17,179-46.59,238.3-123.4,105.3-33,129.16-10.07,47.71,271.38-349.87,271.38S81.89,660.07,85.5,404.64,154.36,70.29,205.31,64,275.89,120.41,251.42,173.87Z"/><path class="cls-157" d="M250.67,175.22c-17.53,38.3-41.59,126.53,33,241s97,143,114.39,208S517.31,787.61,635.16,786.8s179.35-46.68,238.7-123.52,105.45-33.44,129.32-10.55,47.73,271.52-350.05,271.52S81.05,661.67,84.66,406.11,153.56,71.59,204.53,65.3,275.15,121.73,250.67,175.22Z"/><path class="cls-158" d="M249.91,176.57c-17.54,38.32-41.77,126.59,32.85,241.07s96.61,143.28,114,208.28S516.32,789.81,634.23,789s179.72-46.77,239.1-123.65,105.6-33.93,129.48-11S1050.56,926,652.58,926,80.21,663.27,83.82,407.58s68.93-334.7,119.93-341S274.41,123.06,249.91,176.57Z"/><path class="cls-159" d="M249.16,177.93c-17.55,38.34-42,126.64,32.7,241.19s96.2,143.52,113.6,208.56S515.33,792,633.3,791.2s180.09-46.85,239.5-123.77,105.75-34.42,129.64-11.5S1050.22,927.72,652,927.72,79.37,664.88,83,409.06s69-334.87,120-341.16S273.66,124.38,249.16,177.93Z"/><path class="cls-160" d="M248.4,179.28C230.84,217.64,206.25,306,281,420.58s95.8,143.76,113.2,208.83,120.2,164.79,238.22,164,180.46-46.94,239.89-123.9,105.89-34.91,129.8-12,47.81,271.93-350.59,271.93S78.53,666.48,82.14,410.53s69-335,120.06-341.33S272.92,125.71,248.4,179.28Z"/><path class="cls-161" d="M247.65,180.64C230.08,219,205.31,307.39,280,422.05s95.39,144,112.8,209.11S513.36,796.41,631.44,795.6s180.82-47,240.29-124,106-35.4,130-12.45,47.83,272.07-350.77,272.07S77.69,668.08,81.3,412s69-335.21,120.12-341.51S272.18,127,247.65,180.64Z"/><path class="cls-162" d="M246.89,182c-17.58,38.4-42.52,126.81,32.25,241.53s95,144.25,112.41,209.39,120.82,165.7,239,164.89S811.7,750.68,871.2,673.65s106.19-35.89,130.12-12.93,47.86,272.21-350.94,272.21S76.84,669.68,80.46,413.47,149.53,78.09,200.64,71.79,271.44,128.36,246.89,182Z"/><path class="cls-163" d="M246.14,183.34c-17.58,38.42-42.71,126.87,32.1,241.65s94.58,144.49,112,209.67S511.38,800.81,629.58,800s181.56-47.2,241.09-124.28S977,639.35,1001,662.32s47.88,272.35-351.12,272.35S76,671.28,79.62,414.94,148.73,79.39,199.86,73.09,270.69,129.69,246.14,183.34Z"/><path class="cls-164" d="M245.38,184.7c-17.59,38.44-42.9,126.93,32,241.76S371.51,571.2,388.95,636.4,510.39,803,628.66,802.2s181.93-47.29,241.49-124.4,106.49-36.86,130.44-13.88,47.9,272.49-351.3,272.49-574.12-263.51-570.5-520,69.14-335.72,120.3-342S270,131,245.38,184.7Z"/><path class="cls-165" d="M244.63,186c-17.6,38.45-43.09,127,31.8,241.88s93.77,145,111.22,210.22S509.4,805.21,627.73,804.4,810,757,869.61,679.87s106.63-37.35,130.6-14.36,47.93,272.62-351.48,272.62S74.32,674.49,77.94,417.89,147.12,82,198.31,75.68,269.21,132.34,244.63,186Z"/><path class="cls-166" d="M243.87,187.4c-17.61,38.47-43.28,127,31.65,242s93.37,145.23,110.82,210.5S508.41,807.41,626.8,806.6s182.66-47.46,242.28-124.66,106.78-37.84,130.76-14.83,48,272.76-351.66,272.76S73.48,676.09,77.1,419.36,146.31,83.29,197.53,77,268.47,133.67,243.87,187.4Z"/><path class="cls-167" d="M243.12,188.76c-17.62,38.49-43.46,127.1,31.5,242.11s93,145.47,110.43,210.77,122.38,168,240.83,167.16S808.9,761.25,868.55,684s106.93-38.33,130.92-15.31,48,272.9-351.84,272.9S72.64,677.69,76.26,420.83,145.51,84.59,196.75,78.28,267.72,135,243.12,188.76Z"/><path class="cls-168" d="M242.36,190.11c-17.63,38.51-43.65,127.15,31.35,242.22s92.56,145.71,110,211.05S506.43,811.81,624.94,811,808.34,763.36,868,686.09,975.1,647.28,999.1,670.3s48,273-352,273S71.79,679.29,75.42,422.3,144.71,85.89,196,79.57,267,136.32,242.36,190.11Z"/><path class="cls-169" d="M241.61,191.46C224,230,197.76,318.67,272.81,433.8s92.15,146,109.63,211.33S505.45,814,624,813.2s183.77-47.72,243.48-125,107.22-39.3,131.24-16.26,48,273.18-352.2,273.18S71,680.9,74.58,423.77,143.9,87.19,195.19,80.87,266.24,137.65,241.61,191.46Z"/><path class="cls-170" d="M240.85,192.82c-17.65,38.55-44,127.27,31.05,242.45s91.75,146.2,109.24,211.6S504.46,816.21,623.08,815.4,807.22,767.59,867,690.24s107.37-39.79,131.4-16.74S1046.41,946.82,646,946.82,70.11,682.5,73.74,425.24,143.1,88.49,194.41,82.17,265.5,139,240.85,192.82Z"/><path class="cls-171" d="M240.1,194.17C222.44,232.74,195.88,321.5,271,436.74s91.34,146.44,108.84,211.88,123.63,169.79,242.32,169,184.5-47.89,244.27-125.28S973.95,652,998,675.1s48.08,273.46-352.55,273.46S69.27,684.1,72.9,426.71,142.29,89.8,193.63,83.47,264.75,140.3,240.1,194.17Z"/><path class="cls-172" d="M239.34,195.52c-17.66,38.59-44.4,127.38,30.75,242.68S361,584.9,378.54,650.37,502.48,820.61,621.23,819.8s184.87-48,244.67-125.41,107.67-40.77,131.72-17.69,48.1,273.59-352.73,273.59S68.43,685.7,72.06,428.19,141.49,91.1,192.86,84.76,264,141.63,239.34,195.52Z"/><path class="cls-173" d="M238.59,196.88c-17.67,38.61-44.59,127.44,30.6,242.8s90.53,146.93,108,212.43S501.49,822.81,620.3,822s185.24-48.07,245.07-125.54,107.81-41.25,131.88-18.17S1045.37,952,644.33,952,67.59,687.3,71.22,429.66,140.68,92.4,192.08,86.06,263.27,143,238.59,196.88Z"/><path class="cls-174" d="M237.83,198.23c-17.68,38.63-44.78,127.49,30.45,242.91s90.13,147.18,107.65,212.71S500.5,825,619.37,824.2,805,776,864.84,698.53s108-41.74,132-18.65S1045,953.76,643.78,953.76s-577-264.86-573.4-522.63S139.88,93.7,191.3,87.36,262.53,144.28,237.83,198.23Z"/><path class="cls-175" d="M237.08,199.59c-17.69,38.65-45,127.55,30.3,243S357.1,590,374.63,655.6,499.51,827.21,618.44,826.4s186-48.24,245.86-125.79,108.11-42.23,132.2-19.12,48.17,274-353.27,274S65.9,690.51,69.55,432.6,139.07,95,190.52,88.66,261.78,145.61,237.08,199.59Z"/><path class="cls-176" d="M236.32,200.94c-17.7,38.67-45.16,127.61,30.15,243.14s89.32,147.66,106.86,213.27S498.52,829.41,617.51,828.6s186.34-48.33,246.26-125.91S972,660,996.13,683.08s48.2,274.15-353.45,274.15S65.06,692.11,68.71,434.07,138.27,96.3,189.74,90,261,146.93,236.32,200.94Z"/><path class="cls-177" d="M235.57,202.29C217.86,241,190.22,330,265.57,445.55S354.48,593.46,372,659.09s125.5,172.52,244.55,171.7,186.71-48.41,246.66-126,108.41-43.21,132.52-20.07S1044,959,642.13,959,64.22,693.71,67.87,435.54,137.46,97.6,189,91.25,260.3,148.26,235.57,202.29Z"/><path class="cls-178" d="M234.81,203.65C217.09,242.36,189.28,331.37,264.66,447s88.51,148.15,106.07,213.82S496.55,833.81,615.65,833s187.07-48.5,247.06-126.17,108.55-43.7,132.68-20.55,48.25,274.43-353.8,274.43S63.38,695.31,67,437,136.66,98.9,188.18,92.55,259.56,149.58,234.81,203.65Z"/></g></g></g><g id="man"><path class="cls-179" d="M257.09,307.29,89.79,204a12,12,0,0,1-5.43-9.4l-5.86-1.92c1.89-1.71,8.31-5.93,11.31-4.2l170.77,98.58a12,12,0,0,1,5.43,9.4l0,3C266,302.9,263.68,304.5,257.09,307.29Z"/><path class="cls-93" d="M253.63,306.73,82.87,208.15a12,12,0,0,1-5.43-9.4l0-3c0-3.46,2.43-4.87,5.43-3.14l170.77,98.58a12,12,0,0,1,5.43,9.4l0,3C259.06,307.05,256.63,308.46,253.63,306.73Z"/><path class="cls-180" d="M405.37,252.9c0-7.08-5-15.69-11.11-19.24L205.84,125.31a13.94,13.94,0,0,0-13.85,0l-20.26,11.54,32.72,18.89L378.21,719.84v22.39l20.25-11.75a13.94,13.94,0,0,0,6.94-12.06Z"/><path class="cls-181" d="M370.42,741.42l-191-110.25c-6.13-3.54-11.11-12.15-11.11-19.24l.05-467.85c0-7.08,5-10,11.11-6.41l191,110.25c6.13,3.54,11.11,12.15,11.11,19.24L381.53,735C381.53,742.09,376.55,745,370.42,741.42Z"/><path class="cls-182" d="M182.94,555.54l0-388.86c0-3.71,2.6-5.21,5.81-3.36l172.34,99.47a12.84,12.84,0,0,1,5.81,10.07l0,388.86c0,3.71-2.6,5.21-5.81,3.36L188.75,565.6A12.84,12.84,0,0,1,182.94,555.54Z"/><polygon class="cls-29" points="345.16 578.83 204.72 497.87 204.72 507.47 345.16 588.43 345.16 578.83"/><polygon class="cls-29" points="327.51 585.58 204.72 514.79 204.72 524.39 327.51 595.18 327.51 585.58"/><polygon class="cls-29" points="297.89 585.44 204.72 531.72 204.72 541.32 297.89 595.03 297.89 585.44"/><polygon class="cls-29" points="312.7 610.9 204.72 548.65 204.72 558.25 312.7 620.5 312.7 610.9"/><polygon class="cls-183" points="271.78 281.89 292.88 353.35 340.09 390.1 305.92 416.51 313.98 486.31 271.76 431.19 229.53 437.57 237.61 377.08 203.45 311.23 250.66 328.97 271.78 281.89"/><path class="cls-184" d="M288.56,658.27c0,12.85-7.52,18.93-16.8,13.58S255,651.73,255,638.88s7.52-18.93,16.8-13.58S288.57,645.41,288.56,658.27Z"/><path class="cls-185" d="M451.69,420.16,305.71,330c-2.62-1.51-9.85-71.63-9.85-71.63,1.65-1.49,7.25-5.17,9.87-3.66l149,86a10.47,10.47,0,0,1,4.74,8.21l0,64.35C459.46,416.33,457.44,417.73,451.69,420.16Z"/><path class="cls-186" d="M448.67,419.67l-149-86a10.47,10.47,0,0,1-4.74-8.21l0-64.35c0-3,2.12-4.25,4.74-2.74l149,86a10.47,10.47,0,0,1,4.74,8.21l0,64.35C453.41,420,451.29,421.18,448.67,419.67Z"/><polygon class="cls-29" points="433.65 359.06 436.62 369.12 443.27 374.29 438.46 378.01 439.6 387.84 433.65 380.08 427.71 380.98 428.84 372.46 424.03 363.19 430.68 365.69 433.65 359.06"/><polygon class="cls-29" points="403.92 341.84 406.89 351.9 413.54 357.07 408.73 360.79 409.86 370.62 403.92 362.86 397.97 363.76 399.11 355.24 394.3 345.97 400.94 348.47 403.92 341.84"/><polygon class="cls-29" points="374.18 324.62 377.15 334.68 383.8 339.85 378.99 343.57 380.13 353.4 374.18 345.64 368.24 346.54 369.37 338.02 364.56 328.75 371.21 331.25 374.18 324.62"/><polygon class="cls-29" points="344.45 307.4 347.42 317.46 354.07 322.63 349.26 326.35 350.39 336.18 344.45 328.42 338.5 329.32 339.64 320.8 334.83 311.53 341.48 314.03 344.45 307.4"/><polygon class="cls-29" points="314.71 290.18 317.69 300.24 324.33 305.41 319.52 309.13 320.66 318.96 314.71 311.2 308.77 312.1 309.9 303.58 305.1 294.31 311.74 296.81 314.71 290.18"/><ellipse id="shadow" class="cls-187" cx="98.01" cy="806.71" rx="21.68" ry="98.03" transform="translate(-710.78 885.77) rotate(-88.66)"/><ellipse id="shadow-2" data-name="shadow" class="cls-187" cx="98.01" cy="806.71" rx="8.8" ry="78.85" transform="translate(-710.78 885.77) rotate(-88.66)"/><path class="cls-188" d="M57.73,598.89c-12.09,7.5-11,9.19-8.18,37.18s5.61,59.12,10.64,66.57,17.61,7.55,21.64-1.72,5.4-68.91,7.06-85.53S67.11,593.08,57.73,598.89Z"/><path class="cls-189" d="M84.12,629.74c-7,12-8,27.78-8.6,41.34-.38,8.2,1,26.68,2.63,34.53a11.68,11.68,0,0,0,3.67-4.69c3.24-7.45,4.76-51.21,6.1-72.56C86.64,628.78,85.38,629.24,84.12,629.74Z"/><path class="cls-188" d="M72.53,794.79c-7.53,3.45-10.58,5-11.17-4.1s-3.91-82.41-4-91c-.21-37.59,20.26-14.62,23.85-5.34s.9,47-1.33,68.87S74.74,793.77,72.53,794.79Z"/><path class="cls-189" d="M81.25,694.38c-.8-2.07-2-15.61-5.58-15.22.72,6.19,2.26,23.46,1.88,30.25-.61,11-1.48,22-1.83,33-.38,12-.75,24-1.29,36-.21,4.75-.16,9.74-.46,14.65,2-3.48,4.18-12.49,6-29.88C82.15,741.37,84.84,703.66,81.25,694.38Z"/><path class="cls-188" d="M92.63,607.82C81.31,616.44,69.92,626.1,77,660.42,82.74,688,87.25,718.78,93,725.71s18.25,5.83,21.38-3.78,1.11-80.94,1.16-97.65S101.41,601.14,92.63,607.82Z"/><path class="cls-188" d="M107.53,814.57c-5.15,1.78-11.25,3.89-12.13-5.14s-5.72-80.84-6-89.38c-1.43-37.13,19.78-15.27,23.66-6.11S113,761,111.44,783,109.83,813.78,107.53,814.57Z"/><path class="cls-188" d="M92.47,603c-11.89-3.52-27.27-8.32-37.77-.77-9.3,6.67-6.22,16.27-1.79,26,7.29,16,38.66,16.73,47.6,17.95s15.4-16.3,15-22.39C114.65,611.27,115.39,609.78,92.47,603Z"/><path class="cls-190" d="M79.56,638.72a.5.5,0,0,1-.26-.07l-7-4.18a.5.5,0,0,1-.24-.4c0-.45-.64-11.15-.39-14.25a1.52,1.52,0,0,1,.63-1.1c2.55-1.93,13.36.14,14.58.38a.5.5,0,0,1,.38.63c-.41,1.47-.23,3.77,0,6.21a33.66,33.66,0,0,1,0,7.6.51.51,0,0,1-.1.23,16.22,16.22,0,0,1-7.46,4.94Zm-6.54-5,6.61,3.93a15.44,15.44,0,0,0,6.67-4.43,33.73,33.73,0,0,0-.08-7.24,25.51,25.51,0,0,1-.05-6c-3.53-.66-11.51-1.8-13.28-.46a.51.51,0,0,0-.24.38C72.42,622.66,72.92,632,73,633.74Z"/><path class="cls-190" d="M57.16,634.76a.5.5,0,0,1-.35-.14l-4.6-4.52a.5.5,0,0,1-.14-.29c-.07-.47-1.6-11.66.08-15,1.57-3.13,9.29.47,10.17.89a.5.5,0,0,1,.27.58c-.6,2.24-.24,6.13.12,9.9.12,1.23.23,2.46.32,3.65a.5.5,0,0,1-.08.31,11.78,11.78,0,0,1-5.62,4.6ZM53,629.5l4.25,4.17A11.15,11.15,0,0,0,62,629.73c-.08-1.13-.19-2.3-.3-3.46-.36-3.81-.7-7.42-.19-9.84-3-1.38-7.66-2.81-8.48-1.17C51.61,618.12,52.85,628.08,53,629.5Z"/><path class="cls-190" d="M114.76,629.77h-.08c-5.6-1-11.68-6.43-13.56-12.22a.5.5,0,1,1,1-.31c1.75,5.37,7.6,10.66,12.78,11.54a.5.5,0,0,1-.08,1Z"/><path class="cls-29" d="M75.42,500.54c3.18,0,32.84-5.63,57-15.87,18.79-8,12.38-19.26,4.69-20.76s-31.45,3.38-44.43,7.14c-10.51,3-22.48,6.16-25.69,15.32C64.13,494.64,70.66,500.55,75.42,500.54Z"/><path class="cls-93" d="M72.89,474.94c2.18-1.17,15.81-6.36,15.81-6.36l9.62,8.37-15.5,7.19Z"/><path class="cls-29" d="M144.42,474c.73-10.87,3.41-45.72,1.74-57.61s-9.56-5-11.19-1.9-11.28,57.66-11.62,65.22S143.67,485.11,144.42,474Z"/><path class="cls-29" d="M145,412.55c-1.51-7.51-1.94-13.54-7.34-14.73s-10.05,3.19-9.89,7.41a34.94,34.94,0,0,0,1.81,10.58c1.1,3.21,2.18,4.76,4.46,7.74S145.53,415.2,145,412.55Z"/><path class="cls-93" d="M70.49,476.61c-9.44,9.56-11.18,27.48-12,51.47s-6,57.56-9,68.6-10,13,12.91,23.22,52.08,3.59,54.87-1.08,3.62-22.65,3.11-39.83,4.18-39,7.71-51.9,7.18-20.68,4.4-25.63S70.49,476.61,70.49,476.61Z"/><path class="cls-93" d="M109,483.24c-10.59-4.91-28.7-11.74-36.14-8.3s-4.78,12.74,20.16,24.26,33.23,11.69,38,6.66S129,492.52,109,483.24Z"/><path class="cls-29" d="M124.68,436.72a109.81,109.81,0,0,0-.1,18.81c.31,4.09-3.39,3.76-3.14,5.81s-.1,5.3-3.2,8.88-4.27,3.26-5.4,8.42.1,9.36-6.58,8.56-17.46-7.29-17.46-7.29A74,74,0,0,0,94.1,466c1.79-7.09.09-23.45,11.21-29S124.68,436.72,124.68,436.72Z"/><path class="cls-191" d="M98,453.19c4-2.16,8.8-4.11,13.46-4s8.23,1.86,12.82-.93a99.85,99.85,0,0,1,.44-11.55s-8.24-5.18-19.37.33c-6.72,3.33-8.75,10.61-9.71,17.42C96.47,454,97.28,453.55,98,453.19Z"/><path class="cls-191" d="M107.44,478.81a41.43,41.43,0,0,1,4.67-2.63,8.19,8.19,0,0,0,2.6-2.52c-.09.06-.17.13-.26.19-3,1.74-6.13,1.84-9.47,1.28-4.66-.78-8.59-1.95-13.19-2-1.53,3.92-3,6.77-3,6.77a77.63,77.63,0,0,0,13.65,6.4A12,12,0,0,1,107.44,478.81Z"/><path class="cls-188" d="M85.26,422.45c12.14-7.3,18.59-6.19,29.71-2.24s17.9,10.95,13.71,17.41c-7.28,11.23-14,12.15-14,12.15s-6.77-.78-7.24,4,4,7,1.7,11.73-10.4,11.31-16.72,10.6S77.2,462.79,75.65,453.15,76.69,427.6,85.26,422.45Z"/><path class="cls-29" d="M117.42,521.26c3.15.4,33.29-1.37,58.6-8.42,19.66-5.48,15.06-19.09,7.62-21.56s-31.93.89-45.29,3c-10.81,1.67-25.52,3.94-29.88,12.61C104.55,514.67,112.7,520.66,117.42,521.26Z"/><polygon class="cls-92" points="188.88 289.82 209.48 359.56 255.55 395.42 222.21 421.2 230.07 489.32 215.26 497.87 188.87 435.52 147.66 441.75 155.53 382.72 107.4 327 122.2 318.45 168.27 335.77 174.08 298.37 188.88 289.82"/><polygon class="cls-93" points="174.08 298.37 194.67 368.1 240.74 403.97 207.4 429.75 215.26 497.87 174.06 444.07 132.85 450.3 140.73 391.27 107.4 327 153.47 344.32 174.08 298.37"/><polygon class="cls-94" points="194.67 368.1 209.48 359.56 188.88 289.82 174.08 298.37 194.67 368.1"/><polygon class="cls-95" points="255.55 395.42 240.74 403.97 207.4 429.75 222.21 421.2 255.55 395.42"/><path class="cls-29" d="M187.82,506.57c6.09-9,27.43-40.72,31.87-51.87s-5.8-9.11-8.77-7.2-35.49,41.18-39.54,47.58S180.64,517.2,187.82,506.57Z"/><path class="cls-29" d="M220.6,450.79c2.42-7.27,5-12.72.93-16.44s-10.31-2.22-12.26,1.52-2.06,5.47-2.69,8.8,1.82,5.23,2.32,9S219.74,453.35,220.6,450.79Z"/><path class="cls-29" d="M135.46,407.82a22.11,22.11,0,0,1,0,6.58c-.36,2.13-3.26,5-4.12,4.7s-2.59-4.41-1.81-5.62,2.4-5.39,3.17-6.33S135.08,405.68,135.46,407.82Z"/><path class="cls-93" d="M123.28,491.11c3.75,1.43,21.6,1.5,21.6,1.5a53.37,53.37,0,0,1,3.23,12.6c.52,5.84-1,14.32-1,14.32s-17.46,1.69-22.16,2.24-13.73,1.06-17.88-7.22,4-16.88,7.73-19.16A76.09,76.09,0,0,1,123.28,491.11Z"/><path class="cls-92" d="M136.77,515.14c-2.94,0-5.79-.51-8.71-.74-6.93-.54-11,2.52-14.33,8.16a63.87,63.87,0,0,0-7.15,19.75c-3.6,17.95.34,36.58-2,54.73-1.06,8.37-2.54,16.85-6.46,24.4-.63,1.22-1.32,2.41-2,3.58,11.09-.85,19.65-3.79,21.09-6.22,2.78-4.67,3.62-22.65,3.11-39.83s4.18-39,7.71-51.9c.57-2.07,1.14-4,1.68-5.82,6.91-.71,17.42-1.73,17.42-1.73s.45-2.56.77-5.83A45.26,45.26,0,0,1,136.77,515.14Z"/><polygon class="cls-93" points="95.33 810.57 93.84 815.51 94.74 818.8 128.07 818.01 128.35 815.88 125.93 813.41 116.7 810.59 109.52 808.99 99.89 809.1 95.33 810.57"/><polygon class="cls-93" points="62.11 795.08 59.22 799.36 59.11 802.76 69.58 802.76 91.1 801.83 91.46 798.9 89.12 796.4 79.69 794.83 73.82 793.34 68.08 793.74 62.11 795.08"/><path class="cls-192" d="M408,620.17,262,530c-2.62-1.51-4.74-2.77-4.74-5.79l-5.11-63.43c1.65-1.49,7.25-5.17,9.87-3.66l149,86a10.47,10.47,0,0,1,4.74,8.21l0,61.94C415.75,616.34,413.73,617.74,408,620.17Z"/><path class="cls-193" d="M405,619.68l-149-86a10.47,10.47,0,0,1-4.74-8.21l0-61.94c0-3,2.12-4.25,4.74-2.74l149,86a10.47,10.47,0,0,1,4.74,8.21l0,61.94C409.7,620,407.58,621.19,405,619.68Z"/><polygon class="cls-93" points="390.31 561.28 393.28 571.34 399.93 576.51 395.12 580.23 396.25 590.06 390.31 582.3 384.36 583.2 385.5 574.68 380.69 565.41 387.34 567.91 390.31 561.28"/><polygon class="cls-93" points="360.58 544.06 363.55 554.12 370.19 559.29 365.38 563.01 366.52 572.84 360.57 565.08 354.63 565.98 355.76 557.46 350.96 548.19 357.6 550.69 360.58 544.06"/><polygon class="cls-93" points="330.84 526.84 333.81 536.9 340.46 542.07 335.65 545.79 336.78 555.62 330.84 547.86 324.89 548.75 326.03 540.24 321.22 530.97 327.87 533.47 330.84 526.84"/><polygon class="cls-93" points="301.11 509.62 304.08 519.68 310.72 524.85 305.91 528.57 307.05 538.4 301.1 530.64 295.16 531.53 296.3 523.02 291.49 513.75 298.13 516.25 301.11 509.62"/><polygon class="cls-93" points="271.37 492.4 274.34 502.46 280.99 507.63 276.18 511.35 277.31 521.18 271.37 513.42 265.43 514.32 266.56 505.8 261.75 496.53 268.4 499.03 271.37 492.4"/></g></g></g></g></svg>