<svg id="Layer_1" data-name="Layer 1" xmlns="http://www.w3.org/2000/svg" viewBox="0 0 445 436.12309"><defs><style>.cls-1{fill:#d66600;}.cls-2{fill:#ff7f00;}.cls-3{fill:#aa5100;}.cls-4{fill:#81d9fc;}.cls-5{fill:#b3e9ff;}.cls-6{fill:#0d5e9d;}.cls-7{fill:#f9f9f9;}.cls-8{fill:#d4d6d8;}.cls-9{fill:#f2f2f2;}.cls-10{fill:#e8e8e8;}.cls-11{fill:#454c50;}.cls-12{fill:#505659;}.cls-13{fill:#394145;}</style></defs><title>auth-api-tech</title><polygon class="cls-1" points="375.526 175.244 402.766 190.969 430.007 175.244 402.766 159.519 375.526 175.244"/><polygon class="cls-2" points="402.766 190.969 402.766 222.427 375.526 206.703 375.526 175.244 402.766 190.969"/><polygon class="cls-3" points="430.007 175.244 430.007 206.703 402.766 222.427 402.766 190.969 430.007 175.244"/><polygon class="cls-4" points="0 123.924 27.241 139.657 54.481 123.924 27.241 108.199 0 123.924"/><polygon class="cls-5" points="27.241 139.657 27.241 171.107 0 155.382 0 123.924 27.241 139.657"/><polygon class="cls-6" points="54.481 123.924 54.481 155.382 27.241 171.107 27.241 139.657 54.481 123.924"/><polygon class="cls-7" points="164.517 274.052 137.292 258.336 137.292 289.761 164.517 305.486 164.517 274.052"/><polygon class="cls-7" points="137.292 323.441 164.517 339.158 164.517 307.732 137.292 292.007 137.292 323.441"/><polygon class="cls-7" points="164.517 240.373 137.292 224.656 137.292 256.091 164.517 271.808 164.517 240.373"/><polygon class="cls-7" points="108.127 306.597 135.353 322.322 135.353 290.888 108.127 275.163 108.127 306.597"/><polygon class="cls-7" points="164.517 205.575 137.292 189.858 137.292 222.411 164.517 238.128 164.517 205.575"/><polygon class="cls-7" points="135.353 257.208 108.127 241.492 108.127 272.925 135.353 288.642 135.353 257.208"/><polygon class="cls-8" points="135.353 223.53 108.127 207.813 108.127 239.247 135.353 254.964 135.353 223.53"/><polygon class="cls-7" points="106.189 271.799 106.189 240.364 77.997 224.086 77.997 255.519 106.189 271.799"/><polygon class="cls-7" points="106.189 206.694 77.997 190.414 77.997 221.839 106.189 238.12 106.189 206.694"/><polygon class="cls-7" points="193.68 257.217 166.457 241.5 166.457 272.925 193.68 288.65 193.68 257.217"/><polygon class="cls-7" points="166.457 340.283 193.68 356.002 193.68 324.567 166.457 308.85 166.457 340.283"/><polygon class="cls-7" points="106.189 274.044 77.997 257.764 77.997 289.197 106.189 305.478 106.189 274.044"/><polygon class="cls-8" points="193.68 290.888 166.457 275.172 166.457 306.605 193.68 322.322 193.68 290.888"/><polygon class="cls-7" points="106.189 204.449 106.189 171.897 77.997 155.623 77.997 188.169 106.189 204.449"/><polygon class="cls-7" points="195.62 256.091 223.827 272.378 223.827 239.817 195.62 223.538 195.62 256.091"/><polygon class="cls-7" points="195.62 258.336 195.62 289.769 223.827 306.058 223.827 274.624 195.62 258.336"/><polygon class="cls-7" points="106.189 307.724 77.997 291.444 77.997 324.005 106.189 340.283 106.189 307.724"/><polygon class="cls-7" points="195.62 292.014 195.62 323.449 223.827 339.736 223.827 308.303 195.62 292.014"/><polygon class="cls-7" points="195.62 359.374 195.62 391.918 223.827 408.199 223.827 375.653 195.62 359.374"/><polygon class="cls-7" points="166.457 206.694 166.457 239.255 193.68 254.972 193.68 222.411 166.457 206.694"/><polygon class="cls-7" points="164.517 341.402 137.292 325.686 137.292 358.238 164.517 373.955 164.517 341.402"/><polygon class="cls-8" points="135.353 357.119 135.353 324.558 108.127 308.842 108.127 341.402 135.353 357.119"/><polygon class="cls-7" points="223.827 341.983 195.62 325.694 195.62 357.127 223.827 373.408 223.827 341.983"/><polygon class="cls-7" points="193.68 358.246 166.457 342.53 166.457 375.082 193.68 390.791 193.68 358.246"/><polygon class="cls-7" points="135.353 188.739 108.127 173.023 108.127 205.567 135.353 221.284 135.353 188.739"/><polygon class="cls-9" points="254.924 121.945 282.14 137.662 310.34 121.381 283.122 105.664 254.924 121.945"/><polygon class="cls-9" points="339.504 138.217 312.286 122.5 284.088 138.781 311.297 154.497 339.504 138.217"/><polygon class="cls-8" points="166.465 104.537 194.655 120.818 221.872 105.101 193.689 88.829 166.465 104.537"/><polygon class="cls-9" points="309.349 155.623 282.14 139.906 254.916 155.623 282.132 171.333 309.349 155.623"/><polygon class="cls-9" points="196.594 121.945 223.812 137.662 251.036 121.945 223.82 106.228 196.594 121.945"/><polygon class="cls-9" points="225.767 105.101 252.984 120.818 281.182 104.537 253.966 88.829 225.767 105.101"/><polygon class="cls-8" points="221.864 172.459 194.646 156.742 167.43 172.451 194.64 188.169 221.864 172.459"/><polygon class="cls-9" points="221.872 138.781 194.655 123.064 167.43 138.781 194.646 154.497 221.872 138.781"/><polygon class="cls-9" points="280.185 172.459 252.976 156.742 225.75 172.459 252.968 188.176 280.185 172.459"/><polygon class="cls-9" points="138.265 155.617 165.482 171.333 192.708 155.617 165.491 139.898 138.265 155.617"/><polygon class="cls-9" points="251.028 155.623 223.812 139.906 196.594 155.617 223.812 171.333 251.028 155.623"/><polygon class="cls-9" points="165.491 137.653 192.708 121.945 164.525 105.664 137.299 121.381 165.491 137.653"/><polygon class="cls-9" points="280.193 138.781 252.984 123.064 225.758 138.781 252.976 154.497 280.193 138.781"/><polygon class="cls-9" points="341.452 139.336 313.244 155.623 341.444 171.904 369.65 155.623 341.452 139.336"/><polygon class="cls-8" points="311.297 156.742 284.08 172.459 312.278 188.748 339.496 173.031 311.297 156.742"/><polygon class="cls-9" points="223.82 103.982 252.018 87.703 223.827 71.423 195.629 87.703 223.82 103.982"/><polygon class="cls-9" points="282.132 173.578 254.916 189.295 283.114 205.583 310.331 189.867 282.132 173.578"/><polygon class="cls-9" points="223.804 207.258 195.612 223.53 223.827 239.817 252.01 223.545 223.804 207.258"/><polygon class="cls-9" points="134.378 155.617 106.195 139.344 77.997 155.623 106.18 171.897 134.378 155.617"/><polygon class="cls-9" points="135.344 188.731 163.534 172.451 136.327 156.742 108.127 173.014 135.344 188.731"/><polygon class="cls-9" points="281.168 206.703 252.968 190.422 225.75 206.139 253.95 222.419 281.168 206.703"/><polygon class="cls-9" points="192.7 189.295 165.482 173.578 137.292 189.85 164.508 205.567 192.7 189.295"/><polygon class="cls-9" points="136.327 154.497 163.542 138.781 135.361 122.5 108.135 138.217 136.327 154.497"/><polygon class="cls-9" points="221.856 206.139 194.64 190.422 166.457 206.694 193.674 222.403 221.856 206.139"/><polygon class="cls-9" points="251.021 189.295 223.812 173.578 196.586 189.295 223.804 205.012 251.021 189.295"/><polygon class="cls-10" points="310.34 224.664 283.122 240.381 283.122 271.799 310.34 256.083 310.34 224.664"/><polygon class="cls-10" points="310.34 258.327 283.122 274.044 283.122 305.463 310.34 289.744 310.34 258.327"/><polygon class="cls-10" points="283.122 339.125 310.34 323.408 310.34 291.991 283.122 307.708 283.122 339.125"/><polygon class="cls-10" points="281.174 275.163 253.958 290.88 253.958 322.297 281.174 306.58 281.174 275.163"/><polygon class="cls-10" points="310.34 189.867 283.122 205.583 283.122 238.136 310.34 222.419 310.34 189.867"/><polygon class="cls-8" points="341.452 305.455 369.65 289.174 369.65 257.747 341.452 274.036 341.452 305.455"/><polygon class="cls-10" points="252.018 258.336 223.827 274.608 223.827 306.025 252.018 289.753 252.018 258.336"/><polygon class="cls-10" points="253.958 355.96 281.174 340.244 281.174 308.827 253.958 324.543 253.958 355.96"/><polygon class="cls-10" points="252.018 291.999 223.827 308.271 223.827 339.688 252.01 323.416 252.018 291.999"/><polygon class="cls-10" points="339.504 241.492 312.286 257.208 312.286 288.627 339.504 272.91 339.504 241.492"/><polygon class="cls-10" points="252.01 325.661 223.827 341.933 223.827 373.36 252.01 357.088 252.01 325.661"/><polygon class="cls-10" points="312.286 322.29 339.504 306.572 339.504 275.155 312.286 290.872 312.286 322.29"/><polygon class="cls-10" points="339.504 207.828 312.286 223.545 312.286 254.964 339.504 239.247 339.504 207.828"/><polygon class="cls-10" points="341.452 204.464 369.65 188.176 369.65 155.623 341.452 171.904 341.452 204.464"/><polygon class="cls-10" points="252.018 256.091 252.018 223.538 223.827 239.817 223.827 272.37 252.018 256.091"/><polygon class="cls-10" points="341.452 271.791 369.65 255.511 369.65 224.086 341.452 240.364 341.452 271.791"/><polygon class="cls-10" points="341.452 238.128 369.65 221.839 369.65 190.422 341.452 206.711 341.452 238.128"/><polygon class="cls-10" points="341.452 307.691 341.452 340.292 369.65 324.005 369.65 291.411 341.452 307.691"/><polygon class="cls-10" points="252.01 359.324 223.827 375.596 223.827 408.199 252.01 391.926 252.01 359.324"/><polygon class="cls-10" points="281.174 375.091 281.174 342.488 253.958 358.207 253.958 390.799 281.174 375.091"/><polygon class="cls-10" points="281.174 206.703 253.958 222.419 253.958 254.972 281.174 239.255 281.174 206.703"/><polygon class="cls-10" points="312.286 188.739 312.286 221.3 339.504 205.583 339.504 173.031 312.286 188.739"/><polygon class="cls-8" points="281.174 241.5 253.958 257.217 253.958 288.635 281.174 272.917 281.174 241.5"/><polygon class="cls-10" points="339.504 308.818 312.286 324.535 312.286 357.127 339.504 341.411 339.504 308.818"/><polygon class="cls-10" points="310.34 325.654 283.122 341.371 283.122 373.963 310.34 358.246 310.34 325.654"/><polygon class="cls-1" points="36.23 268.202 63.472 283.926 90.712 268.202 63.472 252.477 36.23 268.202"/><polygon class="cls-2" points="63.472 283.926 63.472 315.385 36.23 299.651 36.23 268.202 63.472 283.926"/><polygon class="cls-3" points="90.712 268.202 90.712 299.651 63.472 315.385 63.472 283.926 90.712 268.202"/><polygon class="cls-4" points="268.612 271.864 295.854 287.597 323.095 271.864 295.854 256.139 268.612 271.864"/><polygon class="cls-5" points="295.854 287.597 295.854 319.047 268.612 303.322 268.612 271.872 295.854 287.597"/><polygon class="cls-6" points="323.095 271.872 323.095 303.322 295.854 319.047 295.854 287.597 323.095 271.872"/><polygon class="cls-4" points="167.397 125.261 194.64 140.994 221.88 125.261 194.64 109.536 167.397 125.261"/><polygon class="cls-5" points="194.64 140.994 194.64 172.444 167.397 156.719 167.397 125.261 194.64 140.994"/><polygon class="cls-6" points="221.88 125.261 221.88 156.719 194.64 172.444 194.64 140.994 221.88 125.261"/><polygon class="cls-1" points="166.465 15.725 193.705 31.458 220.954 15.725 193.705 0 166.465 15.725"/><polygon class="cls-2" points="193.705 31.458 193.705 62.908 166.465 47.183 166.465 15.725 193.705 31.458"/><polygon class="cls-3" points="220.954 15.725 220.954 47.183 193.705 62.908 193.705 31.458 220.954 15.725"/><polygon class="cls-4" points="284.08 62.353 311.32 78.086 338.563 62.353 311.32 46.628 284.08 62.353"/><polygon class="cls-5" points="311.32 78.086 311.32 109.536 284.08 93.811 284.08 62.353 311.32 78.086"/><polygon class="cls-6" points="338.563 62.353 338.563 93.811 311.32 109.536 311.32 78.086 338.563 62.353"/><polygon class="cls-11" points="390.509 323.095 417.759 338.828 445 323.095 417.759 307.37 390.509 323.095"/><polygon class="cls-12" points="417.759 338.828 417.759 370.278 390.509 354.553 390.509 323.095 417.759 338.828"/><polygon class="cls-13" points="445 323.095 445 354.553 417.759 370.278 417.759 338.828 445 323.095"/><polygon class="cls-4" points="73.394 332.067 100.634 347.792 127.877 332.067 100.634 316.342 73.394 332.067"/><polygon class="cls-5" points="100.634 347.792 100.634 379.25 73.394 363.525 73.394 332.067 100.634 347.792"/><polygon class="cls-6" points="127.877 332.067 127.877 363.525 100.634 379.25 100.634 347.792 127.877 332.067"/><polygon class="cls-4" points="41.179 388.94 68.421 404.665 95.662 388.94 68.421 373.207 41.179 388.94"/><polygon class="cls-5" points="68.421 404.665 68.421 436.123 41.179 420.39 41.179 388.94 68.421 404.665"/><polygon class="cls-6" points="95.662 388.94 95.662 420.39 68.421 436.123 68.421 404.665 95.662 388.94"/></svg>