<svg id="Layer_1" data-name="Layer 1" xmlns="http://www.w3.org/2000/svg" viewBox="0 0 348.53623 286"><defs><style>.cls-1{fill:#b3e9ff;}.cls-2{fill:#fff;}.cls-3{fill:#ff7f00;}.cls-4{fill:#454c50;}.cls-5{fill:#0d5e9d;}.cls-6{fill:#efefef;}</style></defs><title>auth-api-devs</title><path class="cls-1" d="M291.229,59.28968a50.494,50.494,0,1,0-46.674,54.0555A50.48216,50.48216,0,0,0,291.229,59.28968Z" transform="translate(-0.73188 -5)"/><path class="cls-2" d="M284.27235,62.97986A43.40811,43.40811,0,1,1,240.86479,19.5723,43.4066,43.4066,0,0,1,284.27235,62.97986Z" transform="translate(-0.73188 -5)"/><rect class="cls-3" x="238.91955" y="18.88005" width="2.42563" height="8.33885"/><rect class="cls-3" x="201.04304" y="56.7567" width="8.32891" height="2.43652"/><rect class="cls-3" x="238.91955" y="88.73102" width="2.42563" height="8.33885"/><rect class="cls-3" x="270.89386" y="56.7567" width="8.33885" height="2.43652"/><path class="cls-4" d="M260.89285,48.27033l-20.784,13.53974a1.39133,1.39133,0,0,0,1.5216,2.32978l20.77307-13.52994Z" transform="translate(-0.73188 -5)"/><path class="cls-4" d="M241.54553,61.76759l-13.81748-7.78554-1.36149,2.42454,13.81749,7.78663a1.3908,1.3908,0,0,0,1.36148-2.42563Z" transform="translate(-0.73188 -5)"/><polygon class="cls-3" points="233.102 88.678 241.952 52.886 240.899 52.62 232.038 88.423 233.102 88.678"/><polygon class="cls-4" points="246.76 22.784 245.951 22.645 246.514 19.402 247.323 19.55 246.76 22.784"/><polygon class="cls-4" points="252.769 24.464 252.003 24.188 253.12 21.092 253.896 21.38 252.769 24.464"/><polygon class="cls-4" points="258.395 27.166 257.694 26.761 259.332 23.911 260.045 24.326 258.395 27.166"/><polygon class="cls-4" points="263.47 30.814 262.841 30.283 264.948 27.761 265.586 28.294 263.47 30.814"/><polygon class="cls-4" points="267.83 35.282 267.299 34.644 269.82 32.527 270.351 33.165 267.83 35.282"/><polygon class="cls-4" points="271.351 40.43 270.936 39.717 273.787 38.068 274.202 38.792 271.351 40.43"/><polygon class="cls-4" points="273.925 46.11 273.649 45.344 276.733 44.217 277.01 44.993 273.925 46.11"/><polygon class="cls-4" points="275.468 52.162 275.329 51.353 278.563 50.779 278.712 51.598 275.468 52.162"/><polygon class="cls-4" points="275.329 64.607 275.468 63.789 278.712 64.363 278.563 65.171 275.329 64.607"/><polygon class="cls-4" points="273.649 70.606 273.925 69.84 277.01 70.958 276.733 71.733 273.649 70.606"/><polygon class="cls-4" points="270.947 76.233 271.351 75.52 274.202 77.169 273.787 77.882 270.947 76.233"/><polygon class="cls-4" points="267.299 81.306 267.83 80.679 270.351 82.796 269.82 83.423 267.299 81.306"/><polygon class="cls-4" points="262.841 85.678 263.47 85.146 265.586 87.667 264.948 88.189 262.841 85.678"/><polygon class="cls-4" points="257.694 89.188 258.406 88.784 260.045 91.635 259.332 92.05 257.694 89.188"/><polygon class="cls-4" points="252.003 91.773 252.769 91.486 253.896 94.581 253.13 94.858 252.003 91.773"/><polygon class="cls-4" points="245.951 93.315 246.76 93.166 247.323 96.411 246.514 96.549 245.951 93.315"/><polygon class="cls-4" points="233.517 93.166 234.325 93.315 233.75 96.559 232.942 96.411 233.517 93.166"/><polygon class="cls-4" points="227.507 91.486 228.273 91.773 227.145 94.858 226.369 94.581 227.507 91.486"/><polygon class="cls-4" points="221.88 88.784 222.582 89.199 220.945 92.05 220.231 91.635 221.88 88.784"/><polygon class="cls-4" points="216.807 85.146 217.434 85.678 215.318 88.189 214.689 87.667 216.807 85.146"/><polygon class="cls-4" points="212.446 80.679 212.966 81.306 210.457 83.423 209.924 82.796 212.446 80.679"/><polygon class="cls-4" points="208.914 75.531 209.329 76.243 206.489 77.882 206.063 77.169 208.914 75.531"/><polygon class="cls-4" points="206.34 69.84 206.616 70.617 203.543 71.733 203.255 70.958 206.34 69.84"/><polygon class="cls-4" points="204.797 63.798 204.947 64.607 201.703 65.171 201.565 64.363 204.797 63.798"/><polygon class="cls-4" points="204.947 51.353 204.797 52.162 201.565 51.598 201.703 50.779 204.947 51.353"/><polygon class="cls-4" points="206.616 45.344 206.34 46.11 203.255 44.993 203.543 44.217 206.616 45.344"/><polygon class="cls-4" points="209.329 39.717 208.914 40.43 206.063 38.792 206.489 38.068 209.329 39.717"/><polygon class="cls-4" points="212.966 34.644 212.435 35.271 209.924 33.165 210.457 32.527 212.966 34.644"/><polygon class="cls-4" points="217.434 30.283 216.807 30.814 214.689 28.294 215.318 27.761 217.434 30.283"/><polygon class="cls-4" points="222.582 26.761 221.869 27.166 220.231 24.326 220.945 23.911 222.582 26.761"/><polygon class="cls-4" points="228.273 24.188 227.496 24.464 226.369 21.38 227.156 21.092 228.273 24.188"/><polygon class="cls-4" points="234.325 22.634 233.517 22.784 232.942 19.55 233.75 19.402 234.325 22.634"/><polygon class="cls-1" points="232.165 8.126 240.76 7.499 236.846 0 234.942 0.138 232.165 8.126"/><polygon class="cls-1" points="219.541 11.881 227.666 9.052 221.954 2.819 220.146 3.446 219.541 11.881"/><polygon class="cls-1" points="208.308 18.784 215.434 13.945 208.297 9.403 206.723 10.488 208.308 18.784"/><polygon class="cls-1" points="199.246 28.357 204.882 21.848 196.809 19.306 195.565 20.752 199.246 28.357"/><polygon class="cls-1" points="192.981 39.952 196.724 32.198 188.279 31.836 187.45 33.559 192.981 39.952"/><polygon class="cls-1" points="189.917 52.768 191.534 44.313 183.279 46.141 182.923 48.025 189.917 52.768"/><polygon class="cls-1" points="190.278 65.947 189.651 57.363 182.157 61.267 182.296 63.171 190.278 65.947"/><polygon class="cls-1" points="194.044 78.573 191.215 70.447 184.982 76.158 185.609 77.967 194.044 78.573"/><polygon class="cls-1" points="200.947 89.805 196.108 82.678 191.566 89.816 192.64 91.401 200.947 89.805"/><polygon class="cls-1" points="210.52 98.868 204 93.241 201.458 101.304 202.915 102.558 210.52 98.868"/><polygon class="cls-1" points="222.114 105.143 214.36 101.389 213.988 109.834 215.711 110.664 222.114 105.143"/><polygon class="cls-1" points="234.931 108.196 226.476 106.58 228.304 114.833 230.187 115.195 234.931 108.196"/><polygon class="cls-1" points="248.099 107.834 239.515 108.462 243.419 115.961 245.334 115.822 248.099 107.834"/><polygon class="cls-1" points="260.736 104.069 252.61 106.899 258.31 113.131 260.118 112.504 260.736 104.069"/><polygon class="cls-1" points="271.968 97.177 264.841 102.005 271.968 106.547 273.553 105.473 271.968 97.177"/><polygon class="cls-1" points="281.02 87.604 275.393 94.113 283.456 96.655 284.71 95.208 281.02 87.604"/><polygon class="cls-1" points="287.296 75.998 283.551 83.753 291.997 84.125 292.827 82.402 287.296 75.998"/><polygon class="cls-1" points="290.359 63.182 288.742 71.638 296.996 69.808 297.347 67.936 290.359 63.182"/><polygon class="cls-1" points="289.986 50.014 290.625 58.597 298.124 54.694 297.974 52.79 289.986 50.014"/><polygon class="cls-1" points="286.232 37.377 289.062 45.514 295.294 39.802 294.656 37.994 286.232 37.377"/><polygon class="cls-1" points="279.329 26.156 284.168 33.272 288.71 26.145 287.636 24.56 279.329 26.156"/><polygon class="cls-1" points="269.756 17.093 276.266 22.719 278.818 14.657 277.371 13.403 269.756 17.093"/><polygon class="cls-1" points="258.161 10.818 265.916 14.572 266.288 6.127 264.565 5.287 258.161 10.818"/><polygon class="cls-1" points="245.345 7.765 253.801 9.371 251.971 1.127 250.088 0.766 245.345 7.765"/><path class="cls-5" d="M74.24676,162.95461a40.80281,40.80281,0,1,0,4.2119,57.54418A40.79688,40.79688,0,0,0,74.24676,162.95461Zm-5.39259,49.25761A28.11036,28.11036,0,1,1,65.95038,172.57,28.12056,28.12056,0,0,1,68.85417,212.21222Z" transform="translate(-0.73188 -5)"/><path class="cls-5" d="M56.298,183.73857a13.341,13.341,0,1,0,1.37688,18.81579A13.34507,13.34507,0,0,0,56.298,183.73857Zm-1.76122,16.1037a9.18729,9.18729,0,1,1-.952-12.95594A9.18828,9.18828,0,0,1,54.53674,199.84227Z" transform="translate(-0.73188 -5)"/><polygon class="cls-5" points="13.812 164.9 18.358 159.645 11.844 157.582 10.833 158.763 13.812 164.9"/><polygon class="cls-5" points="8.743 174.271 11.77 168.006 4.946 167.718 4.276 169.101 8.743 174.271"/><polygon class="cls-5" points="6.27 184.631 7.578 177.791 0.904 179.281 0.616 180.791 6.27 184.631"/><polygon class="cls-5" points="6.568 195.278 6.058 188.332 0 191.492 0.112 193.034 6.568 195.278"/><polygon class="cls-5" points="9.604 205.478 7.318 198.905 2.282 203.532 2.787 204.989 9.604 205.478"/><polygon class="cls-5" points="15.179 214.551 11.27 208.797 7.605 214.562 8.472 215.839 15.179 214.551"/><polygon class="cls-5" points="22.917 221.88 17.651 217.328 15.598 223.838 16.769 224.858 22.917 221.88"/><polygon class="cls-5" points="32.282 226.943 26.017 223.912 25.719 230.741 27.113 231.411 32.282 226.943"/><polygon class="cls-5" points="42.642 229.411 35.808 228.114 37.286 234.783 38.808 235.069 42.642 229.411"/><polygon class="cls-5" points="53.284 229.123 46.349 229.634 49.503 235.687 51.045 235.58 53.284 229.123"/><polygon class="cls-5" points="63.495 226.081 56.922 228.369 61.538 233.4 63.001 232.9 63.495 226.081"/><polygon class="cls-5" points="72.568 220.508 66.809 224.412 72.574 228.081 73.85 227.21 72.568 220.508"/><polygon class="cls-5" points="79.887 212.776 75.339 218.041 81.854 220.093 82.864 218.923 79.887 212.776"/><polygon class="cls-5" points="84.955 203.404 81.923 209.669 88.746 209.967 89.423 208.574 84.955 203.404"/><polygon class="cls-5" points="87.428 193.044 86.119 199.884 92.788 198.394 93.081 196.885 87.428 193.044"/><polygon class="cls-5" points="87.13 182.397 87.641 189.343 93.698 186.184 93.586 184.642 87.13 182.397"/><polygon class="cls-5" points="84.093 172.197 86.38 178.759 91.417 174.143 90.906 172.686 84.093 172.197"/><polygon class="cls-5" points="78.52 163.124 82.423 168.878 86.093 163.113 85.226 161.836 78.52 163.124"/><polygon class="cls-5" points="70.781 155.806 76.046 160.348 78.099 153.837 76.93 152.828 70.781 155.806"/><polygon class="cls-5" points="61.416 150.732 67.681 153.763 67.973 146.934 66.58 146.264 61.416 150.732"/><polygon class="cls-5" points="51.056 148.264 57.889 149.562 56.411 142.892 54.891 142.606 51.056 148.264"/><polygon class="cls-5" points="40.413 148.552 47.349 148.052 44.195 141.988 42.653 142.106 40.413 148.552"/><polygon class="cls-5" points="30.202 151.594 36.771 149.306 32.159 144.275 30.698 144.775 30.202 151.594"/><polygon class="cls-5" points="21.129 157.167 26.884 153.263 21.125 149.594 19.848 150.456 21.129 157.167"/><path class="cls-6" d="M252.71411,161.33716a67.26765,67.26765,0,1,0,6.94577,94.8795A67.27434,67.27434,0,0,0,252.71411,161.33716Zm-2.35157,86.84889a54.98448,54.98448,0,1,1-5.679-77.55264A54.98188,54.98188,0,0,1,250.36254,248.18605Z" transform="translate(-0.73188 -5)"/><polygon class="cls-6" points="155.385 165.357 158.906 161.283 153.013 158.964 152.226 159.868 155.385 165.357"/><polygon class="cls-6" points="150.067 173.09 152.981 168.57 146.828 167.08 146.179 168.091 150.067 173.09"/><polygon class="cls-6" points="145.876 181.482 148.136 176.6 141.829 175.994 141.329 177.079 145.876 181.482"/><polygon class="cls-6" points="142.897 190.385 144.451 185.237 138.122 185.504 137.776 186.652 142.897 190.385"/><polygon class="cls-6" points="141.18 199.607 142.01 194.3 135.776 195.448 135.596 196.629 141.18 199.607"/><polygon class="cls-6" points="140.77 208.989 140.845 203.607 134.835 205.617 134.819 206.808 140.77 208.989"/><polygon class="cls-6" points="141.663 218.327 140.994 212.988 135.319 215.818 135.474 217.008 141.663 218.327"/><polygon class="cls-6" points="143.855 227.454 142.445 222.264 137.223 225.848 137.536 227.007 143.855 227.454"/><polygon class="cls-6" points="147.29 236.187 145.174 231.241 140.499 235.527 140.967 236.623 147.29 236.187"/><polygon class="cls-6" points="151.907 244.367 149.12 239.761 145.089 244.642 145.711 245.664 151.907 244.367"/><polygon class="cls-6" points="157.619 251.811 154.221 247.642 150.908 253.036 151.662 253.96 157.619 251.811"/><polygon class="cls-6" points="164.309 258.386 160.363 254.737 157.837 260.545 158.715 261.353 164.309 258.386"/><polygon class="cls-6" points="171.85 263.97 167.437 260.906 165.74 267.001 166.724 267.693 171.85 263.97"/><polygon class="cls-6" points="180.1 268.459 175.297 266.033 174.468 272.309 175.536 272.851 180.1 268.459"/><polygon class="cls-6" points="188.885 271.745 183.796 270.011 183.849 276.351 184.982 276.733 188.885 271.745"/><polygon class="cls-6" points="198.054 273.776 192.767 272.766 193.693 279.041 194.874 279.266 198.054 273.776"/><polygon class="cls-6" points="207.404 274.521 202.032 274.255 203.83 280.329 205.021 280.382 207.404 274.521"/><polygon class="cls-6" points="216.774 273.947 211.414 274.436 214.041 280.201 215.232 280.094 216.774 273.947"/><polygon class="cls-6" points="225.976 272.086 220.731 273.309 224.135 278.648 225.295 278.382 225.976 272.086"/><polygon class="cls-6" points="234.825 268.959 229.804 270.894 233.91 275.713 235.027 275.287 234.825 268.959"/><polygon class="cls-6" points="243.142 264.618 238.452 267.245 243.185 271.447 244.238 270.862 243.142 264.618"/><polygon class="cls-6" points="250.791 259.172 246.504 262.428 251.78 265.926 252.737 265.203 250.791 259.172"/><polygon class="cls-6" points="257.598 252.716 253.811 256.534 259.523 259.268 260.364 258.417 257.598 252.716"/><polygon class="cls-6" points="263.448 245.376 260.214 249.684 266.256 251.588 266.968 250.631 263.448 245.376"/><polygon class="cls-6" points="268.214 237.292 265.618 242.005 271.862 243.058 272.436 242.005 268.214 237.292"/><polygon class="cls-6" points="271.809 228.624 269.894 233.656 276.223 233.815 276.648 232.698 271.809 228.624"/><polygon class="cls-6" points="274.159 219.541 272.957 224.784 279.254 224.072 279.52 222.901 274.159 219.541"/><polygon class="cls-6" points="275.223 210.212 274.766 215.573 280.903 213.988 281.009 212.797 275.223 210.212"/><polygon class="cls-6" points="274.978 200.831 275.276 206.201 281.137 203.777 281.063 202.585 274.978 200.831"/><polygon class="cls-6" points="273.436 191.577 274.478 196.852 279.935 193.64 279.701 192.47 273.436 191.577"/><polygon class="cls-6" points="270.617 182.62 272.383 187.705 277.34 183.759 276.947 182.631 270.617 182.62"/><polygon class="cls-6" points="266.575 174.143 269.032 178.929 273.404 174.345 272.851 173.282 266.575 174.143"/><polygon class="cls-6" points="261.406 166.314 264.501 170.718 268.182 165.559 267.49 164.581 261.406 166.314"/><polygon class="cls-6" points="255.183 159.283 258.864 163.209 261.789 157.593 260.97 156.721 255.183 159.283"/><polygon class="cls-6" points="248.046 153.189 252.248 156.56 254.364 150.594 253.429 149.838 248.046 153.189"/><polygon class="cls-6" points="240.133 148.148 244.76 150.902 246.025 144.701 244.994 144.084 240.133 148.148"/><polygon class="cls-6" points="231.602 144.254 236.559 146.339 236.952 140.01 235.846 139.553 231.602 144.254"/><polygon class="cls-6" points="222.603 141.584 227.804 142.956 227.304 136.638 226.156 136.341 222.603 141.584"/><polygon class="cls-6" points="213.318 140.191 218.668 140.829 217.296 134.649 216.104 134.5 213.318 140.191"/><polygon class="cls-6" points="203.936 140.106 209.319 139.999 207.096 134.064 205.904 134.086 203.936 140.106"/><polygon class="cls-6" points="194.629 141.329 199.947 140.468 196.927 134.904 195.735 135.085 194.629 141.329"/><polygon class="cls-6" points="185.588 143.829 190.725 142.244 186.96 137.149 185.821 137.5 185.588 143.829"/><polygon class="cls-6" points="176.972 147.572 181.844 145.275 177.409 140.755 176.324 141.265 176.972 147.572"/><polygon class="cls-6" points="168.974 152.476 173.478 149.53 168.452 145.669 167.452 146.329 168.974 152.476"/><polygon class="cls-6" points="161.73 158.444 165.782 154.891 160.268 151.775 159.368 152.561 161.73 158.444"/><polygon class="cls-6" points="191.438 197.289 195.735 192.311 189.098 189.95 188.14 191.055 191.438 197.289"/><polygon class="cls-6" points="188.683 206.904 189.917 200.447 182.982 201.724 182.705 203.159 188.683 206.904"/><polygon class="cls-6" points="191.097 216.615 188.939 210.404 183.567 214.988 184.056 216.37 191.097 216.615"/><polygon class="cls-6" points="198.043 223.816 193.077 219.519 190.715 226.167 191.811 227.124 198.043 223.816"/><polygon class="cls-6" points="207.68 226.581 201.213 225.348 202.5 232.294 203.926 232.56 207.68 226.581"/><polygon class="cls-6" points="217.381 224.168 211.169 226.326 215.754 231.698 217.126 231.208 217.381 224.168"/><polygon class="cls-6" points="224.581 217.222 220.285 222.189 226.933 224.55 227.89 223.454 224.581 217.222"/><polygon class="cls-6" points="227.347 207.585 226.124 214.051 233.049 212.765 233.325 211.339 227.347 207.585"/><polygon class="cls-6" points="224.933 197.873 227.092 204.096 232.464 199.512 231.985 198.139 224.933 197.873"/><polygon class="cls-6" points="217.977 190.683 222.944 194.97 225.316 188.321 224.21 187.375 217.977 190.683"/><polygon class="cls-6" points="208.361 187.917 214.828 189.151 213.541 182.216 212.105 181.94 208.361 187.917"/><polygon class="cls-6" points="198.65 190.332 204.862 188.173 200.277 182.801 198.905 183.28 198.65 190.332"/><path class="cls-6" d="M194.11668,199.60809a19.33974,19.33974,0,1,0,27.27227-1.98886A19.33669,19.33669,0,0,0,194.11668,199.60809Zm21.95375,18.965a9.67127,9.67127,0,1,1-.99988-13.64648A9.67827,9.67827,0,0,1,216.07043,218.5731Z" transform="translate(-0.73188 -5)"/><path class="cls-6" d="M25.96179,54.40683a49.89978,49.89978,0,1,0,70.38249-5.15841A49.902,49.902,0,0,0,25.96179,54.40683Zm70.5633,60.93811A43.33621,43.33621,0,1,1,92.05286,54.226,43.3369,43.3369,0,0,1,96.52509,115.34494Z" transform="translate(-0.73188 -5)"/><polygon class="cls-6" points="22.592 52.747 28.156 46.312 20.183 43.802 18.949 45.227 22.592 52.747"/><polygon class="cls-6" points="16.397 64.202 20.098 56.544 11.748 56.183 10.929 57.885 16.397 64.202"/><polygon class="cls-6" points="13.37 76.871 14.965 68.51 6.807 70.329 6.457 72.181 13.37 76.871"/><polygon class="cls-6" points="13.727 89.89 13.109 81.402 5.695 85.263 5.834 87.157 13.727 89.89"/><polygon class="cls-6" points="17.444 102.378 14.652 94.336 8.488 99.985 9.11 101.772 17.444 102.378"/><polygon class="cls-6" points="24.267 113.472 19.487 106.43 14.998 113.483 16.061 115.046 24.267 113.472"/><polygon class="cls-6" points="33.729 122.427 27.288 116.865 24.778 124.831 26.209 126.065 33.729 122.427"/><polygon class="cls-6" points="45.178 128.629 37.52 124.917 37.159 133.267 38.861 134.086 45.178 128.629"/><polygon class="cls-6" points="57.852 131.65 49.492 130.054 51.301 138.213 53.162 138.564 57.852 131.65"/><polygon class="cls-6" points="70.871 131.288 62.383 131.915 66.245 139.319 68.133 139.18 70.871 131.288"/><polygon class="cls-6" points="83.354 127.576 75.318 130.363 80.966 136.532 82.748 135.904 83.354 127.576"/><polygon class="cls-6" points="94.453 120.758 87.412 125.534 94.459 130.022 96.022 128.958 94.453 120.758"/><polygon class="cls-6" points="103.404 111.291 97.841 117.726 105.813 120.247 107.047 118.811 103.404 111.291"/><polygon class="cls-6" points="109.605 99.835 105.899 107.493 114.243 107.855 115.068 106.154 109.605 99.835"/><polygon class="cls-6" points="112.626 87.167 111.03 95.528 119.184 93.72 119.54 91.858 112.626 87.167"/><polygon class="cls-6" points="112.269 74.148 112.887 82.636 120.295 78.775 120.156 76.882 112.269 74.148"/><polygon class="cls-6" points="108.552 61.66 111.345 69.702 117.503 64.054 116.885 62.267 108.552 61.66"/><polygon class="cls-6" points="101.728 50.567 106.51 57.608 110.998 50.556 109.935 48.993 101.728 50.567"/><polygon class="cls-6" points="92.267 41.61 98.708 47.174 101.219 39.207 99.787 37.972 92.267 41.61"/><polygon class="cls-6" points="80.811 35.421 88.471 39.122 88.838 30.772 87.135 29.953 80.811 35.421"/><polygon class="cls-6" points="68.143 32.388 76.498 33.995 74.696 25.837 72.834 25.475 68.143 32.388"/><polygon class="cls-6" points="55.124 32.75 63.612 32.133 59.751 24.719 57.863 24.858 55.124 32.75"/><polygon class="cls-6" points="42.642 36.473 50.672 33.676 45.036 27.517 43.248 28.134 42.642 36.473"/><polygon class="cls-6" points="31.543 43.291 38.584 38.505 31.537 34.017 29.975 35.08 31.543 43.291"/><path class="cls-6" d="M54.78725,79.29705a11.81567,11.81567,0,1,0,16.66791-1.22317A11.81228,11.81228,0,0,0,54.78725,79.29705ZM68.6995,91.31628a6.56671,6.56671,0,1,1-.68074-9.26467A6.57136,6.57136,0,0,1,68.6995,91.31628Z" transform="translate(-0.73188 -5)"/><path class="cls-6" d="M57.23358,81.40354a8.82312,8.82312,0,0,1,2.0259-1.7133L32.14731,56.27915l-3.43095,3.97773L55.82961,83.66906A8.5382,8.5382,0,0,1,57.23358,81.40354Z" transform="translate(-0.73188 -5)"/><path class="cls-6" d="M55.383,88.99739,24.73318,107.55831l2.71754,4.48856,30.64986-18.55A8.55683,8.55683,0,0,1,55.383,88.99739Z" transform="translate(-0.73188 -5)"/><path class="cls-6" d="M69.31707,80.50932,83.20863,47.48284,78.36826,45.4515,64.4767,78.478A8.468,8.468,0,0,1,69.31707,80.50932Z" transform="translate(-0.73188 -5)"/><path class="cls-6" d="M71.65121,90.32729l35.69718,2.99964.44112-5.23357L72.088,85.09372A8.63828,8.63828,0,0,1,71.65121,90.32729Z" transform="translate(-0.73188 -5)"/><path class="cls-6" d="M63.0357,95.57066l8.17439,34.889,5.11593-1.20247-8.17438-34.877A8.67941,8.67941,0,0,1,63.0357,95.57066Z" transform="translate(-0.73188 -5)"/><path class="cls-6" d="M260.19141,152.57243c-.319-.27666-9.87121-7.27471-9.87121-7.27471L104.39123,39.54808,96.1101,33.53792a62.51928,62.51928,0,0,0-80.57187,93.30453l7.14183,7.31828,125.88008,128.969s8.31707,8.4249,8.64165,8.71136A78.79068,78.79068,0,1,0,260.19141,152.57243Zm5.361,108.72858A75.11369,75.11369,0,0,1,159.659,269.10834c-.62737-.61758-5.49933-5.532-8.46615-8.55234L25.31263,131.59786l-7.04053-7.21263A58.8415,58.8415,0,0,1,94.07331,36.61162l8.158,5.91431L248.1395,148.26468c3.4364,2.49969,9.00994,6.60594,9.71124,7.13747A75.12336,75.12336,0,0,1,265.55241,261.301Z" transform="translate(-0.73188 -5)"/><path class="cls-4" d="M330.19064,71.5213a30.67428,30.67428,0,1,0,3.1705,43.25944A30.67382,30.67382,0,0,0,330.19064,71.5213Zm-8.10481,33.52751a15.7767,15.7767,0,1,1-1.63815-22.25219A15.78208,15.78208,0,0,1,322.08583,105.04881Z" transform="translate(-0.73188 -5)"/><polygon class="cls-4" points="284.573 71.733 287.987 67.777 283.094 66.235 282.328 67.117 284.573 71.733"/><polygon class="cls-4" points="280.754 78.786 283.031 74.074 277.903 73.85 277.393 74.893 280.754 78.786"/><polygon class="cls-4" points="278.903 86.571 279.882 81.435 274.862 82.54 274.648 83.689 278.903 86.571"/><polygon class="cls-4" points="279.116 94.581 278.744 89.358 274.181 91.731 274.266 92.89 279.116 94.581"/><polygon class="cls-4" points="281.402 102.25 279.69 97.315 275.904 100.782 276.276 101.878 281.402 102.25"/><polygon class="cls-4" points="285.594 109.068 282.658 104.739 279.903 109.079 280.552 110.036 285.594 109.068"/><polygon class="cls-4" points="291.412 114.578 287.455 111.153 285.913 116.057 286.796 116.822 291.412 114.578"/><polygon class="cls-4" points="298.454 118.385 293.742 116.11 293.517 121.237 294.571 121.747 298.454 118.385"/><polygon class="cls-4" points="306.239 120.247 301.112 119.269 302.219 124.279 303.367 124.502 306.239 120.247"/><polygon class="cls-4" points="314.249 120.023 309.036 120.407 311.409 124.97 312.569 124.874 314.249 120.023"/><polygon class="cls-4" points="321.928 117.737 316.982 119.46 320.45 123.246 321.557 122.864 321.928 117.737"/><polygon class="cls-4" points="328.746 113.546 324.418 116.492 328.757 119.247 329.715 118.599 328.746 113.546"/><polygon class="cls-4" points="334.257 107.728 330.831 111.696 335.735 113.238 336.49 112.354 334.257 107.728"/><polygon class="cls-4" points="338.064 100.686 335.788 105.399 340.915 105.622 341.426 104.569 338.064 100.686"/><polygon class="cls-4" points="339.926 92.9 338.937 98.038 343.957 96.921 344.169 95.784 339.926 92.9"/><polygon class="cls-4" points="339.702 84.892 340.085 90.113 344.638 87.742 344.553 86.582 339.702 84.892"/><polygon class="cls-4" points="337.415 77.222 339.138 82.158 342.925 78.69 342.542 77.594 337.415 77.222"/><polygon class="cls-4" points="333.225 70.393 336.16 74.723 338.915 70.393 338.266 69.425 333.225 70.393"/><polygon class="cls-4" points="327.407 64.894 331.364 68.32 332.906 63.416 332.023 62.65 327.407 64.894"/><polygon class="cls-4" points="320.365 61.086 325.066 63.363 325.3 58.225 324.247 57.725 320.365 61.086"/><polygon class="cls-4" points="312.569 59.225 317.716 60.203 316.6 55.194 315.461 54.97 312.569 59.225"/><polygon class="cls-4" points="304.569 59.448 309.781 59.066 307.42 54.502 306.25 54.587 304.569 59.448"/><polygon class="cls-4" points="296.89 61.735 301.836 60.012 298.369 56.225 297.262 56.609 296.89 61.735"/><polygon class="cls-4" points="290.071 65.926 294.401 62.979 290.071 60.225 289.104 60.874 290.071 65.926"/><path class="cls-3" d="M335.71162,65.11795a39.12135,39.12135,0,0,0-55.087,3.92544l-.03268.03159-2.91358,3.80781L185.48483,192.8856l-1.46278,1.9148A30.19609,30.19609,0,0,0,229.51541,234.081l1.68062-1.7231L336.498,123.662l3.32966-3.43531.03159-.03159A39.141,39.141,0,0,0,335.71162,65.11795Zm2.18056,53.34317-3.27629,3.37214L229.31282,230.52916l-1.64781,1.69043a27.57242,27.57242,0,0,1-41.52558-35.866l1.42467-1.87232,92.199-120.00281,2.87111-3.74355a36.50818,36.50818,0,0,1,55.258,47.72621Z" transform="translate(-0.73188 -5)"/><polygon class="cls-6" points="301.038 177.164 304.25 173.441 299.283 171.675 298.559 172.494 301.038 177.164"/><polygon class="cls-6" points="298.974 184.375 299.889 179.536 294.698 180.493 294.486 181.567 298.974 184.375"/><polygon class="cls-6" points="300.782 191.651 299.166 186.992 295.135 190.428 295.507 191.459 300.782 191.651"/><polygon class="cls-6" points="305.984 197.044 302.262 193.821 300.485 198.799 301.315 199.523 305.984 197.044"/><polygon class="cls-6" points="313.196 199.118 308.356 198.193 309.324 203.394 310.388 203.596 313.196 199.118"/><polygon class="cls-6" points="320.472 197.309 315.812 198.927 319.247 202.947 320.28 202.574 320.472 197.309"/><polygon class="cls-6" points="325.864 192.098 322.641 195.82 327.63 197.597 328.342 196.767 325.864 192.098"/><polygon class="cls-6" points="327.938 184.886 327.012 189.726 332.214 188.758 332.416 187.694 327.938 184.886"/><polygon class="cls-6" points="326.13 177.61 327.746 182.27 331.768 178.834 331.406 177.813 326.13 177.61"/><polygon class="cls-6" points="320.918 172.218 324.641 175.44 326.418 170.452 325.588 169.74 320.918 172.218"/><polygon class="cls-6" points="313.707 170.155 318.557 171.07 317.589 165.878 316.515 165.666 313.707 170.155"/><polygon class="cls-6" points="306.442 171.963 311.089 170.335 307.654 166.325 306.632 166.676 306.442 171.963"/><path class="cls-6" d="M311.74722,187.5246a3.22738,3.22738,0,1,0,4.55282-.33983A3.22144,3.22144,0,0,0,311.74722,187.5246Z" transform="translate(-0.73188 -5)"/><path class="cls-6" d="M323.65971,178.664a14.49056,14.49056,0,1,0,1.49,20.43324A14.4858,14.4858,0,0,0,323.65971,178.664Zm-2.44633,17.02952a9.27979,9.27979,0,1,1-.9574-13.08338A9.27105,9.27105,0,0,1,321.21338,195.69354Z" transform="translate(-0.73188 -5)"/><polygon class="cls-3" points="91.799 152.784 95.448 148.563 89.799 146.552 88.986 147.487 91.799 152.784"/><polygon class="cls-3" points="89.449 160.975 90.496 155.476 84.598 156.56 84.359 157.784 89.449 160.975"/><polygon class="cls-3" points="91.507 169.24 89.666 163.953 85.099 167.847 85.513 169.027 91.507 169.24"/><polygon class="cls-3" points="97.411 175.366 93.182 171.708 91.177 177.366 92.113 178.174 97.411 175.366"/><polygon class="cls-3" points="105.611 177.717 100.112 176.664 101.202 182.578 102.414 182.801 105.611 177.717"/><polygon class="cls-3" points="113.871 175.664 108.584 177.494 112.477 182.067 113.653 181.652 113.871 175.664"/><polygon class="cls-3" points="119.992 169.751 116.339 173.983 121.997 175.994 122.811 175.047 119.992 169.751"/><polygon class="cls-3" points="122.348 161.56 121.3 167.059 127.198 165.963 127.432 164.751 122.348 161.56"/><polygon class="cls-3" points="120.295 153.295 122.13 158.593 126.698 154.689 126.288 153.518 120.295 153.295"/><polygon class="cls-3" points="114.376 147.168 118.604 150.828 120.619 145.169 119.678 144.36 114.376 147.168"/><polygon class="cls-3" points="106.191 144.818 111.69 145.86 110.6 139.968 109.377 139.734 106.191 144.818"/><polygon class="cls-3" points="97.931 146.871 103.218 145.03 99.315 140.468 98.144 140.872 97.931 146.871"/><path class="cls-3" d="M117.38434,153.81738a16.44984,16.44984,0,1,0,1.70118,23.20959A16.45146,16.45146,0,0,0,117.38434,153.81738Zm-2.77649,19.3484a10.54314,10.54314,0,1,1-1.08484-14.88163A10.547,10.547,0,0,1,114.60785,173.16578Z" transform="translate(-0.73188 -5)"/></svg>