<svg id="Layer_1" data-name="Layer 1" xmlns="http://www.w3.org/2000/svg" viewBox="0 0 473 265.14749"><defs><style>.cls-1{fill:#f5f5f5;}.cls-2{fill:#0d5e9d;}.cls-3{fill:#ff7f00;}.cls-4{fill:#b3e9ff;}</style></defs><title>bi-biometrics-typing</title><polygon class="cls-1" points="109.705 134.88 16.792 227.8 13.81 224.818 109.705 128.923 204.704 223.916 305.205 123.407 308.193 126.389 204.704 229.88 109.705 134.88"/><path class="cls-2" d="M352.43859,348.48691a12.51928,12.51928,0,1,1-12.52623-12.51928A12.52333,12.52333,0,0,1,352.43859,348.48691Z" transform="translate(-13.5 -117.42625)"/><rect class="cls-1" x="62.65049" y="43.6248" width="116.32469" height="4.21112"/><circle class="cls-3" cx="61.81578" cy="45.72967" r="12.51928"/><circle class="cls-1" cx="179.81477" cy="45.72967" r="20.86779"/><path class="cls-2" d="M42.91924,344.32309a14.70962,14.70962,0,1,1-14.71318-14.71318A14.7149,14.7149,0,0,1,42.91924,344.32309Z" transform="translate(-13.5 -117.42625)"/><path class="cls-1" d="M149.69135,249.33154a26.48261,26.48261,0,1,1-26.48678-26.4854A26.48747,26.48747,0,0,1,149.69135,249.33154Z" transform="translate(-13.5 -117.42625)"/><path class="cls-1" d="M256.45512,344.32309a38.25135,38.25135,0,1,1-38.25065-38.25065A38.25434,38.25434,0,0,1,256.45512,344.32309Z" transform="translate(-13.5 -117.42625)"/><path class="cls-4" d="M414.47157,201.91714a53.87506,53.87506,0,1,1-53.86811-53.87506A53.86933,53.86933,0,0,1,414.47157,201.91714Z" transform="translate(-13.5 -117.42625)"/><polygon class="cls-1" points="294.404 134.215 330.407 98.219 333.382 101.202 297.394 137.19 294.404 134.215"/><circle class="cls-1" cx="347.10346" cy="84.49089" r="27.82372"/><path class="cls-2" d="M360.60346,141.80678a60.11036,60.11036,0,1,0,60.11731,60.11036A60.11443,60.11443,0,0,0,360.60346,141.80678Zm0,109.6171a49.50674,49.50674,0,1,1,49.50674-49.50674A49.51287,49.51287,0,0,1,360.60346,251.42388Z" transform="translate(-13.5 -117.42625)"/><polygon class="cls-2" points="412.98 143.358 405.97 150.355 385.972 130.357 392.969 123.352 412.98 143.358"/><rect class="cls-2" x="436.70381" y="253.61574" width="24.04794" height="72.8403" transform="translate(-87.15702 284.82174) rotate(-45)"/><path class="cls-1" d="M482.98469,307.28834a12.02545,12.02545,0,0,1-17.01,17.00307Z" transform="translate(-13.5 -117.42625)"/><polygon class="cls-1" points="425.982 146.36 408.974 163.356 404.98 159.355 421.974 142.353 425.982 146.36"/><path class="cls-3" d="M442.98809,169.01142a2.11161,2.11161,0,0,1-2.10625-2.10486v-45.2678H395.628a2.10626,2.10626,0,1,1,0-4.21251h49.47891v49.48031A2.1134,2.1134,0,0,1,442.98809,169.01142Z" transform="translate(-13.5 -117.42625)"/><path class="cls-3" d="M276.11415,286.40664V236.92772a2.11243,2.11243,0,0,1,4.22485,0v45.2678h45.25388a2.10556,2.10556,0,1,1,0,4.21112Z" transform="translate(-13.5 -117.42625)"/></svg>