<svg id="625b6b57-41d1-4e74-a327-260fdb45f37e" data-name="Layer 1" xmlns="http://www.w3.org/2000/svg" viewBox="0 0 463.67793 430.49351"><defs><style>.d5bc918c-b3d6-4236-ba2e-9083e004711e{fill:#f5f5f5;}.b57c4347-fce2-449a-8ee0-c9957b6b763b{fill:#ff7f00;}.\33 782a2f6-95b5-4796-87dc-3a2f9b4250a4{fill:#b3e9ff;}.\34 35b9f0f-05c5-40bb-afcf-c04f33d044be{fill:#0d5e9d;}</style></defs><title>bi-biometrics-what-is</title><rect class="d5bc918c-b3d6-4236-ba2e-9083e004711e" x="244.8087" y="80.34214" width="2.37801" height="89.5594"/><rect class="d5bc918c-b3d6-4236-ba2e-9083e004711e" x="216.13684" y="20.62704" width="59.72172" height="59.7151"/><rect class="d5bc918c-b3d6-4236-ba2e-9083e004711e" x="244.8087" y="271.94546" width="2.37801" height="89.5594"/><rect class="d5bc918c-b3d6-4236-ba2e-9083e004711e" x="216.13684" y="361.50485" width="59.72172" height="59.70682"/><rect class="d5bc918c-b3d6-4236-ba2e-9083e004711e" x="328.36843" y="171.98809" width="44.7797" height="2.39291"/><rect class="d5bc918c-b3d6-4236-ba2e-9083e004711e" x="370.75522" y="144.52014" width="2.39291" height="29.86086"/><rect class="d5bc918c-b3d6-4236-ba2e-9083e004711e" x="342.09827" y="84.81332" width="59.70681" height="59.70682"/><rect class="d5bc918c-b3d6-4236-ba2e-9083e004711e" x="305.34859" y="217.77515" width="44.77911" height="2.39137" transform="translate(-83.76021 158.79572) rotate(-30.05002)"/><rect class="d5bc918c-b3d6-4236-ba2e-9083e004711e" x="325.91094" y="170.19299" width="5.96654" height="5.97482"/><rect class="d5bc918c-b3d6-4236-ba2e-9083e004711e" x="368.97668" y="170.19299" width="5.96654" height="5.97482"/><rect class="d5bc918c-b3d6-4236-ba2e-9083e004711e" x="328.36843" y="267.466" width="44.7797" height="2.39291"/><rect class="d5bc918c-b3d6-4236-ba2e-9083e004711e" x="370.75522" y="267.466" width="2.39291" height="29.86086"/><rect class="d5bc918c-b3d6-4236-ba2e-9083e004711e" x="342.09827" y="297.32686" width="59.70681" height="59.70682"/><rect class="d5bc918c-b3d6-4236-ba2e-9083e004711e" x="326.54247" y="269.99309" width="2.39137" height="44.77911" transform="translate(-107.62276 394.90349) rotate(-59.94998)"/><rect class="d5bc918c-b3d6-4236-ba2e-9083e004711e" x="325.91094" y="265.67918" width="5.96654" height="5.97482"/><rect class="d5bc918c-b3d6-4236-ba2e-9083e004711e" x="368.97668" y="265.67918" width="5.96654" height="5.97482"/><rect class="d5bc918c-b3d6-4236-ba2e-9083e004711e" x="118.84728" y="171.98809" width="44.7797" height="2.39291"/><rect class="d5bc918c-b3d6-4236-ba2e-9083e004711e" x="118.84728" y="144.52014" width="2.39291" height="29.86086"/><rect class="d5bc918c-b3d6-4236-ba2e-9083e004711e" x="90.19033" y="84.81332" width="59.70681" height="59.70682"/><rect class="d5bc918c-b3d6-4236-ba2e-9083e004711e" x="199.38382" y="196.58128" width="2.39125" height="44.77911" transform="matrix(0.50068, -0.86563, 0.86563, 0.50068, -107.55607, 248.2109)"/><rect class="d5bc918c-b3d6-4236-ba2e-9083e004711e" x="160.11793" y="170.19299" width="5.96654" height="5.97482"/><rect class="d5bc918c-b3d6-4236-ba2e-9083e004711e" x="117.05241" y="170.19299" width="5.96631" height="5.97482"/><rect class="d5bc918c-b3d6-4236-ba2e-9083e004711e" x="118.84728" y="267.466" width="44.7797" height="2.39291"/><rect class="d5bc918c-b3d6-4236-ba2e-9083e004711e" x="118.84728" y="267.466" width="2.39291" height="29.86086"/><rect class="d5bc918c-b3d6-4236-ba2e-9083e004711e" x="90.19033" y="297.32686" width="59.70681" height="59.70682"/><rect class="d5bc918c-b3d6-4236-ba2e-9083e004711e" x="178.18989" y="291.18702" width="44.77911" height="2.39125" transform="translate(-137.60005 104.96011) rotate(-30.04509)"/><rect class="d5bc918c-b3d6-4236-ba2e-9083e004711e" x="160.11793" y="265.67918" width="5.96654" height="5.97482"/><rect class="d5bc918c-b3d6-4236-ba2e-9083e004711e" x="117.05241" y="265.67918" width="5.96631" height="5.97482"/><polygon class="b57c4347-fce2-449a-8ee0-c9957b6b763b" points="201.21 195.064 245.989 220.924 290.786 195.064 245.989 169.214 201.21 195.064"/><polygon class="3782a2f6-95b5-4796-87dc-3a2f9b4250a4" points="245.989 220.924 245.989 272.633 201.21 246.774 201.21 195.073 245.989 220.924"/><polygon class="435b9f0f-05c5-40bb-afcf-c04f33d044be" points="290.786 195.073 290.786 246.774 245.989 272.633 245.989 220.924 290.786 195.073"/><rect class="d5bc918c-b3d6-4236-ba2e-9083e004711e" x="123.01872" y="30.78325" width="19.71459" height="19.70631"/><rect class="d5bc918c-b3d6-4236-ba2e-9083e004711e" x="314.81744" y="80.34214" width="6.258" height="6.26628"/><rect class="b57c4347-fce2-449a-8ee0-c9957b6b763b" x="358.99767" y="18.46929" width="19.93981" height="19.94809"/><rect class="d5bc918c-b3d6-4236-ba2e-9083e004711e" x="425.69112" y="194.57914" width="23.28657" height="23.28822"/><rect class="d5bc918c-b3d6-4236-ba2e-9083e004711e" x="354.64738" y="411.96129" width="7.77985" height="7.7782"/><rect class="d5bc918c-b3d6-4236-ba2e-9083e004711e" x="423.62113" y="353.50806" width="27.75112" height="27.75112"/><rect class="b57c4347-fce2-449a-8ee0-c9957b6b763b" x="285.10894" y="311.04841" width="14.32765" height="14.3293"/><rect class="435b9f0f-05c5-40bb-afcf-c04f33d044be" x="369.57474" y="199.49578" width="17.44896" height="17.44919"/><rect class="d5bc918c-b3d6-4236-ba2e-9083e004711e" x="454.96244" y="94.80061" width="8.71549" height="8.73205"/><rect class="d5bc918c-b3d6-4236-ba2e-9083e004711e" x="414.22503" y="246.99296" width="7.11604" height="7.1307"/><rect class="435b9f0f-05c5-40bb-afcf-c04f33d044be" x="47.65781" y="20.62704" width="24.45239" height="24.45239"/><rect class="b57c4347-fce2-449a-8ee0-c9957b6b763b" y="196.4471" width="16.22045" height="16.22045"/><rect class="d5bc918c-b3d6-4236-ba2e-9083e004711e" x="97.04802" y="204.8496" width="24.19216" height="24.18412"/><rect class="435b9f0f-05c5-40bb-afcf-c04f33d044be" x="54.8382" y="248.44858" width="7.65069" height="7.64903"/><rect class="d5bc918c-b3d6-4236-ba2e-9083e004711e" x="48.25728" y="300.99819" width="13.16349" height="13.17177"/><rect class="d5bc918c-b3d6-4236-ba2e-9083e004711e" x="10.70599" y="359.58059" width="22.59271" height="22.58443"/><rect class="d5bc918c-b3d6-4236-ba2e-9083e004711e" x="157.14211" y="376.77145" width="17.90128" height="17.90294"/><rect class="435b9f0f-05c5-40bb-afcf-c04f33d044be" x="119.05759" y="418.55877" width="11.93474" height="11.93474"/><rect class="d5bc918c-b3d6-4236-ba2e-9083e004711e" x="174.84964" width="9.84819" height="9.84984"/></svg>