<svg id="3ef0c35d-b815-449e-b265-e6ae22eb8255" data-name="Layer 1" xmlns="http://www.w3.org/2000/svg" viewBox="0 0 260.13716 263.45619"><defs><style>.\37 7d98245-8ad8-4f81-a9f6-3066a7160d63,.ed29b0cd-7bd8-45ee-8176-9d76fd5092fe,.fd6494db-c9d2-4d6b-9c42-a51b0b0c9396{fill:#f5f5f5;}.\33 4f37dc5-4658-482c-afe4-b392b6ec8880,.\35 8f9a0b0-0ed9-4912-9d05-b2e7df8805ef{fill:#ff7f00;}.\36 b4f42e0-8f31-4f79-8efa-8c018f2c1985,.\36 f91d50b-ba99-4c2c-8bbb-8267ce72f6b0{fill:#b3e9ff;}.\34 de323dc-c94e-484d-93e1-f6b69b248672,.d3f53533-8781-44d7-a601-25885f087c5b{fill:#0d5e9d;}.\35 e9de4c7-a61b-424c-8a87-5e31f0c67440,.bdff4f95-0949-4687-a50e-19c6c9c5c376{fill:#fff;}.\33 4f37dc5-4658-482c-afe4-b392b6ec8880,.\36 f91d50b-ba99-4c2c-8bbb-8267ce72f6b0,.bdff4f95-0949-4687-a50e-19c6c9c5c376,.d3f53533-8781-44d7-a601-25885f087c5b,.ed29b0cd-7bd8-45ee-8176-9d76fd5092fe,.fd6494db-c9d2-4d6b-9c42-a51b0b0c9396{stroke:#fff;}.\33 4f37dc5-4658-482c-afe4-b392b6ec8880,.\36 ac21cde-3535-4c52-b863-14ef606126eb,.\36 f91d50b-ba99-4c2c-8bbb-8267ce72f6b0,.bdff4f95-0949-4687-a50e-19c6c9c5c376,.d3f53533-8781-44d7-a601-25885f087c5b,.ed29b0cd-7bd8-45ee-8176-9d76fd5092fe,.fd6494db-c9d2-4d6b-9c42-a51b0b0c9396{stroke-miterlimit:10;}.bdff4f95-0949-4687-a50e-19c6c9c5c376,.fd6494db-c9d2-4d6b-9c42-a51b0b0c9396{stroke-width:2.51066px;}.\36 ac21cde-3535-4c52-b863-14ef606126eb{fill:none;stroke:#0d5e9d;stroke-width:3.25752px;}</style></defs><title>bi-biometrics-types</title><polygon class="77d98245-8ad8-4f81-a9f6-3066a7160d63" points="35.446 110.262 34.895 113.462 9.291 108.949 9.866 105.75 35.446 110.262"/><polygon class="77d98245-8ad8-4f81-a9f6-3066a7160d63" points="40.397 92.832 39.292 95.895 14.886 87.009 15.991 83.946 40.397 92.832"/><polygon class="77d98245-8ad8-4f81-a9f6-3066a7160d63" points="48.317 76.532 46.704 79.342 24.189 66.356 25.822 63.546 48.317 76.532"/><polygon class="58f9a0b0-0ed9-4912-9d05-b2e7df8805ef" points="58.931 61.865 56.858 64.352 36.943 47.66 39.037 45.151 58.931 61.865"/><polygon class="77d98245-8ad8-4f81-a9f6-3066a7160d63" points="71.938 49.249 69.477 51.345 52.761 31.427 55.246 29.355 71.938 49.249"/><polygon class="77d98245-8ad8-4f81-a9f6-3066a7160d63" points="139.124 25.972 135.877 25.972 135.877 0 139.145 0 139.124 25.972"/><polygon class="77d98245-8ad8-4f81-a9f6-3066a7160d63" points="157.15 27.837 153.951 27.261 158.464 1.681 161.663 2.256 157.15 27.837"/><polygon class="77d98245-8ad8-4f81-a9f6-3066a7160d63" points="174.581 32.785 171.542 31.682 180.404 7.276 183.466 8.381 174.581 32.785"/><polygon class="77d98245-8ad8-4f81-a9f6-3066a7160d63" points="190.881 40.707 188.071 39.095 201.057 16.577 203.865 18.213 190.881 40.707"/><polygon class="6b4f42e0-8f31-4f79-8efa-8c018f2c1985" points="205.546 51.321 203.061 49.249 219.777 29.334 222.262 31.427 205.546 51.321"/><polygon class="77d98245-8ad8-4f81-a9f6-3066a7160d63" points="218.164 64.328 217.888 60.338 235.986 45.151 238.055 47.636 218.164 64.328"/><polygon class="77d98245-8ad8-4f81-a9f6-3066a7160d63" points="228.34 79.342 226.706 76.532 249.2 63.546 250.813 66.356 228.34 79.342"/><polygon class="77d98245-8ad8-4f81-a9f6-3066a7160d63" points="235.731 95.871 234.625 92.832 259.031 83.946 260.137 87.009 235.731 95.871"/><polygon class="77d98245-8ad8-4f81-a9f6-3066a7160d63" points="234.625 166.971 235.731 163.93 260.137 172.794 259.008 175.857 234.625 166.971"/><polygon class="77d98245-8ad8-4f81-a9f6-3066a7160d63" points="34.894 113.673 35.446 110.495 9.866 105.982 9.29 109.181 34.894 113.673"/><rect class="77d98245-8ad8-4f81-a9f6-3066a7160d63" x="118.38706" y="208.08566" width="3.23462" height="25.99511" transform="translate(-221.10639 127.52913) rotate(-70.05417)"/><polygon class="77d98245-8ad8-4f81-a9f6-3066a7160d63" points="58.931 198.171 56.858 195.683 36.943 212.376 39.037 214.884 58.931 198.171"/><polygon class="77d98245-8ad8-4f81-a9f6-3066a7160d63" points="71.938 210.787 69.476 208.691 52.761 228.608 55.246 230.68 71.938 210.787"/><polygon class="77d98245-8ad8-4f81-a9f6-3066a7160d63" points="86.951 220.941 84.141 219.328 71.155 241.823 73.965 243.435 86.951 220.941"/><polygon class="4de323dc-c94e-484d-93e1-f6b69b248672" points="103.481 228.353 100.442 227.25 91.556 251.63 94.618 252.76 103.481 228.353"/><polygon class="77d98245-8ad8-4f81-a9f6-3066a7160d63" points="218.164 195.707 216.068 198.171 235.986 214.884 238.055 212.399 218.164 195.707"/><polygon class="77d98245-8ad8-4f81-a9f6-3066a7160d63" points="228.339 180.694 226.706 183.504 249.2 196.49 250.813 193.679 228.339 180.694"/><polygon class="77d98245-8ad8-4f81-a9f6-3066a7160d63" points="235.731 164.164 234.625 167.203 259.031 176.089 260.137 173.026 235.731 164.164"/><polygon class="77d98245-8ad8-4f81-a9f6-3066a7160d63" points="234.625 93.065 235.731 96.106 260.137 87.241 259.008 84.179 234.625 93.065"/><polygon class="77d98245-8ad8-4f81-a9f6-3066a7160d63" points="204.362 210.109 201.949 212.264 219.399 231.54 221.788 229.361 204.362 210.109"/><path class="4de323dc-c94e-484d-93e1-f6b69b248672" d="M101.3943,301.43968c-3.89746,0-7.05777,7.24483-7.05777,16.18057,0,12.79751,2.43545,16.183,6.33415,16.183,3.89746,0,8.505-5.55638,8.505-18.35512C109.17569,306.51365,105.29177,301.43968,101.3943,301.43968Z" transform="translate(-92.35182 -130.94159)"/><path class="4de323dc-c94e-484d-93e1-f6b69b248672" d="M101.68351,334.89117h-.39873a4.55236,4.55236,0,0,0-4.77738,4.28635v3.18984a4.55236,4.55236,0,0,0,4.77738,4.28635h.39873a4.55317,4.55317,0,0,0,4.77738-4.28635v-3.18984A4.55154,4.55154,0,0,0,101.68351,334.89117Z" transform="translate(-92.35182 -130.94159)"/><path class="4de323dc-c94e-484d-93e1-f6b69b248672" d="M123.47213,284.01371c-3.89746,0-7.78139,5.074-7.78139,14.01093,0,12.79751,4.60755,18.35512,8.50624,18.35512,3.89746,0,6.33292-3.38428,6.33292-16.1818C130.5299,291.25854,127.37083,284.01371,123.47213,284.01371Z" transform="translate(-92.35182 -130.94159)"/><path class="4de323dc-c94e-484d-93e1-f6b69b248672" d="M123.58043,317.464h-.3975a4.55221,4.55221,0,0,0-4.77738,4.28512v3.19107a4.55236,4.55236,0,0,0,4.77738,4.28635h.3975a4.55317,4.55317,0,0,0,4.77738-4.28635v-3.19107A4.5514,4.5514,0,0,0,123.58043,317.464Z" transform="translate(-92.35182 -130.94159)"/><path class="58f9a0b0-0ed9-4912-9d05-b2e7df8805ef" d="M205.93753,225.2109c-.923-3.78547-6.77226-6.35753-15.45571-4.23835-12.43446,3.03232-16.74173,8.825-15.81629,12.61291.923,3.78794,4.78968,5.35086,17.22169,2.31854C200.57067,233.78483,206.86052,228.99761,205.93753,225.2109Z" transform="translate(-92.35182 -130.94159)"/><path class="58f9a0b0-0ed9-4912-9d05-b2e7df8805ef" d="M173.36966,232.85569a4.55126,4.55126,0,0,0-5.29548-3.62426l-3.1.75562a4.55225,4.55225,0,0,0-3.03354,5.65729l.09476.38519a4.55239,4.55239,0,0,0,5.29671,3.62549l3.10123-.75562a4.55051,4.55051,0,0,0,3.03108-5.65729Z" transform="translate(-92.35182 -130.94159)"/><path class="58f9a0b0-0ed9-4912-9d05-b2e7df8805ef" d="M141.62665,242.70454c3.86423-.51318,5.83327-4.1879,4.14728-16.87588-1.1765-8.85821-5.26348-15.62431-9.12772-15.11113-3.863.51441-7.04546,6.05479-5.86773,14.913C132.46448,238.31728,137.76242,243.21772,141.62665,242.70454Z" transform="translate(-92.35182 -130.94159)"/><path class="58f9a0b0-0ed9-4912-9d05-b2e7df8805ef" d="M146.88152,250.64345l-.42088-3.16154a4.551,4.551,0,0,0-5.3004-3.61934l-.395.05292a4.55081,4.55081,0,0,0-4.17067,4.87829l.42088,3.16277a4.54857,4.54857,0,0,0,5.3004,3.6181l.39381-.05169A4.55451,4.55451,0,0,0,146.88152,250.64345Z" transform="translate(-92.35182 -130.94159)"/><path class="6b4f42e0-8f31-4f79-8efa-8c018f2c1985" d="M172.48762,288.06377a13.56508,13.56508,0,0,1-2.2607.5341l.36181,2.43545a15.86493,15.86493,0,0,0,2.67789-.63378c4.29373-1.43124,7.06392-3.56642,8.23427-6.34645l-2.26686-.955C178.3492,285.19636,176.07988,286.86758,172.48762,288.06377Z" transform="translate(-92.35182 -130.94159)"/><path class="6b4f42e0-8f31-4f79-8efa-8c018f2c1985" d="M178.93007,271.42418a77.78852,77.78852,0,0,0-7.43681-9.93379l-1.87551,1.59123a75.958,75.958,0,0,1,7.20668,9.61382Z" transform="translate(-92.35182 -130.94159)"/><path class="6b4f42e0-8f31-4f79-8efa-8c018f2c1985" d="M109.62488,261.82512h-.00246a6.68542,6.68542,0,0,0-5.99695,3.21938l2.07733,1.318a4.25748,4.25748,0,0,1,3.91962-2.07733h.00246a15.09082,15.09082,0,0,1,5.61545,1.42263l.95252-2.26932A17.41,17.41,0,0,0,109.62488,261.82512Z" transform="translate(-92.35182 -130.94159)"/><path class="6b4f42e0-8f31-4f79-8efa-8c018f2c1985" d="M146.65508,284.3546a70.783,70.783,0,0,0,11.349,5.08258l.77285-2.33577a68.46451,68.46451,0,0,1-10.94539-4.90659Z" transform="translate(-92.35182 -130.94159)"/><path class="6b4f42e0-8f31-4f79-8efa-8c018f2c1985" d="M134.27846,273.77472c-1.558-.93406-3.10985-1.89273-4.64446-2.8391l-2.54867-1.56784-1.28357,2.09949,2.54006,1.56415c1.542.95006,3.10492,1.91612,4.62109,2.82311l.43319.288c.83684.55748,1.74875,1.16542,2.72466,1.80782l1.35248-2.05764c-.971-.63871-1.878-1.24419-2.71112-1.798Z" transform="translate(-92.35182 -130.94159)"/><path class="6b4f42e0-8f31-4f79-8efa-8c018f2c1985" d="M100.54846,275.6863,98.32488,274.631c-.80421,1.695-1.62747,3.63351-2.44248,5.756l2.29709.8825C98.97385,279.20436,99.7709,277.32582,100.54846,275.6863Z" transform="translate(-92.35182 -130.94159)"/><path class="6b4f42e0-8f31-4f79-8efa-8c018f2c1985" d="M165.81012,247.94833l-9.03542-2.40592L154.37,254.57783l2.37884.63378,1.46324-5.49977c.20675.28674.4418.6104.69285.95868,1.41032,1.953,3.34244,4.62847,4.42049,5.89481l1.87182-1.59615c-1.01283-1.19127-2.91171-3.81993-4.29865-5.73974-.01354-.01969-.02584-.03323-.03692-.05169l4.31465,1.1482Z" transform="translate(-92.35182 -130.94159)"/><path class="6b4f42e0-8f31-4f79-8efa-8c018f2c1985" d="M95.0937,293.68449a13.56508,13.56508,0,0,1,.58694-2.24756l-2.32126-.821a15.86493,15.86493,0,0,0-.69427,2.66285c-.74649,4.464-.15745,7.9116,1.75066,10.24773l1.90548-1.55556C94.88179,300.20639,94.46808,297.41863,95.0937,293.68449Z" transform="translate(-92.35182 -130.94159)"/><path class="77d98245-8ad8-4f81-a9f6-3066a7160d63" d="M217.96569,157.09267a5.75979,5.75979,0,0,0-1.6022,2.05841l-.3901-.49811a5.07592,5.07592,0,0,0-7.105-.864,4.70947,4.70947,0,0,0-1.44624,2.25756,5.12606,5.12606,0,0,0-5.656-1.27088l-2.06971-2.64275a18.363,18.363,0,0,0-24.29222-4.16727,6.2529,6.2529,0,0,0-8.07077-.21874,2.538,2.538,0,0,1-3.55261-.432l-1.99231,1.56031a5.07592,5.07592,0,0,0,7.105.864,3.71565,3.71565,0,0,1,4.40517-.21084,18.36918,18.36918,0,0,0-4.22512,22.56964l-.016.01252.19531.316q.38621.68685.8389,1.34819.06883.10232.13816.20142l.03405.04829c.0739.10446.148.20726.22244.30736.04188.05685.08479.11308.12735.16958q.06021.07941.12043.15786c.025.0324.04921.06523.07444.09745l.234.29884,10.60985,13.54737L190.3121,203.66a18.23354,18.23354,0,0,0,31.281-4.201,9.977,9.977,0,0,0,6.62781-2.18451l7.67026-6.0071a10.20169,10.20169,0,0,0,2.98943-11.9839,6.13732,6.13732,0,0,1-.707-2.3391c.09482-1.52066-1.01059-3.54774-3.585-6.835l-9.51772-12.15286A5.076,5.076,0,0,0,217.96569,157.09267Z" transform="translate(-92.35182 -130.94159)"/><path class="4de323dc-c94e-484d-93e1-f6b69b248672" d="M172.57173,176.89622c2.26067-.80282,5.32563.65161,7.6644,3.63791,2.34042,2.9884,2.9394,6.21571,1.69243,8.31721L173.035,177.49543l-.234-.29884Q172.68411,177.0474,172.57173,176.89622Z" transform="translate(-92.35182 -130.94159)"/><path class="5e9de4c7-a61b-424c-8a87-5e31f0c67440" d="M192.30447,202.1l-8.7377-11.15688c2.487-2.91162,1.96842-7.747-1.33833-11.96928-3.18159-4.06247-7.64513-5.72806-11.03152-4.27506a15.81661,15.81661,0,0,1,26.50753-17.00558l2.02839,2.59a6.09414,6.09414,0,0,0-.38024.536,6.3,6.3,0,0,0-.3404.5958l-2.69385-3.43969a5.07592,5.07592,0,0,0-7.105-.864c-.01669.01307-.03233.027-.04884.04032-.01688.01284-.03416.02468-.05085.03775a5.07592,5.07592,0,0,0-.864,7.105l11.13955,14.22373a8.99209,8.99209,0,0,0-.94022-.15278,9.87766,9.87766,0,0,0-9.33954,4.05889,6.86,6.86,0,0,0-.6277,1.45586,3.24358,3.24358,0,0,0,.599,3.22731c.21245.4764.56766.5197,2.5.93486a75.1926,75.1926,0,0,1,12.11836,3.36626,62.80825,62.80825,0,0,0,9.263,2.38819l1.48223,1.89262a9.78834,9.78834,0,0,0,4.63287,3.30518,15.59145,15.59145,0,0,1-4.5691,5.80541A15.822,15.822,0,0,1,192.30447,202.1Z" transform="translate(-92.35182 -130.94159)"/><path class="5e9de4c7-a61b-424c-8a87-5e31f0c67440" d="M234.43042,189.19711l-7.67026,6.0071a7.397,7.397,0,0,1-5.09683,1.61245,1.27434,1.27434,0,0,0-.56916-.22848,6.52763,6.52763,0,0,1-4.293-2.41237,6.40728,6.40728,0,0,0,3.33876-.858l.19927-.15606a1.1154,1.1154,0,0,0,.27238-1.49907,1.25375,1.25375,0,0,0-1.65513-.47164c-1.35142.7369-2.67272.48614-4.17179.21376a1.99228,1.99228,0,0,1-.2344.002,1.23566,1.23566,0,0,0-.554-.188,62.22145,62.22145,0,0,1-9.185-2.28862,58.37245,58.37245,0,0,0-10.5767-3.11669c-.7317-.17822-1.37036-.33457-1.87528-.47042-.35532-.04321-.78851-.18608-1.14374-.22917-.078-.09957-.05648-.27725-.01318-.63245a2.03982,2.03982,0,0,1,.38523-.94448,4.8188,4.8188,0,0,1,.79174-.95831,7.78223,7.78223,0,0,1,7.51219-1.36669l2.73169,1.12916a1.36655,1.36655,0,0,0,.18.12624l2.5564,1.2122c.51129.24236,1.66344-.33849,1.607-.61574a1.33279,1.33279,0,0,0-.61573-1.607l-1.79877-.853q-.03174-.04774-.06879-.09529l-14.04249-17.9304a2.468,2.468,0,1,1,3.88492-3.04254l5.46093,6.97288a1.39862,1.39862,0,0,0,.46846.393l1.97153,2.51738.078.09957,6.94326,8.86562a1.26521,1.26521,0,1,0,1.99219-1.56021l-7.02124-8.9652-.00009-.00012-2.34032-2.98828a2.538,2.538,0,0,1,.432-3.55261,2.46,2.46,0,0,1,3.55261.432l2.34042,2.9884,6.24114,7.9691a1.26521,1.26521,0,1,0,1.99219-1.56021l-6.24114-7.9691-.00009-.00012a2.94112,2.94112,0,0,1,.43209-3.55249,2.538,2.538,0,0,1,3.55261.432l3.12052,3.98449,3.12052,3.98449a1.26521,1.26521,0,0,0,1.99219-1.56021l-3.12052-3.98449a2.53058,2.53058,0,1,1,3.98461-3.12061l9.51772,12.15286a18.96661,18.96661,0,0,1,2.91893,4.5488,1.10855,1.10855,0,0,0-.10556.47987c-.03.98778-.216,1.7762-1.59734,3.501a1.30092,1.30092,0,0,0,.23891,1.74142,1.52358,1.52358,0,0,0,1.54216-.08285,12.96859,12.96859,0,0,0,.962-1.46062l.02079.04794A7.90084,7.90084,0,0,1,234.43042,189.19711Z" transform="translate(-92.35182 -130.94159)"/><path class="58f9a0b0-0ed9-4912-9d05-b2e7df8805ef" d="M186.95477,168.11785a4.0489,4.0489,0,1,0-4.99295-6.37533,4.16312,4.16312,0,0,0-.69119,5.68414A4.07694,4.07694,0,0,0,186.95477,168.11785Zm-3.51062-4.4826a1.51832,1.51832,0,1,1-.25919,2.13153A1.53846,1.53846,0,0,1,183.44414,163.63525Z" transform="translate(-92.35182 -130.94159)"/><path class="77d98245-8ad8-4f81-a9f6-3066a7160d63" d="M342.42688,238.62354l-15.2489-4.03461a1.6206,1.6206,0,0,0-1.87421.74377,1.53354,1.53354,0,0,0,.96973,2.18591l15.36957,4.06653a2.70361,2.70361,0,0,1,1.92212,3.30518l-10.77466,40.723a2.70359,2.70359,0,0,1-3.30518,1.92212l-89.88794-23.783a2.70359,2.70359,0,0,1-1.92212-3.30518L248.45,219.72412a2.70379,2.70379,0,0,1,3.30542-1.92224l66.50012,17.59491a1.62071,1.62071,0,0,0,1.87421-.74384A1.53354,1.53354,0,0,0,319.16,232.467l-15.06213-3.98517a.08644.08644,0,0,1-.0614-.10565l.89105-3.36786a3.30659,3.30659,0,0,0-2.35077-4.04236l-1.952-.51648a.08643.08643,0,0,1-.06146-.10565l.48169-1.82037-.05054-.01123c3.77063-8.42-5.48846-15.8313-12.37317-19.0415-5.2644-2.45465-11.11859-3.45459-12.84137-9.91833-1.88184-7.06079,3.26266-12.75446,7.49288-17.97255,1.24278-1.533-1.51662-2.94656-2.85005-1.54379-6.01758,6.3302-10.89295,14.45542-6.45911,23.171,1.85651,3.64929,5.00983,5.57782,8.69763,7.08813,5.67633,2.32471,19.91187,8.37756,15.55176,17.12677a1.62121,1.62121,0,0,0-.13495.40338l-.01636-.004-.46014,1.73914a.08643.08643,0,0,1-.10565.06146l-1.65576-.43811a3.30654,3.30654,0,0,0-4.0423,2.35083l-.89111,3.36786a.08643.08643,0,0,1-.10565.06146L252.539,214.84039a5.76717,5.76717,0,0,0-7.05048,4.10016l-10.7746,40.72284a5.767,5.767,0,0,0,4.1,7.05023l89.88812,23.783a5.767,5.767,0,0,0,7.05023-4.1l10.7746-40.72284A5.7669,5.7669,0,0,0,342.42688,238.62354Zm-47.64545-16.38867a.157.157,0,0,1,.19165-.11145l6.81982,1.80438a.24391.24391,0,0,1,.17285.2973l-.89105,3.36792a.0864.0864,0,0,1-.10565.0614l-7.03918-1.86243a.08643.08643,0,0,1-.06146-.10565l.91321-3.45142Z" transform="translate(-92.35182 -130.94159)"/><path class="34f37dc5-4658-482c-afe4-b392b6ec8880" d="M260.46768,224.40086l-6.53788-1.72982A2.481,2.481,0,0,0,250.9,224.433l-1.59187,6.01651a2.48131,2.48131,0,0,0,1.762,3.02982l6.53788,1.72982a2.481,2.481,0,0,0,3.02983-1.762l1.59187-6.01651A2.481,2.481,0,0,0,260.46768,224.40086Zm-2.64173,7.6972-5.40653-1.43048,1.29254-4.88516,5.40653,1.43048Z" transform="translate(-92.35182 -130.94159)"/><path class="ed29b0cd-7bd8-45ee-8176-9d76fd5092fe" d="M274.01986,227.98676l-5.76417-1.52511a2.18743,2.18743,0,0,0-2.67127,1.55347l-1.40349,5.3045a2.18743,2.18743,0,0,0,1.55347,2.67127l5.76417,1.52511a2.18758,2.18758,0,0,0,2.67144-1.55342l1.40349-5.3045A2.18781,2.18781,0,0,0,274.01986,227.98676Zm-2.329,6.78611-4.76688-1.26124,1.13957-4.307,4.76688,1.26124Z" transform="translate(-92.35182 -130.94159)"/><path class="d3f53533-8781-44d7-a601-25885f087c5b" d="M286.09343,231.18124l-6.53788-1.72982a2.481,2.481,0,0,0-3.02983,1.762l-1.59187,6.01651a2.481,2.481,0,0,0,1.762,3.02983l6.53788,1.72982a2.481,2.481,0,0,0,3.02983-1.762l1.59187-6.01651A2.481,2.481,0,0,0,286.09343,231.18124Zm-2.64187,7.69695L278.045,237.4477l1.29254-4.88516,5.40653,1.43048Z" transform="translate(-92.35182 -130.94159)"/><path class="6f91d50b-ba99-4c2c-8bbb-8267ce72f6b0" d="M298.90634,234.57133l-6.53788-1.72982a2.481,2.481,0,0,0-3.02983,1.762L287.74676,240.62a2.481,2.481,0,0,0,1.762,3.02983l6.53788,1.72982a2.48122,2.48122,0,0,0,3.03-1.76193l1.59187-6.01651A2.48148,2.48148,0,0,0,298.90634,234.57133Zm-2.64167,7.697-5.40673-1.43053,1.29254-4.88516,5.40673,1.43053Z" transform="translate(-92.35182 -130.94159)"/><path class="ed29b0cd-7bd8-45ee-8176-9d76fd5092fe" d="M311.71925,237.96142l-6.53788-1.72982a2.481,2.481,0,0,0-3.02982,1.762l-1.59187,6.01651a2.481,2.481,0,0,0,1.762,3.02982l6.53788,1.72982a2.481,2.481,0,0,0,3.02982-1.762l1.59187-6.01651A2.481,2.481,0,0,0,311.71925,237.96142Zm-2.64187,7.69695-5.40653-1.43048,1.29254-4.88516,5.40653,1.43048Z" transform="translate(-92.35182 -130.94159)"/><path class="d3f53533-8781-44d7-a601-25885f087c5b" d="M324.532,241.35146l-6.53788-1.72982a2.481,2.481,0,0,0-3.02982,1.762l-1.59187,6.01651a2.481,2.481,0,0,0,1.762,3.02982l6.53788,1.72982a2.48122,2.48122,0,0,0,3.03-1.76193l1.59187-6.01651A2.48122,2.48122,0,0,0,324.532,241.35146Zm-2.64148,7.697-5.40673-1.43053,1.29254-4.88516,5.40673,1.43053Z" transform="translate(-92.35182 -130.94159)"/><path class="6f91d50b-ba99-4c2c-8bbb-8267ce72f6b0" d="M337.34511,244.7414l-6.53788-1.72982a2.481,2.481,0,0,0-3.02982,1.762l-1.59187,6.01651a2.481,2.481,0,0,0,1.762,3.02982l6.53788,1.72982a2.481,2.481,0,0,0,3.02982-1.762l1.59187-6.01651A2.481,2.481,0,0,0,337.34511,244.7414Zm-2.64192,7.69714-5.40653-1.43048,1.29254-4.88516,5.40653,1.43048Z" transform="translate(-92.35182 -130.94159)"/><path class="d3f53533-8781-44d7-a601-25885f087c5b" d="M262.30651,240.0992l-12.1382-3.21157a2.481,2.481,0,0,0-3.02983,1.762l-1.59187,6.01651a2.481,2.481,0,0,0,1.762,3.02982l12.1382,3.21157a2.48131,2.48131,0,0,0,3.02983-1.762l1.59187-6.01651A2.481,2.481,0,0,0,262.30651,240.0992Zm-2.64167,7.697h0L248.658,244.884l1.29254-4.88516,11.00685,2.91224Z" transform="translate(-92.35182 -130.94159)"/><path class="d3f53533-8781-44d7-a601-25885f087c5b" d="M333.58368,258.9578l-12.1382-3.21157a2.48131,2.48131,0,0,0-3.02982,1.762l-1.59187,6.01651a2.481,2.481,0,0,0,1.762,3.02982l12.1382,3.21157a2.481,2.481,0,0,0,3.02982-1.762l1.59187-6.01651A2.481,2.481,0,0,0,333.58368,258.9578ZM330.942,266.655l-11.00685-2.91224,1.29254-4.88516,11.00685,2.91224Z" transform="translate(-92.35182 -130.94159)"/><path class="6f91d50b-ba99-4c2c-8bbb-8267ce72f6b0" d="M275.36417,243.55384l-6.53788-1.72982a2.48131,2.48131,0,0,0-3.02983,1.762l-1.59187,6.01651a2.481,2.481,0,0,0,1.762,3.02982l6.53788,1.72982a2.48122,2.48122,0,0,0,3.03-1.76193l1.59187-6.01651A2.48122,2.48122,0,0,0,275.36417,243.55384Zm-2.64173,7.6972-5.40673-1.43053,1.29254-4.88516,5.40673,1.43053Z" transform="translate(-92.35182 -130.94159)"/><path class="ed29b0cd-7bd8-45ee-8176-9d76fd5092fe" d="M288.03626,247.7709l-5.76417-1.52511a2.18755,2.18755,0,0,0-2.67127,1.55347l-1.40349,5.3045a2.18743,2.18743,0,0,0,1.55347,2.67127l5.76417,1.52511a2.18758,2.18758,0,0,0,2.67144-1.55342l1.40349-5.3045A2.18758,2.18758,0,0,0,288.03626,247.7709Zm-2.3291,6.78629-4.76688-1.26124,1.13957-4.307,4.76688,1.26124Z" transform="translate(-92.35182 -130.94159)"/><path class="d3f53533-8781-44d7-a601-25885f087c5b" d="M301.73849,250.53206l-6.53788-1.72982a2.4813,2.4813,0,0,0-3.02982,1.762l-1.59187,6.01651a2.481,2.481,0,0,0,1.762,3.02982l6.53788,1.72982a2.48122,2.48122,0,0,0,3.03-1.76193l1.59187-6.01651A2.48122,2.48122,0,0,0,301.73849,250.53206Zm-2.64153,7.69725-5.40673-1.43053,1.29254-4.88516,5.40673,1.43053Z" transform="translate(-92.35182 -130.94159)"/><path class="34f37dc5-4658-482c-afe4-b392b6ec8880" d="M314.92576,254.0212l-6.53788-1.72982a2.4813,2.4813,0,0,0-3.02982,1.762l-1.59187,6.01651a2.481,2.481,0,0,0,1.762,3.02982l6.53788,1.72982a2.48122,2.48122,0,0,0,3.03-1.76193l1.59187-6.01651A2.48122,2.48122,0,0,0,314.92576,254.0212Zm-2.64173,7.6972-5.40673-1.43053,1.29254-4.88516,5.40673,1.43053Z" transform="translate(-92.35182 -130.94159)"/><path class="d3f53533-8781-44d7-a601-25885f087c5b" d="M315.85392,269.47839l-43.57154-11.52834a1.5318,1.5318,0,0,0-.78361,2.96168l43.00576,11.37864-1.29254,4.88516-54.3471-14.37938,1.29254-4.88516,3.46806.91759a1.5318,1.5318,0,1,0,.78361-2.96168l-4.03363-1.06724a2.481,2.481,0,0,0-3.02983,1.762l-1.59187,6.01651a2.48074,2.48074,0,0,0,1.76179,3.02977l55.47865,14.67877a2.481,2.481,0,0,0,3.02982-1.762l1.59187-6.01651A2.481,2.481,0,0,0,315.85392,269.47839Z" transform="translate(-92.35182 -130.94159)"/><path class="34f37dc5-4658-482c-afe4-b392b6ec8880" d="M252.94476,252.83383l-6.53788-1.72982a2.481,2.481,0,0,0-3.02983,1.762l-1.59187,6.01651a2.481,2.481,0,0,0,1.762,3.02982l6.53788,1.72982a2.481,2.481,0,0,0,3.02983-1.762l1.59187-6.01651A2.481,2.481,0,0,0,252.94476,252.83383Zm-2.64167,7.697-5.40653-1.43048,1.29254-4.88516,5.40653,1.43048Z" transform="translate(-92.35182 -130.94159)"/><path class="ed29b0cd-7bd8-45ee-8176-9d76fd5092fe" d="M329.8222,273.17438l-6.53788-1.72982a2.481,2.481,0,0,0-3.02982,1.762l-1.59187,6.01651a2.481,2.481,0,0,0,1.762,3.02982l6.53788,1.72982a2.481,2.481,0,0,0,3.02982-1.762l1.59187-6.01651A2.48131,2.48131,0,0,0,329.8222,273.17438Zm-2.64187,7.697-5.40653-1.43048,1.29254-4.88516,5.40653,1.43048Z" transform="translate(-92.35182 -130.94159)"/><rect class="6b4f42e0-8f31-4f79-8efa-8c018f2c1985" x="287.48683" y="372.54992" width="6.26713" height="6.26713" rx="1.30913" ry="1.30913" transform="translate(-263.38912 133.07065) rotate(-38.67708)"/><path class="fd6494db-c9d2-4d6b-9c42-a51b0b0c9396" d="M283.17558,361.35935V340.52428l-3.13352-12.91969V302.92153h-3.13357a18.70423,18.70423,0,0,0-12.5343,4.82569v-1.64527c-1.23965.91432-2.6144,1.66958-3.87658,2.54744.047,2.49447.024,5.85713.03049,6.42688.00945.82361.0095,1.64731.01706,2.47092.045,1.48662.08382,2.74721.08755,3.07345.085,7.39657.08862,14.79436.09194,22.19134.00332,7.39652-.013,14.79508-.09194,22.19129.01446-1.35146.07871,9.13113-.22189,9.192-2.40692.48679-4.19889-.02958-6.48587-.73228a12.75911,12.75911,0,0,0-6.7997,0,12.09277,12.09277,0,0,0,.00128-1.28148,18.89112,18.89112,0,0,0-7.95625,1.197c.04735.098.094.19615.144.29366a12.62979,12.62979,0,0,0-1.71586.04143c-.5487.00582-1.09744.00434-1.64619.00684-.05971.01471-.11534.03509-.178.04572a29.75209,29.75209,0,0,1-5.70829.07483c-.00879.027-.01849.04715-.02717.07524-.118.38141-5.33863.05838-5.85821.05859-.016,0-.05062-.00092-.077-.00143-.11381.00005-.22761.00138-.34142.00143-1.38068.00061-2.76172-.0024-4.14234-.01716.162.00174-.71813-.03851-1.27826-.0496-.004.00291-.01818.005-.01915.00817l.00306-.00848a2.33607,2.33607,0,0,0-.42151.00848c.869-1.38645.01635-3.0163-.06972-4.49827.008.13694,11.69833-.31169,11.71641,0,.0449.773.29437,1.586.40327,2.38409.74995.00174,1.49985.00766,2.24908.02728a7.04176,7.04176,0,0,1,.75828.02958h.04153l-.00572.00429c.025.00378.05149.00419.07585.009,1.20624.00036,2.41274.00209,3.61893.015a9.73011,9.73011,0,0,1,1.71581.04143,7.81524,7.81524,0,0,1,.52147.94947c-.09087-1.23081-.13868-2.46377-.12193-3.69989q-.03172-2.45358-.06349-4.90721c-.085-7.39657-.08862-14.79431-.09194-22.19129-.00332-7.39652.013-14.79513.09194-22.19134-.012,1.12232-.23609-8.97728.22189-9.19191,3.30679-1.54985,7.00857-1.2729,10.56569-1.25533a2.51955,2.51955,0,0,1,.10819.85155,10.61582,10.61582,0,0,1,4.28547.40378c.41456.12739.80946.24477,1.19807.355.01318-.71971.02769-1.48018.0428-2.20909-1.32894-1.02389-2.35471-2.19387-4.10715-2.78674a14.84477,14.84477,0,0,0-5.52971-.48577c-5.07873.23119-10.153.80741-15.20152,1.3911-.92612.10711-1.84755.22337-2.76948.33707-.01527,1.7838-.03632,3.5675-.08326,5.35068a26.76252,26.76252,0,0,1-.12091,2.70292,9.259,9.259,0,0,0-.93608-.729c-.01083.71506-.042,1.42905-.11,2.14125a19.24893,19.24893,0,0,0-5.39063-4.11062,8.68572,8.68572,0,0,1-1.35856-.404l-.05358-.01216a12.00348,12.00348,0,0,1-1.98454-.28533c-.00163-.01864-.00184-.03739-.00347-.056-.03371.00255-.06748.00046-.10114.00373a.55107.55107,0,0,1-.014-.12877,8.951,8.951,0,0,0-3.16458-.309v.86054A9.36,9.36,0,0,0,207.28062,327.99a9.25661,9.25661,0,0,0,0,12.53425,9.25668,9.25668,0,0,0,0,12.5343,9.36,9.36,0,0,0,6.95652,15.66782v9.40067h15.05681l21.8629,8.86485,4.50291,5.64046,4.89464-3.917-5.5245-6.89384-9.05287-3.69448h18.39715V321.72293a12.55315,12.55315,0,0,1,9.40072-12.13634V327.99l3.13357,12.91969v22.64942l5.38971,6.734,4.89464-3.91693Z" transform="translate(-92.35182 -130.94159)"/><path class="5e9de4c7-a61b-424c-8a87-5e31f0c67440" d="M258.10708,321.72292V371.86H220.50429v-3.71014a9.313,9.313,0,0,0,3.823-15.09125,9.244,9.244,0,0,0,1.7548-9.76419,9.34743,9.34743,0,0,0,0-18.07441,9.31609,9.31609,0,0,0-5.1083-12.14431q-.2323-.09474-.46945-.17686V299.788h37.60279Z" transform="translate(-92.35182 -130.94159)"/><rect class="58f9a0b0-0ed9-4912-9d05-b2e7df8805ef" x="143.68944" y="232.24379" width="6.26713" height="6.26713" rx="1.34501" ry="1.34501"/><path class="6ac21cde-3535-4c52-b863-14ef606126eb" d="M217.20654,313.59048V295.32865a.01.01,0,0,1,.01-.01H261.1331a.01.01,0,0,1,.01.01v79.7632a.01.01,0,0,1-.01.01H217.21654a.01.01,0,0,1-.01-.01v-7.52192" transform="translate(-92.35182 -130.94159)"/><path class="bdff4f95-0949-4687-a50e-19c6c9c5c376" d="M214.23716,318.58935h3.13357a3.13357,3.13357,0,1,1,0,6.26713h-3.13357a3.13357,3.13357,0,1,1,0-6.26713Z" transform="translate(-92.35182 -130.94159)"/><path class="bdff4f95-0949-4687-a50e-19c6c9c5c376" d="M214.23716,331.12361h9.4007a3.13357,3.13357,0,0,1,0,6.26713h-9.4007a3.13357,3.13357,0,1,1,0-6.26713Z" transform="translate(-92.35182 -130.94159)"/><path class="bdff4f95-0949-4687-a50e-19c6c9c5c376" d="M214.23716,343.65788h3.13357a3.13357,3.13357,0,1,1,0,6.26713h-3.13357a3.13357,3.13357,0,1,1,0-6.26713Z" transform="translate(-92.35182 -130.94159)"/><path class="bdff4f95-0949-4687-a50e-19c6c9c5c376" d="M217.37072,362.45927h-3.13357a3.13357,3.13357,0,1,1,0-6.26713h3.13357a3.13357,3.13357,0,1,1,0,6.26713Z" transform="translate(-92.35182 -130.94159)"/></svg>