<svg width="103" height="149" viewBox="0 0 103 149" fill="none" xmlns="http://www.w3.org/2000/svg"><g clip-path="url(#a)"><path d="M99.268 62.226c0-18.867-15.592-34.163-34.825-34.163-19.233 0-34.825 15.294-34.825 34.163 0 8.359 3.064 16.011 8.144 21.948.115.152.24.302.384.449.102.105.192.209.292.314.15.165.3.328.453.49 4.732 5.129 7.196 9.993 8.431 13.003.265.981.614 1.924 1.04 2.828.032.09.058.163.078.205l.024.004c2.861 5.84 8.93 9.882 15.979 9.882 8.21 0 15.097-5.477 17.119-12.906 1.058-2.654 3.146-6.975 7.09-11.672 6.542-6.207 10.616-14.906 10.616-24.545z" fill="#3C424F"/><path d="M64.443 112.18c-6.942 0-13.39-3.898-16.549-9.97l-.02-.004-.207-.403a2.704 2.704 0 0 1-.109-.279 17.338 17.338 0 0 1-1.058-2.878c-1.244-3.015-3.714-7.754-8.241-12.66l-.731-.79a6.695 6.695 0 0 1-.445-.518c-5.353-6.254-8.316-14.239-8.316-22.45 0-19.295 16.003-34.992 35.674-34.992 19.668 0 35.671 15.697 35.671 34.992 0 9.56-3.862 18.487-10.875 25.144-3.705 4.42-5.797 8.633-6.889 11.375-2.136 7.874-9.511 13.433-17.905 13.433zM49.16 100.988l.067.121c2.845 5.805 8.676 9.411 15.216 9.411 7.627 0 14.333-5.053 16.301-12.29 1.167-2.944 3.343-7.327 7.256-11.984 6.743-6.41 10.422-14.914 10.422-24.017 0-18.38-15.243-33.332-33.979-33.332-18.738 0-33.98 14.953-33.98 33.331 0 7.822 2.825 15.428 7.946 21.414.126.16.232.288.354.413l.746.807c4.702 5.098 7.272 10.023 8.597 13.26.288 1.025.619 1.931 1.026 2.791l.028.075zM64.443 125.306c-4.337 0-7.866 2.749-7.866 6.126 0 3.38 3.529 6.127 7.866 6.127 4.335 0 7.863-2.749 7.863-6.127 0-3.377-3.528-6.126-7.863-6.126zm-6.173 6.128c0-2.462 2.77-4.466 6.173-4.466 1.078 0 2.08.22 2.96.572-3.093.552-5.401 2.637-5.401 5.139 0 1.174.658 2.316 1.858 3.178-3.124-.216-5.59-2.105-5.59-4.423z" fill="#fff"/><path d="M64.443 132.921c6.992 0 12.66-3.22 12.66-7.191 0-3.971-5.668-7.191-12.66-7.191s-12.66 3.22-12.66 7.191c0 3.971 5.668 7.191 12.66 7.191z" fill="#3C424F"/><path d="M64.443 133.75c-7.574 0-13.506-3.523-13.506-8.02 0-4.499 5.932-8.022 13.506-8.022s13.507 3.523 13.507 8.022c0 4.497-5.933 8.02-13.507 8.02zm0-14.379c-6.403 0-11.814 2.913-11.814 6.359 0 3.448 5.409 6.36 11.814 6.36 6.403 0 11.814-2.912 11.814-6.36 0-3.448-5.41-6.359-11.814-6.359z" fill="#fff"/><path d="M64.443 128.215c6.992 0 12.66-3.219 12.66-7.191 0-3.971-5.668-7.19-12.66-7.19s-12.66 3.219-12.66 7.19c0 3.972 5.668 7.191 12.66 7.191z" fill="#3C424F"/><path d="M64.443 129.044c-7.574 0-13.506-3.523-13.506-8.019 0-4.5 5.932-8.022 13.506-8.022s13.507 3.522 13.507 8.022c0 4.496-5.933 8.019-13.507 8.019zm0-14.379c-6.403 0-11.814 2.914-11.814 6.36 0 3.445 5.409 6.359 11.814 6.359 6.403 0 11.814-2.911 11.814-6.359s-5.41-6.36-11.814-6.36z" fill="#fff"/><path d="M64.443 123.247c6.992 0 12.66-3.219 12.66-7.19 0-3.971-5.668-7.191-12.66-7.191s-12.66 3.22-12.66 7.191c0 3.971 5.668 7.19 12.66 7.19z" fill="#3C424F"/><path d="M64.443 124.077c-7.574 0-13.506-3.523-13.506-8.02s5.932-8.02 13.506-8.02 13.507 3.523 13.507 8.02-5.933 8.02-13.507 8.02zm0-14.379c-6.403 0-11.814 2.911-11.814 6.359s5.409 6.359 11.814 6.359c6.403 0 11.814-2.911 11.814-6.359s-5.41-6.359-11.814-6.359z" fill="#fff"/><path d="M64.443 118.542c6.992 0 12.66-3.219 12.66-7.191 0-3.971-5.668-7.19-12.66-7.19s-12.66 3.219-12.66 7.19c0 3.972 5.668 7.191 12.66 7.191z" fill="#3C424F"/><path d="M64.443 119.371c-7.574 0-13.506-3.523-13.506-8.02 0-4.496 5.932-8.019 13.506-8.019s13.507 3.523 13.507 8.019c0 4.497-5.933 8.02-13.507 8.02zm0-14.379c-6.403 0-11.814 2.911-11.814 6.359s5.409 6.36 11.814 6.36c6.403 0 11.814-2.912 11.814-6.36 0-3.448-5.41-6.359-11.814-6.359z" fill="#fff"/><path d="M64.443 113.572c6.992 0 12.66-3.219 12.66-7.19 0-3.972-5.668-7.191-12.66-7.191s-12.66 3.219-12.66 7.191c0 3.971 5.668 7.19 12.66 7.19z" fill="#3C424F"/><path d="M64.399 104.728c-6.5 0-11.77 2.993-11.77 6.685 0 .189.07.369.1.554 1.89 2.619 6.42 4.466 11.714 4.466 5.192 0 9.65-1.777 11.602-4.316.044-.236.124-.462.124-.704 0-3.692-5.27-6.685-11.77-6.685z" fill="#FFCE71"/><path d="M64.443 114.404c-7.574 0-13.506-3.523-13.506-8.022 0-4.497 5.932-8.02 13.506-8.02s13.507 3.523 13.507 8.02c0 4.499-5.933 8.022-13.507 8.022zm0-14.38c-6.403 0-11.814 2.912-11.814 6.36 0 3.448 5.409 6.359 11.814 6.359 6.403 0 11.814-2.913 11.814-6.359 0-3.448-5.41-6.36-11.814-6.36z" fill="#fff"/><path d="M68.3 84.225l-2.381-1.48c8.352-12.948 9.46-16.908 9.523-18.051-.356.114-.858.325-1.288.505-1.819.766-4.585 1.925-8.301 1.859-3.582-.06-6.222-1.247-7.97-2.032-.468-.212-1.023-.46-1.367-.568-.31.843-.334 4.41 8.778 18.093l-2.36 1.513c-10.63-15.962-10.148-19.975-8.272-21.796 1.22-1.187 2.764-.492 4.394.242 1.627.73 3.854 1.73 6.843 1.779 3.069.064 5.45-.924 7.145-1.636 1.598-.673 3.105-1.306 4.324-.28 1.648 1.393 2.307 4.22-9.067 21.852z" fill="#FFCE71"/><path d="M67.059 84.225l-3.104-1.929-2.771 1.777-.464-.695c-10.932-16.42-10.384-20.681-8.16-22.84 1.638-1.597 3.695-.665 5.343.076 1.558.7 3.69 1.656 6.505 1.705 2.876.055 5.16-.882 6.796-1.568 1.684-.706 3.588-1.511 5.21-.145 2.085 1.754 2.854 4.69-8.904 22.92l-.451.699zm-1.478-2.883l.95.591c10.066-15.696 10.097-18.961 8.78-20.067-.778-.656-1.814-.273-3.44.41-1.677.707-4.182 1.769-7.496 1.703-3.167-.053-5.484-1.095-7.179-1.856-1.832-.825-2.718-1.117-3.447-.407-1.394 1.355-2.066 4.917 7.923 20.055l.942-.605c-6.337-9.6-9.238-15.866-8.403-18.135l.278-.752.776.244c.351.11.904.354 1.39.57 1.756.789 4.297 1.932 7.702 1.99 3.484.079 6.197-1.054 7.954-1.792.48-.2.99-.414 1.354-.533l1.178-.384-.066 1.216c-.124 2.397-3.385 8.683-9.196 17.752zm-9.773-16.8c.259 1.651 1.71 5.862 8.348 15.9 5.864-9.15 7.896-13.512 8.59-15.524-1.915.802-4.682 1.871-8.413 1.827-3.761-.062-6.496-1.293-8.308-2.107-.073-.032-.146-.063-.216-.096z" fill="#fff"/><path d="M64.443 107.325c-2.061 0-3.732-1.425-3.732-3.18V84c0-1.757 1.67-3.18 3.732-3.18 2.061 0 3.732 1.426 3.732 3.18v20.143c0 1.757-1.673 3.182-3.732 3.182z" fill="#FFCE71"/><path d="M66.748 107.741c-2.062 0-3.732-1.425-3.732-3.18V84.418c0-1.757 1.67-3.18 3.732-3.18 2.06 0 3.731 1.424 3.731 3.18v20.143c0 1.755-1.67 3.18-3.731 3.18z" fill="#3C424F"/><path d="M64.443 108.156c-2.525 0-4.578-1.801-4.578-4.011V84c0-2.212 2.053-4.01 4.578-4.01 2.525 0 4.578 1.8 4.578 4.01v20.143c0 2.212-2.053 4.013-4.578 4.013zm0-26.506c-1.59 0-2.886 1.055-2.886 2.35v20.143c0 1.295 1.295 2.351 2.886 2.351 1.59 0 2.886-1.056 2.886-2.351V84c-.003-1.295-1.295-2.35-2.886-2.35z" fill="#fff"/><path d="M21.158 46.01c-1.973-.496-3.087-2.607-2.327-4.487 2.274-5.63 8.113-16.406 20.933-21.937 1.818-.785 3.932.192 4.546 2.067l.005.011c.54 1.645-.276 3.424-1.871 4.115C31.8 30.383 26.97 39.406 25.128 43.982a3.384 3.384 0 0 1-3.97 2.027z" fill="#FFCE71"/><path d="M21.129 43.931a4.245 4.245 0 0 1-3.77-2.309 4.131 4.131 0 0 1-.159-3.435c2.404-5.957 8.381-16.787 21.381-22.396a4.222 4.222 0 0 1 3.387.03 4.262 4.262 0 0 1 2.303 2.55 4.183 4.183 0 0 1-2.336 5.16c-10.247 4.436-14.967 13.02-16.867 17.744a4.258 4.258 0 0 1-3.94 2.656zm19.107-26.797c-.333 0-.663.069-.979.205-12.445 5.37-18.177 15.76-20.485 21.477a2.432 2.432 0 0 0 .097 2.043 2.547 2.547 0 0 0 1.654 1.313A2.52 2.52 0 0 0 23.5 40.65c1.995-4.963 6.96-13.985 17.764-18.66a2.501 2.501 0 0 0 1.403-3.081 2.568 2.568 0 0 0-1.392-1.546 2.523 2.523 0 0 0-1.039-.229z" fill="#fff"/><path d="M4.275 44.751l-.024-.006a3.366 3.366 0 0 1-2.357-4.425c2.914-8.024 12.052-27.377 34.593-36.217 1.831-.719 3.904.218 4.511 2.08l.003.01c.548 1.673-.29 3.505-1.936 4.149C19.03 18.19 10.798 35.777 8.263 42.669c-.592 1.61-2.315 2.498-3.988 2.082z" fill="#FFCE71"/><path d="M4.267 42.675c-.343 0-.687-.04-1.032-.125l-.015-.005A4.235 4.235 0 0 1 .495 40.44a4.224 4.224 0 0 1-.243-3.426C3.175 28.963 12.444 9.27 35.332.296a4.362 4.362 0 0 1 3.413.108A4.159 4.159 0 0 1 40.96 2.9c.694 2.115-.373 4.398-2.426 5.203-19.629 7.69-27.744 24.822-30.318 31.832a4.198 4.198 0 0 1-3.948 2.74zM36.916 1.684c-.327 0-.652.06-.961.183-22.247 8.72-31.264 27.885-34.11 35.72-.25.688-.199 1.42.146 2.06.34.636.917 1.084 1.622 1.258l.024.004a2.502 2.502 0 0 0 2.985-1.554c2.658-7.222 11.025-24.882 31.29-32.82 1.222-.48 1.854-1.843 1.44-3.105-.22-.67-.69-1.2-1.327-1.502a2.628 2.628 0 0 0-1.11-.244z" fill="#fff"/><path d="M71.281 147.485c.603.347.603.908 0 1.255-.603.348-1.582.348-2.187 0-.603-.347-.603-.908 0-1.255.605-.348 1.584-.348 2.187 0zM76.997 144.2c.603.347.603.908 0 1.255-.603.348-1.582.348-2.185 0-.603-.347-.603-.908 0-1.255.603-.348 1.582-.348 2.185 0zM82.713 140.914c.603.347.603.908 0 1.256-.603.347-1.582.347-2.185 0-.604-.348-.604-.909 0-1.256.603-.345 1.582-.345 2.185 0zM59.85 147.485c.603.347.603.908 0 1.255-.604.348-1.582.348-2.186 0-.603-.347-.603-.908 0-1.255.604-.348 1.582-.348 2.186 0zM65.565 144.2c.603.347.603.908 0 1.255-.603.348-1.582.348-2.185 0-.603-.347-.603-.908 0-1.255.603-.348 1.582-.348 2.185 0zM71.281 140.914c.603.347.603.908 0 1.256-.603.347-1.582.347-2.187 0-.603-.348-.603-.909 0-1.256.605-.345 1.584-.345 2.187 0zM76.997 137.631c.603.348.603.908 0 1.256-.603.347-1.582.347-2.185 0-.603-.348-.603-.908 0-1.256.603-.347 1.582-.347 2.185 0zM82.713 134.346c.603.347.603.91 0 1.255-.603.348-1.582.348-2.188 0-.603-.347-.603-.91 0-1.255.606-.348 1.585-.348 2.188 0zM54.134 144.2c.603.347.603.908 0 1.255-.604.348-1.582.348-2.185 0-.604-.347-.604-.908 0-1.255.603-.348 1.581-.348 2.185 0zM59.85 140.914c.603.347.603.908 0 1.256-.604.347-1.582.347-2.186 0-.603-.348-.603-.909 0-1.256.604-.345 1.582-.345 2.186 0zM48.418 140.914c.603.347.603.908 0 1.256-.603.347-1.582.347-2.185 0-.603-.348-.603-.909 0-1.256.603-.345 1.582-.345 2.185 0zM54.134 137.631c.603.348.603.908 0 1.256-.604.347-1.582.347-2.185 0-.604-.348-.604-.908 0-1.256.603-.347 1.581-.347 2.185 0zM48.37 134.313c.602.347.602.908 0 1.255-.604.348-1.583.348-2.186 0-.603-.347-.603-.91 0-1.255.601-.348 1.58-.348 2.185 0z" fill="#FFCE71"/></g><defs><clipPath id="a"><path fill="#fff" d="M0 0h103v149H0z"/></clipPath></defs></svg>