<svg width="137" height="134" viewBox="0 0 137 134" fill="none" xmlns="http://www.w3.org/2000/svg"><g clip-path="url(#a)"><path d="M91.71 124.967c.67.387.67 1.017 0 1.404-.671.387-1.761.387-2.431 0-.67-.387-.67-1.017 0-1.404.67-.386 1.76-.386 2.43 0zM85.354 121.299c.67.386.67 1.017 0 1.403-.67.387-1.76.387-2.43 0-.67-.386-.67-1.017 0-1.403.67-.39 1.757-.39 2.43 0zM53.577 132.308c.67.386.67 1.014 0 1.403-.67.387-1.76.387-2.43 0-.671-.386-.671-1.017 0-1.403.67-.39 1.76-.39 2.43 0zM59.932 128.636c.67.387.67 1.017 0 1.404s-1.76.387-2.43 0c-.671-.387-.671-1.017 0-1.404.67-.386 1.76-.386 2.43 0zM79 117.627c.67.387.67 1.017 0 1.404-.671.387-1.761.387-2.431 0-.67-.387-.67-1.017 0-1.404s1.757-.387 2.43 0zM40.867 132.308c.67.386.67 1.017 0 1.403-.67.387-1.76.387-2.43 0-.671-.386-.671-1.017 0-1.403.67-.39 1.757-.39 2.43 0zM47.222 128.636c.67.387.67 1.017 0 1.404s-1.76.387-2.43 0c-.671-.387-.671-1.017 0-1.404.67-.386 1.757-.386 2.43 0zM53.577 124.967c.67.387.67 1.017 0 1.404s-1.76.387-2.43 0c-.671-.387-.671-1.017 0-1.404.67-.386 1.76-.386 2.43 0zM59.932 121.299c.67.386.67 1.014 0 1.403-.67.387-1.76.387-2.43 0-.671-.386-.671-1.017 0-1.403.67-.39 1.76-.39 2.43 0zM66.287 117.627c.67.387.67 1.017 0 1.404s-1.76.387-2.43 0c-.671-.387-.671-1.017 0-1.404.672-.387 1.76-.387 2.43 0zM72.642 113.959c.67.386.67 1.017 0 1.403-.67.387-1.76.387-2.43 0-.671-.386-.671-1.014 0-1.403.672-.387 1.76-.387 2.43 0zM34.51 128.636c.67.387.67 1.017 0 1.404-.671.387-1.76.387-2.431 0-.67-.387-.67-1.017 0-1.404.673-.386 1.76-.386 2.43 0zM40.867 124.967c.67.387.67 1.017 0 1.404s-1.76.387-2.43 0c-.671-.387-.671-1.017 0-1.404.67-.386 1.757-.386 2.43 0zM47.222 121.299c.67.386.67 1.017 0 1.403-.67.387-1.76.387-2.43 0-.671-.386-.671-1.017 0-1.403.67-.39 1.757-.39 2.43 0zM53.577 117.627c.67.387.67 1.017 0 1.404s-1.76.387-2.43 0c-.671-.387-.671-1.017 0-1.404.67-.387 1.76-.387 2.43 0zM59.932 113.959c.67.386.67 1.017 0 1.403-.67.387-1.76.387-2.43 0-.671-.386-.671-1.017 0-1.403.67-.387 1.76-.387 2.43 0zM66.287 110.289c.67.387.67 1.015 0 1.404-.67.387-1.76.387-2.43 0-.671-.387-.671-1.017 0-1.404.672-.389 1.76-.389 2.43 0zM28.099 124.93c.67.386.67 1.017 0 1.403-.67.387-1.76.387-2.43 0-.67-.386-.67-1.017 0-1.403.672-.39 1.76-.39 2.43 0zM34.454 121.259c.67.386.67 1.017 0 1.403-.67.387-1.76.387-2.43 0-.67-.386-.67-1.014 0-1.403.672-.387 1.76-.387 2.43 0zM47.166 113.921c.67.386.67 1.014 0 1.403-.67.387-1.76.387-2.43 0-.67-.386-.67-1.017 0-1.403.67-.39 1.76-.39 2.43 0zM53.522 110.249c.67.387.67 1.017 0 1.404s-1.76.387-2.431 0c-.67-.387-.67-1.017 0-1.404.67-.386 1.76-.386 2.43 0zM59.877 106.58c.67.387.67 1.017 0 1.404s-1.76.387-2.431 0c-.67-.387-.67-1.017 0-1.404.67-.389 1.76-.389 2.43 0zM21.744 121.259c.67.386.67 1.017 0 1.403-.67.387-1.76.387-2.43 0-.67-.386-.67-1.014 0-1.403.67-.387 1.76-.387 2.43 0zM28.099 117.589c.67.387.67 1.017 0 1.404s-1.76.387-2.43 0c-.67-.387-.67-1.017 0-1.404.672-.386 1.76-.386 2.43 0zM53.522 102.909c.67.387.67 1.014 0 1.404-.67.386-1.76.386-2.431 0-.67-.387-.67-1.017 0-1.404s1.76-.387 2.43 0zM15.39 117.589c.67.387.67 1.015 0 1.404-.671.387-1.761.387-2.431 0-.67-.387-.67-1.017 0-1.404.67-.386 1.76-.386 2.43 0zM21.744 113.921c.67.386.67 1.017 0 1.403-.67.387-1.76.387-2.43 0-.67-.386-.67-1.017 0-1.403.67-.39 1.76-.39 2.43 0zM9.034 113.921c.67.387.67 1.017 0 1.404-.67.386-1.76.386-2.43 0-.67-.387-.67-1.017 0-1.404s1.76-.389 2.43 0zM15.39 110.249c.67.387.67 1.017 0 1.404-.671.387-1.761.387-2.431 0-.67-.387-.67-1.017 0-1.404.67-.386 1.76-.386 2.43 0zM9.034 106.58c.67.387.67 1.017 0 1.404s-1.76.387-2.43 0c-.67-.387-.67-1.017 0-1.404.67-.389 1.76-.389 2.43 0zM15.39 102.909c.67.387.67 1.017 0 1.404-.671.386-1.761.386-2.431 0-.67-.387-.67-1.017 0-1.404s1.76-.387 2.43 0zM98.114 121.329c.67.386.67 1.017 0 1.403-.67.387-1.76.387-2.43 0-.67-.386-.67-1.017 0-1.403.673-.387 1.76-.387 2.43 0zM104.472 117.66c.67.387.67 1.017 0 1.404-.671.386-1.76.386-2.431 0-.67-.387-.67-1.017 0-1.404.671-.389 1.758-.389 2.431 0zM110.827 113.989c.67.386.67 1.014 0 1.403-.671.387-1.76.387-2.431 0-.67-.386-.67-1.017 0-1.403.671-.387 1.758-.387 2.431 0zM117.182 110.319c.67.387.67 1.017 0 1.404-.671.387-1.76.387-2.431 0-.67-.387-.67-1.017 0-1.404.671-.389 1.76-.389 2.431 0zM123.537 106.648c.67.387.67 1.017 0 1.404-.671.387-1.76.387-2.431 0-.67-.387-.67-1.015 0-1.404.671-.387 1.76-.387 2.431 0zM129.892 102.979c.67.387.67 1.017 0 1.404-.671.387-1.76.387-2.431 0-.67-.387-.67-1.017 0-1.404.673-.386 1.76-.386 2.431 0zM136.249 99.31c.671.387.671 1.018 0 1.404-.67.387-1.76.387-2.43 0-.671-.386-.671-1.017 0-1.403.67-.39 1.757-.39 2.43 0zM89.321 117.662c.67-.389 1.758-.389 2.43-.002.674.387.676 1.014.006 1.404-.67.389-1.758.389-2.43.002-.674-.387-.676-1.014-.006-1.404zM98.114 113.989c.67.386.67 1.017 0 1.403-.67.387-1.76.387-2.43 0-.67-.386-.67-1.017 0-1.403.673-.387 1.76-.387 2.43 0zM108.396 106.648c.671-.387 1.76-.387 2.431 0 .67.387.67 1.017 0 1.404-.671.387-1.76.387-2.431 0-.673-.387-.673-1.015 0-1.404zM114.751 102.979c.671-.386 1.76-.386 2.431 0 .67.387.67 1.015 0 1.404-.671.387-1.76.387-2.431 0-.67-.387-.67-1.017 0-1.404zM123.537 99.31c.67.387.67 1.018 0 1.404-.671.387-1.76.387-2.431 0-.67-.386-.67-1.017 0-1.403.671-.39 1.76-.39 2.431 0zM129.892 95.639c.67.387.67 1.017 0 1.404-.671.386-1.76.386-2.431 0-.67-.387-.67-1.015 0-1.404.673-.387 1.76-.387 2.431 0zM82.966 113.993c.67-.389 1.758-.389 2.43-.002.674.387.676 1.014.006 1.404-.67.389-1.758.389-2.43.002-.674-.387-.676-1.014-.006-1.404zM117.182 95.64c.67.386.67 1.016 0 1.403-.671.387-1.76.387-2.431 0-.67-.387 1.76-1.79 2.431-1.404zM121.106 91.97c.671-.386 1.76-.386 2.431 0 .67.387.67 1.017 0 1.404-.671.387-1.76.387-2.431 0-.67-.387-.67-1.017 0-1.404.671-.386-.67.387 0 0zM76.611 110.324c.67-.389 1.758-.389 2.43-.002.674.387.676 1.014.006 1.404-.67.389-1.758.389-2.43.002-.674-.386-.676-1.017-.006-1.404zM70.256 106.653c.67-.389 1.758-.389 2.43-.002.674.387.676 1.014.006 1.404-.67.389-1.758.389-2.43.002-.674-.387-.676-1.014-.006-1.404zM63.846 102.947c.67-.39 1.758-.39 2.43-.003.674.387.676 1.015.006 1.404s-1.758.389-2.43.002c-.676-.386-.676-1.017-.006-1.403zM57.489 99.275c.67-.389 1.757-.389 2.43-.002.673.387.676 1.014.005 1.404-.67.389-1.757.389-2.43.002-.673-.387-.673-1.014-.005-1.404zM66.284 95.602c.67.386.67 1.017 0 1.403-.67.387-1.76.387-2.43 0-.67-.386-.67-1.017 0-1.403.67-.387 1.76-.387 2.43 0zM102.282 124.415c.671-.389 1.758-.389 2.431-.002.673.386.675 1.014.005 1.403-.67.39-1.758.39-2.431.003-.675-.387-.675-1.015-.005-1.404zM111.075 120.741c.671.387.671 1.017 0 1.404-.67.386-1.76.386-2.43 0-.67-.387-.67-1.017 0-1.404s1.76-.387 2.43 0zM117.43 117.072c.671.387.671 1.017 0 1.404-.67.387-1.76.387-2.43 0-.671-.387-.671-1.017 0-1.404.67-.389 1.76-.389 2.43 0zM123.785 113.401c.671.386.671 1.017 0 1.403-.67.387-1.76.387-2.43 0-.671-.386-.671-1.017 0-1.403.67-.387 1.76-.387 2.43 0zM130.143 109.732c.67.387.67 1.017 0 1.404-.671.386-1.76.386-2.431 0-.67-.387-.67-1.017 0-1.404.671-.387 1.758-.387 2.431 0zM136.498 106.063c.67.387.67 1.017 0 1.404-.671.387-1.76.387-2.431 0-.67-.387-.67-1.017 0-1.404.671-.389 1.758-.389 2.431 0z" fill="#88DBE9"/><path d="M87.282 15.823a2.165 2.165 0 0 0-1.011-2.448l-15.432-8.84a17.295 17.295 0 0 0-2.056-1.177l-.528-.302-.188-.073C60.969-.256 51.302.957 40.41 7.245 18.786 19.73 1.255 47.773 1.255 69.879c0 9.467 2.97 16.097 8.347 19.846l.256.211.421.261c.726.49 1.268.794 2.067 1.173l7.42 4.274v12.629c0 .876.344 1.396.848 1.582l15.663 8.887a1.132 1.132 0 0 0 1.632-.62l4.934-14.45.75-4.289-12.288-3.091 4.239-6.504a54.549 54.549 0 0 0 4.866-2.491c9.18-5.301 17.603-13.417 24.28-22.681l11.615-8.568 10.977-40.225z" fill="#3C424F"/><path d="M87.9 22.337a2.165 2.165 0 0 0-1.012-2.448l-15.434-8.84c-.648-.444-1.343-.82-2.054-1.177l-.527-.302-.188-.073c-7.099-3.24-16.765-2.026-27.658 4.262C19.401 26.247 1.873 54.289 1.873 76.396c0 9.467 34.288 19.908 34.288 19.908a54.507 54.507 0 0 0 4.866-2.49c9.18-5.302 17.604-13.418 24.28-22.682l11.616-8.568L87.9 22.337z" fill="#88DBE9"/><path d="M36.834 120.146c-.407 0-.813-.106-1.177-.312l-15.663-8.887c-.859-.296-1.484-1.328-1.484-2.674V96.37l-6.79-3.913a14.94 14.94 0 0 1-2.144-1.218l-.775-.545C3.07 86.704 0 79.484 0 69.88c0-22.47 17.845-51.055 39.782-63.722 10.895-6.29 21.124-7.82 28.807-4.316l.819.426c.848.422 1.529.812 2.141 1.23l15.347 8.788a3.42 3.42 0 0 1 1.6 3.867v.002L77.4 56.801 65.59 65.51c-7.075 9.777-15.565 17.685-24.553 22.875a55.755 55.755 0 0 1-4.64 2.396l-3.079 4.724 11.713 2.945-.951 5.442-4.984 14.635a2.377 2.377 0 0 1-1.414 1.462 2.426 2.426 0 0 1-.849.156zM59.613 2.511c-5.557 0-11.904 1.969-18.575 5.821C19.793 20.599 2.51 48.21 2.51 69.879c0 8.874 2.626 15.203 7.806 18.814l.623.434c.698.472 1.177.744 1.943 1.105l8.135 4.681v13.355c0 .326.076.437.076.437l15.798 8.939 4.76-14.384.505-2.95-12.865-3.237 5.398-8.285.334-.153a52.88 52.88 0 0 0 4.753-2.433c8.735-5.043 16.996-12.765 23.888-22.327l.274-.277 11.264-8.31 10.87-39.797a.91.91 0 0 0-.425-1.027l-15.434-8.84a16.797 16.797 0 0 0-1.992-1.144l-.59-.334c-2.41-1.095-5.107-1.635-8.02-1.635z" fill="#fff"/><path d="M38.02 96.663l-9.838 2.394-9.777-5.598v14.764c0 1.346.625 2.378 1.483 2.674l16.384 9.296a1.693 1.693 0 0 0 1.446.113c.475-.18.841-.56 1.007-1.042l5.25-15.426.952-5.44-6.908-1.734z" fill="#fff"/><path d="M57.06 16.775C35.435 29.26 17.904 57.303 17.904 79.409c0 14.36 7.4 22.671 18.51 23.319V117.8c0 2.281 2.3 2.2 3.822-.133l11.956-18.352a54.534 54.534 0 0 0 4.866-2.49C78.683 84.338 96.214 56.295 96.214 34.19c0-22.103-17.531-29.903-39.155-17.415z" fill="#3C424F"/><path d="M37.716 120.723c-.251 0-.5-.035-.741-.108-1.135-.336-1.813-1.388-1.813-2.815v-13.917C23.71 102.648 16.65 93.381 16.65 79.406c0-22.47 17.847-51.055 39.782-63.721 11.6-6.7 22.75-7.95 30.582-3.428C93.756 16.15 97.469 23.94 97.469 34.19c0 22.47-17.845 51.055-39.782 63.722a54.606 54.606 0 0 1-4.643 2.395l-11.758 18.046c-.977 1.504-2.315 2.37-3.57 2.37zM76.313 12.086c-5.59 0-12 1.949-18.623 5.776C36.443 30.13 19.16 57.737 19.16 79.41c0 13.184 6.478 21.433 17.33 22.068l1.183.068v16.258c0 .334.078.447.078.447.095-.01.776-.251 1.436-1.266l12.158-18.66.336-.151a51.573 51.573 0 0 0 4.753-2.434c21.242-12.267 38.527-39.875 38.527-61.547 0-9.316-3.267-16.332-9.2-19.758-2.724-1.572-5.923-2.348-9.448-2.348z" fill="#fff"/><path d="M47.518 66.856c0 3.425-2.405 7.591-5.37 9.304-2.966 1.712-5.371.324-5.371-3.102 0-3.425 2.405-7.591 5.37-9.304 2.966-1.715 5.371-.326 5.371 3.102z" fill="#88DBE9"/><path d="M37.532 75.411c-.673 0-1.303-.16-1.868-.487-1.318-.76-2.044-2.285-2.044-4.291 0-3.785 2.569-8.23 5.843-10.12 1.738-1.008 3.425-1.14 4.738-.377 1.318.76 2.044 2.285 2.044 4.294 0 3.782-2.566 8.227-5.843 10.12-.992.573-1.968.861-2.87.861zm4.796-13.879c-.567 0-1.223.206-1.923.61-2.657 1.535-4.901 5.422-4.901 8.49 0 1.306.391 2.25 1.102 2.662.71.41 1.725.274 2.857-.376 2.657-1.535 4.901-5.422 4.901-8.488 0-1.308-.391-2.253-1.102-2.664a1.849 1.849 0 0 0-.934-.234z" fill="#fff"/><path d="M65.373 56.542c0 3.425-2.406 7.591-5.371 9.304-2.968 1.713-5.37.324-5.37-3.101s2.405-7.592 5.37-9.304c2.968-1.713 5.37-.324 5.37 3.101z" fill="#88DBE9"/><path d="M55.39 65.1c-.673 0-1.306-.16-1.868-.487-1.319-.76-2.044-2.285-2.044-4.294 0-3.784 2.566-8.23 5.842-10.12 1.735-1.002 3.42-1.14 4.74-.377 1.32.761 2.045 2.285 2.045 4.292 0 3.784-2.566 8.229-5.843 10.12-.994.578-1.971.866-2.872.866zm4.795-13.88c-.567 0-1.223.207-1.923.611-2.657 1.534-4.901 5.422-4.901 8.49 0 1.306.392 2.253 1.102 2.662.71.41 1.725.274 2.857-.376 2.657-1.535 4.902-5.422 4.902-8.49 0-1.306-.392-2.25-1.103-2.662a1.848 1.848 0 0 0-.934-.234z" fill="#fff"/><path d="M83.23 46.23c0 3.426-2.405 7.592-5.37 9.305-2.969 1.713-5.371.324-5.371-3.101 0-3.426 2.405-7.592 5.37-9.304 2.968-1.713 5.371-.324 5.371 3.1z" fill="#88DBE9"/><path d="M73.247 54.79c-.673 0-1.306-.161-1.868-.488-1.319-.76-2.044-2.288-2.044-4.294 0-3.782 2.566-8.23 5.843-10.12 1.737-1.005 3.422-1.135 4.74-.377 1.318.761 2.044 2.288 2.044 4.294 0 3.785-2.566 8.23-5.843 10.12-.994.575-1.97.864-2.872.864zm4.796-13.88c-.568 0-1.223.203-1.924.61-2.656 1.534-4.901 5.422-4.901 8.49 0 1.309.392 2.253 1.102 2.665.713.412 1.725.276 2.858-.377 2.656-1.534 4.9-5.422 4.9-8.49 0-1.306-.39-2.253-1.101-2.665a1.824 1.824 0 0 0-.934-.233z" fill="#fff"/><path d="M125.807 53.064l-12.09-6.697-.035.018c-4.686-2.605-11.447-2.06-18.993 2.297-14.136 8.164-25.595 26.496-25.595 40.948 0 6.541 1.946 10.871 5.825 13.216l.412.297 12.29 6.782 1.889-6.456c1.672-.615 3.402-1.429 5.177-2.453.163-.093.319-.206.482-.304l7.113 4.317c1.113.675 3.046-1.351 3.046-3.192v-9.36c8.818-9.223 14.955-21.847 14.955-32.409 0-.259-.03-.495-.038-.748l5.562-6.256z" fill="#3C424F"/><path d="M126.168 58.9l-12.09-6.697-.035.018c-4.685-2.607-11.447-2.06-18.992 2.297-14.136 8.164-25.596 26.496-25.596 40.948 0 6.542 36.24 2.85 36.24 2.85 8.818-9.224 14.954-21.845 14.954-32.41 0-.26-.03-.494-.037-.748l5.556-6.258z" fill="#88DBE9"/><path d="M88.387 111.784l-14.201-7.916c-4.186-2.526-6.35-7.335-6.35-14.236 0-14.828 11.766-33.685 26.226-42.035 7.311-4.226 14.412-5.158 19.622-2.624l.02-.007.623.306 13.461 7.458-6.252 7.042c.005.098.007.198.007.303 0 10.362-5.858 23.227-14.955 32.912v8.86c0 1.604-1.052 3.407-2.45 4.193-.864.485-1.778.513-2.503.071l-6.458-3.92a35.513 35.513 0 0 1-4.635 2.237l-2.155 7.356zm18.834-65.706c-3.568 0-7.67 1.248-11.904 3.694-13.767 7.95-24.97 25.833-24.97 39.86 0 6.047 1.707 10.017 5.222 12.142l.495.349 10.794 5.949 1.627-5.56.595-.218c1.63-.598 3.305-1.394 4.982-2.363l1.115-.683 7.761 4.711c.191-.103 1.14-1.135 1.14-2.117v-9.864l.349-.364c8.873-9.282 14.605-21.665 14.605-31.544l-.052-1.208 4.846-5.459-10.129-5.612-.625-.31c-1.693-.938-3.674-1.403-5.851-1.403z" fill="#fff"/><path d="M133.168 67.172c0-14.452-11.459-19.55-25.595-11.385C93.437 63.95 81.975 82.28 81.975 96.732c0 14.452 11.46 19.549 25.595 11.385.163-.093.319-.206.482-.303l7.114 4.316c1.112.676 3.045-1.351 3.045-3.191v-9.36c8.821-9.22 14.957-21.845 14.957-32.407z" fill="#3C424F"/><path d="M115.653 113.519c-.402 0-.789-.106-1.135-.314l-6.458-3.92c-7.673 4.387-15.063 5.178-20.288 2.16-4.547-2.625-7.053-7.85-7.053-14.716 0-14.829 11.766-33.685 26.224-42.035 7.725-4.46 15.17-5.276 20.428-2.242 4.547 2.624 7.053 7.852 7.053 14.715 0 10.359-5.858 23.226-14.955 32.909v8.86c0 1.605-1.052 3.408-2.45 4.194a2.736 2.736 0 0 1-1.366.389zm-7.593-7.17l7.761 4.711c.191-.103 1.14-1.135 1.14-2.117v-9.864l.349-.364c8.873-9.281 14.606-21.661 14.606-31.54 0-5.93-2.059-10.381-5.798-12.541-4.457-2.574-10.993-1.758-17.918 2.242-13.767 7.95-24.968 25.83-24.968 39.86 0 5.93 2.06 10.382 5.798 12.541 4.46 2.577 10.99 1.761 17.918-2.242l1.112-.686z" fill="#fff"/><path d="M101.195 89.11c0 2.316-1.624 5.133-3.63 6.29-2.007 1.158-3.631.22-3.631-2.096 0-2.316 1.624-5.133 3.63-6.29 2.004-1.158 3.631-.22 3.631 2.096z" fill="#88DBE9"/><path d="M94.524 94.873c-.507 0-.987-.123-1.414-.372-.992-.572-1.534-1.695-1.534-3.166 0-2.654 1.8-5.776 4.1-7.107 1.276-.736 2.519-.826 3.51-.253.99.572 1.535 1.695 1.535 3.166 0 2.657-1.803 5.776-4.103 7.107-.723.417-1.434.625-2.094.625zm3.241-9.38c-.329 0-.728.126-1.15.37-1.712.99-3.158 3.498-3.158 5.474 0 .759.216 1.319.592 1.535.377.218.97.125 1.625-.254 1.712-.99 3.161-3.498 3.161-5.474 0-.759-.216-1.319-.593-1.535a.945.945 0 0 0-.477-.115z" fill="#fff"/><path d="M113.265 82.141c0 2.316-1.627 5.133-3.631 6.29-2.006 1.159-3.631.22-3.631-2.096 0-2.315 1.625-5.13 3.631-6.29 2.004-1.158 3.631-.222 3.631 2.096z" fill="#88DBE9"/><path d="M106.594 87.905c-.508 0-.987-.123-1.417-.372-.989-.573-1.534-1.695-1.534-3.167 0-2.656 1.803-5.778 4.103-7.106 1.276-.734 2.518-.829 3.51-.254.989.57 1.534 1.695 1.534 3.167 0 2.654-1.8 5.775-4.1 7.106-.723.415-1.436.626-2.096.626zm3.241-9.382c-.329 0-.726.125-1.15.369-1.712.987-3.161 3.496-3.161 5.474 0 .759.216 1.316.592 1.535.38.218.972.125 1.628-.254 1.712-.99 3.158-3.498 3.158-5.474 0-.759-.216-1.319-.592-1.535a.93.93 0 0 0-.475-.115z" fill="#fff"/><path d="M125.335 75.17c0 2.315-1.625 5.133-3.631 6.29-2.006 1.158-3.631.219-3.631-2.096 0-2.316 1.627-5.133 3.631-6.29 2.006-1.159 3.631-.22 3.631 2.096z" fill="#88DBE9"/><path d="M118.661 80.936c-.507 0-.985-.123-1.414-.372-.992-.572-1.534-1.695-1.534-3.166 0-2.657 1.803-5.779 4.103-7.107 1.275-.733 2.518-.826 3.507-.254.99.57 1.535 1.695 1.535 3.167 0 2.657-1.801 5.776-4.101 7.104-.72.417-1.433.628-2.096.628zm3.244-9.382c-.329 0-.726.126-1.15.37-1.713.986-3.161 3.495-3.161 5.474 0 .758.216 1.316.592 1.534.379.22.969.126 1.627-.256 1.713-.99 3.159-3.496 3.159-5.475 0-.758-.216-1.318-.593-1.534a.939.939 0 0 0-.474-.113zM70.347 80.8l12.59 7.624-.975 10.673 2.315 9.347-12.718-8.014-2.468-5.808.244-8.744 1.012-5.078zM4.208 52.906L20.67 63.019l-2.764 13.874 1.403 12.347 2.762 7.765L7.846 88.66l-4.833-7.724-1.758-9.382.528-8.535 2.425-10.113z" fill="#fff"/><path d="M27.815 103.597l-7.69-4.518v-3l5.413 3.221 2.277 4.297z" fill="#3C424F"/></g><defs><clipPath id="a"><path fill="#fff" d="M0 0h137v134H0z"/></clipPath></defs></svg>