<svg width="82" height="144" viewBox="0 0 82 144" fill="none" xmlns="http://www.w3.org/2000/svg"><g clip-path="url(#a)"><path d="M68.648 33.775L13.79 1.847c-1.487-.865-2.434-1.08-3.463-.44L9.91 1.6 4.123 5.28l.692 3.514 3.17 6.352v72.178c0 4.311 2.6 9.318 5.807 11.185l49.134 28.595 3.87 7.2 5.469-3.455.475-.303c1.06-.798 1.718-2.372 1.718-4.537V44.957c-.002-4.309-2.602-9.317-5.81-11.182z" fill="#3C424F"/><path d="M68.707 36.39L13.848 4.462c-1.487-.865-2.434-1.08-3.462-.442l-.418.195-5.787 3.679.69 3.515 3.17 6.353v72.18c0 4.31 2.6 9.317 5.807 11.184l49.134 28.595 4.397 1.689 3.477.687 1.4-2.089c1.06-.798 2.256.785 2.256-1.38V47.572c.002-4.309-2.598-9.317-5.805-11.182z" fill="#93EDC9"/><path d="M66.418 135.747l-4.246-7.902-48.887-28.452c-3.54-2.06-6.312-7.36-6.312-12.067V15.39L3.824 8.993 2.997 4.79 9.907.48c1.4-.88 2.778-.45 4.388.485l54.858 31.928c3.54 2.058 6.313 7.36 6.313 12.066v81.054c0 2.422-.754 4.321-2.123 5.353l-6.925 4.381zM5.778 8.461l3.216 6.445v72.42c0 3.912 2.428 8.629 5.3 10.302l49.384 28.739 3.492 6.499 5.028-3.181c.769-.582 1.247-1.939 1.247-3.676V44.957c0-3.91-2.429-8.63-5.303-10.301L13.285 2.73c-1.518-.883-1.963-.745-2.426-.458l-.53.255-5.08 3.24.53 2.694z" fill="#fff"/><path d="M62.617 134.26L7.758 102.334C4.551 100.469 1.95 95.461 1.95 91.15V10.097c0-4.31 2.601-6.291 5.808-4.424L62.616 37.6c3.208 1.867 5.808 6.873 5.808 11.184v81.054c0 4.309-2.6 6.29-5.808 4.422z" fill="#3C424F"/><path d="M64.926 135.983c-.897 0-1.855-.28-2.814-.839L7.253 103.216c-3.54-2.06-6.312-7.36-6.312-12.066V10.098c0-2.64.916-4.685 2.513-5.617 1.38-.8 3.087-.693 4.809.31l54.86 31.925c3.54 2.06 6.313 7.36 6.313 12.066v81.054c0 2.64-.916 4.686-2.514 5.617-.61.354-1.285.53-1.996.53zM5.456 5.986c-.336 0-.672.076-.99.26-.956.555-1.504 1.96-1.504 3.852v81.054c0 3.91 2.428 8.628 5.3 10.301l54.861 31.926c.759.441 1.853.852 2.79.309.953-.554 1.502-1.959 1.502-3.852V48.782c0-3.91-2.428-8.628-5.301-10.3L7.254 6.555c-.5-.291-1.147-.57-1.797-.57z" fill="#fff"/><path d="M62.652 131.379L11.77 101.767c-1.811-1.053-3.28-3.882-3.28-6.317V22.99c0-2.436 1.469-3.554 3.28-2.5l50.88 29.614c1.812 1.053 3.28 3.881 3.28 6.316v72.463c0 2.431-1.468 3.551-3.28 2.496z" fill="#3C424F"/><path d="M61.933 128.797c-.538 0-1.109-.167-1.682-.5L9.368 98.685C7.316 97.49 5.71 94.426 5.71 91.708V19.246c0-1.56.553-2.774 1.512-3.335.84-.488 1.87-.426 2.904.175l50.88 29.612c2.053 1.194 3.659 4.259 3.659 6.977v72.462c0 1.56-.55 2.775-1.513 3.336a2.418 2.418 0 0 1-1.219.324zm-.924-1.823c.386.224.939.435 1.387.173.474-.276.754-1.028.754-2.012v-72.46c0-2.15-1.327-4.74-2.9-5.656L9.369 17.408c-.384-.225-.937-.434-1.388-.174-.473.274-.754 1.026-.754 2.012v72.46c0 2.15 1.328 4.74 2.902 5.656l50.88 29.612z" fill="#fff"/><path d="M18.51 54.059l-5.518-10.994c-.762-1.518-.631-3.032.293-3.382.922-.35 2.29.599 3.052 2.117l2.897 5.772 6.356-5.406c.754-.642 2.12-.012 3.05 1.407.928 1.42 1.069 3.09.315 3.731l-8.952 7.615c-.387.327-1.108-.09-1.494-.86z" fill="#93EDC9"/><path d="M18.927 53.504c-.094 0-.19-.01-.285-.03-.608-.125-1.207-.646-1.566-1.364l-5.517-10.995c-.592-1.178-.737-2.416-.392-3.31.211-.548.59-.94 1.094-1.13 1.325-.499 3.033.573 3.995 2.485l2.465 4.912 5.625-4.785c.405-.347.943-.494 1.516-.408.941.138 1.934.877 2.653 1.979 1.169 1.788 1.244 3.823.172 4.738l-8.954 7.615a1.234 1.234 0 0 1-.806.293zm-5.98-15.423a.438.438 0 0 0-.154.026c-.035.012-.137.052-.214.255-.141.366-.141 1.126.332 2.066l5.517 10.997c.15.295.334.458.443.521l8.836-7.514c.346-.295.34-1.506-.46-2.728-.573-.876-1.223-1.252-1.605-1.307-.21-.035-.293.038-.322.063l-7.09 6.03-3.329-6.635c-.585-1.17-1.473-1.774-1.954-1.774z" fill="#fff"/><path d="M19.265 76.575L13.748 65.58c-.762-1.518-.631-3.031.293-3.381.922-.35 2.29.599 3.052 2.117l2.897 5.772 6.356-5.406c.754-.643 2.12-.012 3.05 1.407.928 1.42 1.069 3.09.315 3.733l-8.952 7.615c-.385.325-1.105-.092-1.494-.862z" fill="#93EDC9"/><path d="M19.685 75.936a1.33 1.33 0 0 1-.285-.03c-.606-.123-1.209-.646-1.568-1.362L12.315 63.55c-.592-1.18-.737-2.417-.392-3.31.211-.55.592-.94 1.094-1.131 1.32-.492 3.035.571 3.995 2.485l2.465 4.912 5.625-4.784c.405-.346.943-.49 1.516-.409.941.139 1.934.878 2.655 1.979 1.17 1.788 1.244 3.823.172 4.738l-8.954 7.615c-.229.19-.507.291-.806.291zm-.5-2.083c.149.297.334.458.444.523l8.836-7.514c.347-.295.34-1.506-.46-2.728-.573-.876-1.223-1.252-1.605-1.309-.214-.03-.293.038-.322.063l-7.09 6.03-3.329-6.635c-.654-1.305-1.686-1.903-2.108-1.746-.035.012-.137.052-.214.255-.141.366-.141 1.127.332 2.067l5.515 10.994z" fill="#fff"/><path d="M18.51 95.35l-5.518-10.994c-.762-1.518-.631-3.032.293-3.382.922-.35 2.29.6 3.052 2.117l2.897 5.773 6.356-5.406c.754-.643 2.12-.013 3.05 1.407.928 1.42 1.069 3.09.315 3.733l-8.952 7.615c-.387.326-1.108-.09-1.494-.863z" fill="#93EDC9"/><path d="M18.927 94.711c-.094 0-.19-.01-.287-.029-.609-.126-1.209-.647-1.566-1.363l-5.517-10.994c-.592-1.18-.737-2.417-.393-3.31.212-.55.59-.94 1.095-1.131 1.317-.5 3.033.571 3.994 2.485l2.466 4.912 5.625-4.784c.405-.348.943-.488 1.516-.409.94.139 1.934.878 2.652 1.98 1.17 1.787 1.245 3.822.173 4.737L19.73 94.42c-.227.19-.505.291-.804.291zM12.945 79.29a.429.429 0 0 0-.152.025c-.033.012-.137.052-.214.255-.141.367-.14 1.127.332 2.067l5.517 10.996c.15.297.334.459.443.521l8.836-7.514c.346-.295.34-1.505-.46-2.728-.573-.877-1.223-1.252-1.605-1.309-.216-.031-.293.038-.322.063l-7.09 6.03-3.329-6.635c-.585-1.168-1.473-1.771-1.956-1.771zM57.575 70.972c-.353 0-.723-.105-1.082-.314l-22.028-12.82c-1.202-.702-2.145-2.485-2.145-4.064 0-.97.361-1.736.989-2.102.556-.327 1.252-.29 1.913.094l22.027 12.818c1.203.701 2.146 2.485 2.146 4.064 0 .97-.362 1.736-.99 2.102a1.614 1.614 0 0 1-.83.222zm-.324-1.637c.173.098.322.138.397.094.079-.046.233-.27.233-.779 0-1.03-.648-2.31-1.388-2.74L34.465 53.09c-.17-.098-.322-.136-.396-.094-.08.046-.233.268-.233.777 0 1.03.648 2.31 1.388 2.74l22.027 12.82zM57.575 91.577c-.353 0-.725-.105-1.084-.314L34.463 78.445c-1.202-.702-2.145-2.486-2.145-4.064 0-.97.361-1.736.989-2.102.556-.325 1.252-.29 1.912.094L57.247 85.19c1.203.701 2.146 2.485 2.146 4.064 0 .97-.362 1.736-.991 2.102-.25.147-.532.22-.827.22zM34.144 73.585a.144.144 0 0 0-.077.017c-.08.046-.233.268-.233.777 0 1.03.648 2.311 1.387 2.74L57.25 89.937c.17.099.326.139.397.095.079-.046.233-.268.233-.777 0-1.03-.648-2.312-1.388-2.74L34.463 73.695a.67.67 0 0 0-.32-.11zM57.486 112.127c-.353 0-.723-.105-1.084-.314l-22.026-12.82c-1.203-.7-2.145-2.486-2.145-4.064 0-.97.359-1.736.988-2.102.555-.323 1.253-.291 1.913.094l22.026 12.818c1.203.699 2.145 2.485 2.145 4.064 0 .969-.359 1.735-.988 2.102a1.61 1.61 0 0 1-.829.222zm-.326-1.638c.17.099.326.132.397.095.079-.046.232-.27.232-.779 0-1.03-.648-2.31-1.387-2.741L34.376 94.246c-.168-.098-.326-.136-.399-.094-.08.046-.232.268-.232.777 0 1.03.648 2.31 1.387 2.74l22.028 12.82z" fill="#fff"/><path d="M60.683 32.933c.592-.532.961-1.47.961-2.747 0-2.728-1.645-5.898-3.676-7.081L22.512 2.47c-.873-.509-2.302-.235-2.302-.235s-.311.197-.426.302l-4.13 2.92a.52.52 0 0 0-.005.847l4.264 3.088c.665 1.281 1.583 2.368 2.599 2.958l7.587 4.416 7.511 5.438 16.997 14.07a1.05 1.05 0 0 0 1.286.056c1.429-1.007 4.692-3.308 4.736-3.344l.054-.054z" fill="#3C424F"/><path d="M61.825 32.992c0-2.729-1.645-5.899-3.676-7.082L22.69 5.277c-.872-.507-2.301-.233-2.301-.233s-.312.197-.426.302l-4.131 2.92a.52.52 0 0 0-.004.846l4.264 3.088c.665 1.282 1.583 2.369 2.598 2.959l7.588 4.416 24.853 17.273 6.694-3.856z" fill="#93EDC9"/><path d="M55.288 37.545c-.467 0-.934-.16-1.323-.481L36.966 22.992l-7.459-5.398-7.5-4.361c-1.09-.635-2.104-1.746-2.873-3.15l-4.075-2.95a1.546 1.546 0 0 1 .013-2.508l4.133-2.923c.056-.06.47-.33.47-.33l.344-.136c.185-.038 1.55-.547 2.997.351l35.459 20.636c2.345 1.366 4.18 4.864 4.18 7.963 0 1.486-.448 2.718-1.264 3.473l-.027.03c-.143.13-.158.142-4.077 2.904l-.813.573a2.067 2.067 0 0 1-1.186.38zM16.804 5.888l3.892 2.818.112.214c.599 1.15 1.402 2.079 2.208 2.548l7.588 4.415 7.594 5.492 17.049 14.112.879-.565c1.537-1.082 3.75-2.644 3.898-2.753l.03-.032-.049.034c.397-.356.626-1.08.626-1.987 0-2.36-1.452-5.199-3.17-6.2L22.007 3.352c-.324-.188-.976-.194-1.431-.14-.046.031-.09.063-.123.09l-3.65 2.586z" fill="#fff"/><path d="M41.15 37.194l-11.925-6.939c-3.068-1.784-5.554-6.574-5.554-10.695L46.7 32.962c.003 4.123-2.483 6.018-5.551 4.232z" fill="#3C424F"/><path d="M45.194 41.863l-11.925-6.94c-3.066-1.783-5.554-6.574-5.554-10.694l23.03 13.404c.003 4.119-2.483 6.014-5.551 4.23z" fill="#93EDC9"/><path d="M43.36 38.885c-.867 0-1.789-.27-2.713-.81l-11.925-6.939c-3.396-1.976-6.059-7.062-6.059-11.576v-1.765l25.052 14.579v.588c0 2.542-.885 4.512-2.426 5.41a3.79 3.79 0 0 1-1.93.513zm-18.501-17.46c.59 3.25 2.582 6.615 4.873 7.948l11.925 6.94c.712.414 1.748.801 2.623.294.787-.458 1.292-1.585 1.396-3.067L24.859 21.426z" fill="#fff"/><path d="M52.916 36.578L17.46 15.944c-2.03-1.18-3.676-4.35-3.676-7.081 0-2.728 1.645-3.982 3.676-2.802l35.456 20.637c2.032 1.18 3.677 4.35 3.677 7.08 0 2.727-1.645 3.983-3.677 2.8z" fill="#3C424F"/><path d="M54.379 38.044c-.632 0-1.3-.197-1.967-.585L16.953 16.825c-2.343-1.365-4.18-4.861-4.18-7.962 0-1.81.647-3.222 1.775-3.88.993-.578 2.208-.509 3.417.195l35.458 20.636c2.345 1.365 4.181 4.862 4.181 7.962 0 1.81-.648 3.223-1.776 3.88a2.85 2.85 0 0 1-1.45.388zM16 6.635a.862.862 0 0 0-.44.111c-.48.28-.767 1.072-.767 2.117 0 2.36 1.452 5.197 3.172 6.197l35.458 20.637c.322.188.933.462 1.394.196.48-.278.766-1.07.766-2.114 0-2.36-1.451-5.2-3.17-6.198L16.954 6.943c-.226-.132-.596-.308-.953-.308z" fill="#fff"/><path d="M54.408 28.341l5.367-3.463 2.05 4.925-1.142 3.13-4.323 3.07-.058-3.55-1.894-4.112zM68.424 46.33l5.778-3.795.225 84.066-1.2 3.692-5.432 3.247.38-85.172.249-2.037z" fill="#fff"/><path d="M12.943 115.479c.554.323.554.848 0 1.171-.555.322-1.457.322-2.011 0-.555-.323-.555-.848 0-1.171.554-.322 1.456-.322 2.01 0zM7.685 112.42c.555.323.555.848 0 1.171-.554.322-1.456.322-2.01 0-.555-.323-.555-.848 0-1.171.554-.324 1.454-.324 2.01 0zM2.428 109.359c.555.323.555.848 0 1.171-.554.322-1.456.322-2.01 0-.555-.323-.555-.848 0-1.171.554-.322 1.454-.322 2.01 0zM60.51 142.56c.555.322.555.848 0 1.17-.554.323-1.456.323-2.01 0-.555-.322-.555-.848 0-1.17.554-.325 1.456-.325 2.01 0zM55.253 139.499c.555.322.555.848 0 1.17-.554.323-1.456.323-2.01 0-.555-.322-.555-.848 0-1.17.554-.323 1.456-.323 2.01 0zM49.996 136.44c.555.322.555.848 0 1.17-.555.322-1.456.322-2.01 0-.555-.322-.555-.848 0-1.17.554-.323 1.455-.323 2.01 0zM44.739 133.381c.554.322.554.848 0 1.17-.555.323-1.456.323-2.01 0-.555-.322-.555-.848 0-1.17.554-.325 1.453-.325 2.01 0zM39.482 130.32c.554.322.554.848 0 1.17-.555.323-1.456.323-2.011 0-.555-.322-.555-.848 0-1.17.555-.323 1.454-.323 2.01 0zM34.179 127.229c.554.323.554.848 0 1.171-.555.322-1.456.322-2.01 0-.555-.323-.555-.848 0-1.171.554-.324 1.453-.324 2.01 0zM28.92 124.168c.554.323.554.848 0 1.171-.555.322-1.456.322-2.011 0-.555-.323-.555-.848 0-1.171.557-.322 1.456-.322 2.01 0zM23.662 121.109c.555.322.555.848 0 1.17-.554.323-1.456.323-2.01 0-.555-.322-.555-.848 0-1.17.556-.322 1.456-.322 2.01 0zM18.405 118.05c.555.323.555.848 0 1.171-.554.322-1.456.322-2.01 0-.555-.323-.555-.846 0-1.171.554-.324 1.456-.324 2.01 0zM18.241 112.445c.555.323.555.848 0 1.171-.554.322-1.456.322-2.01 0-.555-.323-.555-.848 0-1.171.556-.322 1.456-.322 2.01 0zM10.967 109.391c.555-.325 1.454-.325 2.01-.002.557.322.56.845.005 1.17-.555.324-1.454.324-2.01.002-.557-.324-.56-.848-.005-1.17zM5.71 106.329c.555-.324 1.454-.324 2.01-.002.557.323.56.846.005 1.171-.555.324-1.454.324-2.01.002-.558-.323-.56-.846-.005-1.171zM.453 103.271c.555-.325 1.454-.325 2.01-.003.558.323.56.846.005 1.171-.555.324-1.454.324-2.01.002-.557-.323-.56-.848-.005-1.17zM69.051 142.589c.555-.324 1.454-.324 2.011-.002.557.322.559.846.004 1.17-.554.325-1.454.325-2.01.003-.557-.323-.56-.846-.005-1.171zM76.325 139.526c.555.323.555.848 0 1.171-.554.322-1.456.322-2.01 0-.555-.323-.555-.848 0-1.171.554-.324 1.456-.324 2.01 0zM81.582 136.465c.555.322.555.848 0 1.17-.554.323-1.456.323-2.01 0-.555-.322-.555-.848 0-1.17.556-.322 1.456-.322 2.01 0zM63.794 139.53c.555-.324 1.454-.324 2.01-.002.558.323.56.846.005 1.171-.555.324-1.454.324-2.01.002-.557-.323-.56-.848-.005-1.171zM71.068 136.465c.555.322.555.848 0 1.17-.554.323-1.456.323-2.01 0-.555-.322-.555-.848 0-1.17.554-.322 1.456-.322 2.01 0zM76.325 133.406c.555.322.555.848 0 1.17-.554.323-1.456.323-2.01 0-.555-.322-.555-.848 0-1.17.554-.323 1.456-.323 2.01 0zM81.582 130.347c.555.322.555.846 0 1.17-.554.323-1.456.323-2.01 0-.555-.322-.555-.848 0-1.17.556-.325 1.456-.325 2.01 0zM58.535 136.469c.555-.325 1.454-.325 2.01-.002.557.322.56.846.005 1.17-.555.325-1.454.325-2.01.002-.558-.322-.558-.845-.005-1.17zM76.325 127.286c.555.322.555.848 0 1.17-.554.323-1.456.323-2.01 0-.555-.322-.555-.848 0-1.17.554-.322 1.456-.322 2.01 0zM53.278 133.41c.554-.324 1.454-.324 2.01-.002.557.323.56.846.005 1.17-.555.325-1.454.325-2.011.003-.557-.323-.559-.846-.004-1.171zM48.02 130.351c.555-.324 1.455-.324 2.011-.002.557.323.56.846.005 1.171-.555.324-1.455.324-2.011.002-.557-.325-.559-.848-.004-1.171zM42.764 127.29c.554-.324 1.453-.324 2.01-.002.557.322.559.846.004 1.17-.554.325-1.454.325-2.01.002-.557-.322-.56-.845-.005-1.17zM37.46 124.2c.555-.325 1.455-.325 2.011-.002.557.322.559.845.004 1.17-.554.325-1.454.325-2.01.002-.557-.324-.559-.848-.004-1.17zM32.203 121.138c.555-.324 1.454-.324 2.011-.002.557.323.559.846.004 1.171-.554.324-1.454.324-2.01.002-.557-.323-.56-.846-.005-1.171zM26.946 118.08c.555-.325 1.454-.325 2.011-.002.557.322.559.845.004 1.17-.554.324-1.454.324-2.01.002-.557-.322-.56-.848-.005-1.17zM21.687 115.019c.555-.325 1.454-.325 2.01-.003.557.323.56.846.005 1.171-.555.324-1.454.324-2.01.002-.557-.322-.557-.846-.005-1.17z" fill="#93EDC9"/></g><defs><clipPath id="a"><path fill="#fff" d="M0 0h82v144H0z"/></clipPath></defs></svg>