<svg width="128" height="147" viewBox="0 0 128 147" fill="none" xmlns="http://www.w3.org/2000/svg"><g clip-path="url(#a)"><path d="M77.525 132.399l.242-.125 11.129-7.836-3.882-5.217c.576-3.037.78-6.405.485-10.144-1.788-22.635-19.805-48.902-40.242-58.668-3.373-1.612-6.584-2.622-9.616-3.168l-3.768-5.494-10.997 7.59c-6.65 4.021-10.318 12.547-9.384 24.38 1.789 22.636 19.805 48.903 40.243 58.669 10.684 5.102 19.668 4.807 25.79.013z" fill="#3C424F"/><path d="M86.385 118.897c.539-3.135.676-6.47.402-9.921-1.82-23.013-20.2-49.806-40.973-59.732-3.127-1.496-6.289-2.563-9.41-3.176l-4.196-6.12-11.993 8.281c-7.293 4.41-10.94 13.74-10.005 25.59 1.82 23.013 20.2 49.808 40.972 59.734 5.353 2.558 10.422 3.837 14.987 3.837 4.61 0 8.705-1.305 12.068-3.907l12.489-8.753-4.341-5.833zM21.609 50.404l9.933-6.856 3.343 4.873.529.096c3.066.551 6.191 1.581 9.29 3.065 20.033 9.569 37.755 35.406 39.508 57.599.04.525.054 1.04.074 1.558l-34.977-14.7-22.03 13.313c-3.226-4.399-6.062-9.111-8.344-13.965l11.211-6.46-4.01-9.817-11.03 6.34c-1.203-3.984-2.021-7.963-2.329-11.831-.854-10.843 2.339-19.288 8.832-23.215z" fill="#fff"/><path d="M97.332 100.912c1.789 22.635-13.33 33.071-33.764 23.306-20.438-9.766-38.454-36.03-40.243-58.668-1.788-22.635 13.33-33.072 33.765-23.306 20.435 9.763 38.454 36.03 40.242 58.668z" fill="#3C424F"/><path d="M77.966 129.186c-4.589 0-9.652-1.266-14.956-3.803-20.775-9.926-39.156-36.722-40.972-59.732-.904-11.428 2.33-20.298 9.104-24.97 6.773-4.679 16.185-4.536 26.503.395C78.42 51.002 96.8 77.798 98.62 100.808c.903 11.428-2.33 20.298-9.102 24.973-3.296 2.273-7.211 3.405-11.552 3.405zM42.699 39.862c-3.822 0-7.244.981-10.093 2.952-5.983 4.129-8.821 12.165-7.996 22.635 1.753 22.187 19.478 48.027 39.51 57.598 9.448 4.513 17.947 4.728 23.93.601 5.981-4.129 8.82-12.165 7.992-22.635-1.752-22.187-19.477-48.028-39.51-57.599-4.944-2.366-9.631-3.552-13.833-3.552z" fill="#fff"/><path d="M88.382 99.444c1.275 16.139-9.502 23.577-24.074 16.615-14.57-6.961-27.416-25.687-28.69-41.826-1.275-16.14 9.502-23.578 24.073-16.616 14.572 6.961 27.416 25.687 28.691 41.827z" fill="#93EDC9"/><path d="M74.854 115.236c-3.327 0-6.99-.916-10.822-2.749-14.917-7.127-28.118-26.371-29.42-42.894-.654-8.284 1.708-14.726 6.65-18.138 4.942-3.412 11.784-3.324 19.263.254 14.917 7.127 28.118 26.368 29.424 42.89.653 8.286-1.706 14.727-6.648 18.139-2.413 1.665-5.278 2.498-8.447 2.498zM49.71 51.551c-2.65 0-5.02.678-6.988 2.035-4.15 2.869-6.12 8.476-5.539 15.805 1.239 15.7 13.782 33.985 27.958 40.761 6.615 3.161 12.543 3.321 16.695.455 4.15-2.863 6.117-8.476 5.539-15.803-1.24-15.699-13.785-33.985-27.958-40.757-3.48-1.665-6.767-2.496-9.707-2.496z" fill="#fff"/><path d="M79.12 88.777c.748 9.476-5.58 13.843-14.135 9.755-8.556-4.087-16.097-15.083-16.845-24.558-.749-9.476 5.58-13.843 14.135-9.755C70.83 68.307 78.37 79.302 79.12 88.777z" fill="#3C424F"/><path d="M71.016 101.367c-2.034 0-4.261-.556-6.586-1.667-8.912-4.259-16.796-15.754-17.578-25.625-.4-5.062 1.068-9.015 4.134-11.13 3.066-2.118 7.273-2.082 11.841.106 8.912 4.254 16.796 15.751 17.578 25.623v-.003c.4 5.064-1.069 9.017-4.132 11.135-1.507 1.044-3.29 1.561-5.257 1.561zm-14.762-37.39c-1.45 0-2.738.366-3.804 1.101-2.274 1.57-3.348 4.694-3.023 8.795.715 9.048 7.944 19.585 16.112 23.492 3.704 1.77 6.994 1.877 9.27.31 2.274-1.568 3.348-4.693 3.023-8.797-.715-9.048-7.944-19.588-16.112-23.49-1.97-.942-3.822-1.41-5.466-1.41z" fill="#fff"/><path d="M69.728 88.796c.271 3.427-2.018 5.007-5.112 3.528-3.095-1.478-5.823-5.455-6.094-8.882-.27-3.428 2.018-5.007 5.113-3.53 3.094 1.48 5.822 5.456 6.093 8.883z" fill="#93EDC9"/><path d="M67.078 89.435c-.86 0-1.786-.228-2.741-.686-3.518-1.68-6.517-6.048-6.826-9.95-.168-2.135.487-3.834 1.85-4.773 1.36-.937 3.172-.95 5.105-.026 3.518 1.68 6.516 6.053 6.826 9.952.168 2.136-.488 3.829-1.85 4.771-.687.474-1.49.712-2.364.712zM61.735 75.91c-.358 0-.668.083-.91.252-.563.385-.832 1.273-.741 2.436.232 2.959 2.689 6.537 5.36 7.813 1.05.497 1.972.562 2.532.176.562-.386.83-1.273.74-2.436-.232-2.956-2.689-6.54-5.362-7.816-.594-.28-1.146-.424-1.619-.424z" fill="#fff"/><path d="M69.976 27.913l-2.542 14.966 2.544.435 2.542-14.966-2.544-.435z" fill="#93EDC9"/><path d="M68.605 25.543L66.063 40.51l2.544.435 2.542-14.966-2.544-.435z" fill="#fff"/><path d="M111.02 67.969l-15.134.11.018 2.588 15.134-.11-.018-2.588z" fill="#93EDC9"/><path d="M108.601 66.292l-15.134.108.019 2.589 15.134-.108-.019-2.589z" fill="#fff"/><path d="M93.893 2.367l-14.09 35.156 2.395.966 14.09-35.156-2.395-.966z" fill="#93EDC9"/><path d="M92.525-.003L78.432 35.153l2.395.966L94.92.963l-2.395-.966z" fill="#fff"/><path d="M112.03 34.383L77.171 60.67l-2.395-3.161 34.856-26.286 2.398 3.161z" fill="#93EDC9"/><path d="M76.923 62.486l-3.956-5.224L109.88 29.41l3.957 5.222-36.914 27.855zm-.369-5.175l1.022 1.89 32.802-24.72-1.019-1.889-32.805 24.72z" fill="#fff"/><path d="M63.694 69.956l20.755-5.93-8.506-4.975-2.444-9.476-11.296 18.403c-.635 1.033.327 2.309 1.491 1.978z" fill="#3C424F"/><path d="M72.714 64.358l-2.444-9.475-8.532 13.9c.3.442.955 1.457 1.564 1.284l13.255-3.464-3.843-2.245z" fill="#93EDC9"/><path d="M63.322 71.302a2.59 2.59 0 0 1-2.074-1.04 2.617 2.617 0 0 1-.142-2.965l12.886-20.989 3.068 11.897 10.659 6.234-23.669 6.76a2.63 2.63 0 0 1-.727.103zm9.686-18.462l-9.706 15.813.041.055 17.841-5.098-6.351-3.718-1.825-7.052z" fill="#fff"/><path d="M113.682 19.227l-12.804 9.766-7.492 15.762c-.441.926.351 1.967 1.358 1.783l17.085-3.093 12.803-9.766-13.103-1.408 2.153-13.044z" fill="#3C424F"/><path d="M110.825 43.994l7.691-5.867-9.028-.97 1.956-12.01-12.803 9.765-5.928 11.85c.27.24.617.398 1.027.325l17.085-3.093z" fill="#93EDC9"/><path d="M113.026 31.13l2.46-14.905-15.637 11.927-7.63 16.044a2.548 2.548 0 0 0 .274 2.648 2.537 2.537 0 0 0 2.478.963l17.392-3.15L128 32.731l-14.974-1.603zm-1.732 11.095L94.55 45.31l7.358-15.48 2.393-1.825-1.526 8.777 2.542.445L107.32 25.7l4.558-3.477-1.846 11.182 11.235 1.209-9.973 7.611z" fill="#fff"/><path d="M74.928 145.253c.69.398.69 1.048 0 1.447-.689.399-1.809.399-2.498 0-.689-.399-.689-1.049 0-1.447.69-.399 1.81-.399 2.498 0zM81.46 141.47c.69.399.69 1.046 0 1.447-.689.399-1.809.399-2.498 0-.689-.399-.689-1.048 0-1.447.692-.401 1.81-.401 2.498 0zM87.995 137.685c.69.399.69 1.049 0 1.447-.69.399-1.81.399-2.498 0-.69-.398-.69-1.048 0-1.447.689-.399 1.806-.399 2.498 0zM61.864 145.253c.69.398.69 1.048 0 1.447-.689.399-1.809.399-2.498 0-.689-.399-.689-1.049 0-1.447.69-.399 1.81-.399 2.498 0zM68.396 141.47c.69.399.69 1.048 0 1.447-.689.399-1.809.399-2.498 0-.689-.399-.689-1.048 0-1.447.69-.401 1.81-.401 2.498 0zM74.928 137.685c.69.399.69 1.049 0 1.447-.689.399-1.809.399-2.498 0-.689-.398-.689-1.048 0-1.447.69-.399 1.81-.399 2.498 0zM81.46 133.903c.69.398.69 1.048 0 1.447-.689.399-1.809.399-2.498 0-.689-.399-.689-1.049 0-1.447.692-.402 1.81-.402 2.498 0zM87.995 130.118c.69.399.69 1.046 0 1.447-.69.399-1.81.399-2.498 0-.69-.399-.69-1.048 0-1.447.689-.399 1.806-.399 2.498 0zM48.8 145.253c.69.398.69 1.046 0 1.447-.689.399-1.809.399-2.498 0-.689-.399-.689-1.049 0-1.447.69-.399 1.807-.399 2.498 0zM55.332 141.47c.69.399.69 1.048 0 1.447-.689.399-1.809.399-2.498 0-.689-.399-.689-1.048 0-1.447.69-.401 1.807-.401 2.498 0zM61.864 137.685c.69.399.69 1.049 0 1.447-.689.399-1.809.399-2.498 0-.689-.398-.689-1.048 0-1.447.69-.399 1.81-.399 2.498 0zM35.734 145.253c.689.398.689 1.048 0 1.447-.69.399-1.81.399-2.498 0-.69-.399-.69-1.049 0-1.447.689-.399 1.809-.399 2.498 0zM42.266 141.47c.689.399.689 1.048 0 1.447-.69.399-1.81.399-2.498 0-.69-.399-.69-1.048 0-1.447.691-.401 1.809-.401 2.498 0zM48.8 137.685c.69.399.69 1.049 0 1.447-.689.399-1.809.399-2.498 0-.689-.398-.689-1.048 0-1.447.69-.399 1.807-.399 2.498 0zM29.202 141.47c.689.399.689 1.048 0 1.447-.69.399-1.81.399-2.498 0-.69-.399-.69-1.046 0-1.447.689-.401 1.809-.401 2.498 0zM35.734 137.685c.689.399.689 1.049 0 1.447-.69.399-1.81.399-2.498 0-.69-.398-.69-1.048 0-1.447.691-.399 1.809-.399 2.498 0zM42.266 133.903c.689.398.689 1.048 0 1.447-.69.399-1.81.399-2.498 0-.69-.399-.69-1.049 0-1.447.691-.402 1.809-.402 2.498 0zM22.67 137.685c.689.399.689 1.049 0 1.447-.69.399-1.81.399-2.498 0-.69-.398-.69-1.048 0-1.447.689-.399 1.809-.399 2.498 0zM29.202 133.903c.689.398.689 1.048 0 1.447-.69.399-1.81.399-2.498 0-.69-.399-.69-1.049 0-1.447.689-.402 1.809-.402 2.498 0zM35.734 130.118c.689.399.689 1.048 0 1.447-.69.399-1.81.399-2.498 0-.69-.399-.69-1.046 0-1.447.691-.399 1.809-.399 2.498 0zM16.138 133.903c.689.398.689 1.048 0 1.447-.69.399-1.81.399-2.499 0-.688-.399-.688-1.049 0-1.447.69-.402 1.807-.402 2.499 0zM22.67 130.118c.689.399.689 1.048 0 1.447-.69.399-1.81.399-2.498 0-.69-.399-.69-1.046 0-1.447.689-.399 1.809-.399 2.498 0zM29.202 126.335c.689.399.689 1.049 0 1.447-.69.399-1.81.399-2.498 0-.69-.398-.69-1.048 0-1.447.689-.399 1.809-.399 2.498 0zM35.734 122.553c.689.398.689 1.048 0 1.447-.69.399-1.81.399-2.498 0-.69-.399-.69-1.049 0-1.447.691-.402 1.809-.402 2.498 0zM9.606 130.118c.689.399.689 1.048 0 1.447-.69.399-1.81.399-2.498 0-.69-.399-.69-1.048 0-1.447.689-.399 1.806-.399 2.498 0zM16.138 126.335c.689.399.689 1.046 0 1.447-.69.399-1.81.399-2.499 0-.688-.398-.688-1.048 0-1.447.69-.399 1.807-.399 2.499 0zM22.67 122.553c.689.398.689 1.048 0 1.447-.69.399-1.81.399-2.498 0-.69-.399-.69-1.049 0-1.447.689-.402 1.809-.402 2.498 0zM29.202 118.768c.689.398.689 1.048 0 1.447-.69.399-1.81.399-2.498 0-.69-.399-.69-1.046 0-1.447.689-.399 1.809-.399 2.498 0zM3.017 126.296c.689.399.689 1.049 0 1.448-.69.398-1.81.398-2.498 0-.69-.399-.69-1.049 0-1.448.689-.398 1.806-.401 2.498 0zM9.549 122.511c.689.399.689 1.049 0 1.447-.69.399-1.81.399-2.498 0-.69-.398-.69-1.048 0-1.447.689-.399 1.806-.399 2.498 0zM16.081 118.729c.689.398.689 1.046 0 1.447-.69.399-1.81.399-2.498 0-.69-.399-.69-1.049 0-1.447.689-.399 1.809-.399 2.498 0zM22.613 114.946c.69.399.69 1.049 0 1.448-.69.398-1.81.398-2.498 0-.69-.399-.69-1.049 0-1.448.689-.401 1.809-.401 2.498 0zM3.017 118.729c.689.398.689 1.046 0 1.447-.69.399-1.81.399-2.498 0-.69-.399-.69-1.049 0-1.447.689-.399 1.806-.399 2.498 0zM9.549 114.946c.689.399.689 1.049 0 1.448-.69.398-1.81.398-2.498 0-.69-.399-.69-1.049 0-1.448.689-.401 1.806-.401 2.498 0zM16.081 111.162c.689.398.689 1.048 0 1.447-.69.398-1.81.398-2.498 0-.69-.399-.69-1.049 0-1.447.689-.399 1.809-.399 2.498 0zM22.613 107.379c.69.399.69 1.048 0 1.447s-1.81.399-2.498 0c-.69-.399-.69-1.048 0-1.447.689-.401 1.809-.401 2.498 0zM9.549 107.379c.689.399.689 1.048 0 1.447-.69.399-1.81.399-2.498 0-.69-.399-.69-1.048 0-1.447.689-.401 1.806-.401 2.498 0zM16.081 103.594c.689.399.689 1.048 0 1.447-.69.399-1.81.399-2.498 0-.69-.399-.69-1.048 0-1.447.689-.399 1.809-.399 2.498 0z" fill="#93EDC9"/></g><defs><clipPath id="a"><path fill="#fff" d="M0 0h128v147H0z"/></clipPath></defs></svg>