<svg width="111" height="149" viewBox="0 0 111 149" fill="none" xmlns="http://www.w3.org/2000/svg"><path d="M31.606 139.793c.625.359.625.943 0 1.301-.626.359-1.644.359-2.27 0-.625-.358-.625-.942 0-1.301.627-.358 1.641-.358 2.27 0zM37.538 136.393c.626.358.626.942 0 1.301-.626.358-1.643.358-2.269 0-.626-.359-.626-.943 0-1.301.626-.361 1.643-.361 2.269 0zM25.673 136.393c.626.358.626.942 0 1.301-.626.358-1.643.358-2.269 0-.626-.359-.626-.943 0-1.301.626-.361 1.641-.361 2.27 0zM31.606 132.99c.625.358.625.943 0 1.301-.626.358-1.644.358-2.27 0-.625-.358-.625-.943 0-1.301.627-.358 1.641-.358 2.27 0zM19.738 132.99c.626.358.626.943 0 1.301-.625.358-1.643.358-2.269 0-.626-.358-.626-.943 0-1.301.628-.358 1.643-.358 2.27 0zM25.673 129.59c.626.358.626.942 0 1.301-.626.358-1.643.358-2.269 0-.626-.359-.626-.943 0-1.301.626-.359 1.641-.359 2.27 0zM19.738 126.189c.626.358.626.943 0 1.301-.625.358-1.643.358-2.269 0-.626-.358-.626-.943 0-1.301.628-.361 1.643-.361 2.27 0zM25.673 124.087c-.626.359-1.643.359-2.269 0-.626-.358-.626-.942 0-1.301.626-.358 2.895.943 2.27 1.301zM55.568 146.051c.625.358.625.943 0 1.301-.626.358-1.644.358-2.27 0-.625-.358-.625-.943 0-1.301.629-.358 1.644-.358 2.27 0zM61.502 142.651c.626.358.626.943 0 1.301-.625.358-1.643.358-2.269 0-.625-.358-.625-.943 0-1.301.626-.361 1.641-.361 2.27 0zM67.435 139.248c.626.359.626.943 0 1.301-.626.359-1.643.359-2.269 0-.626-.358-.626-.942 0-1.301.626-.358 1.64-.358 2.269 0zM73.367 135.848c.626.358.626.942 0 1.301-.626.358-1.643.358-2.269 0-.625-.359-.625-.943 0-1.301.626-.361 1.644-.361 2.27 0zM79.3 132.446c.626.358.626.942 0 1.301-.626.358-1.643.358-2.27 0-.625-.359-.625-.943 0-1.301.627-.359 1.644-.359 2.27 0zM85.232 130.346c-.625.358-1.643.358-2.269 0-.625-.359-.625-.943 0-1.301.626-.359 1.644-.359 2.27 0 .628.358.628.942 0 1.301zM43.703 146.051c.625.358.625.943 0 1.301-.626.358-1.643.358-2.27 0-.625-.358-.625-.943 0-1.301.627-.358 1.644-.358 2.27 0zM49.635 142.651c.626.358.626.943 0 1.301s-1.643.358-2.269 0c-.626-.358-.626-.943 0-1.301.628-.361 1.643-.361 2.27 0zM55.568 139.248c.625.359.625.943 0 1.301-.626.359-1.644.359-2.27 0-.625-.358-.625-.942 0-1.301.629-.358 1.644-.358 2.27 0zM61.502 135.848c.626.358.626.942 0 1.301-.625.358-1.643.358-2.269 0-.625-.359-.625-.943 0-1.301.626-.361 1.641-.361 2.27 0zM67.435 132.446c.626.358.626.942 0 1.301-.626.358-1.643.358-2.269 0-.626-.359-.626-.943 0-1.301.626-.359 1.64-.359 2.269 0zM73.367 129.045c.626.358.626.942 0 1.301-.626.358-1.643.358-2.269 0-.625-.359-.625-.943 0-1.301.626-.359 1.644-.359 2.27 0zM79.3 125.645c.626.358.626.942 0 1.301-.626.358-1.643.358-2.27 0-.625-.359-.625-.943 0-1.301.627-.361 1.644-.361 2.27 0zM37.77 142.651c.626.358.626.943 0 1.301s-1.643.358-2.269 0c-.626-.358-.626-.943 0-1.301.626-.361 1.643-.361 2.27 0zM43.703 139.248c.625.359.625.943 0 1.301-.626.359-1.643.359-2.27 0-.625-.358-.625-.942 0-1.301.627-.358 1.644-.358 2.27 0z" fill="#FFC8CB"/><path d="M105.308 55.703L10.368 1.94c-1.19-.673-2.264-.638-3.034-.042L2.679 4.667l3.446 4.868v73.088c0 3.064 1.899 6.624 4.242 7.949l88.655 50.202 4.565 6.449 4.394-2.617c.957-.475 1.569-1.678 1.569-3.417V63.653c0-3.063-1.899-6.623-4.242-7.95z" fill="#3C424F"/><path d="M82.844 51.825L3.939 7.985 2.68 5.118l3.505-2.084c.77-.597 1.844-.632 3.034.043l94.941 53.762c1.303.736 2.467 2.164 3.244 3.813l.117.476-5.625 3.35-19.051-12.653zM108.144 63.956l-5.107 3.016.452 1.897 4.655-2.847v-2.066z" fill="#FFC8CB"/><path d="M7.056 1.546c.946-.732 2.234-.728 3.535.009l94.941 53.762c2.463 1.395 4.468 5.134 4.468 8.336v77.536c0 1.852-.663 3.244-1.788 3.8l-4.753 2.831-4.748-6.708-88.568-50.153c-2.463-1.397-4.468-5.136-4.468-8.338V9.676L2.033 4.53l5.023-2.984zm-.481 7.847v73.23c0 2.916 1.8 6.307 4.014 7.563l88.656 50.2 4.468 6.241.945-.562.176-1.392 3.471-2.126c.473-.29.792-.796.794-1.347V63.653c0-2.917-1.801-6.307-4.015-7.563L10.144 2.328c-.982-.555-1.883-.582-2.58-.047l-4.24 2.521 3.25 4.591z" fill="#fff" stroke="#fff"/><path d="M33.403 121.756l19.251-10.85c1.866-1.057 4.996-.936 7.132.272l11.71 6.634 5.566 2.468v2.525h-.037c-.126.655-.59 1.234-1.346 1.662L51.96 137.85c-.851.481-1.967.718-3.132.718-1.384 0-2.839-.334-3.997-.99l-15.416-8.73c-1.122-.636-1.783-1.479-1.857-2.433-.002-.079-.003-.158 0-.204v-2.051l5.845-2.404z" fill="#fff"/><path d="M75.459 122.14l-23.72 13.383c-1.715.97-4.708.849-6.684-.272l-15.416-8.73c-1.979-1.121-2.194-2.815-.48-3.786l23.721-13.383c1.714-.97 4.707-.849 6.684.272l15.416 8.73c1.976 1.121 2.191 2.816.479 3.786z" fill="#3C424F"/><path d="M31.76 124.696l6.443-3.789a6.853 6.853 0 0 1 6.84-.057l16.148 9.169-9.758 5.504c-1.714.97-4.707.849-6.684-.272l-12.51-6.771c-1.978-1.119-2.193-2.815-.48-3.784z" fill="#FFC8CB"/><path d="M48.828 136.63c1.167 0 2.283-.238 3.134-.721l23.72-13.381c.891-.505 1.382-1.228 1.382-2.031 0-.937-.68-1.858-1.864-2.531l-15.416-8.729c-2.134-1.208-5.266-1.327-7.131-.272l-23.72 13.383c-.893.505-1.384 1.228-1.384 2.032 0 .938.68 1.859 1.864 2.529l15.416 8.73c1.16.656 2.615.991 4 .991zm26.407-14.878l-23.72 13.382c-1.587.9-4.387.777-6.24-.272l-15.416-8.73c-.896-.507-1.41-1.145-1.41-1.752 0-.602.505-1.016.929-1.255l23.719-13.383c1.59-.898 4.386-.777 6.239.272l15.416 8.73c.896.507 1.41 1.147 1.41 1.753.002.603-.503 1.016-.927 1.255z" fill="#fff"/><path d="M2.677 4.13c.918-.528 2.067-.454 3.239.21L100.857 58.1c2.463 1.395 4.468 5.135 4.468 8.337v77.535c0 1.735-.706 2.507-1.298 2.847-.385.223-.842.331-1.347.331-.805 0-1.734-.278-2.699-.825L5.468 93.746C3.005 92.35 1 88.61 1 85.409V7.874c0-1.767.61-3.13 1.677-3.744z" fill="#fff"/><path d="M1.45 76.394v9.4c0 2.85 2.041 6.318 4.558 7.744l94.31 53.403c2.517 1.426 4.559.27 4.559-2.58v-9.399L1.45 76.395z" fill="#3C424F"/><path d="M102.354 148c.518 0 .999-.121 1.427-.368.996-.573 1.544-1.736 1.544-3.273v-9.658l-.226-.128L1 75.626v10.167c0 2.99 2.147 6.637 4.785 8.13l94.307 53.404c.791.449 1.561.673 2.262.673zm2.071-12.78v9.139c0 1.204-.389 2.092-1.097 2.5-.719.415-1.709.305-2.788-.307L6.232 93.15c-2.387-1.353-4.33-4.653-4.33-7.355v-8.628l102.523 58.053z" fill="#fff" stroke="#fff"/><path d="M98.704 125.612L7.621 74.035c-.826-.467-1.496-1.724-1.496-2.802V12.009c0-1.08.67-1.577 1.496-1.11l91.083 51.576c.826.469 1.496 1.724 1.496 2.805v59.222c.002 1.082-.669 1.578-1.496 1.11z" fill="#3C424F"/><path d="M99.3 126.237c.219 0 .426-.054.615-.164.468-.27.734-.842.734-1.57V65.28c0-1.243-.757-2.645-1.723-3.19L7.845 10.512c-.51-.289-1.017-.313-1.433-.074-.468.27-.737.842-.737 1.57V71.23c0 1.242.757 2.644 1.724 3.192L98.482 126c.278.157.555.236.818.236zM7.028 11.171a.8.8 0 0 1 .37.117l91.084 51.577c.689.39 1.27 1.496 1.27 2.415v59.222c0 .389-.111.694-.289.797-.174.1-.41-.005-.535-.077L7.845 73.647c-.689-.39-1.27-1.496-1.27-2.416V12.009c0-.39.11-.695.289-.798.05-.03.107-.04.164-.04z" fill="#fff"/><path d="M45 51.616v24.717c0 .98 1.047 2.077 1.698 1.779l3.367-1.541c.468-.214 1.214.383 1.464 1.166l3.25 10.283c.326 1.026 1.218 1.898 1.964 1.916l2.785.064c.709.015 1.019-.746.7-1.721l-3.44-10.542c-.257-.783.132-1.297.758-1.008l4.525 2.083c.879.406 1.252-.597.597-1.623L46.505 51.726c-.575-.917-1.505-.978-1.505-.11z" fill="#FFC8CB"/><path d="M55.845 84h-.04l-2.683-.064c-1.096-.028-2.246-1.115-2.672-2.527L47.32 71.044a1.17 1.17 0 0 0-.393-.59l-3.095 1.486c-.456.221-1.004.16-1.506-.16-.66-.42-1.327-1.378-1.327-2.397V44.47c0-.844.493-1.287.953-1.419.72-.208 1.524.218 2.048 1.078l15.557 25.667c.57.94.59 1.977.052 2.58-.326.365-.947.622-1.701.26l-3.853-1.854 3.235 10.383c.27.866.192 1.674-.213 2.217-.29.399-.73.617-1.233.617zM46.92 68.735c.207 0 .417.046.627.138.612.273 1.157.933 1.382 1.68l3.128 10.365c.24.8.865 1.323 1.108 1.332l2.666.061c-.048-.021-.006-.248-.128-.638l-3.31-10.626c-.238-.768-.101-1.47.367-1.882.408-.357.977-.409 1.522-.148l3.98 1.916a1.684 1.684 0 0 0-.127-.258L42.677 45.174V69.38c0 .396.344.853.55.976l3.13-1.501c.176-.08.367-.12.562-.12z" fill="#fff"/></svg>