<svg id="Warstwa_1" data-name="Warstwa 1" xmlns="http://www.w3.org/2000/svg" width="835.99" height="758.59" viewBox="0 0 835.99 758.59"><defs><style>.cls-1{fill:#f1f1f1;}.cls-2{fill:#dbdbdf;}.cls-3{fill:#b82a47;}.cls-4{isolation:isolate;}.cls-5{fill:#707070;}.cls-6{fill:#fff;}.cls-7{fill:#b92a48;}.cls-8{fill:#333;}</style></defs><title>ikony CyberForces ksztalty</title><path class="cls-1" d="M831.13,270.14c0-112.94-71-209.29-170.65-246.7A264.05,264.05,0,0,0,419.74,52,262.28,262.28,0,0,0,271.88,6.61C126.34,6.61,5.8,118.19,5.8,263.74c0,102.93,61.57,198.47,147.61,241.85C160.6,644.71,275.67,755.3,416.58,755.3c123.72,0,227.52-85.25,255.82-200a265.18,265.18,0,0,0,7.17-46.59C769.12,466.66,831.13,375.65,831.13,270.14Z"/><path class="cls-2" d="M276.7,272.4l-73.1,73.1q-4.28,6.08-8.35,12.6l94.57-94.58C285.94,266,281.51,269,276.7,272.4Z"/><path class="cls-2" d="M306.73,254.24,185,376q-2.18,4.16-4.23,8.47l126-126C306.77,257,306.74,255.65,306.73,254.24Z"/><path class="cls-2" d="M307,265.9,174.75,398.11q-1.4,3.43-2.72,7L307.1,270C307,268.65,307,267.27,307,265.9Z"/><path class="cls-2" d="M308.36,288.26l-145,145c-.45,1.83-.89,3.68-1.3,5.54l146.7-146.7C308.6,290.85,308.48,289.55,308.36,288.26Z"/><path class="cls-2" d="M307.49,277.25,168,416.74c-.64,2-1.26,4.05-1.86,6.11L307.77,281.2C307.67,279.89,307.57,278.58,307.49,277.25Z"/><path class="cls-2" d="M309.52,299,160.1,448.4c-.31,1.7-.61,3.4-.89,5.13L310,302.72C309.84,301.48,309.67,300.24,309.52,299Z"/><path class="cls-2" d="M311,309.39l-153,153.05c-.2,1.59-.39,3.2-.56,4.81l154.2-154.2C311.36,311.84,311.17,310.61,311,309.39Z"/><path class="cls-2" d="M314.75,329.39,155.93,488.2c-.05,1.44-.08,2.89-.1,4.34l159.7-159.7C315.26,331.7,315,330.54,314.75,329.39Z"/><path class="cls-2" d="M312.72,319.53,156.59,475.66c-.11,1.51-.22,3-.31,4.55L313.42,323.08C313.18,321.9,313,320.72,312.72,319.53Z"/><path class="cls-2" d="M319.58,348.31,158.44,509.44c.81.35,1.8.78,3,1.26L320.55,351.58C320.22,350.5,319.9,349.41,319.58,348.31Z"/><path class="cls-2" d="M325.42,366.23,175.6,516l3.17,1.08L326.56,369.33C326.17,368.31,325.8,367.27,325.42,366.23Z"/><path class="cls-2" d="M344.11,406.93,222.57,528.47l3.59.66,119.49-119.5C345.14,408.74,344.63,407.83,344.11,406.93Z"/><path class="cls-2" d="M317,339l-161.2,161.2c0,1.38,0,2.77.08,4.16l162-162C317.61,341.22,317.32,340.11,317,339Z"/><path class="cls-2" d="M322.37,357.39,166.89,512.87,170,514,323.44,360.57C323.08,359.52,322.72,358.46,322.37,357.39Z"/><path class="cls-2" d="M328.69,374.83,184.54,519c1.06.33,2.14.67,3.25,1L329.93,377.84C329.52,376.84,329.1,375.84,328.69,374.83Z"/><path class="cls-2" d="M363,435.54l-98,98c1.35.06,2.7.13,4.06.17l95.8-95.79C364.25,437.15,363.63,436.35,363,435.54Z"/><path class="cls-2" d="M353.13,421.66l-110,110c1.26.16,2.53.31,3.8.45L354.84,424.2C354.27,423.36,353.7,422.52,353.13,421.66Z"/><path class="cls-2" d="M397.78,472.05l-53.64,53.64c2-.52,3.93-1.07,5.89-1.65L400.11,474C399.35,473.35,398.57,472.71,397.78,472.05Z"/><path class="cls-2" d="M411.26,482.33,381.38,512.2q4.19-2,8.36-4.11l24.05-24C413,483.52,412.15,483,411.26,482.33Z"/><path class="cls-2" d="M336,391.33,203.08,524.2l3.41.83L337.35,394.18C336.88,393.23,336.41,392.29,336,391.33Z"/><path class="cls-2" d="M373.73,448.58l-85.16,85.16,4.43-.18,82.74-82.74C375.07,450.08,374.4,449.34,373.73,448.58Z"/><path class="cls-2" d="M385.31,460.76l-70.82,70.82c1.65-.22,3.31-.46,5-.72l68-68C386.75,462.17,386,461.47,385.31,460.76Z"/><path class="cls-2" d="M339.92,399.24,212.7,526.46l3.5.75L341.4,402C340.9,401.09,340.41,400.17,339.92,399.24Z"/><path class="cls-2" d="M332.22,383.19,193.7,521.7c1.09.31,2.2.62,3.32.92l136.5-136.49C333.08,385.16,332.65,384.17,332.22,383.19Z"/><path class="cls-2" d="M348.51,414.4,232.7,530.21l3.69.56L350.14,417C349.6,416.16,349.05,415.29,348.51,414.4Z"/><path class="cls-2" d="M358,428.71,253.89,532.79c1.3.11,2.61.22,3.92.31L359.75,431.17C359.15,430.36,358.56,429.54,358,428.71Z"/><path class="cls-2" d="M379.41,454.78,301.17,533c1.55-.13,3.11-.27,4.67-.43l75.65-75.65Z"/><path class="cls-2" d="M368.27,442.17l-91.73,91.72h4.24l89.42-89.42C369.55,443.72,368.91,443,368.27,442.17Z"/><path class="cls-2" d="M404.38,477.33l-43.07,43.06c2.25-.79,4.5-1.63,6.75-2.5l38.74-38.74Z"/><path class="cls-2" d="M391.43,466.52l-62.72,62.72q2.67-.53,5.35-1.11l59.61-59.61C392.93,467.87,392.18,467.21,391.43,466.52Z"/><path class="cls-2" d="M418.47,487,408,497.51q6.57-4.25,13-9.08S420.09,488,418.47,487Z"/><path class="cls-2" d="M544,257.84l-9.62,9.62c.1,1.34.16,2.68.22,4l12.09-12.09C545.78,258.84,544.88,258.33,544,257.84Z"/><path class="cls-2" d="M558.76,266.86l-24.62,24.61c-.14,1.58-.3,3.16-.49,4.74l27.66-27.66C560.45,268,559.6,267.41,558.76,266.86Z"/><path class="cls-2" d="M536.31,253.67l-3.14,3.14c.2,1.24.35,2.49.51,3.73l5.42-5.41C538.06,254.57,537.13,254.09,536.31,253.67Z"/><path class="cls-2" d="M551.49,262.25,534.77,279c0,1.44,0,2.89-.09,4.33l19.43-19.43Z"/><path class="cls-2" d="M572.75,276.63,529.08,320.3c-.51,2-1.06,3.91-1.62,5.86l47.71-47.71C574.36,277.83,573.55,277.22,572.75,276.63Z"/><path class="cls-2" d="M565.84,271.66l-33.49,33.49q-.45,2.61-1,5.22l37-37Z"/><path class="cls-2" d="M579.48,281.77l-55.62,55.62c-.77,2.24-1.59,4.46-2.43,6.68l60.41-60.42Z"/><path class="cls-2" d="M586,287.09l-70,70q-1.76,4-3.63,7.87L588.35,289C587.58,288.37,586.81,287.73,586,287.09Z"/><path class="cls-2" d="M598.67,298.23,485.45,411.45Q480.32,419,475.16,426L600.85,300.29C600.12,299.59,599.39,298.9,598.67,298.23Z"/><path class="cls-2" d="M592.44,292.57l-88.09,88.09q-2.76,5-5.64,9.88l96-96Z"/><path class="cls-2" d="M604.72,304.05,436.25,472.52c-8.41,8.91-13.8,13.91-13.8,13.91L425,488,606.84,306.17Z"/><path class="cls-2" d="M610.6,310.05,429.73,490.92c.89.54,1.77,1.06,2.66,1.58L612.66,312.24Z"/><path class="cls-2" d="M621.82,322.58,445,499.42l2.81,1.43,176-176C623.11,324.12,622.47,323.35,621.82,322.58Z"/><path class="cls-2" d="M616.3,316.23l-179,179,2.72,1.52L618.29,318.47C617.63,317.72,617,317,616.3,316.23Z"/><path class="cls-2" d="M632.31,335.86,461.1,507.06c1,.43,2,.87,3,1.29l170-170C633.5,337.49,632.91,336.67,632.31,335.86Z"/><path class="cls-2" d="M642,349.92,478.14,513.78c1.05.37,2.09.75,3.14,1.1L643.64,352.52C643.1,351.65,642.55,350.78,642,349.92Z"/><path class="cls-2" d="M662.36,389,525.5,525.81c1.23.2,2.46.39,3.68.56L663.58,392C663.17,391,662.77,390,662.36,389Z"/><path class="cls-2" d="M627.16,329.12,452.93,503.36c1,.46,1.93.9,2.89,1.34L629,331.51Z"/><path class="cls-2" d="M637.25,342.79,469.49,510.55c1,.41,2,.79,3.07,1.18L639,345.31C638.4,344.47,637.83,343.62,637.25,342.79Z"/><path class="cls-2" d="M646.53,357.27,487,516.77l3.25,1L648.1,360C647.58,359.05,647.06,358.16,646.53,357.27Z"/><path class="cls-2" d="M673.91,424.92,569.58,529.25c1.44,0,2.86,0,4.28,0L674.7,428.37C674.45,427.21,674.18,426.06,673.91,424.92Z"/><path class="cls-2" d="M668.73,406.34l-122,122c1.33.11,2.64.2,3.95.29L669.75,409.57C669.41,408.49,669.08,407.41,668.73,406.34Z"/><path class="cls-2" d="M680.57,489.53l-27.92,27.92q3.21-.91,6.07-1.82l21.73-21.73C680.5,492.44,680.54,491,680.57,489.53Z"/><path class="cls-2" d="M654.93,372.63,505.66,521.9c1.15.28,2.3.54,3.45.79L656.33,375.47C655.86,374.52,655.4,373.57,654.93,372.63Z"/><path class="cls-2" d="M677.76,444.83l-83.35,83.35c1.57-.13,3.13-.28,4.67-.43l79.21-79.21C678.12,447.3,678,446.06,677.76,444.83Z"/><path class="cls-2" d="M680.07,466.28,621.75,524.6c1.77-.31,3.5-.64,5.21-1l53.34-53.34C680.23,469,680.15,467.61,680.07,466.28Z"/><path class="cls-2" d="M658.77,380.67,515.41,524c1.2.24,2.39.46,3.57.68l141.1-141.1C659.65,382.62,659.21,381.64,658.77,380.67Z"/><path class="cls-2" d="M650.85,364.83,496.21,519.47c1.11.31,2.22.62,3.33.91L652.33,367.59Z"/><path class="cls-2" d="M665.68,397.51,535.93,527.26c1.28.16,2.55.3,3.81.44L666.8,400.63C666.44,399.59,666.06,398.55,665.68,397.51Z"/><path class="cls-2" d="M671.48,415.48,557.94,529c1.38.06,2.75.1,4.11.14L672.38,418.81Q671.95,417.13,671.48,415.48Z"/><path class="cls-2" d="M679.12,455.35l-71.41,71.41c1.67-.22,3.3-.45,4.93-.69l66.87-66.87C679.39,457.91,679.26,456.62,679.12,455.35Z"/><path class="cls-2" d="M676,434.7,581.73,529c1.5-.06,3-.14,4.46-.22l90.49-90.49C676.47,437.08,676.24,435.88,676,434.7Z"/><path class="cls-2" d="M679.72,506.51c.12-1.53.23-3.06.33-4.57l-9.77,9.76c3-1.12,5.39-2.06,7-2.72Z"/><path class="cls-2" d="M680.56,477.66l-43.92,43.92c1.91-.43,3.77-.88,5.57-1.32l38.41-38.42C680.61,480.44,680.59,479.05,680.56,477.66Z"/><path class="cls-2" d="M418.54,52.14,342,128.72q-3.44,5.39-6.51,10.75l85.73-85.74C420.18,53.11,419.29,52.58,418.54,52.14Z"/><path class="cls-2" d="M432.81,61.63l-115,115c-.86,2.25-1.69,4.49-2.47,6.71L435.23,63.45C434.4,62.82,433.6,62.21,432.81,61.63Z"/><path class="cls-2" d="M464,89.89,301.08,252.76c-.1,1.54-.19,3-.25,4.49L466,92.12C465.29,91.37,464.62,90.62,464,89.89Z"/><path class="cls-2" d="M363.08,100l36.54-36.54A300,300,0,0,0,363.08,100Z"/><path class="cls-2" d="M425.84,56.72,326.9,155.66c-1.29,2.67-2.54,5.32-3.71,8L428.37,58.44C427.48,57.83,426.65,57.26,425.84,56.72Z"/><path class="cls-2" d="M439.51,66.82,311.65,194.67c-.6,2-1.19,4-1.73,6L441.84,68.73C441.05,68.07,440.27,67.43,439.51,66.82Z"/><path class="cls-2" d="M484.9,116.46,311.54,289.82l3,1.24L486.59,119C486,118.14,485.46,117.29,484.9,116.46Z"/><path class="cls-2" d="M474.85,102.74l-174,174c.08,1.52.16,2.86.25,4L476.71,105.13C476.09,104.32,475.47,103.52,474.85,102.74Z"/><path class="cls-2" d="M509.65,163,366.39,306.23l3.61.63L510.84,166C510.45,165,510.05,164,509.65,163Z"/><path class="cls-2" d="M516,180.41,387.19,309.19l3.89.36L517,183.64C516.65,182.56,516.32,181.47,516,180.41Z"/><path class="cls-2" d="M529.91,261.5l-38.19,38.19c2.08-.59,4.09-1.19,6-1.78L530,265.63C530,264.25,530,262.86,529.91,261.5Z"/><path class="cls-2" d="M452.17,77.91,304.28,225.8c-.3,1.72-.56,3.4-.82,5.06L454.34,80C453.61,79.28,452.89,78.58,452.17,77.91Z"/><path class="cls-2" d="M494.06,131.05,328.73,296.39q1.59.54,3.18,1.05l163.7-163.7C495.1,132.84,494.58,131.94,494.06,131.05Z"/><path class="cls-2" d="M502.32,146.55,347,301.9l3.38.87L503.7,149.41C503.25,148.44,502.79,147.49,502.32,146.55Z"/><path class="cls-2" d="M525.39,218.51l-91.34,91.34c1.55-.11,3.09-.23,4.61-.37L526,222.15C525.79,220.93,525.6,219.71,525.39,218.51Z"/><path class="cls-2" d="M521.25,198.89,409.63,310.51c1.41,0,2.81,0,4.2.05L522.06,202.32C521.79,201.18,521.53,200,521.25,198.89Z"/><path class="cls-2" d="M528.32,239.34,461,306.62q2.63-.45,5.17-.93l62.47-62.48C528.56,241.92,528.45,240.62,528.32,239.34Z"/><path class="cls-2" d="M458.17,83.79l-155.9,155.9c-.19,1.62-.37,3.21-.52,4.76L460.26,85.94Z"/><path class="cls-2" d="M446,72.24,307.32,210.88q-.65,2.76-1.22,5.46L448.21,74.24C447.45,73.55,446.7,72.89,446,72.24Z"/><path class="cls-2" d="M469.51,96.21l-168.9,168.9c0,1.49,0,2.9,0,4.24L471.44,98.52C470.8,97.74,470.15,97,469.51,96.21Z"/><path class="cls-2" d="M480,109.49,303.3,286.17c1,.45,1.94.9,2.91,1.33L481.76,112C481.17,111.13,480.58,110.3,480,109.49Z"/><path class="cls-2" d="M498.31,138.67,337.71,299.28c1.09.33,2.18.66,3.27,1L499.77,141.46C499.28,140.53,498.8,139.59,498.31,138.67Z"/><path class="cls-2" d="M489.59,123.64,320,293.22c1,.39,2.06.79,3.08,1.16L491.21,126.26C490.68,125.38,490.13,124.51,489.59,123.64Z"/><path class="cls-2" d="M512.93,171.57,376.61,307.9l3.74.5,133.7-133.71C513.69,173.64,513.31,172.61,512.93,171.57Z"/><path class="cls-2" d="M523.45,208.57,421.55,310.46c1.48,0,2.94-.09,4.4-.15l98.24-98.23C524,210.89,523.7,209.73,523.45,208.57Z"/><path class="cls-2" d="M529.27,250.27l-53.46,53.45c1.89-.42,3.73-.85,5.54-1.29l48.2-48.2C529.47,252.89,529.36,251.59,529.27,250.27Z"/><path class="cls-2" d="M506.11,154.64,356.51,304.23l3.5.75L507.4,157.59Z"/><path class="cls-2" d="M518.74,189.53,398.18,310.08l4,.21L519.67,192.83C519.37,191.72,519.05,190.62,518.74,189.53Z"/><path class="cls-2" d="M527,228.78,447.18,308.6c1.63-.19,3.26-.4,4.86-.62l75.47-75.47C527.35,231.25,527.17,230,527,228.78Z"/><path class="cls-2" d="M530.15,273.14,509.2,294.09q3.7-1.33,6.8-2.55l14.18-14.18C530.18,275.94,530.16,274.55,530.15,273.14Z"/><g id="Path_678" data-name="Path 678"><path class="cls-3" d="M303.73,251.69s108-56.72,228.54,0c0,0,18.8,135.87-114.27,234.74C418,486.43,299,426.32,303.73,251.69Z"/></g><g id="TECHNOLOGY" class="cls-4"><g class="cls-4"><path class="cls-5" d="M77.62,229.07H71.06v16.47H68V229.07H61.41V226.4H77.62Z"/><path class="cls-5" d="M95.6,242.87v2.67H81.33V226.4H95.19v2.67H84.43v5.51h8.41v2.61H84.43v5.68Z"/><path class="cls-5" d="M112.32,244.44a8.81,8.81,0,0,1-4.95,1.39,9.31,9.31,0,0,1-4.78-1.19,7.82,7.82,0,0,1-3.13-3.42,13,13,0,0,1,0-10.5,7.82,7.82,0,0,1,3.13-3.42,9.16,9.16,0,0,1,4.75-1.19,9.06,9.06,0,0,1,4.83,1.19,6.68,6.68,0,0,1,2.83,3.51l-2.93,1.3a5,5,0,0,0-1.68-2.51,4.8,4.8,0,0,0-2.87-.8,5.39,5.39,0,0,0-4.31,1.9A7.94,7.94,0,0,0,101.6,236a8.12,8.12,0,0,0,1.54,5.28,5.2,5.2,0,0,0,4.26,1.88,4.8,4.8,0,0,0,4.93-3.65l3,1A7.49,7.49,0,0,1,112.32,244.44Z"/><path class="cls-5" d="M135,226.4v19.14h-3.13v-8.35h-9.45v8.35h-3.11V226.4h3.11v8.12h9.45V226.4Z"/><path class="cls-5" d="M156.29,245.54h-3.68l-7.39-12.07-1.86-3.53h0l.12,3.24v12.36h-2.84V226.4h3.65l7.37,12,1.88,3.57h0l-.12-3.25V226.4h2.87Z"/><path class="cls-5" d="M174.7,227.3a7.84,7.84,0,0,1,3.14,3.42,13.08,13.08,0,0,1,0,10.5,7.84,7.84,0,0,1-3.14,3.42,9.44,9.44,0,0,1-4.8,1.19,9.33,9.33,0,0,1-4.79-1.19,7.88,7.88,0,0,1-3.13-3.42,13.08,13.08,0,0,1,0-10.5,7.88,7.88,0,0,1,3.13-3.42,9.23,9.23,0,0,1,4.79-1.19A9.34,9.34,0,0,1,174.7,227.3Zm-9,3.39a9.88,9.88,0,0,0,0,10.56,5.74,5.74,0,0,0,8.5,0,9.82,9.82,0,0,0,0-10.56,5.72,5.72,0,0,0-8.5,0Z"/><path class="cls-5" d="M197.21,242.87v2.67H183.55V226.4h3.11v16.47Z"/><path class="cls-5" d="M213,227.3a7.8,7.8,0,0,1,3.15,3.42,13.08,13.08,0,0,1,0,10.5,7.8,7.8,0,0,1-3.15,3.42,10.24,10.24,0,0,1-9.58,0,7.88,7.88,0,0,1-3.13-3.42,13.08,13.08,0,0,1,0-10.5,7.88,7.88,0,0,1,3.13-3.42,10.24,10.24,0,0,1,9.58,0Zm-9,3.39a9.82,9.82,0,0,0,0,10.56,5.74,5.74,0,0,0,8.5,0,9.82,9.82,0,0,0,0-10.56,5.72,5.72,0,0,0-8.5,0Z"/><path class="cls-5" d="M237.9,235.65v9.89h-2.29l-.09-2.44a5.58,5.58,0,0,1-2.32,2,8.11,8.11,0,0,1-3.53.71,9,9,0,0,1-4.67-1.19,8,8,0,0,1-3.11-3.41,11.76,11.76,0,0,1-1.1-5.26,11.47,11.47,0,0,1,1.13-5.24,8.18,8.18,0,0,1,3.19-3.42,9.33,9.33,0,0,1,4.79-1.2,9.72,9.72,0,0,1,4.87,1.1,7.65,7.65,0,0,1,3,3.42L234.94,232a4.36,4.36,0,0,0-1.85-2.38,5.84,5.84,0,0,0-3.13-.82,5.38,5.38,0,0,0-4.33,1.89A8,8,0,0,0,224,236a8.26,8.26,0,0,0,1.52,5.32,5.4,5.4,0,0,0,4.45,1.87,5.83,5.83,0,0,0,3.72-1.13,4,4,0,0,0,1.42-3.28v-.55h-5.86v-2.55Z"/><path class="cls-5" d="M249.73,238.2v7.34h-3.1V238.2l-6.81-11.8h3.45l3.42,6.15,1.51,2.87,1.51-2.87,3.39-6.15h3.48Z"/></g></g><g id="PHYSICAL" class="cls-4"><g class="cls-4"><path class="cls-5" d="M360.27,666.31a5.34,5.34,0,0,1,1.75,4.23,5.29,5.29,0,0,1-1.75,4.21,6.94,6.94,0,0,1-4.74,1.53h-4.12v7h-3V664.77h7.12A6.9,6.9,0,0,1,360.27,666.31ZM358,672.93a2.92,2.92,0,0,0,1-2.39c0-2.15-1.28-3.22-3.86-3.22h-3.64v6.41h3.64A4.45,4.45,0,0,0,358,672.93Z"/><path class="cls-5" d="M381.12,664.77v18.48h-3v-8.07H369v8.07h-3V664.77h3v7.84h9.12v-7.84Z"/><path class="cls-5" d="M393.69,676.17v7.08h-3v-7.08l-6.58-11.4h3.34l3.3,5.94,1.46,2.77,1.45-2.77,3.28-5.94h3.36Z"/><path class="cls-5" d="M413.19,665.41a7.89,7.89,0,0,1,3,2.83l-2.27,2a5.54,5.54,0,0,0-2-2.44,5.67,5.67,0,0,0-3.13-.76,5.08,5.08,0,0,0-3,.77,2.35,2.35,0,0,0-1.06,2,2,2,0,0,0,1,1.78,11.41,11.41,0,0,0,3.7,1.13,16.94,16.94,0,0,1,4,1.13,5,5,0,0,1,2.14,1.71,4.51,4.51,0,0,1,.67,2.54,4.59,4.59,0,0,1-.92,2.85,5.85,5.85,0,0,1-2.59,1.89,10.39,10.39,0,0,1-3.85.66q-5.62,0-7.95-3.75l2.1-2.1a5.82,5.82,0,0,0,2.31,2.46,7.18,7.18,0,0,0,3.51.78,6,6,0,0,0,3.12-.68,2.16,2.16,0,0,0,1.14-2,1.84,1.84,0,0,0-1-1.62,11.64,11.64,0,0,0-3.57-1.09,17.4,17.4,0,0,1-4.06-1.18,5.16,5.16,0,0,1-2.2-1.73,4.49,4.49,0,0,1-.69-2.52,5,5,0,0,1,.87-2.86,5.85,5.85,0,0,1,2.51-2,8.92,8.92,0,0,1,3.82-.76A9.51,9.51,0,0,1,413.19,665.41Z"/><path class="cls-5" d="M423.51,683.25h-3V664.77h3Z"/><path class="cls-5" d="M441.44,682.18a8.4,8.4,0,0,1-4.77,1.35,9,9,0,0,1-4.62-1.15,7.56,7.56,0,0,1-3-3.3,12.55,12.55,0,0,1,0-10.14,7.51,7.51,0,0,1,3-3.3,8.89,8.89,0,0,1,4.59-1.15,8.77,8.77,0,0,1,4.66,1.15A6.44,6.44,0,0,1,444,669l-2.82,1.26a4.82,4.82,0,0,0-1.63-2.43,4.63,4.63,0,0,0-2.77-.77,5.19,5.19,0,0,0-4.16,1.84A7.63,7.63,0,0,0,431.1,674a7.88,7.88,0,0,0,1.48,5.1,5,5,0,0,0,4.12,1.81,4.93,4.93,0,0,0,3-.89,5,5,0,0,0,1.75-2.63l2.85,1A7.13,7.13,0,0,1,441.44,682.18Z"/><path class="cls-5" d="M458.59,678.41h-7.78l-1.76,4.84H446l7-18.48h3.58l7,18.48h-3.16ZM457.7,676,455.57,670l-.84-2.66h-.08l-.79,2.61-2.18,6Z"/><path class="cls-5" d="M480,680.67v2.58H466.77V664.77h3v15.9Z"/></g></g><g id="PEOPLE" class="cls-4"><g class="cls-4"><path class="cls-5" d="M627.65,227.12a6.19,6.19,0,0,1,0,8.75,7.25,7.25,0,0,1-4.92,1.58h-4.26v7.22h-3.1V225.53h7.36A7.21,7.21,0,0,1,627.65,227.12ZM625.26,234a3.07,3.07,0,0,0,1-2.48q0-3.33-4-3.33h-3.77v6.64h3.77A4.65,4.65,0,0,0,625.26,234Z"/><path class="cls-5" d="M647.82,242v2.67H633.55V225.53h13.86v2.67H636.65v5.51h8.41v2.61h-8.41V242Z"/><path class="cls-5" d="M664.39,226.43a7.86,7.86,0,0,1,3.15,3.42,13.08,13.08,0,0,1,0,10.5,7.86,7.86,0,0,1-3.15,3.42,10.24,10.24,0,0,1-9.58,0,7.88,7.88,0,0,1-3.13-3.42,13,13,0,0,1,0-10.5,7.88,7.88,0,0,1,3.13-3.42,10.24,10.24,0,0,1,9.58,0Zm-9,3.39a9.82,9.82,0,0,0,0,10.56,5.16,5.16,0,0,0,4.23,1.88,5.23,5.23,0,0,0,4.27-1.88,9.88,9.88,0,0,0,0-10.56,5.2,5.2,0,0,0-4.27-1.88A5.14,5.14,0,0,0,655.36,229.82Z"/><path class="cls-5" d="M685.53,227.12a6.17,6.17,0,0,1,0,8.75,7.21,7.21,0,0,1-4.91,1.58h-4.26v7.22h-3.11V225.53h7.37A7.16,7.16,0,0,1,685.53,227.12ZM683.14,234a3,3,0,0,0,1-2.48c0-2.22-1.34-3.33-4-3.33h-3.77v6.64h3.77A4.62,4.62,0,0,0,683.14,234Z"/><path class="cls-5" d="M705.09,242v2.67H691.44V225.53h3.1V242Z"/><path class="cls-5" d="M723.07,242v2.67H708.81V225.53h13.86v2.67H711.91v5.51h8.41v2.61h-8.41V242Z"/></g></g><g id="Red_Teaming" data-name="Red Teaming" class="cls-4"><g class="cls-4"><path class="cls-6" d="M392.19,307.54h-3.3v7.71h-5.41V294.13h10.08a9,9,0,0,1,5.91,1.73,6.16,6.16,0,0,1,2.06,5,6.63,6.63,0,0,1-1,3.84A6.14,6.14,0,0,1,397.4,307l5.38,8.29H396.7Zm-3.3-3.9h3.75a4.17,4.17,0,0,0,2.56-.64A2.48,2.48,0,0,0,396,301a2.45,2.45,0,0,0-.8-2,4.17,4.17,0,0,0-2.56-.64h-3.75Z"/><path class="cls-6" d="M420.35,308.82H409.44a3.5,3.5,0,0,0,1.1,2.21,3.43,3.43,0,0,0,2.26.7,3.73,3.73,0,0,0,1.93-.45,2.16,2.16,0,0,0,1-1.31l4.42,1.41a5.37,5.37,0,0,1-2.61,3.12,9.75,9.75,0,0,1-4.75,1.07q-4.2,0-6.42-2.17a8.22,8.22,0,0,1-2.22-6.15,7.57,7.57,0,0,1,8.35-8.32,7.87,7.87,0,0,1,5.93,2.13,8.21,8.21,0,0,1,2.07,6A8.11,8.11,0,0,1,420.35,308.82Zm-11-2.94h6q-.39-3.13-2.94-3.14T409.4,305.88Z"/><path class="cls-6" d="M439.77,292.47v22.78h-4.89l-.2-3a5.49,5.49,0,0,1-5.21,3.36,5.86,5.86,0,0,1-4.85-2.17,9.5,9.5,0,0,1-1.74-6.08,9.63,9.63,0,0,1,1.76-6.18,5.87,5.87,0,0,1,4.86-2.21,5.2,5.2,0,0,1,2.91.8,5.6,5.6,0,0,1,1.92,2.21v-9.47Zm-6.32,18.16a4.58,4.58,0,0,0,.88-2.74v-1.28a4.61,4.61,0,0,0-.88-2.72,2.56,2.56,0,0,0-2.09-1,2.6,2.6,0,0,0-2.23,1.06,5.49,5.49,0,0,0-.78,3.26,5.55,5.55,0,0,0,.78,3.27,2.62,2.62,0,0,0,2.23,1.05A2.57,2.57,0,0,0,433.45,310.63Z"/></g><g class="cls-4"><path class="cls-6" d="M365.24,337.39h-6.88v16.86h-5.5V337.39H346v-4.26h19.29Z"/><path class="cls-6" d="M380.48,347.82H369.56a3.51,3.51,0,0,0,1.11,2.21,3.38,3.38,0,0,0,2.25.7,3.74,3.74,0,0,0,1.94-.45,2.16,2.16,0,0,0,1-1.31l4.41,1.41a5.31,5.31,0,0,1-2.6,3.12,9.79,9.79,0,0,1-4.76,1.07q-4.19,0-6.41-2.17a8.22,8.22,0,0,1-2.23-6.15,7.59,7.59,0,0,1,8.36-8.32,7.87,7.87,0,0,1,5.93,2.13,8.21,8.21,0,0,1,2.07,6A8.77,8.77,0,0,1,380.48,347.82Zm-11-2.94h6q-.39-3.13-2.95-3.14C370.88,341.74,369.85,342.79,369.53,344.88Z"/><path class="cls-6" d="M400.12,351l-.41,3a4.47,4.47,0,0,1-2.18.51q-3.45,0-4.13-2.46-1.44,2.46-5.69,2.46a5.78,5.78,0,0,1-3.68-1,3.57,3.57,0,0,1-1.28-3,4.17,4.17,0,0,1,1.45-3.31,10.65,10.65,0,0,1,4.79-1.94l3.61-.7V344a2.4,2.4,0,0,0-.6-1.72,2.19,2.19,0,0,0-1.67-.64,3.23,3.23,0,0,0-2,.57,2.84,2.84,0,0,0-1,1.89l-4.42-1.28a5.34,5.34,0,0,1,2.3-3.63,8.82,8.82,0,0,1,5.09-1.3,9,9,0,0,1,5.7,1.54,5.5,5.5,0,0,1,2,4.61v5.82c0,.83.38,1.25,1.15,1.25A3,3,0,0,0,400.12,351Zm-8.41-.59a1.94,1.94,0,0,0,.89-1.65V347.4L390,348a3.53,3.53,0,0,0-1.45.63,1.28,1.28,0,0,0-.44,1,1.26,1.26,0,0,0,.42,1,1.75,1.75,0,0,0,1.15.35A3.5,3.5,0,0,0,391.71,350.43Z"/><path class="cls-6" d="M427.05,339.4a5.6,5.6,0,0,1,1.52,4.2v10.65h-5.44v-9.41c0-1.83-.72-2.75-2.17-2.75a2.51,2.51,0,0,0-2,.93,4.15,4.15,0,0,0-.77,2.69v8.54H412.7v-9.41c0-1.83-.73-2.75-2.18-2.75a2.53,2.53,0,0,0-2,.93,4.14,4.14,0,0,0-.8,2.78v8.45h-5.44v-16h4.86l.16,3.07a5.64,5.64,0,0,1,2.15-2.52,6.41,6.41,0,0,1,6.38,0,4.61,4.61,0,0,1,1.9,2.4,5.63,5.63,0,0,1,2.2-2.4,6.21,6.21,0,0,1,3.18-.83A5.44,5.44,0,0,1,427.05,339.4Z"/><path class="cls-6" d="M432.68,335.77a2.41,2.41,0,0,1-.75-2,2.47,2.47,0,0,1,.75-2,5,5,0,0,1,4.84,0,2.47,2.47,0,0,1,.75,2,2.41,2.41,0,0,1-.75,2,5,5,0,0,1-4.84,0Zm5.14,18.48h-5.44v-16h5.44Z"/><path class="cls-6" d="M456.22,339.4a5.63,5.63,0,0,1,1.5,4.2v10.65h-5.44V345.1a3.53,3.53,0,0,0-.59-2.32,2.08,2.08,0,0,0-1.68-.69,2.66,2.66,0,0,0-2.08.91,4.2,4.2,0,0,0-.8,2.8v8.45h-5.44v-16h4.86l.16,3.07a5.59,5.59,0,0,1,2.18-2.54,6.24,6.24,0,0,1,3.3-.85A5.52,5.52,0,0,1,456.22,339.4Z"/><path class="cls-6" d="M476,351.92a4.31,4.31,0,0,1,1.52,3.58,4.63,4.63,0,0,1-2.42,4.18,12.7,12.7,0,0,1-6.57,1.45,14.69,14.69,0,0,1-6.2-1,3.06,3.06,0,0,1-2-2.78,2.66,2.66,0,0,1,.74-1.86,4.29,4.29,0,0,1,2.24-1.15,3.5,3.5,0,0,1-2.46-3.33,3,3,0,0,1,.7-2,4.05,4.05,0,0,1,1.92-1.28,4.65,4.65,0,0,1-2.62-4.39,4.59,4.59,0,0,1,2.05-4,10,10,0,0,1,5.75-1.43,14,14,0,0,1,3.2.35,6,6,0,0,1,1.44-3.13,4,4,0,0,1,3.11-1.22l.51,0,.61,3.62q-.64-.06-.9-.06a3.79,3.79,0,0,0-1.81.38,2.37,2.37,0,0,0-1,1.06,4.64,4.64,0,0,1,2.69,4.41,4.56,4.56,0,0,1-2.05,4,10,10,0,0,1-5.76,1.41,14.9,14.9,0,0,1-3.07-.29,1.12,1.12,0,0,0-1,1.12c0,.73.56,1.09,1.66,1.09h5.44A6.76,6.76,0,0,1,476,351.92Zm-3.87,5.26c.73-.29,1.1-.67,1.1-1.14a.82.82,0,0,0-.45-.76,3.09,3.09,0,0,0-1.5-.26h-4.38a4.71,4.71,0,0,0-1.88.27.9.9,0,0,0-.56.85c0,1,1.49,1.47,4.45,1.47A9.23,9.23,0,0,0,472.11,357.18Zm-5.19-15.5a2.27,2.27,0,0,0-.65,1.69,2.21,2.21,0,0,0,.65,1.68,2.65,2.65,0,0,0,3.43,0,2.21,2.21,0,0,0,.65-1.68,2.27,2.27,0,0,0-.65-1.69,2.62,2.62,0,0,0-3.43,0Z"/></g></g><path class="cls-6" d="M836,268.35A268.37,268.37,0,0,0,567.62,0h0A266.5,266.5,0,0,0,418,45.47,268.47,268.47,0,1,0,150.29,509.55a268.41,268.41,0,0,0,535.42,0A269,269,0,0,0,836,268.35Zm-828,0C8,124.82,124.82,8,268.4,8A258.89,258.89,0,0,1,410.81,50.5a271.2,271.2,0,0,0-33,28.11A266.38,266.38,0,0,0,299.88,249,269,269,0,0,0,149.6,490.19c0,3.34.08,6.68.2,10C65.68,457,8,369.3,8,268.4ZM678,504.19A259.92,259.92,0,0,1,425.19,486.3a272,272,0,0,0,33-28.11A266.61,266.61,0,0,0,536.81,268.4c0-3.34-.09-6.68-.21-10,84.12,43.22,141.8,130.89,141.8,231.79Q678.4,497.24,678,504.19ZM528.81,268.4c0,88-43.84,165.85-110.81,213-67-47.16-110.81-125.06-110.81-213,0-4.7.14-9.37.38-14a260.07,260.07,0,0,1,220.86,0C528.67,259,528.81,263.7,528.81,268.4ZM157.6,490.19c0-100.9,57.68-188.57,141.8-231.79-.13,3.32-.21,6.66-.21,10a266.63,266.63,0,0,0,78.62,189.79,272,272,0,0,0,33,28.11A259.89,259.89,0,0,1,158,504.2Q157.6,497.24,157.6,490.19ZM418,221.79a267.56,267.56,0,0,0-109.75,23.32A260.47,260.47,0,0,1,418,55.38,260.5,260.5,0,0,1,527.75,245.1,267.72,267.72,0,0,0,418,221.79Zm0,528.8c-135.73,0-247.52-104.39-259.35-237.1A269.25,269.25,0,0,0,418,491.33a269.28,269.28,0,0,0,259.35,22.15C665.53,646.19,553.74,750.59,418,750.59ZM686.2,500.18c.12-3.32.2-6.65.2-10A269,269,0,0,0,536.12,249,266.45,266.45,0,0,0,458.19,78.61a272,272,0,0,0-33-28.11A258.88,258.88,0,0,1,567.59,8h0C711.18,8,828,124.79,828,268.4,828,369.29,770.31,457,686.2,500.18Z"/><g id="Group_762" data-name="Group 762"><g id="Ellipse_54" data-name="Ellipse 54"><path class="cls-7" d="M173.82,162.19a8.7,8.7,0,1,1,8.7-8.7A8.71,8.71,0,0,1,173.82,162.19Zm0-14.4a5.7,5.7,0,1,0,5.7,5.7A5.7,5.7,0,0,0,173.82,147.79Z"/></g><g id="Path_679" data-name="Path 679"><path class="cls-8" d="M178.44,198.52h-9.8a3,3,0,0,1-3-3v-5.48a36.87,36.87,0,0,1-12.36-5.21l-3.87,3.85a3,3,0,0,1-2.11.87h0a3,3,0,0,1-2.11-.87l-6.93-6.93a3,3,0,0,1,0-4.22l3.94-3.94a36.87,36.87,0,0,1-5.06-12.37h-5.52a3,3,0,0,1-3-3v-9.8a3,3,0,0,1,3-3h5.6a36.9,36.9,0,0,1,5.13-12.34l-3.88-3.89a3,3,0,0,1,0-4.22l6.93-6.93a3,3,0,0,1,4.22,0l3.91,3.91a36.64,36.64,0,0,1,12.39-5.14v-5.41a3,3,0,0,1,3-3h9.8a3,3,0,0,1,3,3v5.42A36.77,36.77,0,0,1,194.19,122l3.75-3.74a3,3,0,0,1,4.22,0l6.93,6.93a3,3,0,0,1,0,4.22l-3.77,3.77a36.71,36.71,0,0,1,5.18,12.54h5.23a3,3,0,0,1,3,3v9.79h0a3,3,0,0,1-3,3h-5.31A36.54,36.54,0,0,1,205.17,174l3.71,3.72a3,3,0,0,1,0,4.23L202,188.9a3,3,0,0,1-4.22,0l-3.8-3.8a36.85,36.85,0,0,1-12.51,5.09v5.34A3,3,0,0,1,178.44,198.52Zm-25.16-16.69a3,3,0,0,1,1.67.51,34.34,34.34,0,0,0,11.35,4.8,3,3,0,0,1,2.35,2.89v5.5h9.79l0-5.35a3,3,0,0,1,2.41-2.92,34,34,0,0,0,11.5-4.67,3,3,0,0,1,3.72.39l3.8,3.81,6.91-6.94-3.72-3.7a3,3,0,0,1-.37-3.78,34,34,0,0,0,4.83-11.48,3,3,0,0,1,2.91-2.37h5.3v-9.78l-5.23,0a3,3,0,0,1-2.92-2.41,34.18,34.18,0,0,0-4.74-11.52,3,3,0,0,1,.37-3.73l3.78-3.78-6.93-6.9-3.74,3.75a3,3,0,0,1-3.76.37,34.21,34.21,0,0,0-11.45-4.75,3,3,0,0,1-2.38-2.91v-5.43l-9.79,0,0,5.4a3,3,0,0,1-2.39,2.92,34.1,34.1,0,0,0-11.39,4.72,3,3,0,0,1-3.74-.38l-3.91-3.92-6.91,6.93,3.9,3.88a3,3,0,0,1,.37,3.76,34,34,0,0,0-4.72,11.32,3,3,0,0,1-2.91,2.37h-5.61l0,9.78,5.52,0a3,3,0,0,1,2.92,2.41A34.07,34.07,0,0,0,144.73,172a3,3,0,0,1-.39,3.72l-4,3.95,6.93,6.91,3.85-3.87A3,3,0,0,1,153.28,181.83Zm63.93-23.3h0Z"/></g></g><g id="Group_766" data-name="Group 766"><g id="Path_682" data-name="Path 682"><path class="cls-7" d="M658.27,209.27c-.71,0-3.47-1.4-5.35-3.7a9.88,9.88,0,0,1-2-8.47,1.51,1.51,0,0,1,1.47-1.21h10.37a1.5,1.5,0,0,1,1.47,1.21c.6,3,.26,9.26-5.24,12A1.57,1.57,0,0,1,658.27,209.27Zm-4.61-10.38c-.22,4.2,3.13,6.43,4.55,7.19,3-1.89,3.24-5.36,3.16-7.19Z"/></g><path class="cls-8" d="M722.27,178.67c-5-4.84-12.11-5.78-15.1-6v-2a9,9,0,0,0,7.55-8.85v-15a9,9,0,0,0-9-9h-7.2a9,9,0,0,0-9,9v15a9,9,0,0,0,7.55,8.85v2c-3.29.21-11.12,1.34-16,7.09a33.59,33.59,0,0,0-4.86-.63v-2.63a10,10,0,0,0,8.59-9.89V149.58a10,10,0,0,0-10-10h-8.19a10,10,0,0,0-10,10v17.08a10,10,0,0,0,8.59,9.89v2.64a31.58,31.58,0,0,0-5,.68c-4.93-5.81-12.79-6.94-16.1-7.15v-2a9,9,0,0,0,7.56-8.85v-15a9,9,0,0,0-9-9h-7.2a9,9,0,0,0-9,9v15a9,9,0,0,0,7.55,8.85v2c-3,.18-10.09,1.12-15.1,6-3.38,3.27-5.13,7.66-5.21,13.06a1.5,1.5,0,0,0,1.48,1.52h0a1.49,1.49,0,0,0,1.5-1.48c.07-4.56,1.51-8.24,4.28-10.93,4.17-4,10.34-4.92,13-5.12v1.45a1.5,1.5,0,0,0,3,0v-6.32h4v6.32a1.5,1.5,0,0,0,3,0v-1.44c2.74.22,8.71,1.13,12.81,5a23.18,23.18,0,0,0-8.85,5.16c-3.8,3.68-5.77,8.63-5.86,14.72a1.5,1.5,0,0,0,1.48,1.52h0a1.5,1.5,0,0,0,1.5-1.48c.07-5.25,1.73-9.49,4.93-12.59,4.83-4.67,12-5.67,15-5.88v1.85a1.5,1.5,0,0,0,3,0v-7.39h5v7.39a1.5,1.5,0,0,0,3,0v-1.86c3,.19,10.27,1.14,15.18,5.89,3.2,3.1,4.86,7.34,4.93,12.59a1.5,1.5,0,0,0,1.5,1.48h0a1.5,1.5,0,0,0,1.48-1.52c-.08-6.09-2.06-11-5.86-14.72a23.38,23.38,0,0,0-9.07-5.23c4.1-3.83,10-4.73,12.73-4.94v1.43a1.5,1.5,0,0,0,3,0v-6.32h4v6.32a1.5,1.5,0,0,0,3,0v-1.45c2.7.2,8.87,1.08,13,5.12,2.78,2.69,4.22,6.37,4.29,10.93a1.49,1.49,0,0,0,1.5,1.48h0a1.5,1.5,0,0,0,1.48-1.52C727.41,186.33,725.66,181.93,722.27,178.67Zm-79.54-10.82h-7.2a6,6,0,0,1-6-6v-15a6,6,0,0,1,6-6h7.2a6,6,0,0,1,6,6v15A6,6,0,0,1,642.73,167.85Zm32.08,5.81h-8.19a7,7,0,0,1-7-7V149.58a7,7,0,0,1,7-7h8.19a7,7,0,0,1,7,7v17.08A7,7,0,0,1,674.81,173.66Zm30.94-5.81h-7.2a6,6,0,0,1-6-6v-15a6,6,0,0,1,6-6h7.2a6,6,0,0,1,6,6v15A6,6,0,0,1,705.75,167.85Z"/></g><g id="Group_768" data-name="Group 768"><g id="Group_767" data-name="Group 767"><g id="Rectangle_70" data-name="Rectangle 70"><path class="cls-7" d="M447.12,639.39H385.9a2.88,2.88,0,0,1-2.88-2.88V602.07a2.89,2.89,0,0,1,2.88-2.89h61.22a2.89,2.89,0,0,1,2.88,2.89v34.44A2.88,2.88,0,0,1,447.12,639.39Zm-61.1-3h61V602.18H386Z"/></g></g><g id="Line_409" data-name="Line 409"><rect class="cls-7" x="384.52" y="641.98" width="62.87" height="3"/></g><path class="cls-8" d="M465.52,621.67c-1.89-7.59-17.95-33.34-20.1-34.83a14.07,14.07,0,0,0-2.07-1.13L446,569.55h0a1.49,1.49,0,0,0,.8-1.08c.93-5.19-3.9-20-12.49-29.9-5.37-6.18-11.44-9.39-17.45-9.22a1,1,0,0,0-.3,0,1.31,1.31,0,0,0-.54,0c-9.29,1.22-16.26,8.34-20.5,14.13-6.63,9-10.85,20.85-10.07,25a1.26,1.26,0,0,0,.13.37l2.84,17a1.42,1.42,0,0,0,.2.53l-.65.27c-2.51,1.12-18.3,29.13-20.36,36.11a1.51,1.51,0,0,0,.5,1.59c.59.47,2.18,1.92,4,3.59,4.39,4,7.85,7.08,9.09,7.86a1.52,1.52,0,0,0,2.07-.49,1.5,1.5,0,0,0-.49-2.06c-1.11-.69-5.65-4.81-8.66-7.54-1.38-1.25-2.55-2.31-3.35-3,3-8.64,16.65-31.23,18.59-33.38,4.51-1.92,20.07-6.67,20.22-6.72a.59.59,0,0,0,.14-.06,12.67,12.67,0,0,0,14.37.21c4.86,1.22,16.56,4.45,19.47,6.47,1.73,1.55,16.11,24.4,18.71,32.29-.93.89-2.41,2.44-4.45,4.58-2.56,2.69-6.43,6.75-7.28,7.28a1.5,1.5,0,0,0,1.58,2.55c1.09-.68,3.83-3.51,7.87-7.76,2.12-2.22,4.3-4.52,4.91-5A1.49,1.49,0,0,0,465.52,621.67ZM398,545.28c3.91-5.35,10.32-11.93,18.63-12.94h.17c6.54-.28,11.94,4.31,15.31,8.18,7.23,8.32,11.5,20.31,11.85,25.71-1.25-.32-3.18-.73-5.87-1.15a1.42,1.42,0,0,0-.71-.19,1.73,1.73,0,0,0-.32,0,175.93,175.93,0,0,0-20.34-1.58h-.25c-5.88.16-11.35.51-16.23,1a77.84,77.84,0,0,0-11.76,1.9C389,562.16,392.28,553.1,398,545.28Zm4.86,22.52-.21-.64q3.94-.37,8.28-.6c-2.71,1-6.45,2.32-7.83,1.44A.88.88,0,0,1,402.87,567.8Zm27.9.06c-1.49.81-4.64-.26-7.33-1.24,3,.17,5.65.39,8,.63A1.63,1.63,0,0,1,430.77,567.86Zm-39.32,17.53-2.69-16.08a74.64,74.64,0,0,1,7.86-1.51,7.15,7.15,0,0,0,4.08,2.78,27.92,27.92,0,0,0,6.3,9.75C403.61,581.38,396.26,583.68,391.45,585.39Zm12.81-14.12h.17c2.64,0,5.82-1.23,8.54-2.28a21,21,0,0,1,3.57-1.2c1.1-.1,3.25.67,5.31,1.43,2.83,1,5.74,2.11,8.2,1.89-3.08,6.55-8,10.8-12.92,10.8S407.34,577.8,404.26,571.27Zm29.24-.55c1.69-.1,4.1-.56,5-2.53,2,.34,3.52.66,4.55.91l-2.57,15.44c-4.32-1.61-10-3.19-13.35-4.08A27.59,27.59,0,0,0,433.5,570.72Z"/></g></svg>