<?xml version="1.0" encoding="utf-8"?>
<!-- Generator: Adobe Illustrator 23.0.3, SVG Export Plug-In . SVG Version: 6.00 Build 0)  -->
<svg version="1.1" id="Warstwa_1" xmlns="http://www.w3.org/2000/svg" xmlns:xlink="http://www.w3.org/1999/xlink" x="0px" y="0px"
	 width="493.5px" height="394.1px" viewBox="0 0 493.5 394.1" style="enable-background:new 0 0 493.5 394.1;" xml:space="preserve"
	>
<style type="text/css">
	.st0{fill:#F1F1F1;}
	.st1{fill:#B92A48;}
	.st2{fill:#10193E;}
	.st3{fill:#10183D;}
	.st4{fill:#FFFFFF;}
	.st5{fill:#B82A47;}
</style>
<g id="Group_625-2">
	<g id="Path_578-2">
		<path class="st0" d="M441.8,197.1c0,108.8-88.2,197.1-197.1,197.1S47.7,305.9,47.7,197.1S135.9,0,244.8,0S441.8,88.2,441.8,197.1"
			/>
	</g>
</g>
<g id="Line_56">
	<rect x="376.4" y="225.5" class="st1" width="69.5" height="3.5"/>
</g>
<g id="Group_449">
	<g id="Path_421">
		<path class="st1" d="M451.2,217.6h-74.8v-3.5h73.1v-13.8c0-1,0.8-1.8,1.8-1.8h33.5v3.5H453v13.8
			C453,216.8,452.2,217.6,451.2,217.6C451.2,217.6,451.2,217.6,451.2,217.6z"/>
	</g>
	<g id="Ellipse_18">
		<path class="st1" d="M488.2,205.6c-2.9,0-5.3-2.4-5.3-5.3c0-2.9,2.4-5.3,5.3-5.3c2.9,0,5.3,2.4,5.3,5.3
			C493.5,203.3,491.1,205.6,488.2,205.6z M488.2,198.6c-1,0-1.8,0.8-1.8,1.8c0,1,0.8,1.8,1.8,1.8c1,0,1.8-0.8,1.8-1.8
			C490,199.4,489.2,198.6,488.2,198.6C488.3,198.6,488.2,198.6,488.2,198.6L488.2,198.6z"/>
	</g>
</g>
<g id="Path_422">
	<path class="st2" d="M59,209.9H8.8v-3.5h48.4v-12.3c0-1,0.8-1.8,1.7-1.8c0,0,0,0,0,0h62.7v3.5h-61v12.3
		C60.7,209.1,60,209.9,59,209.9z"/>
</g>
<g id="Ellipse_20">
	<path class="st2" d="M5.3,213.4c-2.9,0-5.3-2.4-5.3-5.3c0-2.9,2.4-5.3,5.3-5.3s5.3,2.4,5.3,5.3l0,0C10.5,211,8.2,213.4,5.3,213.4z
		 M5.3,206.4c-1,0-1.8,0.8-1.8,1.7c0,1,0.8,1.8,1.7,1.8s1.8-0.8,1.8-1.7c0,0,0,0,0,0C7,207.2,6.2,206.4,5.3,206.4L5.3,206.4z"/>
</g>
<g id="Line_58">
	<rect x="92.7" y="173.9" class="st2" width="27.2" height="3.5"/>
</g>
<g id="Group_889">
	<g id="Path_831">
		<path class="st3" d="M234.8,318.1c-0.9,0-1.7-0.8-1.7-1.7V85.8c0-0.9,0.8-1.7,1.7-1.7c0.9,0,1.7,0.8,1.7,1.7v230.7
			C236.5,317.4,235.7,318.1,234.8,318.1z"/>
	</g>
</g>
<g id="Group_890">
	<g id="Path_832">
		<path class="st4" d="M286.1,150.8c-0.8-10.1,2.6-20.2,9.3-27.8l-60.6-37.2l0,0l0,0l0,0l0,0L141.7,143c0,0,27,151.5,93.2,173.4l0,0
			l0,0l0,0c43.4-14.4,70-84.6,83.1-131.2C300.6,182.6,287.4,168.3,286.1,150.8"/>
	</g>
</g>
<g id="Group_892">
	<g id="Path_834">
		<path class="st5" d="M323.8,187.4c-2,0-4.1-0.2-6.1-0.5l0.5-3.4c2.7,0.4,5.5,0.5,8.3,0.3c19.9-1.5,34.7-18.8,33.2-38.7
			c0,0,0,0,0,0v-0.1c-1.5-19.9-18.9-34.7-38.8-33.2c-9.4,0.7-18.1,5.1-24.3,12.1l-2.5-2.2c14.4-16.4,39.3-18,55.6-3.6
			c7.7,6.8,12.5,16.4,13.3,26.6v0.1c1.6,21.7-14.7,40.6-36.4,42.2C325.8,187.4,324.8,187.4,323.8,187.4z"/>
	</g>
</g>
<g id="Group_894">
	<g id="Path_836">
		<path class="st4" d="M404.7,191.8l-46.2-27.6l-3.2,5.4l46.2,27.7L404.7,191.8z"/>
	</g>
</g>
<path class="st3" d="M371.7,167.5l-1.2,2l-13-7.7l-5,8.2l13,7.7l-1.3,2.1L403,203l7.4-12.3L371.7,167.5z M357.2,168.9l1.5-2.5
	l10.1,6l-1.5,2.5L357.2,168.9z"/>
<path class="st3" d="M319.3,184.3c-0.3-0.4-0.7-0.7-1.1-0.8c-16.6-2.5-29.2-16.2-30.4-32.9l0,0c-0.7-9.7,2.5-19.2,8.9-26.5
	c0.3-0.4,0.5-0.9,0.4-1.4c-0.1-0.5-0.4-0.9-0.8-1.2l-60.5-37.1c0,0-0.1-0.1-0.1-0.1c-0.2-0.1-0.4-0.2-0.6-0.2h-0.3
	c-0.2,0-0.4,0.1-0.6,0.1l0,0l-0.2,0.1l-0.2,0.1l-93,57.1c-0.6,0.4-0.9,1.1-0.8,1.7c5.2,26.8,12.5,53.1,21.9,78.8
	c20.1,54.3,44.4,86.6,72.3,95.9l0,0c0.2,0.1,0.4,0.1,0.7,0.1h0.1h0.3l0.2-0.1h0.1h0.1c42.7-14.3,69.3-79.8,84-132.3
	C319.7,185.3,319.6,184.8,319.3,184.3z M143.4,143.9l89.6-55.1V314C173.2,291.2,146.1,157.6,143.4,143.9z M236.5,314.1V88.8
	l56.4,34.6c-13.5,17.1-10.7,41.9,6.3,55.4c4.8,3.8,10.5,6.5,16.6,7.7C303.8,228.5,278.1,298.2,236.5,314.1z"/>
<g id="Group_893">
	<g id="Path_835">
		<path class="st5" d="M323.8,187.4c-2.1,0-4.1-0.2-6.2-0.5c-21.5-3.4-36.2-23.5-32.9-45.1c1.6-10.3,7.3-19.6,15.7-25.8l2,2.7
			c-16.1,11.7-19.6,34.3-7.9,50.4c11.7,16.1,34.3,19.6,50.4,7.9l0,0c2.2-1.6,4.3-3.5,6.1-5.6c6.2-7.1,9.3-16.4,8.6-25.8l3.4-0.2
			c1.4,21.7-15.1,40.5-36.9,41.9C325.5,187.4,324.6,187.4,323.8,187.4L323.8,187.4z"/>
	</g>
</g>
</svg>
