<svg id="Warstwa_1" data-name="Warstwa 1" xmlns="http://www.w3.org/2000/svg" width="493.5" height="394.13" viewBox="0 0 493.5 394.13"><defs><style>.cls-1{fill:#f1f1f1;}.cls-2{fill:#10193e;}.cls-3{fill:#b92a48;}.cls-4{fill:#fff;}</style></defs><title>ikony CyberForces ksztalty</title><g id="Group_625-2" data-name="Group 625-2"><g id="Path_578-2" data-name="Path 578-2"><path class="cls-1" d="M441.81,197.07c0,108.83-88.22,197.06-197.06,197.06S47.68,305.9,47.68,197.07,135.91,0,244.75,0,441.81,88.23,441.81,197.07"/></g></g><g id="Path_700" data-name="Path 700"><path class="cls-2" d="M333.1,300.42l-1.85-3c2.33-1.45,11.31-10.88,18.53-18.45,5.09-5.34,9.57-10.05,11.85-12.14-5.76-19.92-44.17-79.91-47.52-82.42-9.5-6.6-50-16.69-50.41-16.79l.41-1.69V164.2c.27,0,41.88,10.33,52,17.37,4.61,3.2,44.6,67,49.2,85.47a1.78,1.78,0,0,1-.61,1.79c-1.62,1.28-6.85,6.77-12.38,12.58C342.65,291.56,335.61,298.86,333.1,300.42Z"/></g><g id="Path_701" data-name="Path 701"><path class="cls-2" d="M158.81,300.14c-3.18-2-13.78-11.58-22.3-19.3-4.61-4.19-8.6-7.8-10.11-9a1.76,1.76,0,0,1-.58-1.86c3.69-12.54,19-39.92,25.43-51.11.84-1.46,20.62-35.88,24.1-37.44,10.85-4.75,49.74-16.63,51.39-17.14l1,3.35c-.4.12-40,12.23-50.87,16.93-3.94,3.46-40.46,64-47.39,85.31,2,1.67,5.42,4.82,9.35,8.38,8,7.23,18.89,17.12,21.8,18.93Z"/></g><g id="Group_770" data-name="Group 770"><g id="Rectangle_71" data-name="Rectangle 71"><path class="cls-3" d="M319.82,320.66H170.88a6.85,6.85,0,0,1-6.85-6.85V231.48a6.86,6.86,0,0,1,6.85-6.85H319.82a6.86,6.86,0,0,1,6.84,6.85v82.33A6.85,6.85,0,0,1,319.82,320.66ZM170.88,228.13a3.35,3.35,0,0,0-3.35,3.35v82.33a3.35,3.35,0,0,0,3.35,3.35H319.82a3.35,3.35,0,0,0,3.34-3.35V231.48a3.35,3.35,0,0,0-3.34-3.35Z"/></g></g><g id="Line_412" data-name="Line 412"><rect class="cls-3" x="165.79" y="331.06" width="156.35" height="3.5"/></g><g id="Group_428" data-name="Group 428"><g id="Group_427" data-name="Group 427"><g id="Path_409" data-name="Path 409"><path class="cls-2" d="M247.4,246.94s-15,0-24.22,3.74c0,0,.79,38.58,24.22,47.05,23.43-8.47,24.21-47.05,24.21-47.05C262.56,246.94,247.4,246.94,247.4,246.94Z"/></g><g id="Path_410" data-name="Path 410"><path class="cls-4" d="M260.39,264.26,258,261.9a1.79,1.79,0,0,0-2.36,0l-9.25,9.25-5.52-5.51a1.3,1.3,0,0,0-1.85-.11l-.12.11-2.75,2.75a1.31,1.31,0,0,0-.11,1.86h0a.57.57,0,0,0,.11.11l6.69,6.7,2.36,2.36.2.2a1.32,1.32,0,0,0,1.86.11.57.57,0,0,0,.11-.11l.2-.2h0l12.8-12.8A1.78,1.78,0,0,0,260.39,264.26Z"/></g></g></g><g id="Group_773" data-name="Group 773"><g id="Line_56" data-name="Line 56"><rect class="cls-3" x="363.43" y="206.37" width="93.21" height="3.5"/></g><g id="Line_57" data-name="Line 57"><rect class="cls-3" x="363.43" y="191.59" width="58.62" height="3.5"/></g><g id="Group_449" data-name="Group 449"><g id="Path_421" data-name="Path 421"><path class="cls-3" d="M451.23,183.13H363.42v-3.5h86.06V165.86a1.75,1.75,0,0,1,1.75-1.75h33.5v3.5H453v13.77A1.75,1.75,0,0,1,451.23,183.13Z"/></g><g id="Ellipse_18" data-name="Ellipse 18"><path class="cls-3" d="M488.24,171.12a5.26,5.26,0,1,1,5.26-5.26A5.27,5.27,0,0,1,488.24,171.12Zm0-7a1.76,1.76,0,1,0,1.76,1.76A1.76,1.76,0,0,0,488.24,164.1Z"/></g></g><g id="Ellipse_19" data-name="Ellipse 19"><path class="cls-3" d="M460.14,213.38a5.26,5.26,0,1,1,5.26-5.26A5.27,5.27,0,0,1,460.14,213.38Zm0-7a1.76,1.76,0,1,0,1.76,1.76A1.76,1.76,0,0,0,460.14,206.36Z"/></g><g id="Path_422" data-name="Path 422"><path class="cls-2" d="M59,209.87H8.77v-3.5H57.21V194.11A1.75,1.75,0,0,1,59,192.36h77.72v3.5h-76v12.26A1.75,1.75,0,0,1,59,209.87Z"/></g><g id="Ellipse_20" data-name="Ellipse 20"><path class="cls-2" d="M5.26,213.38a5.26,5.26,0,1,1,5.26-5.26A5.27,5.27,0,0,1,5.26,213.38Zm0-7A1.76,1.76,0,1,0,7,208.12,1.76,1.76,0,0,0,5.26,206.36Z"/></g><g id="Line_58" data-name="Line 58"><rect class="cls-2" x="101.72" y="173.94" width="33.23" height="3.5"/></g></g><path class="cls-2" d="M245.89,173.22h-.78c-24.46,0-44.16-29.63-44.16-54.16h3.5c0,22.81,18.77,50.66,40.66,50.66h.78c21.9,0,40.66-27.85,40.66-50.66V84h3.5v35.09C290.05,143.59,270.35,173.22,245.89,173.22Z"/><circle class="cls-2" cx="228.35" cy="114.47" r="5.5"/><circle class="cls-2" cx="264.35" cy="114.47" r="5.5"/><rect class="cls-2" x="193.85" y="217.22" width="27" height="3.5"/><path class="cls-2" d="M204.35,122.72a7.26,7.26,0,0,1-7.25-7.25v-10a7.12,7.12,0,0,1,1.4-4.27l2.82,2.06a3.74,3.74,0,0,0-.72,2.21v10a3.76,3.76,0,0,0,3.75,3.75Z"/><path class="cls-2" d="M288.35,122.72v-3.5a3.75,3.75,0,0,0,3.75-3.75v-10a3.75,3.75,0,0,0-3.75-3.75v-3.5a7.26,7.26,0,0,1,7.25,7.25v10A7.26,7.26,0,0,1,288.35,122.72Z"/><path class="cls-2" d="M237.66,150.71a16.51,16.51,0,0,1-13.42-9.05l3.22-1.39a13,13,0,0,0,10.59,7Z"/><rect class="cls-2" x="241" y="130.72" width="9" height="3.5"/><path class="cls-4" d="M250.85,79s62,13,51-28c-9.55-35.62-62.81-32.16-60-4,1,10-40,7-42,26s2,40,2,40,3,6,5-6S203.85,68,250.85,79Z"/><path class="cls-2" d="M203.6,116.22a4,4,0,0,1-3.31-2.47,1.42,1.42,0,0,1-.16-.45c-.16-.87-4-21.47-2-40.51,1.27-12.09,16-16,27.91-19.09,7.06-1.85,14.37-3.77,14.09-6.55-1.17-11.67,6.75-20.79,20.15-23.24,16.7-3.06,37.55,5.23,43.28,26.61,2.69,10,1.41,17.88-3.79,23.38C286.39,88,252,81,250.49,80.68h0c-16-3.76-27.4-3.31-33.74,1.32s-7,13.06-7.56,19.81c-.15,2-.3,3.82-.57,5.45-1,5.93-2.36,8.6-4.57,8.93Zm-.08-3.86,0,0a18.68,18.68,0,0,0,1.58-5.73c.24-1.47.38-3.26.53-5.15.55-7.06,1.31-16.75,9-22.35,7.3-5.34,19.26-6,36.58-1.92.93.19,34.07,6.82,46-5.77,4.31-4.56,5.3-11.31,3-20.06C295,32.07,276.05,24.58,260.89,27.35,251.76,29,242.42,35,243.59,46.8c.58,5.76-7.42,7.86-16.68,10.29-11.39,3-24.3,6.38-25.32,16.06C199.77,90.51,203.06,109.81,203.52,112.36Z"/></svg>