<svg xmlns="http://www.w3.org/2000/svg" width="257" height="290" viewBox="0 0 257 290">
    <defs>
        <filter id="a" width="131.2%" height="151.9%" x="-15.6%" y="-26%" filterUnits="objectBoundingBox">
            <feGaussianBlur in="SourceGraphic" stdDeviation="9"/>
        </filter>
        <linearGradient id="b" x1="100%" x2="-.009%" y1="49.973%" y2="49.973%">
            <stop offset="0%" stop-color="#042FF8"/>
            <stop offset="100%" stop-color="#536DFE"/>
        </linearGradient>
        <linearGradient id="c" x1="-.038%" x2="99.972%" y1="49.95%" y2="49.95%">
            <stop offset="0%" stop-color="#536DFE"/>
            <stop offset="100%" stop-color="#A9B6FF"/>
        </linearGradient>
        <linearGradient id="d" x1="-.038%" x2="99.972%" y1="50.035%" y2="50.035%">
            <stop offset="48%" stop-color="#EEF0FF"/>
            <stop offset="100%" stop-color="#CBD3FF"/>
        </linearGradient>
        <filter id="e" width="137.2%" height="154.3%" x="-18.6%" y="-27.1%" filterUnits="objectBoundingBox">
            <feGaussianBlur in="SourceGraphic" stdDeviation="9"/>
        </filter>
    </defs>
    <g fill="none" fill-rule="evenodd">
        <path fill="#DDE2FF" fill-rule="nonzero" d="M144.457 178.03v26.01l16.811 9.708v-26.01z"/>
        <path fill="#8292C2" fill-opacity=".5" d="M49.465 228.008l106.009-61.198c2.035-1.167 5.335-1.167 7.36 0l55.628 32.111c.167.096.327.204.479.323.483.307.873.74 1.126 1.255l.315.651a5.227 5.227 0 0 1-2.09 6.814L112.465 269.04c-2.035 1.17-5.336 1.17-7.36 0L50.93 237.865a5.926 5.926 0 0 1-2.968-5.136v-2.035l.082-.048c-.275-.922.193-1.92 1.42-2.638z" filter="url(#a)" transform="matrix(-1 0 0 1 239.46 0)"/>
        <path fill="#FFF" fill-rule="nonzero" d="M191.497 208.395v-2.035L83.684 143.032c-2.036-1.167-4.41-1.882-6.428-.712L20.65 174.815c-.54.311-.973.776-1.245 1.336l-.315.652a5.23 5.23 0 0 0 2.089 6.817l105.83 61.076c2.034 1.167 5.335 1.167 7.36 0l54.16-31.162a5.935 5.935 0 0 0 2.967-5.139z"/>
        <path fill="#DDDFFC" fill-rule="nonzero" d="M189.994 207.927c2.036-1.167 2.036-3.08 0-4.25L83.986 142.479c-2.036-1.17-5.336-1.17-7.361 0l-55.628 32.109c-2.035 1.17-2.035 3.08 0 4.25l106.009 61.197c2.035 1.167 5.335 1.167 7.36 0l55.628-32.108z"/>
        <path fill="#978FF7" d="M130.686 240.15a6.818 6.818 0 0 1-3.3-.773l-106-61.197c-.722-.418-1.135-.953-1.135-1.466 0-.512.413-1.051 1.136-1.468l55.618-32.105a7.401 7.401 0 0 1 6.6 0l105.996 61.19c.722.418 1.14.954 1.14 1.47 0 .515-.418 1.047-1.14 1.468l-55.628 32.108a6.828 6.828 0 0 1-3.287.774z" opacity=".746"/>
        <path fill="#02187C" fill-rule="nonzero" d="M97.4 221.878L85.34 214.87l61.344-35.235 12.065 7.008z" opacity=".3"/>
        <path fill="#7671BE" fill-rule="nonzero" d="M113.835 229.592a.417.417 0 0 0 .047-.106c.125.03.256.01.367-.054l3.53-2.035a.509.509 0 0 0-.505-.882l-3.53 2.035a.492.492 0 0 0-.225.268l-3.392-1.967a.509.509 0 1 0-.508.878l3.517 2.036a.505.505 0 0 0 .258.067.502.502 0 0 0 .44-.24zm-7.039-4.091a.509.509 0 0 0-.183-.679l-3.52-2.035a.51.51 0 1 0-.51.882l3.518 2.035a.54.54 0 0 0 .255.068.509.509 0 0 0 .44-.271zm14.515-.122l3.527-2.035a.509.509 0 1 0-.505-.882l-3.531 2.035a.512.512 0 0 0 .254.953.54.54 0 0 0 .255-.071zm-16.282-3.769l3.531-2.035a.512.512 0 0 0-.509-.885l-3.527 2.035a.509.509 0 0 0 .502.885h.003zm23.344-.288l3.527-2.035a.51.51 0 1 0-.505-.885l-3.531 2.035a.509.509 0 0 0 .505.885h.004zm-16.282-3.765l3.531-2.035a.51.51 0 1 0-.508-.882l-3.528 2.035a.509.509 0 0 0 .254.95.516.516 0 0 0 .245-.068h.006zm23.344-.288l3.527-2.036a.509.509 0 1 0-.525-.861l-3.531 2.035a.509.509 0 0 0 .254.95.53.53 0 0 0 .268-.088h.007zm-16.282-3.765l3.528-2.036a.509.509 0 0 0-.505-.882l-3.531 2.036a.509.509 0 0 0-.187.678c.089.16.258.259.441.258a.54.54 0 0 0 .248-.054h.006zm23.34-.289l3.531-2.035a.51.51 0 1 0-.508-.882l-3.528 2.035a.51.51 0 0 0 .505.886v-.004zm-16.281-3.768l3.528-2.035a.51.51 0 0 0-.506-.886l-3.53 2.035a.509.509 0 0 0 .501.886h.007zm23.34-.289l3.531-2.035a.512.512 0 0 0-.509-.885l-3.527 2.035a.509.509 0 0 0 .498.885h.007zm-16.281-3.765l3.527-2.035a.509.509 0 1 0-.505-.882l-3.531 2.035a.509.509 0 0 0 .254.95.53.53 0 0 0 .248-.068h.007zm23.34-.288l3.53-2.035a.51.51 0 1 0-.508-.882l-3.528 2.035a.509.509 0 0 0 .255.95.516.516 0 0 0 .244-.068h.007zm-16.282-3.765l3.531-2.035a.51.51 0 0 0-.508-.882l-3.528 2.035a.509.509 0 0 0 .251.95.53.53 0 0 0 .248-.068h.006zm23.344-.288l3.527-2.036a.509.509 0 0 0-.505-.881l-3.53 2.035a.512.512 0 0 0 .253.953.54.54 0 0 0 .248-.071h.007zm-16.282-3.769l3.531-2.035a.51.51 0 0 0-.508-.882l-3.528 2.035a.509.509 0 0 0 .254.95.482.482 0 0 0 .241-.068h.01zm23.344-.288l1.428-.821-3.616-2.1a.509.509 0 1 0-.512.879l2.106 1.224a.509.509 0 0 0 .594.818zm-16.281-3.765l3.53-2.035a.512.512 0 0 0-.508-.886l-3.528 2.035a.509.509 0 0 0 .254.95.482.482 0 0 0 .238-.064h.014zm10.762-.506a.512.512 0 0 0-.183-.678l-3.52-2.035a.51.51 0 1 0-.513.882l3.52 2.035a.488.488 0 0 0 .255.071.509.509 0 0 0 .428-.275h.013z"/>
        <path fill="#F77070" fill-rule="nonzero" d="M88.327 214.223l-12.296-7.144 62.541-35.92 12.3 7.143z"/>
        <path fill="#DA5252" fill-rule="nonzero" d="M150.872 178.302v2.357l-62.579 36.182v-2.618zM76.031 207.08v2.357l12.262 7.404v-2.618z"/>
        <path fill="#02187C" fill-rule="nonzero" d="M79.077 183.166a6.879 6.879 0 0 0-5.23 0l-17.221 8.191c-1.442.679-1.442 1.812 0 2.504l17.235 8.283a6.862 6.862 0 0 0 5.223 0l17.123-8.243c1.438-.678 1.438-1.821 0-2.51l-17.13-8.225z" opacity=".234"/>
        <path fill="#7671BE" fill-rule="nonzero" d="M107.967 185.557l.458-.217a.51.51 0 0 0-.441-.92l-.458.221a6.312 6.312 0 0 1-3.212.42.512.512 0 1 0-.116 1.019c.312.035.626.053.94.054.974.016 1.939-.18 2.829-.577zm-7.028-1.22a.509.509 0 0 0-.238-.68l-3.67-1.763a.51.51 0 0 0-.44.92l3.67 1.76a.512.512 0 0 0 .678-.237zm11.152-.76l3.67-1.768a.509.509 0 0 0-.44-.916l-3.67 1.764a.509.509 0 1 0 .44.916v.003zm-18.49-2.765a.505.505 0 0 0-.24-.679l-3.667-1.763a.509.509 0 0 0-.44.915l3.666 1.764a.516.516 0 0 0 .682-.237zm25.84-.763l3.67-1.76a.51.51 0 1 0-.44-.92l-3.67 1.764a.509.509 0 0 0 .44.916zm-33.166-2.765a.505.505 0 0 0-.237-.678l-.513-.248c-.495-.237-.786-.532-.786-.79s.295-.556.793-.794h.017a.502.502 0 0 0 .23-.678.516.516 0 0 0-.678-.234c-1.193.566-1.356 1.312-1.356 1.696 0 .383.176 1.136 1.356 1.696l.513.247c.068.033.144.05.22.051a.502.502 0 0 0 .428-.268h.013zm39.747-1.282a.509.509 0 0 0 .434-.573c-.085-.604-.563-1.147-1.357-1.527l-2.204-1.058a.509.509 0 1 0-.441.916l2.205 1.058c.457.22.753.502.786.75a.505.505 0 0 0 .502.437l.075-.003zm-36.8-2.985l3.678-1.747a.509.509 0 1 0-.438-.92l-3.677 1.748a.509.509 0 1 0 .438.92zm30.22-1.258a.512.512 0 0 0-.241-.679l-3.667-1.764a.509.509 0 1 0-.44.916l3.67 1.764a.512.512 0 0 0 .678-.237zm-22.896-2.239l3.677-1.747a.509.509 0 0 0-.438-.92l-3.677 1.748a.509.509 0 0 0 .22.97c.08.002.16-.015.232-.051h-.014zm15.57-1.279a.509.509 0 0 0-.238-.678l-3.667-1.764a.472.472 0 0 0-.129-.04.451.451 0 0 0-.115-.075 6.757 6.757 0 0 0-2.846-.57 7.856 7.856 0 0 0-1.459.132.509.509 0 1 0 .19 1 6.584 6.584 0 0 1 3.674.34c.04.02.084.035.129.044.035.03.074.055.115.075l3.667 1.763c.254.117.555.01.678-.24v.013zM80.153 171.294l.458-.22a.509.509 0 0 0-.441-.916l-.458.217a6.275 6.275 0 0 1-3.213.42.516.516 0 0 0-.563.448.509.509 0 0 0 .448.563c.312.037.626.055.94.054a6.686 6.686 0 0 0 2.829-.566zm-7.029-1.221a.509.509 0 0 0-.237-.679l-3.67-1.763a.509.509 0 0 0-.441.915l3.67 1.764a.505.505 0 0 0 .678-.237zm11.153-.763l3.67-1.76a.51.51 0 1 0-.44-.92l-3.67 1.764a.509.509 0 0 0 .22.967.468.468 0 0 0 .22-.062v.01zm-18.49-2.765a.509.509 0 0 0-.24-.678l-3.667-1.764a.509.509 0 1 0-.44.916l3.67 1.764a.505.505 0 0 0 .678-.238zm25.84-.77l3.67-1.764a.509.509 0 0 0-.44-.915l-3.667 1.763a.505.505 0 0 0-.24.679.516.516 0 0 0 .46.288c.076 0 .15-.018.218-.05zm-33.163-2.768a.509.509 0 0 0-.24-.678l-.513-.248c-.495-.234-.787-.532-.787-.79s.296-.556.794-.79a.502.502 0 0 0 .23-.679.519.519 0 0 0-.678-.234c-1.194.567-1.356 1.316-1.356 1.696 0 .38.176 1.14 1.356 1.696l.516.248a.512.512 0 0 0 .665-.22h.013zm39.73-1.278a.516.516 0 0 0 .435-.577c-.082-.604-.563-1.146-1.357-1.523l-2.205-1.062a.509.509 0 1 0-.44.916l2.204 1.062c.458.22.753.498.787.746.034.252.248.44.502.441l.074-.003zm-36.799-2.985l3.677-1.75a.509.509 0 1 0-.438-.92l-3.676 1.75a.509.509 0 0 0 .437.92zm30.233-1.262a.509.509 0 0 0-.241-.678l-3.667-1.764a.51.51 0 0 0-.44.919l3.67 1.767a.512.512 0 0 0 .678-.244zm-22.896-2.235l3.677-1.75a.509.509 0 1 0-.438-.92l-3.66 1.757a.509.509 0 0 0 .217.967c.076 0 .15-.02.217-.054h-.013zm15.555-1.29a.505.505 0 0 0-.237-.678l-3.667-1.764a.644.644 0 0 0-.129-.044.44.44 0 0 0-.115-.07 6.692 6.692 0 0 0-2.846-.574 7.856 7.856 0 0 0-1.458.132.51.51 0 1 0 .19 1 6.57 6.57 0 0 1 3.676.357.519.519 0 0 1 .241.115l3.667 1.764a.505.505 0 0 0 .678-.237z"/>
        <path fill="url(#b)" fill-rule="nonzero" d="M142.384 181.867c.003-.054.01-.107.02-.16l.143-5.481 13.832-.071.59-.289a6.072 6.072 0 0 1 4.62 0l.679.265 17.207-.085-.068 6.567c-.025.63-.41 1.19-.99 1.438l-15.182 7.381a6.068 6.068 0 0 1-4.614 0l-15.562-7.384a1.099 1.099 0 0 1-.678-.977l.003-1.204z" transform="matrix(-1 0 0 1 239.46 0)"/>
        <path fill="#A9B6FF" fill-rule="nonzero" d="M80.838 167.848a6.106 6.106 0 0 0-4.62 0l-15.213 7.238c-1.272.604-1.272 1.598 0 2.208l15.223 7.317c1.477.61 3.136.61 4.613 0l15.122-7.27c1.268-.61 1.268-1.607 0-2.218l-15.125-7.275z"/>
        <g fill-rule="nonzero">
            <g fill="#042FF8" opacity=".3">
                <path d="M211.136 251.432a6.957 6.957 0 0 0 5.298 0l17.787-8.551c1.452-.699 1.089-2.005-.366-2.697 0 0-17.421-8.29-17.431-8.29a7.008 7.008 0 0 0-5.305 0l-17.67 8.48c-1.45.699-1.095 2.012.34 2.714.017.02 17.336 8.344 17.347 8.344z" opacity=".02"/>
                <path d="M211.2 251.364a6.831 6.831 0 0 0 5.186 0l17.716-8.514c1.415-.678.679-2.13-.722-2.805 0 0-16.994-8.083-17.014-8.083a6.879 6.879 0 0 0-5.193 0l-17.59 8.456c-1.419.679-.706 2.137.708 2.816-.003.017 16.889 8.13 16.909 8.13z" opacity=".05"/>
                <path d="M211.268 251.3a6.713 6.713 0 0 0 5.07 0l17.639-8.48c1.377-.679.302-2.256-1.079-2.914 0 0-16.57-7.876-16.6-7.876a6.743 6.743 0 0 0-5.088.017l-17.516 8.415c-1.377.679-.312 2.263 1.069 2.924-.007-.007 16.474 7.914 16.505 7.914z" opacity=".07"/>
                <path d="M211.332 251.232a6.57 6.57 0 0 0 4.96 0l17.553-8.446c1.356-.645-.092-2.375-1.438-3.019 0 0-16.14-7.673-16.18-7.673a6.618 6.618 0 0 0-4.966.02l-17.438 8.382c-1.357.645.081 2.375 1.425 3.03.003.003 16.044 7.706 16.084 7.706z" opacity=".1"/>
                <path d="M211.4 251.18c1.553.63 3.29.63 4.844 0l17.475-8.425c1.306-.627-.485-2.503-1.794-3.124 0 0-15.712-7.462-15.766-7.462a6.482 6.482 0 0 0-4.85.02l-17.36 8.345c-1.31.627.471 2.51 1.777 3.137.007-.003 15.623 7.51 15.674 7.51z" opacity=".12"/>
                <path d="M211.465 251.1a6.323 6.323 0 0 0 4.731 0l17.398-8.375c1.268-.61-.879-2.629-2.15-3.233 0 0-15.288-7.265-15.35-7.265a6.373 6.373 0 0 0-4.748.023l-17.3 8.307c-1.268.61.866 2.636 2.138 3.246.03.007 15.22 7.296 15.28 7.296z" opacity=".15"/>
                <path d="M211.532 251.035a6.173 6.173 0 0 0 4.617-.02l17.32-8.314c1.234-.594-1.273-2.75-2.51-3.341 0 0-14.858-7.059-14.925-7.059a6.214 6.214 0 0 0-4.627.027l-17.208 8.27c-1.234.59 1.259 2.761 2.494 3.355.003-.004 14.765 7.082 14.84 7.082z" opacity=".17"/>
                <path d="M211.597 250.967a6.061 6.061 0 0 0 4.504-.02l17.242-8.287c1.197-.573-1.666-2.873-2.867-3.446 0 0-14.429-6.855-14.514-6.855a6.106 6.106 0 0 0-4.511.03l-17.13 8.233c-1.197.576 1.65 2.886 2.846 3.463.014.003 14.348 6.882 14.43 6.882z" opacity=".2"/>
                <path d="M211.665 250.903a5.943 5.943 0 0 0 4.389-.024l17.163-8.25c1.164-.559-2.059-2.998-3.222-3.55 0 0-14.006-6.652-14.097-6.652a5.987 5.987 0 0 0-4.41.03l-17.04 8.209c-1.164.56 2.034 3.012 3.201 3.572.014-.01 13.92 6.665 14.016 6.665z" opacity=".22"/>
                <path d="M211.716 250.842a5.8 5.8 0 0 0 4.277-.024l17.092-8.219c1.126-.542-2.452-3.124-3.579-3.66 0 0-13.567-6.444-13.683-6.444a5.834 5.834 0 0 0-4.277.03l-16.977 8.161c-1.123.54 2.436 3.134 3.562 3.677.017.007 13.496 6.479 13.585 6.479z" opacity=".24"/>
                <path d="M211.797 250.77a5.668 5.668 0 0 0 4.162-.03l17.007-8.171c1.089-.526-2.846-3.26-3.951-3.769 0 0-13.148-6.241-13.263-6.241a5.709 5.709 0 0 0-4.172.037l-16.899 8.12c-1.089.523 2.826 3.264 3.914 3.786.031.007 13.087 6.268 13.202 6.268z" opacity=".27"/>
                <path d="M211.861 250.703a5.542 5.542 0 0 0 4.05-.03l16.93-8.142c1.055-.505-3.24-3.371-4.295-3.873-.016 0-12.723-6.035-12.845-6.035a5.583 5.583 0 0 0-4.07.038l-16.821 8.083c-1.055.509 3.216 3.392 4.27 3.894.028.01 12.66 6.065 12.781 6.065z" opacity=".29"/>
                <path d="M211.93 250.638c1.269.481 2.673.47 3.934-.034l16.851-8.1c1.018-.488-3.633-3.497-4.65-3.982-.02 0-12.296-5.83-12.432-5.83a5.468 5.468 0 0 0-3.945.04l-16.746 8.05c-1.017.488 3.613 3.51 4.627 3.998.02.007 12.225 5.858 12.36 5.858z" opacity=".32"/>
                <path d="M211.994 250.57a5.298 5.298 0 0 0 3.822-.034l16.774-8.062c.98-.472-4.027-3.62-5.007-4.088-.02 0-11.872-5.627-12.014-5.627a5.325 5.325 0 0 0-3.833.044l-16.668 8.009c-.98.471 4.002 3.636 4.983 4.107.02.01 11.797 5.651 11.943 5.651z" opacity=".34"/>
                <path d="M212.055 250.503a5.156 5.156 0 0 0 3.71-.038l16.7-8.022c.946-.454-4.41-3.73-5.367-4.196-.02 0-11.438-5.427-11.597-5.427a5.193 5.193 0 0 0-3.731.044l-16.59 7.971c-.943.455 4.392 3.762 5.339 4.217.034.023 11.387 5.45 11.536 5.45z" opacity=".37"/>
                <path d="M212.126 250.438a5.023 5.023 0 0 0 3.595-.04l16.621-7.989c.906-.434-4.817-3.867-5.726-4.3-.023 0-11.013-5.218-11.193-5.218a5.068 5.068 0 0 0-3.606.048l-16.512 7.937c-.909.434 4.786 3.887 5.692 4.321.037.01 10.963 5.241 11.129 5.241z" opacity=".39"/>
                <path d="M212.19 250.37c1.127.414 2.367.4 3.484-.04l16.543-7.951c.868-.417-5.21-3.993-6.082-4.41-.024 0-10.587-5.01-10.763-5.01a4.959 4.959 0 0 0-3.494.048l-16.444 7.9c-.872.42 5.18 4.012 6.051 4.43.03.01 10.532 5.033 10.705 5.033z" opacity=".41"/>
                <path d="M212.258 250.306a4.783 4.783 0 0 0 3.368-.048l16.465-7.896c.834-.4-5.603-4.118-6.445-4.515-.023 0-10.155-4.81-10.345-4.81a4.827 4.827 0 0 0-3.392.055l-16.36 7.859c-.834.403 5.57 4.138 6.408 4.538.04 0 10.098 4.817 10.301 4.817z" opacity=".44"/>
                <path d="M212.323 250.238a4.64 4.64 0 0 0 3.256-.048l16.387-7.872c.78-.387-6.004-4.244-6.798-4.624-.027 0-9.731-4.602-9.928-4.602a4.705 4.705 0 0 0-3.267.054l-16.281 7.825c-.8.383 5.963 4.26 6.76 4.644.027.013 9.677 4.623 9.87 4.623z" opacity=".46"/>
                <path d="M212.394 250.163c1.02.359 2.134.34 3.14-.05l16.306-7.83c.763-.366-6.39-4.365-7.154-4.728-.027 0-9.304-4.41-9.497-4.41a4.58 4.58 0 0 0-3.155.059l-16.206 7.801c-.76.366 6.356 4.386 7.123 4.749.01 0 9.233 4.41 9.443 4.41z" opacity=".49"/>
                <path d="M212.455 250.106a4.41 4.41 0 0 0 3.029-.051l16.244-7.802c.726-.339-6.784-4.49-7.51-4.837-.03 0-8.876-4.192-9.097-4.192a4.45 4.45 0 0 0-3.053.058l-16.128 7.754c-.726.339 6.75 4.51 7.462 4.86.04.01 8.836 4.21 9.053 4.21z" opacity=".51"/>
                <path d="M212.523 250.041a4.27 4.27 0 0 0 2.914-.057l16.152-7.761c.678-.34-7.177-4.613-7.87-4.942-.03 0-8.449-3.99-8.676-3.99a4.328 4.328 0 0 0-2.927.062l-16.05 7.713c-.68.34 7.122 4.637 7.828 4.97.02.013 8.402 4.005 8.629 4.005z" opacity=".54"/>
                <path d="M212.587 249.973a4.148 4.148 0 0 0 2.802-.057l16.075-7.724c.654-.315-7.571-4.749-8.226-5.05-.03 0-8.022-3.786-8.263-3.786a4.196 4.196 0 0 0-2.812.065l-15.972 7.676c-.655.315 7.53 4.748 8.184 5.088.03.003 7.975 3.788 8.212 3.788z" opacity=".56"/>
                <path d="M212.655 249.909a4.04 4.04 0 0 0 2.687-.061l15.996-7.69c.617-.295-7.964-4.86-8.582-5.155-.034 0-7.594-3.579-7.845-3.579a4.07 4.07 0 0 0-2.714.064l-15.898 7.643c-.617.295 7.927 4.884 8.544 5.182.045.014 7.551 3.596 7.812 3.596z" opacity=".59"/>
                <path d="M212.733 249.841c.84.272 1.748.25 2.575-.061l15.905-7.652c.58-.278-8.358-4.986-8.942-5.265-.034 0-7.167-3.375-7.425-3.375a3.975 3.975 0 0 0-2.588.068l-15.806 7.605c-.58.278 8.317 5.013 8.897 5.292.02.013 7.113 3.388 7.384 3.388z" opacity=".61"/>
                <path d="M212.787 249.777c.805.253 1.67.23 2.46-.068l15.84-7.612c.546-.26-8.751-5.111-9.297-5.37-.038 0-6.74-3.17-7.011-3.17a3.802 3.802 0 0 0-2.473.07l-15.742 7.565c-.546.26 8.707 5.138 9.253 5.4.034.017 6.702 3.185 6.97 3.185z" opacity=".63"/>
                <path d="M212.852 249.709a3.667 3.667 0 0 0 2.347-.068l15.763-7.574c.508-.245-9.159-5.237-9.654-5.478-.037-.017-6.312-2.968-6.594-2.968a3.731 3.731 0 0 0-2.374.074l-15.668 7.53c-.505.245 9.104 5.261 9.61 5.506.054.017 6.292 2.978 6.57 2.978z" opacity=".66"/>
                <path d="M212.916 249.644a3.548 3.548 0 0 0 2.236-.07l15.684-7.551c.472-.228-9.538-5.36-10.01-5.584-.04-.017-5.925-2.642-6.18-2.76a3.005 3.005 0 0 0-2.245.074l-15.603 7.493c-.472.227 9.497 5.386 9.965 5.614.055.027 5.865 2.784 6.153 2.784z" opacity=".68"/>
                <path d="M212.984 249.577a3.426 3.426 0 0 0 2.12-.072l15.607-7.503c.437-.21-9.932-5.481-10.37-5.691-.04 0-5.491-2.44-5.766-2.555a2.887 2.887 0 0 0-2.134.078l-15.511 7.463c-.438.21 9.884 5.512 10.322 5.722.054.007 5.434 2.558 5.732 2.558z" opacity=".71"/>
                <path d="M213.049 249.512a3.304 3.304 0 0 0 2.008-.078l15.531-7.462c.397-.194-10.328-5.607-10.728-5.797-.041-.02-5.065-2.239-5.343-2.354a2.805 2.805 0 0 0-2.035.081l-15.433 7.418c-.4.19 10.277 5.638 10.674 5.828.058.02 5.01 2.364 5.326 2.364z" opacity=".73"/>
                <path d="M213.116 249.444c.625.167 1.285.14 1.893-.078l15.454-7.425c.363-.176-10.722-5.732-11.085-5.905-.044-.02-4.637-2.035-4.929-2.147a2.714 2.714 0 0 0-1.906.081l-15.359 7.374c-.363.173 10.672 5.767 11.034 5.936.045.027 4.58 2.164 4.898 2.164z" opacity=".76"/>
                <path d="M213.18 249.38a3.1 3.1 0 0 0 1.782-.082l15.375-7.39c.34-.157-11.115-5.855-11.444-6.011-.044-.02-4.203-1.832-4.508-1.944a2.622 2.622 0 0 0-1.794.085l-15.281 7.344c-.34.159 11.061 5.888 11.39 6.044.044.024 4.152 1.954 4.48 1.954z" opacity=".78"/>
                <path d="M213.249 249.312c.551.133 1.13.103 1.665-.085l15.298-7.35c.288-.14-11.509-5.98-11.8-6.106-.045-.02-3.776-1.631-4.095-1.736a2.503 2.503 0 0 0-1.696.088l-15.203 7.306c-.291.14 11.455 6.01 11.743 6.15.065.006 3.745 1.733 4.088 1.733z" opacity=".8"/>
                <path d="M213.313 249.247a2.84 2.84 0 0 0 1.554-.088l15.22-7.313c.254-.122-11.903-6.105-12.157-6.224-.048-.02-3.345-1.435-3.677-1.537a2.432 2.432 0 0 0-1.567.092l-15.125 7.269c-.254.122 11.845 6.14 12.099 6.262.048.02 3.304 1.54 3.653 1.54z" opacity=".83"/>
                <path d="M213.381 249.18c.479.1.976.07 1.438-.089l15.142-7.275c.217-.105-12.296-6.231-12.513-6.333-.05-.02-2.914-1.235-3.26-1.33a2.374 2.374 0 0 0-1.455.092l-15.05 7.232c-.217.105 12.238 6.264 12.459 6.37.047.02 2.876 1.333 3.239 1.333z" opacity=".85"/>
                <path d="M213.445 249.112c.443.082.9.052 1.327-.088l15.063-7.242c.18-.085-12.689-6.35-12.889-6.445-.048-.02-2.48-1.038-2.842-1.123a2.317 2.317 0 0 0-1.357.092l-14.938 7.204c-.184.085 12.631 6.387 12.811 6.476.05.02 2.452 1.126 2.825 1.126z" opacity=".88"/>
                <path d="M213.513 249.047c.406.068.821.035 1.211-.095l14.969-7.2c.146-.072-13.083-6.476-13.229-6.547-.05-.02-2.035-.845-2.425-.92a2.242 2.242 0 0 0-1.228.099l-14.894 7.157c-.146.071 13.022 6.513 13.168 6.584.067.02 2.045.922 2.428.922z" opacity=".9"/>
                <path d="M213.578 248.98c.369.052.744.02 1.099-.095l14.907-7.164c.109-.038-13.476-6.601-13.584-6.652a18.785 18.785 0 0 0-2.008-.716 2.191 2.191 0 0 0-1.116.099l-14.82 7.123c-.108.054 13.415 6.638 13.524 6.692.054.02 1.608.713 1.998.713z" opacity=".93"/>
                <path d="M213.646 248.915c.33.036.666.002.983-.098l14.83-7.134c.071-.037-13.87-6.726-13.941-6.76a10.583 10.583 0 0 0-1.594-.512 2.184 2.184 0 0 0-1 .102l-14.743 7.086c-.07.034 13.81 6.763 13.88 6.784.072.02 1.18.532 1.585.532z" opacity=".95"/>
                <path d="M213.71 248.847c.294.022.59-.011.872-.098l14.751-7.093c.038 0-14.263-6.848-14.3-6.865a5.183 5.183 0 0 0-1.174-.305c-.3-.027-.602.007-.888.101l-14.664 7.049c-.037 0 14.199 6.889 14.246 6.906a4.07 4.07 0 0 0 1.157.305z" opacity=".98"/>
                <path d="M213.774 248.783a2.27 2.27 0 0 0 .76-.105l14.674-7.052-14.657-6.974a2.374 2.374 0 0 0-.76-.102 2.32 2.32 0 0 0-.773.109l-14.585 7.007 14.585 7.015c.245.075.5.11.756.102z"/>
            </g>
            <path fill="url(#c)" d="M39.72 30.337a.787.787 0 0 0-.034-.139l-.14-5.332-13.448-.095-.574-.281a5.909 5.909 0 0 0-4.494 0l-.658.257-16.746-.084.064 6.39c.025.614.4 1.158.964 1.4l14.775 7.182a5.878 5.878 0 0 0 4.488 0l15.148-7.178c.385-.162.642-.532.658-.95l-.003-1.17z" transform="matrix(-1 0 0 1 235.46 209.79)"/>
            <path fill="#A9B6FF" d="M211.543 226.487a5.926 5.926 0 0 1 4.494 0l14.802 7.035c1.238.587 1.242 1.554 0 2.147l-14.816 7.124a5.878 5.878 0 0 1-4.487 0l-14.718-7.073c-1.235-.593-1.235-1.563 0-2.157l14.725-7.076z"/>
            <path fill="url(#d)" d="M39.686 22.397a.787.787 0 0 0-.024-.156l-.135-5.336-13.463-.068-.573-.278a5.933 5.933 0 0 0-4.498 0l-.658.261-16.746-.084.064 6.39c.024.615.4 1.16.967 1.4l14.772 7.182a5.885 5.885 0 0 0 4.49 0l15.126-7.178c.393-.155.66-.527.678-.95v-1.183z" transform="matrix(-1 0 0 1 235.46 209.79)"/>
            <path fill="#F6F8FF" d="M211.59 218.557a5.926 5.926 0 0 1 4.494 0l14.806 7.035c1.238.59 1.238 1.557 0 2.15l-14.812 7.124a5.885 5.885 0 0 1-4.491 0l-14.715-7.09c-1.234-.593-1.234-1.563 0-2.157l14.718-7.062z"/>
            <path fill="#A9B6FF" d="M195.773 223.876a.75.75 0 0 1 .024-.156l.136-5.336 13.462-.068.574-.278a5.933 5.933 0 0 1 4.497 0l.658.261 16.747-.085-.065 6.39a1.59 1.59 0 0 1-.967 1.402l-14.772 7.18a5.885 5.885 0 0 1-4.49 0l-15.125-7.19a1.072 1.072 0 0 1-.679-.95v-1.17z"/>
            <path fill="#A9B6FF" d="M211.59 210.233a5.909 5.909 0 0 1 4.494 0l14.806 7.028c1.238.59 1.238 1.557 0 2.15l-14.812 7.124a5.885 5.885 0 0 1-4.491 0l-14.718-7.072c-1.235-.594-1.235-1.564 0-2.158l14.721-7.072z"/>
        </g>
        <path fill="#8292C2" fill-opacity=".766" d="M3.88 80.481L141.516.543a2.585 2.585 0 0 1 3.88 2.235v10.047a7.638 7.638 0 0 1-3.802 6.604L3.962 99.364A2.585 2.585 0 0 1 .078 97.13V87.085a7.636 7.636 0 0 1 3.802-6.604z" filter="url(#e)" opacity=".1" transform="matrix(-1 0 0 1 235.786 110.239)"/>
        <path fill="#F1F3FF" fill-rule="nonzero" d="M231.855 80.627L94.222.678a2.585 2.585 0 0 0-3.883 2.25v98.492a7.638 7.638 0 0 0 3.802 6.604l137.636 79.924a2.581 2.581 0 0 0 3.88-2.235V87.231a7.64 7.64 0 0 0-3.802-6.604z"/>
        <path fill="#BAC5FF" fill-rule="nonzero" d="M232.903 187.548V89.07a7.635 7.635 0 0 0-3.803-6.604L91.468 2.527a2.54 2.54 0 0 0-1.017-.315A2.588 2.588 0 0 1 94.222.678l137.633 79.949a7.64 7.64 0 0 1 3.802 6.604v98.482a2.571 2.571 0 0 1-2.853 2.54c.066-.229.099-.466.099-.705z"/>
        <path fill="#042FF8" fill-rule="nonzero" d="M200.632 133.898h-.635v35.595l.635.37zM113.55 119.285l.634.37v-35.84h-.634zM139.675 134.457l.634.37v-44.01h-.634zM170.545 152.387l.634.367V85.847h-.634z"/>
        <path fill="#042FF8" fill-rule="nonzero" d="M114.846 83.815c0 .716-.438 1.296-.977 1.296-.54 0-.98-.58-.98-1.296 0-.715.44-1.299.98-1.299.539 0 .977.587.977 1.3zM140.97 90.816c0 .716-.437 1.296-.976 1.296-.54 0-.98-.58-.98-1.296 0-.715.437-1.299.98-1.299.542 0 .976.58.976 1.3zM171.84 85.847c0 .716-.437 1.3-.98 1.3-.542 0-.976-.584-.976-1.3 0-.716.437-1.296.976-1.296.54 0 .98.587.98 1.296zM201.293 133.982c0 .716-.437 1.296-.977 1.296s-.98-.58-.98-1.296c0-.715.437-1.299.98-1.299.543 0 .977.597.977 1.3z"/>
        <path fill="#042FF8" fill-rule="nonzero" d="M90.339 99.228V97.35c3.364.624 6.84-.01 9.769-1.78l3.256-1.95a18.008 18.008 0 0 1 17.638-.68l4.61 2.345a27.037 27.037 0 0 0 24.954-.245l2.035-1.078a17.882 17.882 0 0 1 24.575 8.12l13.361 28.221a60.306 60.306 0 0 0 25.321 27.03l19.799 11.018v2.103l-20.69-11.516a62.127 62.127 0 0 1-26.088-27.848l-13.382-28.228a16.044 16.044 0 0 0-22.048-7.286l-2.035 1.079a28.886 28.886 0 0 1-26.65.258l-4.61-2.344a16.19 16.19 0 0 0-15.847.6l-3.257 1.985a15.81 15.81 0 0 1-10.711 2.075z" opacity=".1"/>
        <path fill="#F77070" fill-rule="nonzero" d="M237.97 166.915a.92.92 0 0 0 .448-1.727l-20.725-11.532a60.34 60.34 0 0 1-25.324-27.024l-13.381-28.231a17.886 17.886 0 0 0-24.575-8.117l-2.035 1.075a27.027 27.027 0 0 1-24.955.244l-4.59-2.344a18.008 18.008 0 0 0-17.638.679l-3.256 1.98a13.988 13.988 0 0 1-14.246.164l-2.656-1.537a.92.92 0 1 0-.92 1.59l2.657 1.537a15.83 15.83 0 0 0 16.132-.186l3.256-1.981a16.18 16.18 0 0 1 15.837-.6l4.61 2.343a28.893 28.893 0 0 0 26.65-.26l2.036-1.08a16.05 16.05 0 0 1 22.047 7.286l13.382 28.232a62.164 62.164 0 0 0 26.067 27.841l20.725 11.533a.923.923 0 0 0 .454.115z"/>
        <path fill="#CBD3FF" fill-rule="nonzero" d="M223.124 90.05l-21.83-12.605v4.203l21.83 12.601zM223.124 97.414l-46.002-26.648v4.2l46.002 26.647z"/>
    </g>
</svg>
