<svg xmlns="http://www.w3.org/2000/svg" xmlns:xlink="http://www.w3.org/1999/xlink" width="345" height="201" viewBox="0 0 345 201">
    <defs>
        <path id="a" d="M79.302 144.183L3.62 100.126c-5.26-3.061-4.594-8.46 1.48-11.994l144.91-84.355c6.073-3.535 15.345-3.923 20.605-.862l75.683 44.058c5.259 3.061 4.594 8.458-1.48 11.995l-144.91 84.355c-6.073 3.535-15.344 3.922-20.605.86"/>
        <linearGradient id="c" x1="26.526%" x2="39.676%" y1="30.536%" y2="59.217%">
            <stop offset="0%" stop-color="#DCE2F1"/>
            <stop offset="100%" stop-color="#B7C2E1"/>
        </linearGradient>
        <path id="b" d="M46.791 2.33l40.631 25.663a4.5 4.5 0 0 1-.188 7.721L53.301 54.907a12.6 12.6 0 0 1-12.654-.143L2.771 32.19a5.4 5.4 0 0 1-.066-9.238l33.61-20.683a9.9 9.9 0 0 1 10.476.061z"/>
        <path id="e" d="M46.791 2.33l40.631 25.663a4.5 4.5 0 0 1-.188 7.721L53.301 54.907a12.6 12.6 0 0 1-12.654-.143L2.771 32.19a5.4 5.4 0 0 1-.066-9.238l33.61-20.683a9.9 9.9 0 0 1 10.476.061z"/>
        <path id="g" d="M46.791 2.33l40.631 25.663a4.5 4.5 0 0 1-.188 7.721L53.301 54.907a12.6 12.6 0 0 1-12.654-.143L2.771 32.19a5.4 5.4 0 0 1-.066-9.238l33.61-20.683a9.9 9.9 0 0 1 10.476.061z"/>
        <path id="i" d="M46.791 2.33l40.631 25.663a4.5 4.5 0 0 1-.188 7.721L53.301 54.907a12.6 12.6 0 0 1-12.654-.143L2.771 32.19a5.4 5.4 0 0 1-.066-9.238l33.61-20.683a9.9 9.9 0 0 1 10.476.061z"/>
    </defs>
    <g fill="none" fill-rule="evenodd">
        <path stroke="#978FF7" stroke-width=".9" d="M5.447 136.926c-7.229-4.191-6.313-11.583 2.034-16.423L206.643 5.007c8.347-4.84 21.091-5.371 28.32-1.18L338.98 64.15c7.227 4.192 6.313 11.581-2.034 16.423L137.785 196.069c-8.347 4.84-21.089 5.371-28.32 1.178L5.447 136.926z"/>
        <use fill="#7C98FF" opacity=".23" transform="translate(62.173 17.837)" xlink:href="#a"/>
        <path stroke="#978FF7" stroke-width=".9" d="M65.67 158.275c-6.624-3.623-6.624-9.5 0-13.126 6.62-3.624 17.36-3.624 23.984 0 6.623 3.627 6.623 9.503 0 13.126-6.624 3.624-17.365 3.624-23.985 0z"/>
        <path fill="#B7C2E1" d="M129.847 82.516l.111 20.228-37.914 21.999c-3.439 1.93-6.907 2.288-10.405 1.072-2.272-1.314-4.26-2.476-7.738-4.517-10.42-5.996-30.9-17.884-32.845-19.14-1.116-.978-1.347-2.037-.694-3.176l.108-20.864c.309-2.66 1.365-4.453 3.169-5.378 1.575-1.026 4.275-2.722 33.193-20.493 3.532-2.046 6.793-1.77 9.622-.376 25.4 15.96 35.403 22.385 36.977 23.264 4.967 2.75 7.105 5.21 6.416 7.381z" opacity=".302"/>
        <g transform="translate(40.474 50)">
            <mask id="d" fill="#fff">
                <use xlink:href="#b"/>
            </mask>
            <use fill="url(#c)" xlink:href="#b"/>
            <g fill="#FFF" fill-rule="nonzero" mask="url(#d)">
                <path d="M47.087 29.281c-.55-.126-.842-.088-1.162.21-4.57 4.12-9.144 8.238-13.725 12.355a3.858 3.858 0 0 0-.223.201c-.242.235-.48.261-.824.063l-.025-.015a57.985 57.985 0 0 0-1.164-.687c-.535-.31-1.073-.616-1.61-.925l-1.85-1.07c-.847-.488-1.69-.979-2.536-1.467-.663-.384-1.331-.765-2.004-1.145l-.026-.015h-.001c-.42-.235-.348-.37.13-.55 7.17-2.694 14.345-5.382 21.526-8.065.494-.186.62-.34.391-.673-.977-1.419-.092-3.016 2.05-3.815 2.198-.81 5.069-.635 6.87.405l.122.072c1.796 1.104 1.99 2.774.468 4.032-1.406 1.162-4.046 1.624-6.407 1.09zm-16.986-.878c-.14-.08-.153-.287-.236-.728-.622-3.31.877-6.25 4.69-8.758.237-.157.477-.308.723-.454 3.68-2.192 8.273-3.266 13.62-3.326a29.767 29.767 0 0 1 9.12 1.29c.14.043.275.094.507.174.13.382-.449.627-.687.941-.15.204-.386.242-.718.138a21.564 21.564 0 0 0-2.337-.592c-6.002-1.182-11.548-.686-16.465 1.623-4.917 2.308-6.835 5.376-6.084 9.006.086.41-.068.565-.77.626-.853.074-1.198.156-1.363.06zm36.406-6.83c3.046 3.946 2.418 7.72-1.692 11.292a9.02 9.02 0 0 1-.755.578c-.395.273-.806.54-1.196.8-4.69 2.558-10.187 3.674-16.61 3.18-.391-.03-.586-.036-.706-.106s-.08-.197.01-.472c.261-.808.258-.791 1.712-.713 4.656.252 8.905-.386 12.479-2.148 5.756-2.836 7.49-6.42 5.482-10.628a5.802 5.802 0 0 0-1.214-1.65c-.243-.233-.194-.377.227-.508 1.047-.324 1.347-.515 1.621-.356.17.096.328.319.642.731zM48.97 32.736c8.16.028 13.502-4.808 10.068-9.115-.426-.533-.426-.533.468-.839.708-.241.973-.338 1.203-.2.137.08.262.239.463.493 2.37 3.017 1.329 6.455-3.513 9.244-2.104 1.154-5.625 1.922-9.747 1.745a1.252 1.252 0 0 1-.523-.096c-.114-.072-.141-.175-.099-.347.215-.885.189-.885 1.68-.885zm-1.967-12.692c-5.526.604-9.27 3.398-8.964 6.717.036.397-.122.53-.801.572-.885.052-1.248.096-1.402.01-.154-.085-.106-.298-.154-.757-.427-4.09 5.452-7.816 12.543-7.984a22.844 22.844 0 0 1 6.607.753c.236.052.466.127.688.224.19.106.074.228-.234.55-.168.173-.342.345-.495.497-.316.194-.58.055-.831-.015a18.103 18.103 0 0 0-6.957-.567z"/>
            </g>
        </g>
        <g>
            <path fill="#ABA6F6" d="M212.847 130.516l.111 20.228-37.914 21.999c-3.439 1.93-6.907 2.288-10.405 1.072-2.272-1.314-4.26-2.476-7.738-4.517-10.42-5.996-30.9-17.884-32.845-19.14-1.116-.978-1.347-2.037-.694-3.176l.108-20.864c.309-2.66 1.365-4.453 3.169-5.378 1.575-1.026 4.275-2.722 33.193-20.493 3.532-2.046 6.793-1.77 9.622-.376 25.4 15.96 35.403 22.385 36.977 23.264 4.967 2.75 7.105 5.21 6.416 7.381z" opacity=".302"/>
            <g transform="translate(123.474 98)">
                <mask id="f" fill="#fff">
                    <use xlink:href="#e"/>
                </mask>
                <use fill="#978FF7" opacity=".746" xlink:href="#e"/>
                <g fill="#FFF" fill-rule="nonzero" mask="url(#f)">
                    <path d="M59.45 20.615c1.624 4.667 3.295 9.33 4.956 13.987l-.136.078c-.344-.19-.695-.382-1.036-.573l-28.467-16.43c-.336-.197-.661-.408-.992-.599L33.91 17c8.056.957 16.114 1.898 24.173 2.824.326.018.646.102.94.246.207.12.36.315.428.545zm.122 8.98v-.01c.178-.105.092-.199.061-.275-.888-2.51-1.792-5.02-2.658-7.534a.604.604 0 0 0-.27-.338 2.05 2.05 0 0 0-.765-.19c-4.212-.495-8.426-.985-12.64-1.472-.218-.027-.467-.13-.698.012l16.97 9.806zm-9.689 11.064c.665.386.696.636-.003 1.005a59.797 59.797 0 0 0-3.495 2.032c-.657.417-1.09.382-1.754 0l-.032-.019c-4.082-2.366-8.169-4.73-12.258-7.092-3.38-1.946-6.755-3.893-10.126-5.842-.795-.459-1.582-.921-2.375-1.38-.562-.317-1.124-.638-1.697-.955l-.044-.025c-.516-.302-.518-.53.035-.837 1.259-.7 2.499-1.415 3.697-2.14.601-.382 1.012-.347 1.618 0h.01c2.331 1.36 4.669 2.714 7.011 4.064l6.246 3.604 6.412 3.71a2048.28 2048.28 0 0 0 6.736 3.875h.02zm-3.966.924c.615-.294.665-.533.063-.88l-.019-.012a1575.561 1575.561 0 0 1-5.46-3.135l-5.732-3.313-5.661-3.265-5.66-3.267c-.687-.394-1.025-.371-1.57.063-.31.242-.177.393.042.52.056.034.13.066.191.1.062.035.13.068.191.102 4.618 2.672 9.235 5.34 13.854 8.005l8.426 4.864.246.138.094.057.04.023a.929.929 0 0 0 .955 0zm-18.372-15.28c-.422-.245-.338-.448.067-.68 1.446-.828 2.875-1.667 4.312-2.502 1.366-.794 2.757-1.578 4.094-2.39.512-.311.904-.326 1.376-.055.034.019.069.04.103.063.23.149.47.294.717.436.296.172.6.338.901.506l.033.015c.369.214.403.405 0 .638-2.9 1.68-5.795 3.36-8.686 5.04a.955.955 0 0 1-1.056 0l-.984-.573a35.31 35.31 0 0 0-.848-.481l-.029-.017zm15.95-2.096c.376.217.374.409-.016.644-2.88 1.663-5.75 3.332-8.61 5.005-.354.24-.818.24-1.172 0l-.032-.019c-.297-.172-.575-.344-.87-.514a24.433 24.433 0 0 0-.764-.42l-.086-.048c-.458-.265-.428-.489.08-.774 1.416-.796 2.813-1.628 4.18-2.422 1.369-.795 2.758-1.578 4.095-2.392.514-.312.919-.388 1.427-.096.04.023.08.05.122.077.22.149.453.288.692.428.302.173.615.343.925.515l.028.016zm.206 9.033l2.826-1.632c1.392-.808 2.8-1.607 4.163-2.43.523-.321.888-.292 1.413 0 .293.162.547.304.765.428 1.484.852 1.245.988-.665 2.102-2.289 1.32-4.593 2.648-6.853 3.995-.587.35-.97.332-1.561 0l-.547-.314c-1.626-.938-1.463-1.031.459-2.15zm14.432-.573c.377.21.375.399-.019.632a1679.326 1679.326 0 0 0-8.61 5.006 1.04 1.04 0 0 1-1.17 0l-.033-.02c-.296-.171-.577-.345-.869-.515-.25-.143-.504-.285-.764-.42l-.084-.048c-.46-.258-.428-.48.08-.765 1.416-.792 2.812-1.622 4.18-2.418 1.368-.797 2.755-1.58 4.093-2.392.516-.314.919-.39 1.427-.098.04.025.082.05.124.079.218.147.451.288.69.426.304.175.617.345.927.515l.028.018zm-11.165-4.834c-.522.29-.075.495.197.713.464.374.445.653-.356.869-.347.086-.603.116-.794 0a.642.642 0 0 1-.192-.168 2.444 2.444 0 0 0-.706-.593 3.473 3.473 0 0 0-.28-.145 1.185 1.185 0 0 0-.955-.1c-.313.123-.28.33-.177.505.183.314.416.617.63.925.441.63.455 1.244-.422 1.744-.818.472-1.857.54-2.92.281-.468-.114-.838-.128-1.194.107a.894.894 0 0 1-.999 0l-.053-.032c-.264-.151-.453-.342-.144-.533.493-.302.243-.537-.063-.83-.256-.236-.81-.496-.256-.825.526-.31.908-.353 1.29-.137.125.076.241.168.344.273a3.5 3.5 0 0 0 .743.623c.151.087.312.157.48.206.282.122.6.132.89.027.287-.13.36-.308.252-.499-.19-.33-.437-.651-.653-.978-.386-.583-.51-1.146.332-1.647.843-.5 1.836-.543 2.895-.275.399.107.722.116 1.026-.084.294-.2.68-.2.974 0 .302.19.493.36.11.573zm7.835-5.308c.72.417.745 1.137.036 1.577-.708.439-1.97.45-2.734.024l-.028-.015c-.743-.422-.79-1.133-.067-1.568.722-.436 1.993-.453 2.757-.039l.036.021z"/>
                </g>
            </g>
        </g>
        <g>
            <path fill="#5BD765" d="M212.847 35.516l.111 20.228-37.914 21.999c-3.439 1.93-6.907 2.288-10.405 1.072-2.272-1.314-4.26-2.476-7.738-4.517-10.42-5.996-30.9-17.884-32.845-19.14-1.116-.978-1.347-2.037-.694-3.176l.108-20.864c.309-2.66 1.365-4.453 3.169-5.378 1.575-1.026 4.275-2.722 33.193-20.493 3.532-2.046 6.793-1.77 9.622-.376 25.4 15.96 35.403 22.385 36.977 23.264 4.967 2.75 7.105 5.21 6.416 7.381z" opacity=".302"/>
            <g transform="translate(123.474 3)">
                <mask id="h" fill="#fff">
                    <use xlink:href="#g"/>
                </mask>
                <use fill="#5BD765" xlink:href="#g"/>
                <g fill="#FFF" fill-rule="nonzero" mask="url(#h)">
                    <path d="M65.63 30.198c.942.548 1.086.973.527 1.669L48.59 42.074c-1.217.322-1.856.25-2.805-.296l-.025-.014-.4-.232c-.87-.5-1.74-.994-2.611-1.493l-.062-.036c-.822-.474-1.632-.95-2.453-1.424l-.143-.079-2.89-1.662-.954-.553-1.532-.895a3520.26 3520.26 0 0 0-3.051-1.766l-.87-.502-1.742-1.003-3.028-1.747c-.78-.448-1.558-.897-2.335-1.346l-.191-.11c-.68-.396-1.35-.792-2.031-1.187a56.94 56.94 0 0 0-1.029-.58l-.102-.058c-.894-.517-1.036-.93-.487-1.615L37.415 15.27c1.114-.308 1.917-.25 2.708.206l10.018 5.782 9.529 5.502 5.96 3.44zm-15.416 2.503c3.917-2.326 3.731-5.925-.124-8.151a35.89 35.89 0 0 0-.237-.134c-3.89-2.104-10.09-2.164-14.043.215-3.954 2.38-3.519 5.97.101 8.06l.097.055.092.055c3.647 2.105 10 2.343 14.114-.1zm-.76-13.05c-.203-.118-.168-.226.03-.336.57-.315 1.08-.667 1.7-.954a3.07 3.07 0 0 1 2.506.014c.303.152.59.31.87.469.14.084.277.163.414.242l.395.233.169.095c.237.13.466.264.712.406l1.39.805c.142.086.296.176.454.268.214.123.44.255.678.386.237.13.48.273.728.413l.007.004c.4.231.808.473 1.199.726.67.432.686 1.032.053 1.485-.5.353-1.093.658-1.647.986a.497.497 0 0 1-.55.014l-.02-.012a13.355 13.355 0 0 0-.674-.388l-.016-.01c-.192-.106-.176-.205.02-.316.422-.241.84-.485 1.251-.73.381-.228.387-.434 0-.659a2437.487 2437.487 0 0 0-6.006-3.465c-.413-.238-.749-.238-1.163 0-.415.237-.826.47-1.228.712a.52.52 0 0 1-.581.01l-.02-.011a12.102 12.102 0 0 0-.645-.374l-.026-.014zm-.28 10.851c.365.211.366.237.018.434-.722.422-1.447.844-2.173 1.266-.36.21-.413.21-.792-.008a107.39 107.39 0 0 1-.59-.34l-.789-.448c-.29-.168-.584-.334-.875-.502-.205-.121-.408-.237-.608-.358l-.022-.013c-.23-.133-.403-.121-.633.015-.939.556-1.888 1.101-2.838 1.655-.366.214-.418.214-.791 0a1010.26 1010.26 0 0 1-2.188-1.266c-.339-.197-.338-.228 0-.425.95-.553 1.89-1.107 2.849-1.651.263-.149.28-.252.019-.403l-.015-.008c-.438-.247-.872-.495-1.304-.744l-1.56-.906c-.353-.205-.35-.236.006-.442.713-.417 1.429-.833 2.145-1.248.386-.223.423-.223.819.008l1.386.798c.486.279.966.559 1.44.84l.014.008c.245.142.416.144.666-.005.945-.566 1.917-1.11 2.86-1.674.27-.161.46-.163.724-.01l.02.011c.36.215.722.428 1.088.64.383.22.768.438 1.155.657l.014.008c.24.138.245.243-.01.388-.966.55-1.917 1.113-2.872 1.667-.35.202-.349.216.005.42.946.545 1.89 1.09 2.832 1.636z"/>
                </g>
            </g>
        </g>
        <g>
            <path fill="#F27479" d="M293.847 84.516l.111 20.228-37.914 21.999c-3.439 1.93-6.907 2.288-10.405 1.072-2.272-1.314-4.26-2.476-7.738-4.517-10.42-5.996-30.9-17.884-32.845-19.14-1.116-.978-1.347-2.037-.694-3.176l.108-20.864c.309-2.66 1.365-4.453 3.169-5.378 1.575-1.026 4.275-2.722 33.193-20.493 3.532-2.046 6.793-1.77 9.622-.376 25.4 15.96 35.403 22.385 36.977 23.264 4.967 2.75 7.105 5.21 6.416 7.381z" opacity=".302"/>
            <g transform="translate(204.474 52)">
                <mask id="j" fill="#fff">
                    <use xlink:href="#i"/>
                </mask>
                <use fill="#FF584F" opacity=".755" xlink:href="#i"/>
                <g fill="#FFF" fill-rule="nonzero" mask="url(#j)">
                    <path d="M57.345 35.704c3.368 1.95 3.513 4.799.355 6.655-3.228 1.892-8.174 1.861-11.573-.088-1.684-.968-3.365-1.937-5.045-2.907l-7.55-4.363-7.296-4.21a849.662 849.662 0 0 1-5.2-3.013c-3.272-1.903-3.345-4.856-.203-6.67 3.158-1.82 8.177-1.758 11.506.163l13.41 7.733 11.596 6.7zm-28.604-9.93c1.301-.77 1.332-1.872.09-2.624l-.051-.03c-1.263-.732-3.223-.77-4.483-.086-1.332.726-1.364 1.905-.067 2.683l.02.018c1.273.734 3.28.755 4.49.04zm8.628 4.83c1.208-.726 1.143-1.861-.148-2.605l-.028-.016c-1.232-.7-3.37-.692-4.535.023-1.218.737-1.187 1.895.078 2.627 1.32.749 3.355.749 4.633-.029zm8.35 4.967c1.307-.723 1.351-1.856.097-2.605l-.065-.036a4.649 4.649 0 0 0-4.42-.063c-1.377.747-1.473 1.815-.226 2.593l.09.054a4.926 4.926 0 0 0 4.525.057zm8.517 4.867c1.286-.747 1.291-1.862.01-2.614h-.017a4.667 4.667 0 0 0-4.462-.033c-1.338.741-1.392 1.833-.132 2.592l.051.031a4.856 4.856 0 0 0 4.55.024zm11.397-10.731c.646.373.519.664-.057 1-1.107.63-2.224 1.292-3.29 1.909-1.065.617-2.149 1.224-3.186 1.859-.648.396-1.17.45-1.877.041l-.044-.026c-1.056-.629-2.12-1.253-3.194-1.871-1.132-.652-2.271-1.301-3.417-1.948l-.031-.018c-.607-.352-.622-.635-.013-.985a869.366 869.366 0 0 0 6.66-3.873 1.454 1.454 0 0 1 1.63-.024 437.23 437.23 0 0 0 3.527 2.051 565.79 565.79 0 0 0 3.272 1.885h.02zM34.44 21.361c-.736-.435-.593-.718.208-1.029a12.963 12.963 0 0 1 6.393-.778c.887.104 1.652.26 2.232.594.333.186.612.453.812.778a3.86 3.86 0 0 0 1.441 1.31c.866.47 1.802.798 2.772.971.343.058.674.172.98.337.263.15.481.366.632.628.941 1.584.55 3.046-1.099 4.407-.526.436-.99.5-1.677.104l-.052-.031c-.89-.536-1.788-1.063-2.694-1.582-1.205-.684-2.44-1.379-3.63-2.074-1.19-.695-2.372-1.387-3.564-2.074a243.32 243.32 0 0 0-2.71-1.535l-.044-.026zm12.211.195c-2.133-1.234-2.154-3.34.01-4.61 2.166-1.27 5.689-1.247 7.991.05l.031.018h.016c2.097 1.213 2.118 3.24.044 4.49-2.188 1.315-5.75 1.353-8.019.093l-.073-.041zm6.617 16.826c.702.407.702 1.045 0 1.47-.788.42-1.73.432-2.528.031l-.029-.016c-.681-.394-.723-1.063-.083-1.467a2.813 2.813 0 0 1 2.64-.018zm-8.496-4.895c.718.43.718 1.073 0 1.478a2.803 2.803 0 0 1-2.56 0c-.756-.433-.756-1.133 0-1.538a2.852 2.852 0 0 1 2.529.042l.03.018zm-8.465-4.895c.703.428.695 1.081-.029 1.473a2.75 2.75 0 0 1-2.548-.018c-.76-.441-.76-1.113.018-1.52a2.852 2.852 0 0 1 2.52.042l.039.023zm-8.504-4.915c.703.407.718 1.08.029 1.496-.8.412-1.75.412-2.551 0l-.044-.026c-.778-.449-.778-1.058 0-1.501a2.867 2.867 0 0 1 2.566.03z"/>
                </g>
            </g>
        </g>
    </g>
</svg>
