<svg xmlns="http://www.w3.org/2000/svg" width="376" height="123" viewBox="0 0 376 123">
    <defs>
        <filter id="a" width="231%" height="263.8%" x="-65.5%" y="-81.9%" filterUnits="objectBoundingBox">
            <feGaussianBlur in="SourceGraphic" stdDeviation="7.973"/>
        </filter>
        <filter id="b" width="274.3%" height="299.5%" x="-87.2%" y="-99.8%" filterUnits="objectBoundingBox">
            <feGaussianBlur in="SourceGraphic" stdDeviation="7.973"/>
        </filter>
        <linearGradient id="c" x1="5.291%" x2="96.119%" y1="54.307%" y2="44.859%">
            <stop offset="0%" stop-color="#FFF"/>
            <stop offset="100%" stop-color="#F4F7FD"/>
        </linearGradient>
        <filter id="d" width="159.5%" height="203.5%" x="-29.8%" y="-51.7%" filterUnits="objectBoundingBox">
            <feGaussianBlur in="SourceGraphic" stdDeviation="8"/>
        </filter>
    </defs>
    <g fill="none" fill-rule="evenodd">
        <path fill="#6F83CD" d="M330 54.905c0 3.254 1.998 7.067 4.44 8.477l17.98 10.385c2.44 1.41 4.44-.1 4.44-3.354V45.39c0-3.254-2-7.068-4.44-8.477l-17.98-10.384c-.621-.36-1.213-.53-1.752-.528-1.577 0-2.688 1.456-2.688 3.88v25.025z" opacity=".9"/>
        <path fill="#3851AE" d="M322 46.905c0 3.254 1.998 6.067 4.44 7.477l16.98 10.385c2.44 1.41 4.44-.1 4.44-3.354V48.39c0-3.254-2-7.068-4.44-8.477l-16.98-10.384c-.621-.36-1.213-.53-1.752-.528-1.577 0-2.688 1.456-2.688 3.88v14.025z"/>
        <path fill="#A2AFDB" d="M334.637 38.27c-3.758-2.353-6.808-.622-6.808 3.864 0 2.312.806 4.9 2.11 7.193v.01c1.219 2.151 2.876 4.047 4.698 5.188 1.822 1.142 3.482 1.323 4.701.688 1.303-.661 2.108-2.24 2.108-4.555 0-4.485-3.05-10.035-6.809-12.388"/>
        <path fill="#FFF" d="M334.637 47.782c1.265.791 2.284.205 2.284-1.294 0-1.5-1.019-3.362-2.284-4.154-1.255-.787-2.281-.204-2.281 1.296 0 1.499 1.026 3.366 2.281 4.152M334.637 48.321c-2.166-1.358-4.007-.863-4.699 1.007v.01c1.22 2.15 2.877 4.046 4.7 5.188 1.821 1.14 3.48 1.321 4.7.687-.692-2.735-2.533-5.535-4.7-6.892"/>
        <path fill="#8292C2" fill-opacity=".5" d="M6.999 86.954L29.52 100.23c3.866 2.086 6.999 6.917 6.999 10.79 0 3.874-3.133 5.323-6.999 3.237L7 100.981C3.133 98.895 0 94.064 0 90.19c0-3.874 3.133-5.323 6.999-3.237z" filter="url(#a)" transform="translate(322 -17)"/>
        <path stroke="#4E67C2" d="M211 85.99l44.453 25.862a17 17 0 0 0 17.539-.266L343.43 67.7"/>
        <path fill="#FC9E99" d="M21 65.905c0 3.254 1.998 7.067 4.44 8.477l19.898 10.102c2.442 1.41 4.442-.1 4.442-3.353V56.107c0-3.254-2-7.068-4.442-8.477L25.44 37.528c-.621-.36-1.213-.53-1.752-.528C22.111 37 21 38.456 21 40.88v25.025z" opacity=".26"/>
        <path fill="#FE7F79" d="M13 57.905c0 3.254 1.998 6.067 4.44 7.477l18.898 10.102c2.442 1.41 4.442-.1 4.442-3.353V59.107c0-3.254-2-7.068-4.442-8.477L17.44 40.528c-.621-.36-1.213-.53-1.752-.528C14.111 40 13 41.456 13 43.88v14.025z" opacity=".746"/>
        <g fill="#FFF">
            <path d="M25.637 49.27c-3.758-2.353-6.808-.622-6.808 3.864 0 2.312.806 4.9 2.11 7.193v.01c1.219 2.151 2.876 4.047 4.698 5.188 1.822 1.142 3.482 1.323 4.701.688 1.303-.661 2.108-2.24 2.108-4.555 0-4.485-3.05-10.035-6.809-12.388" opacity=".568"/>
            <path d="M25.637 58.782c1.265.791 2.284.205 2.284-1.294 0-1.5-1.019-3.362-2.284-4.154-1.255-.787-2.281-.204-2.281 1.296 0 1.499 1.026 3.366 2.281 4.152M25.637 59.321c-2.166-1.358-4.007-.863-4.699 1.007v.01c1.22 2.15 2.877 4.046 4.7 5.188 1.821 1.14 3.48 1.321 4.7.687-.692-2.735-2.533-5.535-4.7-6.892"/>
        </g>
        <path fill="#8292C2" fill-opacity=".5" d="M10.999 88.954l13.447 8.043c3.865 2.086 6.999 6.917 6.999 10.79 0 3.874-3.134 5.323-6.999 3.237l-13.447-8.043C7.133 100.895 4 96.064 4 92.19c0-3.874 3.133-5.323 6.999-3.237z" filter="url(#b)" transform="translate(13 -6)"/>
        <path stroke="#FD9994" d="M39 52.984l49.506-29.192a16 16 0 0 1 16.254 0l44.233 26.083"/>
        <g>
            <path fill="#7C98FF" d="M244.002 96.257l-11.287 6.503-5.269 1.245v2.634a1.33 1.33 0 0 0 0 .177v.041h.001c.053.675.566 1.376 1.527 1.93l14.456 8.329c1.855 1.069 4.662 1.185 6.269.259l15.478-8.918c.757-.437 1.108-1.028 1.078-1.641h.004v-2.668l-4.97-1.283-11.019-6.35c-1.014-.584-2.314-.883-3.546-.883-1.02 0-1.994.205-2.722.625" opacity=".23"/>
            <path fill="url(#c)" d="M17.003.625L1.528 9.543c-.72.415-1.077.969-1.085 1.55v.038c.01.704.53 1.444 1.535 2.024l14.454 8.33c1.855 1.068 4.66 1.184 6.267.258l15.476-8.918c1.606-.925 1.405-2.542-.45-3.612L23.271.884C22.256.3 20.957 0 19.725 0c-1.02 0-1.994.206-2.722.625" transform="translate(227 93)"/>
        </g>
        <g>
            <path fill="#7C98FF" d="M64.002 24.257L52.715 30.76l-5.269 1.245v2.634a1.33 1.33 0 0 0 0 .177v.041h.001c.053.675.566 1.376 1.527 1.93l14.456 8.329c1.855 1.069 4.662 1.185 6.269.259l15.478-8.918c.757-.437 1.108-1.028 1.078-1.641h.004v-2.668l-4.97-1.283-11.019-6.35c-1.014-.584-2.314-.883-3.546-.883-1.02 0-1.994.205-2.722.625" opacity=".23"/>
            <path fill="url(#c)" d="M17.003.625L1.528 9.543c-.72.415-1.077.969-1.085 1.55v.038c.01.704.53 1.444 1.535 2.024l14.454 8.33c1.855 1.068 4.66 1.184 6.267.258l15.476-8.918c1.606-.925 1.405-2.542-.45-3.612L23.271.884C22.256.3 20.957 0 19.725 0c-1.02 0-1.994.206-2.722.625" transform="translate(47 21)"/>
        </g>
        <g>
            <path fill="#7C98FF" d="M113.002 21.257l-11.287 6.503-5.269 1.245v2.634a1.33 1.33 0 0 0 0 .177v.041h.001c.053.675.566 1.376 1.527 1.93l14.456 8.329c1.855 1.069 4.662 1.185 6.269.259l15.478-8.918c.757-.437 1.108-1.028 1.078-1.641h.004v-2.668l-4.97-1.283-11.019-6.35c-1.014-.584-2.314-.883-3.546-.883-1.02 0-1.994.205-2.722.625" opacity=".23"/>
            <path fill="url(#c)" d="M17.003.625L1.528 9.543c-.72.415-1.077.969-1.085 1.55v.038c.01.704.53 1.444 1.535 2.024l14.454 8.33c1.855 1.068 4.66 1.184 6.267.258l15.476-8.918c1.606-.925 1.405-2.542-.45-3.612L23.271.884C22.256.3 20.957 0 19.725 0c-1.02 0-1.994.206-2.722.625" transform="translate(96 18)"/>
            <g fill="#F57972" fill-rule="nonzero">
                <path d="M124.836 28.78c.625.36.757.616.387.896l-.35.204a3.463 3.463 0 0 1-.181.082L120 32.007c-.733.32-1.127.304-1.79-.077l-1.438-.836-1.923-1.112c-.559-.322-1.115-.646-1.673-.968-.541-.31-1.08-.62-1.627-.928h-.01a.808.808 0 0 1-.125-.097.927.927 0 0 0-.141-.107.458.458 0 0 0-.458.015c-.385.191-.202.333.034.47l.159.09 2.922 1.685 2.922 1.685.202.115c.068.038.132.08.194.127.312.242.325.5-.01.73-.373.23-.833.27-1.24.107a3.499 3.499 0 0 1-.572-.272 2706.816 2706.816 0 0 1-6.612-3.817c-.738-.427-.778-.667-.18-1.155 1.796-1.462 3.597-2.923 5.402-4.384.474-.387.478-.387-.114-.73-.668-.391-.789-.698-.332-.972.456-.275 1.073-.22 1.741.159l.503.286c.144.083.288.168.429.254.63.38.695.628.134 1.047-.367.272-.283.43.104.653l.012.008c1.46.833 2.914 1.669 4.363 2.508l3.959 2.288zm-6.77-2.28a.557.557 0 0 0-.585.007c-1.033.506-1.039.502-.07 1.062l.042.018.393.229.296.17c.11.062.244.139.397.078.347-.139.673-.326.967-.556.109-.085.01-.168-.105-.235-.444-.258-.891-.514-1.335-.773zm-4.068-1.206c-.135.114-.15.215.035.323.246.135.493.277.735.416l.725.421c.203.118.377.09.585-.01 1.004-.475 1.004-.516.088-1.047l-.202-.114-.16-.094-.081-.046-.108-.062-.222-.13a4.668 4.668 0 0 0-.178-.105c-.462-.267-.468-.173-1.217.448zm-.523 2.275c.253.145.48.117.742-.04.774-.456.877-.476.484-.705l-.151-.085-.19-.107-.127-.075-.04-.024-.081-.046-.36-.204c-.07-.04-.138-.08-.203-.123l-.045-.027a.485.485 0 0 0-.628.06c-.658.572-.811.559-.343.83l.145.082.18.103.156.09.048.03.115.061.126.07.114.073.058.037zm2.622 1.516c.291.169.527.148.843-.037.737-.446.844-.452.422-.696l-.13-.073-.15-.087-.127-.073-.054-.032-.114-.063a4.141 4.141 0 0 1-.21-.114l-.229-.137a3.024 3.024 0 0 0-.184-.114c-.406-.229-.414-.133-1.258.343-.242.138-.242.25-.013.381l.015.01c.212.117.424.24.633.355a11.768 11.768 0 0 1 .556.337zm3.464 1.67c.313-.178.84-.231.95-.52.016-.042-.107-.11-.182-.156-.106-.064-.213-.126-.32-.189l-.163-.093-.161-.092-.08-.047c-1.177-.675-1.177-.675-2.029-.103a.32.32 0 0 1-.039.024c-.21.116-.182.223.012.337l.817.47.596.344c.18.116.41.125.6.025zm3.172-1.43c.083-.074.023-.14-.086-.2a1.896 1.896 0 0 0-.174-.086 2.32 2.32 0 0 1-.213-.112 3.001 3.001 0 0 0-.215-.135l-.343-.195-.241-.14-.164-.093-.161-.092-.165-.096-.145-.086c-.43-.248-.442-.172-1.291.314-.234.134-.256.244-.02.38l.014.008c.256.144.51.29.764.436l.38.22.365.212.154.087.03.017.025.016c.08.06.182.084.281.07.478-.114.937-.285 1.205-.525zm-13.837.212c.561.325.552.866-.002 1.187-.554.322-1.493.32-2.05 0-.557-.326-.565-.862 0-1.187.565-.325 1.49-.324 2.052 0zm5.978 3.446c.545.32.566.858.019 1.186-.547.329-1.487.328-2.06 0-.58-.335-.573-.844.017-1.18.557-.319 1.451-.325 2.008-.015l.016.009z"/>
            </g>
        </g>
        <g>
            <path fill="#7C98FF" d="M300.002 82.257l-11.287 6.503-5.269 1.245v2.634a1.33 1.33 0 0 0 0 .177v.041h.001c.053.675.566 1.376 1.527 1.93l14.456 8.329c1.855 1.069 4.662 1.185 6.269.259l15.478-8.918c.757-.437 1.108-1.028 1.078-1.641h.004v-2.668l-4.97-1.283-11.019-6.35c-1.014-.584-2.314-.883-3.546-.883-1.02 0-1.994.205-2.722.625" opacity=".23"/>
            <path fill="url(#c)" d="M17.003.625L1.528 9.543c-.72.415-1.077.969-1.085 1.55v.038c.01.704.53 1.444 1.535 2.024l14.454 8.33c1.855 1.068 4.66 1.184 6.267.258l15.476-8.918c1.606-.925 1.405-2.542-.45-3.612L23.271.884C22.256.3 20.957 0 19.725 0c-1.02 0-1.994.206-2.722.625" transform="translate(283 79)"/>
        </g>
        <g fill="#BEDAFF">
            <path d="M179.406 34.782c-1.877 0-3.666.377-4.999 1.148l-51.695 29.883c-1.195.691-1.853 1.63-1.853 2.641 0 1.264.988 2.559 2.714 3.556l49.972 28.887c3.429 1.985 8.623 2.207 11.578.499l51.696-29.884c1.195-.69 1.853-1.628 1.853-2.64 0-1.263-.99-2.56-2.716-3.557l-49.97-28.887c-1.883-1.088-4.296-1.646-6.58-1.646m.718 68.608c-2.44 0-5.01-.592-7.008-1.748l-49.972-28.887c-1.998-1.156-3.144-2.722-3.144-4.3 0-1.332.81-2.535 2.282-3.386l51.695-29.883c3.193-1.845 8.77-1.622 12.438.498l49.97 28.887c1.999 1.155 3.144 2.722 3.144 4.3 0 1.333-.81 2.534-2.281 3.385l-51.696 29.884c-1.45.838-3.395 1.25-5.428 1.25"/>
            <path d="M179.406 34.782c-1.877 0-3.666.377-4.999 1.148l-51.695 29.883c-1.195.691-1.853 1.63-1.853 2.641 0 1.264.988 2.559 2.714 3.556l49.972 28.887c3.429 1.985 8.623 2.207 11.578.499l51.696-29.884c1.195-.69 1.853-1.628 1.853-2.64 0-1.263-.99-2.56-2.716-3.557l-49.97-28.887c-1.883-1.088-4.296-1.646-6.58-1.646" opacity=".31"/>
        </g>
        <g>
            <path fill="#8292C2" fill-opacity=".5" fill-rule="nonzero" d="M43.334.749a3.601 3.601 0 0 0-3.22 0L2.06 22.624a.978.978 0 0 0 0 1.848l38.075 21.896c1.01.51 2.203.51 3.213 0l38.047-21.882a.978.978 0 0 0 0-1.855L43.334.749z" filter="url(#d)" opacity=".5" transform="translate(138 46)"/>
            <path fill="#7C98FF" d="M220.972 23H140v44.978c.034.402.284.755.657.923l38.24 21.718a3.603 3.603 0 0 0 3.226 0l38.211-21.727c.376-.166.63-.52.666-.924L220.972 23z" opacity=".23"/>
            <path fill="#536ABE" d="M182.122.39a3.536 3.536 0 0 0-3.225 0l-38.213 22.163a.99.99 0 0 0-.684.942c0 .43.277.812.684.943l38.213 22.173a3.536 3.536 0 0 0 3.225 0l38.194-22.173a.99.99 0 0 0 .684-.943.99.99 0 0 0-.684-.942L182.122.389z"/>
        </g>
        <g fill="#FEFEFF" fill-rule="nonzero">
            <path d="M194.923 17.678c.292 1.706-.246 3.318-1.614 4.835a10.11 10.11 0 0 1-1.97 1.656c-1.807 1.188-4.02 2.013-6.614 2.472-.24.044-.335.055-.376.032-.04-.023-.043-.085-.088-.192-.175-.416-.327-.833-.504-1.248-.054-.106.012-.135.173-.165a14.768 14.768 0 0 0 4.155-1.33c2.843-1.452 4.222-3.294 4.095-5.505-.084-1.45-.91-2.752-2.435-3.899a11.186 11.186 0 0 0-1.072-.71c-1.828-1.072-4.081-1.719-6.745-1.918-3.102-.23-5.94.202-8.434 1.3-2.773 1.223-4.335 2.865-4.641 4.892-.254 1.665.47 3.188 2.129 4.564.414.342.854.648 1.317.918a14.457 14.457 0 0 0 4.308 1.585c1.52.314 3.072.442 4.622.383.071-.01.144 0 .209.03a.17.17 0 0 1 .073.096c.172.452.349.894.537 1.353.05.105-.011.138-.177.138a24.512 24.512 0 0 1-5.092-.257 19.775 19.775 0 0 1-5.044-1.454 15.846 15.846 0 0 1-1.485-.762c-1.413-.823-2.499-1.793-3.24-2.91-1.159-1.748-1.315-3.53-.497-5.337.481-1.06 1.302-2.023 2.435-2.895l.53-.383.908-.534.603-.356a16.587 16.587 0 0 1 2.827-1.128 23.214 23.214 0 0 1 7.776-.918c2.487.087 4.941.606 7.255 1.533.388.16.748.346 1.134.513l.732.44.735.425c.278.222.589.429.863.658 1.479 1.227 2.36 2.587 2.612 4.078zm-10.3 15.432c.118.263.231.526.36.772.036.073.017.126-.094.177-.644.306-1.279.618-1.925.921a.258.258 0 0 1-.198 0 .22.22 0 0 1-.095-.104c-.549-1.233-1.1-2.464-1.651-3.695-.043-.083-.022-.148.12-.214.642-.301 1.274-.609 1.914-.914.094-.047.139-.062.17-.047a.19.19 0 0 1 .056.087c.448 1.014.896 2.02 1.343 3.017zm-1.63 3.891l.014-.004v.006l-.014-.002zm4.403-6.48c.113.081.197.209.236.358.433 1.362.909 2.714 1.368 4.068l-.077.053c-.747-.153-1.492-.309-2.242-.457a.434.434 0 0 1-.147-.055.216.216 0 0 1-.084-.122c-.462-1.4-.94-2.8-1.41-4.197a.556.556 0 0 0-.025-.072c-.038-.086-.008-.115.127-.086.605.122 1.209.27 1.813.361.154.015.304.065.441.148zm-4.235-6.88c-.135-.36-.285-.718-.45-1.07-.043-.1-.009-.139.16-.173a8.04 8.04 0 0 0 3.126-1.267c1.135-.79 1.67-1.706 1.615-2.733-.056-.96-.6-1.807-1.67-2.532a5.805 5.805 0 0 0-.461-.293c-1.414-.815-3.16-1.21-5.211-1.19-1.495-.01-2.973.31-4.329.937-2.453 1.174-3.283 3.104-1.992 4.787.431.55.967 1.009 1.577 1.351 1.144.661 2.64 1.043 4.465 1.151.122-.005.244.006.364.033.044.025.05.078.104.204.138.337.265.675.41 1.009.049.101.023.145-.182.145-2.274.005-4.321-.38-6.095-1.209-.3-.14-.583-.288-.846-.44-1.75-1.008-2.668-2.263-2.742-3.745-.069-1.347.665-2.544 2.12-3.594.196-.136.412-.265.578-.366 3.208-1.895 8.398-2.208 12.2-.654.477.19.94.415 1.384.67 1.675.962 2.583 2.18 2.703 3.633.108 1.349-.583 2.56-2.025 3.624-1.18.868-2.69 1.466-4.505 1.814a.358.358 0 0 1-.23 0 .17.17 0 0 1-.068-.092zm-4.71-4.645c-.18.015-.213.06-.172.163.354.897.695 1.794 1.04 2.69.063.163.06.166-.207.137a6.373 6.373 0 0 1-2.614-.823c-1.16-.705-1.76-1.746-1.389-2.77.513-1.403 2.458-2.377 4.845-2.391a7.093 7.093 0 0 1 3.226.696c.129.062.243.127.357.196 1.685 1.005 1.97 2.657.563 3.875a3.28 3.28 0 0 1-.52.373 5.578 5.578 0 0 1-1.63.67c-.14.028-.214.047-.243.028-.03-.019-.046-.06-.074-.129l-1.077-2.813c-.03-.076-.037-.11-.08-.14-.044-.032-.113-.022-.273 0-.586.08-1.17.164-1.753.238zm7.305 14.334c.074.174.143.348.223.511.014.038.045.075-.014.113a2.392 2.392 0 0 1-.474.046h-.045c-.045-.018-.045-.055-.045-.082-.316-.738-.63-1.472-.948-2.203a9179.67 9179.67 0 0 1-2.971-6.87 961.316 961.316 0 0 0-2.47-5.685c-.036-.083.007-.117.156-.132.23-.02.323-.04.36-.02.039.02.053.07.098.179l3.082 7.091 3.048 7.052z"/>
        </g>
        <g fill="#536ABE" fill-rule="nonzero">
            <path d="M73.075 34.986c.075-.009.151-.03.241-.004-.018.059-.103.087-.165.124-1.404.816-2.823 1.623-4.206 2.451a3.074 3.074 0 0 1-2.612.256l-1.647-.95-.474-.274c.005-.063.015-.125.015-.188l-.03-5.493c-.001-.173 0-.173.292-.173h4.81c.13 0 .197-.003.227.015.031.018.006.056-.049.134-.466.672-.7 1.377-.899 2.087-.213.76-.324 1.526-.493 2.289-.011.052-.002.081.025.097.035.02.099.019.186.013 1.597-.111 3.197-.211 4.779-.384zm4.584-5.12c.957.683 1.244 1.465.917 2.339-.137.37-.435.691-.787.997l-.734.453c-1.526.703-3.335.915-5.155 1.104-.889.093-1.786.156-2.679.236-.088.007-.154.01-.19-.012-.027-.017-.038-.05-.027-.105.19-.999.391-1.997.79-2.974a4.64 4.64 0 0 1 1.16-1.7c1.259-1.169 3.64-1.54 5.645-.876.294.098.538.238.805.359l.185.113a.63.63 0 0 0 .07.066zm-1.84 2.5c.714-.44.723-1.154.02-1.586l-.013-.008c-.72-.434-1.854-.428-2.57.008-.676.411-.748 1.111.01 1.578l.006.003c.772.47 1.898.415 2.548.005zm-12.494-1.504c.007 1.705.015 3.41.025 5.115 0 .033.01.067-.025.097l-5.995-3.458c-.316-.305-.43-.625-.23-.971.093-.156.225-.285.383-.374.263-.154.53-.306.79-.462.093-.055.2-.08.307-.076 1.508.003 3.016.003 4.523 0a.372.372 0 0 1 .173.027.105.105 0 0 1 .049.102zm6.414-.632l-10.134-.004c-.08 0-.157-.004-.253-.004.015-.07.09-.093.145-.125 2.155-1.254 4.32-2.502 6.466-3.763.77-.453 2.002-.435 2.738-.009l.012.007a324.624 324.624 0 0 0 2.847 1.65l1.235.712c.197.113.191.122-.062.178-1.082.24-1.9.667-2.543 1.213-.116.099-.231.145-.45.145z"/>
        </g>
        <g fill="#3952AE" fill-rule="nonzero">
            <path d="M313.41 91.158c.007.004.013.01.017.018.01.018-.003.032-.023.044l-.013.008c-.014.007-.027.013-.038.02l-.914.532-.026.02a8371.36 8371.36 0 0 0-5.148 2.989c-.27.157-.587.232-.97.194a1.13 1.13 0 0 1-.456-.131c-.538-.311-1.077-.621-1.618-.93-.49-.283-.984-.562-1.473-.844l-.027-.016c-.4-.23-.792-.463-1.188-.693l-.381-.22-.61-.352-.009.005-1.24-.715-.087-.048-.843-.488c-.614-.358-1.222-.717-1.835-1.074l-.213-.122-.29-.168-.276-.158-.401-.234c-.414-.242-.413-.59.003-.832l6.103-3.547c.044-.025.082-.071.15-.058a.11.11 0 0 1 .034.011c.039.022.021.064.026.096.33 1.993.653 3.986.972 5.979.004.047.03.09.072.115a.475.475 0 0 0 .204.04l10.249.537c.044.003.089.004.133.008.039.004.088-.002.115.014zm.585-.744c.07.12.048.14-.165.128l-2.48-.132-7.327-.386c-.208-.012-.297-.01-.34-.035-.042-.025-.036-.077-.055-.192l-.747-4.573-.18-1.116c-.017-.115.006-.124.198-.092.185.033.363.1.525.197l4.62 2.668.502.29 2.555 1.476 2.556 1.476h.003c.146.085.268.176.335.29z"/>
        </g>
        <g fill="#F57972" fill-rule="nonzero">
            <path d="M249.72 104.926c.048.028.09.067.122.112 1.114 1.547.459 3.547-1.555 4.736-.494.29-.745.29-1.258-.006l-1.775-1.026-3.55-2.05-3.551-2.05-1.775-1.021c-.431-.253-.5-.408-.171-.62l.12-.07.044-.024c2.394-1.245 5.129-1.531 8.162-.925a.679.679 0 0 1 .212.072.28.28 0 0 1 .134.165c.232.727.753 1.324 1.52 1.767.768.444 1.786.737 3.022.863a.74.74 0 0 1 .299.077zm3.807-5.114c1.903 1.1 1.936 2.853.064 3.944-1.873 1.092-4.948 1.103-6.835.019l-.012-.007c-1.87-1.078-1.88-2.865-.014-3.95 1.865-1.087 4.91-1.09 6.789-.01l.008.004z"/>
        </g>
    </g>
</svg>
