<svg xmlns="http://www.w3.org/2000/svg" xmlns:xlink="http://www.w3.org/1999/xlink" width="300" height="198" viewBox="0 0 300 198">
    <defs>
        <filter id="a" width="166%" height="147.3%" x="-32.4%" y="-23.6%" filterUnits="objectBoundingBox">
            <feOffset dy="5" in="SourceAlpha" result="shadowOffsetOuter1"/>
            <feGaussianBlur in="shadowOffsetOuter1" result="shadowBlurOuter1" stdDeviation="3"/>
            <feColorMatrix in="shadowBlurOuter1" result="shadowMatrixOuter1" values="0 0 0 0 0.590106528 0 0 0 0 0.638625359 0 0 0 0 0.823879076 0 0 0 0.357517483 0"/>
            <feMerge>
                <feMergeNode in="shadowMatrixOuter1"/>
                <feMergeNode in="SourceGraphic"/>
            </feMerge>
        </filter>
        <path id="b" d="M10.173 13.346c-6.225-3.6-9-8.31-9.05-13.029V43.94c-.048 4.792 2.727 9.594 9.05 13.25 12.55 7.258 32.897 7.258 45.447 0 6.323-3.656 9.59-8.458 9.54-13.25V.317c-.048 4.718-3.314 9.429-9.54 13.03-12.55 7.255-32.897 7.255-45.447 0z"/>
        <filter id="c" width="216.6%" height="245.8%" x="-58.3%" y="-72.9%" filterUnits="objectBoundingBox">
            <feGaussianBlur in="SourceGraphic" stdDeviation="7.973"/>
        </filter>
        <path id="d" d="M3.82 7.26v4.462c.016.668.473 1.461 1.036 1.793l35.228 21.141c.574.338 1.04.067 1.041-.609v-10.87c.002-.673-.46-1.495-1.034-1.833L4.863.204a.924.924 0 0 0-.464-.145c-.342 0-.577.277-.578.753V7.26z"/>
        <path id="e" d="M0 9.667v4.462c.016.668.472 1.462 1.035 1.793l35.169 21.152c.574.338 1.04.067 1.042-.609v-10.87c.002-.673-.46-1.495-1.034-1.833L1.042 2.611a.924.924 0 0 0-.464-.145c-.341 0-.576.277-.577.753L0 9.667z"/>
        <path id="g" d="M2.78 6.446c1.359.801 2.464.172 2.49-1.403v-.105C5.244 3.342 4.15 1.428 2.794.63c-.4-.237-.78-.348-1.115-.348C.867.282.308.939.305 2.077.3 3.684 1.407 5.638 2.779 6.447z"/>
        <filter id="h" width="212.4%" height="258.2%" x="-56.2%" y="-79.1%" filterUnits="objectBoundingBox">
            <feGaussianBlur in="SourceGraphic" stdDeviation="8"/>
        </filter>
        <filter id="i" width="186.5%" height="254.1%" x="-43.2%" y="-77%" filterUnits="objectBoundingBox">
            <feGaussianBlur in="SourceGraphic" stdDeviation="8"/>
        </filter>
        <linearGradient id="j" x1="0%" y1="49.991%" y2="49.991%">
            <stop offset="0%" stop-color="#F2F4FA"/>
            <stop offset="92%" stop-color="#D6DCEE"/>
            <stop offset="100%" stop-color="#D3DAED"/>
        </linearGradient>
        <filter id="k" width="185.6%" height="252.6%" x="-42.8%" y="-76.3%" filterUnits="objectBoundingBox">
            <feGaussianBlur in="SourceGraphic" stdDeviation="8"/>
        </filter>
        <linearGradient id="l" x1="0%" y1="49.991%" y2="49.991%">
            <stop offset="0%" stop-color="#F2F4FA"/>
            <stop offset="92%" stop-color="#D6DCEE"/>
            <stop offset="100%" stop-color="#D3DAED"/>
        </linearGradient>
        <linearGradient id="m" x1="0%" x2="102.5%" y1="49.9%" y2="49.9%">
            <stop offset="15%" stop-color="#FF9800"/>
            <stop offset="100%" stop-color="#FFC107"/>
        </linearGradient>
    </defs>
    <g fill="none" fill-rule="evenodd">
        <g fill="#ABA6F6">
            <path d="M144.9 59.298c-2.109 0-4.118.424-5.615 1.29L81.207 94.161c-1.343.776-2.082 1.83-2.082 2.967 0 1.419 1.111 2.874 3.05 3.995l56.14 32.453c3.853 2.23 9.688 2.48 13.009.56l58.077-33.573c1.343-.776 2.082-1.83 2.082-2.966 0-1.42-1.112-2.875-3.05-3.996l-56.14-32.454c-2.115-1.222-4.827-1.85-7.392-1.85m.806 77.08c-2.742 0-5.627-.666-7.874-1.965l-56.14-32.453c-2.245-1.298-3.533-3.058-3.533-4.831 0-1.497.911-2.847 2.565-3.804L138.8 59.752c3.587-2.073 9.854-1.822 13.974.56l56.14 32.453c2.245 1.298 3.532 3.058 3.532 4.832 0 1.496-.91 2.846-2.564 3.802l-58.077 33.573c-1.63.942-3.814 1.405-6.099 1.405" opacity=".302"/>
            <path d="M144.9 59.298c-2.109 0-4.118.424-5.615 1.29L81.207 94.161c-1.343.776-2.082 1.83-2.082 2.967 0 1.419 1.111 2.874 3.05 3.995l56.14 32.453c3.853 2.23 9.688 2.48 13.009.56l58.077-33.573c1.343-.776 2.082-1.83 2.082-2.966 0-1.42-1.112-2.875-3.05-3.996l-56.14-32.454c-2.115-1.222-4.827-1.85-7.392-1.85" opacity=".126"/>
        </g>
        <g filter="url(#a)" transform="translate(112.988 31.457)">
            <path fill="#DBDBFF" d="M55.782 5.43c12.505 7.239 12.505 18.976 0 26.215-12.504 7.239-32.776 7.239-45.28 0-12.505-7.24-12.505-18.976 0-26.216 12.504-7.239 32.776-7.239 45.28 0"/>
            <use fill="#B4B4F2" transform="translate(0 17.975)" xlink:href="#b"/>
        </g>
        <path fill="#FC03AF" d="M163.213 21.826l-6.556 3.785c-.478.276-1.32.241-1.873-.078l-6.286-3.63c-.552-.318-.612-.804-.134-1.08l6.555-3.785c.478-.276 1.32-.241 1.872.078l6.287 3.63c.552.318.612.804.135 1.08"/>
        <path fill="#DE028B" d="M163.213 21.826l-6.556 3.785c-.23.133-.544.192-.87.184v24.11c.326.008.64-.05.87-.183l6.556-3.785c.25-.144.351-.346.313-.552V21.443c-.03.145-.133.279-.313.383"/>
        <path fill="#B60177" d="M148.05 45.316c-.049.237.104.5.448.699l6.286 3.63c.287.165.652.252 1.004.26v-24.11a2.162 2.162 0 0 1-1.004-.262l-6.286-3.63c-.263-.151-.413-.341-.448-.529v23.942z"/>
        <path fill="#12DFD1" d="M146.319 39.878c-.23.132-.544.192-.87.184v15.795c.326.008.64-.05.87-.183l6.555-3.785c.25-.145.351-.346.314-.552V35.711c-.03.144-1.948-.335-2.128-.23l-4.741 4.397z"/>
        <path fill="#29F1E3" d="M152.874 36.093l-6.555 3.785c-.478.276-1.32.241-1.873-.078l-6.286-3.63c-.552-.318-.613-.804-.135-1.08l6.556-3.785c.478-.276 1.32-.241 1.872.078l6.287 3.63c.552.318.612.804.134 1.08"/>
        <path fill="#00D3C5" d="M137.712 51.268c-.049.237.104.5.448.698l6.286 3.63a2.16 2.16 0 0 0 1.003.261V40.062a2.156 2.156 0 0 1-1.003-.262l-6.286-3.63c-.264-.151-.414-.341-.448-.529v15.627z"/>
        <path fill="#73EBFF" d="M142.764 47.934l-6.556 3.785c-.477.276-1.32.241-1.872-.078l-6.287-3.63c-.552-.318-.612-.804-.134-1.08l6.556-3.785c.477-.276 1.32-.241 1.872.078l6.287 3.63c.552.318.612.804.134 1.08"/>
        <path fill="#38E3FF" d="M142.764 47.934l-6.555 3.785c-.23.133-.545.192-.87.184v9.792c.325.008.64-.05.87-.184l6.555-3.784c.25-.145.351-.347.313-.552v-9.623c-.029.143-.132.278-.313.382"/>
        <path fill="#17DEFF" d="M127.602 57.106c-.049.237.104.5.447.698l6.287 3.63c.287.165.651.253 1.003.261v-9.792a2.157 2.157 0 0 1-1.003-.262l-6.287-3.63c-.263-.151-.413-.341-.447-.529v9.624z"/>
        <path stroke="#BEDAFF" d="M62.002 150.543l50.345-31.457M179.272 76.395l50.345-31.457M229.617 150.543l-50.345-31.457M110.53 76.395L60.185 44.938"/>
        <g>
            <path fill="#6F83CD" d="M216.346 32.474c0 3.655 2.244 7.939 4.988 9.523l20.199 11.667c2.743 1.583 4.99-.112 4.99-3.768V21.782c0-3.655-2.247-7.94-4.99-9.523L221.333.593c-.697-.403-1.362-.594-1.967-.593-1.772 0-3.02 1.636-3.02 4.36v28.114z" opacity=".9"/>
            <path fill="#3851AE" d="M207.358 23.486c0 3.656 2.245 6.816 4.988 8.4l19.076 11.667c2.743 1.583 4.989-.112 4.989-3.768V25.153c0-3.656-2.246-7.94-4.99-9.523L212.347 3.963c-.698-.403-1.363-.594-1.968-.593-1.772 0-3.02 1.636-3.02 4.36v15.756z"/>
            <path fill="#A2AFDB" d="M221.555 13.785c-4.221-2.643-7.648-.7-7.648 4.34 0 2.599.905 5.505 2.37 8.082v.012c1.37 2.416 3.231 4.546 5.278 5.828 2.047 1.282 3.912 1.485 5.282.773 1.463-.743 2.368-2.518 2.368-5.117 0-5.04-3.428-11.275-7.65-13.918"/>
            <path fill="#FFF" d="M221.555 24.47c1.422.89 2.566.231 2.566-1.453 0-1.685-1.144-3.777-2.566-4.666-1.41-.884-2.563-.23-2.563 1.456 0 1.684 1.153 3.78 2.563 4.664M221.555 25.077c-2.433-1.526-4.502-.97-5.279 1.13v.012c1.37 2.416 3.232 4.545 5.28 5.828 2.046 1.282 3.91 1.485 5.28.772-.776-3.072-2.845-6.217-5.28-7.742"/>
            <path fill="#8292C2" fill-opacity=".5" d="M7.863 49.38l25.303 14.917c4.342 2.343 7.863 7.77 7.863 12.122s-3.52 5.98-7.863 3.637L7.863 65.139C3.52 62.796 0 57.369 0 53.017s3.52-5.98 7.863-3.637z" filter="url(#c)" transform="translate(207.358)"/>
        </g>
        <g>
            <path fill="#978FF7" d="M81.263 30.162c0 1.952-1.175 4.24-2.612 5.086L40.718 57.552c-1.437.846-2.614-.06-2.614-2.012V33.324c0-1.952 1.177-4.24 2.614-5.086L78.65 5.934c.365-.216.714-.317 1.03-.317.929 0 1.582.874 1.582 2.329v22.216z" opacity=".746"/>
            <g transform="matrix(-1 0 0 1 86.85 9.159)">
                <use fill="#F2F1FF" opacity=".2" xlink:href="#d"/>
                <mask id="f" fill="#fff">
                    <use xlink:href="#e"/>
                </mask>
                <path fill="#DFDCFF" d="M0 9.667v4.462c.016.668.472 1.462 1.035 1.793l35.169 21.152c.574.338 1.04.067 1.042-.609v-10.87c.002-.673-.46-1.495-1.034-1.833L1.042 2.611a.924.924 0 0 0-.464-.145c-.341 0-.576.277-.577.753L0 9.667z" mask="url(#f)"/>
            </g>
            <path fill="#8292C2" fill-opacity=".5" d="M6.34 38.776l34.505 20.667c2.26 1.265 4.093 4.196 4.093 6.546 0 2.35-1.832 3.229-4.093 1.963L6.34 47.286C4.08 46.02 2.247 43.09 2.247 40.74c0-2.35 1.832-3.23 4.093-1.964z" filter="url(#h)" opacity=".498" transform="matrix(-1 0 0 1 87.148 5.617)"/>
        </g>
        <g fill="#3851AD" fill-rule="nonzero">
            <path d="M56.165 34.497l-.914-1.59-.902 2.638-2.028 1.51 1.473.797-.34 2.524 1.812-2.145 1.819.048-.354-2.122 1.464-2.493zM62.578 30.795l-.915-1.59-.901 2.637-2.03 1.511 1.475.797-.34 2.523 1.812-2.144 1.818.048-.353-2.122 1.464-2.493zM68.99 27.091l-.914-1.589-.901 2.638-2.03 1.51 1.475.798-.341 2.523 1.813-2.144 1.818.047-.353-2.122 1.464-2.494zM75.403 23.39l-.914-1.59-.903 2.638-2.028 1.511 1.473.797-.34 2.523 1.813-2.144 1.819.048-.355-2.123 1.465-2.494zM83.948 18.758l-2.101.861-.946-1.644-.936 2.729-2.099 1.563 1.525.824-.352 2.612 1.873-2.22 1.881.05-.366-2.195 1.52-2.58zm-1.276 4.649l-1.755-.047-1.75 2.07.328-2.434-1.423-.77 1.96-1.458.87-2.541.882 1.534 1.959-.803-1.412 2.408.34 2.04z"/>
        </g>
        <g fill-rule="nonzero">
            <path fill="#8292C2" fill-opacity=".5" d="M29.819.503a2.532 2.532 0 0 0-2.216 0L1.417 15.196a.658.658 0 0 0-.455.62c0 .28.183.53.455.621l26.201 14.707a2.507 2.507 0 0 0 2.21 0L56.01 16.447a.658.658 0 0 0 .462-.624.658.658 0 0 0-.462-.623L29.819.503z" filter="url(#i)" opacity=".5" transform="translate(14.378 149.116)"/>
            <path fill="url(#j)" d="M58.473 15.577H3.109v30.908a.768.768 0 0 0 .449.635l26.146 14.924c.693.35 1.513.35 2.206 0l26.127-14.93a.769.769 0 0 0 .455-.635l-.019-30.902z" transform="translate(13 117.963)"/>
            <path fill="#F6F8FB" d="M44.91 118.22a2.485 2.485 0 0 0-2.206 0l-26.127 14.692a.658.658 0 0 0-.468.624c0 .286.189.538.468.625l26.127 14.697a2.485 2.485 0 0 0 2.206 0l26.114-14.697a.658.658 0 0 0 .468-.625.658.658 0 0 0-.468-.624L44.91 118.22z"/>
            <g fill="#DE028B">
                <path d="M39.465 135.698c-.145.083-.12.15-.066.245.273.494-.073 1.028-.818 1.282a3.05 3.05 0 0 1-2.332-.156h-.014c-.641-.37-.763-.918-.31-1.365.453-.447 1.352-.641 2.186-.483.183.05.379.019.538-.085 2.456-1.435 4.914-2.864 7.376-4.289.051-.03.096-.064.177-.115h-.166c-3.295.397-6.589.798-9.88 1.2a.966.966 0 0 0-.481.214c-.524.483-1.017.979-1.522 1.479l-1.824 1.773-.244-.138-.113-.067-.214-.124c-.048-.03-.1-.057-.154-.083a.991.991 0 0 0-.895 0c-.246.148-.252.348-.015.526l.073.045.096.055 2.295 1.325.948.547 4.678 2.699.047.027.038.022c.29.163.643.17.94.019.265-.154.26-.368-.025-.545-.08-.05-.163-.096-.246-.145l-.427-.248c1.87-.641 3.685-1.282 5.508-1.904a.716.716 0 0 0 .513-.427c.444-1.282.904-2.564 1.357-3.846.213-.618.427-1.235.675-1.904-.103.049-.135.062-.16.077a3014 3014 0 0 1-7.539 4.389z"/>
                <path d="M59.58 133.352a1.639 1.639 0 0 0-.26-.19 2.991 2.991 0 0 0-1.951-.261.562.562 0 0 1-.428-.062c-.783-.458-1.567-.913-2.35-1.368l-1.848-1.051-.276-.158c.427-.252.831-.48 1.224-.712.428-.252.428-.427 0-.683l-1.685-.975-1.686-.972a1.03 1.03 0 0 0-1.203 0l-1.203.707-.272-.158-1.8-1.038-2.345-1.353c-.145-.083-.181-.147-.113-.267.23-.397.028-.835-.466-1.12a1.968 1.968 0 0 0-.318-.147 3.094 3.094 0 0 0-2.363.126c-.641.357-.789.925-.338 1.374.089.089.19.165.3.226.598.304 1.28.4 1.94.274a.746.746 0 0 1 .345 0c.32.177.641.357.96.545l.827.485-.306-.032c-.842-.075-1.68-.195-2.525-.214-3.44-.085-6.432.588-8.908 1.972-.314.176-.34.396-.084.556l.02.013c.3.144.65.134.942-.026.307-.158.602-.325.93-.468 3.234-1.407 6.754-1.701 10.559-.882a11.86 11.86 0 0 1 2.107.66l-.246.145c-.361.214-.727.417-1.081.628-.274.167-.295.379-.032.532l1.923 1.118 1.754 1.002a.968.968 0 0 0 .917-.017c.344-.194.68-.395 1.019-.592l.316-.184.096.077c1.513 1.32 2.094 2.778 1.722 4.331-.322 1.35-1.35 2.502-2.974 3.479-.282.17-.284.393-.032.538a1 1 0 0 0 .94-.03c.302-.175.594-.365.876-.57 2.385-1.813 3.108-3.831 2.171-6.053-.02-.045-.03-.092-.051-.156a.59.59 0 0 1 .092.032l.463.26.344.2c.257.149.515.296.778.441h.015c.152.088.188.163.118.291-.214.402-.017.827.472 1.109.122.07.25.128.384.17a3.043 3.043 0 0 0 2.35-.18c.623-.358.723-.928.24-1.372zM37.886 135.975a.882.882 0 0 0-.771.047.276.276 0 0 0 .013.515c.285.145.622.145.908 0 .278-.168.233-.337-.15-.562z"/>
            </g>
        </g>
        <g fill-rule="nonzero">
            <path fill="#8292C2" fill-opacity=".5" d="M30.11.508a2.557 2.557 0 0 0-2.238 0L1.432 15.344a.664.664 0 0 0-.46.626c0 .283.184.535.46.627l26.455 14.85c.702.346 1.53.346 2.232 0l26.437-14.84a.665.665 0 0 0 .467-.63.665.665 0 0 0-.467-.629L30.11.508z" filter="url(#k)" opacity=".5" transform="translate(227.848 148.796)"/>
            <path fill="url(#l)" d="M57.92 36.45H2.016v31.21a.776.776 0 0 0 .453.64L28.87 83.37c.7.353 1.528.353 2.228 0l26.381-15.076a.776.776 0 0 0 .46-.64l-.02-31.204z" transform="translate(227.58 96.617)"/>
            <path fill="#F6F8FB" d="M258.677 117.6a2.51 2.51 0 0 0-2.226 0l-26.383 14.833a.664.664 0 0 0-.472.631c0 .288.191.543.472.631l26.383 14.84a2.51 2.51 0 0 0 2.226 0l26.37-14.84a.664.664 0 0 0 .472-.63.664.664 0 0 0-.472-.632l-26.37-14.834z"/>
            <g transform="translate(244.432 96.617)">
                <path fill="#A3AFC6" d="M27.083 33.144a13.934 13.934 0 0 0-2.282-4.668 28.495 28.495 0 0 0-7.447-6.539C9.194 17.25 2.347 20.741.412 29.692A22.885 22.885 0 0 0 0 32.34c.288 2.066 1.916 4.178 4.832 5.885 5.885 3.407 14.823 3.78 19.936.83 2.694-1.576 2.694-3.746 2.315-5.91z"/>
                <path fill="#FFF" d="M16.961 19.87s.242 4.637-6.95 4.016c.28 3.151.28 3.524.28 3.524s6.35-1.962 6.67-4.956V19.87zM8.781 21.525c-.041.95.428 1.85 1.23 2.36-1.23 1.727-1.668 2.27-1.668 2.27s-1.236-3.146.15-4.689l.288.06z"/>
                <path fill="url(#m)" d="M8.853 25.5a.883.883 0 0 0 1.308.471c-.078-.96-.177-2.079-.177-2.079l-1.13 1.609z"/>
                <path fill="#36475D" d="M8.919 25.651s-2.917 4.577-3.753 12.737a17.981 17.981 0 0 0 3.452 1.498S9.193 28.2 10.056 26.05c-.19-.595-1.137-.399-1.137-.399z"/>
                <path fill="#FFBF51" d="M8.781 15.784h8.186v6.421H8.781z"/>
                <ellipse cx="12.868" cy="22.205" fill="#FFBF51" rx="4.093" ry="2.347"/>
                <path fill="#FDD786" d="M19.224 12.332c2.445-6.604-1-11.783-6.944-11.678-7.154.13-7.847 5.885-7.847 5.885a23.97 23.97 0 0 0 .177 4.694c-.177 1.373.536 9.338 3.164 10.116 2.629.778 7.337-.654 9.187-4.865.948.085 3.701-1.079 2.714-3.747a1.105 1.105 0 0 0-.451-.405z"/>
            </g>
        </g>
    </g>
</svg>
