<?xml version="1.0" encoding="UTF-8"?>
<svg width="382px" height="174px" viewBox="0 0 382 174" version="1.1" xmlns="http://www.w3.org/2000/svg" xmlns:xlink="http://www.w3.org/1999/xlink">
    <!-- Generator: Sketch 55.2 (78181) - https://sketchapp.com -->
    <title>Group 136</title>
    <desc>Created with Sketch.</desc>
    <defs>
        <path d="M0.623,0.515 L0.623,30.728 L16.013,21.784 C19.195,19.935 20.816,17.525 20.907,15.098 L20.907,15.098 L20.914,15.094 L20.914,15.018 C20.9158934,14.915 20.917,14.813 20.914,14.711 L20.914,14.711 L20.914,7.693 L16.763,8.451 C16.498,8.273 16.235,8.096 15.944,7.927 L15.944,7.927 L3.106,0.515 L0.623,0.515 Z" id="path-1"></path>
        <path d="M65.1341706,74.7725643 L30.1488533,54.4243533 C27.7174772,53.010592 28.025467,50.5173376 30.8328231,48.8846335 L97.8188622,9.92453294 C100.626218,8.29182888 104.912507,8.11269391 107.343883,9.52645522 L142.3292,29.8752516 C144.759995,31.2890129 144.452586,33.7816819 141.64523,35.4149714 L74.6591912,74.375072 C71.851835,76.0077761 67.5661279,76.186911 65.1341706,74.7725643" id="path-3"></path>
        <filter x="-18.9%" y="-46.2%" width="137.8%" height="192.3%" filterUnits="objectBoundingBox" id="filter-5">
            <feGaussianBlur stdDeviation="10" in="SourceGraphic"></feGaussianBlur>
        </filter>
        <path d="M65.1341706,74.7725643 L30.1488533,54.4243533 C27.7174772,53.010592 28.025467,50.5173376 30.8328231,48.8846335 L97.8188622,9.92453294 C100.626218,8.29182888 104.912507,8.11269391 107.343883,9.52645522 L142.3292,29.8752516 C144.759995,31.2890129 144.452586,33.7816819 141.64523,35.4149714 L74.6591912,74.375072 C71.851835,76.0077761 67.5661279,76.186911 65.1341706,74.7725643" id="path-6"></path>
        <path d="M36.6254405,66.1997329 L1.64012324,45.8515219 C-0.791252874,44.4377606 -0.48326307,41.9445062 2.32409305,40.3118021 L69.3101321,1.35170152 C72.1174883,-0.281002543 76.4037765,-0.460137517 78.8351527,0.953623797 L113.82047,21.3024202 C116.251265,22.7161815 115.943856,25.2088505 113.1365,26.84214 L46.1504611,65.8022406 C43.343105,67.4349446 39.0573978,67.6140796 36.6254405,66.1997329" id="path-8"></path>
        <polygon id="path-10" points="0 0.403777462 158.687205 0.403777462 158.687205 92.3764279 0 92.3764279"></polygon>
        <linearGradient x1="38.0881964%" y1="42.6248937%" x2="69.8810248%" y2="55.1510176%" id="linearGradient-12">
            <stop stop-color="#F0F1F4" offset="0%"></stop>
            <stop stop-color="#F3F6F9" offset="100%"></stop>
        </linearGradient>
        <linearGradient x1="66.7067576%" y1="33.0759029%" x2="32.3628208%" y2="66.9240971%" id="linearGradient-13">
            <stop stop-color="#D9E0F2" offset="0%"></stop>
            <stop stop-color="#C0C9E9" offset="100%"></stop>
        </linearGradient>
        <path d="M36.6254405,66.2195147 L1.64012324,45.8652232 C-0.791252874,44.4510395 -0.48326307,41.95704 2.32409305,40.3238481 L69.3101321,1.35210543 C72.1174883,-0.281086512 76.4037765,-0.460275015 78.8351527,0.953908759 L113.82047,21.3087858 C116.251265,22.7229695 115.943856,25.2163834 113.1365,26.8501609 L46.1504611,65.8219036 C43.343105,67.4550955 39.0573978,67.634284 36.6254405,66.2195147" id="path-14"></path>
        <linearGradient x1="21.9116725%" y1="37.6482445%" x2="65.9832526%" y2="56.9108919%" id="linearGradient-16">
            <stop stop-color="#D3DAED" offset="0%"></stop>
            <stop stop-color="#99A7D8" offset="100%"></stop>
        </linearGradient>
        <filter x="-109.8%" y="-157.4%" width="319.7%" height="414.8%" filterUnits="objectBoundingBox" id="filter-17">
            <feGaussianBlur stdDeviation="8" in="SourceGraphic"></feGaussianBlur>
        </filter>
        <linearGradient x1="100%" y1="49.9948618%" x2="5.32491043e-14%" y2="49.9948618%" id="linearGradient-18">
            <stop stop-color="#6E80BC" offset="0%"></stop>
            <stop stop-color="#6A7BB9" offset="35%"></stop>
            <stop stop-color="#5E6EB1" offset="74%"></stop>
            <stop stop-color="#5361A9" offset="100%"></stop>
        </linearGradient>
        <linearGradient x1="58.6436977%" y1="94.1220659%" x2="34.3138079%" y2="5.69634953%" id="linearGradient-19">
            <stop stop-color="#EBF2FA" offset="0%"></stop>
            <stop stop-color="#3851AE" stop-opacity="0.545454545" offset="100%"></stop>
        </linearGradient>
        <linearGradient x1="2835.07299%" y1="49.9958691%" x2="2935.10949%" y2="49.9958691%" id="linearGradient-20">
            <stop stop-color="#EBF2FA" offset="0%"></stop>
            <stop stop-color="#E6F1FA" offset="20%"></stop>
            <stop stop-color="#D9EDF9" offset="42%"></stop>
            <stop stop-color="#C2E6F9" offset="66%"></stop>
            <stop stop-color="#A3DDF8" offset="90%"></stop>
            <stop stop-color="#94D9F7" offset="100%"></stop>
        </linearGradient>
        <linearGradient x1="2791.26033%" y1="49.9984678%" x2="2891.26033%" y2="49.9984678%" id="linearGradient-21">
            <stop stop-color="#9BB8E0" offset="0%"></stop>
            <stop stop-color="#96B6DF" offset="39%"></stop>
            <stop stop-color="#89B1DE" offset="84%"></stop>
            <stop stop-color="#82AFDD" offset="100%"></stop>
        </linearGradient>
    </defs>
    <g id="Page-1" stroke="none" stroke-width="1" fill="none" fill-rule="evenodd">
        <g id="Benefit-Mobile-Application-Development-Services" transform="translate(-3129.000000, -576.000000)">
            <g id="Group-136" transform="translate(3130.000000, 551.000000)">
                <g id="Group-120" transform="translate(197.000000, 0.000000)">
                    <g id="Group-32" transform="translate(173.000000, 95.632000)">
                        <mask id="mask-2" fill="white">
                            <use xlink:href="#path-1"></use>
                        </mask>
                        <g id="Clip-31"></g>
                        <path d="M0.623,0.515 L0.623,30.728 L16.013,21.784 C19.195,19.935 20.816,17.525 20.907,15.098 L20.907,15.098 L20.914,15.094 L20.914,15.018 C20.9158934,14.915 20.917,14.813 20.914,14.711 L20.914,14.711 L20.914,7.693 L16.763,8.451 C16.498,8.273 16.235,8.096 15.944,7.927 L15.944,7.927 L3.106,0.515 L0.623,0.515 Z" id="Fill-30" mask="url(#mask-2)"></path>
                    </g>
                    <g id="Group-119" transform="translate(0.000000, 0.632000)"></g>
                </g>
                <g id="Group-111" transform="translate(0.000000, 25.000000)">
                    <g id="Group-40-Copy-7" transform="translate(191.489362, 80.744681)">
                        <path d="M50.3374811,91.042487 L2.25409826,63.1822834 C-1.08755469,61.2466008 -0.664257351,57.8329062 3.19413782,55.5974533 L95.2589128,2.2543689 C99.1173079,0.0189159874 105.008329,-0.226350629 108.349982,1.70933198 L156.433365,29.5703371 C159.774219,31.5060197 159.35172,34.9189127 155.493325,37.1551672 L63.4285503,90.4982516 C59.5701551,92.7337045 53.6799327,92.9789711 50.3374811,91.042487" id="Fill-1" stroke="#978FF7"></path>
                        <mask id="mask-4" fill="white">
                            <use xlink:href="#path-3"></use>
                        </mask>
                        <use id="Mask" stroke="#978FF7" xlink:href="#path-3"></use>
                        <path d="M30.3322147,72.6039753 L30.3323185,72.604032 C33.2429882,74.1958286 38.0272017,74.1958286 40.9396105,72.6039753 C43.6545776,71.1200389 43.6545776,68.9043179 40.9396105,67.418938 C38.0272017,65.8270847 33.2429882,65.8270847 30.3323943,67.4188398 C27.6172476,68.9043179 27.6172476,71.1200389 30.3322147,72.6039753 Z" id="Fill-33" stroke="#978FF7"></path>
                    </g>
                    <path d="M141.232754,101.31249 L172.751607,81.2822583 C181.054007,76.006083 191.678834,76.0891545 199.89772,81.4945035 L222.778424,96.5425532" id="Path-11" stroke="#F34C43"></path>
                    <path d="M359.730624,77 C359.923395,82.2702087 359.129871,85.3823794 357.350053,86.3365123 C355.064385,87.6843998 324.157485,105.575718 264.629354,140.010466 C259.86096,142.357272 255.165939,142.627901 250.544291,140.822354 C245.922644,139.016807 230.679364,129.860528 204.814453,113.353516 C203.122213,112.20005 202.04941,111.163373 201.596043,110.243485 C201.142677,109.323597 200.971694,107.503278 201.083095,104.782528 L348.198733,77.267774 L359.730624,77 Z" id="Path-13" fill-opacity="0.5" fill="#8292C2" filter="url(#filter-5)"></path>
                    <g id="Group-40-Copy-7" transform="translate(0.000000, 80.744681)">
                        <path d="M50.3374811,91.042487 L2.25409826,63.1822834 C-1.08755469,61.2466008 -0.664257351,57.8329062 3.19413782,55.5974533 L95.2589128,2.2543689 C99.1173079,0.0189159874 105.008329,-0.226350629 108.349982,1.70933198 L156.433365,29.5703371 C159.774219,31.5060197 159.35172,34.9189127 155.493325,37.1551672 L63.4285503,90.4982516 C59.5701551,92.7337045 53.6799327,92.9789711 50.3374811,91.042487" id="Fill-1" stroke="#978FF7"></path>
                        <mask id="mask-7" fill="white">
                            <use xlink:href="#path-6"></use>
                        </mask>
                        <use id="Mask" stroke="#978FF7" xlink:href="#path-6"></use>
                        <g id="Group-95" mask="url(#mask-7)">
                            <g transform="translate(29.000000, 8.255319)">
                                <g id="Group-93">
                                    <mask id="mask-9" fill="white">
                                        <use xlink:href="#path-8"></use>
                                    </mask>
                                    <use id="Mask" fill="#8F9DCD" fill-rule="nonzero" opacity="0.8" xlink:href="#path-8"></use>
                                    <polygon id="Path-47" fill="#8592C1" mask="url(#mask-9)" points="116.495605 23.7327862 71.8670083 -2 61 4.6519082 105.022949 32.2822266"></polygon>
                                    <path d="M106.154843,22.2232715 L110.654205,24.6477778 C110.808248,24.7307848 110.865834,24.9229521 110.782827,25.0769953 C110.745876,25.1455679 110.68496,25.1981257 110.611713,25.2246299 L110.368124,25.3127721 C110.099525,25.4099638 109.802185,25.3876536 109.551098,25.2514685 L105.083793,22.828486 C104.929207,22.7446414 104.87186,22.5513552 104.955704,22.3967692 C104.990881,22.3319138 105.047487,22.2812864 105.115851,22.2535382 L105.304384,22.1770148 C105.580595,22.0649036 105.892421,22.0818639 106.154843,22.2232715 Z" id="Rectangle" fill="#FFFFFF" mask="url(#mask-9)"></path>
                                    <path d="M104.154843,23.2232715 L108.654205,25.6477778 C108.808248,25.7307848 108.865834,25.9229521 108.782827,26.0769953 C108.745876,26.1455679 108.68496,26.1981257 108.611713,26.2246299 L108.368124,26.3127721 C108.099525,26.4099638 107.802185,26.3876536 107.551098,26.2514685 L103.083793,23.828486 C102.929207,23.7446414 102.87186,23.5513552 102.955704,23.3967692 C102.990881,23.3319138 103.047487,23.2812864 103.115851,23.2535382 L103.304384,23.1770148 C103.580595,23.0649036 103.892421,23.0818639 104.154843,23.2232715 Z" id="Rectangle" fill="#FFFFFF" mask="url(#mask-9)"></path>
                                </g>
                                <g id="Group-94" transform="translate(21.000000, 14.000000)">
                                    <path d="M31.3183421,6.6539352 L56.8960289,21.7608398 C57.9043925,22.3564078 58.2390294,23.6566512 57.6434614,24.6650148 C57.4713227,24.956465 57.2319135,25.2024713 56.945249,25.3824669 C55.1378895,26.5173017 52.844918,26.5353309 51.0199371,25.4290565 L25.7811703,10.1297181 C24.8363676,9.55699372 24.5347385,8.326795 25.1074629,7.38199231 C25.2699398,7.11395995 25.4931242,6.88785556 25.759022,6.72190845 C27.4543268,5.66386703 29.5976749,5.63766052 31.3183421,6.6539352 Z" id="Path-9-Copy-4" fill="#FFFFFF"></path>
                                    <path d="M22.4513975,13.6900465 L45.4017903,27.194519 C46.4587784,27.816472 46.811444,29.1775228 46.189491,30.2345109 C46.0170777,30.5275215 45.7796878,30.7770317 45.4956185,30.9638101 C43.6746172,32.1611369 41.3273502,32.2044198 39.4634451,31.0750416 L16.8501366,17.3731755 C15.8592921,16.7728026 15.5427523,15.482866 16.1431253,14.4920215 C16.3058419,14.2234769 16.5267687,13.9948862 16.7896104,13.8231097 C18.4982471,12.7064549 20.6921891,12.6548929 22.4513975,13.6900465 Z" id="Path-9-Copy-5" fill="#FFFFFF"></path>
                                    <path d="M1.83044434,28.3563843 C1.82527669,30.0673218 1.84446208,31.3036499 1.88800049,32.0653687 C1.98352051,32.5734253 2.15026855,33.0177002 3.56433105,33.8851318 C4.50703939,34.4634196 8.13781738,36.6456299 14.456665,40.4317627 C15.752955,41.2141625 17.1227873,41.3912051 18.5661621,40.9628906 C20.0095369,40.5345761 20.8325756,39.8289031 21.0352783,38.8458716 L21,35.8627274 L8.55353976,30 L1.83044434,28.3563843 Z" id="Path-23" fill="#FF635A"></path>
                                    <path d="M8.43090961,26.7243918 L19.9784111,33.7070671 C21.0419485,34.3501791 21.3827706,35.7336918 20.7396587,36.7972292 C20.5660977,37.0842532 20.3305706,37.3288497 20.050306,37.5131265 C18.2357588,38.7062096 15.8905046,38.7254225 14.0566543,37.5622279 L2.81415338,30.4312115 C1.81343986,29.796468 1.51676256,28.4706681 2.15150606,27.4699546 C2.31559341,27.2112604 2.53317244,26.9907011 2.78961044,26.8231097 C4.49478528,25.7087173 6.68778886,25.6703416 8.43090961,26.7243918 Z" id="Path-9-Copy-5" fill="#FD817A"></path>
                                    <path d="M30.0588554,19.8185252 L42.537051,27.2920417 C43.0361002,27.5909353 43.1983584,28.2377958 42.8994648,28.736845 C42.8153487,28.87729 42.6996529,28.9961943 42.5615609,29.08412 C41.681618,29.6443954 40.559069,29.6532765 39.6703716,29.1069938 L27.3571273,21.5380373 C26.8896155,21.2506576 26.7435896,20.6386971 27.0309693,20.1711853 C27.110301,20.0421278 27.2180915,19.9329181 27.3461003,19.8519053 C28.1715307,19.3295159 29.220821,19.3166045 30.0588554,19.8185252 Z" id="Path-9-Copy-4" fill="#A6B1D8"></path>
                                    <path d="M42.0588554,14.8185252 L54.537051,22.2920417 C55.0361002,22.5909353 55.1983584,23.2377958 54.8994648,23.736845 C54.8153487,23.87729 54.6996529,23.9961943 54.5615609,24.08412 C53.681618,24.6443954 52.559069,24.6532765 51.6703716,24.1069938 L39.3571273,16.5380373 C38.8896155,16.2506576 38.7435896,15.6386971 39.0309693,15.1711853 C39.110301,15.0421278 39.2180915,14.9329181 39.3461003,14.8519053 C40.1715307,14.3295159 41.220821,14.3166045 42.0588554,14.8185252 Z" id="Path-9-Copy-6" fill="#A6B1D8"></path>
                                    <path d="M42.3183421,1.6539352 L67.8960289,16.7608398 C68.9043925,17.3564078 69.2390294,18.6566512 68.6434614,19.6650148 C68.4713227,19.956465 68.2319135,20.2024713 67.945249,20.3824669 C66.1378895,21.5173017 63.844918,21.5353309 62.0199371,20.4290565 L36.7811703,5.12971807 C35.8363676,4.55699372 35.5347385,3.326795 36.1074629,2.38199231 C36.2699398,2.11395995 36.4931242,1.88785556 36.759022,1.72190845 C38.4543268,0.663867029 40.5976749,0.637660525 42.3183421,1.6539352 Z" id="Path-9-Copy-4" fill="#FFFFFF"></path>
                                    <path d="M53.0588554,9.81852517 L65.537051,17.2920417 C66.0361002,17.5909353 66.1983584,18.2377958 65.8994648,18.736845 C65.8153487,18.87729 65.6996529,18.9961943 65.5615609,19.08412 C64.681618,19.6443954 63.559069,19.6532765 62.6703716,19.1069938 L50.3571273,11.5380373 C49.8896155,11.2506576 49.7435896,10.6386971 50.0309693,10.1711853 C50.110301,10.0421278 50.2180915,9.93291815 50.3461003,9.85190529 C51.1715307,9.3295159 52.220821,9.31660451 53.0588554,9.81852517 Z" id="Path-9-Copy-6" fill="#A6B1D8"></path>
                                </g>
                            </g>
                        </g>
                        <path d="M30.3322147,72.6039753 L30.3323185,72.604032 C33.2429882,74.1958286 38.0272017,74.1958286 40.9396105,72.6039753 C43.6545776,71.1200389 43.6545776,68.9043179 40.9396105,67.418938 C38.0272017,65.8270847 33.2429882,65.8270847 30.3323943,67.4188398 C27.6172476,68.9043179 27.6172476,71.1200389 30.3322147,72.6039753 Z" id="Fill-33" stroke="#978FF7"></path>
                    </g>
                    <g id="Group-40-Copy-8" transform="translate(200.063830, 38.617021)">
                        <g id="Group-6">
                            <g id="Group-40">
                                <g id="Group-6">
                                    <g id="Group-3" transform="translate(1.000000, 0.000000)">
                                        <mask id="mask-11" fill="white">
                                            <use xlink:href="#path-10"></use>
                                        </mask>
                                        <g id="Clip-2"></g>
                                        <path d="M50.3374811,91.0696923 L2.25409826,63.2011635 C-1.08755469,61.2649024 -0.664257351,57.8501879 3.19413782,55.6140669 L95.2589128,2.25504255 C99.1173079,0.0189216399 105.008329,-0.226418267 108.349982,1.70984276 L156.433365,29.5791733 C159.774219,31.5154344 159.35172,34.9293472 155.493325,37.1662698 L63.4285503,90.5252942 C59.5701551,92.7614152 53.6799327,93.0067551 50.3374811,91.0696923" id="Fill-1" fill="url(#linearGradient-12)" mask="url(#mask-11)"></path>
                                        <g id="Path-8" transform="translate(28.508730, 8.575393)">
                                            <mask id="mask-15" fill="white">
                                                <use xlink:href="#path-14"></use>
                                            </mask>
                                            <use id="Mask" fill="url(#linearGradient-13)" fill-rule="nonzero" xlink:href="#path-14"></use>
                                        </g>
                                    </g>
                                    <path d="M58.3302916,96.8363646 L58.3641249,92.2751927 C60.7545569,92.1837916 62.4154762,91.5632135 64.3602479,90.4367346 L156.425822,37.0769084 C158.49918,35.8750636 159.57739,34.3332706 159.614129,32.8636365 L159.614129,38.8840854 C159.685211,40.4194642 158.603007,42.0566671 156.425822,43.3186443 L64.3602479,96.6784704 C62.4154762,97.8057512 60.7099554,98.1966547 58.3195235,98.2880559 L58.3302916,96.8363646 L58.3200728,98.2863774 C55.9679772,98.3769768 52.9266674,98.1830615 51.2694184,97.2233495 L3.1860355,69.3548207 C1.70529349,68.496131 0.967318507,67.3472026 0.936170213,66.1405472 L0.936170213,59.9605472 C0.99048006,61.1447532 1.73085106,62.2688269 3.1860355,63.1122831 L51.2694184,90.9808119 C52.9266674,91.9413256 56.0103486,92.3638555 58.3624441,92.2740579 L58.3302916,96.8363646 Z M159.614129,32.8636365 C159.615726,32.8099183 159.615726,32.7570018 159.614129,32.7040854 L159.614129,32.8636365 Z" id="Combined-Shape" fill="url(#linearGradient-16)" fill-rule="nonzero"></path>
                                </g>
                                <path d="M31.0924095,73.0645426 C28.0305459,71.3905008 28.0305459,68.6758825 31.0924095,67.0002122 C34.1525539,65.3261704 39.1175522,65.3261704 42.1794157,67.0002122 C45.2412793,68.6758825 45.2412793,71.3905008 42.1794157,73.0645426 C39.1175522,74.7385845 34.1525539,74.7385845 31.0924095,73.0645426 Z" id="Fill-33" fill="#A0ADDA"></path>
                            </g>
                        </g>
                    </g>
                    <g id="Group-110" transform="translate(62.765957, 0.000000)">
                        <path d="M250.323886,65.8017644 L250.323886,91.2104492 L219.679355,109.092285 C217.708655,110.230621 216.301021,111.039052 215.456455,111.517578 C210.019687,115.178467 205.988008,115.147625 202.680576,112.937095 C199.645849,111.152209 192.202245,106.810303 180.349765,99.911377 L156.717929,86.3979492 L156.717929,61.4543093 L176.94718,53.3520508 L194.687168,42.5789533 L219.679355,49.2973633 L236.480136,56.0449219 L250.323886,65.8017644 Z" id="Path-31" fill="#536ABE" opacity="0.229999989"></path>
                        <polygon id="Path-30" fill="#F57972" opacity="0.300000012" points="269.48909 57.2453174 269.48909 80.1379395 260.213535 85.5025635 207.094621 51.1630859 207.094621 28.8857422 215.234043 24.9741701 257.545566 51.1630859"></polygon>
                        <path d="M218.730623,25.6578796 L267.742378,53.7590493 C269.403481,54.7114518 269.977995,56.830116 269.025593,58.4912183 C268.719626,59.0248611 268.277187,59.4674906 267.743677,59.7736881 C264.501289,61.6345898 260.511245,61.6192586 257.283254,59.7334955 L208.73802,31.3738141 C207.160512,30.4522481 206.628765,28.4263481 207.550331,26.8488397 C207.843768,26.3465444 208.264472,25.9305107 208.770012,25.6427002 C211.858815,23.8842045 215.647194,23.8899777 218.730623,25.6578796 Z" id="Path-9" fill="#F57972"></path>
                        <path d="M210.533527,39.8461621 L248.307389,61.8591018 C250.693248,63.2494751 251.500249,66.3107163 250.109876,68.6965753 C249.662865,69.4636393 249.019675,70.0978489 248.246401,70.5340308 L213.009031,90.4104486 C208.641013,92.8743258 203.288744,92.8136079 198.977745,90.2512731 L159.673905,66.8901927 C156.825375,65.1971075 155.888701,61.5154004 157.581786,58.6668699 C158.117967,57.7647724 158.881372,57.01908 159.795806,56.5042197 L189.657098,39.6911949 C196.150509,36.0351621 204.095107,36.0941354 210.533527,39.8461621 Z" id="Path-9-Copy" fill="#536ABE"></path>
                        <g id="Group-2" transform="translate(104.234043, 52.000000)">
                            <path d="M21.852459,15.7540984 L21.852459,25.4560358 C21.852459,28.519076 16.9629713,31 10.9262295,31 C4.8894877,31 0,28.519076 0,25.4560358 L0,15.7540984 C0,18.8171386 4.8894877,21.2980626 10.9262295,21.2980626 C16.9629713,21.2980626 21.852459,18.8171386 21.852459,15.7540984 Z" id="Path" fill-opacity="0.5" fill="#8292C2" fill-rule="nonzero" opacity="0.500348772" filter="url(#filter-17)"></path>
                            <path d="M21.852459,14.7377049 L21.852459,24.4396423 C21.852459,27.5026826 16.9629713,29.9836066 10.9262295,29.9836066 C4.8894877,29.9836066 0,27.5026826 0,24.4396423 L0,14.7377049 C0,17.8007452 4.8894877,20.2816692 10.9262295,20.2816692 C16.9629713,20.2816692 21.852459,17.8007452 21.852459,14.7377049 Z" id="Path-Copy" fill="#D1D9EE" fill-rule="nonzero"></path>
                            <path d="M10.9262295,11.1341282 C16.9629713,11.1341282 21.852459,8.65320417 21.852459,5.59016393 L21.852459,15.2921013 C21.852459,18.3551416 16.9629713,20.8360656 10.9262295,20.8360656 C4.8894877,20.8360656 0,18.3551416 0,15.2921013 L0,5.59016393 C0,8.65320417 4.8894877,11.1341282 10.9262295,11.1341282 Z" id="Path" fill="#6F83CD" opacity="0.900000036"></path>
                            <ellipse id="Oval" fill="#E0E7F8" fill-rule="nonzero" cx="10.9262295" cy="5.59016393" rx="10.9262295" ry="5.59016393"></ellipse>
                        </g>
                        <g id="Asset-2" transform="translate(186.234043, 0.000000)">
                            <path d="M36.3559653,57.5488069 L44.8227766,52.6275488 C43.1373102,57.6885033 40.1535792,60.6995662 37.0787419,62.4852495 L28.613449,67.4034707 C31.6882863,65.616269 34.6720174,62.6052061 36.3559653,57.5488069 Z" id="Path" fill="url(#linearGradient-18)" fill-rule="nonzero"></path>
                            <polygon id="Path" fill-opacity="0.264450393" fill="#3851AE" fill-rule="nonzero" points="18.2759219 12.378308 26.7427332 7.45856833 8.55639913 0 0.0895878525 4.9197397"></polygon>
                            <polygon id="Path" fill-opacity="0.264450393" fill="#3851AE" fill-rule="nonzero" points="36.3574837 57.5457701 44.8227766 52.6245119 44.9123644 20.9908894 36.4470716 25.9106291"></polygon>
                            <polygon id="Path" fill-opacity="0.264450393" fill="#3851AE" fill-rule="nonzero" points="36.4470716 25.9106291 44.9123644 20.9908894 26.7427332 7.45856833 18.2759219 12.378308"></polygon>
                            <path d="M0.0895878525,4.9197397 L18.2774403,12.378308 L36.4425163,25.9106291 L36.3559653,57.5488069 C31.9737527,70.7091106 18.8058568,70 18.113449,69.9665944 C17.4225597,69.2073753 4.29566161,54.7275488 0,36.5609544 L0.0895878525,4.9197397 Z" id="Path" fill="url(#linearGradient-19)" fill-rule="nonzero"></path>
                            <path d="M6.37744035,16.19718 L18.2592191,21.0698482 L30.1288503,29.9132321 L30.0650759,50.5791757 C27.20282,59.1780911 18.5993492,58.7164859 18.1468547,58.6921909 C17.6913232,58.1941432 9.11822126,48.7357918 6.31366594,36.8646421 L6.37744035,16.19718 Z" id="Path" fill="#536ABE"></path>
                            <path d="M11.7678959,42.0774403 L24.2190889,48.9255965 L24.2494577,38.6913232 L23.2609544,38.1477223 L23.2715835,34.7600868 C23.2806941,31.59718 20.937744,27.7312364 18.0466377,26.1429501 C15.1555315,24.5546638 12.8004338,25.8392625 12.7898048,28.9976139 L12.7806941,32.3852495 L11.7982646,31.8416486 L11.7678959,42.0774403 Z M17.3557484,39.408026 C17.1349057,39.099402 17.0083168,38.7333493 16.9913232,38.3542299 C16.9913232,37.7347072 17.4468547,37.4841649 18.0177874,37.7954447 C18.5887202,38.1067245 19.0412148,38.8583514 19.0397001,39.4809111 C19.0397001,39.8240781 18.8878525,40.0472885 18.6707158,40.1308026 L18.6600868,43.597397 L17.3451193,42.8746204 L17.3557484,39.408026 Z M14.2733189,33.1976139 L14.2839479,29.8114967 C14.2839479,27.5338395 15.9830803,26.6227766 18.0557484,27.7616052 C20.1284165,28.9004338 21.8123644,31.6776573 21.8047978,33.9477223 L21.7956616,37.3338395 L14.2733189,33.1976139 Z" id="Shape" fill="url(#linearGradient-20)" fill-rule="nonzero"></path>
                            <path d="M6.37744035,16.19718 L7.60130152,16.70282 L7.54360087,36.867679 C10.3314534,48.6659436 18.8180043,58.0772234 19.3646421,58.6800434 C18.9603347,58.7079878 18.5547711,58.7130574 18.1498915,58.6952278 C17.6943601,58.19718 9.12125813,48.7388286 6.31670282,36.867679 L6.37744035,16.19718 Z" id="Path" fill="url(#linearGradient-21)" fill-rule="nonzero"></path>
                        </g>
                        <g id="Asset-2-Copy" transform="translate(22.679813, 91.000000) scale(-1, 1) translate(-22.679813, -91.000000) translate(0.179813, 56.000000)" fill-rule="nonzero">
                            <path d="M36.3559653,57.5488069 L44.8227766,52.6275488 C43.1373102,57.6885033 40.1535792,60.6995662 37.0787419,62.4852495 L28.613449,67.4034707 C31.6882863,65.616269 34.6720174,62.6052061 36.3559653,57.5488069 Z" id="Path" fill="url(#linearGradient-18)"></path>
                            <polygon id="Path" fill-opacity="0.264450393" fill="#3851AE" points="18.2759219 12.378308 26.7427332 7.45856833 8.55639913 0 0.0895878525 4.9197397"></polygon>
                            <polygon id="Path" fill-opacity="0.264450393" fill="#3851AE" points="36.3574837 57.5457701 44.8227766 52.6245119 44.9123644 20.9908894 36.4470716 25.9106291"></polygon>
                            <polygon id="Path" fill-opacity="0.264450393" fill="#3851AE" points="36.4470716 25.9106291 44.9123644 20.9908894 26.7427332 7.45856833 18.2759219 12.378308"></polygon>
                            <path d="M0.0895878525,4.9197397 L18.2774403,12.378308 L36.4425163,25.9106291 L36.3559653,57.5488069 C31.9737527,70.7091106 18.8058568,70 18.113449,69.9665944 C17.4225597,69.2073753 4.29566161,54.7275488 0,36.5609544 L0.0895878525,4.9197397 Z" id="Path" fill="url(#linearGradient-19)"></path>
                            <path d="M6.37744035,16.19718 L18.2592191,21.0698482 L30.1288503,29.9132321 L30.0650759,50.5791757 C27.20282,59.1780911 18.5993492,58.7164859 18.1468547,58.6921909 C17.6913232,58.1941432 9.11822126,48.7357918 6.31366594,36.8646421 L6.37744035,16.19718 Z" id="Path" fill="#F57972"></path>
                            <path d="M11.7678959,42.0774403 L24.2190889,48.9255965 L24.2494577,38.6913232 L23.2609544,38.1477223 L23.2715835,34.7600868 C23.2806941,31.59718 20.937744,27.7312364 18.0466377,26.1429501 C15.1555315,24.5546638 12.8004338,25.8392625 12.7898048,28.9976139 L12.7806941,32.3852495 L11.7982646,31.8416486 L11.7678959,42.0774403 Z M17.3557484,39.408026 C17.1349057,39.099402 17.0083168,38.7333493 16.9913232,38.3542299 C16.9913232,37.7347072 17.4468547,37.4841649 18.0177874,37.7954447 C18.5887202,38.1067245 19.0412148,38.8583514 19.0397001,39.4809111 C19.0397001,39.8240781 18.8878525,40.0472885 18.6707158,40.1308026 L18.6600868,43.597397 L17.3451193,42.8746204 L17.3557484,39.408026 Z M14.2733189,33.1976139 L14.2839479,29.8114967 C14.2839479,27.5338395 15.9830803,26.6227766 18.0557484,27.7616052 C20.1284165,28.9004338 21.8123644,31.6776573 21.8047978,33.9477223 L21.7956616,37.3338395 L14.2733189,33.1976139 Z" id="Shape" fill="url(#linearGradient-20)"></path>
                            <path d="M6.37744035,16.19718 L7.60130152,16.70282 L7.54360087,36.867679 C10.3314534,48.6659436 18.8180043,58.0772234 19.3646421,58.6800434 C18.9603347,58.7079878 18.5547711,58.7130574 18.1498915,58.6952278 C17.6943601,58.19718 9.12125813,48.7388286 6.31670282,36.867679 L6.37744035,16.19718 Z" id="Path" fill="url(#linearGradient-21)"></path>
                        </g>
                    </g>
                </g>
            </g>
        </g>
    </g>
</svg>