<svg xmlns="http://www.w3.org/2000/svg" width="808.385" height="627.06"><defs><linearGradient id="linear-gradient" x1="-.036" y1="-.055" x2=".542" y2="1" gradientUnits="objectBoundingBox"><stop offset="0" stop-color="#f9f9f9"/><stop offset="1" stop-color="#d3daed"/></linearGradient><clipPath id="clip-path"><path id="Clip_6" data-name="Clip 6" d="M0 0h143.026v188.121H0z" transform="translate(0 .039)" fill="none"/></clipPath><clipPath id="clip-path-2"><path id="Clip_12" data-name="Clip 12" d="M15.679 1.94C7.465 6.751.416 19.07.018 29.316c-.4 10.245 6 14.692 14.212 9.881 8.216-4.81 15.264-17.13 15.663-27.375C30.182 4.381 26.889 0 21.918 0a12.546 12.546 0 0 0-6.239 1.94" transform="translate(.149 .118)" fill="none"/></clipPath><clipPath id="clip-path-3"><path id="Clip_17" data-name="Clip 17" d="M13.492 3.281C4.744 10.813-1.228 29.034.215 43.772 1.659 58.508 10 64.4 18.741 56.868c8.748-7.533 14.721-25.756 13.277-40.492C31 5.993 26.563 0 20.969 0c-2.345 0-4.894 1.054-7.477 3.281" transform="translate(.106 .445)" fill="none"/></clipPath><clipPath id="clip-path-4"><path id="Clip_388" data-name="Clip 388" d="M322.4 4.18L14.112 182.56A28.281 28.281 0 0 0 0 207.176a13.89 13.89 0 0 0 7.028 12l141.04 80.112c9.572 5.476 25.22 5.448 34.768-.068l315.912-182.532a14.087 14.087 0 0 0 7.044-12.2v-7.132a13.3 13.3 0 0 0-6.66-11.524l-141.92-81.8C352.46 1.34 346.22 0 339.968 0 333.6 0 327.216 1.4 322.4 4.18" transform="translate(.444 .904)" fill="none"/></clipPath><linearGradient id="linear-gradient-6" x1="1" y1=".5" x2="0" y2=".5" gradientUnits="objectBoundingBox"><stop offset="0" stop-color="#dbedff"/><stop offset="1" stop-color="#d8e9fd"/></linearGradient><clipPath id="clip-path-5"><path id="Clip_4991" data-name="Clip 4991" d="M0 36.326v19.235l66.437-37.712L66.31.41 62.084 0z" transform="translate(.175 .282)" fill="none"/></clipPath><clipPath id="clip-path-6"><path id="Clip_4996" data-name="Clip 4996" d="M0 37.281l68.369 40.15 66.31-37.731L65.778 0z" transform="translate(.126 .193)" fill="none"/></clipPath><clipPath id="clip-path-7"><path id="Clip_5010" data-name="Clip 5010" d="M0 36.326v19.235l66.437-37.713L66.31.41 62.084 0z" transform="translate(.175 .141)" fill="none"/></clipPath><clipPath id="clip-path-8"><path id="Clip_5015" data-name="Clip 5015" d="M0 37.284l68.369 40.148 66.31-37.732L65.778 0z" transform="translate(.126 .049)" fill="none"/></clipPath><clipPath id="clip-path-9"><path id="Clip_5029" data-name="Clip 5029" d="M0 36.326V55.56l66.437-37.71L66.31.411 62.084 0z" transform="translate(.175 .137)" fill="none"/></clipPath><clipPath id="clip-path-10"><path id="Clip_5034" data-name="Clip 5034" d="M0 37.283l68.369 40.15 66.31-37.733L65.778 0z" transform="translate(.126 .046)" fill="none"/></clipPath><clipPath id="clip-path-11"><path id="Clip_5048" data-name="Clip 5048" d="M0 36.325v19.236l66.437-37.713L66.31.41 62.084 0z" transform="translate(.175 .076)" fill="none"/></clipPath><clipPath id="clip-path-12"><path id="Clip_5053" data-name="Clip 5053" d="M0 37.281l68.369 40.15 66.31-37.731L65.778 0z" transform="translate(.126 .335)" fill="none"/></clipPath><clipPath id="clip-path-13"><path id="Clip_5067" data-name="Clip 5067" d="M0 36.326v19.235l66.437-37.712L66.31.41 62.084 0z" transform="translate(.175 .073)" fill="none"/></clipPath><clipPath id="clip-path-14"><path id="Clip_5116" data-name="Clip 5116" d="M0 .718a.717.717 0 0 0 .718.718.718.718 0 0 0 .718-.718A.718.718 0 0 0 .718 0 .717.717 0 0 0 0 .718" transform="translate(.198 .122)" fill="none"/></clipPath><clipPath id="clip-path-15"><path id="Clip_5119" data-name="Clip 5119" d="M.184.559a.376.376 0 0 0 .377.377.376.376 0 0 0 .375-.377.376.376 0 0 0-.375-.375.376.376 0 0 0-.377.375" transform="translate(.314 .08)" fill="none"/></clipPath><clipPath id="clip-path-16"><path id="Clip_5122" data-name="Clip 5122" d="M.047.56a.513.513 0 0 0 .513.513.513.513 0 0 0 .513-.513A.513.513 0 0 0 .56.047.513.513 0 0 0 .047.56" transform="translate(.013 .145)" fill="none"/></clipPath><clipPath id="clip-path-17"><path id="Clip_5142" data-name="Clip 5142" d="M0 .717a.718.718 0 0 0 .719.718.718.718 0 0 0 .718-.718A.718.718 0 0 0 .719 0 .718.718 0 0 0 0 .717" transform="translate(.199 .24)" fill="none"/></clipPath><clipPath id="clip-path-18"><path id="Clip_498" data-name="Clip 498" d="M54.255 10.3l-3.22 1.868c-20.191 11.657-25.867 19.6-25.867 19.6A75.207 75.207 0 0 1 .295 72.618s-7.43 80.664 52.332 83.228h-.011c59.763-71.576 52.333-143.66 52.333-143.66C91.547 16.454 83.131 10.717 80.075.054A3.3 3.3 0 0 0 79.364 0C77.32 0 70.5.917 54.255 10.3" transform="translate(10.655 7.53)" fill="none"/></clipPath><clipPath id="clip-path-19"><path id="Clip_505" data-name="Clip 505" d="M105.255 20.184a168.613 168.613 0 0 1-1.28 20.129 184.793 184.793 0 0 1-.793 5.876 210.8 210.8 0 0 1-8.815 35.994q-1.706 5.065-3.792 10.343-1.172 2.968-2.488 6.007a215.5 215.5 0 0 1-7.3 15.307 185.093 185.093 0 0 1-1.729 3.247 174.04 174.04 0 0 1-1.658 3 232.749 232.749 0 0 1-13.033 20.521q-1.546 2.185-3.163 4.372-4.052 5.42-8.578 10.865c-32.4-1.387-45.058-25.746-49.844-47.747a114.45 114.45 0 0 1-1.327-7.2A131.016 131.016 0 0 1 .3 72.61c.272-.224.545-.45.805-.686q1.352-1.156 2.63-2.382c.912-.864 1.8-1.753 2.654-2.653a75.82 75.82 0 0 0 10.189-13.5 79.902 79.902 0 0 0 3.032-5.651 70.49 70.49 0 0 0 4.04-10.213 63.156 63.156 0 0 0 1.529-5.77s5.509-7.7 24.952-19.063c.3-.178.6-.355.912-.533l3.222-1.872c.379-.226.758-.439 1.138-.652C74.664-1.308 80.078.054 80.078.054c3.056 10.663 11.468 16.4 24.881 12.132" transform="translate(.381 .839)" fill="none"/></clipPath><clipPath id="clip-path-20"><path id="Clip_509" data-name="Clip 509" d="M0 28.493v62.324c.082.013.161.017.242.03C26.592 57.323 37.249 23.95 41.449 0 25.157 15.311 14.969 20.394 0 28.493" transform="translate(69.004 65.892)" fill="none"/></clipPath><linearGradient id="linear-gradient-11" y1=".5" x2="1" y2=".5" gradientUnits="objectBoundingBox"><stop offset="0" stop-color="#3182ed"/><stop offset="1" stop-color="#60a1ef"/></linearGradient><clipPath id="clip-path-21"><path id="Clip_512" data-name="Clip 512" d="M42.239 1.063C32.117 6.906 26.3 11.519 23.4 14.119A97.457 97.457 0 0 1 0 54.05a120.344 120.344 0 0 0 2.614 25.7c16.293-3.5 26.486-10.18 41.45-19.365V0z" transform="translate(24.881 34.034)" fill="none"/></clipPath></defs><g id="Group_6" data-name="Group 6" transform="translate(-.549 -.192)"><g id="Group_195" data-name="Group 195" transform="translate(165 11)"><path id="Fill_183" data-name="Fill 183" d="M.96 125L0 123.336l143.64-82.928a15.657 15.657 0 0 0 7.8-13.516V0h1.924v26.892a17.589 17.589 0 0 1-8.764 15.184z" transform="translate(408.396 170.087)" fill="#00d085"/><path id="Fill_185" data-name="Fill 185" d="M3.024.408C1.36-.552 0 .24 0 2.164a6.717 6.717 0 0 0 3.032 5.248c1.668.964 3.028.176 3.024-1.756A6.739 6.739 0 0 0 3.024.408" transform="translate(556.812 165.751)" fill="#48486a"/><path id="Fill_187" data-name="Fill 187" d="M.96 125L0 123.336l143.64-82.928a15.659 15.659 0 0 0 7.8-13.52V0h1.924v26.888a17.579 17.579 0 0 1-8.764 15.184z" transform="translate(396.864 163.68)" fill="#00d085"/><path id="Fill_189" data-name="Fill 189" d="M3.024.408C1.36-.552 0 .24 0 2.164a6.731 6.731 0 0 0 3.032 5.252c1.668.96 3.028.172 3.024-1.756A6.74 6.74 0 0 0 3.024.408" transform="translate(545.546 159.231)" fill="#48486a"/><path id="Fill_191" data-name="Fill 191" d="M177.1 193.032L3.588 88.424a7.22 7.22 0 0 1 0-12.48l76.128-44.256a6.918 6.918 0 0 0 3.432-5.944l.02-24.512L85.088 0l-.02 25.752a8.838 8.838 0 0 1-4.384 7.6L4.552 77.608a5.3 5.3 0 0 0 .008 9.16L177.1 190.78z" transform="translate(.003 188.128)" fill="#231f20" opacity=".3"/><path id="Fill_193" data-name="Fill 193" d="M186.544 185.828L3.592 75.612a7.216 7.216 0 0 1 0-12.48L79.72 18.876a6.917 6.917 0 0 0 3.428-5.944l.02-11.7L85.092 0l-.02 12.94a8.838 8.838 0 0 1-4.384 7.6L4.556 64.8a5.3 5.3 0 0 0 .008 9.16l183.264 110.268z" transform="translate(0 183)" fill="#00d085"/></g><g id="Group_3" data-name="Group 3" transform="translate(175 396)"><path id="Fill_1347" data-name="Fill 1347" d="M83.2 16.378L55.372.13a.961.961 0 1 0-.972 1.66l27.82 16.248a5.928 5.928 0 0 1 .012 10.228L14.608 67.918A29.652 29.652 0 0 0 0 93.414h1.924a27.731 27.731 0 0 1 13.652-23.84L83.2 29.922a7.846 7.846 0 0 0 0-13.544" transform="translate(287.643 12.815)" opacity=".2"/><path id="Fill_1349" data-name="Fill 1349" d="M0 203.273V93.417a29.654 29.654 0 0 1 14.6-25.5l67.632-39.648a5.924 5.924 0 0 0-.012-10.228L54.4 1.793a.97.97 0 0 1-.348-1.316.959.959 0 0 1 1.316-.344l27.824 16.248a7.846 7.846 0 0 1 .008 13.544L15.572 69.577A27.739 27.739 0 0 0 1.92 93.417v108.435c0 4.46 19.856.365 19.856.365a17.1 17.1 0 0 0 8.524-14.756v-3.488a14.967 14.967 0 0 1 7.508-12.952l19.632-11.24a.96.96 0 1 1 .956 1.664l-19.632 11.24a13.039 13.039 0 0 0-6.544 11.288v3.488a19.019 19.019 0 0 1-9.484 16.424S0 208.429 0 203.273z" transform="translate(287.645)" fill="#00d085"/><path id="Fill_1457" data-name="Fill 1457" d="M.961 91.8a.957.957 0 0 0 .472-.124L159.685 1.8a.966.966 0 0 0 .36-1.312.969.969 0 0 0-1.312-.36L.485 90.008a.967.967 0 0 0-.36 1.312.958.958 0 0 0 .836.484" transform="translate(0 19.493)" fill="#00d085"/><path id="Fill_1459" data-name="Fill 1459" d="M.961 81.234a.983.983 0 0 0 .476-.124L140.945 1.8A.968.968 0 0 0 141.3.486a.958.958 0 0 0-1.3-.36L.485 79.438a.961.961 0 0 0 .476 1.8" transform="translate(7.688 7)" fill="#00d085"/></g><g id="Group_114" data-name="Group 114" transform="translate(503 388)"><g id="Group_10" data-name="Group 10" transform="translate(78 .532)"><path id="Fill_3" data-name="Fill 3" d="M44.5 11.806a23.891 23.891 0 1 1-32.7-8.519 23.891 23.891 0 0 1 32.7 8.519" transform="translate(102.8 74.268)" fill="url(#linear-gradient)"/><g id="Group_7" data-name="Group 7" transform="translate(0 50.56)"><path id="Clip_6-2" data-name="Clip 6" d="M0 0h143.026v188.121H0z" transform="translate(0 .039)" fill="none"/><g id="Group_7-2" data-name="Group 7" clip-path="url(#clip-path)"><path id="Fill_5" data-name="Fill 5" d="M142.971 74.291c-1.535 39.464-36.529 115.343-75.992 113.807S-1.477 108.2.058 68.731a71.51 71.51 0 0 1 142.913 5.56" transform="translate(0 .039)" fill="url(#linear-gradient)"/></g></g><path id="Fill_8" data-name="Fill 8" d="M111.8 58.092A55.918 55.918 0 1 1 58.093.043a55.919 55.919 0 0 1 53.7 58.049" transform="translate(18.167 .108)" fill="url(#linear-gradient)"/></g><g id="Group_13" data-name="Group 13" transform="translate(163.12 51.092)"><path id="Clip_12-2" data-name="Clip 12" d="M15.679 1.94C7.465 6.751.416 19.07.018 29.316c-.4 10.245 6 14.692 14.212 9.881 8.216-4.81 15.264-17.13 15.663-27.375C30.182 4.381 26.889 0 21.918 0a12.546 12.546 0 0 0-6.239 1.94" transform="translate(.149 .118)" fill="none"/></g><g id="Group_18" data-name="Group 18" transform="translate(174.64 104.852)"><path id="Clip_17-2" data-name="Clip 17" d="M13.492 3.281C4.744 10.813-1.228 29.034.215 43.772 1.659 58.508 10 64.4 18.741 56.868c8.748-7.533 14.721-25.756 13.277-40.492C31 5.993 26.563 0 20.969 0c-2.345 0-4.894 1.054-7.477 3.281" transform="translate(.106 .445)" fill="none"/><g id="Group_18-2" data-name="Group 18" clip-path="url(#clip-path-3)"><path id="Fill_16" data-name="Fill 16" d="M13.492 3.281C4.744 10.813-1.228 29.034.215 43.772 1.659 58.508 10 64.4 18.741 56.868c8.748-7.533 14.721-25.756 13.277-40.492C31 5.993 26.563 0 20.969 0c-2.345 0-4.894 1.054-7.477 3.281" transform="translate(.106 .445)" fill="none"/></g></g><g id="Group_113" data-name="Group 113" transform="translate(0 107.852)"><path id="Fill_104" data-name="Fill 104" d="M-20.2 89.088a4.741 4.741 0 0 1-2.4-.656 4.737 4.737 0 0 1-1.668-6.483l8.591-14.538a45.328 45.328 0 0 0-1.211-47.8L-25 7.346A4.73 4.73 0 0 1-23.668.79a4.723 4.723 0 0 1 6.558 1.335L-9 14.389a54.863 54.863 0 0 1 1.47 57.836l-8.591 14.538a4.744 4.744 0 0 1-4.079 2.325" transform="rotate(56 22.86 112.126)" fill="#0d2d87"/><path id="Fill_106" data-name="Fill 106" d="M47.764 24.82A23.891 23.891 0 1 1 24.82.018a23.891 23.891 0 0 1 22.944 24.8" transform="translate(68 .13)" fill="url(#linear-gradient)"/><path id="Fill_108" data-name="Fill 108" d="M28.7 21.63c-.375 9.651-3.308 22.37-12.96 21.991S-.36 27.5.016 17.844.522-.364 10.173.012 29.076 11.979 28.7 21.63" transform="rotate(94.01 -.325 46.562)" fill="url(#linear-gradient)"/></g></g><g id="Group" transform="translate(203 180)"><g id="Group_389" data-name="Group 389"><path id="Clip_388-2" data-name="Clip 388" d="M322.4 4.18L14.112 182.56A28.281 28.281 0 0 0 0 207.176a13.89 13.89 0 0 0 7.028 12l141.04 80.112c9.572 5.476 25.22 5.448 34.768-.068l315.912-182.532a14.087 14.087 0 0 0 7.044-12.2v-7.132a13.3 13.3 0 0 0-6.66-11.524l-141.92-81.8C352.46 1.34 346.22 0 339.968 0 333.6 0 327.216 1.4 322.4 4.18" transform="translate(.444 .904)" fill="none"/><g id="Group_389-2" data-name="Group 389" clip-path="url(#clip-path-4)"><path id="Fill_387" data-name="Fill 387" d="M322.4 4.18L14.112 182.56A28.281 28.281 0 0 0 0 207.176a13.89 13.89 0 0 0 7.028 12l141.04 80.112c9.572 5.476 25.22 5.448 34.768-.068l315.912-182.532a14.087 14.087 0 0 0 7.044-12.2v-7.132a13.3 13.3 0 0 0-6.66-11.524l-141.92-81.8C352.46 1.34 346.22 0 339.968 0 333.6 0 327.216 1.4 322.4 4.18" transform="translate(.444 .904)" fill="#bdd6f2"/></g></g><g id="Group_485" data-name="Group 485"><path id="Fill_390" data-name="Fill 390" d="M498.59 84.3c9.6 5.432 9.636 14.392.084 19.908l-315.82 182.124c-9.548 5.516-25.192 5.544-34.768.06L7.186 205.74c-9.568-5.476-9.584-14.472-.032-19.988L322.006 4.18c9.552-5.516 25.22-5.58 34.82-.148z" transform="translate(.426 .904)" fill="#f9f7f9"/><path id="Fill_392" data-name="Fill 392" d="M7.02 23.709c-9.36-5.409-9.36-14.252 0-19.656s24.684-5.4 34.044 0 9.36 14.248 0 19.656-24.68 5.4-34.044 0" transform="translate(72.859 216.034)" fill="#edf0f8"/><path id="Fill_394" data-name="Fill 394" d="M32.838 21a1.432 1.432 0 0 0 .72-2.672L2.15.195A1.43 1.43 0 1 0 .718 2.671l31.4 18.136a1.416 1.416 0 0 0 .716.192" transform="translate(392.459 45.475)" fill="#99a7d8"/><path id="Fill_396" data-name="Fill 396" d="M8.426 6.9a1.431 1.431 0 0 0 .716-2.672L2.15.195A1.431 1.431 0 1 0 .714 2.671l7 4.04a1.435 1.435 0 0 0 .716.192" transform="translate(380.847 38.772)" fill="#99a7d8"/></g></g><path id="Fill_398" data-name="Fill 398" d="M425.428 93.628L265.3 0 0 152.972l161.5 93.608z" transform="translate(251.529 198.228)" fill="#0d2d87"/><path id="Combined_Shape" data-name="Combined Shape" d="M72.543 60.31a18.1 18.1 0 0 1-7.561-1.552L5.114 28.2C1.3 26.077-.558 22.931.147 19.784c.7-3.128 3.822-5.541 8.352-6.456L80.555.276A22.344 22.344 0 0 1 84.084 0a21.809 21.809 0 0 1 9.785 2.225c3.77 1.913 5.554 4.635 4.773 7.28L86.447 53.112c-.754 2.848-3.876 5.265-8.351 6.463a21.253 21.253 0 0 1-5.553.735zM49.817 30.122a6.274 6.274 0 0 0-3.808 1.182c-1.321 1.008-1.344 1.974-1.13 2.607a3.7 3.7 0 0 0 1.946 1.926 7.706 7.706 0 0 0 3.421.792 6.252 6.252 0 0 0 3.839-1.21c1.043-.783 1.437-1.672 1.137-2.569-.5-1.5-2.926-2.728-5.4-2.728zm23.93-16.632a5.6 5.6 0 0 0-3.091.822L55.69 24.948a2.008 2.008 0 0 0-.95 1.758 2.618 2.618 0 0 0 1.61 1.958 6.373 6.373 0 0 0 2.835.632 5.586 5.586 0 0 0 3.237-.917l14.965-10.636a1.906 1.906 0 0 0 .966-1.66 2.558 2.558 0 0 0-1.6-1.92 6.724 6.724 0 0 0-3.006-.673z" transform="translate(409.927 280.771)" fill="#ff2e99"/><g id="Group-2" data-name="Group" transform="translate(674)"><g id="Group_4989" data-name="Group 4989" transform="translate(0 127.12)"><path id="Fill_4979" data-name="Fill 4979" d="M0 48.474l.081-17.53L76.733 0l58.027 33.361.128 17.44L68.45 88.512z" transform="translate(.045 .021)" fill="url(#linear-gradient-6)"/><path id="Fill_4981" data-name="Fill 4981" d="M.11 9.349L0 .457A.451.451 0 0 1 .674.06l5.015 2.852a.452.452 0 0 1 .228.392v9.04a.451.451 0 0 1-.687.385l-4.906-3a.449.449 0 0 1-.215-.38" transform="translate(3.212 37.334)" fill="#0040af"/><path id="Fill_4983" data-name="Fill 4983" d="M1.494.211a3.4 3.4 0 0 1 1.5 2.624c0 .953-.673 1.343-1.5.867A3.357 3.357 0 0 1 0 1.077C0 .112.672-.278 1.494.211" transform="translate(48.442 67.913)" fill="#49537c"/><path id="Fill_4985" data-name="Fill 4985" d="M1.494.212a3.4 3.4 0 0 1 1.494 2.624c0 .953-.672 1.343-1.494.867A3.357 3.357 0 0 1 0 1.078C0 .111.672-.278 1.494.212" transform="translate(53.651 70.944)" fill="#49537c"/><path id="Fill_4987" data-name="Fill 4987" d="M1.494.211a3.4 3.4 0 0 1 1.494 2.625c0 .953-.672 1.343-1.494.867A3.357 3.357 0 0 1 0 1.077C0 .112.672-.278 1.494.211" transform="translate(59.016 74.133)" fill="#49537c"/></g><g id="Group_4992" data-name="Group 4992" transform="translate(68.32 159.81)"><path id="Clip_4991-2" data-name="Clip 4991" d="M0 36.326v19.235l66.437-37.712L66.31.41 62.084 0z" transform="translate(.175 .282)" fill="none"/><g id="Group_4992-2" data-name="Group 4992" clip-path="url(#clip-path-5)"><path id="Fill_4990" data-name="Fill 4990" d="M0 36.326v19.235l66.437-37.712L66.31.41 62.084 0z" transform="translate(.175 .282)" fill="#bdd6f2"/></g></g><path id="Fill_4993" data-name="Fill 4993" d="M0 37.283L65.776 0l68.9 39.7-66.308 37.732z" transform="translate(.126 120.802)" fill="#3dbcec"/><g id="Group_4997" data-name="Group 4997" transform="translate(0 120.61)"><path id="Clip_4996-2" data-name="Clip 4996" d="M0 37.281l68.369 40.15 66.31-37.731L65.778 0z" transform="translate(.126 .193)" fill="none"/><g id="Group_4997-2" data-name="Group 4997" clip-path="url(#clip-path-6)"><path id="Fill_4995" data-name="Fill 4995" d="M0 37.281l68.369 40.15 66.31-37.731L65.778 0z" transform="translate(.126 .193)" fill="#7eb5f3"/></g></g><g id="Group_5008" data-name="Group 5008" transform="translate(0 103.81)"><path id="Fill_4998" data-name="Fill 4998" d="M0 48.474l.081-17.53L76.733 0l58.027 33.361.128 17.44L68.45 88.512z" transform="translate(.045 .018)" fill="url(#linear-gradient-6)"/><path id="Fill_5000" data-name="Fill 5000" d="M.11 9.35L0 .457A.451.451 0 0 1 .674.06l5.015 2.854a.452.452 0 0 1 .228.392v9.04a.452.452 0 0 1-.687.385l-4.906-3A.447.447 0 0 1 .11 9.35" transform="translate(3.212 37.33)" fill="#0040af"/><path id="Fill_5002" data-name="Fill 5002" d="M1.494.212a3.4 3.4 0 0 1 1.5 2.624c0 .953-.673 1.343-1.5.867A3.357 3.357 0 0 1 0 1.078C0 .111.672-.278 1.494.212" transform="translate(48.442 67.909)" fill="#49537c"/><path id="Fill_5004" data-name="Fill 5004" d="M1.494.211a3.4 3.4 0 0 1 1.494 2.625c0 .953-.672 1.343-1.494.867A3.357 3.357 0 0 1 0 1.078C0 .112.672-.278 1.494.211" transform="translate(53.651 70.942)" fill="#49537c"/><path id="Fill_5006" data-name="Fill 5006" d="M1.494.212a3.4 3.4 0 0 1 1.494 2.624c0 .953-.672 1.343-1.494.867A3.357 3.357 0 0 1 0 1.078C0 .111.672-.278 1.494.212" transform="translate(59.016 74.129)" fill="#ff578f"/></g><g id="Group_5011" data-name="Group 5011" transform="translate(68.32 136.64)"><path id="Clip_5010-2" data-name="Clip 5010" d="M0 36.326v19.235l66.437-37.713L66.31.41 62.084 0z" transform="translate(.175 .141)" fill="none"/><g id="Group_5011-2" data-name="Group 5011" clip-path="url(#clip-path-7)"><path id="Fill_5009" data-name="Fill 5009" d="M0 36.326v19.235l66.437-37.713L66.31.41 62.084 0z" transform="translate(.175 .141)" fill="#bdd6f2"/></g></g><path id="Fill_5012" data-name="Fill 5012" d="M0 37.283L65.776 0l68.9 39.7-66.308 37.732z" transform="translate(.126 97.489)" fill="#3dbcec"/><g id="Group_5016" data-name="Group 5016" transform="translate(0 97.44)"><path id="Clip_5015-2" data-name="Clip 5015" d="M0 37.284l68.369 40.148 66.31-37.732L65.778 0z" transform="translate(.126 .049)" fill="none"/><g id="Group_5016-2" data-name="Group 5016" clip-path="url(#clip-path-8)"><path id="Fill_5014" data-name="Fill 5014" d="M0 37.284l68.369 40.148 66.31-37.732L65.778 0z" transform="translate(.126 .049)" fill="#7eb5f3"/></g></g><g id="Group_5027" data-name="Group 5027" transform="translate(0 80.29)"><path id="Fill_5017" data-name="Fill 5017" d="M0 48.474l.081-17.53L76.733 0l58.027 33.361.128 17.44L68.45 88.512z" transform="translate(.045 .225)" fill="url(#linear-gradient-6)"/><path id="Fill_5019" data-name="Fill 5019" d="M.11 9.35L0 .457A.451.451 0 0 1 .674.06l5.015 2.852a.455.455 0 0 1 .228.393v9.04a.451.451 0 0 1-.687.384l-4.906-3A.448.448 0 0 1 .11 9.35" transform="translate(3.212 37.538)" fill="#0040af"/><path id="Fill_5021" data-name="Fill 5021" d="M1.494.211a3.4 3.4 0 0 1 1.5 2.624c0 .953-.673 1.343-1.5.867A3.357 3.357 0 0 1 0 1.078C0 .112.672-.278 1.494.211" transform="translate(48.442 68.117)" fill="#ff578f"/><path id="Fill_5023" data-name="Fill 5023" d="M1.494.211a3.4 3.4 0 0 1 1.494 2.625c0 .953-.672 1.343-1.494.867A3.357 3.357 0 0 1 0 1.078C0 .112.672-.278 1.494.211" transform="translate(53.651 71.149)" fill="#49537c"/><path id="Fill_5025" data-name="Fill 5025" d="M1.494.211a3.4 3.4 0 0 1 1.494 2.625c0 .953-.672 1.343-1.494.867A3.357 3.357 0 0 1 0 1.078C0 .112.672-.278 1.494.211" transform="translate(59.016 74.337)" fill="#49537c"/></g><g id="Group_5030" data-name="Group 5030" transform="translate(68.32 113.33)"><path id="Clip_5029-2" data-name="Clip 5029" d="M0 36.326V55.56l66.437-37.71L66.31.411 62.084 0z" transform="translate(.175 .137)" fill="none"/><g id="Group_5030-2" data-name="Group 5030" clip-path="url(#clip-path-9)"><path id="Fill_5028" data-name="Fill 5028" d="M0 36.326V55.56l66.437-37.71L66.31.411 62.084 0z" transform="translate(.175 .137)" fill="#bdd6f2"/></g></g><path id="Fill_5031" data-name="Fill 5031" d="M0 37.283L65.776 0l68.9 39.7-66.308 37.732z" transform="translate(.126 74.176)" fill="#3dbcec"/><g id="Group_5035" data-name="Group 5035" transform="translate(0 74.13)"><path id="Clip_5034-2" data-name="Clip 5034" d="M0 37.283l68.369 40.15 66.31-37.733L65.778 0z" transform="translate(.126 .046)" fill="none"/><g id="Group_5035-2" data-name="Group 5035" clip-path="url(#clip-path-10)"><path id="Fill_5033" data-name="Fill 5033" d="M0 37.283l68.369 40.15 66.31-37.733L65.778 0z" transform="translate(.126 .046)" fill="#7eb5f3"/></g></g><g id="Group_5046" data-name="Group 5046" transform="translate(0 57.12)"><path id="Fill_5036" data-name="Fill 5036" d="M0 48.474l.081-17.53L76.733 0l58.027 33.363.128 17.438L68.45 88.512z" transform="translate(.045 .164)" fill="url(#linear-gradient-6)"/><path id="Fill_5038" data-name="Fill 5038" d="M.11 9.35L0 .457A.451.451 0 0 1 .674.06l5.015 2.852a.455.455 0 0 1 .228.393v9.04a.451.451 0 0 1-.687.384l-4.906-3A.448.448 0 0 1 .11 9.35" transform="translate(3.212 37.476)" fill="#0040af"/><path id="Fill_5040" data-name="Fill 5040" d="M1.494.211a3.4 3.4 0 0 1 1.5 2.624c0 .953-.673 1.343-1.5.867A3.357 3.357 0 0 1 0 1.078C0 .112.672-.278 1.494.211" transform="translate(48.442 68.055)" fill="#ff578f"/><path id="Fill_5042" data-name="Fill 5042" d="M1.494.211a3.4 3.4 0 0 1 1.494 2.625c0 .953-.672 1.343-1.494.867A3.357 3.357 0 0 1 0 1.078C0 .112.672-.278 1.494.211" transform="translate(53.651 71.088)" fill="#49537c"/><path id="Fill_5044" data-name="Fill 5044" d="M1.494.211a3.4 3.4 0 0 1 1.494 2.625c0 .953-.672 1.343-1.494.867A3.357 3.357 0 0 1 0 1.078C0 .112.672-.278 1.494.211" transform="translate(59.016 74.275)" fill="#40ff93"/></g><g id="Group_5049" data-name="Group 5049" transform="translate(68.32 90.16)"><path id="Clip_5048-2" data-name="Clip 5048" d="M0 36.325v19.236l66.437-37.713L66.31.41 62.084 0z" transform="translate(.175 .076)" fill="none"/><g id="Group_5049-2" data-name="Group 5049" clip-path="url(#clip-path-11)"><path id="Fill_5047" data-name="Fill 5047" d="M0 36.325v19.236l66.437-37.713L66.31.41 62.084 0z" transform="translate(.175 .076)" fill="#bdd6f2"/></g></g><path id="Fill_5050" data-name="Fill 5050" d="M0 37.283L65.776 0l68.9 39.7-66.308 37.732z" transform="translate(.126 50.945)" fill="#3dbcec"/><g id="Group_5054" data-name="Group 5054" transform="translate(0 50.61)"><path id="Clip_5053-2" data-name="Clip 5053" d="M0 37.281l68.369 40.15 66.31-37.731L65.778 0z" transform="translate(.126 .335)" fill="none"/><g id="Group_5054-2" data-name="Group 5054" clip-path="url(#clip-path-12)"><path id="Fill_5052" data-name="Fill 5052" d="M0 37.281l68.369 40.15 66.31-37.731L65.778 0z" transform="translate(.126 .335)" fill="#7eb5f3"/></g></g><g id="Group_5065" data-name="Group 5065" transform="translate(0 33.81)"><path id="Fill_5055" data-name="Fill 5055" d="M0 48.474l.081-17.53L76.733 0l58.027 33.361.128 17.44L68.45 88.512z" transform="translate(.045 .161)" fill="url(#linear-gradient-6)"/><path id="Fill_5057" data-name="Fill 5057" d="M.11 9.35L0 .457A.451.451 0 0 1 .674.06l5.015 2.852a.455.455 0 0 1 .228.393v9.04a.451.451 0 0 1-.687.384l-4.906-3A.448.448 0 0 1 .11 9.35" transform="translate(3.212 37.474)" fill="#0040af"/><path id="Fill_5059" data-name="Fill 5059" d="M1.494.211a3.4 3.4 0 0 1 1.5 2.624c0 .953-.673 1.343-1.5.867A3.357 3.357 0 0 1 0 1.078C0 .112.672-.278 1.494.211" transform="translate(48.442 68.053)" fill="#ff578f"/><path id="Fill_5061" data-name="Fill 5061" d="M1.494.211a3.4 3.4 0 0 1 1.494 2.625c0 .953-.672 1.343-1.494.867A3.357 3.357 0 0 1 0 1.077C0 .112.672-.278 1.494.211" transform="translate(53.651 71.085)" fill="#ff578f"/><path id="Fill_5063" data-name="Fill 5063" d="M1.494.211a3.4 3.4 0 0 1 1.494 2.625c0 .953-.672 1.343-1.494.867A3.357 3.357 0 0 1 0 1.078C0 .112.672-.278 1.494.211" transform="translate(59.016 74.273)" fill="#ff578f"/></g><g id="Group_5068" data-name="Group 5068" transform="translate(68.32 66.85)"><path id="Clip_5067-2" data-name="Clip 5067" d="M0 36.326v19.235l66.437-37.712L66.31.41 62.084 0z" transform="translate(.175 .073)" fill="none"/><g id="Group_5068-2" data-name="Group 5068" clip-path="url(#clip-path-13)"><path id="Fill_5066" data-name="Fill 5066" d="M0 36.326v19.235l66.437-37.712L66.31.41 62.084 0z" transform="translate(.175 .073)" fill="#bdd6f2"/></g></g><path id="Fill_5069" data-name="Fill 5069" d="M0 37.283L65.776 0l68.9 39.7-66.308 37.732z" transform="translate(.126 27.632)" fill="#7eb5f3"/><g id="Group_5117" data-name="Group 5117" transform="translate(79.52 23.73)"><path id="Clip_5116-2" data-name="Clip 5116" d="M0 .718a.717.717 0 0 0 .718.718.718.718 0 0 0 .718-.718A.718.718 0 0 0 .718 0 .717.717 0 0 0 0 .718" transform="translate(.198 .122)" fill="none"/></g><g id="Group_5120" data-name="Group 5120" transform="translate(72.45 5.81)"><path id="Clip_5119-2" data-name="Clip 5119" d="M.184.559a.376.376 0 0 0 .377.377.376.376 0 0 0 .375-.377.376.376 0 0 0-.375-.375.376.376 0 0 0-.377.375" transform="translate(.314 .08)" fill="none"/></g><g id="Group_5123" data-name="Group 5123" transform="translate(67.76)"><path id="Clip_5122-2" data-name="Clip 5122" d="M.047.56a.513.513 0 0 0 .513.513.513.513 0 0 0 .513-.513A.513.513 0 0 0 .56.047.513.513 0 0 0 .047.56" transform="translate(.013 .145)" fill="none"/></g><g id="Group_5143" data-name="Group 5143" transform="translate(53.2 8.05)"><path id="Clip_5142-2" data-name="Clip 5142" d="M0 .717a.718.718 0 0 0 .719.718.718.718 0 0 0 .718-.718A.718.718 0 0 0 .719 0 .718.718 0 0 0 0 .717" transform="translate(.199 .24)" fill="none"/></g></g><g id="Group_5" data-name="Group 5" transform="translate(188 38)"><path id="Fill_494" data-name="Fill 494" d="M63.282 163.376l-5.052-11.113c37.934-48.469 46.01-96.217 47.422-120.684 4.278-5.069 9.952-11.863 9.952-11.863l-10.826-7.53c-6.7 2.135-11.312 4.306-15.474 2.07l1.426-6.672L79.9.054S74.272-1.36 54.082 10.3l-3.22 1.87C30.672 23.823 25 31.765 25 31.765A75.221 75.221 0 0 1 .123 72.619s-5.336 86.129 54.427 88.694l.172.342c1.034-1.238.612-5.75 1.607-6.989z" fill="#7eb5f3"/><path id="Clip_498-2" data-name="Clip 498" d="M54.255 10.3l-3.22 1.868c-20.191 11.657-25.867 19.6-25.867 19.6A75.207 75.207 0 0 1 .295 72.618s-7.43 80.664 52.332 83.228h-.011c59.763-71.576 52.333-143.66 52.333-143.66C91.547 16.454 83.131 10.717 80.075.054A3.3 3.3 0 0 0 79.364 0C77.32 0 70.5.917 54.255 10.3" transform="translate(10.655 7.53)" fill="none"/><g id="Group_5-2" data-name="Group 5" clip-path="url(#clip-path-18)"><path id="Fill_497" data-name="Fill 497" d="M54.255 10.3l-3.22 1.868c-20.191 11.657-25.867 19.6-25.867 19.6A75.207 75.207 0 0 1 .295 72.618s-7.43 80.664 52.332 83.228h-.011c59.763-71.576 52.333-143.66 52.333-143.66C91.547 16.454 83.131 10.717 80.075.054A3.3 3.3 0 0 0 79.364 0C77.32 0 70.5.917 54.255 10.3" transform="translate(10.655 7.53)" fill="#7eb5f3"/><path id="Fill_500" data-name="Fill 500" d="M86.559 4.034s-5.628-1.41-25.817 10.237l-3.222 1.871c-20.189 11.659-25.864 19.6-25.864 19.6A75.256 75.256 0 0 1 6.776 76.6s-6.09 66.1 37.1 80.519C-8.994 148.8.7 72.621.7 72.621a75.206 75.206 0 0 0 24.866-40.852s4.49-7.938 24.679-19.6l3.223-1.869c20.189-11.658 27-10.248 27-10.248z" transform="translate(10.485 7.193)" fill="#7eb5f3"/><g id="Group_506" data-name="Group 506" transform="translate(16.585 10.339)"><path id="Clip_505-2" data-name="Clip 505" d="M105.255 20.184a168.613 168.613 0 0 1-1.28 20.129 184.793 184.793 0 0 1-.793 5.876 210.8 210.8 0 0 1-8.815 35.994q-1.706 5.065-3.792 10.343-1.172 2.968-2.488 6.007a215.5 215.5 0 0 1-7.3 15.307 185.093 185.093 0 0 1-1.729 3.247 174.04 174.04 0 0 1-1.658 3 232.749 232.749 0 0 1-13.033 20.521q-1.546 2.185-3.163 4.372-4.052 5.42-8.578 10.865c-32.4-1.387-45.058-25.746-49.844-47.747a114.45 114.45 0 0 1-1.327-7.2A131.016 131.016 0 0 1 .3 72.61c.272-.224.545-.45.805-.686q1.352-1.156 2.63-2.382c.912-.864 1.8-1.753 2.654-2.653a75.82 75.82 0 0 0 10.189-13.5 79.902 79.902 0 0 0 3.032-5.651 70.49 70.49 0 0 0 4.04-10.213 63.156 63.156 0 0 0 1.529-5.77s5.509-7.7 24.952-19.063c.3-.178.6-.355.912-.533l3.222-1.872c.379-.226.758-.439 1.138-.652C74.664-1.308 80.078.054 80.078.054c3.056 10.663 11.468 16.4 24.881 12.132" transform="translate(.381 .839)" fill="none"/><g id="Group_506-2" data-name="Group 506" clip-path="url(#clip-path-19)"><path id="Fill_504" data-name="Fill 504" d="M105.255 20.184a168.613 168.613 0 0 1-1.28 20.129 184.793 184.793 0 0 1-.793 5.876 210.8 210.8 0 0 1-8.815 35.994q-1.706 5.065-3.792 10.343-1.172 2.968-2.488 6.007a215.5 215.5 0 0 1-7.3 15.307 185.093 185.093 0 0 1-1.729 3.247 174.04 174.04 0 0 1-1.658 3 232.749 232.749 0 0 1-13.033 20.521q-1.546 2.185-3.163 4.372-4.052 5.42-8.578 10.865c-32.4-1.387-45.058-25.746-49.844-47.747a114.45 114.45 0 0 1-1.327-7.2A131.016 131.016 0 0 1 .3 72.61c.272-.224.545-.45.805-.686q1.352-1.156 2.63-2.382c.912-.864 1.8-1.753 2.654-2.653a75.82 75.82 0 0 0 10.189-13.5 79.902 79.902 0 0 0 3.032-5.651 70.49 70.49 0 0 0 4.04-10.213 63.156 63.156 0 0 0 1.529-5.77s5.509-7.7 24.952-19.063c.3-.178.6-.355.912-.533l3.222-1.872c.379-.226.758-.439 1.138-.652C74.664-1.308 80.078.054 80.078.054c3.056 10.663 11.468 16.4 24.881 12.132 0 0 .3 2.856.3 8" transform="translate(.381 .839)" fill="#fff"/></g></g></g><path id="Clip_509-2" data-name="Clip 509" d="M0 28.493v62.324c.082.013.161.017.242.03C26.592 57.323 37.249 23.95 41.449 0 25.157 15.311 14.969 20.394 0 28.493" transform="translate(69.004 65.892)" fill="none"/><g clip-path="url(#clip-path-20)"><path id="Fill_508" data-name="Fill 508" d="M0 28.493v62.324c.082.013.161.017.242.03C26.592 57.323 37.249 23.95 41.449 0 25.157 15.311 14.969 20.394 0 28.493" transform="translate(69.004 65.892)" opacity=".212" fill="url(#linear-gradient-11)"/></g><path id="Clip_512-2" data-name="Clip 512" d="M42.239 1.063C32.117 6.906 26.3 11.519 23.4 14.119A97.457 97.457 0 0 1 0 54.05a120.344 120.344 0 0 0 2.614 25.7c16.293-3.5 26.486-10.18 41.45-19.365V0z" transform="translate(24.881 34.034)" fill="none"/><g clip-path="url(#clip-path-21)"><path id="Fill_511" data-name="Fill 511" d="M42.239 1.063C32.117 6.906 26.3 11.519 23.4 14.119A97.457 97.457 0 0 1 0 54.05a120.344 120.344 0 0 0 2.614 25.7c16.293-3.5 26.486-10.18 41.45-19.365V0z" transform="translate(24.881 34.034)" opacity=".212" fill="url(#linear-gradient-11)"/></g></g><g id="Group-3" data-name="Group" transform="translate(0 373)"><path id="Fill_375" data-name="Fill 375" d="M138.466 77.767L4.95.677C3.063-.409 1.425-.144.588 1.156a.005.005 0 0 0-.005.005A4.355 4.355 0 0 0 0 3.506V111.24a10.567 10.567 0 0 0 2.132 5.9 9.33 9.33 0 0 0 2.818 2.642l133.515 77.085a5.839 5.839 0 0 0 .941.442 2.891 2.891 0 0 0 2.855-.281.005.005 0 0 1 .005-.005 3.651 3.651 0 0 0 1.154-2.98V86.311a10.9 10.9 0 0 0-4.956-8.544" transform="translate(88.382)" fill="url(#linear-gradient-6)"/><path id="Fill_377" data-name="Fill 377" d="M1.884 41.977L82.354.9c2.34-1.35 6.455-1.165 9.19.414l129.385 74.7h6.4v5.2a2.613 2.613 0 0 1-1.554 2.49l-80.3 46.361c-2.339 1.35-6.454 1.165-9.19-.414L2.773 52.569c-2.735-1.579-4.15-8.961-.889-10.592" transform="translate(.549 121.973)" fill="#fff"/><path id="Fill_379" data-name="Fill 379" d="M138.466 77.766L4.95.681C3.427-.2 2.07-.2 1.16.52a.005.005 0 0 0-.005.005A3.651 3.651 0 0 0 0 3.5v107.738a10.029 10.029 0 0 0 1.5 4.93 10.008 10.008 0 0 0 3.453 3.614l133.515 77.09a5.555 5.555 0 0 0 1.082.484 3.515 3.515 0 0 0 .525.13l.005.005a2.538 2.538 0 0 0 2.756-1.1.005.005 0 0 1 .005-.005 4.355 4.355 0 0 0 .582-2.345V86.309a10.9 10.9 0 0 0-4.956-8.544" transform="translate(87.81 .636)" fill="#fff"/><path id="Fill_381" data-name="Fill 381" d="M134.393 182.594v-104.3a2.186 2.186 0 0 0-.992-1.711L.992.136C.444-.18 0 .073 0 .7V105a2.184 2.184 0 0 0 .992 1.71L133.4 183.159c.548.317.992.063.992-.565" transform="translate(92.323 6.547)" fill="#0d2d87"/><path id="Fill_383" data-name="Fill 383" d="M226.747 80.773a4.453 4.453 0 0 0-2.179-2.371L91.053 1.317A9.267 9.267 0 0 0 89.472.6a11.465 11.465 0 0 0-1.206-.334 9.453 9.453 0 0 0-6.4.64l-80.3 46.358a3.88 3.88 0 0 0-.567.39c-1.7 1.383-1.212 3.479 1.279 4.914l1.019.588L52.2 81.391l35.65 20.582 47.95 27.685c2.735 1.576 6.848 1.763 9.188.411l62.629-36.156 17.67-10.2a2.78 2.78 0 0 0 1.555-2.075c0-.016.005-.031.005-.047a2.215 2.215 0 0 0-.1-.816" transform="translate(1.041 116.537)" fill="url(#linear-gradient-6)"/><path id="Fill_385" data-name="Fill 385" d="M.7 14.583L44.721 40a4.5 4.5 0 0 0 4.049-.167l20.219-11.676c1.2-.692 1.329-1.738.291-2.338L25.259.4a4.5 4.5 0 0 0-4.049.172L.991 12.245c-1.2.692-1.329 1.739-.291 2.338" transform="translate(55.421 175.711)" fill="#0d2d87"/><path id="Fill_387-2" data-name="Fill 387" d="M.017.01a5.406 5.406 0 0 1 .828.013A6.174 6.174 0 0 1 3.3.789l31.038 17.92c.992.573 1.466 1.3 1.35 1.9a5.344 5.344 0 0 1-.828-.014 6.165 6.165 0 0 1-2.459-.765L1.368 1.907C.376 1.335-.1.61.017.01" transform="translate(53.224 197.901)" fill="#4082fd"/><path id="Fill_389" data-name="Fill 389" d="M125.52 95.523a1.409 1.409 0 0 1-.693-.167l-6.381-3.7a.478.478 0 0 1-.281-.391.467.467 0 0 1 .276-.383l1.94-1.113a1.338 1.338 0 0 1 .658-.157 1.412 1.412 0 0 1 .694.167l6.38 3.7a.483.483 0 0 1 .284.394.465.465 0 0 1-.273.381l-1.945 1.112a1.338 1.338 0 0 1-.659.157zm-8.959-5.189a1.388 1.388 0 0 1-.689-.167l-6.37-3.692a.483.483 0 0 1-.284-.394.465.465 0 0 1 .274-.381l1.8-1.035a1.364 1.364 0 0 1 .664-.157 1.4 1.4 0 0 1 .682.163l6.376 3.692a.485.485 0 0 1 .284.4.466.466 0 0 1-.274.383l-1.809 1.035a1.34 1.34 0 0 1-.654.153zm16.654-.624a1.406 1.406 0 0 1-.692-.167l-15.751-9.116a.408.408 0 0 1-.005-.774l5.824-3.344a1.5 1.5 0 0 1 1.347.011l15.772 9.111a.483.483 0 0 1 .284.4.466.466 0 0 1-.274.383l-5.845 3.344a1.341 1.341 0 0 1-.661.152zm-12.3-1.872a1.384 1.384 0 0 1-.688-.167l-6.375-3.692a.477.477 0 0 1-.284-.391.464.464 0 0 1 .273-.384l1.675-.957a1.347 1.347 0 0 1 .663-.157 1.409 1.409 0 0 1 .684.162l6.376 3.693a.481.481 0 0 1 .285.394.468.468 0 0 1-.275.386l-1.674.957a1.343 1.343 0 0 1-.664.156zm-13.43-2.766a1.388 1.388 0 0 1-.689-.167l-6.359-3.686a.475.475 0 0 1-.279-.391.466.466 0 0 1 .274-.384l1.935-1.108a1.354 1.354 0 0 1 .667-.159 1.369 1.369 0 0 1 .68.165l6.359 3.686a.477.477 0 0 1 .284.391.464.464 0 0 1-.273.384l-1.94 1.113a1.339 1.339 0 0 1-.663.156zm34.727-.514a1.407 1.407 0 0 1-.685-.163l-11.43-6.6a.477.477 0 0 1-.284-.391.465.465 0 0 1 .274-.384l5.835-3.349a1.4 1.4 0 0 1 .667-.155 1.38 1.38 0 0 1 .685.165l11.44 6.6a.485.485 0 0 1 .288.4.467.467 0 0 1-.278.383l-5.849 3.336a1.37 1.37 0 0 1-.666.158zm-44-4.857a1.406 1.406 0 0 1-.685-.163l-6.344-3.681a.477.477 0 0 1-.284-.391.465.465 0 0 1 .274-.384l5.8-3.334a1.469 1.469 0 0 1 1.341.005l6.355 3.676a.483.483 0 0 1 .284.4.458.458 0 0 1-.274.376l-5.808 3.338a1.349 1.349 0 0 1-.661.157zm53.011-.3a1.393 1.393 0 0 1-.692-.167L144.6 75.82a.482.482 0 0 1-.284-.4.468.468 0 0 1 .278-.384l1.955-1.119 3.89-2.23a1.36 1.36 0 0 1 .669-.159 1.375 1.375 0 0 1 .683.165l5.939 3.416a.481.481 0 0 1 .285.394.468.468 0 0 1-.276.386l-3.785 2.169-2.07 1.185a1.342 1.342 0 0 1-.663.157zm-36.745-.535a1.406 1.406 0 0 1-.685-.163l-5.893-3.408a.484.484 0 0 1-.284-.395.464.464 0 0 1 .273-.38l5.819-3.344a1.5 1.5 0 0 1 1.346.01l5.9 3.407a.484.484 0 0 1 .284.4.465.465 0 0 1-.273.382l-5.824 3.339a1.349 1.349 0 0 1-.665.155zm13.315-2.637a1.385 1.385 0 0 1-.688-.167l-5.9-3.411a.477.477 0 0 1-.284-.391.465.465 0 0 1 .274-.384l5.829-3.343a1.347 1.347 0 0 1 .663-.157 1.409 1.409 0 0 1 .684.162l5.913 3.412a.482.482 0 0 1 .284.394.465.465 0 0 1-.274.381l-5.835 3.348a1.363 1.363 0 0 1-.667.158zM88.895 74.3a1.374 1.374 0 0 1-.682-.165l-8.424-4.882a.473.473 0 0 1-.279-.392.459.459 0 0 1 .274-.378l5.793-3.338a1.473 1.473 0 0 1 1.336.01l8.434 4.878a.481.481 0 0 1 .282.392.466.466 0 0 1-.271.383l-5.8 3.338a1.367 1.367 0 0 1-.663.154zm71.186-.014a1.392 1.392 0 0 1-.691-.167l-5.933-3.419a.483.483 0 0 1-.284-.4.468.468 0 0 1 .278-.383l3.136-1.788a1.522 1.522 0 0 1 1.357.01l5.934 3.416a.485.485 0 0 1 .287.4.466.466 0 0 1-.278.383l-3.146 1.789a1.352 1.352 0 0 1-.66.16zm-17.788-.031a1.393 1.393 0 0 1-.692-.167l-5.917-3.411a.485.485 0 0 1-.284-.4.466.466 0 0 1 .273-.383l1.814-1.04 4.025-2.309a1.349 1.349 0 0 1 .662-.157 1.39 1.39 0 0 1 .69.167l5.927 3.411a.481.481 0 0 1 .283.4.46.46 0 0 1-.278.377l-3.916 2.246-1.927 1.111a1.342 1.342 0 0 1-.66.155zm-36.688-.52a1.406 1.406 0 0 1-.685-.163l-5.88-3.404a.475.475 0 0 1-.28-.39.467.467 0 0 1 .274-.385l5.809-3.338a1.341 1.341 0 0 1 .66-.157 1.4 1.4 0 0 1 .681.162l5.891 3.406a.475.475 0 0 1 .28.39.467.467 0 0 1-.274.385l-5.813 3.338a1.349 1.349 0 0 1-.668.157zM118.9 71.1a1.369 1.369 0 0 1-.68-.165l-5.9-3.406a.409.409 0 0 1-.005-.775l5.819-3.344a1.345 1.345 0 0 1 .662-.157 1.406 1.406 0 0 1 .684.163l5.9 3.406a.409.409 0 0 1 .005.775l-5.825 3.344a1.354 1.354 0 0 1-.66.159zm32.256-1.958a1.392 1.392 0 0 1-.691-.167l-5.918-3.411a.484.484 0 0 1-.284-.395.464.464 0 0 1 .273-.38L147.665 63a1.37 1.37 0 0 1 .667-.157 1.407 1.407 0 0 1 .685.163l5.927 3.416a.477.477 0 0 1 .284.391.464.464 0 0 1-.273.384l-3.141 1.789a1.347 1.347 0 0 1-.661.153zm-17.776-.022a1.379 1.379 0 0 1-.684-.165l-5.912-3.406a.483.483 0 0 1-.284-.394.463.463 0 0 1 .273-.38l1.685-.967 4.15-2.381a1.357 1.357 0 0 1 .668-.159 1.373 1.373 0 0 1 .68.164l5.917 3.407a.483.483 0 0 1 .284.4.459.459 0 0 1-.274.377l-4.046 2.324-1.794 1.03a1.37 1.37 0 0 1-.666.146zm-36.627-.5a1.385 1.385 0 0 1-.68-.163l-5.871-3.4a.475.475 0 0 1-.284-.391.459.459 0 0 1 .274-.379l5.8-3.343a1.347 1.347 0 0 1 .657-.155 1.377 1.377 0 0 1 .684.165l5.876 3.4a.477.477 0 0 1 .284.391.464.464 0 0 1-.273.384l-5.809 3.338a1.344 1.344 0 0 1-.661.147zm-19.245-.92a1.349 1.349 0 0 1-.677-.165L39.478 45.888a.407.407 0 0 1-.005-.769l5.756-3.327a1.44 1.44 0 0 1 1.326 0l37.393 21.646a.474.474 0 0 1 .282.389.46.46 0 0 1-.271.381l-5.792 3.338a1.369 1.369 0 0 1-.659.154zm32.518-1.732a1.38 1.38 0 0 1-.685-.165l-5.881-3.4a.482.482 0 0 1-.284-.4.458.458 0 0 1 .273-.377l5.814-3.344a1.353 1.353 0 0 1 .664-.159 1.368 1.368 0 0 1 .677.164l5.892 3.4a.483.483 0 0 1 .284.4.459.459 0 0 1-.274.377l-5.819 3.349a1.373 1.373 0 0 1-.662.157zM142.243 64a1.39 1.39 0 0 1-.688-.167l-5.913-3.407a.476.476 0 0 1-.284-.391.465.465 0 0 1 .274-.384l3.125-1.788a1.511 1.511 0 0 1 1.352.01l5.913 3.406a.475.475 0 0 1 .286.388.467.467 0 0 1-.276.386l-3.13 1.788a1.337 1.337 0 0 1-.659.159zm-17.762-.015a1.406 1.406 0 0 1-.684-.163l-5.9-3.4a.48.48 0 0 1-.281-.393.47.47 0 0 1 .276-.386l1.539-.885 4.28-2.459a1.5 1.5 0 0 1 1.353 0l5.9 3.4a.475.475 0 0 1 .286.389.467.467 0 0 1-.275.386l-4.176 2.4-1.653.952a1.345 1.345 0 0 1-.665.16zM87.907 63.5a1.364 1.364 0 0 1-.678-.165l-5.86-3.39a.475.475 0 0 1-.282-.389.466.466 0 0 1 .271-.386l5.793-3.338a1.373 1.373 0 0 1 .665-.156 1.39 1.39 0 0 1 .676.161l5.866 3.4a.475.475 0 0 1 .284.392.457.457 0 0 1-.274.378l-5.8 3.339a1.349 1.349 0 0 1-.661.154zm13.255-2.647a1.363 1.363 0 0 1-.677-.165L94.609 57.3a.48.48 0 0 1-.281-.392.469.469 0 0 1 .276-.383l5.8-3.344a1.349 1.349 0 0 1 .663-.157 1.406 1.406 0 0 1 .685.163l5.881 3.4a.408.408 0 0 1 .005.774l-5.809 3.339a1.348 1.348 0 0 1-.667.153zm32.174-1.982a1.372 1.372 0 0 1-.679-.164l-5.9-3.4a.479.479 0 0 1-.281-.392.469.469 0 0 1 .276-.383l3.115-1.784a1.355 1.355 0 0 1 .667-.159 1.37 1.37 0 0 1 .68.165l5.907 3.4a.477.477 0 0 1 .284.391.465.465 0 0 1-.273.384L134 58.711a1.355 1.355 0 0 1-.663.16zm-17.742 0a1.369 1.369 0 0 1-.68-.165l-5.886-3.4a.477.477 0 0 1-.284-.391.464.464 0 0 1 .273-.384l1.4-.806 4.41-2.543a1.382 1.382 0 0 1 .666-.155 1.4 1.4 0 0 1 .68.161l5.9 3.4a.482.482 0 0 1 .284.4.46.46 0 0 1-.278.377l-4.306 2.475-1.513.874a1.358 1.358 0 0 1-.665.152zm-36.507-.473a1.374 1.374 0 0 1-.682-.165l-5.85-3.385a.473.473 0 0 1-.279-.388.465.465 0 0 1 .275-.382l5.782-3.339a1.324 1.324 0 0 1 .657-.157 1.379 1.379 0 0 1 .679.163l5.861 3.385a.475.475 0 0 1 .279.391.466.466 0 0 1-.274.384l-5.788 3.339a1.367 1.367 0 0 1-.659.15zm13.234-2.65a1.4 1.4 0 0 1-.682-.163L85.774 52.2a.481.481 0 0 1-.279-.394.467.467 0 0 1 .275-.381l5.792-3.344a1.34 1.34 0 0 1 .66-.157 1.4 1.4 0 0 1 .682.163l5.871 3.39a.475.475 0 0 1 .284.392.457.457 0 0 1-.274.377l-5.8 3.344a1.339 1.339 0 0 1-.663.154zm14.412-1.992a1.406 1.406 0 0 1-.684-.163l-5.876-3.39a.477.477 0 0 1-.284-.391.465.465 0 0 1 .274-.384l1.268-.728 4.54-2.615a1.471 1.471 0 0 1 1.342.005l5.886 3.385a.484.484 0 0 1 .284.4.458.458 0 0 1-.273.376l-4.436 2.549-1.379.8a1.345 1.345 0 0 1-.662.152zm17.721 0a1.373 1.373 0 0 1-.68-.164l-5.886-3.4a.477.477 0 0 1-.284-.391.464.464 0 0 1 .273-.384l3.1-1.784a1.345 1.345 0 0 1 .662-.157 1.406 1.406 0 0 1 .684.163l5.9 3.4a.483.483 0 0 1 .284.394.464.464 0 0 1-.273.381l-3.115 1.783a1.356 1.356 0 0 1-.664.152zm-54.18-.456a1.362 1.362 0 0 1-.677-.165l-5.84-3.38a.473.473 0 0 1-.279-.388.465.465 0 0 1 .275-.382l5.772-3.338a1.493 1.493 0 0 1 1.337.005l5.85 3.38a.475.475 0 0 1 .279.391.466.466 0 0 1-.274.384l-5.782 3.334a1.328 1.328 0 0 1-.661.159zm13.215-2.652a1.34 1.34 0 0 1-.673-.165L76.96 47.1a.475.475 0 0 1-.282-.388.467.467 0 0 1 .272-.386l5.787-3.339a1.345 1.345 0 0 1 .66-.157 1.374 1.374 0 0 1 .677.162l5.865 3.38a.475.475 0 0 1 .28.39.467.467 0 0 1-.274.385l-5.792 3.338a1.348 1.348 0 0 1-.665.16zm14.389-2a1.4 1.4 0 0 1-.679-.161L91.333 45.1a.484.484 0 0 1-.284-.395.465.465 0 0 1 .273-.38l1.129-.65 4.67-2.694a1.348 1.348 0 0 1 .664-.159 1.363 1.363 0 0 1 .677.165l5.876 3.379a.484.484 0 0 1 .284.395.464.464 0 0 1-.273.38l-4.566 2.632-1.243.717a1.362 1.362 0 0 1-.662.159zm17.712-.011a1.37 1.37 0 0 1-.68-.165l-5.876-3.39a.476.476 0 0 1-.284-.391.465.465 0 0 1 .274-.384l3.1-1.778a1.487 1.487 0 0 1 1.342 0l5.887 3.39a.483.483 0 0 1 .284.394.465.465 0 0 1-.274.381l-3.1 1.784a1.355 1.355 0 0 1-.673.16zm-54.106-.429a1.394 1.394 0 0 1-.679-.163l-5.829-3.375a.472.472 0 0 1-.28-.391.459.459 0 0 1 .274-.379l5.766-3.338a1.354 1.354 0 0 1 .659-.155 1.369 1.369 0 0 1 .673.161l5.839 3.375a.472.472 0 0 1 .279.391.459.459 0 0 1-.274.379l-5.772 3.339a1.333 1.333 0 0 1-.657.157zm13.191-2.655A1.343 1.343 0 0 1 74 45.39l-5.845-3.375a.473.473 0 0 1-.282-.386.465.465 0 0 1 .272-.384l5.777-3.338a1.476 1.476 0 0 1 1.337 0l5.855 3.374a.481.481 0 0 1 .279.394.467.467 0 0 1-.275.381L75.337 45.4a1.352 1.352 0 0 1-.663.154zm-37.464-1.2a1.363 1.363 0 0 1-.67-.161l-8.475-4.914a.473.473 0 0 1-.276-.388.465.465 0 0 1 .271-.382l5.739-3.332a1.348 1.348 0 0 1 .657-.155 1.363 1.363 0 0 1 .67.161l8.486 4.909a.407.407 0 0 1 .005.77l-5.756 3.334a1.348 1.348 0 0 1-.652.154zm51.831-.8a1.391 1.391 0 0 1-.677-.161L82.5 40.013a.474.474 0 0 1-.279-.391.46.46 0 0 1 .274-.379l1-.577 4.79-2.766a1.359 1.359 0 0 1 .669-.16 1.382 1.382 0 0 1 .673.16l5.865 3.38a.474.474 0 0 1 .282.39.458.458 0 0 1-.271.38l-4.691 2.709-1.112.641a1.376 1.376 0 0 1-.659.153zm17.7-.019a1.4 1.4 0 0 1-.684-.163l-5.866-3.385a.477.477 0 0 1-.284-.391.465.465 0 0 1 .274-.384l3.089-1.778a1.485 1.485 0 0 1 1.341 0l5.876 3.385a.477.477 0 0 1 .284.391.464.464 0 0 1-.273.384l-3.1 1.784a1.321 1.321 0 0 1-.655.158zM52.7 43.129a1.373 1.373 0 0 1-.676-.163L46.207 39.6a.475.475 0 0 1-.28-.388.463.463 0 0 1 .27-.381l5.762-3.333a1.316 1.316 0 0 1 .655-.157 1.38 1.38 0 0 1 .676.162l5.829 3.365a.475.475 0 0 1 .279.39.467.467 0 0 1-.275.384l-5.766 3.333a1.318 1.318 0 0 1-.657.154zm13.18-2.657a1.373 1.373 0 0 1-.676-.163l-5.835-3.37a.474.474 0 0 1-.282-.39.458.458 0 0 1 .271-.38l5.773-3.339a1.337 1.337 0 0 1 .663-.159 1.36 1.36 0 0 1 .668.159l5.845 3.37a.475.475 0 0 1 .279.391.466.466 0 0 1-.274.384l-5.777 3.339a1.317 1.317 0 0 1-.655.158zm14.342-2a1.39 1.39 0 0 1-.677-.161l-5.85-3.374a.473.473 0 0 1-.28-.388.464.464 0 0 1 .274-.382l.858-.5 4.925-2.845a1.339 1.339 0 0 1 .664-.159 1.385 1.385 0 0 1 .672.159l5.854 3.375a.409.409 0 0 1 .005.775l-4.815 2.782-.972.562a1.356 1.356 0 0 1-.659.151zm17.684-.029a1.4 1.4 0 0 1-.681-.162l-5.86-3.38a.473.473 0 0 1-.28-.387.466.466 0 0 1 .274-.382l3.083-1.784a1.356 1.356 0 0 1 .662-.155 1.372 1.372 0 0 1 .675.161l5.865 3.38a.476.476 0 0 1 .284.388.463.463 0 0 1-.273.381l-3.089 1.784a1.346 1.346 0 0 1-.66.151zm-53.972-.382a1.361 1.361 0 0 1-.67-.161l-5.813-3.364a.406.406 0 0 1-.005-.77l5.754-3.337a1.351 1.351 0 0 1 .659-.155 1.366 1.366 0 0 1 .672.161l5.819 3.359a.471.471 0 0 1 .278.389.46.46 0 0 1-.273.38l-5.76 3.337a1.369 1.369 0 0 1-.661.157zm-18.128-.32a1.343 1.343 0 0 1-.669-.162l-7.457-4.327a.473.473 0 0 1-.28-.389.455.455 0 0 1 .27-.375l5.736-3.328a1.327 1.327 0 0 1 .661-.16 1.35 1.35 0 0 1 .665.16l7.468 4.322a.407.407 0 0 1 .005.77l-5.741 3.328a1.338 1.338 0 0 1-.658.156zM57.094 35.4a1.368 1.368 0 0 1-.674-.162l-5.829-3.368a.407.407 0 0 1-.005-.77l5.762-3.338a1.351 1.351 0 0 1 .659-.155 1.366 1.366 0 0 1 .672.161l5.835 3.364a.474.474 0 0 1 .279.388.465.465 0 0 1-.274.382l-5.768 3.338a1.339 1.339 0 0 1-.657.16zm14.319-2.005a1.343 1.343 0 0 1-.672-.164L64.9 29.862a.475.475 0 0 1-.28-.392.457.457 0 0 1 .27-.377l.728-.421 5.049-2.922a1.334 1.334 0 0 1 .664-.16 1.381 1.381 0 0 1 .672.16l5.845 3.37a.474.474 0 0 1 .279.388.465.465 0 0 1-.274.382l-4.946 2.86-.832.483a1.349 1.349 0 0 1-.662.158zm17.673-.038a1.4 1.4 0 0 1-.681-.163l-5.85-3.375a.474.474 0 0 1-.279-.388.465.465 0 0 1 .274-.382l3.074-1.778a1.476 1.476 0 0 1 1.336 0l5.855 3.375a.475.475 0 0 1 .284.388.464.464 0 0 1-.274.382L89.742 33.2a1.319 1.319 0 0 1-.656.153zm-53.9-.359a1.374 1.374 0 0 1-.677-.163l-5.8-3.353a.476.476 0 0 1-.28-.388.463.463 0 0 1 .269-.381l5.746-3.334a1.345 1.345 0 0 1 .656-.155 1.36 1.36 0 0 1 .669.161l5.809 3.354a.474.474 0 0 1 .28.388.463.463 0 0 1-.27.382l-5.751 3.333a1.314 1.314 0 0 1-.648.152zm-19.768-1.28a1.335 1.335 0 0 1-.665-.161L8.97 28.209a.406.406 0 0 1-.005-.77l5.725-3.328a1.348 1.348 0 0 1 .657-.155 1.363 1.363 0 0 1 .67.161l5.783 3.348a.473.473 0 0 1 .276.387.465.465 0 0 1-.27.382l-5.736 3.328a1.343 1.343 0 0 1-.652.156zm32.907-1.387a1.373 1.373 0 0 1-.676-.163l-5.815-3.358a.474.474 0 0 1-.279-.388.465.465 0 0 1 .274-.382l5.752-3.334a1.333 1.333 0 0 1 .664-.16 1.356 1.356 0 0 1 .668.16l5.824 3.36a.407.407 0 0 1 .005.77l-5.762 3.338a1.317 1.317 0 0 1-.656.158zm14.294-2.01a1.375 1.375 0 0 1-.67-.16l-5.83-3.361a.407.407 0 0 1-.005-.769l.588-.338 5.18-3a1.332 1.332 0 0 1 .663-.16 1.359 1.359 0 0 1 .668.16l5.834 3.36a.475.475 0 0 1 .282.388.466.466 0 0 1-.271.386l-5.075 2.932-.7.406a1.356 1.356 0 0 1-.665.157zm17.652-.047a1.357 1.357 0 0 1-.668-.16l-5.839-3.37a.476.476 0 0 1-.28-.388.463.463 0 0 1 .269-.381l3.066-1.775a1.476 1.476 0 0 1 1.337 0L84 25.567a.474.474 0 0 1 .282.386.465.465 0 0 1-.271.384l-3.074 1.778a1.357 1.357 0 0 1-.667.16zm-53.823-.333a1.35 1.35 0 0 1-.665-.16l-16.76-9.7a.471.471 0 0 1-.277-.386.466.466 0 0 1 .273-.384l5.725-3.328a1.306 1.306 0 0 1 .657-.16 1.352 1.352 0 0 1 .665.16l16.78 9.7a.4.4 0 0 1 .005.765l-5.74 3.333a1.331 1.331 0 0 1-.665.161zM6.715 26.674a1.353 1.353 0 0 1-.667-.161L.275 23.17A.474.474 0 0 1 0 22.782a.465.465 0 0 1 .27-.382l5.72-3.323a1.321 1.321 0 0 1 .658-.16 1.348 1.348 0 0 1 .663.16l5.777 3.344a.407.407 0 0 1 0 .77l-5.72 3.328a1.339 1.339 0 0 1-.653.155zm32.846-1.4a1.35 1.35 0 0 1-.665-.16l-5.8-3.353a.476.476 0 0 1-.28-.389.463.463 0 0 1 .269-.382l5.747-3.333a1.333 1.333 0 0 1 .664-.16 1.356 1.356 0 0 1 .668.16l5.809 3.354a.474.474 0 0 1 .28.388.463.463 0 0 1-.27.382l-5.756 3.333a1.327 1.327 0 0 1-.666.16zm14.282-2.012a1.355 1.355 0 0 1-.667-.16l-5.819-3.359a.475.475 0 0 1-.28-.388.463.463 0 0 1 .27-.381l.452-.266 5.3-3.073a1.464 1.464 0 0 1 1.331 0l5.829 3.354a.473.473 0 0 1 .279.392.459.459 0 0 1-.275.378l-5.2 3.016-.562.328a1.336 1.336 0 0 1-.658.159zm17.636-.057a1.376 1.376 0 0 1-.67-.16l-5.83-3.365a.407.407 0 0 1-.005-.77l3.058-1.778a1.351 1.351 0 0 1 .659-.155 1.366 1.366 0 0 1 .672.161L75.2 20.5a.472.472 0 0 1 .279.387.465.465 0 0 1-.274.382l-3.063 1.778a1.353 1.353 0 0 1-.663.158zm-40.655-2.979a1.363 1.363 0 0 1-.67-.161l-12.312-7.113a.47.47 0 0 1-.278-.386.459.459 0 0 1 .273-.378l5.73-3.334a1.327 1.327 0 0 1 .661-.16 1.35 1.35 0 0 1 .665.16l12.329 7.108a.471.471 0 0 1 .278.386.466.466 0 0 1-.273.384l-5.746 3.339a1.348 1.348 0 0 1-.657.155zm14.256-2.018a1.356 1.356 0 0 1-.668-.16L38.6 14.7a.474.474 0 0 1-.279-.388.465.465 0 0 1 .274-.382l.318-.182 5.429-3.156a1.333 1.333 0 0 1 .664-.16 1.356 1.356 0 0 1 .668.16l5.814 3.349a.475.475 0 0 1 .28.388.463.463 0 0 1-.27.381l-5.327 3.09-.427.249a1.333 1.333 0 0 1-.663.159zm17.62-.062a1.356 1.356 0 0 1-.668-.16l-5.818-3.36a.474.474 0 0 1-.28-.387.463.463 0 0 1 .27-.382l3.053-1.773a1.332 1.332 0 0 1 .663-.16 1.359 1.359 0 0 1 .668.16l5.824 3.354a.475.475 0 0 1 .28.388.463.463 0 0 1-.27.381l-3.057 1.778a1.333 1.333 0 0 1-.665.161zm-26.367-4.982a1.351 1.351 0 0 1-.666-.16l-9-5.185a.471.471 0 0 1-.277-.385.467.467 0 0 1 .272-.384l.031-.021 5.7-3.317a1.455 1.455 0 0 1 1.327 0L42.739 8.9a.465.465 0 0 1 .275.385.457.457 0 0 1-.271.379l-5.455 3.167L37 13a1.352 1.352 0 0 1-.667.164zm17.614-.072a1.368 1.368 0 0 1-.673-.161l-5.808-3.349a.473.473 0 0 1-.28-.387.465.465 0 0 1 .274-.382L50.5 7.04a1.464 1.464 0 0 1 1.331 0l5.819 3.349a.406.406 0 0 1 .005.769L54.6 12.937a1.35 1.35 0 0 1-.654.155zM45.2 8.047a1.361 1.361 0 0 1-.67-.161l-9-5.184a.471.471 0 0 1-.278-.385.467.467 0 0 1 .273-.384L38.558.16a1.33 1.33 0 0 1 .661-.16 1.354 1.354 0 0 1 .665.16l9.006 5.184a.471.471 0 0 1 .277.385.468.468 0 0 1-.273.384l-3.035 1.779a1.37 1.37 0 0 1-.659.155z" transform="translate(45.804 125.666)" fill="#0d2d87"/><path id="Fill_391" data-name="Fill 391" d="M115.465 73.27a.817.817 0 0 0-.655-.374.806.806 0 0 0-.452.125l-1.958 1.232-.7.447a1.324 1.324 0 0 1-.525-.551l-.478-.879-1.066-1.97a3.159 3.159 0 0 0-.868-1.009l-2.4-1.742a1.475 1.475 0 0 0-2.137.1l-.478.614-.265.338a1.425 1.425 0 0 1-.52-.624l-.1-.229-1.206-2.725a3.081 3.081 0 0 0-.657-.953l-3.172-3.182a2.59 2.59 0 0 0-.707-.51L96.308 61a1.382 1.382 0 0 1-.551-.614l-1.492-3.073a3.123 3.123 0 0 0-.837-1.061l-1.68-1.352a2.2 2.2 0 0 0-.775-.411l-1.794-.5a1.154 1.154 0 0 1-.551-.53l-2.922-5.06a2.8 2.8 0 0 0-1.3-1.206l-1.8-.744a1.509 1.509 0 0 0-1.1-.052l-.712.281a.8.8 0 0 1-.291-.192l-.39-.374a1.968 1.968 0 0 0-1.56-.634 1.277 1.277 0 0 0-.936.577l-.317.494c-.978.2-1.7.328-1.992.38-.281-.338-1.009-1.258-2.829-3.775a1.935 1.935 0 0 0-2.4-.894l-3.286 1.8a1.266 1.266 0 0 0-.53.551l-.9 1.778c-.01-.005-.021-.016-.031-.021l-3.713-2.8a1.761 1.761 0 0 0-1.477-.39l-1.092.276-.64.161a1.209 1.209 0 0 1-.597-.615c-.062-.12-.125-.244-.2-.374a70.669 70.669 0 0 0-1.862-3.281 2.22 2.22 0 0 0-1.539-1.139 1.194 1.194 0 0 0-1.04.338c-.26.26-.593.588-.967.962-.359.359-.759.759-1.18 1.175a2240.58 2240.58 0 0 1-3.682 3.661 1.3 1.3 0 0 1-.406-.4l-5.047-7.483a2.954 2.954 0 0 0-.89-.868l-3.037-1.82a1.461 1.461 0 0 1-.478-.546 3.18 3.18 0 0 0-.4-.593 2.207 2.207 0 0 0-1.5-.868c-.062-.005-.12-.005-.182-.005a1.278 1.278 0 0 0-1.128.785.1.1 0 0 0-.021.042c-.166.411-.286.666-.364.827a4.949 4.949 0 0 0-.848.182 20.12 20.12 0 0 0-1.8.66 1.177 1.177 0 0 1-.588-.588l-.671-1.279-1.062-2.018-.51-.972-1.511-2.647-1.57-2.761-5.065-8.9a2.3 2.3 0 0 0-2.142-1.342l-2.335.328a.748.748 0 0 1-.3-.2l-1.971-1.924a2.032 2.032 0 0 0-1.534-.65 1.285 1.285 0 0 0-.863.442 1.323 1.323 0 0 1-.437-.468l-3.82-6.443A2.171 2.171 0 0 0 4.544 3.59l-.489.073-1.212-.749a1.526 1.526 0 0 1-.515-.629L1.543.48A.813.813 0 0 0 .483.064a.811.811 0 0 0-.416 1.061l.79 1.8A3.019 3.019 0 0 0 2 4.282l1.212.749a1.636 1.636 0 0 0 1.352.234l.369-.125a1.113 1.113 0 0 1 .546.515L9.3 12.1a2.446 2.446 0 0 0 1.858 1.3 1.29 1.29 0 0 0 1.045-.447 1.432 1.432 0 0 1 .192.146l1.976 1.929a1.958 1.958 0 0 0 1.6.64l2.335-.322a1.126 1.126 0 0 1 .562.541l3.7 6.505 1.576 2.766 2.668 4.69.224.39.77 1.466 1.414 2.7a2.161 2.161 0 0 0 2.5 1.357 12.364 12.364 0 0 1 2.236-.744.864.864 0 0 0 .3.042.659.659 0 0 0 .177-.021c.369-.094.64-.38.993-1.118.068-.14.135-.3.208-.473a1.52 1.52 0 0 1 .416.51 3.03 3.03 0 0 0 1.082 1.186l3.037 1.82a1.252 1.252 0 0 1 .385.39l5.054 7.483a2.447 2.447 0 0 0 1.669 1.139 1.328 1.328 0 0 0 1.071-.364l4.124-4.1c.426-.426.832-.827 1.18-1.175l.468-.468a1.079 1.079 0 0 1 .255.3c.161.27.333.567.515.884.52.889 1.092 1.893 1.482 2.673.01.021.021.036.031.057a2.283 2.283 0 0 0 2.324 1.4l.068-.016 1.664-.421a.505.505 0 0 1 .182.1l3.713 2.8a1.786 1.786 0 0 0 1.456.39 1.3 1.3 0 0 0 .6-.333 1.339 1.339 0 0 0 .255-.348l.983-1.945L70.7 43.7a1 1 0 0 1 .463.4c3.136 4.321 3.26 4.347 3.635 4.43.187.047.4.088 2.948-.437a1.28 1.28 0 0 0 .822-.556l.255-.4a.851.851 0 0 1 .161.135l.39.369a1.825 1.825 0 0 0 1.862.562l.749-.265 1.8.749a1.231 1.231 0 0 1 .52.515l2.922 5.065a2.723 2.723 0 0 0 1.508 1.274l1.794.5a.582.582 0 0 1 .208.114l1.68 1.352a1.632 1.632 0 0 1 .4.51l1.487 3.073a2.962 2.962 0 0 0 1.316 1.362l.816.385a.963.963 0 0 1 .255.192l3.174 3.171a1.708 1.708 0 0 1 .322.468l.317.712.993 2.241a1.909 1.909 0 0 0 .14.27 2.51 2.51 0 0 0 1.763 1.352 1.335 1.335 0 0 0 .52-.031 1.243 1.243 0 0 0 .7-.452l.541-.692.2-.265.057.042 2.4 1.742a.551.551 0 0 1 .057.047 1.5 1.5 0 0 1 .343.432l1.284 2.366.26.484a2.759 2.759 0 0 0 1.581 1.357 1.8 1.8 0 0 0 .4.052 1.312 1.312 0 0 0 .7-.2c.005 0 .005-.005.01-.005l1.529-.962.832-.525.406-.255a.807.807 0 0 0 .25-1.113" transform="translate(100.831 37.585)" fill="#00d085"/><path id="Fill_393" data-name="Fill 393" d="M109.944 67.975a3.125 3.125 0 0 1-2.371-1.493l-1.951-2.812a1.672 1.672 0 0 0-1.051-.8l-.465.174a2.1 2.1 0 0 1-1.914-.367l-1.367-.94a4.264 4.264 0 0 1-1.587-2.2L96.12 49.088a2.3 2.3 0 0 0-1.338-1.513c-5.667-.969-5.944-1.128-6.126-1.234-.148-.085-.458-.263-6.511-6.286a1.49 1.49 0 0 0-.661-.42l-4.119-.835-2.11 3.1a1.51 1.51 0 0 1-1.191.682 2.81 2.81 0 0 1-2.188-1.125l-.791-.917a1.4 1.4 0 0 0-.872-.57c-.838.4-1.939 0-2.8-1.023l-2.4-2.86a1.93 1.93 0 0 0-.706-.557l-3.477-1.366a.438.438 0 0 0-.192-.041l-4.418 5.424a1.53 1.53 0 0 1-1.282.556 3.19 3.19 0 0 1-2.3-1.51 49.911 49.911 0 0 0-3.081-4.285c-.145-.068-3.437-1.78-6.562-3.4a4.11 4.11 0 0 1-1.837-2.165l-1.318-3.567a2.74 2.74 0 0 0-.392-.7L34.8 18.452a4.164 4.164 0 0 1-.762-1.575l-2.2-9.7c-.2-.876-1.022-1.637-1.419-1.637l-4.144.06h-.025a2.4 2.4 0 0 1-1.34-.464l-4.88-3.344a.834.834 0 0 0-.449-.18L1.116 9.357a.8.8 0 0 1-.622-1.484L18.969.121a2.085 2.085 0 0 1 1.969.34l4.881 3.345a1.184 1.184 0 0 0 .434.181l4.142-.055h.025c1.375 0 2.676 1.515 2.988 2.888l2.2 9.7a2.545 2.545 0 0 0 .468.951l4.643 6.024a4.381 4.381 0 0 1 .627 1.12l1.321 3.567a2.506 2.506 0 0 0 1.067 1.3c.647.335 6.335 3.281 6.726 3.506.22.128.467.27 3.506 4.7a1.706 1.706 0 0 0 1.059.812l4.418-5.425a1.664 1.664 0 0 1 1.972-.4l3.477 1.366a3.452 3.452 0 0 1 1.351 1.021l2.4 2.858c.416.5.768.613.9.6a2.423 2.423 0 0 1 2.76.978l.794.918a1.385 1.385 0 0 0 .872.569L76 37.867a1.568 1.568 0 0 1 1.686-.644l4.118.837a2.992 2.992 0 0 1 1.475.855c3.458 3.44 5.9 5.819 6.226 6.063.148.034 1.774.368 5.546 1.013a3.78 3.78 0 0 1 2.611 2.638l3.119 10.446a2.648 2.648 0 0 0 .955 1.334l1.367.939a.76.76 0 0 0 .449.183l.465-.173a2.73 2.73 0 0 1 2.927 1.395l1.951 2.813c.435.629.912.824 1.055.8l2.527-.589a.8.8 0 1 1 .364 1.566l-2.528.59a1.614 1.614 0 0 1-.369.042" transform="translate(103.682 91.497)" fill="#ff2e99"/><path id="Fill_395" data-name="Fill 395" d="M111.577 73.409a3.625 3.625 0 0 1-2.339-1.059L97.31 61.482a2.71 2.71 0 0 0-.925-.582l-15.218-5.014a4.331 4.331 0 0 1-1.549-.959l-1.109-1.032a2.334 2.334 0 0 0-1.192-.664l-7.755-.888a3.713 3.713 0 0 1-1.946-.941l-11.5-9.892a2.577 2.577 0 0 0-.843-.51l-5.384-1.8a4.256 4.256 0 0 1-1.432-.859L43.11 33.62a5.767 5.767 0 0 1-.831-.911l-8.111-10.823a3.274 3.274 0 0 0-1.468-1.153l-4.987-1.558a.894.894 0 0 0-.4-.045c-3.721.64-3.975.49-4.25.329-.118-.068-.366-.21-4.942-4.351a3.26 3.26 0 0 0-.54-.4l-8.832-5.1a5.641 5.641 0 0 1-1.936-1.984l-1.636-2.74a4.063 4.063 0 0 0-1.368-1.417L.4 1.5A.8.8 0 0 1 1.2.106l3.413 1.967a5.654 5.654 0 0 1 1.945 1.986L8.2 6.8a4.058 4.058 0 0 0 1.362 1.416l8.832 5.1a4.672 4.672 0 0 1 .817.6c2.339 2.116 4.068 3.655 4.577 4.074a29.029 29.029 0 0 0 3.262-.446 2.451 2.451 0 0 1 1.147.094l4.987 1.562a4.775 4.775 0 0 1 2.263 1.711l2.566 3.351 5.56 7.5a4.237 4.237 0 0 0 .6.661l5.348 4.721a2.633 2.633 0 0 0 .875.54l5.384 1.8a4.147 4.147 0 0 1 1.38.813l11.5 9.892a2.224 2.224 0 0 0 1.081.563l7.755.888a3.863 3.863 0 0 1 2.107 1.084l1.109 1.032a2.754 2.754 0 0 0 .955.609l15.218 5.015a4.305 4.305 0 0 1 1.507.92l11.928 10.86a1.877 1.877 0 0 0 1.324.636l4.214-.545a.8.8 0 1 1 .207 1.6l-4.215.545a2.159 2.159 0 0 1-.274.017" transform="translate(100.287 49.918)" fill="#b500e7"/><path id="Fill_397" data-name="Fill 397" d="M0 9.909l114.013 66.127V67.98a5.064 5.064 0 0 0-2.115-4.041L2.115.254C.947-.421 0 .3 0 1.853z" transform="translate(102.206 19.652)"/><path id="Fill_399" data-name="Fill 399" d="M.8 66.3a.8.8 0 0 1-.8-.8V.8a.8.8 0 0 1 1.609 0v64.7a.8.8 0 0 1-.8.8" transform="translate(215.643 102.631)" fill="#44437a"/><path id="Fill_401" data-name="Fill 401" d="M111.66 65.61a.805.805 0 0 1-.4-.108L.4 1.5A.8.8 0 0 1 1.2.106l110.855 64a.8.8 0 0 1-.4 1.5" transform="translate(103.798 70.23)" fill="#44437a"/><path id="Fill_403" data-name="Fill 403" d="M111.99 65.8a.8.8 0 0 1-.4-.108L.4 1.5A.8.8 0 0 1 1.2.106L112.392 64.3a.8.8 0 0 1-.4 1.5" transform="translate(104.128 49.439)" fill="#44437a"/><path id="Fill_405" data-name="Fill 405" d="M111.66 65.609a.8.8 0 0 1-.4-.108L.4 1.5A.8.8 0 0 1 1.2.106l110.855 64a.8.8 0 0 1-.4 1.5" transform="translate(104.128 92.102)" fill="#44437a"/><path id="Fill_407" data-name="Fill 407" d="M.178 11.149l.163.094V.094L.178 0z" transform="translate(218.002 127.887)" fill="#fff"/><path id="Fill_409" data-name="Fill 409" d="M.168 6.665l1.1.636c.093.054.168 0 .168-.127V.978a.4.4 0 0 0-.167-.322L.168.02C.075-.033 0 .023 0 .147v6.2a.4.4 0 0 0 .168.321" transform="translate(217.543 129.847)" fill="#ca46b6"/><path id="Fill_411" data-name="Fill 411" d="M.179 14.419l.163.094V.095L.179 0z" transform="translate(215.295 127.959)" fill="#fff"/><path id="Fill_413" data-name="Fill 413" d="M.168 9.936l1.1.636c.093.054.168 0 .168-.127V.977A.4.4 0 0 0 1.27.656L.168.02C.075-.033 0 .023 0 .148v9.466a.4.4 0 0 0 .168.322" transform="translate(214.836 129.92)" fill="#ca46b6"/><path id="Fill_415" data-name="Fill 415" d="M.178 11.967l.163.094V.095L.178 0z" transform="translate(212.589 134.717)" fill="#fff"/><path id="Fill_417" data-name="Fill 417" d="M.168 7.483l1.1.636c.093.054.168 0 .168-.127V.978A.4.4 0 0 0 1.27.656L.168.02C.075-.034 0 .024 0 .148v7.014a.4.4 0 0 0 .168.321" transform="translate(212.13 136.678)" fill="#21bf75"/><path id="Fill_419" data-name="Fill 419" d="M.178 7.47l.163.094V.094L.178 0z" transform="translate(209.883 131.891)" fill="#fff"/><path id="Fill_421" data-name="Fill 421" d="M.168 2.987l1.1.636c.093.054.168 0 .168-.127V.978a.4.4 0 0 0-.167-.322L.168.02C.075-.033 0 .024 0 .147v2.518a.4.4 0 0 0 .168.322" transform="translate(209.424 133.852)" fill="#21bf75"/><path id="Fill_423" data-name="Fill 423" d="M.179 11.558l.163.094V.094L.179 0z" transform="translate(207.177 126.757)" fill="#fff"/><path id="Fill_425" data-name="Fill 425" d="M.168 7.074l1.1.636c.093.054.168 0 .168-.127V.977A.4.4 0 0 0 1.27.656L.168.02C.075-.033 0 .023 0 .148v6.605a.4.4 0 0 0 .168.321" transform="translate(206.718 128.718)" fill="#ca46b6"/><path id="Fill_427" data-name="Fill 427" d="M.178 12.375l.163.094V.094L.178 0z" transform="translate(204.471 125.478)" fill="#fff"/><path id="Fill_429" data-name="Fill 429" d="M.168 7.892l1.1.636c.093.054.168 0 .168-.127V.978A.4.4 0 0 0 1.27.656L.168.02C.075-.033 0 .024 0 .147V7.57a.4.4 0 0 0 .168.322" transform="translate(204.011 127.438)" fill="#21bf75"/><path id="Fill_431" data-name="Fill 431" d="M.179 11.966l.163.094V.094L.179 0z" transform="translate(201.764 117.033)" fill="#fff"/><path id="Fill_433" data-name="Fill 433" d="M.168 7.483l1.1.636c.093.054.168 0 .168-.127V.977A.4.4 0 0 0 1.27.656L.168.02C.075-.033 0 .023 0 .148v7.013a.4.4 0 0 0 .168.321" transform="translate(201.305 118.994)" fill="#ca46b6"/><path id="Fill_435" data-name="Fill 435" d="M.178 11.558l.163.094V.094L.178 0z" transform="translate(199.058 117.844)" fill="#fff"/><path id="Fill_437" data-name="Fill 437" d="M.168 7.074l1.1.636c.093.054.168 0 .168-.127V.978A.4.4 0 0 0 1.27.656L.168.02C.075-.033 0 .023 0 .147v6.605a.4.4 0 0 0 .168.322" transform="translate(198.599 119.805)" fill="#ca46b6"/><path id="Fill_439" data-name="Fill 439" d="M.178 7.47l.163.094V.094L.178 0z" transform="translate(196.352 114.975)" fill="#fff"/><path id="Fill_441" data-name="Fill 441" d="M.168 2.987l1.1.636c.093.054.168 0 .168-.127V.978a.4.4 0 0 0-.167-.322L.168.02C.075-.033 0 .024 0 .147v2.518a.4.4 0 0 0 .168.322" transform="translate(195.893 116.936)" fill="#21bf75"/><path id="Fill_443" data-name="Fill 443" d="M.179 14.828l.163.094V.095L.179 0z" transform="translate(193.645 106.251)" fill="#fff"/><path id="Fill_445" data-name="Fill 445" d="M.168 10.344l1.1.636c.093.054.168 0 .168-.127V.977A.4.4 0 0 0 1.27.656L.168.02C.075-.033 0 .024 0 .147v9.875a.4.4 0 0 0 .168.321" transform="translate(193.186 108.212)" fill="#21bf75"/><path id="Fill_447" data-name="Fill 447" d="M.178 10.74l.163.094V.094L.178 0z" transform="translate(190.939 102.707)" fill="#fff"/><path id="Fill_449" data-name="Fill 449" d="M.168 6.257l1.1.636c.093.054.168 0 .168-.127V.978A.4.4 0 0 0 1.27.656L.168.02C.075-.033 0 .023 0 .147v5.788a.4.4 0 0 0 .168.321" transform="translate(190.48 104.668)" fill="#ca46b6"/><path id="Fill_451" data-name="Fill 451" d="M.178 14.828l.163.094V.095L.178 0z" transform="translate(188.233 106.763)" fill="#fff"/><path id="Fill_453" data-name="Fill 453" d="M.168 10.344l1.1.636c.093.054.168 0 .168-.127V.977a.4.4 0 0 0-.167-.321L.168.02C.075-.033 0 .023 0 .148v9.875a.4.4 0 0 0 .168.322" transform="translate(187.774 108.724)" fill="#21bf75"/><path id="Fill_455" data-name="Fill 455" d="M.179 11.558l.163.095V.094L.179 0z" transform="translate(185.527 112.475)" fill="#fff"/><path id="Fill_457" data-name="Fill 457" d="M.168 7.074l1.1.636c.093.054.168 0 .168-.127V.978A.4.4 0 0 0 1.27.656L.168.02C.075-.033 0 .023 0 .147v6.606a.4.4 0 0 0 .168.321" transform="translate(185.068 114.436)" fill="#ca46b6"/><path id="Fill_459" data-name="Fill 459" d="M.178 14.828l.163.094V.095L.178 0z" transform="translate(182.821 114.681)" fill="#fff"/><path id="Fill_461" data-name="Fill 461" d="M.168 10.344l1.1.636c.093.054.168 0 .168-.127V.977A.4.4 0 0 0 1.27.656L.168.02C.075-.033 0 .023 0 .148v9.875a.4.4 0 0 0 .168.322" transform="translate(182.362 116.642)" fill="#21bf75"/><path id="Fill_463" data-name="Fill 463" d="M.179 12.375l.163.094V.094L.179 0z" transform="translate(180.114 111.442)" fill="#fff"/><path id="Fill_465" data-name="Fill 465" d="M.168 7.891l1.1.636c.093.054.168 0 .168-.127V.978A.4.4 0 0 0 1.27.656L.168.02C.075-.033 0 .023 0 .147V7.57a.4.4 0 0 0 .168.321" transform="translate(179.655 113.402)" fill="#21bf75"/><path id="Fill_467" data-name="Fill 467" d="M.178 7.061l.163.094V.094L.178 0z" transform="translate(177.408 113.93)" fill="#fff"/><path id="Fill_469" data-name="Fill 469" d="M.183 2.584l1.073.62c.1.058.183.019.183-.088V.945a.386.386 0 0 0-.183-.3L.183.027C.082-.031 0 .008 0 .115v2.171a.386.386 0 0 0 .183.3" transform="translate(176.949 115.892)" fill="#ca46b6"/><path id="Fill_471" data-name="Fill 471" d="M.178 7.062l.163.094V.095L.178 0z" transform="translate(174.702 102.632)" fill="#fff"/><path id="Fill_473" data-name="Fill 473" d="M.182 2.584l1.074.62c.1.058.182.019.182-.088V.945a.388.388 0 0 0-.182-.3L.182.027C.082-.031 0 .008 0 .115v2.171a.388.388 0 0 0 .182.3" transform="translate(174.243 104.594)" fill="#21bf75"/><path id="Fill_475" data-name="Fill 475" d="M.179 11.558l.163.094V.095L.179 0z" transform="translate(171.996 96.125)" fill="#fff"/><path id="Fill_477" data-name="Fill 477" d="M.183 7.081l1.073.62c.1.058.183.019.183-.088V.945a.387.387 0 0 0-.183-.3L.183.027C.082-.031 0 .008 0 .115v6.667a.389.389 0 0 0 .183.3" transform="translate(171.536 98.088)" fill="#ca46b6"/><path id="Fill_479" data-name="Fill 479" d="M.178 14.828l.163.094V.095L.178 0z" transform="translate(169.289 88.116)" fill="#fff"/><path id="Fill_481" data-name="Fill 481" d="M.183 10.351l1.073.62c.1.058.183.019.183-.088V.945a.387.387 0 0 0-.183-.3L.183.027C.082-.031 0 .008 0 .115v9.938a.387.387 0 0 0 .183.3" transform="translate(168.83 90.079)" fill="#ca46b6"/><path id="Fill_483" data-name="Fill 483" d="M.178 10.74l.163.094V.094L.178 0z" transform="translate(166.583 89.821)" fill="#fff"/><path id="Fill_485" data-name="Fill 485" d="M.182 6.263l1.073.62c.1.058.183.019.183-.088V.944a.386.386 0 0 0-.183-.3L.182.027C.082-.031 0 .008 0 .115v5.85a.388.388 0 0 0 .182.3" transform="translate(166.125 91.783)" fill="#21bf75"/><path id="Fill_487" data-name="Fill 487" d="M.179 7.879l.163.095V.094L.179 0z" transform="translate(163.877 91.482)" fill="#fff"/><path id="Fill_489" data-name="Fill 489" d="M.183 3.4l1.073.62c.1.058.183.019.183-.088V.945a.387.387 0 0 0-.183-.3L.183.027C.082-.031 0 .008 0 .115V3.1a.387.387 0 0 0 .183.3" transform="translate(163.418 93.444)" fill="#ca46b6"/><path id="Fill_491" data-name="Fill 491" d="M.178 12.375l.163.094V.094L.178 0z" transform="translate(161.171 86.566)" fill="#fff"/><path id="Fill_493" data-name="Fill 493" d="M.182 7.9l1.074.62c.1.058.182.019.182-.088V.945a.386.386 0 0 0-.182-.3L.182.027C.082-.031 0 .008 0 .115V7.6a.388.388 0 0 0 .182.3" transform="translate(160.712 88.528)" fill="#21bf75"/><path id="Fill_495" data-name="Fill 495" d="M.178 11.149l.163.094V.094L.178 0z" transform="translate(158.322 90.045)" fill="#fff"/><path id="Fill_497-2" data-name="Fill 497" d="M.168 6.665l1.1.636c.093.054.168 0 .168-.127V.977a.4.4 0 0 0-.167-.321L.168.02C.075-.033 0 .024 0 .147v6.2a.4.4 0 0 0 .168.321" transform="translate(157.863 92.006)" fill="#ca46b6"/><path id="Fill_499" data-name="Fill 499" d="M.179 14.419l.163.094V.095L.179 0z" transform="translate(155.615 90.118)" fill="#fff"/><path id="Fill_501" data-name="Fill 501" d="M.168 9.935l1.1.636c.093.054.168 0 .168-.127V.977A.4.4 0 0 0 1.27.656L.168.02C.075-.034 0 .024 0 .147v9.467a.4.4 0 0 0 .168.321" transform="translate(155.156 92.079)" fill="#ca46b6"/><path id="Fill_503" data-name="Fill 503" d="M.178 11.966l.163.094V.094L.178 0z" transform="translate(152.909 96.876)" fill="#fff"/><path id="Fill_505" data-name="Fill 505" d="M.168 7.483l1.1.636c.093.054.168 0 .168-.127V.977A.4.4 0 0 0 1.27.656L.168.02C.075-.033 0 .023 0 .148v7.013a.4.4 0 0 0 .168.321" transform="translate(152.45 98.836)" fill="#21bf75"/><path id="Fill_507" data-name="Fill 507" d="M.179 7.47l.163.095V.094L.179 0z" transform="translate(150.203 100.796)" fill="#fff"/><path id="Fill_509" data-name="Fill 509" d="M.168 2.987l1.1.636c.093.054.168 0 .168-.127V.978a.4.4 0 0 0-.167-.322L.168.02C.075-.033 0 .024 0 .147v2.518a.4.4 0 0 0 .168.321" transform="translate(149.744 102.757)" fill="#21bf75"/><path id="Fill_511-2" data-name="Fill 511" d="M.178 11.558l.163.095V.094L.178 0z" transform="translate(147.497 100.659)" fill="#fff"/><path id="Fill_513" data-name="Fill 513" d="M.168 7.074l1.1.636c.093.054.168 0 .168-.127V.978A.4.4 0 0 0 1.27.656L.168.02C.075-.033 0 .023 0 .147v6.606a.4.4 0 0 0 .168.321" transform="translate(147.037 102.62)" fill="#ca46b6"/><path id="Fill_515" data-name="Fill 515" d="M.178 12.375l.163.094V.094L.178 0z" transform="translate(144.79 102.815)" fill="#fff"/><path id="Fill_517" data-name="Fill 517" d="M.168 7.891l1.1.636c.093.054.168 0 .168-.127V.978A.4.4 0 0 0 1.27.656L.168.02C.075-.033 0 .023 0 .147V7.57a.4.4 0 0 0 .168.321" transform="translate(144.331 104.776)" fill="#21bf75"/><path id="Fill_519" data-name="Fill 519" d="M.179 11.966l.163.094V.094L.179 0z" transform="translate(142.084 104.552)" fill="#fff"/><path id="Fill_521" data-name="Fill 521" d="M.168 7.483l1.1.636c.093.054.168 0 .168-.127V.977A.4.4 0 0 0 1.27.656L.168.02C.075-.033 0 .023 0 .148v7.013a.4.4 0 0 0 .168.321" transform="translate(141.625 106.512)" fill="#ca46b6"/><path id="Fill_523" data-name="Fill 523" d="M.178 11.558l.163.094V.094L.178 0z" transform="translate(139.378 105.613)" fill="#fff"/><path id="Fill_525" data-name="Fill 525" d="M.168 7.074l1.1.636c.093.054.168 0 .168-.127V.978A.4.4 0 0 0 1.27.656L.168.02C.075-.033 0 .023 0 .147v6.605a.4.4 0 0 0 .168.322" transform="translate(138.919 107.574)" fill="#ca46b6"/><path id="Fill_527" data-name="Fill 527" d="M.178 7.47l.163.094V.094L.178 0z" transform="translate(136.672 103.743)" fill="#fff"/><path id="Fill_529" data-name="Fill 529" d="M.168 2.987l1.1.636c.093.054.168 0 .168-.127V.978a.4.4 0 0 0-.167-.322L.168.02C.075-.033 0 .024 0 .147v2.518a.4.4 0 0 0 .168.322" transform="translate(136.213 105.704)" fill="#21bf75"/><path id="Fill_531" data-name="Fill 531" d="M.179 14.828l.163.094V.095L.179 0z" transform="translate(133.965 95.331)" fill="#fff"/><path id="Fill_533" data-name="Fill 533" d="M.168 10.344l1.1.636c.093.054.168 0 .168-.127V.978A.4.4 0 0 0 1.27.656L.168.02C.075-.033 0 .024 0 .147v9.875a.4.4 0 0 0 .168.321" transform="translate(133.506 97.292)" fill="#21bf75"/><path id="Fill_535" data-name="Fill 535" d="M.178 10.74l.163.094V.094L.178 0z" transform="translate(131.259 94.509)" fill="#fff"/><path id="Fill_537" data-name="Fill 537" d="M.168 6.257l1.1.636c.093.054.168 0 .168-.127V.978A.4.4 0 0 0 1.27.656L.168.02C.075-.033 0 .023 0 .147v5.788a.4.4 0 0 0 .168.321" transform="translate(130.8 96.47)" fill="#ca46b6"/><path id="Fill_539" data-name="Fill 539" d="M.178 14.828l.163.094V.095L.178 0z" transform="translate(128.553 88.946)" fill="#fff"/><path id="Fill_541" data-name="Fill 541" d="M.168 10.344l1.1.636c.093.054.168 0 .168-.127V.977a.4.4 0 0 0-.167-.321L.168.02C.075-.033 0 .023 0 .148v9.875a.4.4 0 0 0 .168.321" transform="translate(128.094 90.907)" fill="#21bf75"/><path id="Fill_543" data-name="Fill 543" d="M.178 11.558l.163.094V.094L.178 0z" transform="translate(125.847 86.601)" fill="#fff"/><path id="Fill_545" data-name="Fill 545" d="M.168 7.074l1.1.636c.093.054.168 0 .168-.127V.977A.4.4 0 0 0 1.27.656L.168.02C.075-.033 0 .023 0 .148v6.605a.4.4 0 0 0 .168.321" transform="translate(125.388 88.561)" fill="#ca46b6"/><path id="Fill_547" data-name="Fill 547" d="M.178 14.828l.163.094V.095L.178 0z" transform="translate(123.141 80.623)" fill="#fff"/><path id="Fill_549" data-name="Fill 549" d="M.168 10.344l1.1.636c.093.054.168 0 .168-.127V.978A.4.4 0 0 0 1.27.656L.168.02C.075-.033 0 .024 0 .147v9.875a.4.4 0 0 0 .168.321" transform="translate(122.681 82.584)" fill="#21bf75"/><path id="Fill_551" data-name="Fill 551" d="M.179 12.375l.163.094V.094L.179 0z" transform="translate(120.434 75.46)" fill="#fff"/><path id="Fill_553" data-name="Fill 553" d="M.168 7.892l1.1.636c.093.054.168 0 .168-.127V.978A.4.4 0 0 0 1.27.656L.168.02C.075-.033 0 .024 0 .147V7.57a.4.4 0 0 0 .168.322" transform="translate(119.975 77.42)" fill="#21bf75"/><path id="Fill_555" data-name="Fill 555" d="M.178 7.062l.163.094V.095L.178 0z" transform="translate(117.728 71.424)" fill="#fff"/><path id="Fill_557" data-name="Fill 557" d="M.183 2.584l1.073.62c.1.058.183.019.183-.088V.945a.387.387 0 0 0-.183-.3L.183.027C.082-.031 0 .008 0 .114v2.172a.387.387 0 0 0 .183.3" transform="translate(117.269 73.387)" fill="#ca46b6"/><path id="Fill_559" data-name="Fill 559" d="M.178 7.062l.163.094V.095L.178 0z" transform="translate(115.022 71.432)" fill="#fff"/><path id="Fill_561" data-name="Fill 561" d="M.182 2.584l1.073.62c.1.058.183.019.183-.088V.945a.387.387 0 0 0-.183-.3L.182.027C.082-.031 0 .008 0 .114v2.172a.388.388 0 0 0 .182.3" transform="translate(114.563 73.395)" fill="#21bf75"/><path id="Fill_563" data-name="Fill 563" d="M.179 11.558l.163.094V.094L.179 0z" transform="translate(112.315 70.423)" fill="#fff"/><path id="Fill_565" data-name="Fill 565" d="M.183 7.081l1.073.62c.1.058.183.019.183-.088V.945a.386.386 0 0 0-.183-.3L.183.027C.082-.031 0 .008 0 .115v6.667a.389.389 0 0 0 .183.3" transform="translate(111.856 72.385)" fill="#ca46b6"/><path id="Fill_567" data-name="Fill 567" d="M.178 14.828l.163.094V.095L.178 0z" transform="translate(109.609 64.474)" fill="#fff"/><path id="Fill_569" data-name="Fill 569" d="M.182 10.351l1.074.62c.1.058.182.019.182-.088V.945a.388.388 0 0 0-.182-.3L.182.027C.082-.031 0 .008 0 .115v9.938a.387.387 0 0 0 .182.3" transform="translate(109.15 66.437)" fill="#ca46b6"/><path id="Fill_571" data-name="Fill 571" d="M.178 10.74l.163.094V.094L.178 0z" transform="translate(106.903 57.809)" fill="#fff"/><path id="Fill_573" data-name="Fill 573" d="M.182 6.263l1.073.62c.1.058.183.019.183-.088V.945a.386.386 0 0 0-.183-.3L.182.027C.082-.031 0 .008 0 .115v5.85a.388.388 0 0 0 .182.3" transform="translate(106.444 59.771)" fill="#21bf75"/><path id="Fill_575" data-name="Fill 575" d="M.178 7.879l.163.094V.094L.178 0z" transform="translate(104.197 57.784)" fill="#fff"/><path id="Fill_577" data-name="Fill 577" d="M.183 3.4l1.073.62c.1.058.183.019.183-.088V.945a.386.386 0 0 0-.183-.3L.183.027C.082-.031 0 .008 0 .115V3.1a.387.387 0 0 0 .183.3" transform="translate(103.738 59.746)" fill="#ca46b6"/><path id="Fill_579" data-name="Fill 579" d="M.178 12.375l.163.094V.094L.178 0z" transform="translate(101.491 48.557)" fill="#fff"/><path id="Fill_581" data-name="Fill 581" d="M.182 7.9l1.074.62c.1.058.182.019.182-.088V.945a.387.387 0 0 0-.182-.3L.182.027C.082-.031 0 .008 0 .115V7.6a.388.388 0 0 0 .182.3" transform="translate(101.032 50.52)" fill="#21bf75"/><path id="Fill_583" data-name="Fill 583" d="M.732 2.04l11.229 6.483c.4.233.732-.015.732-.553a1.754 1.754 0 0 0-.732-1.4L.732.088C.328-.146 0 .1 0 .641a1.754 1.754 0 0 0 .732 1.4" transform="translate(198.33 79.58)" fill="#44437a"/><path id="Fill_585" data-name="Fill 585" d="M.732 2.04l23.376 13.5c.4.233.732-.014.732-.553a1.754 1.754 0 0 0-.732-1.4L.732.088C.328-.146 0 .1 0 .642a1.754 1.754 0 0 0 .732 1.4" transform="translate(172.134 64.456)" fill="#44437a"/><path id="Fill_587" data-name="Fill 587" d="M.732 2.04L3.8 3.812c.4.233.732-.015.732-.553a1.754 1.754 0 0 0-.732-1.4L.732.088C.328-.146 0 .1 0 .642a1.754 1.754 0 0 0 .732 1.4" transform="translate(166.259 61.064)" fill="#44437a"/><path id="Fill_589" data-name="Fill 589" d="M.514 1.433L8.4 5.986c.283.164.514-.01.514-.389a1.233 1.233 0 0 0-.514-.982L.514.062C.23-.1 0 .072 0 .451a1.231 1.231 0 0 0 .514.982" transform="translate(207.419 169.277)" fill="#44437a"/><path id="Fill_591" data-name="Fill 591" d="M.514 1.433l16.417 9.479c.284.164.514-.01.514-.389a1.231 1.231 0 0 0-.514-.982L.514.062C.23-.1 0 .072 0 .45a1.231 1.231 0 0 0 .514.982" transform="translate(189.021 158.655)" fill="#44437a"/><path id="Fill_593" data-name="Fill 593" d="M.514 1.433l2.155 1.244c.284.164.514-.01.514-.388a1.232 1.232 0 0 0-.514-.983L.514.062C.23-.1 0 .072 0 .45a1.231 1.231 0 0 0 .514.982" transform="translate(184.895 156.273)" fill="#44437a"/><path id="Fill_595" data-name="Fill 595" d="M.514 1.433L8.4 5.986c.283.164.514-.01.514-.389a1.233 1.233 0 0 0-.514-.982L.514.062C.23-.1 0 .072 0 .451a1.231 1.231 0 0 0 .514.982" transform="translate(126.85 122.761)" fill="#44437a"/><path id="Fill_597" data-name="Fill 597" d="M.514 1.433l16.417 9.479c.284.164.514-.01.514-.389a1.231 1.231 0 0 0-.514-.982L.514.062C.23-.1 0 .072 0 .45a1.231 1.231 0 0 0 .514.982" transform="translate(108.453 112.139)" fill="#44437a"/><path id="Fill_599" data-name="Fill 599" d="M.514 1.433l2.155 1.244c.283.164.514-.01.514-.389a1.232 1.232 0 0 0-.514-.982L.514.062C.23-.1 0 .072 0 .45a1.231 1.231 0 0 0 .514.982" transform="translate(104.327 109.757)" fill="#44437a"/></g></g></svg>