<svg xmlns="http://www.w3.org/2000/svg" xmlns:xlink="http://www.w3.org/1999/xlink" width="560.223" height="550.438" viewBox="0 0 560.223 550.438">
  <defs>
    <clipPath id="clip-path">
      <rect width="560.223" height="550.438" fill="none"/>
    </clipPath>
    <linearGradient id="linear-gradient" y1="0.6" x2="1" y2="0.5" gradientUnits="objectBoundingBox">
      <stop offset="0" stop-color="#70c84a"/>
      <stop offset="1" stop-color="#a8bd27"/>
    </linearGradient>
    <filter id="Path_2406" x="1.313" y="26.009" width="273.214" height="325.129" filterUnits="userSpaceOnUse">
      <feOffset dy="30" input="SourceAlpha"/>
      <feGaussianBlur stdDeviation="33" result="blur"/>
      <feFlood flood-opacity="0.149"/>
      <feComposite operator="in" in2="blur"/>
      <feComposite in="SourceGraphic"/>
    </filter>
    <filter id="Path_2407" x="92.795" y="62.305" width="291.458" height="359.809" filterUnits="userSpaceOnUse">
      <feOffset dy="30" input="SourceAlpha"/>
      <feGaussianBlur stdDeviation="33" result="blur-2"/>
      <feFlood flood-opacity="0.161"/>
      <feComposite operator="in" in2="blur-2"/>
      <feComposite in="SourceGraphic"/>
    </filter>
    <filter id="Path_2409" x="208.772" y="26.009" width="291.458" height="454.345" filterUnits="userSpaceOnUse">
      <feOffset dy="30" input="SourceAlpha"/>
      <feGaussianBlur stdDeviation="33" result="blur-3"/>
      <feFlood flood-opacity="0.161"/>
      <feComposite operator="in" in2="blur-3"/>
      <feComposite in="SourceGraphic"/>
    </filter>
  </defs>
  <g id="Repeat_Grid_1" data-name="Repeat Grid 1" clip-path="url(#clip-path)">
    <g id="Group_4717" data-name="Group 4717">
      <path id="Path_2404" data-name="Path 2404" d="M1023.222,607.669c-9.615-2.4-15.167-21.468-18.547-35.88-4.782-20.391-8.661-47.8-12.767-76.826-9.292-65.677-19.824-140.118-44.271-158.87-19.267-14.78-45.075,44.252-70.031,101.338-13.172,30.129-26.791,61.284-39.715,82.153-15.076,24.346-27.689,31.808-38.559,22.821-21.185-17.519-26.924-67.911-33-121.262-6.982-61.3-14.2-124.7-44.238-148.777-13.254-10.626-25.352-12.927-35.959-6.84-12.911,7.409-21.511,26.066-26.452,40.413a204.035,204.035,0,0,0-7.742,29.9l-3.755-1.5c.386-2.386,9.766-58.6,36.313-73.837,11.741-6.736,24.979-4.311,39.346,7.207,14.286,11.454,24.938,32.222,32.564,63.49,6.642,27.237,10.241,58.844,13.722,89.408,5.919,51.972,11.509,101.062,31,117.18,20.542,16.99,47.293-44.207,73.163-103.384,27.035-61.839,52.57-120.248,75.027-103.021,26.161,20.067,36.892,95.918,46.361,162.839,7.785,55.02,15.134,107,28.824,108.266,16.484,1.541,27.96-38.641,38.084-74.093,4.33-15.157,8.418-29.475,12.618-39.4,3.241-7.667,8.348-17.408,15.242-13.49,24.776,14.085,20.005,74.2,19.79,76.756l-3.822-.954c.049-.583,4.632-58.38-17.221-70.8-7.482-4.25-15.38,23.413-23.021,50.168-10.576,37.032-22.563,79.006-41.691,77.218A8.308,8.308,0,0,1,1023.222,607.669Z" transform="translate(-550.521 -230.918)" fill="#f5f7f6"/>
      <path id="Path_2405" data-name="Path 2405" d="M814.836,312.813c-.232,14.768-5.258,27.153-12.974,34.7a31,31,0,0,1-4.952,3.921c-.38.242-.769.467-1.158.69a25.058,25.058,0,0,1-5.962,2.436,22.344,22.344,0,0,1-3.328.638l-.033.009A25.219,25.219,0,0,1,779.1,355c-8.429-1.451-16.087-6.891-22.016-14.76-7.675-10.19-12.452-24.467-12.213-39.486.224-14.129,4.836-26.082,12-33.691a26.922,26.922,0,0,1,16.767-8.731c.116-.018.24-.025.356-.034l.77-.052a24.11,24.11,0,0,1,4.174.1c.554.051,1.109.129,1.672.224a27.193,27.193,0,0,1,3.8.942C801.895,265.15,815.226,287.957,814.836,312.813Z" transform="translate(-540.056 -230.764)" fill="url(#linear-gradient)"/>
      <g transform="matrix(1, 0, 0, 1, 0, 0)" filter="url(#Path_2406)">
        <path id="Path_2406-2" data-name="Path 2406" d="M650.576,319.173,725.79,337.9V446.3l-75.214-19.369Z" transform="translate(-550.26 -224.16)" fill="#fff"/>
      </g>
      <g transform="matrix(1, 0, 0, 1, 0, 0)" filter="url(#Path_2407)">
        <path id="Path_2407-2" data-name="Path 2407" d="M733.122,351.924,826.58,375.2V513.734L733.122,485Z" transform="translate(-541.33 -220.62)" fill="#fff"/>
      </g>
      <g transform="matrix(1, 0, 0, 1, 0, 0)" filter="url(#Path_2409)">
        <path id="Path_2409-2" data-name="Path 2409" d="M837.771,319.173l93.458,25.03V575.518l-93.458-32.074Z" transform="translate(-530 -224.16)" fill="#fff"/>
      </g>
      <path id="Path_2410" data-name="Path 2410" d="M786.38,285.651a16.594,16.594,0,0,1-1.825,7.588c-1.7,3.12-4.413,4.875-7.441,4.353-3.139-.541-5.865-3.4-7.436-7.28a20.069,20.069,0,0,1-1.415-7.783c.116-7.454,4.263-12.8,9.274-11.94S786.5,278.2,786.38,285.651Z" transform="translate(-537.523 -229.433)" fill="#fff"/>
      <path id="Path_2411" data-name="Path 2411" d="M799.71,328.268c-6.206,6.052-14.153,8.978-22.759,7.5-8.424-1.451-16.085-6.887-22.018-14.761a64.852,64.852,0,0,1,4.136-16.778,19.559,19.559,0,0,1,11.1-11c1.841,4.541,5.031,7.886,8.705,8.519,3.544.611,6.724-1.442,8.709-5.094a30.291,30.291,0,0,1,9.155,13.429A66.408,66.408,0,0,1,799.71,328.268Z" transform="translate(-538.966 -226.973)" fill="#fff"/>
      <path id="Path_2412" data-name="Path 2412" d="M780.352,257.61v.006c-.127,0-.248.012-.37.021Z" transform="translate(-536.255 -230.828)" fill="none" stroke="#000" stroke-miterlimit="10" stroke-width="0.5"/>
      <path id="Path_2413" data-name="Path 2413" d="M771.185,258.293c-.121.01-.242.019-.362.034l-.007-.007Z" transform="translate(-537.247 -230.754)" fill="none" stroke="#000" stroke-miterlimit="10" stroke-width="0.5"/>
      <path id="Path_2414" data-name="Path 2414" d="M820.938,312.21c-.228,14.764-5.252,27.15-12.974,34.693a26.239,26.239,0,0,1-17.656,7.864l-.025,0c-2.4.172-6.295.462-6.74.5a23.6,23.6,0,0,0,3.328-.642,25.581,25.581,0,0,0,7.116-3.126,30.447,30.447,0,0,0,4.952-3.927c7.722-7.543,12.746-19.929,12.981-34.694.387-24.859-12.942-47.667-30.428-53.3a27.215,27.215,0,0,0-3.8-.943c-.563-.1-1.119-.177-1.672-.229a24.836,24.836,0,0,0-4.178-.1l9.024-.674c.122-.009.243-.018.37-.021a25.446,25.446,0,0,1,5.475.352C806.033,261.3,821.357,285.58,820.938,312.21Z" transform="translate(-537.136 -230.83)" fill="#dfe2e2"/>
      <path id="Union_199" data-name="Union 199" d="M1.243,202.467V183.012l76.148,23.37v21.491ZM77.05,184.688.9,162a1.3,1.3,0,0,1-.853-1.6,1.24,1.24,0,0,1,1.536-.89L77.732,182.2a1.305,1.305,0,0,1,.854,1.6,1.252,1.252,0,0,1-1.194.94A1.164,1.164,0,0,1,77.05,184.688ZM63.291,161.722,14.661,147.235a1.306,1.306,0,0,1-.854-1.6,1.237,1.237,0,0,1,1.535-.889l48.631,14.488a1.3,1.3,0,0,1,.853,1.6,1.223,1.223,0,0,1-1.536.891Zm0-18.867L14.661,128.366a1.3,1.3,0,0,1-.854-1.6,1.238,1.238,0,0,1,1.535-.89l48.631,14.487a1.306,1.306,0,0,1,.853,1.6,1.224,1.224,0,0,1-1.536.89ZM77.05,128.086.9,105.4a1.3,1.3,0,0,1-.853-1.6,1.238,1.238,0,0,1,1.536-.89L77.732,125.6a1.3,1.3,0,0,1,.854,1.6,1.252,1.252,0,0,1-1.194.94A1.2,1.2,0,0,1,77.05,128.086ZM1.243,89.263V69.809L77.391,92v19.953Zm0-31.578V0L77.391,22.187V80.759Z" transform="translate(315.184 109.17)" fill="#eceeee" stroke="rgba(0,0,0,0)" stroke-width="1"/>
      <path id="Union_198" data-name="Union 198" d="M60.879,123.466l.727-109.844L78,17.705V128.449ZM.757,103.057V94.971l19.65,4.892v8.488ZM32.1,92.426.924,83.807a1.3,1.3,0,0,1-.883-1.585A1.237,1.237,0,0,1,1.559,81.3l31.177,8.621A1.3,1.3,0,0,1,33.62,91.5a1.252,1.252,0,0,1-1.2.965A1.215,1.215,0,0,1,32.1,92.426Zm12.672-8.737L.924,71.565A1.3,1.3,0,0,1,.041,69.98a1.236,1.236,0,0,1,1.518-.92l43.85,12.125a1.3,1.3,0,0,1,.882,1.584,1.252,1.252,0,0,1-1.2.964A1.166,1.166,0,0,1,44.773,83.689Zm4.391-11.027L.924,59.325A1.3,1.3,0,0,1,.041,57.74a1.238,1.238,0,0,1,1.518-.92L49.8,70.158a1.3,1.3,0,0,1,.882,1.584,1.252,1.252,0,0,1-1.2.965A1.219,1.219,0,0,1,49.163,72.662ZM44.773,59.207.924,47.084A1.3,1.3,0,0,1,.041,45.5a1.236,1.236,0,0,1,1.518-.921L45.409,56.7a1.3,1.3,0,0,1,.882,1.584,1.254,1.254,0,0,1-1.2.965A1.167,1.167,0,0,1,44.773,59.207ZM32.1,43.464.924,34.844A1.3,1.3,0,0,1,.041,33.26a1.238,1.238,0,0,1,1.518-.921l31.177,8.62a1.3,1.3,0,0,1,.883,1.584,1.253,1.253,0,0,1-1.2.964A1.215,1.215,0,0,1,32.1,43.464ZM.757,18.245V0L45.09,11.039v19.15Z" transform="translate(199.137 149.55)" fill="#eceeee" stroke="rgba(0,0,0,0)" stroke-width="1"/>
      <g id="Group_4697" data-name="Group 4697" transform="translate(107.737 118.831)">
        <path id="Path_2427" data-name="Path 2427" d="M689.1,420.154a21.83,21.83,0,0,1-3.693-.319c-6.691-1.15-13.152-5.467-18.194-12.156-6.5-8.629-10.115-20.314-9.93-32.06.293-18.764,10.334-33.415,23.877-34.837.09-.011.206-.021.323-.03l.605-.044a20.873,20.873,0,0,1,3.523.084c.452.042.922.109,1.4.192a22.623,22.623,0,0,1,3.176.789c14.531,4.677,25.258,23.347,24.946,43.427h0c-.184,11.593-4.071,21.936-10.664,28.374a25.45,25.45,0,0,1-4.123,3.269,21.5,21.5,0,0,1-5.97,2.622,19.864,19.864,0,0,1-2.794.539l-.09.008A19.992,19.992,0,0,1,689.1,420.154Zm-5.755-76.895q-.552,0-1.1.033l-.587.043c-.074.005-.148.011-.224.02-12.3,1.291-21.4,14.876-21.668,32.3-.176,11.162,3.249,22.249,9.4,30.418,4.657,6.177,10.568,10.156,16.645,11.2a18.924,18.924,0,0,0,5.459.155l.086-.008a17.852,17.852,0,0,0,2.4-.469,19.058,19.058,0,0,0,5.3-2.33,22.857,22.857,0,0,0,3.713-2.946c6.1-5.96,9.7-15.628,9.877-26.525h0c.3-18.971-9.679-36.559-23.2-40.911a20.25,20.25,0,0,0-2.845-.707c-.415-.072-.823-.131-1.231-.168A18.605,18.605,0,0,0,683.343,343.259Z" transform="translate(-657.275 -340.668)" fill="#eceeee"/>
      </g>
      <g id="Group_4698" data-name="Group 4698" transform="translate(118.595 133.906)">
        <path id="Path_2428" data-name="Path 2428" d="M686.9,403.6a13.556,13.556,0,0,1-2.318-.2c-4.186-.718-8.222-3.409-11.363-7.576a32.6,32.6,0,0,1-6.141-19.812c.182-11.668,6.471-20.783,14.954-21.674.05-.007.131-.013.213-.019l.365-.028a13.209,13.209,0,0,1,2.228.053c.279.026.577.068.88.121a14.311,14.311,0,0,1,2,.5c9.03,2.907,15.7,14.469,15.506,26.892h0c-.114,7.185-2.534,13.6-6.636,17.611a15.944,15.944,0,0,1-2.588,2.051,13.52,13.52,0,0,1-3.761,1.651,12.558,12.558,0,0,1-1.762.34A13.274,13.274,0,0,1,686.9,403.6ZM683.4,356.862c-.214,0-.427.007-.637.019l-.459.035c-7.239.76-12.588,8.809-12.748,19.142a29.887,29.887,0,0,0,5.61,18.169c2.755,3.656,6.24,6.008,9.813,6.622a11.031,11.031,0,0,0,3.184.09,10.25,10.25,0,0,0,1.445-.276,11.127,11.127,0,0,0,3.093-1.359,13.448,13.448,0,0,0,2.177-1.728c3.614-3.529,5.746-9.274,5.849-15.762h0c.176-11.314-5.74-21.794-13.76-24.376a11.888,11.888,0,0,0-1.667-.413c-.239-.042-.475-.075-.71-.1A10.817,10.817,0,0,0,683.4,356.862Z" transform="translate(-667.071 -354.271)" fill="#eceeee"/>
      </g>
      <path id="Path_2429" data-name="Path 2429" d="M693.454,379.354a12.959,12.959,0,0,1-3.4,9.1,8.03,8.03,0,0,1-1.3,1.03,6.716,6.716,0,0,1-1.867.82,6.062,6.062,0,0,1-.872.168H686a6.667,6.667,0,0,1-1.924-.054,9.461,9.461,0,0,1-5.775-3.872,17.041,17.041,0,0,1-3.2-10.357c.1-6.123,3.335-10.687,7.546-11.129l.1-.009.2-.014a6.38,6.38,0,0,1,1.1.027c.145.013.292.034.439.06a7.02,7.02,0,0,1,1,.248C690.06,366.85,693.556,372.832,693.454,379.354Z" transform="translate(-547.608 -219.201)" fill="#eceeee"/>
      <path id="Path_2430" data-name="Path 2430" d="M795.841,296.3l-.92-1.436,33.57-23.4,75,15.984-.332,1.693-74.321-15.84Z" transform="translate(-534.638 -229.328)" fill="#bcc5c5"/>
      <path id="Path_2431" data-name="Path 2431" d="M904.758,277.57l23.366,5.818v10.093l-23.366-6.3Z" transform="translate(-522.748 -228.668)" fill="#bcc5c5"/>
      <g id="Group_4700" data-name="Group 4700" transform="translate(381.183 69.036)">
        <path id="Path_2432" data-name="Path 2432" d="M948.49,309.534a.781.781,0,0,1-.213-.029l-43.65-12.069a.868.868,0,0,1-.589-1.056.827.827,0,0,1,1.012-.614l43.65,12.069a.868.868,0,0,1,.589,1.056A.834.834,0,0,1,948.49,309.534Z" transform="translate(-904.011 -295.738)" fill="#bcc5c5"/>
      </g>
      <g id="Group_4701" data-name="Group 4701" transform="translate(381.183 74.696)">
        <path id="Path_2433" data-name="Path 2433" d="M958.125,317.3a.781.781,0,0,1-.213-.029l-53.285-14.733a.868.868,0,0,1-.589-1.056.827.827,0,0,1,1.012-.614l53.285,14.733a.868.868,0,0,1,.589,1.056A.835.835,0,0,1,958.125,317.3Z" transform="translate(-904.011 -300.845)" fill="#bcc5c5"/>
      </g>
      <g id="Group_4702" data-name="Group 4702" transform="translate(381.183 80.357)">
        <path id="Path_2434" data-name="Path 2434" d="M967.164,324.912a.832.832,0,0,1-.213-.029L904.627,307.65a.867.867,0,0,1-.589-1.056.826.826,0,0,1,1.012-.613l62.323,17.232a.868.868,0,0,1,.59,1.056A.836.836,0,0,1,967.164,324.912Z" transform="translate(-904.011 -305.953)" fill="#bcc5c5"/>
      </g>
      <g id="Group_4703" data-name="Group 4703" transform="translate(123.657 42.218)">
        <path id="Path_2435" data-name="Path 2435" d="M760.275,314.85l-23.123-25.777L671.64,273.221l.374-1.683,66,15.971,23.467,26.161Z" transform="translate(-671.64 -271.539)" fill="#bcc5c5"/>
      </g>
      <path id="Path_2436" data-name="Path 2436" d="M641.679,260.72l23.366,5.818v10.093l-23.366-6.3Z" transform="translate(-551.226 -230.492)" fill="#bcc5c5"/>
      <g id="Group_4704" data-name="Group 4704" transform="translate(89.625 50.362)">
        <path id="Path_2437" data-name="Path 2437" d="M685.409,292.684a.787.787,0,0,1-.213-.029l-43.649-12.069a.869.869,0,0,1-.589-1.056.825.825,0,0,1,1.013-.614l43.649,12.069a.869.869,0,0,1,.589,1.056A.836.836,0,0,1,685.409,292.684Z" transform="translate(-640.931 -278.887)" fill="#bcc5c5"/>
      </g>
      <g id="Group_4705" data-name="Group 4705" transform="translate(89.625 56.023)">
        <path id="Path_2438" data-name="Path 2438" d="M695.045,300.455a.833.833,0,0,1-.213-.029l-53.285-14.733a.869.869,0,0,1-.589-1.056.825.825,0,0,1,1.013-.613l53.285,14.732a.869.869,0,0,1,.589,1.056A.836.836,0,0,1,695.045,300.455Z" transform="translate(-640.931 -283.995)" fill="#bcc5c5"/>
      </g>
      <g id="Group_4706" data-name="Group 4706" transform="translate(89.625 61.682)">
        <path id="Path_2439" data-name="Path 2439" d="M704.083,308.062a.791.791,0,0,1-.213-.03L641.547,290.8a.87.87,0,0,1-.589-1.057.825.825,0,0,1,1.013-.613L704.3,306.363a.868.868,0,0,1,.589,1.056A.836.836,0,0,1,704.083,308.062Z" transform="translate(-640.931 -289.102)" fill="#bcc5c5"/>
      </g>
      <g id="Group_4707" data-name="Group 4707" transform="translate(58.227)">
        <path id="Path_2440" data-name="Path 2440" d="M619.224,282.593H612.6V233.444l37.542,9.348-1.538,6.72-29.38-7.316Z" transform="translate(-612.6 -233.444)" fill="#dfe2e2"/>
      </g>
      <g id="Group_4708" data-name="Group 4708" transform="translate(391.239 341.42)">
        <path id="Path_2441" data-name="Path 2441" d="M959.494,602.53l-46.409-11.556,1.538-6.72,38.247,9.524v-52.26h6.624Z" transform="translate(-913.085 -541.517)" fill="#dfe2e2"/>
      </g>
      <ellipse id="Ellipse_194" data-name="Ellipse 194" cx="145.848" cy="31.053" rx="145.848" ry="31.053" transform="translate(0 488.332)" fill="#f6f8f8"/>
      <path id="Path_2449" data-name="Path 2449" d="M793.457,660.2s-4.259,9.3.386,11.824,35.486-12.627,34.949-16.385-24.85-.686-24.85-.686l-10.374-1.094Z" transform="translate(-534.988 -187.945)" fill="#29292a"/>
      <path id="Union_197" data-name="Union 197" d="M18.3,35.808,11.419,32.3,7.071,30.08,5.729,25.391,0,5.354S18.041-4.913,24.789,2.988C27.506,6.167,29.228,10.519,30.3,14.6c.281,1.027.514,2.038.713,3.013.339,1.633.571,3.144.744,4.431.323,2.462.389,4.085.389,4.085l-2.889,7.514-2.5,6.485Zm-9.44-17.1ZM9,18.63l.1-.055Zm.142-.077.351-.187Zm.5-.264c.369-.194.76-.395,1.166-.6C10.4,17.895,10.009,18.1,9.64,18.289Zm1.527-.774.159-.077Zm.958-.455a23.906,23.906,0,0,1,5.495-1.908A23.9,23.9,0,0,0,12.125,17.06Zm11.8-.74h0Zm.18,0a17.718,17.718,0,0,0,5.052-1.3A17.723,17.723,0,0,1,24.107,16.317Zm-4.268-1.151Zm-.034-.01-.045-.012Zm-.064-.017-.02-.005Zm-1.868-.027c.16-.023.317-.041.469-.053Q18.113,15.078,17.872,15.112Zm.963-.074h0ZM29.2,15.005l.139-.051Zm.594-.218.068-.025Zm.178-.066.034-.013Zm.165-.062.019-.007Z" transform="translate(210.868 370.66)" fill="#ffdbac" stroke="rgba(0,0,0,0)" stroke-width="1"/>
      <path id="Path_2451" data-name="Path 2451" d="M721.406,414.877c-1.167,6.442-8.959,12.2-11.261,15.9s-7.17,42.4-9.993,53.175c-2.311,8.817-12.677,27.611-16.353,34.122a47.964,47.964,0,0,0-4.695-5.552c-1.88-1.771-5.572-2.618-8.28-3.014l11.815-23.483s14.929-52.215,17.355-57.855-1.011-13.421,1.274-17.36,12.5-3.748,15.392-2.815.365-9.863,2.037-10.148S722.565,408.443,721.406,414.877Z" transform="translate(-548.07 -215.649)" fill="#ffdbac"/>
      <path id="Path_2452" data-name="Path 2452" d="M741.134,532.853s13.851-6.8,18.16-13.729,27.493-43.65,27.6-48.187-2.385-12.476.152-16.644,9.778-10.753,13.019-12.04,4.416-2.218,4.587-1.14-8.058,6.287-7.983,7.866,5.708,4.822,6.986,7.3-2.233,10.483-4.9,12.671-20.049,55.8-26.281,62.332-17.918,19.578-17.918,19.578-9.969-4.215-10.165-5.818S741.134,532.853,741.134,532.853Z" transform="translate(-540.46 -211.016)" fill="#ffdbac"/>
      <path id="Path_2453" data-name="Path 2453" d="M712.433,515.886s-5.871,12.061-5.549,21.768l.324,9.707-22.251-9.141-5.178-4.974s2.06-12.212,4.236-17.106l2.174-4.894,25.877-6.886Z" transform="translate(-547.102 -204.118)" fill="#ffdbac"/>
      <path id="Path_2454" data-name="Path 2454" d="M715.3,474.12a58.92,58.92,0,0,1,8.285,17.6c2.812,10.219,1.862,24.484,1.862,24.484s-9.765,6.718-23.861.689-13.22-25.18-13.22-25.18l2.338-12.364,9.307-6.942Z" transform="translate(-546.173 -207.577)" fill="#ffdbac"/>
      <path id="Path_2455" data-name="Path 2455" d="M709.654,539.539s9.645-3.607,13.747-6.476S741.8,522.976,741.8,522.976s6.238.7,11.768,7.113a22.415,22.415,0,0,1,5.153,14.349l-30.424,29.106-24.355-9.9Z" transform="translate(-544.486 -202.103)" fill="#29292a"/>
      <path id="Path_2456" data-name="Path 2456" d="M692.738,517.105l-5.68,18.18-14.026,6.3L659.759,532c.108-.561,8.984-33.707,8.984-33.707s1.4.061,3.279.337c2.708.4,6.4,1.243,8.28,3.014A47.958,47.958,0,0,1,685,507.2c1.872,2.5,3.362,4.707,3.362,4.707Z" transform="translate(-549.269 -204.775)" fill="#29292a"/>
      <path id="Path_2457" data-name="Path 2457" d="M807.023,662.642s-1,2.66-8.976,5.19-9.539-30.107-9.539-30.107l-11.931-5.579L763.2,617.034l4.041-14.924,3.527-13.058.456-1.667a46.339,46.339,0,0,1,8.735-3.472,33.3,33.3,0,0,1,6.648-1.2c6.648-.44,13.521,1.71,16.2,11.176C808.637,614.511,807.023,662.642,807.023,662.642Z" transform="translate(-538.071 -195.642)" fill="#ffdbac"/>
      <path id="Path_2458" data-name="Path 2458" d="M765.275,604.605s-14.7,4.4-15.037,4.853-14.7,3.1-14.7,3.1l-4.861-2.669-12.221-6.71.952-11.012,12.42-13.464,19.417-8.248s1.035.915,2.533,2.521a45.47,45.47,0,0,1,8.859,13.352,25.913,25.913,0,0,1,1.324,4.24c.116.519.216,1.045.29,1.58.157,1.123.3,2.142.422,3.067.248,1.943.413,3.48.522,4.707C765.6,604.217,765.275,604.605,765.275,604.605Z" transform="translate(-542.914 -196.963)" fill="#bcc5c5"/>
      <path id="Path_2459" data-name="Path 2459" d="M781.057,618.706s8.7-7.627,8.832-5.087-2.073,7-2.073,7Z" transform="translate(-536.138 -192.347)" fill="#f77c96"/>
      <path id="Path_2460" data-name="Path 2460" d="M780.659,631.987,769.54,645.849s-28.209-.07-28.839-.726-15.219-13.291-15.219-13.291l4.437-23.422.216-1.157,28.615-15.718,2.119-1.166,2.335-1.279,9.017-4.957a23.261,23.261,0,0,1,3.081,3.092c.389.467.811.976,1.233,1.546a39.222,39.222,0,0,1,5.746,11.012c.265.795.521,1.615.754,2.47C786.431,614.672,780.659,631.987,780.659,631.987Z" transform="translate(-542.154 -195.483)" fill="#bcc5c5"/>
      <path id="Path_2461" data-name="Path 2461" d="M805.1,697.564c0,.008-.01.013-.011.021a81.9,81.9,0,0,1-10.772,11.383c-14.023,12.207-29.363,22.157-48.167,27.236-22.1,5.972-48.983,5.213-84.148-6.528C598,708.3,591.527,623.584,609.819,566.515s78.273-41.392,78.273-41.392,20.878,2.648,46.812,25.19c14.576,12.669,19.167,32.726,21.8,50.707,2.62,17.876,3.32,33.7,9.984,38.167,13.441,9,30.587-22.248,49.385-10.937C828.268,635.59,825.88,670.983,805.1,697.564Z" transform="translate(-555.638 -202.084)" fill="#e4e4e4"/>
      <path id="Path_2464" data-name="Path 2464" d="M714.78,454.52s6.13,10.511,2.42,21.537-13.549,11.541-14.038,18.084,6.508,8.179,8.531,9.866,1.348,5.75,1.348,5.75-5.259-5.382-8.4-1.144-2.643,7.7.983,8.833,5.132-.6,6.234,2.032c2.194,5.24-13.6,17.014-30.864,3.71-14.715-11.342-7.877-22.726-7.877-22.726s-8.183-17.736,5.946-30.432c13.092-11.765,19.559-5.354,27.019-6.163S714.78,454.52,714.78,454.52Z" transform="translate(-548.078 -209.513)" fill="#f0c40f"/>
    </g>
  </g>
</svg>
