<svg xmlns="http://www.w3.org/2000/svg" xmlns:xlink="http://www.w3.org/1999/xlink" width="732.286" height="639.122" viewBox="0 0 732.286 639.122">
  <defs>
    <filter id="Rectangle_921" x="139.812" y="0" width="494.975" height="275.897" filterUnits="userSpaceOnUse">
      <feOffset dy="30" input="SourceAlpha"/>
      <feGaussianBlur stdDeviation="33" result="blur"/>
      <feFlood flood-opacity="0.149"/>
      <feComposite operator="in" in2="blur"/>
      <feComposite in="SourceGraphic"/>
    </filter>
    <linearGradient id="linear-gradient" x1="0.981" y1="0.609" x2="0" y2="0.648" gradientUnits="objectBoundingBox">
      <stop offset="0" stop-color="#70c84a"/>
      <stop offset="1" stop-color="#a8bd27"/>
    </linearGradient>
    <linearGradient id="linear-gradient-2" x1="0.5" y1="0" x2="0.5" y2="1" xlink:href="#linear-gradient"/>
    <filter id="Rectangle_923" x="44.218" y="239.387" width="494.975" height="275.897" filterUnits="userSpaceOnUse">
      <feOffset dy="30" input="SourceAlpha"/>
      <feGaussianBlur stdDeviation="33" result="blur-2"/>
      <feFlood flood-opacity="0.149"/>
      <feComposite operator="in" in2="blur-2"/>
      <feComposite in="SourceGraphic"/>
    </filter>
    <linearGradient id="linear-gradient-3" x1="1" y1="0.5" x2="0.024" y2="0.595" xlink:href="#linear-gradient"/>
    <filter id="Rectangle_924" x="0" y="122.307" width="455.802" height="275.897" filterUnits="userSpaceOnUse">
      <feOffset dy="30" input="SourceAlpha"/>
      <feGaussianBlur stdDeviation="33" result="blur-3"/>
      <feFlood flood-color="#29292a" flood-opacity="0.149"/>
      <feComposite operator="in" in2="blur-3"/>
      <feComposite in="SourceGraphic"/>
    </filter>
    <filter id="Rectangle_926" x="195.746" y="363.225" width="455.802" height="275.897" filterUnits="userSpaceOnUse">
      <feOffset dy="30" input="SourceAlpha"/>
      <feGaussianBlur stdDeviation="33" result="blur-4"/>
      <feFlood flood-opacity="0.161"/>
      <feComposite operator="in" in2="blur-4"/>
      <feComposite in="SourceGraphic"/>
    </filter>
  </defs>
  <g id="Group_4734" data-name="Group 4734" transform="translate(-15216 -3301.935)">
    <ellipse id="Ellipse_195" data-name="Ellipse 195" cx="218.315" cy="14.365" rx="218.315" ry="14.365" transform="translate(15481.592 3799.889)" fill="#f6f8f8"/>
    <path id="Path_2466" data-name="Path 2466" d="M781.236,698.228s-187.473-2.243-196.292-128.3,212.373-.813,281.683-218.3,327.723-62.935,239.94,44.489S977.03,578.562,994.968,627.6,781.236,698.228,781.236,698.228Z" transform="translate(14823.731 3068.215)" fill="#f6f8f8"/>
    <g id="Group_4719" data-name="Group 4719" transform="translate(15716.293 3629.573)">
      <path id="Path_2467" data-name="Path 2467" d="M916.016,708.894c.613-.027,1.195-.12,1.792-.18a38.956,38.956,0,0,0,5.073-1.07,19.462,19.462,0,0,0,4.8-4.679c5.294-7.064,11.1-22.843-5.32-51.647-11.213-19.6-13.3-19.687-8.3-37.609.231-.718.411-1.455.645-2.252,5.8-20.2-21.544-33.183-21.55-58.8s-31.076-20.98-19.521,3.215c11.569,24.228-20.254,45.637,2.309,70.546,22.528,24.924,9.743,25.78,10.572,51.7C887.24,700.715,900.8,710.163,916.016,708.894Z" transform="translate(-867.629 -535.477)" fill="#a4b826"/>
      <g id="Group_4718" data-name="Group 4718" transform="translate(12.98 11.577)">
        <path id="Path_2468" data-name="Path 2468" d="M916.774,707.933c-.189-1.248-19.112-125.266-35.542-161.816l-1.675.647c16.344,36.353,35.233,160.157,35.422,161.4Z" transform="translate(-879.557 -546.117)" fill="#eceeee"/>
      </g>
    </g>
    <path id="Path_2469" data-name="Path 2469" d="M884.453,706.266c2.325,2.295,6.628.079,12.19-5.288,17.642-17.086,48.31-66.083,70.844-103.283,15.173-25.066,26.654-44.742,28.031-45.741a276.658,276.658,0,0,0-42.576,28.521c-23.587,19.075-50.535,47.045-62.415,82.09A113.263,113.263,0,0,0,884.453,706.266Z" transform="translate(14850.13 3095.547)" fill="#a8bd27"/>
    <g id="Group_4720" data-name="Group 4720" transform="translate(15732.835 3669.723)">
      <path id="Path_2470" data-name="Path 2470" d="M890.978,702.311c-10.809-6.061,3.539-46.907-6.315-79.228s22.619-10.609,36.214-13.533,11.854-37.166,24.451-37.174,20.525,15.8,11.659,31.624,13.595-2.924,18.886,5.4-29.422,37.6-18.78,42.751,34.362-.446,9.708,25.066S914.251,715.359,890.978,702.311Z" transform="translate(-882.831 -572.376)" fill="#70c84a"/>
      <path id="Path_2471" data-name="Path 2471" d="M904.978,638.727l2.705.281c-1.471,14.089,5.675,30.254,8.179,35.405,7.483-7.984,14.163-16.661,16.407-24.012,2.329-7.625,3.28-15.569,4.285-23.98.475-3.982.977-8,1.618-12.024-1.778-2.309-7.009-9.574-5.423-13.212l2.494,1.088c-.545,1.25,1.227,4.9,3.574,8.359,1.552-8.239,3.971-16.42,8.622-24.177l2.333,1.4c-7.328,12.219-8.951,25.778-10.519,38.888-.073.609-.153,1.228-.227,1.842,1.859.888,7.188,2.63,13.172-3.053l1.873,1.972c-6.392,6.07-12.441,4.983-15.387,3.863a119.049,119.049,0,0,1-3.812,19.83,43.286,43.286,0,0,1-5.526,10.938c3.53,2.374,15.63,9.558,26.576,4.7l1.1,2.489c-10.369,4.6-21.251-.172-26.756-3.379-1.031-.6-1.864-1.14-2.479-1.559-12.716,17.7-36.313,36-37.56,36.96l-1.658-2.154a269.9,269.9,0,0,0,25.286-22.674C911.763,672.4,903.314,654.666,904.978,638.727Z" transform="translate(-882.324 -571.135)" fill="#eceeee"/>
    </g>
    <g transform="matrix(1, 0, 0, 1, 15216, 3301.93)" filter="url(#Rectangle_921)">
      <path id="Rectangle_921-2" data-name="Rectangle 921" d="M38.949,0h251.21a6.816,6.816,0,0,1,6.816,6.816V71.081a6.816,6.816,0,0,1-6.816,6.816H38.949A38.949,38.949,0,0,1,0,38.949v0A38.949,38.949,0,0,1,38.949,0Z" transform="translate(238.81 69)" fill="#fff"/>
    </g>
    <path id="Path_2472" data-name="Path 2472" d="M670.952,297.857A38.964,38.964,0,1,0,709.9,336.805,38.944,38.944,0,0,0,670.952,297.857Z" transform="translate(14827.901 3073.156)" opacity="0.1"/>
    <path id="Union_200" data-name="Union 200" d="M109.78,23.367l-6.059-4.4a.87.87,0,0,0-1.022,0l-6.059,4.4A.87.87,0,0,1,95.3,22.4l2.314-7.123A.871.871,0,0,0,97.3,14.3L91.241,9.9a.869.869,0,0,1,.51-1.573h7.49a.87.87,0,0,0,.828-.6L102.382.6a.87.87,0,0,1,1.654,0l2.314,7.124a.871.871,0,0,0,.828.6h7.489a.869.869,0,0,1,.512,1.573l-6.059,4.4a.872.872,0,0,0-.316.973l2.314,7.123a.871.871,0,0,1-.829,1.142A.858.858,0,0,1,109.78,23.367Zm-30.293,0-6.06-4.4a.869.869,0,0,0-1.021,0l-6.06,4.4a.869.869,0,0,1-1.338-.971l2.314-7.123a.871.871,0,0,0-.315-.973L60.948,9.9a.869.869,0,0,1,.51-1.573h7.49a.87.87,0,0,0,.827-.6L72.089.6a.87.87,0,0,1,1.654,0l2.314,7.124a.87.87,0,0,0,.827.6h7.49A.869.869,0,0,1,84.885,9.9l-6.058,4.4a.872.872,0,0,0-.317.973L80.825,22.4A.872.872,0,0,1,80,23.537.857.857,0,0,1,79.487,23.367Zm-30.293,0-6.06-4.4a.869.869,0,0,0-1.021,0l-6.06,4.4a.87.87,0,0,1-1.339-.971l2.315-7.123a.873.873,0,0,0-.316-.973L30.654,9.9a.869.869,0,0,1,.511-1.573h7.49a.87.87,0,0,0,.827-.6L41.8.6a.87.87,0,0,1,1.654,0l2.315,7.124a.869.869,0,0,0,.827.6h7.49A.869.869,0,0,1,54.592,9.9l-6.059,4.4a.87.87,0,0,0-.316.973L50.531,22.4a.872.872,0,0,1-.829,1.142A.856.856,0,0,1,49.194,23.367Zm-30.294,0-6.059-4.4a.87.87,0,0,0-1.022,0l-6.059,4.4A.87.87,0,0,1,4.421,22.4l2.314-7.123A.871.871,0,0,0,6.42,14.3L.36,9.9A.87.87,0,0,1,.871,8.325h7.49a.871.871,0,0,0,.828-.6L11.5.6a.87.87,0,0,1,1.654,0L15.47,7.725a.871.871,0,0,0,.828.6h7.489A.869.869,0,0,1,24.3,9.9L18.24,14.3a.87.87,0,0,0-.316.973L20.238,22.4a.872.872,0,0,1-.829,1.142A.857.857,0,0,1,18.9,23.367Z" transform="translate(15568.825 3398.138)" stroke="rgba(0,0,0,0)" stroke-width="1" fill="url(#linear-gradient)"/>
    <path id="Path_2477" data-name="Path 2477" d="M856.619,334.241l2.314,7.124a.87.87,0,0,0,.827.6h7.49a.869.869,0,0,1,.511,1.572l-6.059,4.4a.871.871,0,0,0-.317.973l2.314,7.123a.869.869,0,0,1-1.337.972l-6.06-4.4a.87.87,0,0,0-1.022,0l-6.06,4.4a.87.87,0,0,1-1.338-.972l2.314-7.123a.87.87,0,0,0-.316-.973l-6.059-4.4a.869.869,0,0,1,.51-1.572h7.49a.869.869,0,0,0,.827-.6l2.314-7.124A.87.87,0,0,1,856.619,334.241Z" transform="translate(14846.535 3064.498)" fill="#eceeee"/>
    <g id="Group_4722" data-name="Group 4722" transform="translate(15454.279 3370.935)">
      <path id="Path_2478" data-name="Path 2478" d="M705.427,336.805a38.949,38.949,0,1,1-38.949-38.948A38.933,38.933,0,0,1,705.427,336.805Z" transform="translate(-627.529 -297.857)" fill="url(#linear-gradient-2)"/>
      <path id="Path_2479" data-name="Path 2479" d="M691.312,361.578a39.012,39.012,0,0,1-51.783,0,25.935,25.935,0,0,1,15.95-22.33,18.547,18.547,0,1,1,19.882,0A25.938,25.938,0,0,1,691.312,361.578Z" transform="translate(-626.472 -293.115)" fill="#fff"/>
    </g>
    <g transform="matrix(1, 0, 0, 1, 15216, 3301.93)" filter="url(#Rectangle_923)">
      <path id="Rectangle_923-2" data-name="Rectangle 923" d="M38.949,0h251.21a6.816,6.816,0,0,1,6.816,6.816V71.081a6.816,6.816,0,0,1-6.816,6.816H38.949A38.949,38.949,0,0,1,0,38.949v0A38.949,38.949,0,0,1,38.949,0Z" transform="translate(440.19 386.28) rotate(180)" fill="#fff"/>
    </g>
    <path id="Path_2480" data-name="Path 2480" d="M775.075,517.656A38.964,38.964,0,1,1,736.126,556.6,38.943,38.943,0,0,1,775.075,517.656Z" transform="translate(14837.076 3092.525)" fill="#29292a" opacity="0.1"/>
    <g id="Group_4723" data-name="Group 4723" transform="translate(15396.347 3637.524)">
      <path id="Union_201" data-name="Union 201" d="M140.074,23.368l-6.062-4.4a.862.862,0,0,0-1.02,0l-6.062,4.4a.87.87,0,0,1-1.339-.971l2.314-7.125a.862.862,0,0,0-.315-.971l-6.058-4.4a.87.87,0,0,1,.511-1.574h7.489a.866.866,0,0,0,.825-.6L132.677.6a.868.868,0,0,1,1.651,0l2.314,7.125a.875.875,0,0,0,.829.6h7.49a.869.869,0,0,1,.509,1.574l-6.061,4.4a.877.877,0,0,0-.315.971l2.314,7.125a.87.87,0,0,1-.828,1.141A.854.854,0,0,1,140.074,23.368Zm-30.293,0-6.062-4.4a.869.869,0,0,0-1.024,0l-6.057,4.4A.87.87,0,0,1,95.3,22.4l2.314-7.125A.867.867,0,0,0,97.3,14.3L91.241,9.9a.869.869,0,0,1,.511-1.574h7.489a.864.864,0,0,0,.824-.6L102.38.6a.87.87,0,0,1,1.655,0l2.314,7.125a.875.875,0,0,0,.829.6h7.489a.869.869,0,0,1,.51,1.574l-6.061,4.4a.878.878,0,0,0-.316.971l2.314,7.125a.869.869,0,0,1-.827,1.141A.854.854,0,0,1,109.781,23.368Zm-30.293,0-6.062-4.4a.869.869,0,0,0-1.024,0l-6.057,4.4a.87.87,0,0,1-1.339-.971l2.314-7.125A.866.866,0,0,0,67,14.3L60.948,9.9a.869.869,0,0,1,.51-1.574h7.489a.865.865,0,0,0,.825-.6L72.087.6a.87.87,0,0,1,1.655,0l2.314,7.125a.875.875,0,0,0,.829.6h7.489a.869.869,0,0,1,.51,1.574l-6.062,4.4a.877.877,0,0,0-.315.971L80.822,22.4A.869.869,0,0,1,80,23.538.852.852,0,0,1,79.488,23.368Zm-30.295,0-6.06-4.4a.869.869,0,0,0-1.024,0l-6.058,4.4a.87.87,0,0,1-1.339-.971l2.314-7.125a.864.864,0,0,0-.315-.971L30.655,9.9a.869.869,0,0,1,.509-1.574h7.489a.867.867,0,0,0,.826-.6L41.794.6a.87.87,0,0,1,1.655,0l2.314,7.125a.874.874,0,0,0,.829.6h7.489a.87.87,0,0,1,.51,1.574l-6.057,4.4a.863.863,0,0,0-.316.971L50.533,22.4a.873.873,0,0,1-.832,1.141A.861.861,0,0,1,49.193,23.368Zm-30.293,0-6.062-4.4a.86.86,0,0,0-1.019,0l-6.062,4.4A.87.87,0,0,1,4.42,22.4l2.314-7.125a.864.864,0,0,0-.315-.971L.361,9.9a.869.869,0,0,1,.51-1.574H8.36a.877.877,0,0,0,.83-.6L11.5.6a.867.867,0,0,1,1.65,0L15.47,7.726a.875.875,0,0,0,.829.6h7.489A.87.87,0,0,1,24.3,9.9l-6.057,4.4a.863.863,0,0,0-.316.971L20.24,22.4a.873.873,0,0,1-.832,1.141A.861.861,0,0,1,18.9,23.368Z" stroke="rgba(0,0,0,0)" stroke-width="1" fill="url(#linear-gradient-3)"/>
    </g>
    <g id="Group_4724" data-name="Group 4724" transform="translate(15578.326 3610.321)">
      <path id="Path_2487" data-name="Path 2487" d="M740.6,556.6a38.948,38.948,0,1,0,38.948-38.948A38.936,38.936,0,0,0,740.6,556.6Z" transform="translate(-740.601 -517.656)" fill="url(#linear-gradient-2)"/>
      <path id="Path_2488" data-name="Path 2488" d="M752.6,581.377a39.014,39.014,0,0,0,51.784,0,25.938,25.938,0,0,0-15.951-22.33,18.547,18.547,0,1,0-19.882,0A25.938,25.938,0,0,0,752.6,581.377Z" transform="translate(-739.543 -512.914)" fill="#fff"/>
    </g>
    <g transform="matrix(1, 0, 0, 1, 15216, 3301.93)" filter="url(#Rectangle_924)">
      <rect id="Rectangle_924-2" data-name="Rectangle 924" width="257.802" height="77.897" rx="7" transform="translate(99 191.31)" fill="#fff"/>
    </g>
    <path id="Rectangle_925" data-name="Rectangle 925" d="M8.51,0H57.332a8.509,8.509,0,0,1,8.509,8.509v1.5a8.509,8.509,0,0,1-8.509,8.509H8.509A8.509,8.509,0,0,1,0,10.009V8.51A8.51,8.51,0,0,1,8.51,0Z" transform="translate(15339.11 3508.094)" fill="#eceeee"/>
    <path id="Path_2489" data-name="Path 2489" d="M713,469.227H530.252a9.26,9.26,0,0,1-9.26-9.26h0a9.259,9.259,0,0,1,9.26-9.259H713a9.259,9.259,0,0,1,9.26,9.259h0A9.26,9.26,0,0,1,713,469.227Z" transform="translate(14818.118 3086.625)" fill="#eceeee"/>
    <g transform="matrix(1, 0, 0, 1, 15216, 3301.93)" filter="url(#Rectangle_926)">
      <rect id="Rectangle_926-2" data-name="Rectangle 926" width="257.802" height="77.897" rx="6.818" transform="translate(294.75 432.23)" fill="#fff"/>
    </g>
    <path id="Path_2490" data-name="Path 2490" d="M760.468,662.763H713.146a9.26,9.26,0,0,1-9.26-9.26h0a9.259,9.259,0,0,1,9.26-9.259h47.322a9.258,9.258,0,0,1,9.259,9.259h0A9.259,9.259,0,0,1,760.468,662.763Z" transform="translate(14834.235 3103.68)" fill="#eceeee"/>
    <path id="Path_2491" data-name="Path 2491" d="M895.9,689.634H713.146a9.26,9.26,0,0,1-9.26-9.259h0a9.26,9.26,0,0,1,9.26-9.26H895.9a9.26,9.26,0,0,1,9.26,9.26h0A9.26,9.26,0,0,1,895.9,689.634Z" transform="translate(14834.235 3106.048)" fill="#eceeee"/>
    <path id="Path_2492" data-name="Path 2492" d="M1011.374,690.724s1.115,4.473.065,5.914,10.9.588,10.9.588-2.215-6.507-.959-9.342S1011.374,690.724,1011.374,690.724Z" transform="translate(14861.331 3107.456)" fill="#ffdbac"/>
    <path id="Path_2493" data-name="Path 2493" d="M998.593,707.614l26.3-4.125c1.471-3.046.866-5.9-1.351-8.617a23.832,23.832,0,0,1-12.159.067c-2.989,3.372-7.764,6.395-13.325,9.263C996.3,705.286,996.832,706.433,998.593,707.614Z" transform="translate(14860.063 3108.141)" fill="#29292a"/>
    <path id="Path_2494" data-name="Path 2494" d="M1046.4,680.462s2.547,3.843,2.039,5.553,10.473-3.091,10.473-3.091-4.263-5.392-4.025-8.484S1046.4,680.462,1046.4,680.462Z" transform="translate(14864.417 3106.284)" fill="#ffdbac"/>
    <path id="Path_2495" data-name="Path 2495" d="M1039.806,701.108l23.41-12.677c.368-3.363-1.158-5.855-4.154-7.67a23.831,23.831,0,0,1-11.437,4.127c-1.69,4.177-5.179,8.622-9.462,13.184C1036.865,699.682,1037.753,700.584,1039.806,701.108Z" transform="translate(14863.639 3106.898)" fill="#29292a"/>
    <path id="Path_2496" data-name="Path 2496" d="M1062.491,686.61l-2.736,1.482-6.526,3.562-4.588,2.508-27.215-48.445-11.085-19.748-6.213-31-7.808-38.9-.285-1.51-.94-4.617v-.028l-1.168-5.842,3.021-.655.8-.171,8.492-1.824.4-.085,15.389-3.306,9.774-2.109-.941,21-.285,6.041v.086l-1.824,40.494-.484,10.858,1.254,2.622Z" transform="translate(14859.794 3094.134)" fill="#bcc5c5"/>
    <path id="Path_2497" data-name="Path 2497" d="M1047.3,556.995q-.044.256-.086.514l-.028.028c-.228,1.339-.512,2.65-.827,3.989-3.276,13.48-10.629,26.987-17.953,40.466-2.479,4.589-4.959,9.148-7.295,13.735v.028c-.713,1.425-1.425,2.85-2.109,4.275l2.079,24.137,4.93,56.909-5.328.8-7.552,1.139-2.707.4-12.568-77.2,5.927-32.8L1010,558.933l1-5.443,14.79,1.424,4.73.456Z" transform="translate(14860.141 3095.683)" fill="#bcc5c5"/>
    <path id="Path_2498" data-name="Path 2498" d="M1050.047,564.13c-.371.074-.668.111-1,.148-.445.074-.927.149-1.409.223a135.569,135.569,0,0,1-14.281,1.632h-.038l-.3.037c-.816.074-1.6.111-2.374.148a4.048,4.048,0,0,1-.668.037,140.587,140.587,0,0,1-17.323-.111c-.778-.037-1.52-.111-2.262-.186a43.294,43.294,0,0,1-12.2-2.447,8.579,8.579,0,0,1-1.743-.89,5.424,5.424,0,0,1-1-.742c.037-.26.111-.52.148-.779.074-.482.185-.965.26-1.447.148-.7.259-1.409.333-2.077v-.037c.409-2.337.779-4.526,1.039-6.677,0-.111.037-.186.037-.3.074-.482.148-.964.186-1.446.259-1.818.445-3.524.63-5.157l.111-1.669c.075-.7.112-1.409.149-2.077.222-3.078.334-5.935.334-8.531a104.048,104.048,0,0,0-2.263-21.329c-2.151-10.757-4.192-19.437,1.113-38.8a67.936,67.936,0,0,1,13.242-2.633h.037c0-.037.037-.037.074,0h.037a55.016,55.016,0,0,1,21.143,2h.038a.4.4,0,0,1,.259.075h.074a59.475,59.475,0,0,1,11.425,4.747c.148.631.3,1.335.408,2.04.3,1.558.593,3.19.816,4.9v.111a82.843,82.843,0,0,1,.519,9.57l.037.779c.074,9.57-.3,21.44-.259,23.407a.628.628,0,0,0,.037.259,32.835,32.835,0,0,0,.408,3.746,59.009,59.009,0,0,1,1.149,7.865c.371,9.459,1.966,19.622,2.671,29.86.037.593.074,1.113.111,1.706a1.531,1.531,0,0,0,.037.408C1049.824,561.719,1049.9,562.906,1050.047,564.13Z" transform="translate(14859.814 3088.216)" fill="#70c84a"/>
    <path id="Path_2499" data-name="Path 2499" d="M1015.764,462.216c-.005,6.55-2,6.546-6.325,7.046-.528,5.315,4.968,7.994,9.524,8.912,8.687-.017,13.088-4.017,11.994-8.363-5.236-2.387-2.829-4.076-3.9-7.31Z" transform="translate(14861.158 3087.639)" fill="#ffdbac"/>
    <path id="Union_203" data-name="Union 203" d="M104.9,97.817l-1.335-3.747-.854-2.3L98.448,79.826,97.187,76.3l-.3-.89-.519-1.447-1.485-4.154c-3.561.779-7.345,1.521-11.165,2.226l-2.077,6.64-.074.223-.073.259-.223.742-.816,2.671-.037.111L76.525,95.368,72.63,93.589l-1.522-.669-.592-.259L63.245,89.4s.594-2.523,1.485-6.344c.073-.482.223-1,.334-1.52.371-1.743.816-3.636,1.261-5.6a10.992,10.992,0,0,1,.26-1.075c-.816.148-1.632.222-2.411.334h-.037V75l-.037-.964-.074-1.559-.3-6.121-.038-.482,4.488-1.224.112-.037.631-.111c1.743-7.827,3.264-14.579,3.264-14.949-.037-.185-.63-3.338-1.521-7.9-.112-.519-.222-1.075-.333-1.633-.817-4.081-1.781-9.05-2.709-13.836l-.631-3.042-.3-1.557.3,1.557.631,3.042-.037.037c-8.865,5.861-13.761,10.572-23,10.831a142.856,142.856,0,0,1-18.4-2.152c-.111-.036-.149,0-.149,0-6.379-1.112-13.5-2.559-21.773-4.3H4.23Q2.17,30.158,0,29.712l.075-.333,2.077-8.866.111-.519,6.714.742L41.1,24.483l23-15.951.037-.036L73.3,2.523,85.8,0V.149l.037.334V2.375l.037,8.605.073,15.283.817,29.712v.073l.112,3.672,7.307-1.929h0l.222-.926.074-.074v-.037l.037-.037,4.748-18.1,7.2-33.792.037-.037V4.749l.112-.519.407-1.744.3-1.3V1.039l12.316,5.675h0c4.154,2.633,12.463,8.68,13.094,11.684a14.958,14.958,0,0,1-.594,3.783c-1.52,6.047-5.6,16.655-9.57,25.855-.259.593-.518,1.187-.779,1.741v0l.333,6.121.927,4.229,6.455,29.6-3.449,1.3-1.373.519-.371.112-.37.149-9.125,3.376-6.529,2.41h-.037l-.3.149-2.411.89-.3.112ZM66.7,21.553ZM64.248,9.126l.073.407,1.41,7.2.407,2-.407-2-1.41-7.2Z" transform="translate(15784.892 3556.754)" fill="#29292a" stroke="rgba(0,0,0,0)" stroke-width="1"/>
    <path id="Path_2502" data-name="Path 2502" d="M981.478,531.506l.269,7.265c2.873.122,5.654-.782,8.573-.6l-.383-8.64Z" transform="translate(14858.697 3093.572)" fill="#ffdbac"/>
    <path id="Path_2503" data-name="Path 2503" d="M924.937,486.129l-1.6,8.54q4.154.891,8.249,1.754l2.041-8.867Z" transform="translate(14853.574 3089.747)" fill="#ffdbac"/>
    <path id="Path_2507" data-name="Path 2507" d="M1010.067,441.15a35.788,35.788,0,0,0,2.326,27.064c2.035,3.514,13.411-2.356,14.99-3.163,2.414-1.234,6.129-8.17,7.463-15.469C1031.28,439.264,1020.865,439.9,1010.067,441.15Z" transform="translate(14861.069 3085.723)" fill="#ffdbac"/>
    <path id="Path_2508" data-name="Path 2508" d="M1008.527,448.76s4.053,2.833,16.367.64c4.057.27.177,4,.011,7.331l1.078.839s1.2-4.4,2.484-4,2.175,3.013,1.282,4.617-6.147,6.64-4.9,7.606-5.382,4.993-1.227,5.51,13.514-5.188,14.547-11.632c3.03-18.919-12.053-25.362-21.56-21.3C1006.057,442.881,1005.3,444.348,1008.527,448.76Z" transform="translate(14860.932 3085.436)" fill="#f0c40f"/>
    <path id="Path_2510" data-name="Path 2510" d="M924.776,495.235a23.337,23.337,0,0,1-8.195,1.028c-1.329-.222-5.6-1.865-6.657-3.659-1.655-2.991-2.675-4.935-2.881-9.233.725-2.113,8.252.148,12.97.667a5.055,5.055,0,0,1-.731-4.034c.88-.555,2.04-.4,2.853.929a25.538,25.538,0,0,1,2.214,3.742l2.024,2.02Z" transform="translate(14852.138 3089.18)" fill="#ffdbac"/>
    <path id="Path_2511" data-name="Path 2511" d="M984.767,539.039a20.743,20.743,0,0,1-6.928,2.393c-1.194.05-5.207-.594-6.45-1.96a15.851,15.851,0,0,1-4.191-7.491c.241-1.967,7.192-1.381,11.385-1.794a4.487,4.487,0,0,1-1.373-3.369,1.752,1.752,0,0,1,2.648.285,22.628,22.628,0,0,1,2.607,2.844l2.127,1.383Z" transform="translate(14857.438 3093.29)" fill="#ffdbac"/>
    <path id="Path_2512" data-name="Path 2512" d="M989.059,529.053l.669,9.962,3.9.611.181-12.761Z" transform="translate(14859.365 3093.336)" fill="#70c84a"/>
    <path id="Path_2513" data-name="Path 2513" d="M933.036,486.472l-2.452,10.65,3.671,1.863,5.915-12.361Z" transform="translate(14854.212 3089.777)" fill="#70c84a"/>
    <g id="Group_4728" data-name="Group 4728" transform="translate(15717.595 3494.772)">
      <path id="Path_2516" data-name="Path 2516" d="M903.486,480.914a34.66,34.66,0,1,1,34.661-34.659A34.7,34.7,0,0,1,903.486,480.914Zm0-65.347a30.687,30.687,0,1,0,30.688,30.688A30.723,30.723,0,0,0,903.486,415.567Z" transform="translate(-868.825 -411.594)" fill="#bcc5c5"/>
    </g>
    <g id="Group_4731" data-name="Group 4731" transform="translate(15732.484 3511.058)">
      <g id="Group_4729" data-name="Group 4729" transform="translate(9.908 0)">
        <path id="Path_2517" data-name="Path 2517" d="M921.184,441.943l-2.251,12.178a11.175,11.175,0,0,1-11.006,9.188h-11.47a4.823,4.823,0,0,1-4.841-4.81V442.313a4.818,4.818,0,0,1,1.912-3.854c2.127-3.916,4.594-7.369,6.074-10.514.587-1.572,6.2-2.775,6.845,2.066a18.516,18.516,0,0,1-2.652,7.493h13.658A3.765,3.765,0,0,1,921.184,441.943Z" transform="translate(-891.615 -426.561)" fill="#70c84a"/>
      </g>
      <g id="Group_4730" data-name="Group 4730" transform="translate(0 13.913)">
        <rect id="Rectangle_929" data-name="Rectangle 929" width="9.924" height="19.848" rx="1.241" fill="#70c84a"/>
      </g>
    </g>
    <g id="Group_4732" data-name="Group 4732" transform="translate(15768.976 3499.963)">
      <circle id="Ellipse_196" data-name="Ellipse 196" cx="5.959" cy="5.959" r="5.959" transform="translate(0 0)" fill="#70c84a"/>
    </g>
    <g id="Group_4733" data-name="Group 4733" transform="translate(15727.375 3550.375)">
      <path id="Path_2518" data-name="Path 2518" d="M886.791,467.183a4.489,4.489,0,1,1-4.49-4.49A4.49,4.49,0,0,1,886.791,467.183Z" transform="translate(-877.813 -462.693)" fill="#70c84a"/>
    </g>
    <path id="Path_2519" data-name="Path 2519" d="M852.048,600.109s-.549,4.932.743,6.6-12.846,1.09-12.846,1.09,4.367-7.155,2.78-10.455S852.048,600.109,852.048,600.109Z" transform="translate(14846.225 3099.46)" fill="#edb6a4"/>
    <path id="Path_2520" data-name="Path 2520" d="M870.06,619.214,838.875,615.3c-1.847-3.541-1.237-6.936,1.281-10.217,5.089,1,9.936,1.106,14.351-.362,3.65,3.87,9.394,7.263,16.061,10.446C872.685,616.384,872.094,617.757,870.06,619.214Z" transform="translate(14846.036 3100.197)" fill="#29292a"/>
    <path id="Path_2521" data-name="Path 2521" d="M823.407,609.154s-1.627,4.689-.734,6.6-12.769-1.779-12.769-1.779,5.841-6.012,5.024-9.581S823.407,609.154,823.407,609.154Z" transform="translate(14843.578 3100.09)" fill="#ffdbac"/>
    <path id="Path_2522" data-name="Path 2522" d="M836.674,631.754l-29.549-10.711c-1.016-3.862.329-7.038,3.51-9.681,4.742,2.1,9.445,3.275,14.076,2.82,2.7,4.582,7.554,9.162,13.351,13.74C839.859,629.575,838.98,630.783,836.674,631.754Z" transform="translate(14843.304 3100.782)" fill="#29292a"/>
    <path id="Path_2523" data-name="Path 2523" d="M817.35,619.1l10.422,2.3,26.342-92.26-71.762-38.058-17.034,26.249c23.765,7.454,54.679,14.6,66.635,16.4C826.431,544.49,821.8,585.481,817.35,619.1Z" transform="translate(14839.648 3090.183)" fill="#bcc5c5"/>
    <path id="Path_2524" data-name="Path 2524" d="M772.618,483.406c33.155,5.379,86.86,18.865,89.362,26.236,4.343,12.711-.365,64.71-2.133,104.233l-12.3-.807c-2.53-34.253-6.646-78.316-5.408-89.3-22.632,2.723-70.516,1.744-75.854-3.57C762.375,517.268,757.833,491.235,772.618,483.406Z" transform="translate(14839.394 3089.507)" fill="#bcc5c5"/>
    <path id="Union_202" data-name="Union 202" d="M3.65,93.276A14.064,14.064,0,0,1,1.164,92.09c.407-4.23.779-8.569,1.187-12.91.631-7.345,1.3-14.725,1.966-21.959.111-1.224.221-2.448.334-3.635-.632-2.819-1.224-5.49-1.706-8.012A125.458,125.458,0,0,1,.089,14.155C.014,7.589,9.1,3.62,13.257,2.656A79.414,79.414,0,0,1,22.233.726C23.9.505,25.535.282,27.2.17a67.794,67.794,0,0,1,10.98.112.809.809,0,0,1,.3.037A65.3,65.3,0,0,1,50.24,2.656l0,.009c6.274,3.246,10.917,7.524,11.818,14.169l1.6,29.661L98.144,78.055s-3.809,4.615-4.757,4.609c-1.012-.006-41.932-26.988-41.133-29.025a12.122,12.122,0,0,1-.314-1.392l.005.153c.26,8.086.742,16.543,1.6,25,.111,1.187.222,2.411.371,3.6,0,.111.037.259.037.37.222,1.966.482,3.969.741,5.936-.816.222-1.594.445-2.411.631-.334.112-.705.185-1.076.3-.036,0-.073.036-.148.036-.185.037-.371.113-.556.15a.052.052,0,0,1-.074,0c-3.115.816-6.158,1.594-9.236,2.3-9.422,2.152-18.51,3.672-25.929,3.9q-.913.029-1.792.029A29.777,29.777,0,0,1,3.65,93.276Z" transform="translate(15598.222 3499.793)" fill="#29292a" stroke="rgba(0,0,0,0)" stroke-width="1"/>
    <path id="Path_2528" data-name="Path 2528" d="M779.407,418.919c-6.282,7.3,25.185,12.279,16.4-.4-1.421-4.027-.853-9.473,1.1-14.806L778.5,401A22.512,22.512,0,0,1,779.407,418.919Z" transform="translate(14840.811 3082.245)" fill="#ffdbac"/>
    <path id="Path_2529" data-name="Path 2529" d="M778.458,412.813c3.27,4.929,8.941,9.312,15.6,8.251,2.221-.5,13.382-16.922,12.105-27.446l-19.752-8.24-10.075,11.309A31.292,31.292,0,0,0,778.458,412.813Z" transform="translate(14840.596 3080.868)" fill="#ffdbac"/>
    <path id="Path_2530" data-name="Path 2530" d="M852.27,496.031,804.949,503,816.4,473.919l47.321-6.973Z" transform="translate(14843.142 3088.056)" fill="#dfe2e2"/>
    <path id="Path_2531" data-name="Path 2531" d="M789.23,399.527c6.745,3.036,13.141,5.386,17.184,3.129,3.911-2.916,5.33-3.181,5.978-6.617-.86-2.607-1.259-7.88-3.413-9.951-6.1,1.775-12.786.72-19.415-2.326-5.967-.775-9.72,1.739-13.348,5.3-2.832,3.442-1.971,8.688-.688,18.015,1.031,4.244,2.262,4.187,4.148,8.41,1.749.934,4.071-4.075,3.71-5.849-1.363-2.239-2.721-4.478-2.726-6.179a3.89,3.89,0,0,1,2.815-2.816,2.871,2.871,0,0,1,1.975,3.339C787.563,402.98,789.075,401.638,789.23,399.527Z" transform="translate(14840.442 3080.714)" fill="#f0c40f"/>
    <path id="Path_2532" data-name="Path 2532" d="M807.3,487.817a19.191,19.191,0,0,1,6.129-1.007c1.156.095,4.359-.057,4.549,1.367-.332,3.54-4.942,7.558-7.859,9.77-1.644.345-3.947,1-5.794.037a5.61,5.61,0,0,1-1.8-3.16Z" transform="translate(14842.928 3089.806)" fill="#edb6a4"/>
    <path id="Path_2533" data-name="Path 2533" d="M854.081,482.773c-1.346-1.078-3.677-1.281-5.087-1.244a3.886,3.886,0,0,0-2.963,2.161c-.87,3.457.4,5.751,2.219,8.729,1.321.823,1.825.56,2.354.394C852.3,492.656,855.073,483.231,854.081,482.773Z" transform="translate(14846.736 3089.341)" fill="#edb6a4"/>
    <path id="Path_2534" data-name="Path 2534" d="M807.525,496.168l-1.52.556s-.186-.111-.482-.3a.283.283,0,0,1-.149-.074c-2.448-1.409-11.35-5.446-12.537-5.261-.445.074-2.9-.964-5.833-2.41-6.047-2.93-14.643-7.339-15.755-8.564-1.6-1.854-4.526-6.729-6.937-8.732-.445-.334-.853-2-1.224-2.3.111-1.224.222-2.448.334-3.635,0,0,11.906,9.607,14.43,11.239,2.559,1.6,16.024,8.087,19.845,10.2a24.218,24.218,0,0,1,4.9,3.969c1.818,1.743,3.45,3.56,4.3,4.562v.037C807.3,495.908,807.525,496.168,807.525,496.168Z" transform="translate(14839.452 3087.925)" opacity="0.05"/>
  </g>
</svg>
