<svg id="Group_4860" data-name="Group 4860" xmlns="http://www.w3.org/2000/svg" xmlns:xlink="http://www.w3.org/1999/xlink" width="694.607" height="518.932" viewBox="0 0 694.607 518.932">
  <defs>
    <clipPath id="clip-path">
      <path id="Path_2961" data-name="Path 2961" d="M994.458,733.08c147.907-51.782,179.859-234.97,120.718-369.605-34.666-78.92-97.28-109.619-180.445-102.728C854.146,267.426,757.159,253,680.7,280.418c-64.742,23.214-119.816,74.955-142.986,140.2-24.994,70.379,11.91,146.266,35.183,213.247C626.428,787.946,869.984,776.658,994.458,733.08Z" transform="translate(-529.363 -259.808)" fill="none"/>
    </clipPath>
    <linearGradient id="linear-gradient" x1="0.913" y1="0.854" x2="0.159" y2="0.434" gradientUnits="objectBoundingBox">
      <stop offset="0" stop-color="#a8bd27"/>
      <stop offset="1" stop-color="#70c84a"/>
    </linearGradient>
    <linearGradient id="linear-gradient-2" x1="0.231" y1="0.419" x2="0.926" y2="0.556" gradientUnits="objectBoundingBox">
      <stop offset="0" stop-color="#70c84a"/>
      <stop offset="1" stop-color="#a8bd27"/>
    </linearGradient>
  </defs>
  <path id="Path_2953" data-name="Path 2953" d="M994.458,732.511c147.907-51.782,179.859-234.971,120.718-369.605-34.666-78.921-97.28-109.621-180.445-102.728-80.586,6.678-177.573-7.746-254.037,19.67-64.742,23.214-119.816,74.955-142.986,140.2-24.994,70.379,11.91,146.265,35.183,213.246C626.428,787.377,869.984,776.089,994.458,732.511Z" transform="translate(-497.923 -241.968)" fill="#f6f8f8"/>
  <g id="Group_4857" data-name="Group 4857" transform="translate(31.44 16.791)" clip-path="url(#clip-path)">
    <g id="Group_4855" data-name="Group 4855" transform="translate(39.858 203.807)">
      <rect id="Rectangle_1053" data-name="Rectangle 1053" width="40.165" height="112.802" transform="translate(61.602 235.082)" fill="#fff"/>
      <rect id="Rectangle_1054" data-name="Rectangle 1054" width="20.083" height="156.323" transform="translate(61.602 191.561)" fill="#fff"/>
      <g id="Group_4844" data-name="Group 4844" transform="translate(499.147 102.123)">
        <rect id="Rectangle_1055" data-name="Rectangle 1055" width="9.413" height="21.389" transform="translate(13.187 13.902)" fill="#fff"/>
        <rect id="Rectangle_1056" data-name="Rectangle 1056" width="9.413" height="11.262" transform="translate(13.187 24.029)" fill="#f6f8f8"/>
        <rect id="Rectangle_1057" data-name="Rectangle 1057" width="21.553" height="35.291" transform="translate(35.578 0)" fill="#fff"/>
        <rect id="Rectangle_1058" data-name="Rectangle 1058" width="21.553" height="11.262" transform="translate(35.578 24.029)" fill="#f6f8f8"/>
        <rect id="Rectangle_1059" data-name="Rectangle 1059" width="61.917" height="191.235" transform="translate(0 28.597)" fill="#fff"/>
        <g id="Group_4841" data-name="Group 4841" transform="translate(14.025 48.035)">
          <rect id="Rectangle_1060" data-name="Rectangle 1060" width="6.267" height="8.19" transform="translate(0 0)" fill="#f6f8f8"/>
          <rect id="Rectangle_1061" data-name="Rectangle 1061" width="6.267" height="8.19" transform="translate(0 16.878)" fill="#f6f8f8"/>
          <rect id="Rectangle_1062" data-name="Rectangle 1062" width="6.267" height="8.19" transform="translate(0 33.756)" fill="#f6f8f8"/>
          <rect id="Rectangle_1063" data-name="Rectangle 1063" width="6.267" height="8.19" transform="translate(0 50.635)" fill="#f6f8f8"/>
          <rect id="Rectangle_1064" data-name="Rectangle 1064" width="6.267" height="8.19" transform="translate(0 67.513)" fill="#f6f8f8"/>
          <rect id="Rectangle_1065" data-name="Rectangle 1065" width="6.267" height="8.19" transform="translate(0 84.391)" fill="#f6f8f8"/>
          <rect id="Rectangle_1066" data-name="Rectangle 1066" width="6.267" height="8.19" transform="translate(0 101.269)" fill="#f6f8f8"/>
        </g>
        <g id="Group_4842" data-name="Group 4842" transform="translate(32.445 48.035)">
          <rect id="Rectangle_1067" data-name="Rectangle 1067" width="6.267" height="8.19" transform="translate(0 0)" fill="#f6f8f8"/>
          <rect id="Rectangle_1068" data-name="Rectangle 1068" width="6.267" height="8.19" transform="translate(0 16.878)" fill="#f6f8f8"/>
          <rect id="Rectangle_1069" data-name="Rectangle 1069" width="6.267" height="8.19" transform="translate(0 33.756)" fill="#f6f8f8"/>
          <rect id="Rectangle_1070" data-name="Rectangle 1070" width="6.267" height="8.19" transform="translate(0 50.635)" fill="#f6f8f8"/>
          <rect id="Rectangle_1071" data-name="Rectangle 1071" width="6.267" height="8.19" transform="translate(0 67.513)" fill="#f6f8f8"/>
          <rect id="Rectangle_1072" data-name="Rectangle 1072" width="6.267" height="8.19" transform="translate(0 84.391)" fill="#f6f8f8"/>
          <rect id="Rectangle_1073" data-name="Rectangle 1073" width="6.267" height="8.19" transform="translate(0 101.269)" fill="#f6f8f8"/>
        </g>
        <g id="Group_4843" data-name="Group 4843" transform="translate(50.864 48.035)">
          <rect id="Rectangle_1074" data-name="Rectangle 1074" width="6.267" height="8.19" transform="translate(0 0)" fill="#f6f8f8"/>
          <rect id="Rectangle_1075" data-name="Rectangle 1075" width="6.267" height="8.19" transform="translate(0 16.878)" fill="#f6f8f8"/>
          <rect id="Rectangle_1076" data-name="Rectangle 1076" width="6.267" height="8.19" transform="translate(0 33.756)" fill="#f6f8f8"/>
          <rect id="Rectangle_1077" data-name="Rectangle 1077" width="6.267" height="8.19" transform="translate(0 50.635)" fill="#f6f8f8"/>
          <rect id="Rectangle_1078" data-name="Rectangle 1078" width="6.267" height="8.19" transform="translate(0 67.513)" fill="#f6f8f8"/>
          <rect id="Rectangle_1079" data-name="Rectangle 1079" width="6.267" height="8.19" transform="translate(0 84.391)" fill="#f6f8f8"/>
          <rect id="Rectangle_1080" data-name="Rectangle 1080" width="6.267" height="8.19" transform="translate(0 101.269)" fill="#f6f8f8"/>
        </g>
      </g>
      <g id="Group_4848" data-name="Group 4848" transform="translate(0 83.294)">
        <rect id="Rectangle_1081" data-name="Rectangle 1081" width="9.413" height="21.389" transform="translate(13.187 13.902)" fill="#fff"/>
        <rect id="Rectangle_1082" data-name="Rectangle 1082" width="9.413" height="11.262" transform="translate(13.187 24.029)" fill="#f6f8f8"/>
        <rect id="Rectangle_1083" data-name="Rectangle 1083" width="21.553" height="35.291" transform="translate(35.578 0)" fill="#fff"/>
        <rect id="Rectangle_1084" data-name="Rectangle 1084" width="21.553" height="11.262" transform="translate(35.578 24.029)" fill="#f6f8f8"/>
        <rect id="Rectangle_1085" data-name="Rectangle 1085" width="65.629" height="191.235" transform="translate(0 28.597)" fill="#fff"/>
        <g id="Group_4845" data-name="Group 4845" transform="translate(14.025 48.035)">
          <rect id="Rectangle_1086" data-name="Rectangle 1086" width="6.267" height="8.19" transform="translate(0 0)" fill="#f6f8f8"/>
          <rect id="Rectangle_1087" data-name="Rectangle 1087" width="6.267" height="8.19" transform="translate(0 16.878)" fill="#f6f8f8"/>
          <rect id="Rectangle_1088" data-name="Rectangle 1088" width="6.267" height="8.19" transform="translate(0 33.756)" fill="#f6f8f8"/>
          <rect id="Rectangle_1089" data-name="Rectangle 1089" width="6.267" height="8.19" transform="translate(0 50.635)" fill="#f6f8f8"/>
          <rect id="Rectangle_1090" data-name="Rectangle 1090" width="6.267" height="8.19" transform="translate(0 67.513)" fill="#f6f8f8"/>
          <rect id="Rectangle_1091" data-name="Rectangle 1091" width="6.267" height="8.19" transform="translate(0 84.391)" fill="#f6f8f8"/>
          <rect id="Rectangle_1092" data-name="Rectangle 1092" width="6.267" height="8.19" transform="translate(0 101.269)" fill="#f6f8f8"/>
        </g>
        <g id="Group_4846" data-name="Group 4846" transform="translate(32.445 48.035)">
          <rect id="Rectangle_1093" data-name="Rectangle 1093" width="6.267" height="8.19" transform="translate(0 0)" fill="#f6f8f8"/>
          <rect id="Rectangle_1094" data-name="Rectangle 1094" width="6.267" height="8.19" transform="translate(0 16.878)" fill="#f6f8f8"/>
          <rect id="Rectangle_1095" data-name="Rectangle 1095" width="6.267" height="8.19" transform="translate(0 33.756)" fill="#f6f8f8"/>
          <rect id="Rectangle_1096" data-name="Rectangle 1096" width="6.267" height="8.19" transform="translate(0 50.635)" fill="#f6f8f8"/>
          <rect id="Rectangle_1097" data-name="Rectangle 1097" width="6.267" height="8.19" transform="translate(0 67.513)" fill="#f6f8f8"/>
          <rect id="Rectangle_1098" data-name="Rectangle 1098" width="6.267" height="8.19" transform="translate(0 84.391)" fill="#f6f8f8"/>
          <rect id="Rectangle_1099" data-name="Rectangle 1099" width="6.267" height="8.19" transform="translate(0 101.269)" fill="#f6f8f8"/>
        </g>
        <g id="Group_4847" data-name="Group 4847" transform="translate(50.864 48.035)">
          <rect id="Rectangle_1100" data-name="Rectangle 1100" width="6.267" height="8.19" transform="translate(0 0)" fill="#f6f8f8"/>
          <rect id="Rectangle_1101" data-name="Rectangle 1101" width="6.267" height="8.19" transform="translate(0 16.878)" fill="#f6f8f8"/>
          <rect id="Rectangle_1102" data-name="Rectangle 1102" width="6.267" height="8.19" transform="translate(0 33.756)" fill="#f6f8f8"/>
          <rect id="Rectangle_1103" data-name="Rectangle 1103" width="6.267" height="8.19" transform="translate(0 50.635)" fill="#f6f8f8"/>
          <rect id="Rectangle_1104" data-name="Rectangle 1104" width="6.267" height="8.19" transform="translate(0 67.513)" fill="#f6f8f8"/>
          <rect id="Rectangle_1105" data-name="Rectangle 1105" width="6.267" height="8.19" transform="translate(0 84.391)" fill="#f6f8f8"/>
          <rect id="Rectangle_1106" data-name="Rectangle 1106" width="6.267" height="8.19" transform="translate(0 101.269)" fill="#f6f8f8"/>
        </g>
      </g>
      <rect id="Rectangle_1107" data-name="Rectangle 1107" width="40.165" height="112.802" transform="translate(415.083 210.199)" fill="#eff9fe"/>
      <rect id="Rectangle_1108" data-name="Rectangle 1108" width="20.083" height="156.323" transform="translate(415.083 166.677)" fill="#eff9fe"/>
      <rect id="Rectangle_1109" data-name="Rectangle 1109" width="20.083" height="105.188" transform="translate(405.042 217.812)" fill="#eff9fe"/>
      <g id="Group_4852" data-name="Group 4852" transform="translate(142.819 35.792)">
        <path id="Path_2954" data-name="Path 2954" d="M863.854,519.441H912.02V475.083L863.854,497.8Z" transform="translate(-853.171 -475.083)" fill="#fff"/>
        <rect id="Rectangle_1110" data-name="Rectangle 1110" width="69.532" height="235.724" transform="translate(0 34.071)" fill="#fff"/>
        <rect id="Rectangle_1111" data-name="Rectangle 1111" width="48.166" height="4.816" transform="translate(10.683 29.255)" fill="#f6f8f8"/>
        <g id="Group_4849" data-name="Group 4849" transform="translate(45.019 56.593)">
          <rect id="Rectangle_1112" data-name="Rectangle 1112" width="7.096" height="10.946" transform="translate(0 73.852)" fill="#f6f8f8"/>
          <rect id="Rectangle_1113" data-name="Rectangle 1113" width="7.096" height="10.946" transform="translate(0 55.389)" fill="#f6f8f8"/>
          <rect id="Rectangle_1114" data-name="Rectangle 1114" width="7.096" height="10.946" transform="translate(0 36.926)" fill="#f6f8f8"/>
          <rect id="Rectangle_1115" data-name="Rectangle 1115" width="7.096" height="10.946" transform="translate(0 18.463)" fill="#f6f8f8"/>
          <rect id="Rectangle_1116" data-name="Rectangle 1116" width="7.096" height="10.946" transform="translate(0)" fill="#f6f8f8"/>
        </g>
        <g id="Group_4850" data-name="Group 4850" transform="translate(31.218 56.593)">
          <rect id="Rectangle_1117" data-name="Rectangle 1117" width="7.096" height="10.946" transform="translate(0 73.852)" fill="#f6f8f8"/>
          <rect id="Rectangle_1118" data-name="Rectangle 1118" width="7.096" height="10.946" transform="translate(0 55.389)" fill="#f6f8f8"/>
          <rect id="Rectangle_1119" data-name="Rectangle 1119" width="7.096" height="10.946" transform="translate(0 36.926)" fill="#f6f8f8"/>
          <rect id="Rectangle_1120" data-name="Rectangle 1120" width="7.096" height="10.946" transform="translate(0 18.463)" fill="#f6f8f8"/>
          <rect id="Rectangle_1121" data-name="Rectangle 1121" width="7.096" height="10.946" transform="translate(0)" fill="#f6f8f8"/>
        </g>
        <g id="Group_4851" data-name="Group 4851" transform="translate(17.418 56.593)">
          <rect id="Rectangle_1122" data-name="Rectangle 1122" width="7.096" height="10.946" transform="translate(0 73.852)" fill="#f6f8f8"/>
          <rect id="Rectangle_1123" data-name="Rectangle 1123" width="7.096" height="10.946" transform="translate(0 55.389)" fill="#f6f8f8"/>
          <rect id="Rectangle_1124" data-name="Rectangle 1124" width="7.096" height="10.946" transform="translate(0 36.926)" fill="#f6f8f8"/>
          <rect id="Rectangle_1125" data-name="Rectangle 1125" width="7.096" height="10.946" transform="translate(0 18.463)" fill="#f6f8f8"/>
          <rect id="Rectangle_1126" data-name="Rectangle 1126" width="7.096" height="10.946" transform="translate(0)" fill="#f6f8f8"/>
        </g>
      </g>
      <g id="Group_4853" data-name="Group 4853" transform="translate(449.401)">
        <rect id="Rectangle_1127" data-name="Rectangle 1127" width="7.775" height="61.496" transform="translate(30.134)" fill="#fff"/>
        <rect id="Rectangle_1128" data-name="Rectangle 1128" width="7.775" height="5.697" transform="translate(30.134 55.799)" fill="#f6f8f8"/>
        <rect id="Rectangle_1129" data-name="Rectangle 1129" width="14.151" height="35.98" transform="translate(8.666 32.469)" fill="#fff"/>
        <rect id="Rectangle_1130" data-name="Rectangle 1130" width="56.401" height="261.849" transform="translate(0 60.105)" fill="#fff"/>
        <rect id="Rectangle_1131" data-name="Rectangle 1131" width="14.151" height="3.906" transform="translate(8.666 56.199)" fill="#f6f8f8"/>
        <rect id="Rectangle_1132" data-name="Rectangle 1132" width="5.756" height="8.879" transform="translate(14.128 228.134)" fill="#ebf9ff"/>
        <rect id="Rectangle_1133" data-name="Rectangle 1133" width="5.756" height="8.879" transform="translate(14.128 213.158)" fill="#ebf9ff"/>
        <rect id="Rectangle_1134" data-name="Rectangle 1134" width="5.756" height="8.879" transform="translate(14.128 168.23)" fill="#ebf9ff"/>
        <rect id="Rectangle_1135" data-name="Rectangle 1135" width="5.756" height="8.879" transform="translate(14.128 153.254)" fill="#ebf9ff"/>
        <rect id="Rectangle_1136" data-name="Rectangle 1136" width="5.756" height="8.879" transform="translate(14.128 123.302)" fill="#f6f8f8"/>
        <rect id="Rectangle_1137" data-name="Rectangle 1137" width="5.756" height="8.879" transform="translate(14.128 78.374)" fill="#f6f8f8"/>
        <rect id="Rectangle_1138" data-name="Rectangle 1138" width="5.756" height="8.879" transform="translate(25.322 198.182)" fill="#ebf9ff"/>
        <rect id="Rectangle_1139" data-name="Rectangle 1139" width="5.756" height="8.879" transform="translate(25.322 153.254)" fill="#ebf9ff"/>
        <rect id="Rectangle_1140" data-name="Rectangle 1140" width="5.756" height="8.879" transform="translate(25.322 138.278)" fill="#f6f8f8"/>
        <rect id="Rectangle_1141" data-name="Rectangle 1141" width="5.756" height="8.879" transform="translate(25.322 108.326)" fill="#f6f8f8"/>
        <rect id="Rectangle_1142" data-name="Rectangle 1142" width="5.756" height="8.879" transform="translate(25.322 93.35)" fill="#f6f8f8"/>
        <rect id="Rectangle_1143" data-name="Rectangle 1143" width="5.756" height="8.879" transform="translate(36.516 228.134)" fill="#ebf9ff"/>
        <rect id="Rectangle_1144" data-name="Rectangle 1144" width="5.756" height="8.879" transform="translate(36.516 198.182)" fill="#ebf9ff"/>
        <rect id="Rectangle_1145" data-name="Rectangle 1145" width="5.756" height="8.879" transform="translate(36.516 168.23)" fill="#ebf9ff"/>
        <rect id="Rectangle_1146" data-name="Rectangle 1146" width="5.756" height="8.879" transform="translate(36.516 138.278)" fill="#f6f8f8"/>
        <rect id="Rectangle_1147" data-name="Rectangle 1147" width="5.756" height="8.879" transform="translate(36.516 93.35)" fill="#f6f8f8"/>
      </g>
      <g id="Group_4854" data-name="Group 4854" transform="translate(212.124 115.475)">
        <rect id="Rectangle_1148" data-name="Rectangle 1148" width="7.775" height="5.697" transform="translate(27.907)" fill="#ebf9ff"/>
        <rect id="Rectangle_1149" data-name="Rectangle 1149" width="56.401" height="261.849" transform="translate(0 3.193)" fill="#fff"/>
        <rect id="Rectangle_1150" data-name="Rectangle 1150" width="14.152" height="3.906" transform="matrix(-0.999, -0.035, 0.035, -0.999, 21.256, 4.42)" fill="#f6f8f8"/>
        <rect id="Rectangle_1151" data-name="Rectangle 1151" width="5.756" height="8.879" transform="translate(11.902 172.335)" fill="#ebf9ff"/>
        <rect id="Rectangle_1152" data-name="Rectangle 1152" width="5.756" height="8.879" transform="translate(11.902 157.359)" fill="#ebf9ff"/>
        <rect id="Rectangle_1153" data-name="Rectangle 1153" width="5.756" height="8.879" transform="translate(11.902 112.431)" fill="#ebf9ff"/>
        <rect id="Rectangle_1154" data-name="Rectangle 1154" width="5.756" height="8.879" transform="translate(11.902 97.455)" fill="#ebf9ff"/>
        <rect id="Rectangle_1155" data-name="Rectangle 1155" width="5.756" height="8.879" transform="translate(11.902 67.503)" fill="#ebf9ff"/>
        <rect id="Rectangle_1156" data-name="Rectangle 1156" width="5.756" height="8.879" transform="matrix(0.999, 0.035, -0.035, 0.999, 11.935, 22.375)" fill="#f6f8f8"/>
        <rect id="Rectangle_1157" data-name="Rectangle 1157" width="5.756" height="8.879" transform="translate(23.096 142.383)" fill="#ebf9ff"/>
        <rect id="Rectangle_1158" data-name="Rectangle 1158" width="5.756" height="8.879" transform="translate(23.096 97.455)" fill="#ebf9ff"/>
        <rect id="Rectangle_1159" data-name="Rectangle 1159" width="5.756" height="8.879" transform="translate(23.096 82.479)" fill="#ebf9ff"/>
        <rect id="Rectangle_1160" data-name="Rectangle 1160" width="5.756" height="8.879" transform="translate(23.096 52.527)" fill="#ebf9ff"/>
        <rect id="Rectangle_1161" data-name="Rectangle 1161" width="5.756" height="8.879" transform="matrix(-0.999, -0.035, 0.035, -0.999, 28.042, 46.807)" fill="#f6f8f8"/>
        <rect id="Rectangle_1162" data-name="Rectangle 1162" width="5.756" height="8.879" transform="translate(34.29 172.335)" fill="#ebf9ff"/>
        <rect id="Rectangle_1163" data-name="Rectangle 1163" width="5.756" height="8.879" transform="translate(34.29 142.383)" fill="#ebf9ff"/>
        <rect id="Rectangle_1164" data-name="Rectangle 1164" width="5.756" height="8.879" transform="translate(34.29 112.431)" fill="#ebf9ff"/>
        <rect id="Rectangle_1165" data-name="Rectangle 1165" width="5.756" height="8.879" transform="translate(34.29 82.479)" fill="#ebf9ff"/>
        <rect id="Rectangle_1166" data-name="Rectangle 1166" width="5.756" height="8.879" transform="translate(34.29 37.551)" fill="#ebf9ff"/>
      </g>
    </g>
    <g id="Group_4856" data-name="Group 4856" transform="translate(-51.237 60.949)">
      <path id="Path_2955" data-name="Path 2955" d="M1056.968,651.514,971.739,559.4H930.416L837.766,679.924V734.4h219.2Z" transform="translate(-735.169 -286.906)" fill="url(#linear-gradient)"/>
      <path id="Path_2956" data-name="Path 2956" d="M909.3,559.4h41.323l59.753,64.581c-10.837-.031-23.713-11.21-34.275-6.139-6.73,3.232-9.309,11.875-15.753,15.646-6.888,4.032-15.9,1.133-22.256-3.692s-11.284-11.389-17.866-15.9-16.043-6.518-22.282-1.54c-4.751,3.79-6.281,10.5-10.785,14.581-7.065,6.4-19.034,3.668-25.627-3.218-.315-.329-.58-.695-.877-1.036Z" transform="translate(-714.054 -286.906)" fill="rgba(255,255,255,0.25)"/>
      <path id="Path_2957" data-name="Path 2957" d="M538.594,417.848h97.272a52.166,52.166,0,0,1,61-62.482,66.212,66.212,0,0,1,81.389-37.625V467.467H538.594a24.81,24.81,0,1,1,0-49.619Z" transform="translate(-95.861 -314.569)" fill="#fff"/>
      <path id="Path_2958" data-name="Path 2958" d="M965.531,632.091s-85.834-98.9-102.253-98.9H730.7c-7.747,0-162.71,204.17-162.71,204.17H965.531Z" transform="translate(-343.471 -289.867)" fill="url(#linear-gradient-2)"/>
      <path id="Path_2959" data-name="Path 2959" d="M877.817,615.242c-.191-.066-.382-.138-.573-.2-11.326-3.844-25.87-6.439-33.526,2.75-9.13,10.957-1.924,32.076-14.562,38.688-9.389,4.911-19.846-3.705-27.4-11.134a240.078,240.078,0,0,0-34.233-27.964c-7.13-4.8-14.807-9.326-23.337-10.382s-18.123,2.174-22.247,9.715c-4.276,7.822-1.686,17.39-.4,26.212s-.034,19.811-8.156,23.49c-9.224,4.178-18.949-4.262-25.575-11.919q-14.586-16.86-29.174-33.718c-7.5-8.666-19.517-18.088-29-11.656-4.871,3.3-6.571,9.59-10.059,14.331-6.989,9.5-21.418,11.647-31.905,6.251a29.868,29.868,0,0,1-6.275-4.368c37.095-47.52,72.89-92.14,76.511-92.14h132.58C802.6,533.192,852.48,587.006,877.817,615.242Z" transform="translate(-270.679 -289.867)" fill="rgba(255,255,255,0.25)"/>
      <path id="Path_2960" data-name="Path 2960" d="M968.1,363.217a49.832,49.832,0,0,1,48.376,37.91,49.8,49.8,0,0,1,73.986,37.585H1112.9a35.454,35.454,0,0,1,35.453,35.454h0a35.453,35.453,0,0,1-35.453,35.453H936.978V374.149A49.593,49.593,0,0,1,968.1,363.217Z" transform="translate(-936.978 -309.072)" fill="#fff"/>
    </g>
  </g>
  <path id="Path_2962" data-name="Path 2962" d="M1004.645,483.081h0a7.054,7.054,0,0,1,7.053-7.054h18.921a7.053,7.053,0,0,0,7.053-7.053h0a7.053,7.053,0,0,1,7.053-7.053h12.458a7.053,7.053,0,0,1,7.053,7.053h0a7.054,7.054,0,0,0,7.054,7.053h13.292a7.055,7.055,0,0,1,7.054,7.054h0a7.053,7.053,0,0,0,7.053,7.053h18.575a7.053,7.053,0,0,1,7.053,7.053h0a7.053,7.053,0,0,1-7.053,7.053H981.579a7.053,7.053,0,0,1-7.053-7.053h0a7.053,7.053,0,0,1,7.053-7.053h16.011A7.054,7.054,0,0,0,1004.645,483.081Z" transform="translate(-974.526 -219.067)" fill="#e0e2e2"/>
  <path id="Path_2963" data-name="Path 2963" d="M657.516,287.291a4.359,4.359,0,1,0,4.358-4.358A4.36,4.36,0,0,0,657.516,287.291Z" transform="translate(-163.615 -239.291)" fill="#fff"/>
  <path id="Path_2964" data-name="Path 2964" d="M872.571,520.64a4.359,4.359,0,1,0,4.359-4.36A4.358,4.358,0,0,0,872.571,520.64Z" transform="translate(-546.793 -328.676)" fill="#fff"/>
  <path id="Path_2965" data-name="Path 2965" d="M636.084,602.992a4.358,4.358,0,1,0,4.359-4.359A4.359,4.359,0,0,0,636.084,602.992Z" transform="translate(-428.852 -530.839)" fill="#fff"/>
  <path id="Path_2966" data-name="Path 2966" d="M678.954,387.261h2.856v-2.856a2.179,2.179,0,0,1,4.358,0v2.856h2.857a2.18,2.18,0,0,1,0,4.36h-2.857v2.856a2.179,2.179,0,1,1-4.358,0v-2.856h-2.856a2.18,2.18,0,0,1,0-4.36Z" transform="translate(-210.021 -228.072)" fill="#fff"/>
  <path id="Path_2967" data-name="Path 2967" d="M927.494,352.373h2.856v-2.857a2.18,2.18,0,0,1,4.36,0v2.857h2.856a2.179,2.179,0,1,1,0,4.358H934.71v2.856a2.18,2.18,0,0,1-4.36,0v-2.856h-2.856a2.179,2.179,0,0,1,0-4.358Z" transform="translate(-735.184 -232.014)" fill="#fff"/>
  <path id="Path_2968" data-name="Path 2968" d="M514.835,437.388h0a6.983,6.983,0,0,1,6.983-6.983H540.55a6.983,6.983,0,0,0,6.983-6.983h0a6.983,6.983,0,0,1,6.983-6.983h12.332a6.983,6.983,0,0,1,6.983,6.983h0a6.983,6.983,0,0,0,6.983,6.983h13.159a6.983,6.983,0,0,1,6.983,6.983h0a6.982,6.982,0,0,0,6.982,6.982h18.389a6.983,6.983,0,0,1,6.983,6.983h0a6.983,6.983,0,0,1-6.983,6.983h-1.358a6.983,6.983,0,0,0-6.983,6.983h0A6.983,6.983,0,0,1,611,472.3H551.856a6.983,6.983,0,0,1-6.983-6.983h0a6.983,6.983,0,0,0-6.983-6.983h-6.4a6.983,6.983,0,0,0-6.983,6.983h0a6.983,6.983,0,0,1-6.983,6.983h-7.667a6.983,6.983,0,0,1-6.983-6.983h0a6.982,6.982,0,0,0-6.982-6.983H492a6.983,6.983,0,0,1-6.983-6.983h0A6.983,6.983,0,0,1,492,444.369h15.85A6.983,6.983,0,0,0,514.835,437.388Zm70.156,13.965h0a6.983,6.983,0,0,0-6.982-6.983h-5.775a6.983,6.983,0,0,0-6.983,6.983h0a6.983,6.983,0,0,0,6.983,6.983h5.775A6.983,6.983,0,0,0,584.991,451.352Z" transform="translate(61.298 -224.206)" fill="#e0e2e2"/>
  <path id="Path_2986" data-name="Path 2986" d="M998.289,478.616h0a5.565,5.565,0,0,1,5.565-5.566h14.928a5.565,5.565,0,0,0,5.565-5.565h0a5.565,5.565,0,0,1,5.565-5.565h9.829a5.565,5.565,0,0,1,5.565,5.565h0a5.565,5.565,0,0,0,5.566,5.565h10.487a5.566,5.566,0,0,1,5.566,5.566h0a5.565,5.565,0,0,0,5.565,5.565h14.655a5.565,5.565,0,0,1,5.565,5.565h0a5.565,5.565,0,0,1-5.565,5.565H980.091a5.565,5.565,0,0,1-5.565-5.565h0a5.565,5.565,0,0,1,5.565-5.565h12.633A5.565,5.565,0,0,0,998.289,478.616Z" transform="translate(-552.259 -410.501)" fill="#e0e2e2"/>
  <g id="Group_4859" data-name="Group 4859" transform="translate(271.813)">
    <path id="Path_2969" data-name="Path 2969" d="M749.5,461.97v70.071H730.916s-12.432-44.941-12.739-82.635,0-71.943,0-71.943h27.237Z" transform="translate(-598.3 -228.61)" fill="#bcc5c5"/>
    <path id="Path_2970" data-name="Path 2970" d="M734.125,278.537s16.039,24.075,32.848,25.011,13.816,19.186,4.84,20.083-37.35-7.158-50.513-44.254Z" transform="translate(-631.502 -234.222)" fill="#29292a"/>
    <path id="Path_2971" data-name="Path 2971" d="M731.032,259.376c-12.58-3.912-17.6,4.855-19.419,16.992s-.443,17.334,6.2,18.205c4.722.621,2.5,6.288,3.139,7.941s16.224,3.306,16.224,3.306-3.07-12.28-1.181-18.183S748.734,264.883,731.032,259.376Z" transform="translate(-581.841 -242.059)" fill="#ffdbac"/>
    <path id="Path_2972" data-name="Path 2972" d="M727.442,272.77a33.726,33.726,0,0,1-15.543-3.542c-8.07-4.015-11.613-14.168-9.487-16.057s5.194,0,5.194,0-.708-9.682,4.959-9.446S724,251.755,724,251.755s25.165,3.95,25.165,17.474c0,6.847-2.362,8.737-2.362,8.737s-2.834,14.876-5.667,17.946-8.909-3.208-9.178-9.042S731.456,271.589,727.442,272.77Z" transform="translate(-579.897 -243.721)" fill="#f0c40f"/>
    <path id="Path_2973" data-name="Path 2973" d="M712.557,273.641s1.181-3.543,6.375-1.417-.944,14.168-6.375,11.335Z" transform="translate(-563.595 -240.577)" fill="#ffdbac"/>
    <path id="Path_2974" data-name="Path 2974" d="M739.891,304.671l-2-8.991s-3.916-2.489-12.629-2.282-14.522,7.883-16.182,9.543C709.079,302.941,732.53,302.252,739.891,304.671Z" transform="translate(-578.717 -238.11)" fill="#70c84a"/>
    <path id="Path_2975" data-name="Path 2975" d="M748.357,303.957s5.688,12.737,5.319,33.086-6.66,49.206-11.1,49.206H707.06c-4.44,0-2.22-31.448-2.22-43.657s6.143-33.8,12.706-40.365S748.357,303.957,748.357,303.957Z" transform="translate(-587.183 -237.396)" fill="#29292a"/>
    <path id="Path_2976" data-name="Path 2976" d="M712.073,377.463s18.59,29.494,11.117,47.508c0,0,12.5,58.745,19.748,77.109s11.114,29.961,11.114,29.961H730.373s-21.248-38.66-31.887-67.171-19.513-53.028-21.929-87.406Z" transform="translate(-556.679 -228.61)" fill="#bcc5c5"/>
    <path id="Path_2977" data-name="Path 2977" d="M724.586,516.348s3.525,13.659,2.145,16.418-9.429,2.3-21.159,2.3-19.088.029-25.987.029-7.82-7.219,2.3-9.374,19.023-9.374,19.023-9.374Z" transform="translate(-527.213 -212.917)" fill="#29292a"/>
    <path id="Path_2978" data-name="Path 2978" d="M765.874,516.348s3.009,14.089,2.089,16.418-10.119,2.329-15.639,2.329H722.2c-6.44,0-9.89-4.4,0-7.159s25.092-11.588,25.092-11.588Z" transform="translate(-614.673 -212.917)" fill="#29292a"/>
    <path id="Path_2979" data-name="Path 2979" d="M778.092,260.61c-4.758-2.042-16.843-4.248-18.161.585s.44,10.546,3.075,10.546,11.278,1.438,13.035-.819S780.317,261.563,778.092,260.61Z" transform="translate(-673.892 -229.832)" fill="#ffdbac"/>
    <rect id="Rectangle_1167" data-name="Rectangle 1167" width="8.921" height="12.882" transform="translate(113.828 36.482)" fill="#70c84a"/>
    <path id="Path_2981" data-name="Path 2981" d="M863.981,281.569l-109.363,8.62V247.137l109.363,21.55Z" transform="translate(-747.927 -232.205)" fill="#f0c40f"/>
    <path id="Path_2982" data-name="Path 2982" d="M726.273,266.3s-.393,11.792-4.17,11.681-4.857-11.681-4.857-11.681Z" transform="translate(-574.187 -241.17)" fill="#f0c40f"/>
    <path id="Path_2983" data-name="Path 2983" d="M0,4.412,2.6,8.386,13.5,6.4,12.558,0Z" transform="translate(77.29 54.835) rotate(171)" fill="#70c84a"/>
    <path id="Path_2984" data-name="Path 2984" d="M3.346,1.987S.916,10.3.746,15.288s-2.217,7.943,1.3,7.943,2.963-10.16,3.7-10.622S7,26.188,13.3,27.85s7.962-9.052,7.962-12.932S14.246,0,14.246,0Z" transform="translate(77.026 48.399) rotate(171)" fill="#ffdbac"/>
    <path id="Path_2985" data-name="Path 2985" d="M.508,11.357C-4.4-1.426,27.206-3.969,55.036,6.552S89.655,40.831,89.655,40.831L77.1,45.243S61.485,24.551,47.23,23.528,8.538,32.272.508,11.357Z" transform="translate(159.825 83.103) rotate(171)" fill="#29292a"/>
    <path id="Path_2980" data-name="Path 2980" d="M877.336,296.186h0a4.46,4.46,0,0,0,4.461-4.46v-45.02a4.46,4.46,0,0,0-4.461-4.46h0a4.46,4.46,0,0,0-4.46,4.46v45.02A4.46,4.46,0,0,0,877.336,296.186Z" transform="translate(-872.876 -232.758)" fill="#70c84a"/>
  </g>
  <path id="Path_2987" data-name="Path 2987" d="M505.217,430.63h0a4.73,4.73,0,0,1,4.73-4.73h12.689a4.73,4.73,0,0,0,4.73-4.73h0a4.73,4.73,0,0,1,4.73-4.73h8.354a4.73,4.73,0,0,1,4.73,4.73h0a4.73,4.73,0,0,0,4.73,4.73h8.914a4.73,4.73,0,0,1,4.73,4.73h0a4.73,4.73,0,0,0,4.73,4.73h12.457a4.73,4.73,0,0,1,4.73,4.73h0a4.73,4.73,0,0,1-4.73,4.73h-.92a4.73,4.73,0,0,0-4.73,4.73h0a4.73,4.73,0,0,1-4.73,4.73H530.3a4.73,4.73,0,0,1-4.73-4.73h0a4.73,4.73,0,0,0-4.73-4.73H516.5a4.73,4.73,0,0,0-4.73,4.73h0a4.73,4.73,0,0,1-4.73,4.73h-5.194a4.73,4.73,0,0,1-4.73-4.73h0a4.73,4.73,0,0,0-4.73-4.73h-2.636a4.73,4.73,0,0,1-4.73-4.73h0a4.73,4.73,0,0,1,4.73-4.73h10.737A4.73,4.73,0,0,0,505.217,430.63Zm47.525,9.46h0a4.73,4.73,0,0,0-4.729-4.73H544.1a4.73,4.73,0,0,0-4.73,4.73h0a4.73,4.73,0,0,0,4.73,4.73h3.912A4.73,4.73,0,0,0,552.741,440.09Z" transform="translate(-288.202 -308.793)" fill="#e0e2e2"/>
  <path id="Path_2988" data-name="Path 2988" d="M7.985,3.816A3.9,3.9,0,0,0,3.993,0,3.9,3.9,0,0,0,0,3.816" transform="translate(410.204 46.374) rotate(-171)" fill="#fff"/>
</svg>
