<svg xmlns="http://www.w3.org/2000/svg" xmlns:xlink="http://www.w3.org/1999/xlink" width="719.554" height="627.323" viewBox="0 0 719.554 627.323">
  <defs>
    <filter id="Path_2783" x="0" y="279.688" width="417.167" height="347.636" filterUnits="userSpaceOnUse">
      <feOffset dy="30" input="SourceAlpha"/>
      <feGaussianBlur stdDeviation="33" result="blur"/>
      <feFlood flood-opacity="0.149"/>
      <feComposite operator="in" in2="blur"/>
      <feComposite in="SourceGraphic"/>
    </filter>
    <linearGradient id="linear-gradient" x1="-6.927" y1="3.885" x2="-6.927" y2="3.878" gradientUnits="objectBoundingBox">
      <stop offset="0" stop-color="#e16d62"/>
      <stop offset="1" stop-color="#eceeee"/>
    </linearGradient>
    <filter id="Path_2848" x="60.854" y="11.052" width="463.358" height="413.218" filterUnits="userSpaceOnUse">
      <feOffset dy="30" input="SourceAlpha"/>
      <feGaussianBlur stdDeviation="33" result="blur-2"/>
      <feFlood flood-opacity="0.149"/>
      <feComposite operator="in" in2="blur-2"/>
      <feComposite in="SourceGraphic"/>
    </filter>
    <linearGradient id="linear-gradient-2" y1="0.5" x2="1" gradientUnits="objectBoundingBox">
      <stop offset="0" stop-color="#70c84a"/>
      <stop offset="1" stop-color="#a8bd27"/>
    </linearGradient>
  </defs>
  <g id="Group_4814" data-name="Group 4814" transform="translate(-15213.716 -1332)">
    <path id="Path_2753" data-name="Path 2753" d="M669.639,322.348s9.321-30.957,19.63-21.212S679.83,310.882,669.639,322.348Z" transform="translate(14772.851 1085.899)" fill="#fff"/>
    <path id="Path_2754" data-name="Path 2754" d="M688.86,324.046s26.331-22.932,40.663-11.466S718.138,324.619,688.86,324.046Z" transform="translate(14776.154 1087.641)" fill="#fff"/>
    <path id="Path_2755" data-name="Path 2755" d="M679.249,336.5s25.344-10.826,35.195,6.945S700.7,349.049,679.249,336.5Z" transform="translate(14774.502 1091.744)" fill="#fff"/>
    <path id="Path_2757" data-name="Path 2757" d="M614.286,381.708c36.608,32.319,102.3,67.656,179.57,59.848,86.186-8.707,79.738-62.072,162.761-59.848s68.92-151.754-50.674-124.6c-104.435,23.714-150.994,74.923-225.336,15.537C622.26,226.037,553.728,328.247,614.286,381.708Z" transform="translate(14759.282 1078.104)" fill="#f6f8f8"/>
    <ellipse id="Ellipse_210" data-name="Ellipse 210" cx="37.789" cy="37.789" rx="37.789" ry="37.789" transform="translate(15815.731 1447.415) rotate(-70.607)" fill="#f6f8f8"/>
    <circle id="Ellipse_211" data-name="Ellipse 211" cx="14.317" cy="14.317" r="14.317" transform="translate(15278.251 1418.042)" fill="#f6f8f8"/>
    <path id="Path_2758" data-name="Path 2758" d="M822.493,648.484c-63.779-2.453-355.692,11.21-295.593,31.178,39.73,13.2-44.662,16.216-13.745,26.641s430.15,28.21,373.117,9.812,325.641-14.751,264.315-37.2S956.364,653.633,822.493,648.484Z" transform="translate(14744.751 1145.89)" fill="#f6f8f8"/>
    <path id="Path_2759" data-name="Path 2759" d="M1041.764,643.155c6.388.989,23.486-2.985,13.7-18.755-10.785-17.376,12.265-17.106,13.492-28.586s-6.172-25.176-15.351-26.4-25.129,9.027-17.853,34.343c4.994,17.376-2.57,13.966-5.432,23.95S1037.317,642.466,1041.764,643.155Z" transform="translate(14834.767 1132.328)" fill="#a8bd27"/>
    <path id="Path_2760" data-name="Path 2760" d="M1015.737,633.305l23.83-9.78s-1.357-32.841-27.107-44.187C1012.459,579.339,999.588,604.278,1015.737,633.305Z" transform="translate(14830.949 1134.052)" fill="#70c84a"/>
    <path id="Path_2761" data-name="Path 2761" d="M1050.111,629.138l11.644,21.291s33.744-17.944,33.252-34.844C1095.007,615.585,1073.1,605.7,1050.111,629.138Z" transform="translate(14838.258 1139.927)" fill="#70c84a"/>
    <g id="Group_4811" data-name="Group 4811" transform="translate(15869.293 1713.748)">
      <path id="Path_2762" data-name="Path 2762" d="M1036.279,680.466l-2.446-.188c2.444-32.2,16.387-100.634,16.387-100.634C1050.093,580.324,1038.713,648.4,1036.279,680.466Z" transform="translate(-1033.833 -579.644)" fill="#eceeee"/>
    </g>
    <g id="Group_4812" data-name="Group 4812" transform="translate(15845.033 1720.69)">
      <path id="Path_2763" data-name="Path 2763" d="M1038.153,677.6l-2.448-.163c2.237-33.5-22.339-91.341-22.573-91.866C1013.132,585.567,1040.431,643.491,1038.153,677.6Z" transform="translate(-1013.132 -585.567)" fill="#eceeee"/>
    </g>
    <g id="Group_4813" data-name="Group 4813" transform="translate(15873.328 1760.642)">
      <path id="Path_2764" data-name="Path 2764" d="M1037.325,673.56c-.728-13.2,6.765-26.593,21.67-38.741,11.143-9.085,26.3-15.16,26.3-15.16-.446.2-47.184,23.694-45.524,53.767Z" transform="translate(-1037.277 -619.659)" fill="#eceeee"/>
    </g>
    <path id="Path_2765" data-name="Path 2765" d="M1028.191,678.549c-.434-.217-7.052-37.409-1.073-41.549s2.147,27.407,6.286,29.418,3.219-24.972,9.813-24.972-4.753,37.1-4.753,37.1S1035.244,682.075,1028.191,678.549Z" transform="translate(14833.877 1143.9)" fill="#bcc5c5"/>
    <path id="Path_2766" data-name="Path 2766" d="M1034.877,678.349s4.738-33.342,11.024-34.09-2.147,19.49,0,22.556,1.993-5.863,5.979-4.158-7.36,18.569-7.36,18.569S1038.11,682.83,1034.877,678.349Z" transform="translate(14835.639 1145.209)" fill="#7f8c8d"/>
    <path id="Path_2771" data-name="Path 2771" d="M1012.929,367.031H983.168a46.349,46.349,0,0,0-5.27-12.344l21.155-21.155-15-15h-4.906L963.01,339.579a46.3,46.3,0,0,0-14.294-5.99V312.631H927.5v20.958a46.293,46.293,0,0,0-11.988,4.615l-11.725-11.725-7.945-7.946h-4.906l-10.092,15,18.932,18.932a46.392,46.392,0,0,0-6.728,14.567H866.972v21.21h25.456a46.615,46.615,0,0,0,91.365,0h29.136Z" transform="translate(14806.774 1088.202)" fill="#51a52c"/>
    <path id="Path_2772" data-name="Path 2772" d="M1008.742,367.031h-29.76a46.316,46.316,0,0,0-5.271-12.344l21.155-21.155-15-15-21.045,21.045a46.3,46.3,0,0,0-14.293-5.99V312.631H923.319v20.958a46.29,46.29,0,0,0-11.987,4.615l-11.725-11.725-7.946-7.946-15,15,18.932,18.932a46.387,46.387,0,0,0-6.727,14.567H862.786v21.21h25.456a46.615,46.615,0,0,0,91.365,0h29.135Z" transform="translate(14806.055 1088.202)" fill="#70c84a"/>
    <circle id="Ellipse_212" data-name="Ellipse 212" cx="31.133" cy="31.133" r="31.133" transform="translate(15708.846 1436.039)" fill="#eceeee"/>
    <path id="Path_2773" data-name="Path 2773" d="M955.353,373.318a27.782,27.782,0,0,1-27.179,27.768c-.2.013-.405.013-.614.013a27.787,27.787,0,0,1,0-55.574c.209,0,.417,0,.614.013A27.792,27.792,0,0,1,955.353,373.318Z" transform="translate(14812.414 1093.856)" fill="#51a52c"/>
    <path id="Path_2774" data-name="Path 2774" d="M955.173,373.316a27.18,27.18,0,1,1-27.179-27.78A27.782,27.782,0,0,1,955.173,373.316Z" transform="translate(14812.594 1093.858)" fill="#70c84a"/>
    <path id="Path_2775" data-name="Path 2775" d="M610.674,658.058H945.039a40.591,40.591,0,0,0,38.143-26.708l86.4-237.38a9.918,9.918,0,0,0-9.319-13.311H725.9a40.593,40.593,0,0,0-38.144,26.709l-86.4,237.38A9.918,9.918,0,0,0,610.674,658.058Z" transform="translate(14761.007 1099.896)" fill="#7f8c8d"/>
    <path id="Path_2776" data-name="Path 2776" d="M820.859,608.644h-85.62l8.586,55.194h0l-4.906,6.133-47.426,12.674v6.133h133.64l13.8-24.939Z" transform="translate(14776.607 1139.09)" fill="#7f8c8d"/>
    <path id="Path_2777" data-name="Path 2777" d="M825.184,671.789l-.051,6.133H691.493v-6.133Z" transform="translate(14776.607 1149.945)" fill="#7f8c8d"/>
    <path id="Path_2778" data-name="Path 2778" d="M724.635,608.644l8.586,55.194h97.3l-18.4-55.194Z" transform="translate(14782.305 1139.09)" fill="#7f8c8d"/>
    <path id="Path_2779" data-name="Path 2779" d="M1062.257,393.967,987.267,600l-11.407,31.35a40.609,40.609,0,0,1-38.144,26.714H603.353a9.914,9.914,0,0,1-9.321-13.308L610.319,600l70.108-192.626a40.594,40.594,0,0,1,38.145-26.714h334.363A9.92,9.92,0,0,1,1062.257,393.967Z" transform="translate(14759.748 1099.896)" fill="#bcc5c5"/>
    <path id="Path_2780" data-name="Path 2780" d="M1037.178,404.959l-67.986,185.7L958.85,618.917a36.807,36.807,0,0,1-34.582,24.077H621.131A8.943,8.943,0,0,1,612.679,631l14.767-40.34,63.561-173.618a36.793,36.793,0,0,1,34.583-24.078h303.137A8.948,8.948,0,0,1,1037.178,404.959Z" transform="translate(14762.964 1102.012)" fill="#fff"/>
    <path id="Path_2781" data-name="Path 2781" d="M738.918,655.741l-47.426,18.807H825.184l11.039-18.807Z" transform="translate(14776.607 1147.186)" fill="#bcc5c5"/>
    <path id="Path_2782" data-name="Path 2782" d="M987.267,567.823l-11.407,31.35a40.609,40.609,0,0,1-38.144,26.714H603.353a9.914,9.914,0,0,1-9.321-13.308l16.287-44.755Z" transform="translate(14759.748 1132.072)" fill="#bcc5c5"/>
    <g transform="matrix(1, 0, 0, 1, 15213.72, 1332)" filter="url(#Path_2783)">
      <path id="Path_2783-2" data-name="Path 2783" d="M778.07,551.433l-5.225,13.112-54.47,136.524H558.9l54.482-136.524,5.237-13.112Z" transform="translate(-459.9 -202.75)" fill="#fff"/>
    </g>
    <path id="Path_2784" data-name="Path 2784" d="M626.654,581.4h18.4L604.437,683.2h-18.4Z" transform="translate(14758.479 1134.406)" fill="#26cb6c"/>
    <path id="Path_2785" data-name="Path 2785" d="M642.9,598.141h18.4l-32.785,82.177h-18.4Z" transform="translate(14762.617 1137.284)" fill="#a8bd27"/>
    <path id="Path_2786" data-name="Path 2786" d="M653.267,627.446h18.4l-19.084,47.834h-18.4Z" transform="translate(14766.755 1142.322)" fill="#70c84a"/>
    <path id="Path_2787" data-name="Path 2787" d="M693.976,591.862h18.4L676.653,681.4h-18.4Z" transform="translate(14770.894 1136.205)" fill="#9cc255"/>
    <path id="Path_2317" data-name="Path 2317" d="M852.605,425.605c-11.709,0-24.189,5.845-34.243,16.042-2.533,2.387-6.131,2.75-8.034.81a3.845,3.845,0,0,1-.607-.81c-4.964-10.2-14.531-16.042-26.238-16.042-19.3,0-43.272,16.089-49.988,43.027-3.342,13.4,1.125,28.538,8.992,42.956.307.556.612,1.113.93,1.669.551.972,1.133,1.929,1.712,2.9,11.78,19.41,28.29,35.655,34.235,41.2.716.651,1.45,1.346,2.138,1.961l.04.033c1.543,1.361,4.088,1.361,6.311,0l.051-.033c1-.615,2.08-1.31,3.122-1.961,8.711-5.55,33.317-21.8,54.781-41.2,1.057-.968,2.121-1.925,3.157-2.9.595-.556,1.178-1.113,1.76-1.669,12.735-12.195,23.28-24.9,28.25-36.647.113-.281.222-.559.333-.839a42.064,42.064,0,0,0,1.831-5.471C887.855,441.694,871.906,425.605,852.605,425.605Z" transform="translate(14780.626 1104.313)" fill="url(#linear-gradient)"/>
    <path id="Path_2788" data-name="Path 2788" d="M770.078,551.433l-5.225,13.112H605.392l5.237-13.112Z" transform="translate(14761.806 1129.255)" fill="#eceeee"/>
    <path id="Path_2789" data-name="Path 2789" d="M522.58,482.42a33.226,33.226,0,0,0,5.315,23.1l-18.78,10.2s-13.314-13.586-7.021-37.9Z" transform="translate(14743.757 1116.599)" fill="#bcc5c5"/>
    <path id="Path_2790" data-name="Path 2790" d="M570.613,608.761,505.2,513.91s3.475-22.385,23.712-13.083l71.026,105.752Z" transform="translate(14744.581 1120.166)" fill="#7f8c8d"/>
    <path id="Path_2791" data-name="Path 2791" d="M531.712,408.561s8.739-18.4,34.189-22.538l4.139,21.216s-19.164,2.088-21.924,13.434Z" transform="translate(14749.139 1100.818)" fill="#bcc5c5"/>
    <path id="Path_2792" data-name="Path 2792" d="M558.084,601.382s.524,7.864,10.8,7.864,10.579-7.864,10.579-7.864l-2.606-4.861Z" transform="translate(14753.673 1137.006)" fill="#7f8c8d"/>
    <path id="Path_2793" data-name="Path 2793" d="M529.88,587.826h90.3v2.343a4.474,4.474,0,0,1-4.474,4.473H534.354a4.474,4.474,0,0,1-4.474-4.473Z" transform="translate(14748.824 1135.511)" fill="#7f8c8d"/>
    <path id="Path_2794" data-name="Path 2794" d="M535.113,593.642l3.529,3.529A16.065,16.065,0,0,0,550,601.877h49.263a16.063,16.063,0,0,0,11.846-5.213l2.652-2.893Z" transform="translate(14749.724 1136.511)" fill="#bcc5c5"/>
    <path id="Path_2795" data-name="Path 2795" d="M555.717,416.361s.409-15.371-20.442-13.432c0,0-24.123,42.822-36.183,87.794,0,0,8.789,14.309,25.552,5.928Z" transform="translate(14743.531 1103.696)" fill="#7f8c8d"/>
    <path id="Path_2796" data-name="Path 2796" d="M560.5,385.676s-10.425,13.121,4.033,26.243c0,0,43.756-9.812,86.07-10.677l-2.646-25.835S602.2,376.6,560.5,385.676Z" transform="translate(14753.464 1098.994)" fill="#7f8c8d"/>
    <path id="Path_2801" data-name="Path 2801" d="M971.624,441.61c1.085-.2,7.526-2,13.348,5.693,5.877,7.767,12.93,17.682,14.157,22.282s-7.564,19.727-20.238,28.823l3.68-20.238s3.986-2.862,3.884-4.7-6.747-11.242-6.747-11.242Z" transform="translate(14824.765 1110.319)" fill="#29292a"/>
    <g id="Group_4815" data-name="Group 4815" transform="translate(-6)">
      <path id="Path_2797" data-name="Path 2797" d="M951.4,527.932h49.674v-3.4a10.623,10.623,0,0,0-10.622-10.623H962.02A10.623,10.623,0,0,0,951.4,524.534Z" transform="translate(14841.288 1122.804)" fill="#bcc5c5"/>
      <path id="Path_2798" data-name="Path 2798" d="M984.148,516.97l-17.11-.038s-27.463-3.765-28.383-1.986-1.643,40.168-1.643,40.168l-.012.012c-.43.381-10.683,9.3-18.889.491,0,0-.822-40.978,1.018-43.947s61.731-15.539,61.731-15.539,8.278,2.76,7.776,5.727C988.636,501.858,990.44,511,984.148,516.97Z" transform="translate(14835.534 1119.747)" fill="#7f8c8d"/>
      <path id="Path_2799" data-name="Path 2799" d="M952,495.26s-28.768.594-34.175,3.887-27.483,57.873-27.483,57.873,6.337,8.178,15.74,5.725c-.409-1.431,21.669-44.768,23.918-45.382s45.585,0,45.585,0,9.628-.163,14.309-18.806C989.9,498.557,964.6,490.942,952,495.26Z" transform="translate(14830.793 1119.37)" fill="#7f8c8d"/>
      <rect id="Rectangle_949" data-name="Rectangle 949" width="192.231" height="21.984" transform="matrix(0.965, -0.261, 0.261, 0.965, 15671.104, 1600.727)" fill="#7f8c8d"/>
      <path id="Path_2800" data-name="Path 2800" d="M1011.071,422.557l31.568-8.529,3.393,12.556-22.575,6.1-7.308,11.645,4.873,18.035,12.375,7.11,22.575-6.1,3.392,12.556-31.568,8.529L1006.96,472.5l-8.2-30.334Z" transform="translate(14849.431 1105.633)" fill="#7f8c8d"/>
      <path id="Path_2802" data-name="Path 2802" d="M839.842,468.333l-31.568,8.529,3.393,12.556,22.575-6.1,12.178,6.38,4.873,18.035-7.11,12.375-22.575,6.1L825,538.764l31.568-8.529,11.976-20.829-8.2-30.334Z" transform="translate(14816.684 1114.969)" fill="#7f8c8d"/>
      <path id="Path_2803" data-name="Path 2803" d="M962.72,443.727l-12.13,3.532-1.287.381c-2.38-7.126-7.544-6.219-7.544-6.219l.981-4.415.81-3.619,16.4,4.207Z" transform="translate(14839.631 1108.961)" fill="#ffdbac"/>
      <path id="Path_2805" data-name="Path 2805" d="M946.651,450.89s-.946-5.492,3.24-7.513c4.638-2.238,14.705-5.059,15.523,2.4Z" transform="translate(14840.456 1110.259)" fill="#70c84a"/>
      <path id="Path_2806" data-name="Path 2806" d="M984.585,502.284,958.2,503.572l-14.988.723s-2.037-8.083-1.681-23.671a199.722,199.722,0,0,1,2.576-27.094s1.042-3.067,6.647-4.808,25.132-7.261,27.486-7.36S996.85,462.214,984.585,502.284Z" transform="translate(14839.585 1110.332)" fill="#29292a"/>
      <path id="Path_2808" data-name="Path 2808" d="M942.96,495.552s18.985-2.939,22.87-3.245,17.58.511,18.5,1.226,1.635,7.258,0,8.994C984.33,502.527,978.145,496.548,942.96,495.552Z" transform="translate(14839.837 1119.079)" fill="#70c84a"/>
      <path id="Path_2809" data-name="Path 2809" d="M908.673,486.787l-8,2.161s4.86,4.645,9.46,4.609,6.706-8.977,6.706-8.977Z" transform="translate(14832.568 1117.762)" fill="#ffdbac"/>
      <path id="Path_2810" data-name="Path 2810" d="M909.331,486.222s-2.248,3.179,0,8.494h4.6s-2.015-6.315.806-9.954Z" transform="translate(14833.885 1117.793)" fill="#70c84a"/>
      <path id="Path_2811" data-name="Path 2811" d="M913.323,500.455a3.305,3.305,0,0,0,3.322,1.61c2.529-.128,27.354-2.306,35.255-9.454,4.293-3.885,6.347-29.643,6.8-33.347s-4.7-9.505-9.505-7.462-5.425,27.937-8.431,31.5-22.845,5.4-22.845,5.4l-3.793,1.8S909.643,493.5,913.323,500.455Z" transform="translate(14834.493 1112.054)" fill="#29292a"/>
      <path id="Path_2813" data-name="Path 2813" d="M896.22,548.551s-5.622,8.483-9.812,10.528-11.038,2.044-12.981,5.928c0,0,9.3,3.68,17.887,3.271s16.252-1.635,16.661-2.351-2.249-15.945-2.249-15.945Z" transform="translate(14827.884 1128.759)" fill="#29292a"/>
      <path id="Path_2814" data-name="Path 2814" d="M929.223,568.665a39.865,39.865,0,0,1-11.271.012,12.019,12.019,0,0,1-3.557-.932c-2.343-1.227-3.067-2.76-1.116-3.274s6.328-5.213,8.278-7.862c.822-1.129,1.19-3.631,1.337-6.146.1-1.766.086-3.532.061-4.845,3.177-1.5,7.69-3.2,10.953-2.832,1.117,1.569,2.466,3.434,3.533,4.784.27.331.515.638.735.894a3.249,3.249,0,0,1,.246.271,1.7,1.7,0,0,1,.331,1.066C939.109,554.131,933.553,567.917,929.223,568.665Z" transform="translate(14834.541 1127.759)" fill="#29292a"/>
      <path id="Path_2815" data-name="Path 2815" d="M928.372,568.022a39.865,39.865,0,0,1-11.271.012c6.709-2.231,7.322-17.416,12.6-20.348,4.342-2.415,6.869-.588,7.628.135a3.237,3.237,0,0,1,.246.271l.331,1.066C938.259,553.488,932.7,567.274,928.372,568.022Z" transform="translate(14835.392 1128.402)" fill="#29292a"/>
      <path id="Path_2816" data-name="Path 2816" d="M931.513,527.932h49.674v-3.4a10.623,10.623,0,0,0-10.622-10.623H942.135a10.623,10.623,0,0,0-10.622,10.623Z" transform="translate(14835.869 1122.804)" fill="#bcc5c5"/>
      <path id="Path_2817" data-name="Path 2817" d="M942.738,700.654h0a2.452,2.452,0,0,0,2.835-2l2.27-13.2.846-4.906,1.889-11.039.846-4.906,1.9-11.038.846-4.907,1.889-11.038.846-4.907,2.109-12.265.846-4.906,2.109-12.265.847-4.906,2.318-13.492.833-4.906,2.331-13.492.834-4.906,2.318-13.492.846-4.906,2.978-17.307H970.3l-2.971,17.307-.846,4.906-2.318,13.492-.846,4.906L961,579.977l-.846,4.906-2.319,13.492-.846,4.906-2.109,12.265-.846,4.906-2.109,12.265-.834,4.907-1.9,11.038-.846,4.907-1.9,11.038-.834,4.906-1.9,11.039-.847,4.906-2.124,12.365A2.451,2.451,0,0,0,942.738,700.654Z" transform="translate(14839.449 1124.861)" fill="#bcc5c5"/>
      <path id="Path_2818" data-name="Path 2818" d="M919.713,700.654h0a2.451,2.451,0,0,0,2.834-2l2.27-13.2.847-4.906,1.888-11.039.847-4.906,1.9-11.038.846-4.907,1.889-11.038.846-4.907,2.109-12.265.846-4.906,2.109-12.265.846-4.906,2.319-13.492.833-4.906,2.331-13.492.833-4.906,2.318-13.492.847-4.906,2.978-17.307h-4.976l-2.97,17.307-.846,4.906-5.483,31.89-.846,4.906-5.274,30.663-.846,4.906L928.9,632.717l-.834,4.907-1.9,11.038-.846,4.907-1.9,11.038-.833,4.906-1.9,11.039-.846,4.906-2.123,12.365A2.451,2.451,0,0,0,919.713,700.654Z" transform="translate(14835.491 1124.861)" fill="#bcc5c5"/>
      <path id="Path_2819" data-name="Path 2819" d="M934.277,576.947h31.963l.834-4.906H935.124Z" transform="translate(14838.345 1132.797)" fill="#bcc5c5"/>
      <path id="Path_2820" data-name="Path 2820" d="M926.543,621.95h31.951l.846-4.906H927.377Z" transform="translate(14837.016 1140.534)" fill="#bcc5c5"/>
      <path id="Path_2821" data-name="Path 2821" d="M991.757,700.654h0a2.452,2.452,0,0,1-2.834-2l-2.27-13.2-.846-4.906-1.889-11.039-.846-4.906-1.9-11.038-.846-4.907-1.889-11.038-.846-4.907-2.109-12.265-.846-4.906-2.109-12.265-.846-4.906-2.318-13.492-.834-4.906-2.331-13.492-.833-4.906-2.318-13.492-.847-4.906-2.978-17.307h4.976l2.97,17.307.846,4.906,2.318,13.492.847,4.906,2.318,13.492.846,4.906,2.318,13.492.846,4.906,2.109,12.265.846,4.906,2.109,12.265.834,4.907,1.9,11.038.847,4.907,1.9,11.038.833,4.906,1.9,11.039.846,4.906,2.124,12.365A2.451,2.451,0,0,1,991.757,700.654Z" transform="translate(14842.633 1124.861)" fill="#7f8c8d"/>
      <path id="Path_2822" data-name="Path 2822" d="M1014.782,700.654h0a2.452,2.452,0,0,1-2.834-2l-2.27-13.2-.846-4.906-1.889-11.039-.846-4.906-1.9-11.038-.847-4.907-1.888-11.038-.847-4.907L998.5,620.452l-.846-4.906-2.109-12.265-.846-4.906-2.318-13.492-.834-4.906-2.33-13.492-.834-4.906-2.318-13.492-.846-4.906-2.979-17.307h4.976l2.97,17.307.847,4.906,5.482,31.89.846,4.906,5.274,30.663.847,4.906,2.109,12.265.833,4.907,1.9,11.038.846,4.907,1.9,11.038.834,4.906,1.9,11.039.846,4.906,2.125,12.365A2.453,2.453,0,0,1,1014.782,700.654Z" transform="translate(14846.591 1124.861)" fill="#7f8c8d"/>
      <path id="Path_2823" data-name="Path 2823" d="M994.557,545.549H962.606l-.846-4.906H993.71Z" transform="translate(14843.069 1127.4)" fill="#7f8c8d"/>
      <path id="Path_2824" data-name="Path 2824" d="M996.374,556.342v4.906h-31.08l-.834-4.906Z" transform="translate(14843.533 1130.098)" fill="#7f8c8d"/>
      <path id="Path_2825" data-name="Path 2825" d="M999.957,576.947H967.994l-.834-4.906h31.951Z" transform="translate(14843.998 1132.797)" fill="#7f8c8d"/>
      <path id="Path_2826" data-name="Path 2826" d="M1001.58,587.74v4.906H970.7l-.846-4.906Z" transform="translate(14844.46 1135.496)" fill="#7f8c8d"/>
      <path id="Path_2827" data-name="Path 2827" d="M1005.181,607.3H973.218l-.846-4.906h31.963Z" transform="translate(14844.894 1138.015)" fill="#7f8c8d"/>
      <path id="Path_2828" data-name="Path 2828" d="M1007.691,621.95H975.741l-.846-4.906h31.963Z" transform="translate(14845.327 1140.534)" fill="#7f8c8d"/>
      <path id="Path_2829" data-name="Path 2829" d="M1010.038,635.556H978.075l-.846-4.906h31.963Z" transform="translate(14845.729 1142.873)" fill="#7f8c8d"/>
      <path id="Path_2830" data-name="Path 2830" d="M1012.37,649.162H980.419l-.846-4.906h31.963Z" transform="translate(14846.132 1145.212)" fill="#7f8c8d"/>
      <path id="Path_2831" data-name="Path 2831" d="M1014.716,662.768H982.753l-.846-4.906h31.963Z" transform="translate(14846.533 1147.551)" fill="#7f8c8d"/>
      <path id="Path_2832" data-name="Path 2832" d="M940.943,421.714s-5.807,10.346-2.76,21.772c.613,2.3,7.36.05,7.9-.92.371-.672,2.837-5.9,2.837-5.9l9.812-.844.459-13.415-14.259-4.983S941.71,418.955,940.943,421.714Z" transform="translate(14838.864 1106.216)" fill="#ffdbac"/>
      <path id="Path_2833" data-name="Path 2833" d="M944.993,432.825s.291-3.934,3.109-2.912.928,8.278-2.445,7.819l3.423,1.942s2.965.1,4.242,1.84,5.585,3.491,8.72,2.359l2.523-3.74-1.227-17.273L948.1,415.808l-4.438,1.022s-5.983,2.058-5.52,6.337S942.965,425.019,944.993,432.825Z" transform="translate(14839.005 1105.939)" fill="#29292a"/>
      <path id="Path_2834" data-name="Path 2834" d="M940.6,413.716s-.818-1.533-3.117-.563c0,0,9.046,23.458,30.2,30,0,0,1.226-1.226-.205-3.014,0,0,8.163-13.516.409-24.045C958.184,402.907,940.6,413.716,940.6,413.716Z" transform="translate(14838.896 1104.862)" fill="#f0c40f"/>
    </g>
    <path id="Path_2835" data-name="Path 2835" d="M592.948,574.8s.92,8.891,5.315,10.731,5.213,2.658,5.213,4.089c0,0-27.239.563-27.8,0s6.133-14.105,6.133-14.105Z" transform="translate(14756.69 1134.444)" fill="#29292a"/>
    <path id="Path_2836" data-name="Path 2836" d="M558.126,571.925s-1.993,7.206.766,9.736,7.359,3.756,9.046,5.442a6.459,6.459,0,0,1,1.916,3.265s-27.826.429-28.133,0,5.289-17.6,5.289-17.6Z" transform="translate(14750.857 1132.777)" fill="#29292a"/>
    <path id="Path_2837" data-name="Path 2837" d="M544.278,587.8s2.907,5.29,14.406.844c0,0,12.415-28.31,15.636-34.443s2.146-33.269,2.146-33.269l-9.766-31.43-19.824,2.453s-3.373,22.691,7.36,25.143c0,0,6.917,26.37,5.374,32.656S544.278,587.8,544.278,587.8Z" transform="translate(14751.299 1118.609)" fill="#bcc5c5"/>
    <path id="Path_2838" data-name="Path 2838" d="M582.976,591.563s5.794,4.915,15.4,1.672c0,0,9.72-44.564,10.276-50.39s-26.427-41.292-26.427-41.292l2.147-7.667-28.925-1.329s-3.218,12.522,4.165,20.341,32.835,30.356,32.222,36.182S582.976,591.563,582.976,591.563Z" transform="translate(14753.1 1119.133)" fill="#bcc5c5"/>
    <path id="Path_2839" data-name="Path 2839" d="M611.99,442.277a16.209,16.209,0,0,0,3.5-1.968c.613-.715.868-10.477,1.788-10.936s1.943,6.644,2.658,6.848,6.849-4.854,7.615-4.293,5.059,10.732,4.293,12.215-11.959,3.475-13.083,4.293-3.526,2.351-3.526,2.351S611.146,449.968,611.99,442.277Z" transform="translate(14762.92 1108.267)" fill="#ffdbac"/>
    <path id="Path_2840" data-name="Path 2840" d="M613.688,438.179s6.133,4.957,5.366,12.163l-3.935,2.2s-1.38-10.834-6.133-11.908Z" transform="translate(14762.423 1109.785)" fill="#70c84a"/>
    <path id="Path_2841" data-name="Path 2841" d="M613.274,440.337a6.444,6.444,0,0,0-5.213.205c-2.913,1.328-24.02,12.725-24.02,12.725l8.213,18.091s23.676-13.952,25.286-14.948,1.866-4.165,1.866-4.165S622.039,440.593,613.274,440.337Z" transform="translate(14758.135 1110.079)" fill="#29292a"/>
    <path id="Path_2842" data-name="Path 2842" d="M593.5,425.046l-.086,2.33-.221,6.635s-3.213-2.2-4.943.282a18.023,18.023,0,0,0-2.256,4.122l-2.367-.393L568.7,435.581l6.6-8.475Z" transform="translate(14755.497 1107.527)" fill="#ffdbac"/>
    <path id="Path_2844" data-name="Path 2844" d="M599.813,452.574c-.466,2.4-1.5,7.151-2.711,12.671-2.76,12.449-6.538,28.761-7.225,30.405a7.77,7.77,0,0,1-3.127,3.532L573.6,497.992l-26.039-2.343a9.66,9.66,0,0,1-2.6-9.2c1.386-5.666,12.057-41.125,15.234-45.43,3.409-4.623,6.869-4.293,9.26-4.181s20.838.711,24.248,3.373S601.334,444.749,599.813,452.574Z" transform="translate(14751.367 1109.545)" fill="#29292a"/>
    <path id="Path_2846" data-name="Path 2846" d="M565.9,437.541s-.846-6.3,9.4-4.56c12.98,2.209,14.109,6.3,14.927,7.933a14.339,14.339,0,0,0-9.919-.818C576.175,441.424,565.715,439.279,565.9,437.541Z" transform="translate(14755.014 1108.839)" fill="#70c84a"/>
    <path id="Path_2847" data-name="Path 2847" d="M546,485.3s24.291,5.19,42.251,4.524c0,0,1.324,4.853-1.895,7.459,0,0-26.3,3.013-39.556-4.6C542.66,490.305,546,485.3,546,485.3Z" transform="translate(14751.376 1117.885)" fill="#70c84a"/>
    <g transform="matrix(1, 0, 0, 1, 15213.72, 1332)" filter="url(#Path_2848)">
      <path id="Path_2848-2" data-name="Path 2848" d="M841.984,330.357l33.922,144.82a10.573,10.573,0,0,1-7.882,12.706l-210.3,49.259a10.562,10.562,0,0,1-12.693-7.885L611.11,384.436a10.552,10.552,0,0,1,7.873-12.689l210.3-49.26A10.563,10.563,0,0,1,841.984,330.357Z" transform="translate(-450.98 -242.15)" fill="#fff"/>
    </g>
    <path id="Path_2849" data-name="Path 2849" d="M841.984,330.357l1.46,6.233L612.57,390.671l-1.46-6.235a10.552,10.552,0,0,1,7.873-12.689l210.3-49.26A10.563,10.563,0,0,1,841.984,330.357Z" transform="translate(14762.74 1089.847)" fill="#eceeee"/>
    <path id="Path_2850" data-name="Path 2850" d="M803.844,355.382,657.355,389.694a1.838,1.838,0,0,1-2.21-1.371h0a1.84,1.84,0,0,1,1.371-2.211L803.005,351.8a1.838,1.838,0,0,1,2.21,1.371h0A1.84,1.84,0,0,1,803.844,355.382Z" transform="translate(14770.351 1094.927)" fill="#eceeee"/>
    <path id="Path_2851" data-name="Path 2851" d="M810.266,366.591,637.9,406.964a1.838,1.838,0,0,1-2.21-1.372h0a1.839,1.839,0,0,1,1.371-2.21l172.362-40.374a1.839,1.839,0,0,1,2.211,1.371h0A1.84,1.84,0,0,1,810.266,366.591Z" transform="translate(14767.006 1096.854)" fill="#eceeee"/>
    <path id="Path_2852" data-name="Path 2852" d="M812.891,377.8,640.529,418.173a1.84,1.84,0,0,1-2.211-1.371h0a1.841,1.841,0,0,1,1.372-2.211l172.362-40.374a1.84,1.84,0,0,1,2.211,1.371h0A1.841,1.841,0,0,1,812.891,377.8Z" transform="translate(14767.457 1098.781)" fill="#eceeee"/>
    <rect id="Rectangle_950" data-name="Rectangle 950" width="99.246" height="78.497" rx="4.815" transform="matrix(0.974, -0.228, 0.228, 0.974, 15408.712, 1528.121)" fill="#eceeee"/>
    <path id="Path_2853" data-name="Path 2853" d="M774.257,437.508l25.675-6.014a4.754,4.754,0,0,1,5.712,3.544h0a4.754,4.754,0,0,1-3.544,5.712l-25.676,6.014a4.753,4.753,0,0,1-5.712-3.544h0A4.753,4.753,0,0,1,774.257,437.508Z" transform="translate(14790.204 1108.614)" fill="url(#linear-gradient-2)"/>
    <path id="Path_2854" data-name="Path 2854" d="M624.009,474.088s5.059-6.286,6.133-7.36,1.379.537.843,2.07-1.686,3.45-.92,3.68a16.84,16.84,0,0,0,4.37.076c.537-.154,7.743-5.519,8.278-4.676s-2.682,15.332-4.139,16.175-13.339,1-13.339,1Z" transform="translate(14765.006 1114.633)" fill="#ffdbac"/>
    <path id="Path_2855" data-name="Path 2855" d="M625.786,471.664s2.913,5.042.566,14.481l-3.676.565s2.727-8.932-1.872-13.838Z" transform="translate(14764.455 1115.541)" fill="#70c84a"/>
    <path id="Path_2856" data-name="Path 2856" d="M629.068,478.1s-1.222-1.15-5.042-.537-15.2,3.794-17.643-.672-11-28.831-12.907-32.249-6.264-4.488-10.694-2.189-6.721,6.133-2.9,16.175,15.356,33.027,20.551,35.324c6.535,2.891,24.2.522,26.689.093,3.781-.652,3.812-2.107,3.812-2.107S635.789,484.158,629.068,478.1Z" transform="translate(14757.087 1110.31)" fill="#29292a"/>
    <path id="Path_2857" data-name="Path 2857" d="M595.779,417.563s.657,6.171-.378,10.234-3.027,7.9-3.679,8.317-5.29-8.471-5.29-8.471l-6.707-7.014s.536-6.133.728-6.21S595.161,413.922,595.779,417.563Z" transform="translate(14757.393 1105.691)" fill="#ffdbac"/>
    <path id="Path_2858" data-name="Path 2858" d="M590.987,423.026s-.728-2.606-2.529-1.648c-2.426,1.29-.23,6.017,2.031,6.133A55.959,55.959,0,0,1,585.011,431c-.766.191-3.147-.307-6.059.115s-5.869.7-5.869.7-1.835-1.543-1.8-2.693,2.569-4.829,3.182-6.477,9.237-12.841,13.645-11.652,9.927,3.6,10.579,6.708S592.789,420,590.987,423.026Z" transform="translate(14755.942 1105.096)" fill="#29292a"/>
    <path id="Path_2859" data-name="Path 2859" d="M568.709,425.609a2.117,2.117,0,0,0,2.184,1.725c2.529,0,28.261-9.161,28.925-9.518a2.138,2.138,0,0,0,1.125-2.453c-.359-1.175-1.414-1.636-3.059-1.381,0,0-1.695-13.244-16.873-9.027-14.268,3.963-9.9,17.888-9.9,17.888S568.287,423.731,568.709,425.609Z" transform="translate(14755.492 1103.931)" fill="#f0c40f"/>
    <ellipse id="Ellipse_204" data-name="Ellipse 204" cx="2.53" cy="2.521" rx="2.53" ry="2.521" transform="matrix(0.978, -0.208, 0.208, 0.978, 15389.504, 1466.305)" fill="#efc30f"/>
    <ellipse id="Ellipse_207" data-name="Ellipse 207" cx="2.53" cy="2.521" rx="2.53" ry="2.521" transform="matrix(0.978, -0.208, 0.208, 0.978, 15381.321, 1468.045)" fill="#da4e41"/>
    <ellipse id="Ellipse_208" data-name="Ellipse 208" cx="2.53" cy="2.521" rx="2.53" ry="2.521" transform="matrix(0.978, -0.208, 0.208, 0.978, 15398.078, 1464.483)" fill="#70c84a"/>
  </g>
</svg>
