<svg xmlns="http://www.w3.org/2000/svg" xmlns:xlink="http://www.w3.org/1999/xlink" width="588.001" height="464.379" viewBox="0 0 588.001 464.379">
  <defs>
    <filter id="Union_208" x="59.241" y="45.5" width="484.649" height="414.452" filterUnits="userSpaceOnUse">
      <feOffset dy="30" input="SourceAlpha"/>
      <feGaussianBlur stdDeviation="33" result="blur"/>
      <feFlood flood-color="#29292a" flood-opacity="0.149"/>
      <feComposite operator="in" in2="blur"/>
      <feComposite in="SourceGraphic"/>
    </filter>
    <linearGradient id="linear-gradient" x1="0.5" x2="0.5" y2="1" gradientUnits="objectBoundingBox">
      <stop offset="0" stop-color="#70c84a"/>
      <stop offset="1" stop-color="#a8bd27"/>
    </linearGradient>
    <filter id="Path_3187" x="286.745" y="162.366" width="198.99" height="83.727" filterUnits="userSpaceOnUse">
      <feOffset dy="10" input="SourceAlpha"/>
      <feGaussianBlur stdDeviation="5" result="blur-2"/>
      <feFlood flood-opacity="0.051"/>
      <feComposite operator="in" in2="blur-2"/>
      <feComposite in="SourceGraphic"/>
    </filter>
    <linearGradient id="linear-gradient-2" x1="0.178" y1="0.08" x2="0.89" y2="0.621" xlink:href="#linear-gradient"/>
  </defs>
  <g id="Group_4934" data-name="Group 4934" transform="translate(-16575 -1864)">
    <g id="BG" transform="translate(16076.582 1615.983)">
      <ellipse id="Ellipse_222" data-name="Ellipse 222" cx="55.586" cy="13.993" rx="55.586" ry="13.993" transform="translate(512.005 672.489)" fill="#f6f8f8"/>
      <ellipse id="Ellipse_224" data-name="Ellipse 224" cx="44.329" cy="11.159" rx="44.329" ry="11.159" transform="translate(954.312 690.078)" fill="#f6f8f8"/>
      <path id="Path_3174" data-name="Path 3174" d="M1060.062,557.975c-40.084,28.276-103.108-30.333-154.262,2.345S623.424,666.743,563.278,611.971c-47.587-43.334-11.654-111.188,33.3-135.9,68.718-37.8,109.393-130.155,153.758-177.457,9.369,8.161,18.444,20.435,26.442,38.357,0,0,1.208-20.4-17.073-47.6,1.73-1.6,3.525-3.1,5.288-4.505,50.5-40.284,139.2-55.5,193.879-4.375.848.784,1.664,1.567,2.481,2.351-4.669,18.314-19.979,38-61.34,46.225,0,0,34.244,9.924,82-25.528,30.751,33.1,32.579,48.249,69.6,92.418C1096.24,449.171,1096.738,532.1,1060.062,557.975Z" fill="#f5f7f6"/>
    </g>
    <g transform="matrix(1, 0, 0, 1, 16575, 1864)" filter="url(#Union_208)">
      <path id="Union_208-2" data-name="Union 208" d="M15.938,215.452A15.911,15.911,0,0,1,.007,199.521V25.039H0V15.931A15.911,15.911,0,0,1,15.932,0H269.714a15.911,15.911,0,0,1,15.931,15.931v9.1h.005V199.521a15.911,15.911,0,0,1-15.93,15.931Z" transform="translate(158.74 115)" fill="#fff" stroke="rgba(0,0,0,0)" stroke-width="1"/>
    </g>
    <path id="Path_3246" data-name="Path 3246" d="M942.8,378.5v9.108H657.159V378.5a15.911,15.911,0,0,1,15.931-15.931H926.872A15.911,15.911,0,0,1,942.8,378.5Z" transform="translate(16076.582 1616.431)" fill="#eceeee"/>
    <path id="Path_3183" data-name="Path 3183" d="M684.952,375.089a4.4,4.4,0,1,1-4.4-4.4A4.4,4.4,0,0,1,684.952,375.089Z" transform="translate(16074.582 1616.308)" fill="#da4e41"/>
    <path id="Path_3184" data-name="Path 3184" d="M699.914,375.089a4.4,4.4,0,1,1-4.4-4.4A4.4,4.4,0,0,1,699.914,375.089Z" transform="translate(16074.582 1616.308)" fill="#efc30f"/>
    <rect id="Rectangle_1214" data-name="Rectangle 1214" width="57.36" height="57.36" rx="4.398" transform="translate(16769 2028)" fill="url(#linear-gradient)"/>
    <path id="Path_3185" data-name="Path 3185" d="M743.635,462.133a3.594,3.594,0,0,1-2.066.654H701.031a3.533,3.533,0,0,1-2.086-.674,22.529,22.529,0,0,1,14.849-18.286,14.7,14.7,0,1,1,14.992,0A22.494,22.494,0,0,1,743.635,462.133Z" transform="translate(16077.056 1623.499)" fill="#fff"/>
    <rect id="Rectangle_1215" data-name="Rectangle 1215" width="74.499" height="18.141" rx="4.666" transform="translate(16769.199 2100.289)" fill="#eceeee"/>
    <rect id="Rectangle_1216" data-name="Rectangle 1216" width="207.402" height="49.294" rx="3.992" transform="translate(16769.199 2126.694)" fill="#eceeee"/>
    <g transform="matrix(1, 0, 0, 1, 16575, 1864)" filter="url(#Path_3187)">
      <path id="Path_3187-2" data-name="Path 3187" d="M969.153,420.639v24.712a5.489,5.489,0,0,1-5.713,5.256H826.527l-25.1,18.38a.834.834,0,0,1-1.175-1.078l5.582-17.3h.686a5.489,5.489,0,0,1-5.713-5.256V420.639a5.49,5.49,0,0,1,5.713-5.256H963.44a5.653,5.653,0,0,1,4.962,2.743A4.536,4.536,0,0,1,969.153,420.639Z" transform="translate(-498.42 -248.02)" fill="#eceeee"/>
    </g>
    <path id="Path_3188" data-name="Path 3188" d="M830.565,422.518l2.284,7.029a.5.5,0,0,0,.478.348h7.392a.5.5,0,0,1,.295.91l-5.979,4.344a.5.5,0,0,0-.183.563l2.284,7.029a.5.5,0,0,1-.774.563l-5.98-4.345a.5.5,0,0,0-.591,0l-5.98,4.345a.5.5,0,0,1-.774-.563l2.284-7.029a.5.5,0,0,0-.182-.563l-5.98-4.344a.5.5,0,0,1,.295-.91h7.392a.5.5,0,0,0,.478-.348l2.284-7.029A.5.5,0,0,1,830.565,422.518Z" transform="translate(16076.582 1615.983)" fill="#70c84a"/>
    <path id="Path_3189" data-name="Path 3189" d="M857.588,422.518l2.284,7.029a.5.5,0,0,0,.478.348h7.392a.5.5,0,0,1,.295.91l-5.979,4.344a.5.5,0,0,0-.183.563l2.284,7.029a.5.5,0,0,1-.774.563l-5.98-4.345a.5.5,0,0,0-.591,0l-5.98,4.345a.5.5,0,0,1-.774-.563l2.284-7.029a.5.5,0,0,0-.182-.563l-5.98-4.344a.5.5,0,0,1,.3-.91h7.391a.5.5,0,0,0,.478-.348l2.284-7.029A.5.5,0,0,1,857.588,422.518Z" transform="translate(16076.582 1615.983)" fill="#70c84a"/>
    <path id="Path_3190" data-name="Path 3190" d="M884.611,422.518l2.284,7.029a.5.5,0,0,0,.478.348h7.392a.5.5,0,0,1,.295.91l-5.979,4.344a.5.5,0,0,0-.183.563l2.284,7.029a.5.5,0,0,1-.774.563l-5.98-4.345a.5.5,0,0,0-.591,0l-5.98,4.345a.5.5,0,0,1-.774-.563l2.284-7.029a.5.5,0,0,0-.182-.563l-5.98-4.344a.5.5,0,0,1,.3-.91h7.391a.5.5,0,0,0,.478-.348l2.284-7.029A.5.5,0,0,1,884.611,422.518Z" transform="translate(16076.582 1615.983)" fill="#70c84a"/>
    <path id="Path_3191" data-name="Path 3191" d="M911.634,422.518l2.284,7.029a.5.5,0,0,0,.478.348h7.392a.5.5,0,0,1,.295.91l-5.979,4.344a.5.5,0,0,0-.183.563l2.284,7.029a.5.5,0,0,1-.774.563l-5.98-4.345a.5.5,0,0,0-.591,0l-5.98,4.345a.5.5,0,0,1-.774-.563l2.284-7.029a.5.5,0,0,0-.182-.563l-5.98-4.344a.5.5,0,0,1,.3-.91h7.391a.5.5,0,0,0,.478-.348l2.284-7.029A.5.5,0,0,1,911.634,422.518Z" transform="translate(16076.582 1615.983)" fill="#70c84a"/>
    <g id="Group_4928" data-name="Group 4928" transform="translate(16076.582 1615.983)">
      <path id="Path_3192" data-name="Path 3192" d="M970.287,687.39s-.055,3.933-1.235,5.113,10,2.124,10,2.124-2.729-6.057-1.156-8.5S970.287,687.39,970.287,687.39Z" fill="#ffdbac"/>
      <path id="Path_3193" data-name="Path 3193" d="M954.312,701.237h24.913c1.8-2.6,1.656-5.333,0-8.162a22.305,22.305,0,0,1-11.251-1.7c-3.253,2.684-8.1,4.787-13.662,6.632C952.526,698.753,952.856,699.891,954.312,701.237Z" fill="#29292a"/>
      <rect id="Rectangle_1217" data-name="Rectangle 1217" width="24.953" height="1.068" transform="translate(954.312 701.237)" fill="#29292a"/>
      <g id="Group_4924" data-name="Group 4924">
        <path id="Path_3194" data-name="Path 3194" d="M1024.79,679.937s2.221,3.55,1.924,5.192,9.2-4,9.2-4-6.058-3.27-6.155-6.17S1024.79,679.937,1024.79,679.937Z" fill="#ffdbac"/>
        <path id="Path_3195" data-name="Path 3195" d="M1020.184,699.507l19.662-13.634c0-3.04-1.612-5.116-4.467-6.442a21.421,21.421,0,0,1-9.811,4.815c-1.1,3.9-3.777,8.213-7.153,12.711C1017.415,698.523,1018.3,699.241,1020.184,699.507Z" fill="#29292a"/>
        <rect id="Rectangle_1218" data-name="Rectangle 1218" width="23.965" height="1.026" transform="matrix(0.822, -0.57, 0.57, 0.822, 1020.184, 699.507)" fill="#29292a"/>
      </g>
      <path id="Path_3196" data-name="Path 3196" d="M1033.513,676.943l-9.463,4.185-32.208-68.241,5.979-54.912,25.615,8.843c-.522,11.2-8.956,31.976-14.6,46.069Z" fill="#bcc5c5"/>
      <path id="Path_3197" data-name="Path 3197" d="M979.419,683.856l.151,4.229H969.185l-.377-3.814-.038-.415-7.137-78.522,18.881-49.089,31.946,8.194c-13.141,17.974-22.207,34.438-33.724,45.464l.645,72.858Z" fill="#bcc5c5"/>
      <path id="Path_3198" data-name="Path 3198" d="M1020.608,491.438l-8.722,11.009c-9.2-4.923-15.908-9.137-22.415-16.327-5.472-18.845-9.342-37.19-10.735-54.762l5.475-2.034L996.99,477.7Z" fill="#ffdbac"/>
      <path id="Path_3199" data-name="Path 3199" d="M1029.481,524.483c-.327,1.045-.686,2.089-.98,3.134-.653,2.056-1.273,4.113-1.861,6.2-2.285,12.5-3.264,22.3-2.089,30.85a3.456,3.456,0,0,1-3.721,3.95c-14.593-1.437-26.932-5.386-42.08-10.969.229-.587.49-1.175.686-1.73.816-1.991,1.567-3.917,2.285-5.778,7.508-19.587,10.806-33.363,14.919-50.371.359-1.469.718-3,1.077-4.538h.033c.261-1.077.522-2.155.783-3.264a15.276,15.276,0,0,1,1.4-3.559,13.1,13.1,0,0,1,6.431-5.876c4.048-1.665,7.9-2.024,13.058-2.709,6.758,1.24,10.185-1.143,16.551,7.279C1037.675,499.542,1033.529,511.784,1029.481,524.483Z" fill="#29292a"/>
      <path id="Path_3200" data-name="Path 3200" d="M1011.2,473.4c1.454,4.024.232,6.628-2.124,9.519,0,0,2.718,1.041,11.485-.393a10.669,10.669,0,0,0,4.668-2.2c-2.5-3.2-3.784-7.193-4.589-11.488Z" fill="#ffdbac"/>
      <path id="Path_3201" data-name="Path 3201" d="M1012.623,478.346c5.235,1.623,8.11.423,11.819-2.267,5.258-4.308,7.848-9.119,6.953-14.583-2.649-7.58-8.476-9.99-16.82-8.31C1007.739,462.472,1007.485,475.984,1012.623,478.346Z" fill="#ffdbac"/>
      <path id="Path_3202" data-name="Path 3202" d="M1001,480.037s-6.169,4.7-6.955,8.709,10.935,5.507,11.25,5.428,3.461-8.968,3.461-8.968l-2.188-2.755Z" fill="#29292a"/>
      <path id="Path_3203" data-name="Path 3203" d="M1035.291,521.773a23.247,23.247,0,0,1-7.671,3.2c-2.057.49-3.82-.424-5.158-2.187a.1.1,0,0,1-.033-.065c-3.46-4.668-4.048-15.147-.13-21.872,2.35-4.048,4.7-8.945,1.6-13.842-3.068-4.929-7.54-4.341-2.317-17.008,3.1-7.54.2-7.671.2-7.671s-19.032-2.285-8.586-9.826c9.043-6.529,22.525-5.452,24.875,6.5s-2.905,14.07-1.175,20.109,3.1,3.983,6.3,20.24C1045.509,511.1,1041.168,518.019,1035.291,521.773Z" fill="#f0c40f"/>
      <g id="Group_4925" data-name="Group 4925">
        <path id="Path_3204" data-name="Path 3204" d="M979.985,683.818l-.113,1.246-.189,1.926-.113,1.1H969.185s-1.7-3.776-1.359-3.776h.075c1.058-.038,10.989-.453,12.008-.491Z" fill="#7f8c8d"/>
        <path id="Path_3205" data-name="Path 3205" d="M979.419,683.856c-1.926.075-8.157.3-10.611.415l-.038-.415c2.341-.227,8.685-.869,10.611-1.1Z" fill="#7f8c8d" opacity="0.1"/>
      </g>
      <g id="Group_4926" data-name="Group 4926">
        <path id="Path_3206" data-name="Path 3206" d="M1032.978,674.286l.3,1.214.454,1.881.252,1.072-9.81,3.407s-2.844-3.01-2.523-3.121l.071-.025c.987-.382,10.232-4.033,11.183-4.4Z" fill="#7f8c8d"/>
        <path id="Path_3207" data-name="Path 3207" d="M1032.456,674.507c-1.8.7-7.606,2.962-9.888,3.874l-.172-.38c2.137-.982,7.92-3.67,9.665-4.515Z" fill="#7f8c8d" opacity="0.1"/>
      </g>
      <path id="Path_3208" data-name="Path 3208" d="M969.153,420.639v24.712a5.489,5.489,0,0,1-5.713,5.256h-5.06l-1.6-4.472a1.847,1.847,0,0,0-1.8-1.24l-12.177.424-4.08.13a1.847,1.847,0,0,1-1.208-3.3l5.288-4.113,7.541-5.876a1.844,1.844,0,0,0,.621-2.089l-5.322-14.691h6.595l9.4,6.366a1.861,1.861,0,0,0,2.188-.065l4.57-3.558A4.536,4.536,0,0,1,969.153,420.639Z" fill="#29292a" opacity="0.15"/>
      <g id="Group_4927" data-name="Group 4927">
        <path id="Path_3209" data-name="Path 3209" d="M980.919,410.667l-4.508,15.615a1.845,1.845,0,0,0,.738,2.04l13.458,9.112a1.846,1.846,0,0,1-.974,3.373l-16.244.538a1.846,1.846,0,0,0-1.712,1.333l-4.508,15.614a1.845,1.845,0,0,1-3.508.116l-5.531-15.282a1.846,1.846,0,0,0-1.8-1.216l-16.243.538a1.846,1.846,0,0,1-1.2-3.3l12.825-9.983a1.846,1.846,0,0,0,.6-2.085L946.791,411.8a1.845,1.845,0,0,1,2.77-2.156l13.457,9.112a1.846,1.846,0,0,0,2.169-.072l12.825-9.982A1.845,1.845,0,0,1,980.919,410.667Z" fill="url(#linear-gradient-2)"/>
        <path id="Path_3210" data-name="Path 3210" d="M968.29,433.1a3.875,3.875,0,1,1-1.036-5.381A3.875,3.875,0,0,1,968.29,433.1Z" fill="#fff"/>
      </g>
      <path id="Path_3211" data-name="Path 3211" d="M1014.921,492.132a44.277,44.277,0,0,0-2.71,10.022c-.032.13-.032.294-.065.424a20.662,20.662,0,0,0-.228,2.448s-10.61-3.2-15.278-5.255a9.541,9.541,0,0,1-1.926-1.045c-.62-.718-1.208-1.4-1.8-2.122-.751-.881-1.534-1.8-2.285-2.709a264.663,264.663,0,0,1-28.5-40.48l.457-.457,1.5-1.5,2.154-2.187.294.359,31.5,38.325,1.893.457Z" fill="#ffdbac"/>
      <path id="Path_3212" data-name="Path 3212" d="M966.541,449.628a.6.6,0,0,1-.065.228l-3.82,3.134-.522.425c-1.665-2.024-3.036-3.885-3.264-5.778a6.641,6.641,0,0,1,.2-1.567c.326-1.5.946-3.363,1.436-3.232a10.046,10.046,0,0,0,3.917,3.3l.392-1.273c.294-1.078,1.208-.947,1.567.424C966.672,446.755,967.129,448.257,966.541,449.628Z" fill="#ffdbac"/>
      <path id="Path_3213" data-name="Path 3213" d="M984.211,429.324a8.992,8.992,0,0,1,1.27,4.64,9.273,9.273,0,0,1-6.3-2.32,1.352,1.352,0,0,1,.572-1.559A9.139,9.139,0,0,1,984.211,429.324Z" fill="#fedaab"/>
      <path id="Path_3215" data-name="Path 3215" d="M1029.481,524.483c-.327,1.045-.686,2.089-.98,3.134-3.917-.229-5.81-4.309-6.039-4.832,1.338,1.763,3.1,2.677,5.158,2.187Q1028.55,524.777,1029.481,524.483Z" opacity="0.06"/>
      <path id="Path_3245" data-name="Path 3245" d="M5.73,0A2.8,2.8,0,0,1,2.865,2.738,2.8,2.8,0,0,1,0,0" transform="matrix(0.934, 0.358, -0.358, 0.934, 1011.166, 471.07)" fill="#fff"/>
    </g>
    <g id="Group_4933" data-name="Group 4933" transform="translate(16076.582 1615.983)">
      <path id="Path_3217" data-name="Path 3217" d="M770.737,569.983l-5.653-9.668-25.212-43.262a13.9,13.9,0,0,0-5.332-5.236,14.041,14.041,0,0,0-13.65,0,1.042,1.042,0,0,0-.321.161L691.7,528.808l-3.63,2.12-11.723,1.027-3.436-3.5c.16-.321.224-.545.1-.578l-7.387-9.828a10.081,10.081,0,0,0-1.735-3.982,37.7,37.7,0,0,1,2.409-4.561c2.7,1.221,5.268,2.28,7.291,2.28a3.428,3.428,0,0,0,2.409-.8c5.042-5.4,7.9-11.274,8.64-17.665a2.207,2.207,0,0,0,.706-.9c1.67-4.111.771-10.952-2.087-15.191-4.047,2.762-8.03,2.055-12.655,2.087-6.52.29-11.081,2.152-13.778,5.428-2.152,2.57-3.148,6.006-3.084,10.278a12.229,12.229,0,0,0,3.084,7.323,10.852,10.852,0,0,0,1.22,1.22,4.292,4.292,0,0,1-1.22.707v35.2c1.381-.931,2.826-1.9,4.239-2.955a1.1,1.1,0,0,0,.289-.257c1.06.8,2.12,1.574,2.152,1.606.1.032.321-.064.642-.289,1.927,1.253,3.919,2.537,5.942,3.822l-2.473,1.445a2.786,2.786,0,0,1-.321.225l-10.47-3.276v10.053c.353.1.738.161,1.124.257.931.225,1.83.417,2.794.642l-3.918,6.1v5.524a15.653,15.653,0,0,0,15.673,15.673H772.6A13.959,13.959,0,0,0,770.737,569.983ZM659.642,504.72c.193.128.385.224.578.353.032.032.064.1.129.16Z" fill="#29292a" opacity="0.15"/>
      <path id="Path_3218" data-name="Path 3218" d="M642.271,521.316c3.035,3.326,12.1,9.154,21.142,14.962,8.2.042,37.456-4.751,62.131-8.492l-.784-6.535-56.053,4.96-16.546-16.843C650.49,514.573,645.969,518.673,642.271,521.316Z" fill="#ffdbac"/>
      <g id="Group_4930" data-name="Group 4930">
        <path id="Path_3219" data-name="Path 3219" d="M762.933,578.622l.032.065-9.989,15.384s-1.606-3.822-2.377-6.166l-45.543,26.529a14.122,14.122,0,0,1-19.3-5.107L670.273,582.8l-14.71-25.213a16.291,16.291,0,0,1-1.22,2.12c-.514.289-10.407-.385-10.407-.385,0-.032,0-.065.032-.065l1.8-2.794,9.957-15.545c.289-.385.578-.738.9-1.092l.032-.032a13.118,13.118,0,0,1,3.34-2.7l52.93-30.865a14.078,14.078,0,0,1,19.3,5.075l30.865,52.93A14.08,14.08,0,0,1,762.933,578.622Z" fill="#c9a200"/>
        <path id="Path_3220" data-name="Path 3220" d="M752.976,594.071a14.132,14.132,0,0,1-5.364,5.557l-52.93,30.865a14.159,14.159,0,0,1-19.334-5.107l-15.321-26.3-15.512-26.625a14.037,14.037,0,0,1-.579-13.136c0-.032,0-.065.032-.065a11.845,11.845,0,0,1,1.8-2.794,13.233,13.233,0,0,1,3.822-3.308l17.5-10.213,35.426-20.652a14.121,14.121,0,0,1,19.335,5.075l30.865,52.962A14.156,14.156,0,0,1,752.976,594.071Z" fill="#efc30f"/>
        <path id="Path_2317" data-name="Path 2317" d="M550.122,5975.785a13.807,13.807,0,0,0-11.095,5.885,2.043,2.043,0,0,1-3.17,0,13.8,13.8,0,0,0-11.093-5.885c-7.08,0-14.4,5.9-14.4,15.785,0,4.917,3.023,10.47,7.228,15.759.163.2.326.408.494.613.291.356.592.707.893,1.063A112.175,112.175,0,0,0,535.3,6024.12c.322.238.655.493.964.719l.018.012a1.976,1.976,0,0,0,2.315,0l.016-.012c.311-.226.643-.48.966-.719A112.281,112.281,0,0,0,555.91,6009c.3-.355.6-.706.893-1.062.167-.2.33-.409.494-.613,3.556-4.474,6.262-9.135,7.012-13.443.016-.1.03-.205.045-.308a13.254,13.254,0,0,0,.171-2.007C564.524,5981.688,557.2,5975.785,550.122,5975.785Z" transform="matrix(0.875, -0.485, 0.485, 0.875, -2678.332, -4411.306)" fill="#faedb7" stroke="rgba(0,0,0,0)" stroke-width="1"/>
      </g>
      <path id="Path_3224" data-name="Path 3224" d="M517.936,659.31s-.228.19-.571.456l.533-.57A.294.294,0,0,1,517.936,659.31Z" fill="#edb6a4"/>
      <path id="Path_3225" data-name="Path 3225" d="M563.286,611.982,517.9,659.2l-.533.57-.076.077a16.186,16.186,0,0,0-1.6,1.445,5.874,5.874,0,0,0-1.75,2.7c-.266,1.9-8.864-7.951-8.864-7.951a23.719,23.719,0,0,0,7.076-2.777c14.846-21.233,30.969-45.519,39.567-51.818Z" fill="#ffdbac"/>
      <path id="Path_3226" data-name="Path 3226" d="M517.289,659.843l-1.484,1.521-.114-.076A16.186,16.186,0,0,1,517.289,659.843Z" fill="#edb6a4"/>
      <path id="Path_3227" data-name="Path 3227" d="M598.516,562.675l-10.767,15.447L566.71,608.291l-.38.533-3.044,3.158L551.72,601.443l1.218-1.6c.114-.57.228-1.141.3-1.712,3.8-19.973,7.571-39.528,13.278-47.708l8.446,3.233Z" fill="#bcc5c5"/>
      <path id="Path_3228" data-name="Path 3228" d="M608.483,667.946a15.379,15.379,0,0,0-.342,4.642,3.136,3.136,0,0,0,.342,1.1c.99,1.674-11.908-.419-11.908-.419a10.674,10.674,0,0,0,1.18-1.674c2.292-3.976,7.938-67.154,12.479-67.225l17.5-3.881L608.56,667.566a2.387,2.387,0,0,0-.077.342Z" fill="#ffdbac"/>
      <path id="Path_3229" data-name="Path 3229" d="M600.418,664.56a4.171,4.171,0,0,1-.152,1.9Z" fill="#edb6a4"/>
      <path id="Path_3230" data-name="Path 3230" d="M627.887,600.036l-.153.456-17.5,3.881.19-1.18c-.609-.646-1.218-1.255-1.826-1.9-7.724-7.989-14.952-15.827-20.849-23.169-7.457-9.207-12.821-17.691-14.419-24.882l1.636.418,31.8,8.142,18.262,33.061Z" fill="#bcc5c5"/>
      <path id="Path_3231" data-name="Path 3231" d="M653.443,530.767a142.306,142.306,0,0,1-16.348,10.117c-9.731,5.4-18.211,10.053-25.116,20.588l-.064.1a9.844,9.844,0,0,1-2.762,2.762,8.345,8.345,0,0,1-2.409,1.156,10.357,10.357,0,0,1-1.991.386,42.875,42.875,0,0,1-14.807-1.413c-7.772-2.024-15.223-5.974-23.253-10.664a2.576,2.576,0,0,1-.546-4.014c18.083-18.5,41.689-45.9,70.691-51.453,12.976-1.188,16.091,5.974,19.271,9.764C660.252,513.07,658.678,526.945,653.443,530.767Z" fill="#29292a"/>
      <path id="Path_3232" data-name="Path 3232" d="M691.7,547.276l-.8,2.826v.064l-1.028,3.4c-13.265-3.4-26.4-6.2-36.743-8.576-5.267-1.188-9.8-2.28-13.329-3.276a45.572,45.572,0,0,1-5.2-1.766c-6.07-8.9-9.956-16.252-11.466-20.524,4.432-.963,10.213-2.987,13.778-7.13l8,20.427Z" fill="#ffdbac"/>
      <path id="Path_3233" data-name="Path 3233" d="M655.391,502.244c5,2.245,10.42,5.266,12.983,3q8.617-9.277,8.8-20.485c-3.412-5.458-10.529-8.046-19.008-9.578l-9.393,13.84C649.405,494.174,651.2,498.774,655.391,502.244Z" fill="#ffdbac"/>
      <path id="Path_3234" data-name="Path 3234" d="M568.688,609.775l-4.756,2.777-.647-.571L551.72,601.443l-.647-.571,1.027-3.614,1.142.875,13.468,10.158Z" fill="#7f8c8d"/>
      <path id="Path_3235" data-name="Path 3235" d="M628.761,600.264l-1.027.228-17.5,3.881-.228.038-2.815-2.549,1.408-.571,16.436-6.43.761-.3Z" fill="#7f8c8d"/>
      <g id="Group_4931" data-name="Group 4931">
        <path id="Path_3236" data-name="Path 3236" d="M620.651,686.389l-26.048-6.57c-1.2-3.2-.325-6.013,2.153-8.534a24.041,24.041,0,0,0,12.212,1.189c2.692,3.664,7.211,7.142,12.535,10.537C623.173,684.262,622.528,685.365,620.651,686.389Z" fill="#29292a"/>
        <rect id="Rectangle_1220" data-name="Rectangle 1220" width="26.906" height="1.152" transform="matrix(-0.97, -0.245, 0.245, -0.97, 620.369, 687.506)" fill="#29292a"/>
      </g>
      <g id="Group_4932" data-name="Group 4932">
        <path id="Path_3237" data-name="Path 3237" d="M515.213,681.513l-15.839-21.7c1.122-3.223,3.592-4.833,7.109-5.189a24.04,24.04,0,0,0,8.634,8.717c-.27,4.539.984,10.1,2.91,16.115C518.512,681.489,517.311,681.925,515.213,681.513Z" fill="#29292a"/>
        <rect id="Rectangle_1221" data-name="Rectangle 1221" width="26.906" height="1.152" transform="translate(514.282 682.193) rotate(-126.129)" fill="#29292a"/>
      </g>
      <path id="Path_3238" data-name="Path 3238" d="M665.25,487.684c6.747.8,11.392,1.543,12.47-1.025,1.651-4.1.761-10.933-2.1-15.183-4.041,2.764-8.036,2.066-12.647,2.088-11.645.518-16.985,5.975-16.857,15.714a12.39,12.39,0,0,0,4.289,8.541c1.107,1.082,4.99,3.224,5.163,2.05.026-.178,1.41-4.076-.179-5.815-1.805-1.977-1.676-3.263-1.676-3.263.585-1.884,1.385-2.645,3.449-2.31,1.271.209,2.726,3.326,2.767,5.053,0,0,2.294-.143,1.972-.257C661.041,492.972,664.083,487.388,665.25,487.684Z" fill="#f0c40f"/>
      <path id="Path_3239" data-name="Path 3239" d="M650.408,497.819a7.3,7.3,0,0,1-4.791,1.288c1.382,3.9,5.02,10.476,8.468,11.665,1.724-.178,2.95-4.77,4.577-7.024Z" fill="#ffdbac"/>
      <path id="Path_3240" data-name="Path 3240" d="M657.993,512.309l7.372,9.807c1.052.418-8.662,10.359-9.49,9.985-.1-.047-4.44-3.294-4.44-3.294Z" fill="#29292a"/>
      <path id="Path_3241" data-name="Path 3241" d="M702.648,553.249a5.643,5.643,0,0,1-.675.257c-3.437,1.382-7.612,1.06-12.108.065l1.028-3.4V550.1l.8-2.826a19.245,19.245,0,0,1,5.267-5.011c1.284-.193,2.376.161,2.7,1.028L697.99,545.6a11.741,11.741,0,0,0,8.223-.578C706.791,545.573,704.9,551.611,702.648,553.249Z" fill="#ffdbac"/>
      <path id="Path_3244" data-name="Path 3244" d="M701.973,553.506l-.193.193-26.368,24.345-5.139,4.754-2.57,2.377-7.676,13.906-15.512-26.625a14.037,14.037,0,0,1-.579-13.136c0-.032,0-.065.032-.065a11.845,11.845,0,0,1,1.8-2.794l7.355-11.466c10.342,2.377,23.478,5.171,36.743,8.576C694.361,554.566,698.536,554.888,701.973,553.506Z" fill="#29292a" opacity="0.05"/>
    </g>
    <path id="Path_3247" data-name="Path 3247" d="M699.914,375.089a4.4,4.4,0,1,1-4.4-4.4A4.4,4.4,0,0,1,699.914,375.089Z" transform="translate(16090.582 1616.308)" fill="#70c84a"/>
  </g>
</svg>
