<svg xmlns="http://www.w3.org/2000/svg" xmlns:xlink="http://www.w3.org/1999/xlink" width="564.113" height="490.742" viewBox="0 0 564.113 490.742">
  <defs>
    <clipPath id="clip-path">
      <rect width="564.113" height="490.742" fill="none"/>
    </clipPath>
    <linearGradient id="linear-gradient" x1="0.066" y1="0.741" x2="0.968" y2="0.085" gradientUnits="objectBoundingBox">
      <stop offset="0" stop-color="#70c84a"/>
      <stop offset="1" stop-color="#a8bd27"/>
    </linearGradient>
  </defs>
  <g id="Repeat_Grid_4" data-name="Repeat Grid 4" clip-path="url(#clip-path)">
    <g id="Group_4879" data-name="Group 4879" transform="translate(-16668 -2708)">
      <path id="Path_2990" data-name="Path 2990" d="M928.954,643.428c-45.912-1.813-161.583-5.83-141.5.755,24.942,8.184,97.338,34.731,96.079,57.917-.189,3.488-3.589,6.6-9.557,9.361-15.927,7.359-50.154,12.157-90.526,14.574-26.183,1.574-54.946,2.147-82.979,1.769-73.271-.97-141.538-8.4-145.554-21.322-6.717-21.606,45.968-48.462,67.524-58.434a2.072,2.072,0,0,0-.875-3.953l-95.74.076a7.456,7.456,0,0,1-5.3-12.7c27.573-27.845,103.444-91.056,217.125-82.079,10.96.863,21.455,2.141,31.5,3.758,89.23,14.366,142.645,55.783,165.258,77.458A7.449,7.449,0,0,1,928.954,643.428Z" transform="translate(16149.646 2470.826)" fill="#f6f8f8"/>
      <path id="Path_2991" data-name="Path 2991" d="M869.595,617.965a3.173,3.173,0,0,1-2.191,2.65l-1.259.4-.7.221-40.561,12.892a3.2,3.2,0,0,1-3.689-1.366l-15.336-24.872-1.227-1.99-2.462-4a3.152,3.152,0,0,1-.478-1.669v-.056a3.2,3.2,0,0,1,2.3-3.022l38.685-11.243a3.2,3.2,0,0,1,3.387,1.07l22.858,28.587A3.123,3.123,0,0,1,869.595,617.965Z" transform="translate(16149.646 2470.826)" fill="#eceeee"/>
      <path id="Path_2992" data-name="Path 2992" d="M859.564,619.358l-42.518,13.516a3.2,3.2,0,0,1-3.689-1.366l-19.025-30.86a3.164,3.164,0,0,1-.472-1.838h-.006v-8.751a3.153,3.153,0,0,0,.478,1.669l2.462,4,1.227,1.99,15.336,24.872a3.2,3.2,0,0,0,3.689,1.366l40.56-12.892.7-.221,1.259-.4a3.175,3.175,0,0,0,2.191-2.65h.006v8.1h-.006A3.188,3.188,0,0,1,859.564,619.358Z" transform="translate(16149.646 2470.826)" fill="#60b53c"/>
      <path id="Path_2993" data-name="Path 2993" d="M861.755,607.787a3.175,3.175,0,0,1-2.191,2.65l-1.259.4-.7.221-40.56,12.892a3.2,3.2,0,0,1-3.689-1.366l-15.336-24.872-1.227-1.99-2.462-4a3.153,3.153,0,0,1-.478-1.669V590a3.2,3.2,0,0,1,2.3-3.022l38.684-11.244a3.2,3.2,0,0,1,3.387,1.071L861.088,605.4A3.122,3.122,0,0,1,861.755,607.787Z" transform="translate(16149.646 2470.826)" fill="#70c84a"/>
      <path id="Path_2994" data-name="Path 2994" d="M596.8,705.3a3.174,3.174,0,0,0,2.191,2.65l1.259.4.7.221,40.56,12.893a3.2,3.2,0,0,0,3.69-1.367l15.335-24.872,1.228-1.99,2.461-4a3.152,3.152,0,0,0,.478-1.668v-.057a3.2,3.2,0,0,0-2.3-3.022l-38.684-11.243a3.2,3.2,0,0,0-3.387,1.07l-22.859,28.587A3.126,3.126,0,0,0,596.8,705.3Z" transform="translate(16148.646 2469.826)" fill="#eceeee"/>
      <path id="Path_2995" data-name="Path 2995" d="M830.066,613.058l-15.444-8.466a1.756,1.756,0,1,1,1.688-3.079l11.25,6.167,4.622-23.116a1.756,1.756,0,1,1,3.443.688Z" transform="translate(16149.646 2470.826)" fill="#fff"/>
      <path id="Path_2996" data-name="Path 2996" d="M595.578,702.161,638.1,715.677a3.2,3.2,0,0,0,3.689-1.367l19.024-30.859a3.165,3.165,0,0,0,.472-1.838h.007v-8.751a3.148,3.148,0,0,1-.479,1.668l-2.461,4-1.228,1.989L641.786,705.39a3.2,3.2,0,0,1-3.689,1.366l-40.561-12.893-.7-.22-1.259-.4a3.175,3.175,0,0,1-2.191-2.65h-.006v8.095h.006A3.189,3.189,0,0,0,595.578,702.161Z" transform="translate(16149.646 2470.826)" fill="#60b53c"/>
      <path id="Path_2997" data-name="Path 2997" d="M593.387,690.59a3.175,3.175,0,0,0,2.191,2.65l1.259.4.7.22L638.1,706.756a3.2,3.2,0,0,0,3.689-1.366l15.335-24.873,1.228-1.989,2.461-4a3.148,3.148,0,0,0,.479-1.668V672.8a3.2,3.2,0,0,0-2.3-3.021L620.3,658.54a3.2,3.2,0,0,0-3.387,1.07L594.054,688.2A3.125,3.125,0,0,0,593.387,690.59Z" transform="translate(16149.646 2470.826)" fill="#70c84a"/>
      <path id="Path_2999" data-name="Path 2999" d="M783.45,726.035c-26.183,1.574-54.946,2.147-82.979,1.769-13.151-15.663-38.981-49.116-25.062-54.939,11.773-4.93-11.161-28.128-22.077-38.584s2.518-17.325,18.886-19.132S783.55,671.788,760,686.261C742.146,697.24,746.465,712.613,783.45,726.035Z" transform="translate(16149.646 2470.826)" fill="#eceeee"/>
      <path id="Path_3000" data-name="Path 3000" d="M579.908,508.981l-39.632-33.692,3.867-4.549,35.529,30.2L677.6,407.234l37.443,38.6L820.67,324.215l30.079,27.656,49.75-36.361,3.523,4.82-53.706,39.253L821.15,332.765,715.283,454.654,677.44,415.647Z" transform="translate(16149.646 2470.826)" fill="#eceeee"/>
      <path id="Path_3001" data-name="Path 3001" d="M895.529,306.975l13.556,21.515,9.763-21.515Z" transform="translate(16149.646 2470.826)" fill="#eceeee"/>
      <g id="Group_4864" data-name="Group 4864" transform="translate(16149.646 2470.826)">
        <g id="Group_4861" data-name="Group 4861">
          <path id="Path_3002" data-name="Path 3002" d="M580.728,519.169a.629.629,0,0,1-.63-.629v-3.148a.629.629,0,0,1,1.259,0v3.148A.629.629,0,0,1,580.728,519.169Z" fill="#eceeee"/>
        </g>
        <g id="Group_4862" data-name="Group 4862">
          <path id="Path_3003" data-name="Path 3003" d="M580.728,554.165a.63.63,0,0,1-.63-.63V547.7a.629.629,0,1,1,1.259,0v5.832A.63.63,0,0,1,580.728,554.165Zm0-11.665a.629.629,0,0,1-.63-.629v-5.833a.629.629,0,1,1,1.259,0v5.833A.629.629,0,0,1,580.728,542.5Zm0-11.665a.63.63,0,0,1-.63-.63v-5.832a.629.629,0,1,1,1.259,0v5.832A.63.63,0,0,1,580.728,530.835Z" fill="#eceeee"/>
        </g>
        <g id="Group_4863" data-name="Group 4863">
          <path id="Path_3004" data-name="Path 3004" d="M580.728,563.145a.63.63,0,0,1-.63-.63v-3.147a.629.629,0,1,1,1.259,0v3.147A.63.63,0,0,1,580.728,563.145Z" fill="#eceeee"/>
        </g>
      </g>
      <g id="Group_4865" data-name="Group 4865" transform="translate(16149.646 2470.826)">
        <path id="Path_3005" data-name="Path 3005" d="M675.411,430.275a.629.629,0,0,1-.629-.629V426.5a.63.63,0,0,1,1.259,0v3.148A.629.629,0,0,1,675.411,430.275Z" fill="#d3edd5"/>
      </g>
      <g id="Group_4866" data-name="Group 4866" transform="translate(16149.646 2470.826)">
        <path id="Path_3006" data-name="Path 3006" d="M675.411,527.937a.63.63,0,0,1-.629-.63v-6.1a.63.63,0,0,1,1.259,0v6.1A.63.63,0,0,1,675.411,527.937Zm0-12.208a.63.63,0,0,1-.629-.629v-6.1a.63.63,0,0,1,1.259,0v6.1A.63.63,0,0,1,675.411,515.729Zm0-12.208a.629.629,0,0,1-.629-.629v-6.1a.63.63,0,1,1,1.259,0v6.1A.629.629,0,0,1,675.411,503.521Zm0-12.207a.63.63,0,0,1-.629-.63v-6.1a.63.63,0,0,1,1.259,0v6.1A.63.63,0,0,1,675.411,491.314Zm0-12.208a.629.629,0,0,1-.629-.629v-6.1a.63.63,0,0,1,1.259,0v6.1A.629.629,0,0,1,675.411,479.106Zm0-12.208a.629.629,0,0,1-.629-.629v-6.1a.63.63,0,0,1,1.259,0v6.1A.629.629,0,0,1,675.411,466.9Zm0-12.207a.63.63,0,0,1-.629-.63v-6.1a.63.63,0,1,1,1.259,0v6.1A.63.63,0,0,1,675.411,454.691Zm0-12.208a.63.63,0,0,1-.629-.629v-6.1a.63.63,0,1,1,1.259,0v6.1A.63.63,0,0,1,675.411,442.483Z" fill="#d3edd5"/>
      </g>
      <g id="Group_4867" data-name="Group 4867" transform="translate(16149.646 2470.826)">
        <path id="Path_3007" data-name="Path 3007" d="M675.411,537.188a.63.63,0,0,1-.629-.63v-3.147a.63.63,0,1,1,1.259,0v3.147A.63.63,0,0,1,675.411,537.188Z" fill="#d3edd5"/>
      </g>
      <g id="Group_4868" data-name="Group 4868" transform="translate(16149.646 2470.826)">
        <path id="Path_3008" data-name="Path 3008" d="M820.767,343.057a.629.629,0,0,1-.629-.63v-3.148a.629.629,0,0,1,1.259,0v3.148A.63.63,0,0,1,820.767,343.057Z" fill="#d3edd5"/>
      </g>
      <g id="Group_4869" data-name="Group 4869" transform="translate(16149.646 2470.826)">
        <path id="Path_3009" data-name="Path 3009" d="M820.767,529.657a.629.629,0,0,1-.629-.63v-6.22a.629.629,0,1,1,1.259,0v6.22A.63.63,0,0,1,820.767,529.657Zm0-12.44a.629.629,0,0,1-.629-.63v-6.22a.629.629,0,1,1,1.259,0v6.22A.63.63,0,0,1,820.767,517.217Zm0-12.44a.629.629,0,0,1-.629-.63v-6.22a.629.629,0,1,1,1.259,0v6.22A.63.63,0,0,1,820.767,504.777Zm0-12.44a.629.629,0,0,1-.629-.63v-6.22a.629.629,0,1,1,1.259,0v6.22A.63.63,0,0,1,820.767,492.337Zm0-12.44a.629.629,0,0,1-.629-.63v-6.219a.629.629,0,1,1,1.259,0v6.219A.63.63,0,0,1,820.767,479.9Zm0-12.44a.629.629,0,0,1-.629-.63v-6.22a.629.629,0,0,1,1.259,0v6.22A.63.63,0,0,1,820.767,467.457Zm0-12.44a.629.629,0,0,1-.629-.63v-6.22a.629.629,0,0,1,1.259,0v6.22A.63.63,0,0,1,820.767,455.017Zm0-12.44a.629.629,0,0,1-.629-.63v-6.22a.629.629,0,1,1,1.259,0v6.22A.63.63,0,0,1,820.767,442.577Zm0-12.44a.629.629,0,0,1-.629-.63v-6.22a.629.629,0,0,1,1.259,0v6.22A.63.63,0,0,1,820.767,430.137Zm0-12.44a.629.629,0,0,1-.629-.63v-6.22a.629.629,0,0,1,1.259,0v6.22A.63.63,0,0,1,820.767,417.7Zm0-12.44a.629.629,0,0,1-.629-.63v-6.22a.629.629,0,0,1,1.259,0v6.22A.63.63,0,0,1,820.767,405.257Zm0-12.44a.629.629,0,0,1-.629-.63v-6.22a.629.629,0,0,1,1.259,0v6.22A.63.63,0,0,1,820.767,392.817Zm0-12.44a.629.629,0,0,1-.629-.63v-6.22a.629.629,0,0,1,1.259,0v6.22A.63.63,0,0,1,820.767,380.377Zm0-12.44a.629.629,0,0,1-.629-.63v-6.22a.629.629,0,0,1,1.259,0v6.22A.63.63,0,0,1,820.767,367.937Zm0-12.44a.629.629,0,0,1-.629-.63v-6.22a.629.629,0,0,1,1.259,0v6.22A.63.63,0,0,1,820.767,355.5Z" fill="#eceeee"/>
      </g>
      <g id="Group_4870" data-name="Group 4870" transform="translate(16149.646 2470.826)">
        <path id="Path_3010" data-name="Path 3010" d="M820.767,539.024a.628.628,0,0,1-.629-.629v-3.148a.629.629,0,1,1,1.259,0V538.4A.629.629,0,0,1,820.767,539.024Z" fill="#eceeee"/>
      </g>
      <g id="Group_4871" data-name="Group 4871" transform="translate(16149.646 2470.826)">
        <path id="Path_3011" data-name="Path 3011" d="M851.044,371.386a.629.629,0,0,1-.629-.63v-3.147a.63.63,0,1,1,1.259,0v3.147A.63.63,0,0,1,851.044,371.386Z" fill="#eceeee"/>
      </g>
      <g id="Group_4872" data-name="Group 4872" transform="translate(16149.646 2470.826)">
        <path id="Path_3012" data-name="Path 3012" d="M851.044,530.323a.629.629,0,0,1-.629-.63V523.58a.63.63,0,0,1,1.259,0v6.113A.63.63,0,0,1,851.044,530.323Zm0-12.226a.628.628,0,0,1-.629-.629v-6.114a.63.63,0,0,1,1.259,0v6.114A.629.629,0,0,1,851.044,518.1Zm0-12.226a.628.628,0,0,1-.629-.629v-6.114a.63.63,0,0,1,1.259,0v6.114A.629.629,0,0,1,851.044,505.871Zm0-12.226a.629.629,0,0,1-.629-.63V486.9a.63.63,0,1,1,1.259,0v6.112A.63.63,0,0,1,851.044,493.645Zm0-12.226a.629.629,0,0,1-.629-.63v-6.112a.63.63,0,1,1,1.259,0v6.112A.63.63,0,0,1,851.044,481.419Zm0-12.226a.629.629,0,0,1-.629-.629v-6.113a.63.63,0,1,1,1.259,0v6.113A.63.63,0,0,1,851.044,469.193Zm0-12.226a.629.629,0,0,1-.629-.629v-6.113a.63.63,0,1,1,1.259,0v6.113A.63.63,0,0,1,851.044,456.967Zm0-12.226a.629.629,0,0,1-.629-.629V438a.63.63,0,1,1,1.259,0v6.113A.63.63,0,0,1,851.044,444.741Zm0-12.225a.629.629,0,0,1-.629-.63v-6.113a.63.63,0,1,1,1.259,0v6.113A.63.63,0,0,1,851.044,432.516Zm0-12.227a.629.629,0,0,1-.629-.629v-6.113a.63.63,0,1,1,1.259,0v6.113A.63.63,0,0,1,851.044,420.289Zm0-12.225a.629.629,0,0,1-.629-.63v-6.113a.63.63,0,1,1,1.259,0v6.113A.63.63,0,0,1,851.044,408.064Zm0-12.227a.628.628,0,0,1-.629-.629V389.1a.63.63,0,1,1,1.259,0v6.113A.629.629,0,0,1,851.044,395.837Zm0-12.225a.629.629,0,0,1-.629-.63v-6.113a.63.63,0,0,1,1.259,0v6.113A.63.63,0,0,1,851.044,383.612Z" fill="#eceeee"/>
      </g>
      <g id="Group_4873" data-name="Group 4873" transform="translate(16149.646 2470.826)">
        <path id="Path_3013" data-name="Path 3013" d="M851.044,539.584a.629.629,0,0,1-.629-.63v-3.148a.63.63,0,0,1,1.259,0v3.148A.63.63,0,0,1,851.044,539.584Z" fill="#d3edd5"/>
      </g>
      <g id="Group_4874" data-name="Group 4874" transform="translate(16149.646 2470.826)">
        <path id="Path_3014" data-name="Path 3014" d="M716.414,461.613a.629.629,0,0,1-.629-.63v-3.147a.63.63,0,1,1,1.259,0v3.147A.63.63,0,0,1,716.414,461.613Z" fill="#d3edd5"/>
      </g>
      <g id="Group_4875" data-name="Group 4875" transform="translate(16149.646 2470.826)">
        <path id="Path_3015" data-name="Path 3015" d="M716.414,518.585a.629.629,0,0,1-.629-.63v-5.7a.63.63,0,1,1,1.259,0v5.7A.63.63,0,0,1,716.414,518.585Zm0-11.4a.628.628,0,0,1-.629-.629v-5.7a.63.63,0,1,1,1.259,0v5.7A.629.629,0,0,1,716.414,507.19Zm0-11.394a.629.629,0,0,1-.629-.63v-5.7a.63.63,0,0,1,1.259,0v5.7A.63.63,0,0,1,716.414,495.8Zm0-11.394a.629.629,0,0,1-.629-.63v-5.7a.63.63,0,0,1,1.259,0v5.7A.63.63,0,0,1,716.414,484.4Zm0-11.4a.628.628,0,0,1-.629-.629v-5.7a.63.63,0,1,1,1.259,0v5.7A.629.629,0,0,1,716.414,473.007Z" fill="#eceeee"/>
      </g>
      <g id="Group_4876" data-name="Group 4876" transform="translate(16149.646 2470.826)">
        <path id="Path_3016" data-name="Path 3016" d="M716.414,527.43a.629.629,0,0,1-.629-.63v-3.148a.63.63,0,0,1,1.259,0V526.8A.63.63,0,0,1,716.414,527.43Z" fill="#eceeee"/>
      </g>
      <path id="Path_3017" data-name="Path 3017" d="M655.851,316.423a25.59,25.59,0,0,1-22.35,25.383,24.91,24.91,0,0,1-3.238.2h-70a25.588,25.588,0,1,1,3.332-50.962,35.863,35.863,0,0,1,64.968-.158c.564-.036,1.128-.057,1.7-.057A25.589,25.589,0,0,1,655.851,316.423Z" transform="translate(16149.646 2470.826)" fill="#f5f7f6"/>
      <path id="Path_3018" data-name="Path 3018" d="M689.845,293.867h-4.231a30.757,30.757,0,0,0,3.979-.252Z" transform="translate(16149.646 2470.826)" fill="#d3edd5"/>
      <path id="Path_3019" data-name="Path 3019" d="M846.453,270.089A18.264,18.264,0,0,1,830.5,288.2a17.84,17.84,0,0,1-2.312.146H778.232a18.263,18.263,0,1,1,2.377-36.371,25.6,25.6,0,0,1,46.368-.114c.4-.025.8-.04,1.214-.04A18.263,18.263,0,0,1,846.453,270.089Z" transform="translate(16149.646 2470.826)" fill="#f5f7f6"/>
      <path id="Path_3020" data-name="Path 3020" d="M985.327,277.123a12.339,12.339,0,0,1-10.776,12.238,12.182,12.182,0,0,1-1.561.1H939.241a12.337,12.337,0,1,1,0-24.674,12.179,12.179,0,0,1,1.606.1,17.29,17.29,0,0,1,31.322-.077c.272-.017.544-.027.821-.027A12.337,12.337,0,0,1,985.327,277.123Z" transform="translate(16149.646 2470.826)" fill="#f5f7f6"/>
      <ellipse id="Ellipse_217" data-name="Ellipse 217" cx="69.107" cy="12.886" rx="69.107" ry="12.886" transform="translate(17093.898 3130.888)" fill="#f6f8f8"/>
      <path id="Path_3021" data-name="Path 3021" d="M914.554,397.782s5.019-.769,5.1-2.5.551-6.846,5.509-8.656,8.345-.013,10.151,5.9c1.754,5.744,2.911,8.341-2.282,11.567s-7.555.551-8.578.944a30.786,30.786,0,0,0-4.1,2.878s-5.185-.674-5.343-.989S914.554,397.782,914.554,397.782Z" transform="translate(16149.646 2470.826)" fill="#ffdbac"/>
      <path id="Path_3022" data-name="Path 3022" d="M723.45,406.2s-.1-5.077-1.8-5.385-6.713-1.454-7.849-6.608,1.094-8.273,7.2-9.279c5.927-.976,8.654-1.779,11.163,3.8s-.456,7.56-.2,8.626a30.806,30.806,0,0,0,2.308,4.447s-1.356,5.049-1.688,5.164S723.45,406.2,723.45,406.2Z" transform="translate(16149.646 2470.826)" fill="#ffdbac"/>
      <path id="Path_3023" data-name="Path 3023" d="M738.9,712.8c.314,3.777-13.85,3.3-21.134,2.361-6.755-.875-20.415-24.709-18.684-28.9a21.94,21.94,0,0,1,5.508-7.347l10.495,7.341c2.461,6.194,9.493,13.642,15.473,16a13.422,13.422,0,0,1,6.321,4.772A11.93,11.93,0,0,1,738.9,712.8Z" transform="translate(16149.646 2470.826)" fill="#29292a"/>
      <path id="Path_3024" data-name="Path 3024" d="M696.562,656.037c.207,2.311-10.91,1.473-16.683.737a2.245,2.245,0,0,1-1.026-.447c-4.709-3.318-10.192-24.111-11.823-30.646a4.416,4.416,0,0,1,.976-4.023,11.234,11.234,0,0,1,3.8-2.763,15.053,15.053,0,0,1,6.925-1.36l6.711,10.28-.523,2.518c-.522,2.519,1.366,17.1,5.559,18.679a10.82,10.82,0,0,1,2.852,1.561A7.984,7.984,0,0,1,696.562,656.037Z" transform="translate(16149.646 2470.826)" fill="#29292a"/>
      <path id="Path_3027" data-name="Path 3027" d="M707.067,674.934l-2.479,3.978a16.809,16.809,0,0,0,5.141,5.4c3.358,2.151,5.351,1.941,5.351,1.941l2.685-4.176-4.206-7.418Z" transform="translate(16149.646 2470.826)" fill="#ffdbac"/>
      <path id="Path_3028" data-name="Path 3028" d="M682.553,615.146l-3.828,2.387a11.66,11.66,0,0,0,1.521,8.341c2.571,3.882,4.669,4.459,4.669,4.459l3.971-2.767V621.1Z" transform="translate(16149.646 2470.826)" fill="#ffdbac"/>
      <path id="Path_3029" data-name="Path 3029" d="M731.463,503.923l20.189-9.745.938-.453a7.452,7.452,0,0,1,1.2,1.517l.007.006c1.372,2.141,3.406,6.755,3.2,15.159a48.924,48.924,0,0,0,1.171,9.311c.491,2.493,1.114,5.295,1.832,8.31a61.488,61.488,0,0,1-6.875-6.5c-7.069-7.819-9.374-14.429-14.07-16.576A12.308,12.308,0,0,0,731.463,503.923Z" transform="translate(16149.646 2470.826)" fill="#0e4713"/>
      <path id="Union_206" data-name="Union 206" d="M30.263,176.354c-5.823-2.832-8.027-10.23-8.027-10.23s24.709-36.984,37.3-58.388c4.821-8.2,6.365-13.579,5.691-18.9a29.316,29.316,0,0,0-2.417-8c-2.417-5.539-6.333-12.206-10.872-22.266q-1.38-3.051-2.827-6.541-1.416-3.437-2.449-6.686C40.877,27.2,43.565,13.69,46.21,6.381a31.763,31.763,0,0,1,2.9-6.163s0-.006.005-.006A12.307,12.307,0,0,1,56.7,1.238c4.7,2.146,7,8.757,14.07,16.575a61.417,61.417,0,0,0,6.875,6.5c.05.038.094.076.144.113,9.009,7.259,19.327,7.989,24.823,7.745l.044.044s-1.335,2.883-3.55,7.019A124.5,124.5,0,0,1,86.8,58.343c3.689,13.056,7.082,25.049,8.3,31.357,3.146,16.274-55.242,89.488-55.242,89.488S36.086,179.187,30.263,176.354ZM2.878,119.067C-.583,112.929.045,107.893.045,107.893s32.616-25.761,47.165-43a54.833,54.833,0,0,0,4.728-6.333c4.539,10.06,8.455,16.727,10.872,22.266q-2.426,2.155-4.973,4.407c-21.121,18.678-47.2,41.385-47.2,41.385S6.341,125.205,2.878,119.067Z" transform="translate(16831.998 2974.538)" fill="#bcc5c5" stroke="rgba(0,0,0,0)" stroke-width="1"/>
      <path id="Path_3033" data-name="Path 3033" d="M784.967,535.885c-5.5.245-15.814-.485-24.823-7.744-.05-.037-.094-.075-.144-.113a61.488,61.488,0,0,1-6.875-6.5c1.341-1.907,2.191-3.041,2.191-3.041l2.852,1.234,17.507,7.58Z" transform="translate(16149.646 2470.826)" fill="#0e4713"/>
      <path id="Path_3035" data-name="Path 3035" d="M920.833,412.2s-42.9,17.546-62.9,28.569a.105.105,0,0,0-.025.006c-4.684,2.587-8.109,4.809-9.424,6.365-3.677,4.343-7.12,10.349-11.036,16.625l-.006.007a118.808,118.808,0,0,1-9.62,13.591l-.006.007c-.78.925-1.58,1.832-2.411,2.713-10.072,10.7-12.8,24.136-19.937,35.046-1.1,1.681-2.254,3.33-3.425,4.91-.069.1-.138.2-.208.284s-.113.144-.157.214c-.749,1.007-1.505,1.989-2.254,2.933A151.063,151.063,0,0,1,788.9,535.482a28.778,28.778,0,0,1-3.928.4c-5.5.245-15.814-.485-24.823-7.744-.05-.037-.094-.075-.144-.113a61.488,61.488,0,0,1-6.875-6.5c-7.069-7.819-9.374-14.429-14.07-16.576a12.308,12.308,0,0,0-7.592-1.026c-.006,0-.006.007-.006.007a8.326,8.326,0,0,0-2.581.919s4.557-8.468,10.229-16.9c4.3-6.421,9.248-12.817,13.328-15.468a57.9,57.9,0,0,0,10.8-9.638,95.457,95.457,0,0,0,7.139-8.933s-2.556.755-6.264,1.523H764.1c-8.637,1.788-23.525,3.664-27.044-3.676-5.037-10.488-16.368-45.742-16.368-45.742a16.024,16.024,0,0,1,7.554-4.828,17.731,17.731,0,0,1,9.342-.107s5.137,39.345,18.987,36.412,36.028-9.67,44.244-7.668a80.637,80.637,0,0,0,16.9,1.971s1.757,1.026,19.541-4.325,75.387-31.32,75.387-31.32,2.518,1.486,5.508,6.409A18.069,18.069,0,0,1,920.833,412.2Z" transform="translate(16149.646 2470.826)" fill="#29292a"/>
      <path id="Path_3036" data-name="Path 3036" d="M797.734,449.452a4.145,4.145,0,0,0-3.7-.529,11.414,11.414,0,0,0-3.29,2.2,75.622,75.622,0,0,1,3.867-12.69,29.937,29.937,0,0,1,6.209-8.612l-.753,13.963Z" transform="translate(16149.646 2470.826)" fill="#70c84a"/>
      <path id="Path_3037" data-name="Path 3037" d="M802.746,449.82a10.694,10.694,0,0,1,4.194.9c1.574.877,2.623,3.919,2.623,3.919a100.38,100.38,0,0,0,6.61-14.171c2.2-6.446,1.548-8.679,1.548-8.679l-13.877,6.587Z" transform="translate(16149.646 2470.826)" fill="#70c84a"/>
      <path id="Path_3038" data-name="Path 3038" d="M800.828,424.02a16.862,16.862,0,0,1-.787,8.8c-1.731,4.879-5.666,16.918-.472,17.863s16.657-14.72,18.152-18.89l1.285-8.416-11.014-5.509Z" transform="translate(16149.646 2470.826)" fill="#ffdbac"/>
      <path id="Path_3039" data-name="Path 3039" d="M797.129,394.81a50.549,50.549,0,0,0-5.744,10.544,62.761,62.761,0,0,0-3.935,15.975,29.351,29.351,0,0,0,23.687.393C823.806,416.292,821.6,401.5,821.6,401.5l-8.106-8.734-6.138-3.148Z" transform="translate(16149.646 2470.826)" fill="#ffdbac"/>
      <path id="Path_3040" data-name="Path 3040" d="M800.356,379.779s-7.476,9.443-3.227,15.031,8.657,3.7,10.545,6.61-1.377,4.052-2.046,7.4.748,7.829.748,7.829,2.6-7.632,5.784-7.239,5.583,4.535,2.714,6.807c-3.974,3.147-2.636,6.452,2.046,8.656,3.67,1.727,12.552-1.417,14.939-9.1,1.743-5.614-1.05-8.941-1.05-8.941s6.611-12.516-5.665-20.91c-9.53-6.515-18.414.709-21.562-.472S800.356,379.779,800.356,379.779Z" transform="translate(16149.646 2470.826)" fill="#f0c40f"/>
      <path id="Path_3041" data-name="Path 3041" d="M796.753,454.064s-2.456,8.656-11.9,18.1-15.057,18.519-17.47,24.5a76.63,76.63,0,0,0-3.672,14.269l3.462,11.751,8.289-10.492s2.565-19.811,8.289-26.965c6.61-8.262,17.338-26.624,16.578-30.585S796.753,454.064,796.753,454.064Z" transform="translate(16149.646 2470.826)" fill="#f0c40f"/>
      <path id="Path_3045" data-name="Path 3045" d="M702.018,396.935l74.249-29.326.8,2.807-73.852,29.863Z" transform="translate(16149.646 2470.826)" fill="#efc30f"/>
      <path id="Path_3046" data-name="Path 3046" d="M768.964,370.494l-13.34,5.263-8.876,3.506s-4.073-1.844-3.286-12.861,4.916-16.211,1.593-28.644-14.184-14.007-14.184-14.007,12.188.529,21.965,6.68a24.942,24.942,0,0,1,10.3,11.891C770.06,359.792,764.085,363.726,768.964,370.494Z" transform="translate(16149.646 2470.826)" fill="#70c84a"/>
      <path id="Path_3047" data-name="Path 3047" d="M768.964,370.494l-13.34,5.263a23.286,23.286,0,0,1-.843-9.355c.787-11.017,4.923-16.211,1.593-28.644a20.564,20.564,0,0,0-3.538-7.327,24.942,24.942,0,0,1,10.3,11.891C770.06,359.792,764.085,363.726,768.964,370.494Z" transform="translate(16149.646 2470.826)" fill="#60b53c"/>
      <path id="Path_3048" data-name="Path 3048" d="M612.047,556.993s84.518-93.228,163.416-74.041c86.417,21.015,127.585,4.749,127.585,4.749l-11.174,6.968,21.562-3.934S877,514.519,787.214,493.725c-109.843-25.44-186.971,93.8-186.971,93.8l10.7-22.348L599.628,570.4Z" transform="translate(16149.646 2470.826)" fill="url(#linear-gradient)"/>
      <path id="Path_3049" data-name="Path 3049" d="M721.584,383.7c-2.228.382-4.666.918-6.477,2.357a4.948,4.948,0,0,0-.164,7.672c2.608,2.145,6.444,1.559,9.286.263,2.6-1.188,7.906-3.558,7.416-7.205-.562-4.182-6.669-3.636-9.57-3.169C721.915,383.645,721.751,383.672,721.584,383.7Z" transform="translate(16149.646 2470.826)" fill="#ffdbac"/>
      <path id="Path_3050" data-name="Path 3050" d="M797.734,449.452s-2.493,6.107.471,6.606,5.56-5.282,4.2-6.532C799.479,446.845,797.734,449.452,797.734,449.452Z" transform="translate(16149.646 2470.826)" fill="#f0c40f"/>
      <path id="Path_3052" data-name="Path 3052" d="M1024.541,440.934c-.424,10.605,2.952,24.413,2.952,24.413l-14.748,3.032s-2.347-14.018-6.921-23.6c-4.945-10.357-16.325-20.251-16.325-20.251l20.748-5.682,5.445-.758,15.859-2.207S1025,429.466,1024.541,440.934Z" transform="translate(16149.646 2470.826)" fill="#e6bd12"/>
      <path id="Path_3053" data-name="Path 3053" d="M1024.541,440.934c-.424,10.605,2.952,24.413,2.952,24.413l-4,.822s-2.347-14.019-6.921-23.6c-4.945-10.356-16.325-20.251-16.325-20.251l15.443-4.229,15.859-2.207S1025,429.466,1024.541,440.934Z" transform="translate(16149.646 2470.826)" fill="#efc30f"/>
      <path id="Path_3054" data-name="Path 3054" d="M1043.012,337.658c-8.429-1.171-26.535.535-47.127,4.771-21.819,4.489-39.95,10.488-46.377,14.983-2.991-.409-4.76-1.183-4.992-2.329-.9-4.381,20.969-12.584,48.851-18.319s51.219-6.831,52.119-2.443C1045.681,335.272,1044.8,336.411,1043.012,337.658Z" transform="translate(16149.646 2470.826)" fill="#efc30f"/>
      <path id="Path_3055" data-name="Path 3055" d="M1043.012,337.658c-6.427,4.494-24.558,10.494-46.377,14.982-20.592,4.231-38.7,5.937-47.127,4.772,6.427-4.495,24.558-10.494,46.377-14.983C1016.477,338.193,1034.583,336.487,1043.012,337.658Z" transform="translate(16149.646 2470.826)" fill="#c9a200"/>
      <path id="Path_3056" data-name="Path 3056" d="M1052.236,390.2c-9.275,21.752-25.771,29.648-34.725,32.418-1.319.409-2.471.707-3.417.92a26.93,26.93,0,0,1-2.779.507s-24.622,7.61-48.11-12.382q-1.425-1.213-2.847-2.57a36.089,36.089,0,0,1-3.654-4.074c-6.176-8.014-9.287-18.506-10.831-27.8-.575-3.466-.932-6.769-1.149-9.715a100.5,100.5,0,0,1-.212-12.417h0c.48,2.337,7.344,3.116,17.879,2.466,1.9-.118,3.925-.283,6.051-.493q2.739-.268,5.7-.642c6.836-.864,14.472-2.128,22.485-3.775,27.882-5.734,49.754-13.936,48.853-18.319a97.043,97.043,0,0,1,4.092,9.766C1053.741,355.561,1058.728,374.972,1052.236,390.2Z" transform="translate(16149.646 2470.826)" fill="#e6bd12"/>
      <path id="Path_3057" data-name="Path 3057" d="M979.1,475.3l81.237-16.7,15.071,28.564-98.091,20.17Z" transform="translate(16149.646 2470.826)" fill="#efc30f"/>
      <path id="Path_3058" data-name="Path 3058" d="M1055.6,485.587,994.453,498.16l.387-20.455,52.276-10.749.722,1.589Z" transform="translate(16149.646 2470.826)" fill="#efc30f"/>
      <path id="Path_3059" data-name="Path 3059" d="M1057.607,486.911l-61.144,12.573.034-1.744,59.1-12.153-7.76-17.042,1.288-.265Z" transform="translate(16149.646 2470.826)" fill="#c9a200"/>
      <path id="Path_3060" data-name="Path 3060" d="M963.207,411.662c-.753,3.862-4.106,9.613-17.776,7.546-19.872-3.006-28.782-32.687-28.553-47.459s12.784-9.351,21.044-5.942a18.318,18.318,0,0,0,6.8,1.692c.217,2.946.574,6.249,1.149,9.716-.86.214-2.428.168-5.19-.97-5.22-2.156-13.152-5.581-13.3,3.755s5.49,28.1,18.048,30c8.889,1.347,10.878-2.543,11.274-4.981a36.106,36.106,0,0,0,3.654,4.075Q961.778,410.45,963.207,411.662Z" transform="translate(16149.646 2470.826)" fill="#efc30f"/>
      <path id="Path_3061" data-name="Path 3061" d="M1050.668,393.677c2.216,3.252,7.566,7.214,19.311-.079,17.073-10.6,13.549-41.392,7.51-54.876s-15.436-3.548-21.681,2.844a18.356,18.356,0,0,1-5.583,4.24c.963,2.792,1.938,5.968,2.777,9.38.875-.143,2.3-.8,4.387-2.939,3.946-4.041,9.883-10.317,13.7-1.8s6.042,27.985-4.747,34.686c-7.637,4.744-11,1.955-12.325-.129a36.088,36.088,0,0,1-1.749,5.186Q1051.5,392,1050.668,393.677Z" transform="translate(16149.646 2470.826)" fill="#efc30f"/>
      <path id="Path_3062" data-name="Path 3062" d="M1034.013,476.976l-23.125,4.755a.6.6,0,0,1-.242-1.176l23.126-4.755a.6.6,0,0,1,.241,1.176Z" transform="translate(16149.646 2470.826)" fill="#f7e187"/>
      <path id="Path_3063" data-name="Path 3063" d="M1043.786,481.915l-37.406,7.692a.6.6,0,0,1-.242-1.176l37.406-7.692a.6.6,0,1,1,.242,1.176Z" transform="translate(16149.646 2470.826)" fill="#f7e187"/>
      <path id="Path_3064" data-name="Path 3064" d="M997.839,479.056a.783.783,0,1,1-.875-.452A.7.7,0,0,1,997.839,479.056Z" transform="translate(16149.646 2470.826)" fill="#29292a"/>
      <path id="Path_3065" data-name="Path 3065" d="M997.682,495.538a.783.783,0,1,1-.875-.452A.705.705,0,0,1,997.682,495.538Z" transform="translate(16149.646 2470.826)" fill="#29292a"/>
      <path id="Path_3066" data-name="Path 3066" d="M1044.883,469.377a.782.782,0,1,0,.625-.76A.7.7,0,0,0,1044.883,469.377Z" transform="translate(16149.646 2470.826)" fill="#29292a"/>
      <path id="Path_3067" data-name="Path 3067" d="M1051.531,484.46a.783.783,0,1,0,.625-.759A.7.7,0,0,0,1051.531,484.46Z" transform="translate(16149.646 2470.826)" fill="#29292a"/>
      <path id="Path_3068" data-name="Path 3068" d="M1052.236,390.2c-9.275,21.752-25.771,29.648-34.725,32.418a64.323,64.323,0,0,1-33.984-15.345q-1.639-1.395-3.269-2.949a41.436,41.436,0,0,1-4.191-4.675c-7.087-9.193-10.656-21.232-12.427-31.9-.6-3.608-.993-7.066-1.246-10.2,1.9-.118,3.925-.283,6.051-.493q2.739-.268,5.7-.642c6.836-.864,14.472-2.128,22.485-3.775,27.882-5.734,49.754-13.936,48.853-18.319a97.043,97.043,0,0,1,4.092,9.766C1053.741,355.561,1058.728,374.972,1052.236,390.2Z" transform="translate(16149.646 2470.826)" fill="#efc30f"/>
      <path id="Path_3069" data-name="Path 3069" d="M1015.453,393.163l1.578,7.671-18.06,3.713-1.577-7.67,5.672-1.167-3.186-15.49-5.672,1.166-1.188-5.778a13.867,13.867,0,0,0,4.856-2.841,24.328,24.328,0,0,0,4.3-4.649l2.332-.479,5.479,26.647Z" transform="translate(16149.646 2470.826)" fill="#fff" opacity="0.7"/>
      <path id="Path_3070" data-name="Path 3070" d="M936.611,392.948c-.675-2.158-1.53-4.5-3.2-6.107a4.948,4.948,0,0,0-7.626.854c-1.78,2.87-.69,6.594.972,9.24,1.522,2.423,4.574,7.363,8.124,6.394,4.07-1.111,2.719-7.091,1.871-9.906C936.71,393.268,936.661,393.109,936.611,392.948Z" transform="translate(16149.646 2470.826)" fill="#ffdbac"/>
      <path id="Path_3071" data-name="Path 3071" d="M833.091,379.316s2.374,2.395,7.091,1.565,5.8-2.481,5.8-2.481l1.6,5.066s-4.877,2.226-9.232,1.807a13.384,13.384,0,0,1-7.252-3.143Z" transform="translate(16149.646 2470.826)" fill="#a8bd27"/>
      <path id="Path_3072" data-name="Path 3072" d="M810.759,370.43a5.118,5.118,0,0,0,2.21,4.005c2.355,1.885,3.586,1.71,3.586,1.71l-1.73,2.865a13.418,13.418,0,0,1-4.7-3.615,8.433,8.433,0,0,1-1.531-4.738Z" transform="translate(16149.646 2470.826)" fill="#a8bd27"/>
      <path id="Path_3073" data-name="Path 3073" d="M783.133,378.923a5.116,5.116,0,0,0,4.574-.005c2.788-1.154,3.228-2.317,3.228-2.317l1.675,2.9a13.412,13.412,0,0,1-5.431,2.37,8.434,8.434,0,0,1-4.889-.943Z" transform="translate(16149.646 2470.826)" fill="#a8bd27"/>
      <path id="Path_3074" data-name="Path 3074" d="M837.451,403.184s3.365.216,6.342-3.535,2.691-5.7,2.691-5.7l4.56,2.728s-2.171,4.9-5.706,7.478a13.389,13.389,0,0,1-7.511,2.462Z" transform="translate(16149.646 2470.826)" fill="#70c84a"/>
      <path id="Path_3075" data-name="Path 3075" d="M832.543,366.352s3.365.216,6.342-3.535,2.691-5.7,2.691-5.7l4.56,2.728s-2.172,4.9-5.707,7.479a13.388,13.388,0,0,1-7.51,2.461Z" transform="translate(16149.646 2470.826)" fill="#70c84a"/>
      <path id="Path_3076" data-name="Path 3076" d="M798.013,349.96s-.905,3.248,2.15,6.936,5.027,3.81,5.027,3.81l-3.611,3.9s-4.348-3.136-6.139-7.127a13.386,13.386,0,0,1-.859-7.857Z" transform="translate(16149.646 2470.826)" fill="#70c84a"/>
      <path id="Path_3077" data-name="Path 3077" d="M820.354,347.217a5.117,5.117,0,0,0,2.21,4c2.355,1.886,3.586,1.71,3.586,1.71l-1.73,2.865a13.41,13.41,0,0,1-4.7-3.614,8.433,8.433,0,0,1-1.531-4.738Z" transform="translate(16149.646 2470.826)" fill="#a8bd27"/>
      <path id="Path_3078" data-name="Path 3078" d="M555.3,633.025s-25.339-27.856-14.322-33.05S555.3,633.025,555.3,633.025Z" transform="translate(16149.646 2470.826)" fill="#a8bd27"/>
      <g id="Group_4877" data-name="Group 4877" transform="translate(16149.646 2470.826)">
        <rect id="Rectangle_1168" data-name="Rectangle 1168" width="1.259" height="27.361" transform="translate(544.024 608.091) rotate(-23.026)" fill="#fff"/>
      </g>
      <path id="Path_3079" data-name="Path 3079" d="M555.678,633.025s31.991-48.339,14.01-53.647S555.678,633.025,555.678,633.025Z" transform="translate(16149.646 2470.826)" fill="#70c84a"/>
      <g id="Group_4878" data-name="Group 4878" transform="translate(16149.646 2470.826)">
        <rect id="Rectangle_1169" data-name="Rectangle 1169" width="42.118" height="1.259" transform="translate(555.063 632.87) rotate(-75.755)" fill="#fff"/>
      </g>
      <path id="Path_3080" data-name="Path 3080" d="M795.594,705.907s-25.339-27.857-14.322-33.05S795.594,705.907,795.594,705.907Z" transform="translate(16149.646 2470.826)" fill="#a8bd27"/>
      <rect id="Rectangle_1170" data-name="Rectangle 1170" width="1.259" height="27.361" transform="translate(16933.959 3151.798) rotate(-23.026)" fill="#fff"/>
      <path id="Path_3081" data-name="Path 3081" d="M795.967,705.907s31.991-48.339,14.01-53.647S795.967,705.907,795.967,705.907Z" transform="translate(16149.646 2470.826)" fill="#70c84a"/>
      <rect id="Rectangle_1171" data-name="Rectangle 1171" width="42.118" height="1.26" transform="matrix(0.246, -0.969, 0.969, 0.246, 16945, 3176.578)" fill="#fff"/>
      <path id="Path_3082" data-name="Path 3082" d="M900.975,623.466s-25.339-27.857-14.322-33.05S900.975,623.466,900.975,623.466Z" transform="translate(16149.646 2470.826)" fill="#a8bd27"/>
      <rect id="Rectangle_1172" data-name="Rectangle 1172" width="1.259" height="27.361" transform="translate(17039.34 3069.357) rotate(-23.026)" fill="#fff"/>
      <path id="Path_3083" data-name="Path 3083" d="M901.348,623.466s31.991-48.339,14.01-53.647S901.348,623.466,901.348,623.466Z" transform="translate(16149.646 2470.826)" fill="#70c84a"/>
      <rect id="Rectangle_1173" data-name="Rectangle 1173" width="42.118" height="1.26" transform="matrix(0.246, -0.969, 0.969, 0.246, 17050.381, 3094.137)" fill="#fff"/>
      <path id="Path_2317" data-name="Path 2317" d="M639.308,674.373a8.268,8.268,0,0,0-6.262.63.979.979,0,0,1-1.306-.316.655.655,0,0,1-.051-.161,4.674,4.674,0,0,0-3.235-3.967c-3.03-1.064-7.682.139-10.223,4-1.264,1.92-1.4,4.543-.958,7.241.018.105.035.209.054.314.033.183.072.365.109.549a35.122,35.122,0,0,0,3.1,8.359c.077.141.154.291.228.425l0,.008a.892.892,0,0,0,.991.348l.01,0c.191-.042.4-.091.6-.136a73.6,73.6,0,0,0,10.875-3.447c.219-.093.439-.185.656-.281.124-.054.246-.11.368-.165a20.264,20.264,0,0,0,6.458-4.2l.1-.114a7.086,7.086,0,0,0,.589-.758C643.955,678.844,642.338,675.438,639.308,674.373Z" transform="translate(16149.646 2470.826)" fill="#fff"/>
      <path id="Path_3084" data-name="Path 3084" d="M125.21,92.2a4.258,4.258,0,0,1-8.5,0" transform="translate(16851.006 2761.706) rotate(16)" fill="#fff"/>
    </g>
  </g>
</svg>
