<svg id="Layer_1" data-name="Layer 1" xmlns="http://www.w3.org/2000/svg" xmlns:xlink="http://www.w3.org/1999/xlink" viewBox="0 0 298.70001 259.56159"><defs><radialGradient id="radial-gradient" cx="-3021.2884" cy="-182.41561" r="36.6239" gradientTransform="translate(-2865.1384 -3.97027) rotate(180)" gradientUnits="userSpaceOnUse"><stop offset="0" stop-color="#0d5e9d"/><stop offset="0.31" stop-color="#0d5e9d"/><stop offset="1" stop-color="#0d419d"/></radialGradient><radialGradient id="radial-gradient-2" cx="202.79999" cy="1210.86632" r="91.16523" gradientTransform="translate(0 -1117.71091)" xlink:href="#radial-gradient"/><radialGradient id="radial-gradient-3" cx="189.2" cy="1218.66631" r="91.2168" gradientTransform="translate(0 -1117.71091)" xlink:href="#radial-gradient"/></defs><title>mobile-1-auth</title><path d="M6.5,155.59485h0c.1,1.8,1.4,3.7,3.9,5.1l175.6,101.4c4.7,2.7,11.9,3,16,.7l92.1-53.2c1.9-1.1,2.8-2.5,2.8-4h0v-8.3l-23.4-4-156.2-90.1c-4.7-2.7-11.9-3-16-.7l-81.6,47.1-13.2-2.3Z" transform="translate(0 -4.77699)" style="fill:#e8e8e8"/><path d="M186,253.79487l-175.6-101.4c-4.7-2.7-5.2-6.9-1.1-9.2l92.1-53.2c4.1-2.4,11.2-2.1,16,.7l175.6,101.4c4.7,2.7,5.2,6.9,1.1,9.2l-92.1,53.2C197.8,256.79487,190.7,256.49486,186,253.79487Z" transform="translate(0 -4.77699)" style="fill:#f9f9f9"/><path d="M6.5,147.79487c-.3,2,1,4.1,3.9,5.7l175.6,101.4c4.7,2.7,11.9,3,16,.7l92.1-53.2c2.1-1.2,3-2.9,2.7-4.6a5.04529,5.04529,0,0,1-2.7,3.5l-92.1,53.2c-4.1,2.4-11.2,2.1-16-.7l-175.6-101.4C8.1,151.09485,6.8,149.39486,6.5,147.79487Z" transform="translate(0 -4.77699)" style="fill:#b3e9ff"/><path d="M186.3,251.79487l-172.3-99.5c-4.6-2.6-5.1-6.6-1.1-8.9l88.8-51.3c4-2.3,10.9-2,15.5.6l172.3,99.5c4.6,2.6,5.1,6.6,1.1,8.9l-88.8,51.3C197.8,254.69486,190.9,254.39486,186.3,251.79487Z" transform="translate(0 -4.77699)" style="fill:#d4d6d8"/><path d="M186.2,249.49486l-172.3-99.4c-4.6-2.6-5.1-6.6-1.1-8.9l88.8-51.3c4-2.3,10.9-2,15.5.6l172.3,99.5c4.6,2.6,5.1,6.6,1.1,8.9l-88.8,51.3C197.7,252.49486,190.8,252.19486,186.2,249.49486Z" transform="translate(0 -4.77699)" style="fill:#e8e8e8"/><path d="M96.6,73.69486c4.2-2.4,11.5-2.1,16.3.7l181.5,104.8c4.8,2.8,5.3,7,1.2,9.4l-93.5,54c-4.2,2.4-11.5,2.1-16.3-.7l-181.5-104.8c-4.8-2.8-5.3-7-1.2-9.4" transform="translate(0 -4.77699)" style="fill:#f2f2f2"/><path d="M96.5,73.69486c4.2-2.5,11.7-2.1,16.6.7l181.5,104.8c2.6,1.5,4.1,3.6,4.1,5.6,0,1.7-1.1,3.2-3,4.3l-93.5,54a14.98193,14.98193,0,0,1-7.2,1.7,20.40358,20.40358,0,0,1-9.4-2.3l-181.5-104.8c-2.6-1.5-4.1-3.6-4.1-5.6,0-1.7,1.1-3.2,3-4.3m.3.5c-1.7,1-2.7,2.3-2.7,3.8,0,1.8,1.4,3.6,3.8,5.1l181.6,104.7c4.7,2.7,11.9,3,16,.7l93.5-54c1.7-1,2.7-2.3,2.7-3.8,0-1.8-1.4-3.6-3.8-5.1l-181.6-104.8c-4.7-2.7-11.9-3-16-.7" transform="translate(0 -4.77699)" style="fill:#b3e9ff"/><path d="M169.8,226.59485l4.4-2.5c.7-.4.8-1,.2-1.3l-10.1-5.8a2.65705,2.65705,0,0,0-2.3.1l-4.4,2.5c-.7.4-.8,1-.2,1.3l10.1,5.8A2.65706,2.65706,0,0,0,169.8,226.59485Z" transform="translate(0 -4.77699)" style="fill:#fff"/><path d="M255.4,194.29487l-10.1-5.8a1.55509,1.55509,0,0,1-.6-.8,1.20409,1.20409,0,0,1,.7-1l4.4-2.5a2.67772,2.67772,0,0,1,2.6-.1l10.1,5.8a1.5552,1.5552,0,0,1,.6.8,1.20406,1.20406,0,0,1-.7,1l-4.4,2.5a3.70728,3.70728,0,0,1-1.5.4A2.016,2.016,0,0,1,255.4,194.29487Zm-5.3-9.7-4.4,2.5c-.3.2-.4.3-.4.5a.31931.31931,0,0,0,.3.3l10.1,5.8a2.02933,2.02933,0,0,0,2-.1l4.4-2.5c.3-.2.4-.3.4-.5a.31932.31932,0,0,0-.3-.3l-10.1-5.8a2.9197,2.9197,0,0,0-.9-.2A2.60756,2.60756,0,0,0,250.1,184.59485Z" transform="translate(0 -4.77699)" style="fill:#fff"/><path d="M230.6,169.59485l4.4-2.5c.7-.4.8-1,.2-1.3l-10.1-5.8a2.657,2.657,0,0,0-2.3.1l-4.4,2.5c-.7.4-.8,1-.2,1.3l10.1,5.8A2.65709,2.65709,0,0,0,230.6,169.59485Z" transform="translate(0 -4.77699)" style="fill:#fff"/><path d="M219.4,176.19486l4.4-2.5c.7-.4.8-1,.2-1.3l-10.1-5.8a2.65706,2.65706,0,0,0-2.3.1l-4.4,2.5c-.7.4-.8,1-.2,1.3l10.1,5.8A2.6572,2.6572,0,0,0,219.4,176.19486Z" transform="translate(0 -4.77699)" style="fill:#fff"/><path d="M208.2,182.69486l4.4-2.5c.7-.4.8-1,.2-1.3l-10.1-5.8a2.65706,2.65706,0,0,0-2.3.1l-4.4,2.5c-.7.4-.8,1-.2,1.3l10.1,5.8A2.36784,2.36784,0,0,0,208.2,182.69486Z" transform="translate(0 -4.77699)" style="fill:#fff"/><path d="M185.7,195.79487l4.4-2.5c.7-.4.8-1,.2-1.3l-10.1-5.8a2.65706,2.65706,0,0,0-2.3.1l-4.4,2.5c-.7.4-.8,1-.2,1.3l10.1,5.8A2.36007,2.36007,0,0,0,185.7,195.79487Z" transform="translate(0 -4.77699)" style="fill:#fff"/><path d="M174.5,202.39486l4.4-2.5c.7-.4.8-1,.2-1.3l-10.1-5.8a2.65707,2.65707,0,0,0-2.3.1l-4.4,2.5c-.7.4-.8,1-.2,1.3l10.1,5.8A2.66809,2.66809,0,0,0,174.5,202.39486Z" transform="translate(0 -4.77699)" style="fill:#fff"/><path d="M163.2,208.99486l4.4-2.5c.7-.4.8-1,.2-1.3l-10.1-5.8a2.657,2.657,0,0,0-2.3.1l-4.4,2.5c-.7.4-.8,1-.2,1.3l10.1,5.8A2.65715,2.65715,0,0,0,163.2,208.99486Z" transform="translate(0 -4.77699)" style="fill:#fff"/><path d="M152,215.49486l4.4-2.5c.7-.4.8-1,.2-1.3l-10.1-5.8a2.657,2.657,0,0,0-2.3.1l-4.4,2.5c-.7.4-.8,1-.2,1.3l10.1,5.8A2.36006,2.36006,0,0,0,152,215.49486Z" transform="translate(0 -4.77699)" style="fill:#fff"/><path d="M248.4,180.89486l4.4-2.5c.7-.4.8-1,.2-1.3l-10.1-5.8a2.65706,2.65706,0,0,0-2.3.1l-4.4,2.5c-.7.4-.8,1-.2,1.3l10.1,5.8A2.657,2.657,0,0,0,248.4,180.89486Z" transform="translate(0 -4.77699)" style="fill:#fff"/><path d="M225.9,193.99486l4.4-2.5c.7-.4.8-1,.2-1.3l-10.1-5.8a2.657,2.657,0,0,0-2.3.1l-4.4,2.5c-.7.4-.8,1-.2,1.3l10.1,5.8A2.64141,2.64141,0,0,0,225.9,193.99486Z" transform="translate(0 -4.77699)" style="fill:#fff"/><path d="M214.7,200.59485l4.4-2.5c.7-.4.8-1,.2-1.3l-10.1-5.8a2.657,2.657,0,0,0-2.3.1l-4.4,2.5c-.7.4-.8,1-.2,1.3l10.1,5.8A2.65708,2.65708,0,0,0,214.7,200.59485Z" transform="translate(0 -4.77699)" style="fill:#fff"/><path d="M203.5,207.09485l4.4-2.5c.7-.4.8-1,.2-1.3l-10.1-5.8a2.657,2.657,0,0,0-2.3.1l-4.4,2.5c-.7.4-.8,1-.2,1.3l10.1,5.8A2.36,2.36,0,0,0,203.5,207.09485Z" transform="translate(0 -4.77699)" style="fill:#fff"/><path d="M181,220.19486l4.4-2.5c.7-.4.8-1,.2-1.3l-10.1-5.8a2.65707,2.65707,0,0,0-2.3.1l-4.4,2.5c-.7.4-.8,1-.2,1.3l10.1,5.8A2.36008,2.36008,0,0,0,181,220.19486Z" transform="translate(0 -4.77699)" style="fill:#fff"/><path d="M257.9,193.99486l4.4-2.5c.7-.4.8-1,.2-1.3l-10.1-5.8a2.657,2.657,0,0,0-2.3.1l-4.4,2.5c-.7.4-.8,1-.2,1.3l10.1,5.8A2.66815,2.66815,0,0,0,257.9,193.99486Z" transform="translate(0 -4.77699)" style="fill:#fff"/><path d="M246.6,200.59485l4.4-2.5c.7-.4.8-1,.2-1.3l-10.1-5.8a2.657,2.657,0,0,0-2.3.1l-4.4,2.5c-.7.4-.8,1-.2,1.3l10.1,5.8A2.65709,2.65709,0,0,0,246.6,200.59485Z" transform="translate(0 -4.77699)" style="fill:#fff"/><path d="M235.4,207.09485l4.4-2.5c.7-.4.8-1,.2-1.3l-10.1-5.8a2.657,2.657,0,0,0-2.3.1l-4.4,2.5c-.7.4-.8,1-.2,1.3l10.1,5.8A2.36,2.36,0,0,0,235.4,207.09485Z" transform="translate(0 -4.77699)" style="fill:#fff"/><path d="M224.2,213.69486l4.4-2.5c.7-.4.8-1,.2-1.3l-10.1-5.8a2.65706,2.65706,0,0,0-2.3.1l-4.4,2.5c-.7.4-.8,1-.2,1.3l10.1,5.8A2.66825,2.66825,0,0,0,224.2,213.69486Z" transform="translate(0 -4.77699)" style="fill:#fff"/><path d="M212.9,220.19486l4.4-2.5c.7-.4.8-1,.2-1.3l-10.1-5.8a2.65706,2.65706,0,0,0-2.3.1l-4.4,2.5c-.7.4-.8,1-.2,1.3l10.1,5.8A2.36008,2.36008,0,0,0,212.9,220.19486Z" transform="translate(0 -4.77699)" style="fill:#fff"/><path d="M201.7,226.79487l4.4-2.5c.7-.4.8-1,.2-1.3l-10.1-5.8a2.65706,2.65706,0,0,0-2.3.1l-4.4,2.5c-.7.4-.8,1-.2,1.3l10.1,5.8A2.65718,2.65718,0,0,0,201.7,226.79487Z" transform="translate(0 -4.77699)" style="fill:#fff"/><path d="M190.5,233.39486l4.4-2.5c.7-.4.8-1,.2-1.3l-10.1-5.8a2.65707,2.65707,0,0,0-2.3.1l-4.4,2.5c-.7.4-.8,1-.2,1.3l10.1,5.8A2.657,2.657,0,0,0,190.5,233.39486Z" transform="translate(0 -4.77699)" style="fill:#fff"/><path d="M228.1,169.79487l-10.1-5.8a1.55514,1.55514,0,0,1-.6-.8,1.20411,1.20411,0,0,1,.7-1l4.4-2.5a2.67772,2.67772,0,0,1,2.6-.1l10.1,5.8a1.55507,1.55507,0,0,1,.6.8,1.2041,1.2041,0,0,1-.7,1l-4.4,2.5a3.70728,3.70728,0,0,1-1.5.4C228.9,169.99486,228.5,169.89486,228.1,169.79487Zm-5.2-9.8-4.4,2.5c-.3.2-.4.3-.4.5a.3193.3193,0,0,0,.3.3l10.1,5.8a2.324,2.324,0,0,0,2-.1l4.4-2.5c.3-.2.4-.3.4-.5a.3193.3193,0,0,0-.3-.3l-10.1-5.8a2.91957,2.91957,0,0,0-.9-.2A2.016,2.016,0,0,0,222.9,159.99486Z" transform="translate(0 -4.77699)" style="fill:#fff"/><path d="M216.9,176.29487l-10.1-5.8a1.55509,1.55509,0,0,1-.6-.8,1.20409,1.20409,0,0,1,.7-1l4.4-2.5a2.67772,2.67772,0,0,1,2.6-.1l10.1,5.8a1.55509,1.55509,0,0,1,.6.8,1.20409,1.20409,0,0,1-.7,1l-4.4,2.5a3.70728,3.70728,0,0,1-1.5.4A2.60739,2.60739,0,0,1,216.9,176.29487Zm-4.1-10a2.66261,2.66261,0,0,0-1.2.3l-4.4,2.5c-.3.2-.4.3-.4.5a.3193.3193,0,0,0,.3.3l10.1,5.8a2.02937,2.02937,0,0,0,2-.1l4.4-2.5c.3-.2.4-.3.4-.5a.3193.3193,0,0,0-.3-.3l-10.1-5.8a1.884,1.884,0,0,0-.8-.2Z" transform="translate(0 -4.77699)" style="fill:#fff"/><path d="M205.7,182.89486l-10.1-5.8a1.55514,1.55514,0,0,1-.6-.8,1.20411,1.20411,0,0,1,.7-1l4.4-2.5a2.6777,2.6777,0,0,1,2.6-.1l10.1,5.8a1.55507,1.55507,0,0,1,.6.8,1.2041,1.2041,0,0,1-.7,1l-4.4,2.5a3.70728,3.70728,0,0,1-1.5.4A2.01572,2.01572,0,0,1,205.7,182.89486Zm-5.3-9.7-4.4,2.5c-.3.2-.4.3-.4.5a.31929.31929,0,0,0,.3.3l10.1,5.8a2.02937,2.02937,0,0,0,2-.1l4.4-2.5c.3-.2.4-.3.4-.5a.31929.31929,0,0,0-.3-.3l-10.1-5.8a2.91984,2.91984,0,0,0-.9-.2A2.60731,2.60731,0,0,0,200.4,173.19486Z" transform="translate(0 -4.77699)" style="fill:#fff"/><path d="M194.4,189.39486l-10.1-5.8a1.55509,1.55509,0,0,1-.6-.8,1.20409,1.20409,0,0,1,.7-1l4.4-2.5a2.67772,2.67772,0,0,1,2.6-.1l10.1,5.8a1.55509,1.55509,0,0,1,.6.8,1.20409,1.20409,0,0,1-.7,1l-4.4,2.5a3.70728,3.70728,0,0,1-1.5.4A2.6071,2.6071,0,0,1,194.4,189.39486Zm.3-.5a2.32406,2.32406,0,0,0,2-.1l4.4-2.5c.3-.2.4-.3.4-.5a.31929.31929,0,0,0-.3-.3l-10.1-5.8a2.32405,2.32405,0,0,0-2,.1l-4.4,2.5c-.3.2-.4.3-.4.5a.31929.31929,0,0,0,.3.3l10.1,5.8-.1.3.1-.3Z" transform="translate(0 -4.77699)" style="fill:#0d5e9d"/><path d="M183.2,195.99486l-10.1-5.8a1.55518,1.55518,0,0,1-.6-.8,1.20409,1.20409,0,0,1,.7-1l4.4-2.5a2.6777,2.6777,0,0,1,2.6-.1l10.1,5.8a1.55509,1.55509,0,0,1,.6.8,1.2041,1.2041,0,0,1-.7,1l-4.4,2.5a3.70744,3.70744,0,0,1-1.5.4A2.60694,2.60694,0,0,1,183.2,195.99486Zm-4.1-10a2.66263,2.66263,0,0,0-1.2.3l-4.4,2.5c-.3.2-.4.3-.4.5a.31931.31931,0,0,0,.3.3l10.1,5.8a2.02935,2.02935,0,0,0,2-.1l4.4-2.5c.3-.2.4-.3.4-.5a.31931.31931,0,0,0-.3-.3l-10.1-5.8a1.88386,1.88386,0,0,0-.8-.2Z" transform="translate(0 -4.77699)" style="fill:#fff"/><path d="M172,202.59485l-10.1-5.8a1.55511,1.55511,0,0,1-.6-.8,1.20407,1.20407,0,0,1,.7-1l4.4-2.5a2.6777,2.6777,0,0,1,2.6-.1l10.1,5.8a1.55517,1.55517,0,0,1,.6.8,1.20411,1.20411,0,0,1-.7,1l-4.4,2.5a3.70748,3.70748,0,0,1-1.5.4C172.7,202.79487,172.3,202.69486,172,202.59485Zm-4.1-10a2.66262,2.66262,0,0,0-1.2.3l-4.4,2.5c-.3.2-.4.3-.4.5a.31931.31931,0,0,0,.3.3l10.1,5.8a2.02935,2.02935,0,0,0,2-.1l4.4-2.5c.3-.2.4-.3.4-.5a.31931.31931,0,0,0-.3-.3l-10.1-5.8a1.07749,1.07749,0,0,0-.8-.2Z" transform="translate(0 -4.77699)" style="fill:#fff"/><path d="M160.8,209.09485l-10.1-5.8a1.55513,1.55513,0,0,1-.6-.8,1.20407,1.20407,0,0,1,.7-1l4.4-2.5a2.67771,2.67771,0,0,1,2.6-.1l10.1,5.8a1.55511,1.55511,0,0,1,.6.8,1.20409,1.20409,0,0,1-.7,1l-4.4,2.5a3.70744,3.70744,0,0,1-1.5.4A2.01553,2.01553,0,0,1,160.8,209.09485Zm-4.1-10a2.66263,2.66263,0,0,0-1.2.3l-4.4,2.5c-.3.2-.4.3-.4.5a.31931.31931,0,0,0,.3.3l10.1,5.8a2.02935,2.02935,0,0,0,2-.1l4.4-2.5c.3-.2.4-.3.4-.5a.31931.31931,0,0,0-.3-.3l-10.1-5.8a1.884,1.884,0,0,0-.8-.2Z" transform="translate(0 -4.77699)" style="fill:#fff"/><path d="M149.5,215.69486l-10.1-5.8a1.55509,1.55509,0,0,1-.6-.8,1.2041,1.2041,0,0,1,.7-1l4.4-2.5a2.67767,2.67767,0,0,1,2.6-.1l10.1,5.8a1.55518,1.55518,0,0,1,.6.8,1.20409,1.20409,0,0,1-.7,1l-4.4,2.5a3.70733,3.70733,0,0,1-1.5.4A2.607,2.607,0,0,1,149.5,215.69486Zm-4.1-10a2.66274,2.66274,0,0,0-1.2.3l-4.4,2.5c-.3.2-.4.3-.4.5a.31931.31931,0,0,0,.3.3l10.1,5.8a2.02937,2.02937,0,0,0,2-.1l4.4-2.5c.3-.2.4-.3.4-.5a.31931.31931,0,0,0-.3-.3l-10.1-5.8a1.07749,1.07749,0,0,0-.8-.2Z" transform="translate(0 -4.77699)" style="fill:#fff"/><path d="M245.9,180.99486l-10.1-5.8a1.55513,1.55513,0,0,1-.6-.8,1.20407,1.20407,0,0,1,.7-1l4.4-2.5a2.67772,2.67772,0,0,1,2.6-.1l10.1,5.8a1.55511,1.55511,0,0,1,.6.8,1.20409,1.20409,0,0,1-.7,1l-4.4,2.5a3.70744,3.70744,0,0,1-1.5.4A2.607,2.607,0,0,1,245.9,180.99486Zm-5.2-9.7-4.4,2.5c-.3.2-.4.3-.4.5a.31931.31931,0,0,0,.3.3l10.1,5.8a2.02935,2.02935,0,0,0,2-.1l4.4-2.5c.3-.2.4-.3.4-.5a.31931.31931,0,0,0-.3-.3l-10.1-5.8a2.9197,2.9197,0,0,0-.9-.2A2.01565,2.01565,0,0,0,240.7,171.29487Z" transform="translate(0 -4.77699)" style="fill:#fff"/><path d="M234.7,187.59485l-10.1-5.8a1.55518,1.55518,0,0,1-.6-.8,1.20409,1.20409,0,0,1,.7-1l4.4-2.5a2.6777,2.6777,0,0,1,2.6-.1l10.1,5.8a1.55509,1.55509,0,0,1,.6.8,1.2041,1.2041,0,0,1-.7,1l-4.4,2.5a3.70744,3.70744,0,0,1-1.5.4A2.01547,2.01547,0,0,1,234.7,187.59485Zm-4.1-10a2.66263,2.66263,0,0,0-1.2.3l-4.4,2.5c-.3.2-.4.3-.4.5a.31931.31931,0,0,0,.3.3l10.1,5.8a2.02935,2.02935,0,0,0,2-.1l4.4-2.5c.3-.2.4-.3.4-.5a.31931.31931,0,0,0-.3-.3l-10.1-5.8a1.07751,1.07751,0,0,0-.8-.2Z" transform="translate(0 -4.77699)" style="fill:#0d5e9d"/><path d="M223.5,194.09485l-10.1-5.8a1.55511,1.55511,0,0,1-.6-.8,1.20407,1.20407,0,0,1,.7-1l4.4-2.5a2.6777,2.6777,0,0,1,2.6-.1l10.1,5.8a1.55517,1.55517,0,0,1,.6.8,1.20411,1.20411,0,0,1-.7,1l-4.4,2.5a3.70748,3.70748,0,0,1-1.5.4A2.0155,2.0155,0,0,1,223.5,194.09485Zm-5.3-9.7-4.4,2.5c-.3.2-.4.3-.4.5a.31931.31931,0,0,0,.3.3l10.1,5.8a2.02935,2.02935,0,0,0,2-.1l4.4-2.5c.3-.2.4-.3.4-.5a.31931.31931,0,0,0-.3-.3l-10.1-5.8a2.9197,2.9197,0,0,0-.9-.2A2.6073,2.6073,0,0,0,218.2,184.39486Z" transform="translate(0 -4.77699)" style="fill:#fff"/><path d="M212.2,200.69486l-10.1-5.8a1.55517,1.55517,0,0,1-.6-.8,1.20411,1.20411,0,0,1,.7-1l4.4-2.5a2.67767,2.67767,0,0,1,2.6-.1l10.1,5.8a1.55511,1.55511,0,0,1,.6.8,1.20407,1.20407,0,0,1-.7,1l-4.4,2.5a3.70729,3.70729,0,0,1-1.5.4A2.60709,2.60709,0,0,1,212.2,200.69486Zm-5.2-9.7-4.4,2.5c-.3.2-.4.3-.4.5a.31931.31931,0,0,0,.3.3l10.1,5.8a2.324,2.324,0,0,0,2-.1l4.4-2.5c.3-.2.4-.3.4-.5a.31931.31931,0,0,0-.3-.3l-10.1-5.8a2.91964,2.91964,0,0,0-.9-.2A2.01593,2.01593,0,0,0,207,190.99486Z" transform="translate(0 -4.77699)" style="fill:#fff"/><path d="M201,207.29487l-10.1-5.8a1.55507,1.55507,0,0,1-.6-.8,1.2041,1.2041,0,0,1,.7-1l4.4-2.5a2.6777,2.6777,0,0,1,2.6-.1l10.1,5.8a1.55514,1.55514,0,0,1,.6.8,1.20411,1.20411,0,0,1-.7,1l-4.4,2.5a3.70732,3.70732,0,0,1-1.5.4A6.14838,6.14838,0,0,1,201,207.29487Zm-5.3-9.7-4.4,2.5c-.3.2-.4.3-.4.5a.31931.31931,0,0,0,.3.3l10.1,5.8a2.324,2.324,0,0,0,2-.1l4.4-2.5c.3-.2.4-.3.4-.5a.31931.31931,0,0,0-.3-.3l-10.1-5.8a2.9197,2.9197,0,0,0-.9-.2A2.60771,2.60771,0,0,0,195.7,197.59485Z" transform="translate(0 -4.77699)" style="fill:#fff"/><path d="M189.8,213.79487l-10.1-5.8a1.55509,1.55509,0,0,1-.6-.8,1.20409,1.20409,0,0,1,.7-1l4.4-2.5a2.67771,2.67771,0,0,1,2.6-.1l10.1,5.8a1.55509,1.55509,0,0,1,.6.8,1.20409,1.20409,0,0,1-.7,1l-4.4,2.5a3.70728,3.70728,0,0,1-1.5.4A2.016,2.016,0,0,1,189.8,213.79487Zm-4.1-10a2.66262,2.66262,0,0,0-1.2.3l-4.4,2.5c-.3.2-.4.3-.4.5a.3193.3193,0,0,0,.3.3l10.1,5.8a2.02937,2.02937,0,0,0,2-.1l4.4-2.5c.3-.2.4-.3.4-.5a.3193.3193,0,0,0-.3-.3l-10.1-5.8a1.88389,1.88389,0,0,0-.8-.2Z" transform="translate(0 -4.77699)" style="fill:#0d5e9d"/><path d="M178.5,220.39486l-10.1-5.8a1.55507,1.55507,0,0,1-.6-.8,1.2041,1.2041,0,0,1,.7-1l4.4-2.5a2.6777,2.6777,0,0,1,2.6-.1l10.1,5.8a1.55514,1.55514,0,0,1,.6.8,1.20411,1.20411,0,0,1-.7,1l-4.4,2.5a3.70732,3.70732,0,0,1-1.5.4A2.607,2.607,0,0,1,178.5,220.39486Zm-5.2-9.7-4.4,2.5c-.3.2-.4.3-.4.5a.31929.31929,0,0,0,.3.3l10.1,5.8a2.02937,2.02937,0,0,0,2-.1l4.4-2.5c.3-.2.4-.3.4-.5a.31929.31929,0,0,0-.3-.3l-10.1-5.8a2.91984,2.91984,0,0,0-.9-.2A2.01587,2.01587,0,0,0,173.3,210.69486Z" transform="translate(0 -4.77699)" style="fill:#fff"/><path d="M167.3,226.99486l-10.1-5.8a1.55513,1.55513,0,0,1-.6-.8,1.20407,1.20407,0,0,1,.7-1l4.4-2.5a2.67771,2.67771,0,0,1,2.6-.1l10.1,5.8a1.55511,1.55511,0,0,1,.6.8,1.20409,1.20409,0,0,1-.7,1l-4.4,2.5a3.70744,3.70744,0,0,1-1.5.4C168.1,227.19486,167.7,227.09485,167.3,226.99486Zm-4.1-10a2.66263,2.66263,0,0,0-1.2.3l-4.4,2.5c-.3.2-.4.3-.4.5a.31931.31931,0,0,0,.3.3l10.1,5.8a2.02935,2.02935,0,0,0,2-.1l4.4-2.5c.3-.2.4-.3.4-.5a.31931.31931,0,0,0-.3-.3l-10.1-5.8a.77772.77772,0,0,0-.8-.2Z" transform="translate(0 -4.77699)" style="fill:#fff"/><path d="M196.9,185.99486l4.4-2.5c.7-.4.8-1,.2-1.3l-10.1-5.8a2.657,2.657,0,0,0-2.3.1l-4.4,2.5c-.7.4-.8,1-.2,1.3l10.1,5.8A2.65713,2.65713,0,0,0,196.9,185.99486Z" transform="translate(0 -4.77699)" style="fill:#0d5e9d"/><path d="M244.1,200.69486l-10.1-5.8a1.55517,1.55517,0,0,1-.6-.8,1.20411,1.20411,0,0,1,.7-1l4.4-2.5a2.67769,2.67769,0,0,1,2.6-.1l10.1,5.8a1.55511,1.55511,0,0,1,.6.8,1.20407,1.20407,0,0,1-.7,1l-4.4,2.5a3.70729,3.70729,0,0,1-1.5.4A2.60694,2.60694,0,0,1,244.1,200.69486Zm-4-10a2.66275,2.66275,0,0,0-1.2.3l-4.4,2.5c-.3.2-.4.3-.4.5a.31931.31931,0,0,0,.3.3l10.1,5.8a2.02937,2.02937,0,0,0,2-.1l4.4-2.5c.3-.2.4-.3.4-.5a.31931.31931,0,0,0-.3-.3l-10.1-5.8a1.88415,1.88415,0,0,0-.8-.2Z" transform="translate(0 -4.77699)" style="fill:#fff"/><path d="M232.9,207.29487l-10.1-5.8a1.55509,1.55509,0,0,1-.6-.8,1.20409,1.20409,0,0,1,.7-1l4.4-2.5a2.67772,2.67772,0,0,1,2.6-.1l10.1,5.8a1.55509,1.55509,0,0,1,.6.8,1.20409,1.20409,0,0,1-.7,1l-4.4,2.5a3.70728,3.70728,0,0,1-1.5.4A6.14905,6.14905,0,0,1,232.9,207.29487Zm-5.2-9.7-4.4,2.5c-.3.2-.4.3-.4.5a.31931.31931,0,0,0,.3.3l10.1,5.8a2.324,2.324,0,0,0,2-.1l4.4-2.5c.3-.2.4-.3.4-.5a.31931.31931,0,0,0-.3-.3l-10.1-5.8a2.9197,2.9197,0,0,0-.9-.2A2.01607,2.01607,0,0,0,227.7,197.59485Z" transform="translate(0 -4.77699)" style="fill:#fff"/><path d="M221.7,213.79487l-10.1-5.8a1.55514,1.55514,0,0,1-.6-.8,1.20411,1.20411,0,0,1,.7-1l4.4-2.5a2.6777,2.6777,0,0,1,2.6-.1l10.1,5.8a1.55507,1.55507,0,0,1,.6.8,1.2041,1.2041,0,0,1-.7,1l-4.4,2.5a3.70728,3.70728,0,0,1-1.5.4A2.01589,2.01589,0,0,1,221.7,213.79487Zm-5.3-9.7-4.4,2.6c-.3.2-.4.3-.4.5a.31929.31929,0,0,0,.3.3l10.1,5.8a2.02937,2.02937,0,0,0,2-.1l4.4-2.5c.3-.2.4-.3.4-.5a.31929.31929,0,0,0-.3-.3l-10.1-5.8a2.91984,2.91984,0,0,0-.9-.2A1.54027,1.54027,0,0,0,216.4,204.09485Z" transform="translate(0 -4.77699)" style="fill:#fff"/><path d="M210.5,220.39486l-10.1-5.8a1.55507,1.55507,0,0,1-.6-.8,1.2041,1.2041,0,0,1,.7-1l4.4-2.5a2.6777,2.6777,0,0,1,2.6-.1l10.1,5.8a1.55514,1.55514,0,0,1,.6.8,1.20411,1.20411,0,0,1-.7,1l-4.4,2.5a3.70732,3.70732,0,0,1-1.5.4A2.01575,2.01575,0,0,1,210.5,220.39486Zm-5.3-9.7-4.4,2.5c-.3.2-.4.3-.4.5a.3193.3193,0,0,0,.3.3l10.1,5.8a2.02937,2.02937,0,0,0,2-.1l4.4-2.5c.3-.2.4-.3.4-.5a.3193.3193,0,0,0-.3-.3l-10.1-5.8a2.92,2.92,0,0,0-.9-.2A2.60727,2.60727,0,0,0,205.2,210.69486Z" transform="translate(0 -4.77699)" style="fill:#fff"/><path d="M199.2,226.99486l-10.1-5.8a1.55518,1.55518,0,0,1-.6-.8,1.20409,1.20409,0,0,1,.7-1l4.4-2.5a2.6777,2.6777,0,0,1,2.6-.1l10.1,5.8a1.55509,1.55509,0,0,1,.6.8,1.2041,1.2041,0,0,1-.7,1l-4.4,2.5a3.70744,3.70744,0,0,1-1.5.4C200,227.19486,199.6,227.09485,199.2,226.99486Zm-4.1-10a2.66263,2.66263,0,0,0-1.2.3l-4.4,2.5c-.3.2-.4.3-.4.5a.31931.31931,0,0,0,.3.3l10.1,5.8a2.02935,2.02935,0,0,0,2-.1l4.4-2.5c.3-.2.4-.3.4-.5a.31931.31931,0,0,0-.3-.3l-10.1-5.8a.77774.77774,0,0,0-.8-.2Z" transform="translate(0 -4.77699)" style="fill:#fff"/><path d="M237.2,184.79487l4.4-2.5c.7-.4.8-1,.2-1.3l-10.1-5.8a2.65706,2.65706,0,0,0-2.3.1l-4.4,2.5c-.7.4-.8,1-.2,1.3l10.1,5.8A2.65718,2.65718,0,0,0,237.2,184.79487Z" transform="translate(0 -4.77699)" style="fill:#0d5e9d"/><path d="M192.8,211.19486l4.4-2.5c.7-.4.8-1,.2-1.3l-10.1-5.8a2.65709,2.65709,0,0,0-2.3.1l-4.4,2.5c-.7.4-.8,1-.2,1.3l10.1,5.8A2.6572,2.6572,0,0,0,192.8,211.19486Z" transform="translate(0 -4.77699)" style="fill:#0d5e9d"/><path d="M188,233.49486l-10.1-5.8a1.55511,1.55511,0,0,1-.6-.8,1.20407,1.20407,0,0,1,.7-1l4.4-2.5a2.6777,2.6777,0,0,1,2.6-.1l10.1,5.8a1.55517,1.55517,0,0,1,.6.8,1.20411,1.20411,0,0,1-.7,1l-4.4,2.5a3.70748,3.70748,0,0,1-1.5.4A2.60687,2.60687,0,0,1,188,233.49486Zm-4.1-10a2.66262,2.66262,0,0,0-1.2.3l-4.4,2.5c-.3.2-.4.3-.4.5a.31931.31931,0,0,0,.3.3l10.1,5.8a2.02935,2.02935,0,0,0,2-.1l4.4-2.5c.3-.2.4-.3.4-.5a.31931.31931,0,0,0-.3-.3l-10.1-5.8a1.88375,1.88375,0,0,0-.8-.2Z" transform="translate(0 -4.77699)" style="fill:#fff"/><path d="M115.5,191.69486h0c-5.1-3-5.7-7.4-1.2-10l65.2-37.6c4.4-2.6,12.2-2.2,17.3.7h0c5.1,3,5.7,7.4,1.2,10l-65.2,37.6C128.4,194.99486,120.7,194.69486,115.5,191.69486Z" transform="translate(0 -4.77699)" style="opacity:0.07000000029802322;isolation:isolate;fill:url(#radial-gradient)"/><path d="M116,187.19486h0c-5.1-3-5.7-7.4-1.2-10l65.2-37.6c4.4-2.6,12.2-2.2,17.3.7h0c5.1,3,5.7,7.4,1.2,10l-65.2,37.6C128.8,190.49486,121.1,190.19486,116,187.19486Z" transform="translate(0 -4.77699)" style="fill:#fff;opacity:0.5;isolation:isolate"/><path d="M115.9,187.39486c-2.8-1.6-4.3-3.7-4.3-5.8,0-1.8,1.1-3.4,3.1-4.5l65.2-37.6c4.5-2.6,12.4-2.3,17.5.7,2.8,1.6,4.3,3.7,4.3,5.8,0,1.8-1.1,3.4-3.1,4.5l-65.2,37.6a16.97849,16.97849,0,0,1-7.6,1.8A21.077,21.077,0,0,1,115.9,187.39486Zm82.4-37.3c1.9-1.1,2.9-2.6,2.9-4.2,0-2-1.5-4-4.1-5.5-5.1-2.9-12.7-3.2-17.1-.7l-65.2,37.6c-1.9,1.1-2.9,2.6-2.9,4.2,0,2,1.5,4,4.1,5.5,5.1,2.9,12.7,3.2,17.1.7Z" transform="translate(0 -4.77699)" style="fill:#fff"/><path d="M121.2,184.29487a1.167,1.167,0,0,1-.6-.6,1.64041,1.64041,0,0,1,.6-2.3,6.17667,6.17667,0,0,1,5.9,0,1.167,1.167,0,0,1,.6.6,1.64043,1.64043,0,0,1-.6,2.3,6.17584,6.17584,0,0,1-5.9,0Z" transform="translate(0 -4.77699)" style="fill:#454c50"/><path d="M121.4,184.49486h0a1.98085,1.98085,0,0,1-1.1-1.1,1.86666,1.86666,0,0,1,1.1-2.3,6.35423,6.35423,0,0,1,5.7,0,1.9809,1.9809,0,0,1,1.1,1.1,1.86665,1.86665,0,0,1-1.1,2.3,5.547,5.547,0,0,1-2.8.7A5.42606,5.42606,0,0,1,121.4,184.49486Zm2.8-3.8a6.26389,6.26389,0,0,0-2.7.6,1.65087,1.65087,0,0,0-1,1,1.46139,1.46139,0,0,0,1,1.9h0a5.73756,5.73756,0,0,0,5.4,0,1.6509,1.6509,0,0,0,1-1,1.46139,1.46139,0,0,0-1-1.9,6.6,6.6,0,0,0-2.7-.6Z" transform="translate(0 -4.77699)" style="fill:#454c50"/><path d="M129.8,178.29487a1.64043,1.64043,0,0,1,.6-2.3,6.17665,6.17665,0,0,1,5.9,0,1.16707,1.16707,0,0,1,.6.6,1.64041,1.64041,0,0,1-.6,2.3,6.17665,6.17665,0,0,1-5.9,0A.9016.9016,0,0,1,129.8,178.29487Z" transform="translate(0 -4.77699)" style="fill:#454c50"/><path d="M130.5,177.39486h0a1.981,1.981,0,0,1-1.1-1.1,1.86665,1.86665,0,0,1,1.1-2.3,6.35417,6.35417,0,0,1,5.7,0,1.98088,1.98088,0,0,1,1.1,1.1,1.86665,1.86665,0,0,1-1.1,2.3,5.547,5.547,0,0,1-2.8.7A5.918,5.918,0,0,1,130.5,177.39486Zm.2-3.2a1.65087,1.65087,0,0,0-1,1,1.46138,1.46138,0,0,0,1,1.9h0a5.73748,5.73748,0,0,0,5.4,0,1.65087,1.65087,0,0,0,1-1,1.46139,1.46139,0,0,0-1-1.9,4.89521,4.89521,0,0,0-2.7-.6A5.954,5.954,0,0,0,130.7,174.19486Z" transform="translate(0 -4.77699)" style="fill:#454c50"/><path d="M154.3,158.09485a1.98088,1.98088,0,0,1-1.1-1.1,1.86665,1.86665,0,0,1,1.1-2.3,6.35423,6.35423,0,0,1,5.7,0,1.981,1.981,0,0,1,1.1,1.1,1.86665,1.86665,0,0,1-1.1,2.3,5.54693,5.54693,0,0,1-2.8.7A5.91781,5.91781,0,0,1,154.3,158.09485Zm2.9-3.8a6.26388,6.26388,0,0,0-2.7.6,1.6509,1.6509,0,0,0-1,1,1.4614,1.4614,0,0,0,1,1.9,5.73754,5.73754,0,0,0,5.4,0,1.65087,1.65087,0,0,0,1-1,1.46139,1.46139,0,0,0-1-1.9,6.59991,6.59991,0,0,0-2.7-.6Z" transform="translate(0 -4.77699)" style="fill:#454c50"/><path d="M155.5,164.79487a1.1671,1.1671,0,0,1-.6-.6,1.64042,1.64042,0,0,1,.6-2.3,6.17665,6.17665,0,0,1,5.9,0,1.167,1.167,0,0,1,.6.6,1.64042,1.64042,0,0,1-.6,2.3,6.17582,6.17582,0,0,1-5.9,0Z" transform="translate(0 -4.77699)" style="fill:#454c50"/><path d="M163.5,148.29487h0a1.981,1.981,0,0,1-1.1-1.1,1.86665,1.86665,0,0,1,1.1-2.3,6.35417,6.35417,0,0,1,5.7,0,1.98088,1.98088,0,0,1,1.1,1.1,1.86665,1.86665,0,0,1-1.1,2.3,5.547,5.547,0,0,1-2.8.7A5.66417,5.66417,0,0,1,163.5,148.29487Zm2.8-3.8a6.26388,6.26388,0,0,0-2.7.6,1.65087,1.65087,0,0,0-1,1,1.46138,1.46138,0,0,0,1,1.9h0a5.73748,5.73748,0,0,0,5.4,0,1.65087,1.65087,0,0,0,1-1,1.46139,1.46139,0,0,0-1-1.9,6.26389,6.26389,0,0,0-2.7-.6Z" transform="translate(0 -4.77699)" style="fill:#454c50"/><path d="M164.4,158.49486a1.64042,1.64042,0,0,1,.6-2.3,6.17665,6.17665,0,0,1,5.9,0,1.167,1.167,0,0,1,.6.6,1.64041,1.64041,0,0,1-.6,2.3,6.17665,6.17665,0,0,1-5.9,0A.90161.90161,0,0,1,164.4,158.49486Z" transform="translate(0 -4.77699)" style="fill:#454c50"/><path d="M172.6,136.29487h0a1.981,1.981,0,0,1-1.1-1.1,1.86665,1.86665,0,0,1,1.1-2.3,6.35415,6.35415,0,0,1,5.7,0,1.9809,1.9809,0,0,1,1.1,1.1,1.86666,1.86666,0,0,1-1.1,2.3,5.54692,5.54692,0,0,1-2.8.7A5.918,5.918,0,0,1,172.6,136.29487Zm2.9-3.8a6.264,6.264,0,0,0-2.7.6,1.6509,1.6509,0,0,0-1,1,1.46139,1.46139,0,0,0,1,1.9h0a5.7375,5.7375,0,0,0,5.4,0,1.65087,1.65087,0,0,0,1-1,1.46139,1.46139,0,0,0-1-1.9,6.60008,6.60008,0,0,0-2.7-.6Z" transform="translate(0 -4.77699)" style="fill:#454c50"/><path d="M174,152.99486a1.64041,1.64041,0,0,1,.6-2.3,6.17665,6.17665,0,0,1,5.9,0,1.16707,1.16707,0,0,1,.6.6,1.64042,1.64042,0,0,1-.6,2.3,6.17665,6.17665,0,0,1-5.9,0A1.69778,1.69778,0,0,1,174,152.99486Z" transform="translate(0 -4.77699)" style="fill:#454c50"/><path d="M151.8,167.09485h0c1.5.9,1.7,2.2.4,3l-8,4.6a5.70406,5.70406,0,0,1-5.1-.2h0c-1.5-.9-1.7-2.2-.4-3l8-4.6A5.73064,5.73064,0,0,1,151.8,167.09485Z" transform="translate(0 -4.77699)" style="fill:#454c50"/><path d="M139,170.89486a2.25462,2.25462,0,0,1-1.3-1.8,1.504,1.504,0,0,1,1-1.4l8-4.6a5.82652,5.82652,0,0,1,5.3.2,2.25461,2.25461,0,0,1,1.3,1.8,1.504,1.504,0,0,1-1,1.4l-8,4.6a3.7176,3.7176,0,0,1-2.3.5A5.14014,5.14014,0,0,1,139,170.89486Zm9.9-8.1a4.41928,4.41928,0,0,0-2.2.5l-8,4.6a1.29941,1.29941,0,0,0-.8,1.2,1.98654,1.98654,0,0,0,1.2,1.6,5.50822,5.50822,0,0,0,5,.2l8-4.6a1.2994,1.2994,0,0,0,.8-1.2,1.98653,1.98653,0,0,0-1.2-1.6,7.22342,7.22342,0,0,0-2.8-.7Z" transform="translate(0 -4.77699)" style="fill:#454c50"/><path d="M296.7,181.59485c-4-2.2-7.6-7.1-8.9-12.2l-16.1-63.9c-1.9-7.6-8-13-12.4-13.1-2.2-.1-3.7,1.1-4.4,3.5l-4.5,14.4a5.2016,5.2016,0,0,1-2.9,3.4c-1.7.7-3.8.3-5.9-.9l-3.2-1.8c-3.8-2.1-7.2-6.8-8.6-11.6-2.1-7.3-7.8-12.2-11.9-12.5a4.24614,4.24614,0,0,0-4.4,2.7l-5,10.9a4.84037,4.84037,0,0,1-2.9,2.7,7.23293,7.23293,0,0,1-5.7-1l-3.7-2.1c-4.1-2.3-7.6-7.3-8.8-12.4l-16.1-69.1c-1.8-7.6-7.9-13.1-12.3-13.4a4.2463,4.2463,0,0,0-4.5,3.2l-24.5,69a5.10239,5.10239,0,0,1-2.9,3.2,7.261,7.261,0,0,1-5.9-.9l-12.6-7.1a.36737.36737,0,0,1-.1-.3c0-.1.2-.1.3-.1l12.6,7.1a6.6667,6.6667,0,0,0,5.5.9,4.57286,4.57286,0,0,0,2.7-2.9l24.5-69a4.7326,4.7326,0,0,1,4.9-3.5c4.5.3,10.8,5.9,12.7,13.7l16.1,69.1c1.2,5,4.7,10,8.6,12.2l3.7,2.1a6.65317,6.65317,0,0,0,5.3.9,4.28281,4.28281,0,0,0,2.6-2.5l5-10.9a4.78876,4.78876,0,0,1,4.8-2.9c4.2.3,10.1,5.3,12.3,12.8,1.4,4.7,4.7,9.2,8.4,11.3l3.2,1.8c2.1,1.2,4,1.5,5.6.9a4.90416,4.90416,0,0,0,2.7-3.1l4.5-14.4c.8-2.5,2.5-3.8,4.8-3.7,4.6.1,10.8,5.6,12.7,13.4l16.1,63.9c1.3,5,4.8,9.8,8.7,12,.1,0,.1.1.1.2Z" transform="translate(0 -4.77699)" style="fill:#42e8e0"/><path d="M296.7,181.59485c-4-2.2-7.6-7.1-8.9-12.2l-16.1-63.9c-1.9-7.6-8-13-12.4-13.1-2.2-.1-3.7,1.1-4.4,3.5l-4.5,14.4a5.2016,5.2016,0,0,1-2.9,3.4c-1.7.7-3.8.3-5.9-.9l-3.2-1.8c-3.8-2.1-7.2-6.8-8.6-11.6-2.1-7.3-7.8-12.2-11.9-12.5a4.24614,4.24614,0,0,0-4.4,2.7l-5,10.9a4.84037,4.84037,0,0,1-2.9,2.7,7.23293,7.23293,0,0,1-5.7-1l-3.7-2.1c-4.1-2.3-7.6-7.3-8.8-12.4l-16.1-69.1c-1.8-7.6-7.9-13.1-12.3-13.4a4.2463,4.2463,0,0,0-4.5,3.2l-24.5,69a5.10239,5.10239,0,0,1-2.9,3.2,7.261,7.261,0,0,1-5.9-.9l-12.6-7.1a.36737.36737,0,0,1-.1-.3c0-.1.2-.1.3-.1l12.6,7.1a6.6667,6.6667,0,0,0,5.5.9,4.57286,4.57286,0,0,0,2.7-2.9l24.5-69a4.7326,4.7326,0,0,1,4.9-3.5c4.5.3,10.8,5.9,12.7,13.7l16.1,69.1c1.2,5,4.7,10,8.6,12.2l3.7,2.1a6.65317,6.65317,0,0,0,5.3.9,4.28281,4.28281,0,0,0,2.6-2.5l5-10.9a4.78876,4.78876,0,0,1,4.8-2.9c4.2.3,10.1,5.3,12.3,12.8,1.4,4.7,4.7,9.2,8.4,11.3l3.2,1.8c2.1,1.2,4,1.5,5.6.9a4.90416,4.90416,0,0,0,2.7-3.1l4.5-14.4c.8-2.5,2.5-3.8,4.8-3.7,4.6.1,10.8,5.6,12.7,13.4l16.1,63.9c1.3,5,4.8,9.8,8.7,12,.1,0,.1.1.1.2Z" transform="translate(0 -4.77699)" style="fill:#b3e9ff"/><path d="M287.7,193.29487c-4-2.2-12.1-10.9-13.4-16l-16.1-63.9c-1.9-7.6-8-13-12.4-13.1-2.2-.1-3.7,1.1-4.4,3.5l-4.5,14.4a5.2016,5.2016,0,0,1-2.9,3.4c-1.7.7-3.8.3-5.9-.9l-3.2-1.8c-3.8-2.1-7.2-6.8-8.6-11.6-2.1-7.3-7.8-12.2-11.9-12.5a4.24614,4.24614,0,0,0-4.4,2.7l-5,10.9a4.84035,4.84035,0,0,1-2.9,2.7,7.23293,7.23293,0,0,1-5.7-1l-3.7-2.1c-4.1-2.3-7.6-7.3-8.8-12.4l-16.1-69.1c-1.8-7.6-7.9-13.1-12.3-13.4a4.2463,4.2463,0,0,0-4.5,3.2l-24.5,69a5.10244,5.10244,0,0,1-2.9,3.2,7.261,7.261,0,0,1-5.9-.9l-12.7-7.2a.22361.22361,0,1,1,.2-.4l12.7,7.2a6.6667,6.6667,0,0,0,5.5.9,4.57279,4.57279,0,0,0,2.7-2.9l24.5-69a4.71332,4.71332,0,0,1,4.6-3.5h.3c4.5.3,10.8,5.9,12.7,13.7l16.1,69.1c1.2,5,4.7,10,8.6,12.2l3.7,2.1a6.65317,6.65317,0,0,0,5.3.9,4.28281,4.28281,0,0,0,2.6-2.5l5-10.9a4.78876,4.78876,0,0,1,4.8-2.9c4.2.3,10.1,5.3,12.3,12.8,1.4,4.7,4.7,9.2,8.4,11.3l3.2,1.8c2.1,1.2,4,1.5,5.6.9a4.90413,4.90413,0,0,0,2.7-3.1l4.5-14.4c.8-2.5,2.5-3.8,4.8-3.7,4.6.1,10.8,5.6,12.7,13.4l16.1,63.9c1.3,5,9.2,13.6,13.2,15.8.1,0,.1.1.1.2.1,0,0,.1-.2,0Z" transform="translate(0 -4.77699)" style="fill:#b3e9ff"/><path d="M296.8,181.39486c-4-2.2-7.5-7.1-8.8-12.1l-16.1-63.9c-2.8-11.1-14.6-17.8-17.2-9.7l-4.5,14.4c-1.1,3.6-4.6,4.6-8.5,2.4l-3.2-1.8c-3.7-2.1-7.1-6.7-8.5-11.4h0c-3-10.3-13.6-16.6-16.7-9.8l-5,10.9c-1.4,3-4.6,3.6-8.2,1.6l-3.7-2.1c-4-2.3-7.5-7.3-8.7-12.3l-16.1-69.1c-2.6-11.1-14.4-18.1-17.2-10.2l-24.5,69c-1.2,3.5-4.6,4.3-8.5,2.1l-12.6-7.1Z" transform="translate(0 -4.77699)" style="opacity:0.07000000029802322;isolation:isolate;fill:url(#radial-gradient-2)"/><path d="M283.3,189.19486c-4-2.2-7.5-7.1-8.8-12.1l-16.1-63.9c-2.8-11.1-14.6-17.8-17.2-9.7l-4.5,14.4c-1.1,3.6-4.6,4.6-8.5,2.4l-3.2-1.8c-3.7-2.1-7.1-6.7-8.5-11.4h0c-3-10.3-13.6-16.6-16.7-9.8l-5,10.9c-1.4,3-4.6,3.6-8.2,1.6l-3.7-2.1c-4-2.3-7.5-7.3-8.7-12.3l-16.1-69.1c-2.6-11.1-14.4-18.1-17.2-10.2l-24.5,69c-1.2,3.5-4.6,4.3-8.5,2.1l-12.8-7.2Z" transform="translate(0 -4.77699)" style="opacity:0.07000000029802322;isolation:isolate;fill:url(#radial-gradient-3)"/><path d="M240,85.49486a1.55081,1.55081,0,1,0-1.5,1.6,1.62976,1.62976,0,0,0,1.5-1.6Z" transform="translate(0 -4.77699)" style="fill:#ff7f00"/><path d="M184.8,23.09486a1.55081,1.55081,0,1,0-1.5,1.6,1.70819,1.70819,0,0,0,1.5-1.6Z" transform="translate(0 -4.77699)" style="fill:#ff7f00"/><path d="M287.8,97.59486a1.44414,1.44414,0,0,0-1.6-1.5,1.49423,1.49423,0,0,0-1.5,1.6,1.44414,1.44414,0,0,0,1.6,1.5,1.56053,1.56053,0,0,0,1.5-1.6Z" transform="translate(0 -4.77699)" style="fill:#ff7f00"/><path d="M73.6,94.99486v64.9h0c-.1,1.8,1.2,3.6,3.7,5.1h0c4.5,2.6,11.3,2.9,15.1.6l53.9-31.1a4.43066,4.43066,0,0,0,2.6-3.8h0v-64.9Z" transform="translate(0 -4.77699)" style="fill:#0d5e9d"/><path d="M77.3,100.09486h0c-4.5-2.6-5-6.5-1.1-8.7l53.9-31.1c3.9-2.2,10.7-2,15.1.6h0c4.5,2.6,5,6.5,1.1,8.7l-53.9,31.1C88.6,102.99486,81.8,102.69486,77.3,100.09486Z" transform="translate(0 -4.77699)" style="fill:#f9f9f9"/><path d="M87.1,96.49486a4.69455,4.69455,0,0,1-4.7-4.7v-28.8c0-13.2,8.9-28.7,20.4-35.3l12.4-7.1c6.3-3.6,12.5-4.1,17.4-1.3s7.6,8.4,7.6,15.7v28.8h0a4.7,4.7,0,1,1-9.4,0v-28.7c0-3.8-1.1-6.6-3-7.6-1.9-1.1-4.8-.6-8.1,1.3l-12.4,7.1c-8.5,4.9-15.7,17.4-15.7,27.2v28.8h0a4.4436,4.4436,0,0,1-4.5,4.6Z" transform="translate(0 -4.77699)" style="fill:#0d5e9d"/></svg>