<svg id="Layer_1" data-name="Layer 1" xmlns="http://www.w3.org/2000/svg" xmlns:xlink="http://www.w3.org/1999/xlink" width="516.06" height="597.27" viewBox="0 0 516.06 597.27">
  <defs>
    <linearGradient id="linear-gradient" x1="268.43" y1="449.17" x2="277.72" y2="802.25" gradientUnits="userSpaceOnUse">
      <stop offset="0.01" stop-opacity="0"/>
      <stop offset="0.91" stop-opacity="0.85"/>
      <stop offset="0.93" stop-opacity="0.89"/>
      <stop offset="0.98"/>
    </linearGradient>
    <linearGradient id="linear-gradient-2" x1="85.98" y1="236.18" x2="622.35" y2="234.49" gradientTransform="matrix(1, 0, 0, -1, -0.01, 599.99)" gradientUnits="userSpaceOnUse">
      <stop offset="0.01" stop-opacity="0"/>
      <stop offset="0.93" stop-opacity="0.89"/>
      <stop offset="0.98"/>
    </linearGradient>
    <linearGradient id="linear-gradient-3" x1="406.51" y1="854.89" x2="420.76" y2="182.04" gradientTransform="translate(-134.9 -168)" xlink:href="#linear-gradient-2"/>
    <linearGradient id="linear-gradient-4" x1="410.36" y1="359.69" x2="483.26" y2="359.69" gradientTransform="translate(-134.9 -168)" gradientUnits="userSpaceOnUse">
      <stop offset="0" stop-color="#183866"/>
      <stop offset="1" stop-color="#1a7fc1"/>
    </linearGradient>
    <linearGradient id="linear-gradient-5" x1="414.46" y1="618.62" x2="419.91" y2="911.9" gradientTransform="translate(-134.9 -168)" xlink:href="#linear-gradient-2"/>
    <linearGradient id="linear-gradient-6" x1="358.37" y1="238.09" x2="426.15" y2="238.09" gradientTransform="translate(-134.9 -168)" gradientUnits="userSpaceOnUse">
      <stop offset="0" stop-color="#ecc4d7"/>
      <stop offset="0.42" stop-color="#efd4d1"/>
      <stop offset="1" stop-color="#f2eac9"/>
    </linearGradient>
    <linearGradient id="linear-gradient-7" x1="403.48" y1="260.17" x2="491.46" y2="281.91" gradientTransform="translate(-134.9 -168)" xlink:href="#linear-gradient-2"/>
    <linearGradient id="linear-gradient-8" x1="415.4" y1="206.03" x2="448.55" y2="206.03" xlink:href="#linear-gradient-6"/>
    <linearGradient id="linear-gradient-9" x1="313.98" y1="564.04" x2="325.24" y2="555.45" gradientTransform="matrix(1, 0, 0, -1, 0, 600)" xlink:href="#linear-gradient-2"/>
    <linearGradient id="linear-gradient-10" x1="373.54" y1="402.51" x2="388.88" y2="402.51" xlink:href="#linear-gradient-6"/>
    <linearGradient id="linear-gradient-11" x1="414.79" y1="402.86" x2="428.57" y2="402.86" xlink:href="#linear-gradient-6"/>
    <linearGradient id="linear-gradient-12" x1="244.47" y1="241.18" x2="255.59" y2="251.46" gradientTransform="matrix(1, 0, 0, 1, 0, 0)" xlink:href="#linear-gradient-2"/>
    <linearGradient id="linear-gradient-13" x1="283.08" y1="238.55" x2="293.92" y2="250.8" gradientTransform="matrix(1, 0, 0, 1, 0, 0)" xlink:href="#linear-gradient-2"/>
    <linearGradient id="linear-gradient-14" x1="438.37" y1="232.8" x2="473.22" y2="232.8" xlink:href="#linear-gradient-6"/>
  </defs>
  <title>4. Calling</title>
  <path d="M67.87,471.39c-6.68-32.72,7-68.21-4.87-99.42-9.79-25.68-34.68-42.32-49.29-65.6C-5,276.55-4.51,235.79,14.93,206.44c20.56-31,57.26-46.53,86.14-70,18.83-15.32,34.54-34.28,54-48.77s44.68-24.33,68-17.6c15,4.32,27.29,14.87,41.64,20.88,32.39,13.58,69.1,2.45,104.13-.27a213.36,213.36,0,0,1,90.09,12.51c18.23,6.72,36.27,16.62,46.89,32.89,11.17,17.12,12.52,39.33,7.36,59.11S497,232.7,484.74,249.08c-19,25.38-42.6,55-32.37,85,6.48,19,24.88,31,37.12,46.88C516,415.42,508.1,471.1,473.1,496.83c-14.21,10.44-32,16.51-43.08,30.23-6.13,7.59-9.71,17-16,24.49-16.24,19.49-45.12,21-70.48,20.8q-46.17-.36-92.32-1.44c-27.09-.63-64.49,4.74-90.34-3.39C122.61,555.46,76,511.08,67.87,471.39Z" transform="translate(-0.01 -0.01)" fill="#377dff" opacity="0.18" style="isolation: isolate"/>
  <path d="M115.89,541.78c-15,4.38-32.81,13.8-31.57,29.38,1.27,15.94,21.11,22.2,37,23.68,30.26,2.8,60.72,2.55,91.11,2.29l127.13-1.07c29.35-.25,58.9-.52,87.69-6.2,9.12-1.8,18.61-4.4,25.2-11s8.94-18.23,2.68-25.11c-5.83-6.4-15.94-6.11-23.58-10.19-8.54-4.56-13.1-14-20-20.79C396.4,508,372.6,508,351.43,508.91L212.8,515c-17.22.75-41-2.6-57.19,4C141.81,524.52,133.1,541.78,115.89,541.78Z" transform="translate(-0.01 -0.01)" fill="url(#linear-gradient)"/>
  <rect x="145.38" y="148.85" width="248.42" height="430.99" rx="23.66" fill="#377dff"/>
  <rect x="145.38" y="148.85" width="248.42" height="430.99" rx="23.66" fill="url(#linear-gradient-2)"/>
  <rect x="154.66" y="148.85" width="248.42" height="430.99" rx="23.66" fill="#377dff"/>
  <path d="M391.2,182.76V504a20.64,20.64,0,0,1-20.64,20.64H187.2A20.65,20.65,0,0,1,166.56,504V182.76a20.65,20.65,0,0,1,20.64-20.64h49.25V169a10.87,10.87,0,0,0,10.87,10.87h73.17A10.87,10.87,0,0,0,331.36,169h0v-6.84h39.2A20.64,20.64,0,0,1,391.2,182.76Z" transform="translate(-0.01 -0.01)" fill="url(#linear-gradient-3)"/>
  <path d="M321.1,167.55c-3.05,2.88-7.55,4.58-9.06,8.5-1.25,3.24,0,6.84.5,10.28,1,7.73-2.27,15.26-4.44,22.75a80.87,80.87,0,0,0-3.19,22.78c0,3.78.23,7.83-1.76,11s-7.28,4.58-9.48,1.51a7.53,7.53,0,0,1-1-2.22c-3.57-11.45-1.42-23.82-1.57-35.85s-3.9-25.55-14.58-31.08a482.06,482.06,0,0,1-11.1,62.07c-1.08,4.4-3.44,9.75-8,9.65-.84-6.48-1.17-13-1.5-19.54Q254,190.22,252.18,153c-.1-2-.18-4.22.75-6,1.39-2.76,4.62-4,7.59-4.86a138.89,138.89,0,0,1,34.7-5.67c7.87-.28,19.47,1.26,25.12,7.62C325.61,150,327.19,161.79,321.1,167.55Z" transform="translate(-0.01 -0.01)" opacity="0.19" fill="url(#linear-gradient-4)" style="isolation: isolate"/>
  <path d="M301.67,563.75H261.23a12.36,12.36,0,0,1-12.36-12.36h0A12.35,12.35,0,0,1,261.18,539h40.49A12.35,12.35,0,0,1,314,551.35h0a12.35,12.35,0,0,1-12.3,12.4h0Z" transform="translate(-0.01 -0.01)" fill="url(#linear-gradient-5)"/>
  <circle cx="225.45" cy="313.34" r="23.39" fill="none" stroke="#fff" stroke-miterlimit="10" stroke-width="0.82"/>
  <circle cx="285.58" cy="313.33" r="23.39" fill="none" stroke="#fff" stroke-miterlimit="10" stroke-width="0.82"/>
  <circle cx="345.71" cy="313.33" r="23.39" fill="none" stroke="#fff" stroke-miterlimit="10" stroke-width="0.82"/>
  <circle cx="225.46" cy="375.31" r="23.39" transform="translate(-191.62 508.51) rotate(-76.72)" fill="none" stroke="#fff" stroke-miterlimit="10" stroke-width="0.82"/>
  <circle cx="285.59" cy="375.31" r="23.39" transform="translate(-145.3 567.03) rotate(-76.72)" fill="none" stroke="#fff" stroke-miterlimit="10" stroke-width="0.82"/>
  <circle cx="288.18" cy="462.79" r="31.63" fill="#ff354e"/>
  <circle cx="345.72" cy="375.31" r="23.39" transform="translate(-98.97 625.56) rotate(-76.72)" fill="none" stroke="#fff" stroke-miterlimit="10" stroke-width="0.82"/>
  <path d="M268.74,461.24a1.34,1.34,0,0,1-1.32-1.36h0a1.38,1.38,0,0,1,.1-.49c1.08-2.74,4-11.3,20.35-11.3,15.44,0,18.92,8.54,20.06,11.28a1.34,1.34,0,0,1-.7,1.76,1.26,1.26,0,0,1-.51.11h-6.18a1.31,1.31,0,0,1-1.15-.68c-.81-1.5-2.65-8.71-11.81-8.71-7.46,0-10.23,4-11.77,8.48a1.33,1.33,0,0,1-1.25.91Z" transform="translate(-0.01 -0.01)" fill="#fff"/>
  <rect x="263.53" y="460" width="15.34" height="8.95" rx="3.7" fill="#fff"/>
  <rect x="295.79" y="460" width="15.34" height="8.95" rx="3.7" fill="#fff"/>
  <path d="M260.81,81.67c-1.59-2.62-7.65-16.9-9.87-22L243.1,41.78a6,6,0,0,0,0,5.28,119.42,119.42,0,0,0-15.54,1.77c-1.77.32-3.93,1.1-4.08,2.89-.11,1.22.82,2.26,1.74,3.07a25.71,25.71,0,0,0,10.88,5.59c2.23.53,4.79.91,6.11,2.78a8.25,8.25,0,0,1,1.12,3.62,217.52,217.52,0,0,0,5,24.37c.76,2.86,2,6.1,4.76,7,1.8.59,3.75,0,5.54-.6,5.44-1.83,10.89-4,15.33-7.63,5.33-4.38,24-28,14.76-33.56C284.25,53.63,272,68.2,269.61,71.17,266,75.73,265.25,77.82,260.81,81.67Z" transform="translate(-0.01 -0.01)" fill="url(#linear-gradient-6)"/>
  <path d="M368.4,112.35a15.33,15.33,0,0,1-6.22,1.86c-1.4.19-2.83.31-4.25.37-8.53.35-17.26-1.61-23.84-6.94-3.5-2.84-6.33-6.55-10.23-8.82a25.72,25.72,0,0,0-9.64-2.89c-2.74-.37-5.54-.54-8.27-.87-6.1-.73-12.8-2.85-15.63-8.31-2-3.76-1.61-8.27-1-12.47,1.16-8,3.07-16,3.41-24.15.19-4.4-.14-9-2.5-12.73-1.58-2.48-3.94-4.34-5.79-6.62-5.18-6.4-1.6-16.54,5.21-20.35a21.1,21.1,0,0,0,3.67-2.15c1.39-1.22,2.15-3,3.37-4.4,3.41-3.94,9.41-4,14.56-3.81l8.85.38c2.86.12,6.16.49,7.68,2.91,1.17,1.86,1,4.56,2.67,5.93a7.08,7.08,0,0,0,2,1A22.59,22.59,0,0,1,346.1,24.7c2.55,8.46-.07,17.83,2.47,26.28a5,5,0,0,0,1.09,2.13,7.8,7.8,0,0,0,2.52,1.32c5.56,2.45,7.28,9.57,6.83,15.62-.25,3.41-.94,7,.32,10.14.91,2.28,2.73,4.06,4.46,5.8,3.65,3.65,7.25,7.64,8.75,12.58S372.79,109.64,368.4,112.35Z" transform="translate(-0.01 -0.01)" fill="#3f3d56"/>
  <path d="M357.93,114.58c-8.53.35-17.26-1.61-23.84-6.94-3.5-2.84-6.33-6.55-10.23-8.82a25.72,25.72,0,0,0-9.64-2.89c-3.59-4-7.14-8.07-10.58-12.21-2.66-3.2-5.28-6.51-6.87-10.36s-2-7.76-2.51-11.76c-1.35-11.15-2.66-22.71.83-33.38a15.43,15.43,0,0,1,2-4.32c6-8.3,21.92-7,27.15,1.34A24.4,24.4,0,0,1,327,32.91a90.83,90.83,0,0,1,1.88,13.23c.24,3.71.38,7.76,2.81,10.57,1.52,1.75,3.75,2.76,5.39,4.41,6.28,6.29,1.31,18,6.38,25.32a20,20,0,0,0,4.65,4.35c4,3,8.4,5.94,10.92,10.31S361.57,111.4,357.93,114.58Z" transform="translate(-0.01 -0.01)" fill="#25233a"/>
  <path d="M275.82,120.12s-37.09,6.79-38.16,16.72S244.38,229,244.38,229h8.49s15.25-45,12.62-58.23-5.3-16.91-5.3-16.91,15.45,7.63,30.06-9.2,8.09-28.08,8.09-28.08Z" transform="translate(-0.01 -0.01)" fill="#3f3d56"/>
  <path d="M296.68,118.1s-35.37,13.06-34.73,23,22.41,89.62,22.41,89.62l8.37-1.46s7.31-46.92,2.45-59.54S287.1,154,287.1,154s20.46,9.4,32.48-9.37c10.18-15.92-6.68-32.06-17.06-28.51Z" transform="translate(-0.01 -0.01)" fill="#25233a"/>
  <path d="M275.82,120.12V99.23s-6.14-11.4-7.14-17.27c-.58-3.4,3.71-13.83,8.65-17.86,3.44-2.8,6-7.79,10.4-7.93l21.59-.65,10.58,30-3.73,34.78S307.1,115.6,275.82,120.12Z" transform="translate(-0.01 -0.01)" fill="#377dff"/>
  <path d="M298,115.34c-.25.41-1.47,2.3-1.35,2.76s5.75.61,7.77.81c3.44.34,8.28,1,11.72,1.38,2.33-11.43,1.17-18.66,2.87-24.83a5.51,5.51,0,0,0,.47-2.3c-.2-1.38-5.13-8.47-6.36-9-4-1.73-4,4.32-4.46,6.56C307,99.57,302.7,107.74,298,115.34Z" transform="translate(-0.01 -0.01)" fill="url(#linear-gradient-7)"/>
  <path d="M283.28,20.79s-5,16.67-1.58,19.53,6.4,3.26,7.1,4.68,2.46,7.45,0,11.41-1.29,9.59,2.3,7.69,11.57-7.73,11.57-7.73l4.6-16.73s7.36-17.54,6.22-21.38S294.42,4.13,283.28,20.79Z" transform="translate(-0.01 -0.01)" fill="url(#linear-gradient-8)"/>
  <path d="M304.94,25.14c.54,2.1-.42,4.38.17,6.47.73,2.58,3.53,4,6.14,4.59s5.44.8,7.67,2.31c2.52,1.7,4.06,5,7,5.65a9.32,9.32,0,0,0,4.38-.42c3.24-.84,6.73-1.84,8.77-4.5a9.85,9.85,0,0,0,1.83-5c.72-7.06-4.12-13.72-10.15-17.47s-13.15-5.21-20-7c-3.8-1-12.8-3.82-14.9,1.3-1.49,3.63,1.91,10.23,6.16,6.8C301.6,20.69,304.29,22.58,304.94,25.14Z" transform="translate(-0.01 -0.01)" fill="#3f3d56"/>
  <path d="M313.68,40.66s-4.43,3.58-7.12,2.6-7.3,5-7.3,5-1.42,2.42,1.72,3.6a13.91,13.91,0,0,0,10.79-.61c5.74-2.91,12.33-11.25,14.79-13.71,5.41-5.51,4.2-18-1.93-18.73s-5.12,6.23-4.9,6.55a6.92,6.92,0,0,0,1.34.72,2.72,2.72,0,0,1,1.38,3.59v0a3.24,3.24,0,0,1-.17.32C320,33.63,316,39.71,313.68,40.66Z" transform="translate(-0.01 -0.01)" fill="#377dff"/>
  <path d="M313.68,40.66s-4.43,3.58-7.12,2.6-7.3,5-7.3,5-1.42,2.42,1.72,3.6a13.91,13.91,0,0,0,10.79-.61c5.74-2.91,12.33-11.25,14.79-13.71,5.41-5.51,4.2-18-1.93-18.73s-5.12,6.23-4.9,6.55a6.92,6.92,0,0,0,1.34.72,2.72,2.72,0,0,1,1.38,3.59v0a3.24,3.24,0,0,1-.17.32C320,33.63,316,39.71,313.68,40.66Z" transform="translate(-0.01 -0.01)" fill="url(#linear-gradient-9)"/>
  <path d="M238.87,238.5a1.92,1.92,0,0,0-.21,1,1.26,1.26,0,0,0,1,.91,3.58,3.58,0,0,0,1.42-.07c3.07-.47,6.28-.61,8.75-2.49s5.54-6.67,3.4-9.18c0-.25-8.37,0-9.29.66C241.57,231,240,235.9,238.87,238.5Z" transform="translate(-0.01 -0.01)" fill="url(#linear-gradient-10)"/>
  <path d="M235.26,244.05l3.61-5.55s8.3,4.09,13.1-4.57c2.46-4.45,1.26-5.23,1.26-5.23s2.91.65,3.38,5.91a53.15,53.15,0,0,1,0,9.44l-2.17,1.2-1.17-4.76S247.73,248,246,250.55c-.88,1.31-5,2.3-8.71,2.95a3.86,3.86,0,0,1-4.46-3.15v0a3.82,3.82,0,0,1,.33-2.33C233.75,246.86,234.43,245.56,235.26,244.05Z" transform="translate(-0.01 -0.01)" fill="#377dff"/>
  <path d="M280.1,239a1.71,1.71,0,0,0-.13,1,1.2,1.2,0,0,0,1,.79,3.33,3.33,0,0,0,1.33-.15c2.86-.62,6.29-1.34,8.5-3.26s3.87-6.62,2.22-8.43c0-.22-7.87.5-8.7,1.17C282.1,231.87,280.91,236.52,280.1,239Z" transform="translate(-0.01 -0.01)" fill="url(#linear-gradient-11)"/>
  <path d="M277,244.46l3.1-5.46s8,3.36,12-5.06c2-4.33.88-5,.88-5s2.77.45,3.52,5.36a49.64,49.64,0,0,1,.55,8.87l-2,1.26L293.67,240s-4.76,7.42-6.21,9.88c-.75,1.28-4.54,2.46-8,3.29a3.64,3.64,0,0,1-4.41-2.63v0a3.59,3.59,0,0,1,.2-2.35C275.73,247.19,276.3,245.93,277,244.46Z" transform="translate(-0.01 -0.01)" fill="#377dff"/>
  <path d="M235.26,244.05l3.61-5.55s8.3,4.09,13.1-4.57c2.46-4.45,1.26-5.23,1.26-5.23s2.91.65,3.38,5.91a53.15,53.15,0,0,1,0,9.44l-2.17,1.2-1.17-4.76S247.73,248,246,250.55c-.88,1.31-5,2.3-8.71,2.95a3.86,3.86,0,0,1-4.46-3.15v0a3.82,3.82,0,0,1,.33-2.33C233.75,246.86,234.43,245.56,235.26,244.05Z" transform="translate(-0.01 -0.01)" fill="url(#linear-gradient-12)"/>
  <path d="M277,244.46l3.1-5.46s8,3.36,12-5.06c2-4.33.88-5,.88-5s2.77.45,3.52,5.36a49.64,49.64,0,0,1,.55,8.87l-2,1.26L293.67,240s-4.76,7.42-6.21,9.88c-.75,1.28-4.54,2.46-8,3.29a3.64,3.64,0,0,1-4.41-2.63v0a3.59,3.59,0,0,1,.2-2.35C275.73,247.19,276.3,245.93,277,244.46Z" transform="translate(-0.01 -0.01)" fill="url(#linear-gradient-13)"/>
  <path d="M303.6,67.17s15.93,47.45,34.15,29.64c3.53-3.45-10.49-53.83-11.23-55s1-9-.74-10.45a18.61,18.61,0,0,0-4.34-2.57s-2.46.4-2.37,2.07-2.36,3.16-2.86,4.34-3.11,4.8-2.69,6.3a22.88,22.88,0,0,0,2.31,4.84c.38.39,6.86,30.14,6.86,30.14s-6.15-22.83-13.37-21S303.6,67.17,303.6,67.17Z" transform="translate(-0.01 -0.01)" fill="url(#linear-gradient-14)"/>
</svg>
