<svg id="Layer_1" data-name="Layer 1" xmlns="http://www.w3.org/2000/svg" xmlns:xlink="http://www.w3.org/1999/xlink" viewBox="0 0 439.39 301.24"><defs><linearGradient id="linear-gradient" x1="166.82" y1="187.66" x2="249.42" y2="187.66" gradientUnits="userSpaceOnUse"><stop offset="0" stop-color="#e5c5d5"/><stop offset="0.42" stop-color="#ead4d1"/><stop offset="1" stop-color="#f0e9cb"/></linearGradient><linearGradient id="linear-gradient-2" x1="306.56" y1="390.21" x2="200.65" y2="-155.2" gradientUnits="userSpaceOnUse"><stop offset="0" stop-opacity="0"/><stop offset="0.99"/></linearGradient><linearGradient id="linear-gradient-3" x1="330.4" y1="289.18" x2="351.17" y2="168.86" xlink:href="#linear-gradient-2"/><linearGradient id="linear-gradient-4" x1="312.98" y1="238.67" x2="351.98" y2="238.67" xlink:href="#linear-gradient"/><linearGradient id="linear-gradient-5" x1="320.29" y1="162.03" x2="345.14" y2="162.03" xlink:href="#linear-gradient"/><linearGradient id="linear-gradient-6" x1="323.63" y1="205.94" x2="352" y2="77.29" xlink:href="#linear-gradient-2"/><linearGradient id="linear-gradient-7" x1="137.4" y1="249.06" x2="49.26" y2="159.48" xlink:href="#linear-gradient-2"/><linearGradient id="linear-gradient-8" x1="109.68" y1="152.48" x2="137.33" y2="152.48" xlink:href="#linear-gradient"/><linearGradient id="linear-gradient-9" x1="-4660.22" y1="9398.52" x2="-4589.36" y2="9369.98" gradientTransform="translate(-1786.53 10330.26) rotate(164.89)" gradientUnits="userSpaceOnUse"><stop offset="0.02" stop-color="#fff" stop-opacity="0"/><stop offset="0.32" stop-color="#fff" stop-opacity="0.39"/><stop offset="0.68" stop-color="#fff" stop-opacity="0.68"/><stop offset="1" stop-color="#fff"/></linearGradient><linearGradient id="linear-gradient-10" x1="-4608.83" y1="9373.04" x2="-4567.33" y2="9360.9" xlink:href="#linear-gradient-9"/><linearGradient id="linear-gradient-11" x1="115.06" y1="117.8" x2="152.35" y2="117.8" xlink:href="#linear-gradient"/><linearGradient id="linear-gradient-12" x1="53.94" y1="259.61" x2="97.44" y2="259.61" xlink:href="#linear-gradient"/><linearGradient id="linear-gradient-13" x1="1100.07" y1="393.73" x2="1145.87" y2="393.73" gradientTransform="translate(-829.49 -74.11) rotate(-8.86)" xlink:href="#linear-gradient"/><linearGradient id="linear-gradient-14" x1="222.17" y1="311.29" x2="266.77" y2="311.29" xlink:href="#linear-gradient"/><linearGradient id="linear-gradient-15" x1="320.02" y1="137.17" x2="311.26" y2="132.68" xlink:href="#linear-gradient"/><linearGradient id="linear-gradient-16" x1="312.27" y1="135.33" x2="330.45" y2="139.71" xlink:href="#linear-gradient-2"/><linearGradient id="linear-gradient-17" x1="171.79" y1="189.39" x2="136.31" y2="199.02" xlink:href="#linear-gradient-2"/><linearGradient id="linear-gradient-18" x1="394.57" y1="269.23" x2="356.47" y2="73.01" xlink:href="#linear-gradient-2"/></defs><title>Presentation and discussion</title><rect x="164.47" width="130.52" height="95.48" rx="9.55" fill="#377dff" opacity="0.5" style="isolation:isolate"/><path d="M62.65,174.76c24.16-25.92,59.56-38.63,85.34-62.94,20.2-19.06,34.19-45,57.82-59.57,31.92-19.72,78-11.72,101.43,17.61,14.23,17.84,19.85,40.82,29.15,61.66,15.06,33.77,40,62.17,57.8,94.57s30.39,65.91,14,99c-2.83,5.72-104,2.07-115.5,1.73q-58.84-1.72-117.73-1.45-57.78.27-115.53,2.48c-17.48.68-29.2,6-34.95-11.15-4.08-12.17.52-34.57,1.76-47.25C29.56,235.34,38.68,200.5,62.65,174.76Z" transform="translate(-5.86 -29.72)" fill="#377dff" opacity="0.18" style="isolation:isolate"/><path d="M182.22,216.64c6.63,1.41,13.09-2.77,18.22-7.2A110.09,110.09,0,0,0,216,192.93c5.39-7,10.52-15.19,18.87-18.14,4.77-1.69,10.25-1.5,14.48-4.27.4-2.11-1.2-4.19-3.16-5.08a14.61,14.61,0,0,0-6.35-.81l-9.18.18c-2.23.05-4.56.07-6.55-.92s-3.5-3.35-2.77-5.45c-2.86-.38-4.84,2.69-6.18,5.25A84,84,0,0,1,190,192.77a6.29,6.29,0,0,1-2.9,1.38c-1.56.16-3-.79-4.38-1.49-6-3-17.06-.17-15.75,8.2C167.9,207.1,176.19,215.36,182.22,216.64Z" transform="translate(-5.86 -29.72)" fill="url(#linear-gradient)"/><path d="M371.39,282l12.74,41.53c-32-3.07-64.46,7.92-96.07,2.21-2-.36-4.35-1.12-4.85-3.08a5.48,5.48,0,0,1,.59-3.37A232.59,232.59,0,0,1,299.47,288c9.68,2.7,17.74,2.65,27.55.49C343.1,284.94,355.18,279.06,371.39,282Z" transform="translate(-5.86 -29.72)" fill="#3e3e54"/><path d="M295.48,162.35c-9.89,5.65-14.19,17.46-17.57,28.35a1167.39,1167.39,0,0,0-29.7,116.47c7.06,2.49,15.45,4.83,21.57.51,4.35-3.07,6.09-8.59,7.55-13.72l6.51-22.76c6.71-23.48,13.42-47,20.74-70.27,3.65-11.61,9.26-23.56,11.74-35.45,1.22-5.84.78-6.82-5.61-7.07A30.64,30.64,0,0,0,295.48,162.35Z" transform="translate(-5.86 -29.72)" fill="#377dff"/><path d="M263.1,305s4.75-2.59,7.38-11.06S294.72,190.6,294.72,190.6l1.75,39.71S279.4,287,278.37,290.46s-3.51,17.23-12.56,18.4Z" transform="translate(-5.86 -29.72)" fill="url(#linear-gradient-2)"/><path d="M346.24,150.9c-6.09,0-12.27.23-18.08,2.08-9.08,2.89-30.08,4.17-35.2,12.22s5.48,22.81,3.67,32.17c-2.34,12-3,24.36-3.66,36.62-.86,16.06-1.72,32.15-1.17,48.22.16,4.76.47,9.63,2.34,14,1.76,4.1,64,11.09,74.34-4.94,7.88-12.17,10.65-27,11.53-41.45.76-12.45.25-24.94-.27-37.41-.38-9.19-.76-18.42-2.57-27.43-1.94-9.63,6.51-14.73,2.22-23.58C375.87,154.14,353.27,150.88,346.24,150.9Z" transform="translate(-5.86 -29.72)" fill="#377dff"/><path d="M299,267.1l39-2.13a14.31,14.31,0,0,0,5-.88,7.22,7.22,0,0,0,4-4.62,97.31,97.31,0,0,0,26.28,6.6c1.26.13,2.72.19,3.63-.71a4.13,4.13,0,0,0,.94-2.49c.48-4,3.38-21.72,1.77-25.42-11.16-.1-20.17-1.56-28.35-9.15-1.4-1.3-8.56,7.83-10.47,8-1.48.11-2.68,1.19-3.74,2.23-3.31,3.28-6.44,6.8-10.29,9.43-5,3.41-10.85,5.15-16.63,6.85-4.5,1.32-13.39,2.13-16.59,5.85C289.47,265.28,294.33,267.36,299,267.1Z" transform="translate(-5.86 -29.72)" fill="url(#linear-gradient-3)"/><path d="M333.8,206.32a7.51,7.51,0,0,1,3.58.74c2.19,1.29,2.48,4.28,2.53,6.82l.81,42.78L289,263.22a1.82,1.82,0,0,1-2.41-1.89,136.26,136.26,0,0,1-2.08-42.4c.57-5.24,1.57-10.81,1.57-10.81,5.89-.83,17.91-1.31,23.87-1.61C317.9,206.11,325.86,206.05,333.8,206.32Z" transform="translate(-5.86 -29.72)" fill="#fff"/><path d="M345.54,230.47a9.75,9.75,0,0,0-4.09-1.41,3.39,3.39,0,0,0-3.45,2.13c-.31,1.12.12,2.52-.71,3.33a2.86,2.86,0,0,1-1.86.6l-18.36,1.38a5.4,5.4,0,0,0-2.7.69,3.77,3.77,0,0,0-1.36,3.55,7.79,7.79,0,0,0,4.42,5.74,19.24,19.24,0,0,0,7.32,1.63,74.81,74.81,0,0,0,20.09-1.35,10.29,10.29,0,0,0,5.16-2.2,7.33,7.33,0,0,0,2-5.56C351.81,233.79,349.82,232.69,345.54,230.47Z" transform="translate(-5.86 -29.72)" fill="url(#linear-gradient-4)"/><path d="M344.78,157.53a17.48,17.48,0,0,1-.07,7.38,13.79,13.79,0,0,1-2.78,4.93,19,19,0,0,1-10.39,6.53,7.56,7.56,0,0,1-4.52-.19,7.44,7.44,0,0,1-2.29-1.65,15.16,15.16,0,0,1,.4-21.83c3.23-3,9.35-5.77,13.87-5.19C344.06,148.17,344.14,153.24,344.78,157.53Z" transform="translate(-5.86 -29.72)" fill="url(#linear-gradient-5)"/><path d="M329,166.17c1.77,2.06,4,3.92,6.74,4.26a7.21,7.21,0,0,0,6-2.11c2.24-2.32,2.63-5.82,2.71-9a8.11,8.11,0,0,0-.47-3.6,7.55,7.55,0,0,0-2.17-2.54,28.17,28.17,0,0,0-5.85-3.76,11.15,11.15,0,0,0-6-1.37C320.06,149.12,325.16,161.67,329,166.17Z" transform="translate(-5.86 -29.72)" fill="url(#linear-gradient-6)"/><path d="M173.06,291.4c1.83,9.12,2.9,18.55,1.38,27.73a3.4,3.4,0,0,1-1,2.22,3.54,3.54,0,0,1-2.26.49L85.83,321a144.75,144.75,0,0,1,6.84-58c1.57-4.7,3.39-9.41,3.73-14.36.25-3.7-.26-7.74,1.8-10.82,2.46-3.69,7.48-4.41,11.9-4.8l20.25-1.77c5.23-.45,13.32-1.56,18.08,1.47s7.7,11.31,10.13,16.21A170.85,170.85,0,0,1,173.06,291.4Z" transform="translate(-5.86 -29.72)" fill="#3e3e54"/><path d="M161,88.62a14.87,14.87,0,0,1,5.42,13.7c-.68,5.05-3.71,9.66-7.76,13-2.72,2.29-6.42,4.14-9.92,3.17a12.47,12.47,0,0,1-3.85-2.07A40.9,40.9,0,0,1,135.7,108c-4-5.33-5.52-12.68-2.48-18.78C135.82,84,144.86,84.59,150,85,153.9,85.28,157.88,86.23,161,88.62Z" transform="translate(-5.86 -29.72)" fill="#3e3e54"/><path d="M153,183.67c4.52,18.27-.05,30-6.13,47.86-1.14,3.34-2.53,6.73-5.13,9.12a16.27,16.27,0,0,1-7.93,4,61,61,0,0,1-16.45,1c-13.53-1.09-19.11-7.35-19.19-7.95-1-8-4.14-15.22-7.8-22.18-7.49-14.28-17.25-27.45-16-44C74.92,165,71.06,154,76.3,150c3.16-2.46,23.17-11.12,27.16-11.48,6.39-.57,46.43,11.65,51.69,16.21C160.77,159.56,151.33,176.79,153,183.67Z" transform="translate(-5.86 -29.72)" fill="#377dff"/><path d="M117.39,245.72c-13.53-1.09-19.11-7.35-19.19-7.95-1-8-4.14-15.22-7.8-22.18-.1-2.14-.07-4.28,0-6.43.25-9.6.89-19.19,1.53-28.77a19,19,0,0,1,.65-4.44c1.83.4,3.19,1.9,4.34,3.37a58.16,58.16,0,0,1,11.38,25.41c2.16,12,.58,24.86,5.61,36a18.92,18.92,0,0,0,1.8,3.19C116,244.33,116.93,245.07,117.39,245.72Z" transform="translate(-5.86 -29.72)" fill="url(#linear-gradient-7)"/><path d="M132.8,144.82a15.19,15.19,0,0,0,.28,4.36A44.45,44.45,0,0,0,135,154.5a43.57,43.57,0,0,1,2.07,9.87,18.42,18.42,0,0,1,0,5.88A6.76,6.76,0,0,1,133.9,175a7.09,7.09,0,0,1-3.91.63,11.75,11.75,0,0,1-7-3.17,20,20,0,0,1-2.32-2.78,74.73,74.73,0,0,1-9.27-17,22.38,22.38,0,0,1-1.73-6.75,3.77,3.77,0,0,1,.15-1.5,5.31,5.31,0,0,1,1.78-2,28.88,28.88,0,0,0,4.72-6,19.26,19.26,0,0,1,5.08-5.62,7.37,7.37,0,0,1,7.23-.8c1.95,1,5.55,4.19,5.9,6.46C134.94,139,133,142.19,132.8,144.82Z" transform="translate(-5.86 -29.72)" fill="url(#linear-gradient-8)"/><path d="M184.54,71.91a30.5,30.5,0,1,1,37.77,35.87l-.21,0-7.95-29.44Z" transform="translate(-5.86 -29.72)" fill="url(#linear-gradient-9)"/><path d="M184.92,86.29a30.26,30.26,0,0,1-.38-14.38l29.61,6.48,7.95,29.44A30.48,30.48,0,0,1,184.92,86.29Z" transform="translate(-5.86 -29.72)" fill="url(#linear-gradient-10)"/><path d="M152.35,124.17c0,4.21-.15,8.59-2.09,12.33a6.46,6.46,0,0,1-2,2.47,8,8,0,0,1-4.93.85,42.68,42.68,0,0,1-14.55-3,22.3,22.3,0,0,1-11.05-9.61,24.39,24.39,0,0,1-2.53-9.27c-.61-6.63.92-14,6.21-18.09a21.42,21.42,0,0,1,8.2-3.47c7.4-1.77,15.05,0,20.1,6.09,1.76,2.11,1.86,4.72,2,7.36C152.07,114.62,152.31,119.39,152.35,124.17Z" transform="translate(-5.86 -29.72)" fill="url(#linear-gradient-11)"/><path d="M147.16,101.46c2.79-3.34,3.81-7.79,4.47-12.1a17.13,17.13,0,0,0,.11-6.18,9.34,9.34,0,0,0-3.7-5.57c-2.25-1.59-5.06-2.09-7.78-2.55-4-.69-8.28-1.36-12.13,0-3.25,1.16-5.82,3.66-8.18,6.17-1.26-1.64-3.62-1.94-5.68-1.75-6.24.56-11.93,4.44-15.4,9.65a30.62,30.62,0,0,0-4.66,17.9c.15,4.84,1.15,10-1,14.29-3.35,6.59-12.67,8.3-16.15,14.83-2.21,4.14-1.5,9.16-.72,13.78,3.43-3.57,8.94-4.13,13.87-3.69s9.9,1.66,14.77.79A21,21,0,0,0,118,138.33a32.44,32.44,0,0,0,5.34-15.06,51.85,51.85,0,0,1,1.93-10.93c.93-2.8,1.91-3.18,4.85-3.7C136.22,107.57,143,106.46,147.16,101.46Z" transform="translate(-5.86 -29.72)" fill="#3e3e54"/><path d="M74.75,239c-1.22,9.2,1.28,18.44,2.25,27.67a84.06,84.06,0,0,1-2.58,31.09c-1,3.69-2.45,7.53-5.47,9.88-4.5,3.48-11.9,3.23-14.54,8.27a2.94,2.94,0,0,0-.18,2.81c.58.94,1.83,1.15,2.93,1.26A118.76,118.76,0,0,0,85,319.27a4.66,4.66,0,0,0,2.79-1.06,4.78,4.78,0,0,0,1-2.87c.95-9.45,1.41-19,3.56-28.24,1.54-6.63,3.94-13.08,4.75-19.84,1-8.11-.35-16.3-1.69-24.36-.88-5.35.81-43.13-5.67-44.12S75.46,233.64,74.75,239Z" transform="translate(-5.86 -29.72)" fill="url(#linear-gradient-12)"/><path d="M167,163.82c6.5,7.73,9.91,17.55,12.91,27.2a5.75,5.75,0,0,1,.34,3.16,5.47,5.47,0,0,1-1.93,2.52,88.27,88.27,0,0,1-13.46,9.65l-13.34-10.64a7.35,7.35,0,0,1-2.53-2.9,8,8,0,0,1-.23-3.16A54.85,54.85,0,0,0,146,171c-1.2-3.9-6.43-11.95-4.33-15.84C146.6,146.06,163.42,159.54,167,163.82Z" transform="translate(-5.86 -29.72)" fill="#377dff"/><path d="M374.28,112.78c-.44,2.83-2.24,5.22-3.92,7.54s-3.35,4.86-3.44,7.71a11,11,0,0,1-.15,2.81c-.52,1.73-2.39,2.55-4.23,2.42a4.91,4.91,0,0,1-2.4-.75c-2.22-1.42-3.33-4-4.32-6.48-3.25,2.52-6.62,5.1-10.6,6.16s-8.75.25-11.22-3c-1.11-1.48-1.66-3.32-2.79-4.79s-3.25-2.5-4.82-1.54c-1.89,1.16-1.49,4-.84,6.1-1.92-1.36-4.44,4.21-5.86,8.33a8,8,0,0,1-2.57-1.54,13.51,13.51,0,0,1-3.94-6.58c-1.1-4-.95-8.35-2-12.42s-3.23-8.06-2.62-12.23c.81-5.48,6.32-9.51,6.7-15,.13-2-.44-4-.22-6,.65-5.87,7.35-8.77,13.07-10.2,6.23-1.55,13.44-2.57,18.52,1.36,1.83,1.4,3.49,3.46,5.79,3.46,1.56,0,3-1,4.55-1,1.88,0,3.47,1.34,4.74,2.72a34.54,34.54,0,0,1,8.7,26.32C373.24,106.6,374.73,110,374.28,112.78Z" transform="translate(-5.86 -29.72)" fill="#3e3e54"/><path d="M362.54,133.26v.1a36.64,36.64,0,0,1-11.89,24.46c-3.94,3.61-9,6.49-14.37,6s-9.7-4.08-12.86-8.27c-3.26-4.34-5.72-9.15-4.83-14.54a12.06,12.06,0,0,1,.28-1.18l-1.46,1.26a32.54,32.54,0,0,1-.29-5.41,8,8,0,0,0,2.57,1.54c1.42-4.12,3.94-9.69,5.86-8.33-.65-2.12-1.05-4.94.84-6.1,1.57-1,3.7.07,4.82,1.54s1.68,3.31,2.79,4.79c2.47,3.29,7.25,4.11,11.22,3s7.35-3.64,10.6-6.16c1,2.45,2.1,5.06,4.32,6.48A4.91,4.91,0,0,0,362.54,133.26Z" transform="translate(-5.86 -29.72)" fill="url(#linear-gradient-13)"/><path d="M223.06,317a2,2,0,0,0-.87,1.1c-.24,1.25,1.54,1.76,2.8,1.72l36.67-1.18a6.18,6.18,0,0,0,3.45-.79c3.68-2.62.46-10.58-2-12.84-3.88-3.56-6.86-2.37-11.24-.45-5.14,2.24-9.4,5.31-14.82,7C232.24,313.11,227.18,313.88,223.06,317Z" transform="translate(-5.86 -29.72)" fill="url(#linear-gradient-14)"/><path d="M383.76,164.21c5.86,5.91,9.69,13.49,13.42,20.93l18,35.8c4.19,8.37,8.49,17.94,5.35,26.77-2.28,6.4-8.23,11-14.7,13.11s-13.42,2.06-20.2,1.52a149,149,0,0,1-41.91-9.58l4.07-18.65c.51-2.29,1.27-4.92,3.44-5.81a7.42,7.42,0,0,1,4.42.11l26.53,6.18q-2.91-25.14-8.22-49.91a46.63,46.63,0,0,0-3.55-11.46c-2-3.89-11.34-14.15-5.29-17.7C370,152.64,380.72,161.15,383.76,164.21Z" transform="translate(-5.86 -29.72)" fill="#377dff"/><path d="M76.94,150.1c-5.68,3.16-8.45,9.76-10,16.06-5.38,21.17-2,43.46,1.46,65a4,4,0,0,0,1,2.4,3.88,3.88,0,0,0,2.36.75,86.33,86.33,0,0,0,14.11,0,13.51,13.51,0,0,0,12.36-12.49c.29-4.38-1.29-23.13-.52-27.45C99.16,185.82,85.74,145.21,76.94,150.1Z" transform="translate(-5.86 -29.72)" fill="#377dff"/><rect y="290.35" width="439.39" height="10.89" fill="#3e3e54"/><path d="M315.73,133a5.39,5.39,0,0,0-.89,3.45,7.86,7.86,0,0,0,1.36,4.51,2.14,2.14,0,0,0,1.8,1,1.93,1.93,0,0,0,1-.47c1.27-1,1.61-2.66,1.87-4.19a23.33,23.33,0,0,0,.77-3.54,3,3,0,0,0-2-2.78C318.41,130.68,316.45,132,315.73,133Z" transform="translate(-5.86 -29.72)" fill="url(#linear-gradient-15)"/><path d="M319.14,135.58a2.61,2.61,0,0,0,0-1.49,1.23,1.23,0,0,0-1.62-.47,2.13,2.13,0,0,0-1.05,1.49,5.89,5.89,0,0,0,.82,3.92c.25.47.57,1,1.09,1.07a1.26,1.26,0,0,0,1.26-.74,3.25,3.25,0,0,0,.24-1.52C319.89,136.91,319,136.55,319.14,135.58Z" transform="translate(-5.86 -29.72)" fill="url(#linear-gradient-16)"/><path d="M175,198.49l-21.31-19.27.43,18.83,10.76,8.3S173.4,202.28,175,198.49Z" transform="translate(-5.86 -29.72)" fill="url(#linear-gradient-17)"/><path d="M379.25,217.61l.65-18.17s16.43,32.63,12.93,37-10.69-1.86-10.69-1.86Z" transform="translate(-5.86 -29.72)" fill="url(#linear-gradient-18)"/><rect x="249.44" y="27.16" width="37.89" height="3.5" rx="1.75" fill="#377dff"/><rect x="249.44" y="36.21" width="37.89" height="3.5" rx="1.75" fill="#377dff"/><rect x="249.44" y="45.26" width="37.89" height="3.5" rx="1.75" fill="#377dff"/></svg>