<svg width="154" height="311" viewBox="0 0 154 311" fill="none" xmlns="http://www.w3.org/2000/svg"><path d="M131.237 232.909c5.48-2.004 8.297-8.065 6.29-13.538-2.006-5.473-8.076-8.285-13.556-6.282-5.481 2.004-8.297 8.065-6.291 13.538 2.007 5.473 8.076 8.286 13.557 6.282z" fill="#fff"/><path d="M128.551 212.343a10.528 10.528 0 0 0-5.237.519 10.545 10.545 0 0 0-6.572 12.623c1.707.263 3.501.115 5.236-.52 5.177-1.89 7.97-7.403 6.573-12.622z" fill="#DDF4F8"/><path d="M123.678 212.345c5.881-2.15 12.419.88 14.572 6.753 2.153 5.872-.882 12.402-6.762 14.551-5.881 2.15-12.419-.88-14.572-6.752-2.153-5.873.88-12.402 6.762-14.552zm7.265 19.818c5.06-1.849 7.671-7.466 5.817-12.521-1.852-5.053-7.478-7.66-12.538-5.809-5.061 1.849-7.671 7.467-5.818 12.521 1.852 5.052 7.478 7.659 12.539 5.809z" fill="#16110D"/><path d="M113.961 256.186c-1.844-5.156-5.582-9.28-10.525-11.607a20.181 20.181 0 0 0-10.842-1.807 24.891 24.891 0 0 0-1.371-6.381 24.958 24.958 0 0 0-3.258-6.185 18.211 18.211 0 0 0 1.558-4.908c.082.001.165.013.247.013 1.524 0 3.055-.264 4.533-.796 6.95-2.503 10.575-10.212 8.081-17.186a13.33 13.33 0 0 0-6.914-7.627 13.284 13.284 0 0 0-10.219-.484 13.294 13.294 0 0 0-5.602 3.871 16.667 16.667 0 0 0-.956-6.038c-.139-.384-.303-.754-.465-1.124.477.054.955.085 1.435.085 1.457 0 2.92-.253 4.333-.761 6.639-2.392 10.104-9.757 7.722-16.421a12.738 12.738 0 0 0-6.607-7.286 12.665 12.665 0 0 0-9.764-.462 12.718 12.718 0 0 0-6.158 4.746 9.303 9.303 0 0 0-3.838-3.347 9.273 9.273 0 0 0-7.138-.338c-4.852 1.749-7.385 7.132-5.643 12.001a9.347 9.347 0 0 0 2.578 3.837c-4.908 2.638-8.079 7.523-8.677 12.885-.381.094-.76.206-1.134.341-5.855 2.109-8.912 8.606-6.812 14.484a11.238 11.238 0 0 0 5.828 6.427 11.233 11.233 0 0 0 4.792 1.08c1.286 0 2.574-.224 3.822-.673.293-.105.575-.23.854-.358a17.81 17.81 0 0 0 .1 2.128 24.606 24.606 0 0 0-4.206 3.669 13.18 13.18 0 0 0-4.353-3.313 13.072 13.072 0 0 0-10.052-.478c-6.09 2.195-9.573 8.451-8.53 14.641-.565.153-1.128.315-1.685.515-11.24 4.049-17.104 16.517-13.072 27.796 1.96 5.48 5.93 9.86 11.182 12.334a21.485 21.485 0 0 0 9.192 2.071c2.467 0 4.94-.428 7.33-1.288.108-.039.207-.092.315-.131a25.148 25.148 0 0 0 1.442 9.711c2.27 6.349 6.873 11.424 12.957 14.292a24.949 24.949 0 0 0 10.65 2.401c2.859 0 5.726-.497 8.493-1.493 9.663-3.482 15.89-12.335 16.555-22.013 1.52.359 3.064.55 4.613.55 2.322 0 4.652-.403 6.901-1.213 10.585-3.808 16.102-15.545 12.308-26.16z" fill="#fff"/><path d="M68.585 234.296c0-9.587-7.782-17.358-17.382-17.358-3.67 0-7.07 1.143-9.875 3.081a11.233 11.233 0 0 0 7.818 3.177c1.287 0 2.575-.223 3.822-.672.294-.106.576-.23.854-.358-.006.706.024 1.416.103 2.127a24.615 24.615 0 0 0-4.206 3.67 13.166 13.166 0 0 0-4.353-3.313 13.047 13.047 0 0 0-7.832-1.055 17.25 17.25 0 0 0-3.712 10.698c0 9.587 7.782 17.356 17.381 17.356 9.6.005 17.382-7.766 17.382-17.353z" fill="#DBF4EA"/><path d="M65.097 307.308c-3.803 0-7.499-.832-10.99-2.477-6.276-2.957-11.022-8.193-13.364-14.741a25.804 25.804 0 0 1-1.518-8.838 22.319 22.319 0 0 1-6.823 1.072h-.009c-3.294 0-6.497-.722-9.52-2.148-5.443-2.565-9.56-7.105-11.59-12.783-4.179-11.689 1.9-24.612 13.548-28.808.356-.128.713-.24 1.072-.344-.757-6.445 3-12.597 9.143-14.811a13.865 13.865 0 0 1 10.661.505 13.792 13.792 0 0 1 4.024 2.868 25.33 25.33 0 0 1 3.365-2.894 21.699 21.699 0 0 1-.039-.578 12.037 12.037 0 0 1-9.038-.5 12.028 12.028 0 0 1-6.234-6.878c-2.246-6.287 1.022-13.238 7.288-15.493.228-.082.457-.155.685-.222a17.521 17.521 0 0 1 8.105-12.429 10.196 10.196 0 0 1-2.033-3.402c-1.887-5.279.858-11.116 6.122-13.011a10.048 10.048 0 0 1 7.743.367 10.111 10.111 0 0 1 3.509 2.735 13.421 13.421 0 0 1 5.88-4.163 13.45 13.45 0 0 1 10.37.491 13.539 13.539 0 0 1 7.017 7.736c2.529 7.072-1.151 14.891-8.2 17.43-1.557.561-3.16.832-4.822.807.508 1.417.822 2.893.945 4.408a14.089 14.089 0 0 1 4.594-2.736 14.078 14.078 0 0 1 10.827.511 14.127 14.127 0 0 1 7.322 8.077c2.64 7.383-1.199 15.545-8.557 18.196-1.424.514-2.9.793-4.393.838a18.954 18.954 0 0 1-1.305 4.03 25.759 25.759 0 0 1 3.092 6 25.669 25.669 0 0 1 1.338 5.789c3.603-.258 7.201.41 10.468 1.95 5.134 2.42 9.017 6.7 10.931 12.056 3.941 11.027-1.791 23.215-12.778 27.172-3.547 1.279-7.294 1.61-11.073.882-1.026 9.921-7.616 18.416-16.997 21.794a25.848 25.848 0 0 1-8.766 1.542zm-24.199-28.363l-.06 1.207a24.254 24.254 0 0 0 1.396 9.404c2.199 6.151 6.656 11.066 12.549 13.843a24.15 24.15 0 0 0 18.537.879c9.077-3.269 15.369-11.637 16.034-21.321l.064-.93.908.213c3.769.891 7.522.636 11.064-.638 10.167-3.661 15.471-14.946 11.822-25.15-1.771-4.958-5.364-8.92-10.116-11.158a19.437 19.437 0 0 0-10.418-1.735l-.811.087-.065-.813a24.13 24.13 0 0 0-1.328-6.177 24.276 24.276 0 0 0-3.154-5.991l-.275-.382.204-.423a17.311 17.311 0 0 0 1.49-4.695l.11-.673.848.019c1.493-.037 2.956-.249 4.336-.745 6.54-2.356 9.952-9.611 7.604-16.174a12.54 12.54 0 0 0-6.505-7.178 12.48 12.48 0 0 0-9.612-.456 12.605 12.605 0 0 0-5.27 3.643l-1.45 1.687.057-2.223a15.818 15.818 0 0 0-.911-5.751c-.126-.355-.277-.696-.425-1.034l-.557-1.263 1.356.12c1.917.218 3.68-.014 5.408-.637 6.23-2.243 9.48-9.156 7.245-15.409a11.947 11.947 0 0 0-6.2-6.837 11.87 11.87 0 0 0-9.156-.435 11.918 11.918 0 0 0-5.776 4.453l-.671.969-.644-.988a8.53 8.53 0 0 0-3.513-3.062 8.478 8.478 0 0 0-6.53-.309c-4.444 1.6-6.76 6.531-5.166 10.991a8.577 8.577 0 0 0 2.36 3.513l.843.752-.996.534c-4.592 2.467-7.683 7.058-8.265 12.278l-.062.547-.536.132c-.356.088-.71.191-1.056.317-5.447 1.96-8.288 8.005-6.333 13.472a10.454 10.454 0 0 0 5.417 5.978 10.418 10.418 0 0 0 8.008.379c.273-.099.534-.215.794-.335l1.133-.515-.012 1.244c-.007.687.025 1.373.097 2.033l.051.47-.39.268a23.675 23.675 0 0 0-4.069 3.553l-.601.659-.583-.676a12.312 12.312 0 0 0-4.091-3.113 12.289 12.289 0 0 0-9.448-.449c-5.645 2.035-9.018 7.823-8.016 13.765l.12.706-.693.188c-.543.148-1.088.304-1.624.495-10.83 3.9-16.48 15.916-12.593 26.788 1.887 5.279 5.713 9.5 10.773 11.885a20.61 20.61 0 0 0 8.845 1.996h.008c2.399 0 4.777-.418 7.063-1.24l1.437-.552z" fill="#16110D"/><path d="M63.069 280.273c-12.39 0-22.47-10.066-22.47-22.439s10.08-22.441 22.47-22.441c12.39 0 22.471 10.068 22.471 22.441.002 12.371-10.08 22.439-22.471 22.439zm0-43.338c-11.538 0-20.924 9.376-20.924 20.897 0 11.522 9.386 20.895 20.924 20.895 11.539 0 20.925-9.373 20.925-20.895.002-11.521-9.386-20.897-20.925-20.897z" fill="#FFBE2E"/><path d="M32.466 181.923c3.463-7.166.454-15.779-6.721-19.238-7.176-3.458-15.8-.453-19.264 6.712-3.463 7.166-.454 15.779 6.722 19.238 7.175 3.458 15.8.453 19.263-6.712z" fill="#fff"/><path d="M28.667 187.04a14.338 14.338 0 0 0 4.639-5.481c3.271-6.769.762-14.824-5.575-18.612a14.34 14.34 0 0 0-4.639 5.48c-3.273 6.769-.763 14.825 5.575 18.613z" fill="#FED8DA"/><path d="M33.44 182.411c-3.717 7.689-13.008 10.927-20.71 7.215-7.7-3.713-10.94-12.991-7.225-20.682 3.718-7.69 13.009-10.926 20.71-7.215 7.702 3.712 10.943 12.992 7.226 20.682zM7.456 169.884c-3.2 6.618-.41 14.601 6.216 17.795 6.627 3.194 14.62.41 17.82-6.207 3.197-6.618.41-14.601-6.216-17.795-6.626-3.195-14.62-.411-17.82 6.207z" fill="#16110D"/><path d="M91.2 105.466c7.555.774-11.161 33.45-15.878 35.975-4.719 2.525-32.19 20.79-35.446 17.084-3.256-3.706 33.766-54.859 51.324-53.059z" fill="#fff"/><path d="M53.014 135.1c.012-.003 10.26-.973 19.865-10.09 6.748-6.407 8.342-16.261 8.356-16.307-8.964 4.678-19.726 15.752-28.22 26.397z" fill="#DDF4F8"/><path d="M119.166 117.404c-5.223-5.026-14.674 30.761-13.462 35.938 1.209 5.178 5.832 37.734 10.38 37.617 4.548-.116 15.219-61.872 3.082-73.555zM92.635 146.546c-.734-1.358-2.412-1.862-3.794-1.174-3.381 1.682-10.032 5.64-13.605 13.645-3.55 7.956-2.78 18.321-.862 22.733.779 1.791 2.7 3.151 4.42 2.45 4.554-1.86 11.619-7.606 14.868-15.406 4.41-10.589.988-18.524-1.027-22.248z" fill="#fff"/><path d="M77.84 185.231c-1.804 0-3.499-1.44-4.242-3.143-1.983-4.559-2.785-15.231.866-23.413 2.662-5.962 7.502-10.822 14-14.057 1.807-.901 3.966-.23 4.915 1.527 3.984 7.369 4.343 15.097 1.062 22.971-3.166 7.598-10.107 13.731-15.33 15.864-.422.172-.849.251-1.27.251zm12.301-39.323c-.31 0-.627.07-.924.22-6.142 3.057-10.71 7.633-13.21 13.234-3.453 7.741-2.718 17.782-.86 22.054.602 1.377 2.087 2.509 3.327 2.003 3.964-1.618 11.07-6.934 14.41-14.949 3.074-7.383 2.741-14.624-.99-21.523a1.984 1.984 0 0 0-1.753-1.039z" fill="#16110D"/><path d="M90.512 153.075a1.498 1.498 0 0 0-1.996-.616c-1.776.884-5.274 2.965-7.151 7.173-1.866 4.182-1.463 9.629-.453 11.95.41.941 1.42 1.656 2.323 1.288 2.394-.978 6.108-3.998 7.817-8.099 2.318-5.567.52-9.739-.54-11.696z" fill="#fff"/><path d="M81.83 170.766c-1.1 0-2.12-.851-2.558-1.863-1.008-2.319-1.565-7.85.446-12.358 1.406-3.151 3.96-5.717 7.384-7.421a2.302 2.302 0 0 1 3.068.957c2.108 3.898 2.298 7.988.564 12.153-1.67 4.007-5.337 7.244-8.1 8.372-.268.111-.54.16-.805.16zm6.314-20.199a.659.659 0 0 0-.29.068c-3.07 1.527-5.352 3.808-6.595 6.598-1.705 3.818-1.343 8.926-.441 10.998.225.518.779.976 1.175.815 2.379-.971 5.703-3.915 7.18-7.459 1.528-3.672 1.364-7.273-.49-10.704a.607.607 0 0 0-.54-.316zM93.715 107.001c-.277-1.4-1.14-2.243-2.43-2.375-15.825-1.644-44.102 35.379-50.587 47.936-2.342 4.536-2.052 5.842-1.456 6.519.448.508 1.147.754 2.09.754 4.47 0 14.436-5.504 29.186-14.536 2.388-1.462 4.272-2.617 5.204-3.116 4.736-2.535 19.404-28.047 17.993-35.182zm-9.236.722c-.003.014-3.835 15.019-13.736 25.22-8.25 8.502-20.389 12.197-24.216 13.195a150.913 150.913 0 0 1 5.126-7.239c10.151-13.521 23.115-26.849 32.826-31.176z" fill="#16110D"/><path d="M131.732 17.735l19.699 7.991s-4.996 39.91-17.717 71.2c-12.721 31.291-25.523 52.748-25.523 52.748-2.129 5.29-10.821 6.754-19.413 3.268-8.592-3.485-13.832-10.601-11.702-15.892 0 0 2.951-18.01 18.136-55.743 15.186-37.735 36.52-63.572 36.52-63.572z" fill="#fff"/><path d="M122.235 64.69C134.824 35.64 138.19 22.8 138.19 22.8l-8.536-3.313c-4.717 6.047-22.266 29.651-35.298 62.037a565.315 565.315 0 0 0-5.96 15.442c-1.986 10.498-3.594 21.149-1.3 22.079 6.715 2.72 22.183-24.464 35.139-54.355z" fill="#fff"/><path d="M119.752 116.798c-.852-.82-1.898-.945-2.945-.351-5.944 3.369-12.962 32.66-11.927 37.089.237 1.022.624 3.191 1.11 5.936 3.633 20.467 6.448 32.333 10.072 32.333.014 0 .029 0 .043-.002 1.018-.025 1.869-1.104 2.841-3.603 5.007-12.866 11.604-61.01.806-71.402zm-13.228 36.353c-1.092-4.675 6.341-32.531 11.117-35.239.172-.099.316-.148.447-.148.169 0 .318.08.492.247 2.554 2.459 4.053 7.301 4.791 13.371-1.123.935-5.502 5.431-10.304 21.624-2.322 7.828-2.949 14.533-2.781 19.962-.822-3.931-1.699-8.523-2.633-13.791-.491-2.773-.878-4.96-1.129-6.026z" fill="#16110D"/><path d="M131.476 16.72l-.397.477c-.213.26-21.59 26.372-36.65 63.794-14.496 36.022-17.913 54.373-18.17 55.829-2.21 5.703 3.238 13.266 12.2 16.902 3.208 1.302 6.491 1.962 9.502 1.962 2.289-.001 4.421-.382 6.239-1.151 2.298-.975 3.938-2.524 4.75-4.486.734-1.244 13.261-22.586 25.546-52.805 12.617-31.032 17.722-71.012 17.772-71.412l.082-.641-20.874-8.47zM77.862 137.364l.05-.178c.029-.179 3.123-18.381 18.086-55.565 13.84-34.394 33.04-59.158 35.999-62.87l14.855 6.027-6.448 3.093s-6.35 29.16-21.925 63.463c-11.462 25.247-19.071 47.268-26.636 52.537-5.022 3.496-10.46 2.549-12.964.266-1.403-2.318-1.849-4.707-1.017-6.773z" fill="#16110D"/><path d="M116.224 98.017a13.15 13.15 0 0 1-4.954-.974c-6.75-2.739-10.026-10.478-7.301-17.251a13.142 13.142 0 0 1 7.106-7.243 13.084 13.084 0 0 1 10.092-.076c6.75 2.738 10.027 10.477 7.3 17.25a13.142 13.142 0 0 1-7.102 7.243c-1.654.7-3.398 1.05-5.141 1.05z" fill="#16110D"/><path d="M116.224 98.665c-1.778 0-3.528-.345-5.199-1.022-7.081-2.873-10.515-10.99-7.657-18.093a13.787 13.787 0 0 1 7.454-7.598 13.728 13.728 0 0 1 10.589-.08c7.083 2.873 10.517 10.99 7.659 18.094a13.779 13.779 0 0 1-7.452 7.597 13.752 13.752 0 0 1-5.394 1.102zm-.012-26.517c-1.657 0-3.312.333-4.884.999a12.497 12.497 0 0 0-6.757 6.885c-2.592 6.443.523 13.805 6.943 16.408a12.479 12.479 0 0 0 9.595-.073 12.49 12.49 0 0 0 6.753-6.886c2.594-6.442-.521-13.803-6.943-16.406a12.484 12.484 0 0 0-4.707-.927z" fill="#fff"/><path d="M108.69 81.704c-1.679 4.172.33 8.922 4.488 10.608 4.157 1.685 8.888-.328 10.567-4.5 1.679-4.171-.33-8.92-4.488-10.607-4.157-1.687-8.888.328-10.567 4.5zM131.732 17.735c-1.273 3.163 2.105 7.517 7.545 9.723 5.439 2.206 10.881 1.432 12.154-1.732 1.272-3.163 3.861-22.342-1.579-24.548-5.44-2.207-16.847 13.394-18.12 16.557z" fill="#fff"/><path d="M109.829 82.124a6.916 6.916 0 0 0-.495 2.5 6.866 6.866 0 0 0 3.425 3.026c3.534 1.433 7.554-.278 8.98-3.823.33-.82.485-1.665.496-2.5a6.864 6.864 0 0 0-3.426-3.026c-3.533-1.434-7.553.278-8.98 3.823zM147.199 7.554c.719-1.935.956-4.296.96-6.59-4.039.87-11.298 9.146-14.744 13.875 0 0-.861 3.912 2.928 5.583 3.104 1.37 8.686-7.031 10.856-12.868z" fill="#DDF4F8"/><path d="M150.17.397c-1.089-.442-2.387-.35-3.855.273-5.966 2.529-14.202 13.859-15.366 16.75-1.467 3.65 2.052 8.402 8.011 10.82 2.165.878 4.364 1.323 6.358 1.323 1.462 0 2.814-.24 3.958-.725 1.43-.605 2.447-1.575 2.94-2.798 1.068-2.656 4.284-23.077-2.046-25.643zm-1.555 26.889c-2.269.96-5.725.728-9.021-.61-4.917-1.994-8.158-5.945-7.078-8.629.984-2.445 8.857-13.453 14.459-15.826.789-.335 1.476-.464 2.048-.393.371 1.995-.041 7.231-1.315 13.01-1.623 7.365-4.06 10.77-4.06 10.77s2.599 1.217 7.053-.346c-.017.048-.036.104-.053.147-.326.812-1.011 1.443-2.033 1.877z" fill="#16110D"/><path d="M90.92 277.789c-9.096 0-16.497 7.391-16.497 16.474 0 9.084 7.401 16.475 16.497 16.475s16.497-7.391 16.497-16.475c0-9.083-7.401-16.474-16.497-16.474z" fill="#DDF4F8"/><path d="M94.62 282.314c0 8.593-7 15.583-15.604 15.583-.68 0-1.347-.058-2.003-.143.041.621.113 1.234.222 1.834.586.06 1.18.091 1.78.091 9.588 0 17.39-7.791 17.39-17.365 0-.637-.04-1.263-.107-1.882a16.757 16.757 0 0 0-1.835-.212c.093.688.158 1.382.158 2.094z" fill="#FFBE2E"/></svg>