<svg width="80" height="105" xmlns="http://www.w3.org/2000/svg"><g fill="none" fill-rule="evenodd"><circle fill="#6BBF4E" opacity=".5" cx="40" cy="40" r="40"/><circle fill="#6BBF4E" cx="40" cy="40" r="25"/><path d="M37.571 63l-.013.504c-.362 10.778-5.415 23.96-14.708 39.963L21.952 105 20 104l.976-2 .86-1.426c9.169-15.367 13.851-28.218 13.79-38.12L35.618 62v-1h8.762v1c-.218 10.263 4.762 23.762 14.643 40l.976 2-1.952 1-.898-1.533c-9.293-16.003-14.346-29.185-14.708-39.963L42.43 63H37.57z" fill="#363F44" fill-rule="nonzero"/><path fill="#363F44" fill-rule="nonzero" d="M41 21v41h-2V21zM46 76v2H34v-2zM51 88v2H29v-2z"/><circle fill="#FFF" cx="40" cy="40" r="15"/><path d="M34.426 41.315a1.428 1.428 0 00-2.01 0 1.404 1.404 0 000 1.995L37.14 48l12.412-11.56a1.404 1.404 0 00.064-1.994 1.428 1.428 0 00-2.008-.064l-10.404 9.69-2.777-2.757z" fill="#6BBF4E"/></g></svg>