<svg width="84" height="84" xmlns="http://www.w3.org/2000/svg"><g fill="none" fill-rule="evenodd"><circle fill="#6BBF4E" cx="70" cy="14" r="14"/><circle fill="#6BBF4E" cx="70" cy="70" r="14"/><circle fill="#6BBF4E" cx="14" cy="70" r="14"/><circle fill="#6BBF4E" cx="14" cy="14" r="14"/><path stroke="#363F44" stroke-width="2" d="M14 14h56v56H14z"/><circle fill="#6BBF4E" cx="42" cy="42" r="18"/><path d="M42 43.391c5.1 0 9.316 3.745 10 8.609H32c.684-4.864 4.9-8.609 10-8.609zM42 30c3.903 0 7.068 2.998 7.068 6.696 0 3.698-3.165 6.695-7.068 6.695-3.903 0-7.068-2.997-7.068-6.695C34.932 32.998 38.097 30 42 30z" fill="#FFF"/><circle fill="#6BBF4E" opacity=".618" cx="70" cy="70" r="14"/><circle fill="#6BBF4E" opacity=".618" cx="14" cy="70" r="14"/><circle fill="#6BBF4E" opacity=".618" cx="14" cy="14" r="14"/><circle fill="#6BBF4E" opacity=".618" cx="70" cy="14" r="14"/><path d="M70 15a8 8 0 018 8H62a8 8 0 018-8zm0-12a6 6 0 110 12 6 6 0 010-12zM14 15a8 8 0 018 8H6a8 8 0 018-8zm0-12a6 6 0 110 12 6 6 0 010-12zM14 71a8 8 0 018 8H6a8 8 0 018-8zm0-12a6 6 0 110 12 6 6 0 010-12zM70 71a8 8 0 018 8H62a8 8 0 018-8zm0-12a6 6 0 110 12 6 6 0 010-12z" fill="#FFF"/></g></svg>