<svg width="106" height="84" xmlns="http://www.w3.org/2000/svg"><g fill="none" fill-rule="evenodd"><path d="M19.542 33.085c10.744 0 19.453 8.71 19.453 19.453v19.317H.09V52.538c0-10.744 8.71-19.453 19.453-19.453zM19.175.437c7.713 0 13.966 6.395 13.966 14.283 0 7.89-6.253 14.284-13.966 14.284-7.714 0-13.966-6.395-13.966-14.284C5.209 6.832 11.46.437 19.175.437zM86.46 33.085c10.744 0 19.454 8.71 19.454 19.453v19.317H67.008V52.538c0-10.744 8.71-19.453 19.453-19.453zM86.094.437c7.714 0 13.966 6.395 13.966 14.283 0 7.89-6.252 14.284-13.966 14.284-7.713 0-13.966-6.395-13.966-14.284C72.127 6.832 78.38.437 86.093.437z" fill="#6BBF4E"/><path d="M33.77 82.758h41.575V64.352c0-11.48-9.307-20.787-20.787-20.787-11.48 0-20.788 9.307-20.788 20.787v18.406zM54.146 8.876c-8.093 0-14.642 6.354-14.642 14.177 0 7.822 6.549 14.176 14.642 14.176s14.642-6.354 14.642-14.176c0-7.823-6.549-14.177-14.642-14.177z" stroke="#2F373B" stroke-width="2"/></g></svg>