<svg height="90" width="88" xmlns="http://www.w3.org/2000/svg"><g fill="none" fill-rule="evenodd"><path d="m44 64.001c20.073-.107 34.74 8.56 44 25.999h-88c9.26-17.226 23.927-25.892 44-25.999z" fill="#6bbf4e"/><g stroke="#363f44"><path d="m57.875 8.938h10.406l8.094 16.187m-64.75 0 8.094-16.188h10.406" stroke-width="2"/><path d="m27 18c0-8.836 7.611-16 17-16s17 7.164 17 16" stroke-width="2"/><path d="m81 25.125h-74" stroke-linejoin="round" stroke-width="2"/><path d="m16.25 59.813v-21.969m6.938 0v21.969m-9.188-25.813h12v-4h-12zm0 30h12v-4h-12zm18.438-4.187v-21.969m6.937 0v21.969m-9.375-25.813h12v-4h-12zm0 30h12v-4h-12zm18.625-4.187v-21.969m6.938 0v21.969m-9.563-25.813h12v-4h-12zm0 30h12v-4h-12zm18.813-4.187v-21.969m6.937 0v21.969m-9.75-25.813h12v-4h-12zm0 30h12v-4h-12zm19-34.25h-74m3.469 34.688h67.062" stroke-width="2"/></g><path d="m44 9a5 5 0 1 1 0 10 5 5 0 0 1 0-10z" fill="#6bbf4e"/><path d="m52.094 13.563h2.312m-18.5 0h-2.312" stroke="#6bbf4e" stroke-width="2"/><path d="m8 73h72v-4h-72z" stroke="#363f44" stroke-width="2"/></g></svg>