<svg width="125" height="86" xmlns="http://www.w3.org/2000/svg"><g transform="translate(2.186 .06)" fill="none" fill-rule="evenodd"><path d="M45.857 80.113v-2.108c4.52 0 8.201-3.64 8.334-8.18l.003-.253v-6.325h20.844v6.325l.004.253c.132 4.54 3.813 8.18 8.334 8.18v2.108h-37.52zM108.557 0a4 4 0 014 4v53.139a4 4 0 01-4 4H20.675a4 4 0 01-4-4V4a4 4 0 014-4h87.882z" fill="#6BBF4E"/><rect stroke="#2F373B" stroke-width="2" x="-1" y="31.396" width="36.393" height="52.598" rx="1"/><rect stroke="#2F373B" stroke-width="2" x="94.882" y="41.937" width="25.971" height="42.056" rx="1"/><path stroke="#FFF" stroke-width="2" d="M52.11 32.574l10.422 8.433 15.633-18.974"/><path stroke="#353F43" stroke-width="2" d="M8.338 61.091l7.503 6.09 11.256-13.703M103.178 63.902l4.168 3.28 6.253-7.38"/></g></svg>