<svg width="107" height="75" xmlns="http://www.w3.org/2000/svg"><g fill="none" fill-rule="evenodd"><circle fill="#6BBF4E" cx="80.5" cy="26.5" r="26.5"/><path stroke="#363F44" stroke-width="2" d="M1 14h82v60H1z"/><path fill="#363F44" fill-rule="nonzero" d="M11 32.528L12.311 31 21 38.718 12.16 45l-1.142-1.663 6.75-4.797zM41 43v2H25v-2z"/><path d="M72.235 27.33a1.966 1.966 0 00-2.68 0 1.737 1.737 0 000 2.547l6.297 5.982 16.55-14.746c.763-.68.801-1.82.085-2.544a1.966 1.966 0 00-2.678-.082L75.937 30.848l-3.702-3.517z" fill="#FFF"/></g></svg>