<svg width="81" height="86" xmlns="http://www.w3.org/2000/svg"><g fill="none" fill-rule="evenodd"><path d="M4 0h40a4 4 0 014 4v68a4 4 0 01-4 4H4a4 4 0 01-4-4V4a4 4 0 014-4z" fill="#6BBF4E"/><path d="M64 53l-6.5 16L51 53h.243c1.464 1.201 3.745 1.973 6.308 1.973 2.562 0 4.843-.772 6.307-1.973H64zm-3.001 2.05H54l3.5 8.616 3.499-8.616z" fill="#363F44" fill-rule="nonzero"/><path d="M18.56 35.837a1.492 1.492 0 00-2.12 0 1.52 1.52 0 000 2.138L21.424 43l13.101-12.385a1.52 1.52 0 00.068-2.137 1.492 1.492 0 00-2.12-.069L21.492 38.791l-2.931-2.954z" fill="#FFF"/><path d="M24 49a8 8 0 100 16 8 8 0 000-16zm0 2a6 6 0 110 12 6 6 0 010-12zM59 65v5.14c0 8.654-6.956 15.689-15.6 15.857l-.318.003h-4.164c-8.685 0-15.746-6.93-15.915-15.544L23 70.14V65h2v5.14c0 7.555 6.064 13.7 13.607 13.864l.31.003h4.165c7.583 0 13.75-6.042 13.915-13.558l.003-.31V65h2zM61.405 2c11.829 1.286 19.413 9.263 17.217 19.017l-.072.306-3.838 15.652C72.142 47.457 64.78 56 58 56c-6.692 0-13.954-8.325-16.611-18.623l-.101-.402-3.838-15.652c-2.377-9.696 4.893-17.699 16.436-19.237v2.022c-10.185 1.446-16.388 8.264-14.561 16.45l.067.285 3.837 15.653C45.605 46.184 52.336 53.993 58 53.993c5.585 0 12.209-7.593 14.67-17.095l.1-.402 3.838-15.653c2.084-8.5-4.478-15.587-15.203-16.826V2z" fill="#363F44" fill-rule="nonzero"/><path d="M67.9 3.17l-4.501-2.029c-.897-.404-1.915.088-2.274 1.099a2.192 2.192 0 00-.125.732v4.057C61 8.118 61.783 9 62.75 9c.222 0 .442-.048.649-.141L67.9 6.83c.897-.404 1.333-1.551.974-2.562-.177-.5-.53-.897-.974-1.098zM47.1 3.17l4.501-2.029c.897-.404 1.915.088 2.274 1.099.083.232.125.48.125.732v4.057C54 8.118 53.217 9 52.25 9c-.222 0-.442-.048-.649-.141L47.1 6.83c-.897-.404-1.333-1.551-.974-2.562.177-.5.53-.897.974-1.098z" fill="#363F44"/></g></svg>