<?xml version="1.0" encoding="UTF-8"?>
<svg width="93px" height="90px" viewBox="0 0 93 90" version="1.1" xmlns="http://www.w3.org/2000/svg" xmlns:xlink="http://www.w3.org/1999/xlink">
    <!-- Generator: Sketch 61 (89581) - https://sketch.com -->
    <title>summary 3</title>
    <desc>Created with Sketch.</desc>
    <g id="summary-3" stroke="none" stroke-width="1" fill="none" fill-rule="evenodd">
        <path d="M52.6613534,1 L52.6611486,1.00574002 L53.0297386,1.00123553 C53.1688345,1 53.3079114,1 53.4469692,1 C68.3435651,6.81198669 68.3435655,11.9703886 93,19.1921532 C93,48.2760316 85.8085442,72.8395327 53.446976,90 C53.1842231,89.9974883 52.9226217,89.9925043 52.6621719,89.9850482 L52.6622055,89.9976481 L52.553024,90 C20.1914558,72.8395327 13,48.2760316 13,19.1921532 C37.4098702,12.0426063 37.6539692,6.91536106 52.1105624,1.17416624 L52.5530308,1 L52.6613534,1 Z" id="Path" fill="#6BBF4E"></path>
        <path d="M55.0971133,42.0026501 L55.5,42 C56.899425,42 57.7159518,42.0772835 58.3895698,42.5634665 C58.726377,42.8065589 58.9628026,43.1932295 59.0469471,43.524252 C59.0890285,43.6897623 59.1062088,43.8391478 59.1124064,43.9740497 L59.1111126,44.7052172 C59.1187277,44.9159558 59.1504663,45.0702958 59.2528328,45.2471607 C59.4063826,45.512458 59.8061298,45.9271367 60.9287871,46.392156 C62.0514462,46.857179 62.6264266,46.8468227 62.9225966,46.7678009 C63.1595311,46.7045864 63.3021552,46.5915022 63.5028607,46.3903586 L63.6666611,46.2223932 C63.8162052,46.0676691 63.9907375,45.8696041 64.2843092,45.6950459 C64.5778791,45.520473 65.019251,45.4120653 65.4293027,45.4783268 C66.1673957,45.5976091 66.7560841,46.0347666 67.5878214,46.8423859 L67.8746073,47.1253853 C68.8641554,48.1149334 69.3855127,48.7469748 69.5180541,49.5670782 C69.5843211,49.9771299 69.4758931,50.4185018 69.3013349,50.7120717 C69.1267712,51.0056434 68.9323328,51.1837948 68.7775994,51.3333315 C68.4681494,51.6324197 68.3075999,51.7812297 68.22858,52.0773978 C68.1495618,52.373566 68.1392056,52.9485482 68.6042323,54.0712055 C69.0692534,55.1938628 69.4839303,55.59361 69.7492276,55.7471598 C69.9703087,55.8751025 70.1587029,55.8902619 70.4643771,55.8874802 L70.6630549,55.8844169 C70.8782058,55.8807553 71.1411157,55.8689011 71.4721363,55.9530455 C71.8031588,56.0371956 72.1934411,56.2700039 72.4365335,56.606811 C72.8740982,57.2130673 72.9804543,57.9380051 72.9973499,59.097117 L73,59.5 C73,60.8994324 72.9227165,61.7159592 72.4365335,62.3895772 C72.1934411,62.7263844 71.8031588,62.96281 71.4721363,63.0469545 C71.306626,63.0890359 71.1581434,63.1062162 71.0241445,63.1124138 L70.2938464,63.11112 C70.0820377,63.1187351 69.9260925,63.1504737 69.7492276,63.2528402 C69.4839303,63.40639 69.0692516,63.8061372 68.6042323,64.9287945 C68.1392093,66.0514536 68.1495655,66.626434 68.2285873,66.922604 C68.2918018,67.1595385 68.4071976,67.3021626 68.6092657,67.5028681 L69.0320375,67.9214822 C69.1218109,68.0205048 69.2140632,68.1375308 69.3013423,68.2843166 C69.4758968,68.5778865 69.5843229,69.0192584 69.5180615,69.4293101 C69.3987792,70.1674031 68.9645471,70.7560915 68.1575129,71.5878288 L67.8746147,71.8746147 C66.8850666,72.8641628 66.2494134,73.3855201 65.4293101,73.5180615 C65.0192584,73.5843285 64.5778865,73.4759005 64.2843166,73.3013423 C64.1375308,73.2140605 64.0205029,73.1218099 63.9214794,73.0320382 L63.6666685,72.7776068 C63.3675803,72.4681568 63.2187722,72.3076092 62.922604,72.2285873 C62.626434,72.1495692 62.0514536,72.139213 60.9287945,72.6042323 C59.8061372,73.0692534 59.40639,73.4839303 59.2528402,73.7492276 C59.1248204,73.9703087 59.1072082,74.1587029 59.1091744,74.4643771 L59.1119769,74.6630549 C59.1156385,74.8782058 59.1310989,75.1411157 59.0469545,75.4721363 C58.9628044,75.8031588 58.7263844,76.1934411 58.3895772,76.4365335 C57.783321,76.8740982 57.0613087,76.9804543 55.9027832,76.9973499 L55.5,77 C54.1005676,77 53.2804291,76.9227165 52.606811,76.4365335 C52.2700039,76.1934411 52.03719,75.8031588 51.9530455,75.4721363 C51.8899233,75.2238708 51.8808004,75.0139177 51.8817444,74.8336909 L51.8844169,74.6630549 C51.8917403,74.2327531 51.9007095,74.0145249 51.7471598,73.7492276 C51.5936118,73.4839303 51.1938628,73.0692516 50.0712055,72.6042323 C48.9485482,72.1392093 48.373566,72.1495655 48.0773978,72.2285873 C47.8404633,72.2918018 47.697838,72.4071976 47.4971321,72.6092657 L47.3333315,72.7776068 C47.1837874,72.9323328 47.0056434,73.1267842 46.7120717,73.3013423 C46.4185018,73.4758968 45.9771299,73.5843229 45.5670782,73.5180615 C44.8289852,73.3987792 44.2432238,72.9645471 43.4120705,72.1575129 L43.1253853,71.8746147 C42.1358372,70.8850666 41.6108682,70.2494134 41.4783268,69.4293101 C41.4120598,69.0192584 41.5204878,68.5778865 41.6950459,68.2843166 C41.8259687,68.0641378 41.970113,67.9109146 42.0992728,67.7849783 L42.2223932,67.6666685 C42.5318432,67.3675803 42.6887791,67.2187722 42.7678009,66.922604 C42.846819,66.626434 42.8571753,66.0514536 42.392156,64.9287945 C41.9271367,63.8061372 41.5124599,63.40639 41.2471607,63.2528402 C41.0260796,63.1248204 40.8401935,63.1072082 40.5353554,63.1091744 L40.3369451,63.1119769 C40.1217942,63.1156385 39.8552726,63.1310989 39.524252,63.0469545 C39.1932295,62.9628044 38.8065589,62.7263844 38.5634665,62.3895772 C38.1259018,61.783321 38.0195457,61.0613087 38.0026501,59.9027832 L38,59.5 C38,58.1005676 38.0772835,57.2804291 38.5634665,56.606811 C38.8065589,56.2700039 39.1932295,56.03719 39.524252,55.9530455 C39.7725174,55.8899233 39.9845022,55.8808004 40.1657448,55.8817444 L40.3369451,55.8844169 C40.7672469,55.8917403 40.9818634,55.9007095 41.2471607,55.7471598 C41.512458,55.5936118 41.9271367,55.1938628 42.392156,54.0712055 C42.857179,52.9485482 42.8468227,52.373566 42.7678009,52.0773978 C42.7045864,51.8404633 42.5915022,51.697838 42.3903586,51.4971321 L42.2223932,51.3333315 C42.0676691,51.1837874 41.8696041,51.0056434 41.6950459,50.7120717 C41.520473,50.4185018 41.4120653,49.9771299 41.4783268,49.5670782 C41.5976091,48.8289852 42.0347666,48.2432238 42.8423859,47.4120705 L43.1253853,47.1253853 C44.1149334,46.1358372 44.7469748,45.6108682 45.5670782,45.4783268 C45.9771299,45.4120598 46.4185018,45.5204878 46.7120717,45.6950459 C46.8588575,45.7823278 46.9767883,45.8754859 47.0767147,45.9661629 L47.3333315,46.2223932 C47.6324197,46.5318432 47.7812297,46.6887828 48.0773941,46.7678009 C48.3735623,46.846819 48.9485445,46.8571753 50.0712018,46.392156 C51.1938591,45.9271367 51.5936063,45.5124599 51.7471561,45.2471607 C51.8750988,45.0260796 51.8902582,44.8401935 51.8874765,44.5353554 L51.8844132,44.3369451 C51.8807516,44.1217942 51.8688974,43.8552726 51.9530418,43.524252 C52.0371919,43.1932295 52.2700002,42.8065589 52.6068073,42.5634665 C53.2130636,42.1259018 53.9380014,42.0195457 55.0971133,42.0026501 L55.0971133,42.0026501 Z M55.4999972,54.2626388 C52.5974886,54.2626388 50.2626388,56.5974886 50.2626388,59.4999972 C50.2626388,62.4025059 52.5974886,64.7337421 55.4999972,64.7337421 C58.4025059,64.7337421 60.7337421,62.4025059 60.7337421,59.4999972 C60.7337421,56.5974886 58.4025059,54.2626388 55.4999972,54.2626388 Z" id="Shape" stroke="#363F44" stroke-width="2"></path>
        <path d="M26.2594877,5.19096059 C27.1802226,4.84084098 28.2336725,4.99319348 30.037409,5.47650286 L30.873417,5.7128975 C32.1604662,6.10165099 32.9333529,6.48185997 33.4519508,7.11817591 C33.7631133,7.49996595 33.9036057,8.00019256 33.8983367,8.40590957 C33.8944274,8.71019775 33.8396998,8.96397136 33.7791824,9.18849694 L33.7184026,9.40406082 C33.5601088,9.9571 33.4469208,10.3214254 33.5779856,10.808519 C33.7090616,11.2956126 34.1403558,12.0287407 35.4730742,13.051371 C36.8057926,14.0740014 37.6248934,14.2990691 38.1293148,14.2996092 C38.5496659,14.3000576 38.843415,14.1616932 39.2150805,13.9442239 L39.449066,13.8047275 C39.6956765,13.6566942 39.9752649,13.4755203 40.3658096,13.3654737 C40.7563523,13.255427 41.27436,13.2650276 41.7236739,13.4667699 C42.6223037,13.8702551 43.2619918,14.7226423 44.1956675,16.3398169 C45.1293488,17.956999 45.547689,18.9371804 45.4478051,19.9171585 C45.3978612,20.4071467 45.1471729,20.8605552 44.8565987,21.1437528 C44.6386681,21.3561496 44.418756,21.4970252 44.2163161,21.6130615 L44.0204209,21.7225469 C43.5174108,22.0016517 43.1811099,22.1764335 42.9293659,22.6135441 C42.6775372,23.0506566 42.4620359,23.8761026 42.6813007,25.5415858 C42.9005674,27.2070671 43.324327,27.9445445 43.6806255,28.301605 C43.9181578,28.5396465 44.1607115,28.657554 44.4613868,28.7510138 L44.9626285,28.8848287 C45.2416825,28.9545329 45.5640039,29.026181 45.9179746,29.2245224 C46.2719453,29.4228639 46.6339794,29.7981549 46.8090397,30.2585203 C47.1591584,31.1792549 47.0068072,32.2327065 46.5234974,34.0364427 L46.287103,34.8724513 C45.8983497,36.1595013 45.51814,36.9323881 44.8818238,37.4509874 C44.500035,37.7621499 43.9998081,37.9026422 43.5940908,37.8973733 C43.2898014,37.8934639 43.0360274,37.8387364 42.811502,37.778219 L42.5959384,37.7174392 C42.0428998,37.5591266 41.6821246,37.4468984 41.1950306,37.5779819 C40.7079365,37.709056 39.9712587,38.1393998 38.9486283,39.4721179 C37.925996,40.804836 37.7009298,41.6239367 37.7003897,42.1283561 C37.7000309,42.4646381 37.7900904,42.7203173 37.9378934,42.9995432 L38.1988214,43.449061 C38.3468559,43.6956696 38.524481,43.9743077 38.6345265,44.3648523 C38.7445738,44.7553931 38.734973,45.2734025 38.5332312,45.7227163 C38.1297457,46.6213459 37.2773583,47.2610338 35.6601759,48.194715 C34.0429896,49.1283962 33.0628118,49.5467381 32.0828316,49.4468542 C31.5928434,49.3969104 31.1394347,49.1462221 30.8562389,48.855648 C30.6438407,48.637716 30.504961,48.4183392 30.3899228,48.2161671 L30.2809918,48.0204206 C30.0018889,47.5174126 29.8235562,47.1801595 29.3864436,46.9284155 C28.9493329,46.6765982 28.1274376,46.462036 26.461954,46.6813026 C24.7964705,46.9005674 24.0554439,47.3233766 23.6983834,47.679675 C23.4008313,47.9765903 23.2934536,48.2820114 23.1852545,48.6985499 L23.1187085,48.962628 C23.0490043,49.241682 22.9738053,49.5630511 22.7754638,49.9170236 C22.5771242,50.2709942 22.2053821,50.6339785 21.7450147,50.8090388 C20.8242818,51.1591594 19.77083,51.0068063 17.9670953,50.5234984 C16.1633606,50.0401887 15.1748673,49.6454026 14.5525479,48.8818233 C14.2413911,48.5000346 14.0973422,47.9988575 14.1026111,47.5931403 C14.1065205,47.288851 14.1632485,47.0356116 14.2247663,46.8113535 L14.2861017,46.5959384 C14.4444332,46.0429 14.5531049,45.6811746 14.4220214,45.1940806 C14.2909473,44.7069866 13.8641542,43.9712592 12.5314358,42.9486291 C11.1987174,41.925999 10.3760657,41.6999806 9.87164434,41.6994405 C9.53536369,41.6990817 9.28126318,41.7895635 9.00308884,41.9376481 L8.55449019,42.1988224 C8.30788114,42.3468568 8.02569306,42.5235316 7.63515068,42.6335771 C7.24460886,42.7436244 6.72660044,42.7340236 6.27728611,42.5322818 C5.45354146,42.1624202 4.84738042,41.4153564 4.03290121,40.0477722 L3.80528561,39.6592271 C2.87160444,38.0420412 2.45325996,37.0618636 2.55314577,36.0818836 C2.60308886,35.5918955 2.8537787,35.1384869 3.14435323,34.8552912 C3.36228455,34.642893 3.58365883,34.5045479 3.78682901,34.389777 L3.98312943,34.2809945 C4.48613927,34.0018916 4.81984134,33.8226087 5.07158533,33.3854962 C5.32332877,32.9483855 5.5379646,32.1264904 5.31869963,30.4610073 C5.09943466,28.7955241 4.68017489,28.055448 4.32387663,27.6983875 C4.02696109,27.4008371 3.71907423,27.292797 3.30171353,27.1843772 L3.03737224,27.1177605 C2.75831785,27.0480582 2.43694791,26.9728592 2.08297795,26.7745178 C1.72900742,26.5761783 1.36602099,26.2044363 1.19096068,25.744069 C0.840840801,24.8233362 0.993193707,23.7698828 1.47650281,21.9661504 C1.95981155,20.1624161 2.35459674,19.1739229 3.1181766,18.5516037 C3.49996616,18.2404469 4.0011441,18.096398 4.40686158,18.101667 C4.71114982,18.1055763 4.96438853,18.1623044 5.18864667,18.2238221 L5.404062,18.2851576 C5.9571013,18.4434702 6.32237745,18.5531016 6.80947173,18.4220181 C7.29656543,18.290944 8.02874208,17.8632007 9.05137263,16.5304826 C10.0740032,15.1977645 10.3000218,14.375113 10.3005619,13.8706913 C10.3010104,13.4503408 10.1619855,13.1590571 9.94429637,12.788212 L9.80472964,12.5544885 C9.65669613,12.3078797 9.47647376,12.0247406 9.36642644,11.6341983 C9.2563795,11.2436562 9.26598024,10.7256479 9.46772263,10.2763337 C9.87120796,9.37770374 10.7235951,8.73801583 12.3407795,7.80433411 C13.9579638,6.87065276 14.9381435,6.452308 15.9181219,6.55219454 C16.4081101,6.60213762 16.8615207,6.8528274 17.1447164,7.14340187 C17.3571132,7.36133286 17.4974533,7.58324198 17.6132218,7.78667959 L17.7225585,7.98312855 C18.0016652,8.48613885 18.1773973,8.8188898 18.614508,9.07063318 C19.0516206,9.32237694 19.8770668,9.53796396 21.5425503,9.31869903 C23.208032,9.09943411 23.9445574,8.67922283 24.3016179,8.32292445 C24.5991715,8.02600945 24.7096702,7.71878291 24.8189128,7.30164238 L24.885794,7.03737157 C24.9554982,6.75831724 25.0271482,6.43599633 25.2254878,6.08202625 C25.4238293,5.72805637 25.7991222,5.36602087 26.2594877,5.19096059 Z M25.9099693,20.8739421 C21.964462,19.8167477 17.9330034,22.1443137 16.8758089,26.0898163 C15.8186143,30.0353189 18.1461788,34.0667785 22.0916842,35.1239729 C26.0371877,36.1811672 30.0686463,33.8536032 31.1258409,29.9081006 C32.1499981,26.0858931 29.99764,22.1830187 26.2750663,20.9816743 L25.9099693,20.8739421 L25.9099693,20.8739421 Z" id="Shape" stroke="#363F44" stroke-width="2"></path>
    </g>
</svg>