<?xml version="1.0" encoding="UTF-8"?>
<svg width="86px" height="76px" viewBox="0 0 86 76" version="1.1" xmlns="http://www.w3.org/2000/svg" xmlns:xlink="http://www.w3.org/1999/xlink">
    <!-- Generator: Sketch 61 (89581) - https://sketch.com -->
    <title>summary 2</title>
    <desc>Created with Sketch.</desc>
    <g id="summary-2" stroke="none" stroke-width="1" fill="none" fill-rule="evenodd">
        <path d="M43.1118983,22 C54.405171,22 64.3282612,28.03163 70,37.1325964 L68.560426,38.6305066 C63.2862241,29.8793659 53.8611113,24.0505932 43.1118983,24.0505932 C32.2121009,24.0505932 22.6737619,30.0438189 17.4441653,39 L16,37.4969455 C21.6321122,28.1929602 31.6685896,22 43.1118983,22 Z" id="Path" fill="#363F44" fill-rule="nonzero"></path>
        <path d="M43.1205467,11 C57.4680093,11 70.1763374,18.1639287 78,29.178755 L76.5725578,30.6540868 C69.1299818,19.9950169 56.9204552,13.0441645 43.1205467,13.0441645 C29.1719137,13.0441645 16.8481271,20.1456458 9.42957002,31 L8,29.5216287 C15.8021518,18.3128283 28.6247476,11 43.1205467,11 Z" id="Path" fill="#363F44" fill-rule="nonzero"></path>
        <path d="M43.1265636,0 C60.5561042,0 76.0671763,8.30234432 86,21.2078636 L84.5753288,22.6678599 C75.0175776,10.1186336 60.0063508,2.03227097 43.1265636,2.03227097 C26.0983207,2.03227097 10.9716501,10.2614963 1.42688837,23 L0,21.5393377 C9.92129709,8.44468069 25.5482509,0 43.1265636,0 Z" id="Path" fill="#363F44" fill-rule="nonzero"></path>
        <circle id="Oval" fill="#6BBF4E" cx="43" cy="54" r="22"></circle>
        <path d="M34.9649749,55.3309276 C34.2866959,54.6279839 33.1869883,54.6279839 32.5087093,55.3309276 C31.8304302,56.0338714 31.8304302,57.1735683 32.5087093,57.8765121 L38.2814208,63.8591403 L53.4513682,49.112869 C54.1510013,48.4327757 54.1861862,47.2936622 53.5299558,46.5685878 C52.8737254,45.8435135 51.7745808,45.8070492 51.0749476,46.4871425 L38.3587905,58.8481546 L34.9649749,55.3309276 Z" id="Path-5" fill="#FFFFFF"></path>
    </g>
</svg>