<svg width="82" height="84" xmlns="http://www.w3.org/2000/svg"><g fill="none" fill-rule="evenodd"><path fill="#6BBF4E" d="M46 0h36v36H46zM18 26.462c6.482 0 11.767 5.122 12.03 11.538H5.971c.263-6.416 5.548-11.538 12.029-11.538zM18 8c4.836 0 8.756 4.133 8.756 9.55 0 4.78-3.92 8.912-8.755 8.912-4.836 0-8.756-4.133-8.756-8.913 0-5.416 3.92-9.549 8.756-9.549z"/><path d="M18 71.778c6.63 0 12.005 5.375 12.005 12.005V84H5.996v-.217c0-6.63 5.374-12.005 12.004-12.005zM17.478 54c4.613 0 8.352 3.98 8.352 9.196 0 4.602-3.74 8.582-8.352 8.582s-8.351-3.98-8.351-8.582c0-5.216 3.739-9.196 8.351-9.196z" fill="#888" opacity=".628"/><path d="M64 72.462c6.481 0 11.766 5.122 12.029 11.538H51.97C52.234 77.584 57.52 72.462 64 72.462zM64 54c4.835 0 8.755 4.133 8.755 9.55 0 4.78-3.92 8.912-8.755 8.912-4.835 0-8.755-4.133-8.755-8.913C55.245 58.133 59.165 54 64 54z" fill="#6BBF4E"/><path d="M55.965 18.294a1.844 1.844 0 00-2.456 0 1.512 1.512 0 000 2.263l5.772 5.318 15.17-13.108c.7-.605.735-1.617.079-2.262-.656-.644-1.755-.677-2.455-.072L59.359 21.421l-3.394-3.127z" fill="#FFF"/><path stroke="#363F44" stroke-width="2" d="M1 1h34v34H1zM1 47h34v34H1zM47 47h34v34H47z"/></g></svg>